<svg version="1.1" id="&#x5716;&#x5C64;_1" xmlns="http://www.w3.org/2000/svg" xmlns:xlink="http://www.w3.org/1999/xlink" x="0px"
	 y="0px" width="372px" height="301.833px" viewBox="0 0 372 301.833" style="enable-background:new 0 0 372 301.833;"
	 xml:space="preserve">
<polygon style="fill-rule:evenodd;clip-rule:evenodd;fill:#7C4697;" points="4,127.833 121,203.833 83,285.833 196,217.833 
	258,267.833 317,294.833 264,202.833 372,135.833 263,127.833 210,40.833 147,131.833 "/>
<g>
	<path style="fill-rule:evenodd;clip-rule:evenodd;fill:#FFFFFF;" d="M209.46,123.953c-0.43-0.46-0.38-1.64-0.24-2.04
		c-0.38-0.06-0.42-0.46-0.84-0.48C208.48,122.453,208.69,124.003,209.46,123.953z M204.54,123.833c0.52,0.52,1.48,0.48,2.28,0.96
		c0.8-1.17,0.22-2.56-0.36-3.6c-0.54,0.46-0.95,0.2-1.44,0.36c0.08,0.67,1.19,0.85,0.84,1.56c-1.1-0.06-1.42-0.9-1.92-1.56
		c-2.52-0.85-3.49-3.45-5.76-4.2c-0.2,0.62,0.7,0.75,1.08,1.08c0.42,0.36,0.6,1.09,1.2,1.08c0.08,0.44,0.46,0.58,0.6,0.96
		c0.89,0.43,1.66,0.98,1.68,2.28c-0.44,0.14-0.54,0.17-0.84,0.24c-1.12-1.04-1.85-2.47-3.24-3.24c-2-3.09-6.82-4.38-10.68-6
		C192.1,118.403,197.11,123.283,204.54,123.833z M212.1,113.273c0.37,1.05-0.62,0.65-0.96,1.2c0.41,0.12,0.68-0.37,0.6,0.24
		c1.03-0.64,1.08-1.77,1.8-2.52C212.4,111.893,213.03,113.363,212.1,113.273z M213.54,111.113c0.01-0.23,0.4-0.08,0.36-0.36
		c-0.37-0.29,0.03-0.72-0.24-0.96C213.59,110.173,212.97,110.843,213.54,111.113z M195.54,115.193c-0.03,0.09-0.1,0.14-0.24,0.12
		c-1.88-1.62-3.04-4.08-5.52-5.04c-0.62-0.24-1.61-0.08-2.04-0.96c-0.37,0.14,0.02,0.3-0.24,0.48c-1.29-0.34-2.61-0.36-3.96,0.12
		v0.6c0.69,0.11,1.07,0.38,1.44,0c3.81,2.88,8.33,3.59,12,6.12C196.79,115.863,195.85,115.843,195.54,115.193z M195.9,105.953
		c0.06-0.58-0.37-0.67-0.36-1.2c-0.25,0.07-0.79-0.15-0.84,0.12C195.09,105.243,195.2,105.893,195.9,105.953z M209.94,104.633
		c-0.05-0.23,0.16-0.72-0.24-0.6C209.63,104.323,209.52,104.593,209.94,104.633z M207.06,119.993c0.74-5.58-0.66-12.1-3.12-15.96
		C203.33,109.823,204.57,116.193,207.06,119.993z M194.58,103.433c-0.03-0.93-0.58-1.34-0.96-1.92
		C193.76,101.883,193.57,103.543,194.58,103.433z M208.38,97.913c0.46,1.86,0.36,4.16,1.44,5.64c-0.5-3.46-0.62-7.46-2.28-9.6
		C207.74,94.933,207.8,96.933,208.38,97.913z M208.38,92.273c0.4,2.07,1.04,3.77,1.68,5.76c0.84,3.43,0.58,7.23,1.44,10.56
		c0.12,0.48,0.44,1.08,0.84,1.44c0.4-1.6,1.29-3.33,0.96-5.16c-0.38-2.14-1.28-4.61-1.92-6.72c-0.08-0.26,0.08-0.59,0-0.84
		c-0.3-0.91-1.35-1.58-0.84-2.4c-1.11-0.53-0.78-2.5-1.92-3C208.66,92.153,208.46,92.153,208.38,92.273z M216.78,83.393
		c0.21-0.6,0.1-1.25-0.24-1.8C216.65,82.163,216.58,82.913,216.78,83.393z M215.82,81.113c-0.16-0.58,0.7-0.89,0.36-1.56
		C215.24,79.543,215.18,80.733,215.82,81.113z M221.34,71.633c0.33-0.03,0.34-0.38,0.6-0.48c-0.42-0.04,0.01-0.32-0.24-0.36
		C221.57,71.063,221.5,71.393,221.34,71.633z M208.62,67.073c0.02-0.3-0.06-0.5-0.24-0.6C208.2,66.643,208.26,67.103,208.62,67.073z
		 M208.14,66.113c0.2-0.26-0.22-0.67-0.48-0.84C207.74,65.633,207.81,66.003,208.14,66.113z M205.86,59.513
		c0.83,2.57,2.43,4.37,3.6,6.6c0.82,2.73,2.04,4.62,2.4,7.32c-0.17,0.19-0.61,0.11-0.96,0.12c-0.81-2.13-0.72-4.76-2.28-6.12
		c0.3,0.82,0.52,1.72,0.96,2.4c-0.31,0.34,0.16,0.63,0.24,0.96c0.12,1.84,0.68,4.35,1.08,6.24c0.68,3.22,2.51,5.44,5.04,6.96
		c-0.11-0.42,0.07-1.82-0.36-2.52c-0.01,0.51-0.18,0.86-0.6,0.96c-0.97-0.31-0.21-1.19-0.36-2.28c0.06,0.2-1.15,0.73-1.44,0.12
		c0.28-0.64,0.96-0.02,1.44-0.72c0.44-8.68-2.41-15.69-8.04-19.68c0.13,0,0.3-0.06,0.12-0.12
		C206.32,60.123,206.28,59.473,205.86,59.513z M221.82,54.713c-2.9,5.22-4.95,12.99-4.08,22.08c1.73-2.2,3.4-4.69,4.08-7.68
		c0.95-4.19,1.62-10.36,2.28-15.12c0.27-0.43,0.64-1.27-0.36-1.2c-1.21,3.23-1.95,7.14-2.4,10.56c0.59,0.83,0.76,3.6-0.6,3.84
		c-0.03-0.21-0.21-0.27-0.48-0.24c-0.21-4.13,1.12-9.63,1.92-12.72c-0.29,0.17-0.44,0.19-0.6,0.24
		C221.74,54.473,221.69,54.683,221.82,54.713z M209.94,11.873c-0.45,0.31-0.7,0.82-0.84,1.44c0.33,0,0.54,0.73,0.24,0.96
		c-0.45,0.1-0.42-0.54-0.72-0.24c-0.07,0.68-0.43,1.46-0.36,1.92c1.03-0.05,0.99-1.17,1.8-1.44c0.49-1.59,1.92-2.48,2.64-3.72
		c0.05-0.08-0.05-0.42,0-0.48c0.37-0.52,0.89-0.64,1.08-1.32c0.23-0.8,0.15-2.7,0.12-3.6C212.79,7.763,210.55,9.003,209.94,11.873z
		 M206.58,7.553c-0.06-0.01-0.08-0.01-0.08-0.02c0,0,0.39,0.06,0.44,0.26c-0.53,1.87-0.09,3.44,0.6,5.16
		c0.87-3.35,0.77-5.94,0.72-9.36c-1.2,1.3,0.09,4.13-0.72,5.64c-0.02-0.58-0.32-0.88-0.24-1.56
		C206.98,7.683,206.9,7.393,206.58,7.553z M182.94,42.353c0.08-0.11,0.75,0.21,0.96,0.36c-0.22,1.26,0.02,2.25-0.24,3.36
		c-0.15,0.67-0.77,1.28-0.84,1.92c-0.15,1.42,0.93,2.65,1.08,4.32c0.6-1.54,1.83-3.79,3.24-1.56c-0.54,1.91-0.48,4.4-1.92,5.4
		c0.09,0.91,0.78,1.22,0.72,2.28c0.92-0.87,1.45-2.93,3-1.68c-0.26,1.22,0.01,2.75-0.72,4.08h-0.72c0.1,0.5-0.2,1-0.6,1.32
		c0.85,1.91,0.95,4.57,1.8,6.48c0.33,2.3,0.46,4.65,0.24,6.96c-0.18,1.88,0.11,3.31,0.24,5.16c0.2,2.74,0.09,5.6,0.6,8.16
		c0.05,0.25,0.41,0.63,0.48,0.96c0.27,1.31,0.73,3.47,1.2,4.68c0.11,0.3,0.46,0.52,0.48,0.84c0.53-2.75,0.72-7.04,1.08-9.84
		c0.15-1.18,0.38-2.61,1.08-3.36c-0.1-0.14-0.16-0.32-0.12-0.6c0.56-0.46,1.1-1.71,1.44-2.28c1.41-0.69,2.05-2.73,3.84-2.64
		c-0.33,1.31-1.94,1.95-2.64,3.24c0.61,0.7,0.54,1.01,1.32,1.32c-0.67,4.75-0.95,9.76-1.8,14.4c-0.49-0.58-0.51-1.89-0.48-2.52
		c0.04-1,0.43-1.9,0.6-2.76c0.22-2.16,0.22-5.48,0.24-8.4c-1.18,2.35-0.36,5.54-0.84,7.92c-0.23,1.12-0.87,2.1-0.48,3.24
		c-0.59,0.05-0.09,1.19-0.72,1.2c0.39,1.95,0.17,3.4,0.48,5.4c-0.27-0.08-0.71-0.1-1.08-0.36c-0.09-2.65-0.38-4.92,0.48-6.72
		c-0.38-1.46,0.44-3.49,0.6-5.28c0.16-1.74-0.26-3.88,0.36-5.28c0.23-0.51,0.81-0.8,0.96-1.32c-0.04-0.49,0.17,0.02,0.48-0.12
		c-0.09-0.27-0.36-0.36-0.6-0.48c-0.54,0.64-0.94,1.99-1.68,3c-0.17,1.4-0.47,2.86-0.96,3.6c0.34,2.76-0.25,5.81-0.6,8.64
		c0.36,1.07-0.13,3.2,0.84,3.96c0.26,1.11,1.24,1.97,1.32,2.88c0.69-0.4,0.32-1.26,0.84-1.68c0.49,0.27,0.21,0.42,0,0.84
		c-0.55,2.22,0.8,3.81,1.8,5.52c0.54,0.93,0.69,2.3,1.2,3.12c0.11,0.18,0.5,0.3,0.6,0.48c0.12,0.22,0.02,0.6,0.12,0.84
		c0.34,0.82,1.35,2.06,1.8,3c0.53,1.1,0.79,2.13,1.44,3.12c0.22,0.33,0.55,0.85,0.84,1.32c0.37,0.61,0.58,1.1,1.08,1.8
		c0.58-0.18,0.52,0,1.2,0c-1.02-2.6-2.42-5.48-3-8.88c-0.64-3.75,0.47-8.05-0.12-11.28c-0.26-1.42-1.18-2.17-1.2-3.48
		c0.29-0.15,0.5-0.38,0.84-0.48c1.7,0.61,1.01,2.84,1.56,4.68c0.11,0.37,0.44,0.59,0.6,0.96c0.3,0.69,0.35,1.56,0.6,2.28
		c0.24,0.69,0.73,1.24,0.96,1.92c0.72,2.14,1.07,4.37,1.56,6.48c0.32,1.35,0.66,2.73,0.72,4.2c0.05,1.12-0.37,2.28,0,3.36
		c1.44-1.33,1.87-3.81,2.4-5.76c0.13-0.49,0.49-1.01,0.48-1.56c-0.01-0.84-0.68-3.01-0.96-4.2c-0.23-0.97-0.56-2.04-0.84-2.88
		c-1.94-5.86-3.69-12.21-2.64-19.32c0.19-0.01,0.46,0.06,0.48-0.12c0.2,0.8-0.23,2.01-0.24,3c0.36,0.71,0.42,0.99,0.48,1.92
		c0.55-0.05,0.44-0.76,0.84-0.96c2.11,0.81,1.96,3.88,3.36,5.4c0.41,1.39,0.72,2.88,1.44,3.96c0.24,1.61,0.6,2.86,0.84,4.2
		c0.41-0.76,0.72-1.85,0.6-3c-0.23-2.26,0.46-4.67,0.6-6.48c0.76-0.67,0.22-1.95,0.96-2.52c0.25-2.36,0.85-4.87,0.84-7.08
		c-2.47,0.29-2.99-2.04-5.04-2.76c-0.13-0.75-0.65-1.11-1.08-1.56c-1.19-2.53-1.29-5.66-1.92-8.64c-0.05-0.25-0.27-0.22-0.36-0.48
		c-0.11-0.32,0.08-0.97,0-1.32c-0.36-1.61-1.35-2.93-1.68-4.32c-0.66-1.54-2.47-3.07-1.92-5.04c-0.19-0.57-0.49-1.03-0.6-1.68
		c-1.27-0.12-0.89,0.73-1.68,0.96c-0.35-0.01-0.64-0.71-0.48-0.84c2.81-2.11,6.23,1.2,7.92,3c0.82,0.88,1.42,1.57,2.04,3
		c0.67,1.56,1.88,3.81,2.16,4.92c0.09,0.35-0.06,0.69,0,1.08c0.1,0.63,0.51,1.4,0.6,2.04c0.02,0.16-0.11,0.51-0.12,0.48
		c0.11,0.47,0.42,0.69,0.48,1.08c0.25,1.65-0.35,2.77,0.48,3.6c0.03-1.99,0.6-4.13,0.48-6.36c-0.09-1.76-0.81-3.6-0.96-5.4
		c-0.06-0.68,0.14-2.14,0-3.12c-0.19-1.34-1.09-2.92-1.44-4.44c-0.25-1.1-0.32-2.07-0.72-3c-1.45-2.11-3-4.12-4.08-6.6
		c-0.37-0.03-0.47,0.38-0.72,0.12c-1.24-1.12-3.43-1.29-4.2-2.88c0.23-0.95-0.74-1.07-0.48-1.68c1.71-0.33,2.3,0.87,3.96,1.08
		c-0.38-1.77-0.57-3.38-1.08-4.68c-1.87-0.41-3.13-2.07-3-4.08c0.9-1.02,2.28,0.05,2.88,0.96c0.56-0.48-0.1-1.29-0.48-1.56
		c0.57-2.88-2.1-4.08-3.24-6c0.42-0.79,0.05-1.32,0.36-1.92c1.23-0.18,2.01,0.99,3,1.68c0.63-2.28-2.7-4.11-2.28-6.96
		c0.9-0.91,1.62,0.32,2.28,0.96c1.37-2.03-2.9-5.05-0.12-6.24c0.29,0.63,0.97,0.87,1.08,1.68c0.4-0.63,0.06-1.51,0.12-2.4
		c0.06-0.9,0.36-1.84,0.24-2.52c-0.14-0.8-0.7-1.52-0.96-2.16c-0.41-1.02-0.93-2.32-0.84-3.72c0.11-1.73,1.26-2.98,1.44-5.16
		c0.09-1.08-0.24-2.19,0-3.48c1.86,0,1.55,2.42,1.8,4.44c0.28,2.31,0.04,4.07,0.24,5.64c0.3-1.6,3.07-3.38,3.36-4.8
		c0.24-1.15-0.21-2,0.6-3c0.22-0.02,0.4-0.08,0.48-0.24c0.61-0.05,0.79,0.33,1.32,0.36c-0.02,2.71,0.04,4.67-0.36,6.84
		c-1.67,2.05-3.33,4.11-4.8,6.36c-0.6,0.24-0.99,0.69-1.56,0.96c0.12,0.9,0.17,1.7,0.24,2.52c0.67-0.45,0.94-1.3,1.92-1.44
		c0.03,0.21,0.21,0.27,0.48,0.24c0.27,0.67-0.33,0.86-0.24,1.68c-1.2,0.84-1.73,2.35-3.12,3c-0.23,0.77-0.12,1.57-0.12,2.04
		c1.23-0.4,1.12-1.58,2.76-1.68c0.25,0.19,0.21,0.67,0.48,0.84c-0.7,1.65-1.75,2.92-2.28,4.44c-0.28,0-0.35,0.21-0.72,0.12
		c-0.02,1.33-0.65,2.73-0.48,4.32c1.07-0.41,1.38-2.62,3.12-2.76c0.05,0.15,0.15,0.25,0.36,0.24c0.09,3.43-3.8,4.5-2.88,9.12
		c1.06-0.26,0.52-1.45,1.32-2.04c0.92,0.17,1.63-0.05,2.28,0.24c-0.04,0.2,0.09,0.23,0.24,0.24c-0.37,1.38-1.74,2.71-2.76,3.84
		c-0.21,0.22-0.3-0.1-0.72,0c0.32,1.36,0.7,2.66,0.84,4.2c1.34-0.92,1.53-2.24,2.76-3.24c0.49,0.36,0.64,0.31,1.32,0.48
		c-0.63,2.09-1.21,4.09-2.52,6c0.63,2.29,2.03,3.81,3.36,5.4c1.08,2.84,1.6,6.24,2.76,9c-0.12,0.36-0.19,0.77-0.36,1.08
		c0.32,1.52,0.22,2.92,0.6,4.2c0.48-1.88,0.54-6.03,1.68-8.04c0.66-4.68,3.84-8.46,5.52-12.12c0.77-0.63,1.7-1.1,2.04-2.16
		c0.15,0.17,0.52,0.12,0.84,0.12c0.02,0.31,0.11,0.92,0,1.32c-1.2,0.36-1.61,1.51-2.4,2.28c0.1,0.38,0.62,0.34,0.72,0.72
		c-0.65,7.04-1.65,12.81-2.76,19.08c-0.16,0.12-0.24,0.32-0.48,0.36c0.24,1.24-0.92,2.01-1.2,3.12c-0.9,1.01-1.95,2.83-3.12,3.96
		c1.06,3.92-0.03,8.64,0.12,11.64c-1.13,2.28-1.06,4.62-2.16,6.6c-0.3,1.5,0.16,3.13,0.12,4.56c-0.05,1.82-1.01,3.28-1.2,4.68
		c0.69-0.63,1.25-1.39,1.56-2.4c1.72-2,3.76-4.23,6.36-5.76c1.28-0.75,1.99-1.76,3.6-1.32c0.28,1.55-1.23,2.27-1.44,3.72
		c-0.63-0.11-0.94,0.73-1.2,0.6c-0.57-0.91,1.5-2.05,1.56-3.48c-4.12,1.52-7.21,5.62-9.6,8.88c-0.61,1.26-1.1,2.65-0.6,4.44
		c1.31-1.21,2.17-2.87,3.12-4.44c0.06-0.38-0.1-0.54-0.48-0.48c0.88-0.8,1.94-2.66,3-2.16c-0.16,0.72-0.71,1.05-1.2,1.44
		c-1.09,1.99-1.93,4.23-3.48,5.76c-1.6,4.71-6.51,7.28-5.4,13.92c-0.23,0.24-0.48,0.28-0.84,0.12c-0.01,0.61,0.37,0.83,0.48,1.32
		c-0.29,0.88-0.98,0.51-1.56,0.48c-0.24-0.01-0.7,0.31-1.56,0c-0.33-0.12-0.61-0.46-0.96-0.6c-0.79-0.32-1.68-0.26-2.52-0.48
		c-1.92-0.51-3.76-1.52-5.4-1.44c-0.95-0.81-2.14-1.38-3.48-1.8c-1.6-1.2-2.73-2.87-4.32-4.08c-1.14-2.18-3.61-3.03-4.68-5.28
		c-1.36-0.28-2.35-0.93-3.6-1.32c0.08-0.1,0.19-0.33,0-0.36c0.19-0.65,0.89-0.79,1.2-1.32c1.85-0.61,4.27-0.71,6.12,0.24
		c-0.11-0.05,0.49,0.02,0.72,0.12c2.39,1.07,3.82,3.42,5.88,5.16c2.24,1.34,4.16,2.74,6.36,4.32c0.26,0.3,0.31,0.81,0.84,0.84
		c-2.27-3.89-4.8-8.56-6.72-13.2c-0.21,0.07-0.5,0.06-0.6,0.24c-3.55-1.57-2.93-7.33-4.68-10.8c-1.43-0.6-3.21-1.81-3.72-2.76
		c-2.68-1.7-6.77-1.41-9.48-2.28c-2.88-0.3-6.34-1.6-9.24-0.6c4.11,1.17,9.25,3.35,14.28,4.2c0.1,0.34,0.47,0.41,0.72,0.6
		c0.37,0.09,0.44-0.12,0.72-0.12c1.85,1.27,3.28,2.96,4.92,4.44c-0.16,0.2-0.32,0.4-0.24,0.84c-0.19-0.21-0.5-0.3-0.96-0.24
		c-0.62-1.14-2.02-1.5-2.52-2.76c-1.28-0.83-2.47-1.41-3.84-1.56c-0.17-0.02-0.88-0.2-0.96-0.24c-0.63-0.32-1.39-0.97-2.64-0.96
		c1.47,1.55,2.7,2.67,4.56,3.72c-0.14,0.16-0.05,0.19,0,0.36c1.43,1.17,2.97,2.23,3.96,3.84c1.96,2.83,5.97,3.63,8.64,5.16
		c-0.29,0.69-0.84,0.49-1.68,0.48c-1.41-1.17-3.04-0.86-4.32-2.16c-0.19,0.01-0.46-0.06-0.48,0.12c-0.32-0.57-1.17-0.87-1.68-1.32
		c-0.11-0.1,0.02-0.34-0.12-0.48c-0.09-0.09-0.43-0.06-0.48-0.12c-0.76-0.91-1.28-1.84-2.04-2.64c-0.56-0.58-1.22-0.86-1.92-1.44
		c-0.18-0.15-0.2-0.56-0.36-0.72c-0.55-0.54-1.43-0.75-1.68-1.56c-1.76-0.8-3.03-2.09-4.32-3.36c-1.03-0.37-1.93-0.87-3.24-0.96
		c-0.14-0.14-0.14-0.42-0.12-0.72c-1.83-1.3-4.73-0.26-5.76-2.16c0.2-0.52,1.33-0.75,1.32-1.08c2.83-0.62,6.98,0.25,10.32,0.96
		c1.44,0.31,3.68,0.43,5.28,0.96c0.63-0.16,1.47,0,1.8,0.48c0.27,0.16,0.45-0.31,0.48,0c1.66,0.62,2.33,2.23,4.08,2.76
		c-0.51-2.14-1.06-4.37-1.56-6.84c-0.5-2.48-0.52-5.01-0.84-7.56c-0.2-1.63-0.61-3.34-0.36-5.04c0.6-4.07-0.38-7.81-1.2-11.4
		c-0.44-0.6-0.4-1.68-0.6-2.52c-0.39,0.51-0.94,0.23-1.2,0.96c-0.21-0.07-0.7,0.15-0.72-0.12c-0.43-1.19-2.59-2.82-1.68-4.32
		c1.31-0.49,1.97,0.6,2.64,1.2c0.52-0.52-0.26-1.6-0.72-1.92c0.12-0.7-0.35-1.79-0.6-2.52c-1.42-0.9-4.98-1.54-3.6-4.2
		c1.02-0.31,1.49,0.46,2.4,0.6c-0.16-2.44-2.53-3.71-4.56-4.68c-0.28-0.54-1.3-0.77-0.84-1.68c0.43-0.04,0.58-0.18,0.96,0
		c0.48-0.85,1.21-1.12,2.04-1.08c-0.02-0.54-0.38-0.74-0.6-1.08c0.58-1.33-0.74-2.03-1.68-1.56c-1.39-0.47-2.2-1.16-3-2.4
		c0.09-0.42,0.12-0.42,0.24-0.96c1.18,0.27,2.41,1.1,3.24,1.32c0.08-1.96-2.51-2.29-3.36-3.72c0.24-0.76-0.22-0.91-0.12-1.8
		c0.86-0.55,1.5,0.36,2.28,0.6c0.85-1.16,0.6-3.24,2.64-3.6c1.08,1.73,0,4.99-0.96,5.88c0.58,0.78,0,1.99,0.96,2.4
		c0.64-1.54,0.76-3.95,3.24-3.96c0.14,3.59-2.39,6.67-1.56,9.96C182.05,44.343,182.28,42.613,182.94,42.353z"/>
	<path style="fill-rule:evenodd;clip-rule:evenodd;fill:#FFFFFF;" d="M171.14,19.073c0.68,1.06,0.18,2.35,0.36,3.48
		c0.22,1.39,1.06,2.65,1.56,4.08c0.07-2.72-0.49-5.49-1.32-8.04c-0.27-0.38-0.66-0.54-0.84-0.72c0.04-0.35,0.11-0.28,0.36-0.6
		c1.43,0.3,1.11,1.93,1.92,2.64c0.55,2.72,1.2,5.06,1.2,7.8c0.53,0.53,0.39,1.6-0.36,1.8c-1.06-0.63-1.6-2.1-2.04-3.36
		c-0.27-0.76-0.8-1.54-0.96-2.28C170.66,22.213,170.41,20.643,171.14,19.073z"/>
	<path style="fill-rule:evenodd;clip-rule:evenodd;fill:#FFFFFF;" d="M176.94,28.313c0.81-1.37,1.53-3.15,1.68-5.16
		C175.79,22.483,176.73,26.743,176.94,28.313z M179.82,17.993c-1.08,1.16-2.01,2.47-2.52,4.2c0.38,0.03,1.4-0.68,2.04-0.12
		c1.02,2.7-0.94,5.83-1.92,8.04c-0.26-0.05-1.07,0.25-1.8,0.12c-0.19-1.07,0.88-0.88,1.2-1.44c-2.88-3.34-0.23-8.59,2.16-11.28
		C179.25,17.683,179.77,17.603,179.82,17.993z"/>
</g>
<g>
	
		<path style="fill-rule:evenodd;clip-rule:evenodd;fill:none;stroke:#FFFFFF;stroke-width:2;stroke-linecap:round;stroke-linejoin:round;stroke-miterlimit:10;" d="
		M147.62,123.063c0,0-49.77,0.68-65.26-0.04C66.88,122.313,0,134.833,0,134.833s38.12,22.2,45,26s22.68,11.5,27.22,12.11
		c4.55,0.61,25.07,12.49,28.02,13.22c2.95,0.74,17.7,6.49,21.26,8.94s7,5.39,9.34,4.4c2.33-0.98,5.16,2.33,5.16,2.33"/>
	
		<path style="fill-rule:evenodd;clip-rule:evenodd;fill:none;stroke:#FFFFFF;stroke-width:2;stroke-linecap:round;stroke-linejoin:round;stroke-miterlimit:10;" d="
		M121.06,191.603c0,0-14.64,27.15-16.61,32.92c-1.96,5.77-5.41,11.18-8.11,17.81c-2.71,6.63-12.79,21.87-13.78,25.8
		c-0.98,3.93-8.61,17.69-8.61,17.69"/>
	
		<path style="fill-rule:evenodd;clip-rule:evenodd;fill:none;stroke:#FFFFFF;stroke-width:2;stroke-linecap:round;stroke-linejoin:round;stroke-miterlimit:10;" d="
		M74.81,288.643c0,0,6.76-1.97,10.45-6.27c3.69-4.31,20.9-16.73,28.52-20.05c7.62-3.33,22.5-8.5,25.32-13.54
		c2.83-5.04,14.51-7.88,21.02-13.04c6.52-5.16,28.28-16.98,28.28-16.98"/>
	
		<path style="fill-rule:evenodd;clip-rule:evenodd;fill:none;stroke:#FFFFFF;stroke-width:2;stroke-linecap:round;stroke-linejoin:round;stroke-miterlimit:10;" d="
		M176.35,212.643c0,0,23.1,20.35,27.04,21.32c3.93,0.98,13.14,10.05,15.72,12.26s20.4,10.29,24.95,15.07
		c4.54,4.78,42.51,28.3,47.8,30.14c5.28,1.83,22.98,10.4,22.98,10.4s-14.25-28.59-14.25-30.67c0-2.09-8.84-16.81-8.11-19.76
		c0.74-2.94-9.94-29.08-12.89-33.99c-2.95-4.9-5.65-8.7-5.65-8.7"/>
	
		<line style="fill-rule:evenodd;clip-rule:evenodd;fill:none;stroke:#FFFFFF;stroke-width:2;stroke-linecap:round;stroke-linejoin:round;stroke-miterlimit:10;" x1="277.01" y1="206.863" x2="292.26" y2="196.043"/>
	
		<path style="fill-rule:evenodd;clip-rule:evenodd;fill:none;stroke:#FFFFFF;stroke-width:2;stroke-linecap:round;stroke-linejoin:round;stroke-miterlimit:10;" d="
		M295.21,194.683c0,0,26.18-21.15,26.92-22.01c0.74-0.86,10.45-6.27,14.63-10.45c4.18-4.18,18.44-21.51,22.86-22.5
		c4.43-0.98,7.38-6.51,7.38-6.51"/>
	
		<path style="fill-rule:evenodd;clip-rule:evenodd;fill:none;stroke:#FFFFFF;stroke-width:2;stroke-linecap:round;stroke-linejoin:round;stroke-miterlimit:10;" d="
		M204,46.833l8.54-12c0,0,9.16,15.32,13.46,19s10,17,10,17l9,18c2.09,4.17,16.06,29.54,16.06,29.54l6.39,7.85
		c0,0,14.75,1.57,18.44,1.45c3.68-0.13,35.39,0.44,38.83,1.3c3.44,0.85,39.7,2.03,39.7,2.03"/>
	
		<path style="fill-rule:evenodd;clip-rule:evenodd;fill:none;stroke:#FFFFFF;stroke-width:2;stroke-linecap:round;stroke-linejoin:round;stroke-miterlimit:10;" d="
		M161,104.833c0,0-7.72,12.33-11.04,15.16"/>
</g>
</svg>
