<svg version="1.1" id="&#x5716;&#x5C64;_1" xmlns="http://www.w3.org/2000/svg" xmlns:xlink="http://www.w3.org/1999/xlink" x="0px"
	 y="0px" width="109.488px" height="117.191px" viewBox="0 0 109.488 117.191" style="enable-background:new 0 0 109.488 117.191;"
	 xml:space="preserve">
<path style="fill:#6A318E;" d="M0.069,46.026c-0.93,16.9,7.4,39.12,37,49c29.601,9.88,58.8-7.3,63-15c4.2-7.699,21-34-4-61
	c-17.649-19.06-49-12-49-12C14.617,2.426,0.998,29.126,0.069,46.026z"/>
<polygon style="fill:#6A318E;" points="40.069,87.026 37.069,114.026 50.069,91.026 "/>
<path style="fill:none;stroke:#FFFFFF;stroke-linecap:round;stroke-linejoin:round;stroke-miterlimit:10;" d="M53.069,4.026
	c20.22-1.31,59.07,8.9,54,55c-5.07,46.101-58.42,41-58.42,41l-10.58,12l2.34-19.05c0,0-36.16-3.84-36.34-37.95
	c-0.18-34.109,23.3-56.51,56-55"/>
</svg>
