<svg version="1.1" id="&#x5716;&#x5C64;_1" xmlns="http://www.w3.org/2000/svg" xmlns:xlink="http://www.w3.org/1999/xlink" x="0px"
	 y="0px" width="1534.684px" height="719px" viewBox="0 0 1534.684 719" style="enable-background:new 0 0 1534.684 719;"
	 xml:space="preserve">
<g>
	<g>
		
			<path style="fill-rule:evenodd;clip-rule:evenodd;fill:none;stroke:#FFFFFF;stroke-width:3;stroke-linecap:round;stroke-linejoin:round;stroke-miterlimit:10;" d="
			M1065.023,445.05c0,0-13.01-3.63-21.99-3.13c-8.97,0.5-10.66,2.97-12.57,9.41c-1.9,6.44-5.25,9-4.71,9.41
			c0.54,0.42,10.15,2.4,18.85,1.57c8.71-0.83,15.07-2.82,11-17.26"/>
		
			<path style="fill-rule:evenodd;clip-rule:evenodd;fill:none;stroke:#FFFFFF;stroke-width:3;stroke-linecap:round;stroke-linejoin:round;stroke-miterlimit:10;" d="
			M1025.753,416.82c0,0-8.2,0.18-12.56-1.57c-4.37-1.75-5.84-0.61-7.86,1.57c-2.01,2.17-3.14,3.14-3.14,3.14s10.62,5.25,17.28-1.57"
			/>
		
			<path style="fill-rule:evenodd;clip-rule:evenodd;fill:none;stroke:#FFFFFF;stroke-width:3;stroke-linecap:round;stroke-linejoin:round;stroke-miterlimit:10;" d="
			M1021.043,410.54c0,0-2.24-10.58-1.57-15.68c0.67-5.11-3.93-6.22-7.85-7.85c-3.93-1.62-0.7,5.66,1.57,10.98
			c2.26,5.33,2.72,11.47,3.14,10.98"/>
		
			<path style="fill-rule:evenodd;clip-rule:evenodd;fill:none;stroke:#FFFFFF;stroke-width:3;stroke-linecap:round;stroke-linejoin:round;stroke-miterlimit:10;" d="
			M1008.474,401.13c-0.14,0.57-5.06-11.12-15.7-4.71c0,0,4.68,10.34,15.7,6.28"/>
		
			<path style="fill-rule:evenodd;clip-rule:evenodd;fill:none;stroke:#FFFFFF;stroke-width:3;stroke-linecap:round;stroke-linejoin:round;stroke-miterlimit:10;" d="
			M988.054,387.01c0,0,13.51,5.21,21.99,15.69c8.49,10.47,24.29,20.04,28.28,21.96c3.99,1.92,12.38,11.84,15.71,15.69
			c3.32,3.84,10.08,6.97,21.99,10.98"/>
		
			<path style="fill-rule:evenodd;clip-rule:evenodd;fill:none;stroke:#FFFFFF;stroke-width:3;stroke-linecap:round;stroke-linejoin:round;stroke-miterlimit:10;" d="
			M1041.463,426.23c0,0-12.58-12.94-9.42-21.96c3.15-9.03,4.71-14.12,4.71-14.12s-0.9,5.01,3.14,9.41
			c4.03,4.41,11.79,10.87,3.14,28.24c0,0-17.47-3.86-20.42-1.57c-2.95,2.29-6.49,10.62-12.57,10.98c0,0,15.67,12.61,23.57,4.71
			c7.89-7.9,10.99-12.55,10.99-12.55"/>
		
			<path style="fill-rule:evenodd;clip-rule:evenodd;fill:none;stroke:#FFFFFF;stroke-width:3;stroke-linecap:round;stroke-linejoin:round;stroke-miterlimit:10;" d="
			M1055.604,440.35c0,0,2.06-1.02-1.57-9.41c-3.64-8.4-2.36-15.15,0-25.1c0,0,0.5,3.96,6.28,10.98c5.78,7.02,10.01,17.39-1.57,26.67
			"/>
	</g>
	<path style="fill-rule:evenodd;clip-rule:evenodd;fill:#6CABA3;" d="M1063.454,322.69c0,0-8.55,28.92-10.99,40.79
		c-2.45,11.87-7.05,34.53-1.58,43.93c5.48,9.39,11.64,22.5,11,37.64c-0.64,15.15,7.85,32.95,7.85,32.95s5.25,17.34,15.71,21.96
		c10.47,4.62,26.7,21.96,26.7,21.96s18.44,4.05,23.57,6.28c5.12,2.22,53.74,13.25,81.68,6.27c27.93-6.97,92.67-28.24,92.67-28.24
		s23.23-2.8,36.13-43.92c12.89-41.12,17.28-36.08,17.28-36.08s5.72-9.76,6.28-15.69s5.66-13.55,6.28-25.1
		c0.63-11.55,7.89-28.42,1.57-36.08c-6.31-7.65-22.55-23.31-32.98-23.53c-10.44-0.21-45.06-10.25-67.55-12.55
		c-22.48-2.29-53.39-9.21-73.82-9.41c-20.43-0.2-45.86,4.46-53.41,6.27c-7.55,1.82-65.61,18.83-75.39,15.69
		C1064.664,322.69,1063.454,322.69,1063.454,322.69z M1069.733,332.11c22.17,1.61,77.93-16.25,106.82-21.97
		c28.88-5.71,89.27,5.72,103.67,10.99c14.39,5.26,63.73,13.75,73.82,12.55c10.1-1.21,12.85,12.9,15.71,20.39
		c2.85,7.48,1.57,20.39,1.57,20.39h-3.14c0,0-0.8,7.23-1.57,14.12c-0.78,6.89-20.71,28.22-42.41,36.08
		c-21.7,7.86-104.27,4.82-131.95,6.28c-27.67,1.45-60.7-7.8-69.11-9.42c-8.41-1.61-28.7-9.59-34.56-14.11
		c-5.86-4.53-10.99-3.14-10.99-3.14s-0.24-6.97-6.29-10.98c-6.04-4.01-6.15-6.72-7.85-20.4
		C1061.764,359.22,1069.733,332.11,1069.733,332.11z"/>
	<path style="fill-rule:evenodd;clip-rule:evenodd;fill:#FFFFFF;" d="M1118.434,598.79c0,0,10.07,7.11,14.13,9.41
		c4.07,2.3,24.79,0.76,26.71,0c1.91-0.76,19.92-18.92,17.28-23.53c-2.65-4.6-8.38-23.33-20.42-26.67
		c-12.05-3.34-15.86,1.88-20.42,1.57c-4.57-0.31-8.44-0.64-11,3.14C1122.153,566.49,1108.344,588.17,1118.434,598.79z
		 M1141.994,589.38c0,0,3.38-2.3,4.71,0c1.33,2.29-2.86,7.7-4.71,7.84C1140.134,597.37,1139.023,592.78,1141.994,589.38z
		 M1134.134,578.4c0,0,1.39,2.55-1.57,6.27c-2.95,3.72-8.58,3.58-7.85,1.57C1125.443,584.23,1124.854,576.73,1134.134,578.4z
		 M1143.563,573.69c-4.47-1.12-3.43-6.11,0-6.28c3.42-0.16,5.35,0.17,4.71,3.14C1147.644,573.52,1143.563,573.69,1143.563,573.69z
		 M1157.704,576.83c0,0,4.25,1.13,1.57,4.7c-2.69,3.57-3.96,5.56-6.29,3.14C1150.664,582.26,1152.674,576.65,1157.704,576.83z"/>
	<path style="fill-rule:evenodd;clip-rule:evenodd;fill:#FFFFFF;" d="M1165.554,572.12c0,0,11,9.5,20.42,7.84
		c9.42-1.65,19.65-7.02,21.99-12.55c2.34-5.52,8.25-20.22,6.28-26.66c-1.97-6.45-8.61-10.99-15.7-12.55
		c-7.1-1.57-9.34-5.3-18.85-1.57C1170.174,530.36,1146.894,549.28,1165.554,572.12z M1170.264,558c-4.07-4.76,1.67-9.03,4.71-7.84
		c3.05,1.19,4.19,3.41,1.58,6.27C1173.934,559.3,1170.264,558,1170.264,558z M1185.974,543.88c0,0-1.98-3.45,0-4.7s3.28-0.72,4.71,0
		c1.43,0.72,3.61,6.72,0,7.84S1185.974,543.88,1185.974,543.88z M1185.974,561.14c0,0,1.54,3.92,0,6.27c-1.54,2.36-5.76,1.81-6.28,0
		C1179.164,565.61,1180.063,559.51,1185.974,561.14z M1200.113,561.14c-2.74,1-2.97-1.22-3.14-4.71c-0.18-3.48,0.61-5.05,3.14-6.27
		c2.521-1.22,3.17,1.22,3.14,4.7C1203.214,558.35,1200.113,561.14,1200.113,561.14z"/>
	
		<path style="fill-rule:evenodd;clip-rule:evenodd;fill:none;stroke:#FFFFFF;stroke-width:3;stroke-linecap:round;stroke-linejoin:round;stroke-miterlimit:10;" d="
		M1159.273,603.5c0,0-0.61,8.96,9.42,14.11c10.04,5.16,20.42,0,20.42,0s20.67-10.09,23.561-21.96c2.89-11.86,2.45-17.75-3.14-20.39
		c-5.59-2.64-22.53-1.31-25.13,0c-2.6,1.3-11,1.57-11,1.57"/>
	<path style="fill-rule:evenodd;clip-rule:evenodd;fill:#FFFFFF;" d="M1174.974,601.93c0,0,4.36,0.1,4.72,3.13
		c0.35,3.04-4.81,5.44-6.29,3.14C1171.934,605.91,1172.324,602.55,1174.974,601.93z"/>
	<path style="fill-rule:evenodd;clip-rule:evenodd;fill:#FFFFFF;" d="M1184.403,592.51c0,0,3.771,2.31,6.28-1.56
		c2.52-3.88-0.61-4.45-1.57-4.71c-0.96-0.26-3.86,0.33-4.71,1.57C1183.554,589.04,1183.503,591.39,1184.403,592.51z"/>
	<path style="fill-rule:evenodd;clip-rule:evenodd;fill:#FFFFFF;" d="M1193.824,598.79c0,0,2.82,2.73,0,4.71
		c-2.82,1.97-6.38-2.34-4.71-3.14C1190.793,599.56,1192.233,596.6,1193.824,598.79z"/>
	<path style="fill-rule:evenodd;clip-rule:evenodd;fill:#FFFFFF;" d="M1200.113,589.38c0,0,4.49-1.78,4.71-3.14
		c0.22-1.36-1.02-6.31-3.14-4.71C1199.563,583.13,1197.264,587.63,1200.113,589.38z"/>
	
		<path style="fill-rule:evenodd;clip-rule:evenodd;fill:none;stroke:#FFFFFF;stroke-width:3;stroke-linecap:round;stroke-linejoin:round;stroke-miterlimit:10;" d="
		M1218.964,554.86c0,0-7.79,17.78-4.72,25.1c3.08,7.33,14.14,6.28,14.14,6.28s7.979,2.16,14.14-1.57
		c6.15-3.73,10.79-5.17,15.71-7.84c4.91-2.68,7.21-15.85,6.28-21.97c-0.93-6.11-10.17-9.35-17.28-12.55
		c-7.11-3.19-21.37-2.86-32.99,10.99"/>
	<path style="fill-rule:evenodd;clip-rule:evenodd;fill:#FFFFFF;" d="M1234.664,558c0,0,5.65,1.29,3.15,3.14
		c-2.51,1.84-4.29,0.78-4.72,0C1232.664,560.36,1232.063,558.06,1234.664,558z"/>
	<path style="fill-rule:evenodd;clip-rule:evenodd;fill:#FFFFFF;" d="M1231.523,570.55c0,0,3.83,2.02,3.14,3.14
		c-0.68,1.12-4.64,3.26-6.28,0C1226.744,570.43,1231.523,570.55,1231.523,570.55z"/>
	<path style="fill-rule:evenodd;clip-rule:evenodd;fill:#FFFFFF;" d="M1234.664,542.31c0,0-1.87,6.85,1.57,7.85
		c3.45,1,5.47-1.22,3.15-4.71C1237.054,541.96,1234.664,542.31,1234.664,542.31z"/>
	<path style="fill-rule:evenodd;clip-rule:evenodd;fill:#FFFFFF;" d="M1251.943,551.73c0,0,1.22-7.17,3.14-6.28
		c1.92,0.89,2.03,5.09,0,6.28C1253.063,552.91,1252.363,554.27,1251.943,551.73z"/>
	<path style="fill-rule:evenodd;clip-rule:evenodd;fill:#FFFFFF;" d="M1248.804,559.57c0,0,4,5.41,3.14,6.28
		c-0.86,0.86-3.52,2.35-4.71-1.57C1246.043,560.36,1246.304,556.81,1248.804,559.57z"/>
	<path style="fill-rule:evenodd;clip-rule:evenodd;fill:#FFFFFF;" d="M1209.534,601.93l-4.71,6.27
		c-7.02,22.01,6.14,34.49,12.57,36.08c6.42,1.59,11.77-3.78,20.42-7.84c8.64-4.07,14.15-13.67,15.7-18.83
		c1.56-5.15-5.06-19.15-9.42-21.96c-4.37-2.81-12.74-5.07-20.42-4.7C1215.994,591.31,1209.534,601.93,1209.534,601.93z
		 M1218.964,617.61c-3.63-0.11-2.08-4.7,0-4.7c2.07-0.01,4.93,1.75,4.71,3.13C1223.443,617.43,1218.964,617.61,1218.964,617.61z
		 M1225.244,627.03c0,0,4.78,1.33,3.14,3.13c-1.64,1.8-7.05,2.87-7.85,1.57c-0.8-1.3-1.4-3.51,0-4.7
		C1221.924,625.83,1225.244,627.03,1225.244,627.03z M1231.523,608.2c-2.02-0.33-3.46-0.98-1.57-3.14c1.89-2.15,2.28-4.19,3.14,0
		C1233.964,609.26,1231.523,608.2,1231.523,608.2z M1242.523,606.63c0,0,6.49,6.78,3.14,7.85c-3.35,1.06-5.2-3.04-4.71-4.71
		S1240.083,605.9,1242.523,606.63z"/>
	
		<path style="fill-rule:evenodd;clip-rule:evenodd;fill:none;stroke:#FFFFFF;stroke-width:3;stroke-linecap:round;stroke-linejoin:round;stroke-miterlimit:10;" d="
		M1264.514,625.46c0,0,10.26,8.23,21.99,10.98s18.44,3.45,21.99,6.27c3.55,2.83,22.08,18.25,28.27,20.4
		c6.2,2.14,9.43,3.13,9.43,3.13l4.71-20.39c0,0-1.479-27.82-4.71-50.2c-3.229-22.37-7.86-43.92-7.86-43.92s-24.25,1.07-31.41,6.27
		c-7.16,5.2-11.54,6.77-15.71,7.85c-4.17,1.08-4.71,3.13-4.71,3.13s-13.47,65.73-14.14,65.89"/>
	<path style="fill-rule:evenodd;clip-rule:evenodd;fill:#FFFFFF;" d="M1284.934,565.85l-12.57,61.18
		c8.34,10.82,35.08,11.94,45.55,21.96c10.48,10.01,25.14,17.25,25.14,17.25l7.85-17.25c0,0-19.56-21.84-26.7-28.24
		c-7.14-6.39-17.42-19.66-25.13-29.8C1291.354,580.8,1284.934,565.85,1284.934,565.85z M1300.644,622.32c0,0-0.66-1.74,1.57-1.57
		c2.22,0.18,1.939,3.99,1.57,6.28c-0.37,2.28-6.87,3.4-4.71,1.56C1301.224,626.76,1300.644,622.32,1300.644,622.32z
		 M1289.644,620.75c0,0,3.26,5.94,0,6.28c-0.97,0.1-1.27,0.17-1.29,0.14c-0.03-0.09,1.52-0.81-0.28-3.28
		C1285.514,620.36,1287.414,618.95,1289.644,620.75z M1317.914,631.73c-0.26-0.23,0.27-2.17,1.58-3.14c1.3-0.96,3.29,1.62,1.57,4.71
		C1319.333,636.39,1317.914,631.73,1317.914,631.73z M1324.204,639.58c1.19-1.37,1.43,0.49,3.14,3.13c1.7,2.65-2.58,2.83-3.14,1.57
		C1323.644,643.02,1324.204,639.58,1324.204,639.58z M1336.764,647.42c0,0-0.82-1.88,0-4.71c0.83-2.82,2.91,1.74,3.15,4.71
		C1340.144,650.39,1336.764,647.42,1336.764,647.42z M1288.074,598.79c4.53,0.77,4.45,4.71,1.57,3.14
		c-2.88-1.57-2.38,0.91-1.57,3.13c0.81,2.23-1.03,3.91-3.14,0C1282.813,601.16,1288.074,598.79,1288.074,598.79z"/>
	<path style="fill-rule:evenodd;clip-rule:evenodd;fill:#FFFFFF;" d="M1316.344,670.95c0,0,2.92,0.37,3.15,3.14
		c0.22,2.77-3.3,6.35-4.72,3.14c-1.41-3.22,0.69-3.86-1.57-6.28C1310.943,668.53,1316.344,670.95,1316.344,670.95z"/>
	<path style="fill-rule:evenodd;clip-rule:evenodd;fill:#FFFFFF;" d="M1343.054,677.23c0,0,0.82,3.21,1.57,0
		c0.75-3.22-1.55-2.84-3.14-3.14C1339.894,673.79,1343.054,677.23,1343.054,677.23z"/>
	<path style="fill-rule:evenodd;clip-rule:evenodd;fill:#FFFFFF;" d="M883.054,539.23c0,0,0.82,3.21,1.57,0
		c0.75-3.22-1.55-2.84-3.14-3.14C879.894,535.79,883.054,539.23,883.054,539.23z"/>
	<path style="fill-rule:evenodd;clip-rule:evenodd;fill:#FFFFFF;" d="M1383.894,683.5c0,0,4.38-0.94,6.28-3.14
		c1.9-2.19,2.41-1.23-1.57-3.13c-3.98-1.91-6.61-0.88-6.28,1.56C1382.644,681.23,1380.964,683.14,1383.894,683.5z"/>
	<path style="fill-rule:evenodd;clip-rule:evenodd;fill:#FFFFFF;" d="M825.894,567.5c0,0,4.38-0.94,6.28-3.14
		c1.9-2.19,2.41-1.23-1.57-3.13c-3.98-1.91-6.61-0.88-6.28,1.56C824.644,565.23,822.963,567.14,825.894,567.5z"/>
	<path style="fill-rule:evenodd;clip-rule:evenodd;fill:#C0C273;" d="M622.074,365.05c0,0,7.88,8.15,10.99,7.84
		c3.11-0.31,19.69,1.88,28.27,1.57c8.59-0.3,53.86-1.92,64.41-3.14c10.55-1.21,48.29-5.05,62.83-4.7
		c14.53,0.35,37.67,0.33,40.84-1.57c3.17-1.9,11.62-9.03,10.99-14.12c-0.62-5.08-15.25-9.24-18.85-9.41
		c-3.6-0.17-16.74-3.64-25.13-3.14c-8.39,0.5-45.78,1.08-53.41-1.57c-7.62-2.65-14.91-6.55-34.55-1.57
		c-19.64,4.99-35.48,8.67-42.41,10.99c-6.93,2.31-6.72,6.18-15.71,6.27c-9,0.09-13.41,2.14-17.28,3.14
		C629.204,356.63,616.514,359.09,622.074,365.05z M667.624,361.91c1.92-10.11,3.42-11.12,4.71-12.55c1.29-1.42,3.21,8.17,3.14,12.55
		c-0.07,4.39-2.4,9.1-4.71,9.41C668.454,371.64,667.624,361.91,667.624,361.91z M719.454,354.07c-0.14-3.78,0.19-6.88,1.57-10.98
		c1.39-4.11,4.47-1.29,4.72,1.57c0.25,2.85,2,6.58,3.14,9.41c1.14,2.83-0.69,11.55-4.71,10.98
		C720.144,364.48,719.454,354.07,719.454,354.07z M761.864,355.64c0,0,0.83-1.43,1.57-3.14c0.75-1.71,4.4-5.9,6.29-6.27
		c1.89-0.38,4.17,1.91,3.14,6.27c-1.03,4.36-6.14,3.7-6.28,6.27c-0.15,2.58-0.3,2.37-1.57,1.57
		C763.733,359.55,761.793,355.99,761.864,355.64z M807.424,357.21c0,0,4.04-7.25,7.85-7.85c3.81-0.59,4.94-0.09,4.71,3.14
		s0.47,7.96-3.14,7.84c-3.61-0.11-4.02-4.35-3.14-4.7c0.88-0.36,0.24,0.34,1.57,1.57c1.33,1.22,2.7,0.14,3.14-3.14
		c0.44-3.28-2.89-3.45-4.71-1.57S808.354,359.8,807.424,357.21z"/>
	<path style="fill-rule:evenodd;clip-rule:evenodd;fill:#C0C273;" d="M724.174,476.43c0,0,8.72,6.52,15.7,6.27
		c6.99-0.24,31.95-7.34,40.84-9.41c8.9-2.07,37.13-8.19,62.83-14.12c25.71-5.92,42.42-11.06,51.84-17.25
		c9.42-6.2,27.53-21.76,32.98-25.1c5.46-3.34,5.54-3.82,6.29-6.28c0.74-2.46-7.41-16.56-15.71-15.68
		c-8.3,0.87-22.99,1.79-40.84,6.27s-80.37,22.53-103.67,32.94c-23.3,10.41-48.67,30.32-48.69,31.38
		C725.713,466.5,719.954,471.12,724.174,476.43z M790.144,443.49c0.98-2.13,0.37-1.03,3.14,0c2.77,1.02-1.42,9.31-3.14,12.55
		c-1.72,3.23-6.16,3.5-7.86-4.71c-1.69-8.21,1.03-8.64,4.72-12.55c3.69-3.91,7.33-1.94,4.71-1.57c-2.62,0.37-7.5,7.27-7.86,9.41
		c-0.35,2.14-0.32,10,3.15,7.85C790.463,452.32,790.144,443.49,790.144,443.49z M848.264,418.39c0,0-0.38,3.4-3.15,4.7
		c-2.76,1.31,1.19,10.83,3.15,12.55c1.95,1.72,2.09-5.54,1.57-7.84c-0.53-2.31,0.07-5.11,1.57-4.71c1.49,0.41,1.43,8.59,1.57,10.98
		c0.14,2.4-3.97,5.02-6.28,3.14c-2.32-1.88-4.89-9.58-3.15-14.12C845.293,418.55,848.264,418.39,848.264,418.39z M890.674,410.54
		c1.84-4.28,4.9-4.25,6.28,0c1.38,4.26,2.22,2.26,0,4.71s1.1,7.89,0,10.98s-5.65-2.19-6.28-3.14c-0.63-0.94-1.62-4.22,0-4.7
		C892.293,417.9,890.674,410.54,890.674,410.54z"/>
	<path style="fill-rule:evenodd;clip-rule:evenodd;fill:#6CABA3;" d="M870.253,441.92c0,0-0.81,8.38,0,12.55
		c0.8,4.17,14.19,36.51,14.13,39.22c-0.06,2.7,1.79,6.47,14.14,6.27c12.35-0.2,12.57,0,12.57,0l17.27,39.22
		c0,0,4.88,8.13,3.15,10.98c-1.74,2.85,0.59,8.55,3.14,10.98c2.54,2.43,9.42,7.84,9.42,7.84l6.29-1.57c0,0,2.12,4.98,3.14,0
		c1.02-4.97,3.03-12.72,0-9.41c-3.03,3.32-2.58-1.04-3.14-4.7c-0.57-3.66-23.57-61.18-23.57-61.18s-1.19-4.68,3.15-7.85
		c4.33-3.16,4.86-4.64,4.71-10.98c-0.16-6.34-6.56-20.47-7.86-29.8c-1.3-9.34-13.9-24.02-17.27-23.53c-3.37,0.48-4.71,1.06-4.72,4.7
		c0,3.65,2.23,11.99,6.29,18.83c4.05,6.84,6.71,23.37,4.71,23.53c-2.01,0.16-4.26-3.01-7.86-14.12
		c-3.59-11.11-3.79-18.21-6.28-21.96c-2.49-3.76-3.76-3.66-9.42-1.57c-5.67,2.08-2.65,6.84-1.57,12.55
		c1.08,5.71,9.44,25.59,9.42,29.8c-0.02,4.22-1.54,10.57-3.14,7.85c-1.6-2.73-8.69-5.71-11-20.4
		C883.653,444.48,872.144,440.25,870.253,441.92z"/>
	<path style="fill-rule:evenodd;clip-rule:evenodd;fill:#D9AF6C;" d="M832.554,383.87c0,0,0.64,0.53,1.57-3.13
		c0.93-3.66,1.77-7.77,0-6.28C832.354,375.95,828.023,377.19,832.554,383.87z M868.684,376.03c0,0,2.11,2.31,3.14,3.14
		c1.03,0.83,4.35-3.72,3.14-6.28c-1.21-2.55-1.47-3.27-3.14-1.57C870.153,373.03,867.653,372.96,868.684,376.03z M694.324,397.99
		c0,0,20.43,10.53,28.27,10.98c7.85,0.46,28.62-0.68,40.84,0c12.23,0.69,25.17,1.13,34.56-1.56c9.39-2.7,39.86-11.18,47.12-12.55
		c7.27-1.38,28.13-8.02,31.42-7.85c3.29,0.18,14.6-3.53,20.42-3.14c5.82,0.4,12.78,0.75,14.14-3.13c1.35-3.89-2.23-14.45-6.29-17.26
		c-4.05-2.8-29.27-5.71-36.12-3.14c-6.86,2.58-61.85,9.05-70.69,10.98c-8.83,1.94-60.09,10.59-70.68,12.55
		c-10.6,1.97-24.14,5.65-26.71,6.28C698.043,390.78,691.733,393.74,694.324,397.99z M744.594,397.99c0,0,1.75-9.14,4.71-9.41
		s6.23,0.92,6.28,4.71c0.05,3.78-2.5,4.5-4.71,4.7c-2.21,0.21-2.07-3.78,0-3.13c2.06,0.64,0.85,0.71,1.57-1.57
		c0.72-2.28-2.05-3.11-3.14-1.57C748.213,393.25,746.594,399.36,744.594,397.99z M790.144,388.58c-1.5-2.65,1.04-8.81,3.14-9.41
		c2.1-0.61,3.98,5.32,4.71,7.84c0.74,2.52-1.18,11.64-4.71,10.98C789.753,397.34,790.144,388.58,790.144,388.58z M827.844,383.87
		c0.2-6.01,2.26-9.71,4.71-12.55c2.44-2.83,3.85,4.41,4.71,9.42c0.86,5.01-1.98,4.65-4.71,6.27
		C829.824,388.63,827.844,383.87,827.844,383.87z M865.534,377.6c-3.26-1.72,2.37-4.57,3.15-7.84c0.77-3.28,2.37-3.47,4.71-3.14
		c2.34,0.32,3.51,6.86,3.14,9.41c-0.37,2.55-3.91,10.03-4.71,6.28C871.014,378.55,865.534,377.6,865.534,377.6z"/>
	<path style="fill-rule:evenodd;clip-rule:evenodd;fill:#D9AF6C;" d="M951.934,454.47l7.85-4.71c0,0,11.36,10.45,21.99,17.26
		s36.13,36.08,36.13,36.08l36.13,40.78l1.57-4.7c0,0,18.26,19.14,20.42,20.39c2.15,1.25,14.13,17.26,14.13,17.26l-12.56,10.98
		l-4.71-1.57c0,0-32.38-38.88-39.27-43.93c-6.9-5.04-17.28-17.25-17.28-17.25l-15.71,10.98l-7.85-1.57c0,0-19.77-20.45-21.99-28.24
		c-2.23-7.78-12.57-21.96-12.57-21.96S957.014,462.68,951.934,454.47z"/>
	
		<path style="fill-rule:evenodd;clip-rule:evenodd;fill:none;stroke:#FFFFFF;stroke-width:3;stroke-linecap:round;stroke-linejoin:round;stroke-miterlimit:10;" d="
		M874.963,357.21c0,0-5.95-15.37-9.43-31.38c-3.47-16-1.57-39.22-1.57-39.22s6.32-17.71,18.85-21.96"/>
	
		<path style="fill-rule:evenodd;clip-rule:evenodd;fill:none;stroke:#FFFFFF;stroke-width:3;stroke-linecap:round;stroke-linejoin:round;stroke-miterlimit:10;" d="
		M906.374,258.38c0,0,25.5-3.49,40.84,9.41c15.34,12.9,25.04,31.98,14.14,40.79c-10.9,8.8-91.6,25.86-97.39-15.69"/>
	
		<path style="fill-rule:evenodd;clip-rule:evenodd;fill:none;stroke:#FFFFFF;stroke-width:3;stroke-linecap:round;stroke-linejoin:round;stroke-miterlimit:10;" d="
		M961.354,308.58c0,0-0.34,24.27,0,32.94s0.28,17.21-6.28,17.25c-6.56,0.05-15.5-1.1-23.56,3.14c-8.07,4.25-21.99,4.71-21.99,4.71"
		/>
	
		<path style="fill-rule:evenodd;clip-rule:evenodd;fill:none;stroke:#FFFFFF;stroke-width:3;stroke-linecap:round;stroke-linejoin:round;stroke-miterlimit:10;" d="
		M964.494,328.97c0,0,6.97-16.88,12.57-17.26c5.59-0.37,9.56,4.86,6.28,10.98c-3.28,6.13-7.5,10.86-17.28,7.85"/>
	<path style="fill-rule:evenodd;clip-rule:evenodd;fill:#FFFFFF;" d="M871.824,256.81l21.99,15.69l14.13,9.41h1.58l-3.15-31.38
		v-10.98l-1.57-9.41l-1.57-3.14l-28.27,28.24L871.824,256.81z M878.104,256.81l6.28-6.28l1.57,1.57c0,0-2.77,4.9-3.17,6.06
		C882.124,257.63,878.104,256.81,878.104,256.81z M882.813,258.38c-0.1,0.06-0.1-0.02-0.03-0.22
		C882.894,258.24,882.914,258.31,882.813,258.38z M887.523,247.4l3.15-3.14h1.57l-1.57,4.7L887.523,247.4z M895.384,239.55
		l3.14-3.14h1.57l-3.14,3.14H895.384z M901.664,269.36h1.57l1.57,4.7h-3.14V269.36z"/>
	<path style="fill-rule:evenodd;clip-rule:evenodd;fill:#FFFFFF;" d="M956.644,288.18c-0.07,0.17,0.05,0.45,0.3,0.76
		C956.963,288.33,956.744,287.94,956.644,288.18z M959.784,289.75c-1.02,0.68-2.27-0.1-2.84-0.81c-0.03,0.75-0.42,1.82-1.87,2.38
		c-2.62,1.01-4.99-0.82-3.14-3.14c1.84-2.31,5.81-6.76,4.71-7.84s-6.52,2.8-7.86,3.14c-1.33,0.33-2.73,2.3-3.14,0
		c-0.4-2.31,2.32-2.94,0-3.14c-2.31-0.2-0.92-1.38,0-3.14c0.92-1.76,0.35-4.95-1.57-3.14c-1.92,1.82-5.2,4.37-6.28,4.71
		s-2.16-1.48,0-3.14c2.15-1.66,2.75-3.34,1.57-4.7c-1.18-1.37-3.34-7.12-3.14-3.14c0.19,3.98,1.86,3.38,0,4.71
		c-1.87,1.32-3.24,3.82-3.14,4.7c0.1,0.88-1.09,2.2-3.14,0c-2.06-2.2-1.92-4.42,0-4.7c1.91-0.29,2.93-2.91,0-3.14
		c-2.94-0.24-2.52,2.05-4.72,1.57c-2.19-0.49-3.84-1.83-4.71-3.14s-2.38-0.89-4.71,0s-4.25,0.09-3.14,3.14
		c1.1,3.04,3.75,5.88,0,7.84s-0.62,3.78-3.14,4.71c-2.53,0.92-5.54,4.71-7.86,1.56c-2.32-3.14,1.92-4.8-3.14-4.7
		c-5.06,0.09-14.53-2.7-14.14-3.14c0.4-0.44-1.24-4.07-3.14-3.14c-1.9,0.94,1.9,4.07,0,4.71s-4.63,0.35-6.28,3.14
		c-1.65,2.78-7.19,4.82-4.71,7.84c2.47,3.02,4.93,1.84,1.57,4.71c-3.37,2.87-4.88,6.44,0,6.27c0,0,2.54-0.6,6.28,3.14
		c3.74,3.74,5.75,8.12,11,7.84c1.94-0.1,2.53-0.18,3.11-0.14c0.98,0.06,1.94,0.47,9.45,1.71c11.95,1.97,22.53-0.35,28.28,0
		c5.74,0.36,9.19,3.36,15.7-3.14c6.51-6.49,9.8-10.76,12.57-10.98c2.77-0.21,6.8-0.12,4.71-1.57c-2.09-1.44-3.26-2.82-1.57-4.7
		C963.043,291.01,961.233,288.78,959.784,289.75z M881.244,300.73c0,0,5.3-1.74,4.71,0c-0.58,1.74-3.83,5.57-4.71,3.14
		C880.374,301.44,881.233,300.9,881.244,300.73z M893.813,307.01c0,0,1.33-3.5,3.14-3.14c1.81,0.36,1.87,2.38,0,3.14
		C895.083,307.76,893.184,309.47,893.813,307.01z M900.094,308.58c0,0,1.54,0.17,1.57-1.57c0.04-1.75,2.96,0.47,1.57,1.57
		C901.854,309.67,900.693,311.01,900.094,308.58z M907.943,310.14c-2.72,0.33-1.24-1.35,0-3.13c1.25-1.78,2.29-1.75,3.15,0
		C911.943,308.75,907.943,310.14,907.943,310.14z M918.943,310.14c0,0,2.64-1.39,3.14-3.13c0.51-1.75,2.14-1,0,1.57
		C919.943,311.14,920.153,310.33,918.943,310.14z"/>
	
		<line style="fill-rule:evenodd;clip-rule:evenodd;fill:none;stroke:#FFFFFF;stroke-width:3;stroke-linecap:round;stroke-linejoin:round;stroke-miterlimit:10;" x1="873.394" y1="278.77" x2="867.104" y2="278.77"/>
	
		<line style="fill-rule:evenodd;clip-rule:evenodd;fill:none;stroke:#FFFFFF;stroke-width:3;stroke-linecap:round;stroke-linejoin:round;stroke-miterlimit:10;" x1="879.674" y1="270.93" x2="876.534" y2="267.79"/>
	
		<line style="fill-rule:evenodd;clip-rule:evenodd;fill:none;stroke:#FFFFFF;stroke-width:3;stroke-linecap:round;stroke-linejoin:round;stroke-miterlimit:10;" x1="912.664" y1="261.51" x2="912.664" y2="258.38"/>
	
		<line style="fill-rule:evenodd;clip-rule:evenodd;fill:none;stroke:#FFFFFF;stroke-width:3;stroke-linecap:round;stroke-linejoin:round;stroke-miterlimit:10;" x1="925.224" y1="264.65" x2="923.653" y2="261.51"/>
	
		<line style="fill-rule:evenodd;clip-rule:evenodd;fill:none;stroke:#FFFFFF;stroke-width:3;stroke-linecap:round;stroke-linejoin:round;stroke-miterlimit:10;" x1="950.364" y1="275.63" x2="955.074" y2="274.06"/>
	
		<line style="fill-rule:evenodd;clip-rule:evenodd;fill:none;stroke:#FFFFFF;stroke-width:3;stroke-linecap:round;stroke-linejoin:round;stroke-miterlimit:10;" x1="920.514" y1="311.71" x2="922.083" y2="319.56"/>
	
		<line style="fill-rule:evenodd;clip-rule:evenodd;fill:none;stroke:#FFFFFF;stroke-width:3;stroke-linecap:round;stroke-linejoin:round;stroke-miterlimit:10;" x1="903.233" y1="311.71" x2="904.804" y2="319.56"/>
	
		<line style="fill-rule:evenodd;clip-rule:evenodd;fill:none;stroke:#FFFFFF;stroke-width:3;stroke-linecap:round;stroke-linejoin:round;stroke-miterlimit:10;" x1="887.523" y1="310.14" x2="884.384" y2="316.42"/>
	
		<line style="fill-rule:evenodd;clip-rule:evenodd;fill:none;stroke:#FFFFFF;stroke-width:3;stroke-linecap:round;stroke-linejoin:round;stroke-miterlimit:10;" x1="868.684" y1="300.73" x2="876.534" y2="299.16"/>
	
		<line style="fill-rule:evenodd;clip-rule:evenodd;fill:none;stroke:#FFFFFF;stroke-width:3;stroke-linecap:round;stroke-linejoin:round;stroke-miterlimit:10;" x1="867.104" y1="297.59" x2="874.963" y2="296.03"/>
	<g>
		
			<path style="fill-rule:evenodd;clip-rule:evenodd;fill:none;stroke:#6CABA3;stroke-width:3;stroke-linecap:round;stroke-linejoin:round;stroke-miterlimit:10;" d="
			M1093.304,231.71c0,0-7.43,3.74-15.71,10.98c-8.29,7.24-16.24,13.96-25.13,17.26c0,0-7.88-0.53-18.85,0
			c-10.98,0.52-24.3,8.5-23.57,7.84c0.74-0.66,8.81,5.63,20.42,6.27c11.62,0.65,20.7-0.77,22-12.55"/>
		
			<path style="fill-rule:evenodd;clip-rule:evenodd;fill:none;stroke:#6CABA3;stroke-width:3;stroke-linecap:round;stroke-linejoin:round;stroke-miterlimit:10;" d="
			M1049.313,261.51c0,0-9.07,10.09-37.69,6.28"/>
		
			<path style="fill-rule:evenodd;clip-rule:evenodd;fill:none;stroke:#6CABA3;stroke-width:3;stroke-linecap:round;stroke-linejoin:round;stroke-miterlimit:10;" d="
			M1063.454,253.67c0,0-12.43,11.51-20.42,0c-7.99-11.51-7.67-25.35-17.28-29.81c0,0,30.56,11.74,36.13,28.24"/>
		
			<path style="fill-rule:evenodd;clip-rule:evenodd;fill:none;stroke:#6CABA3;stroke-width:3;stroke-linecap:round;stroke-linejoin:round;stroke-miterlimit:10;" d="
			M1061.884,255.24c0,0-9.02,0.36-15.71-9.41c-6.69-9.78-15.45-17.33-18.85-20.4"/>
		
			<path style="fill-rule:evenodd;clip-rule:evenodd;fill:none;stroke:#6CABA3;stroke-width:3;stroke-linecap:round;stroke-linejoin:round;stroke-miterlimit:10;" d="
			M1076.023,231.71c0,0-8.59,11.9-15.71,6.27s-12.44-5.42-17.28-10.98c-4.84-5.56-7.85-7.84-7.85-7.84s8.38,4.18,18.85,1.57
			c10.46-2.62,20.42,9.41,20.42,9.41s4.16,4.24,10.99,4.71"/>
		
			<path style="fill-rule:evenodd;clip-rule:evenodd;fill:none;stroke:#6CABA3;stroke-width:3;stroke-linecap:round;stroke-linejoin:round;stroke-miterlimit:10;" d="
			M1082.304,239.55c0.71-0.72,1.13,10.27,3.14,15.69c2.01,5.41-0.7,26.81-3.14,32.94c-2.44,6.14-3.14,12.55-3.14,12.55
			s0.78-15.67-1.57-25.1c-2.36-9.43-5.45-21.15,4.71-28.23"/>
		
			<path style="fill-rule:evenodd;clip-rule:evenodd;fill:none;stroke:#6CABA3;stroke-width:3;stroke-linecap:round;stroke-linejoin:round;stroke-miterlimit:10;" d="
			M1083.874,250.53c0,0,0.31,15.47-1.57,26.67c-1.88,11.2-3.14,23.53-3.14,23.53"/>
		
			<path style="fill-rule:evenodd;clip-rule:evenodd;fill:none;stroke:#6CABA3;stroke-width:3;stroke-linecap:round;stroke-linejoin:round;stroke-miterlimit:10;" d="
			M1065.023,253.67c0,0,1.3,10.53-6.28,14.12c-7.59,3.59-22.35,11.58-15.71,39.22c0,0,3.9,11.16,3.14,10.98
			c-0.76-0.18,0.55-8.62,6.29-17.26c5.73-8.63,9.23-22.3,7.85-31.37"/>
		
			<path style="fill-rule:evenodd;clip-rule:evenodd;fill:none;stroke:#6CABA3;stroke-width:3;stroke-linecap:round;stroke-linejoin:round;stroke-miterlimit:10;" d="
			M1055.604,269.36c0,0-8.85,3.8-9.43,20.39c-0.57,16.59-1.57,26.67-1.57,26.67"/>
	</g>
	<path style="fill-rule:evenodd;clip-rule:evenodd;fill:#D9AF6C;" d="M1135.714,212.88c2.58-1.53,4.08-2.45,4.899-2.98l-0.189-0.15
		c0,0,2.25-1.17,0.189,0.15c1.64,1.4,13.84,11.47,20.23,9.26c6.85-2.38,10.99-10.98,10.99-10.98s-0.82-5.18-7.85-12.55l6.28-7.85
		c0,0,5.72-6.54,1.57-12.55c-4.14-6-17.55-13.94-28.27-29.8c-10.72-15.86-21.31-28.48-25.13-37.65
		c-3.82-9.17-13.52-19.89-17.28-23.53c0,0-11.25,9.83-25.13,17.25c-13.89,7.43-33.05,19.6-32.99,20.4
		c0.06,0.79,13.03,17.33,20.42,26.67c7.39,9.33,14.81,23.46,20.42,28.23s21.99,20.4,21.99,20.4s0.271,6.93,4.71,9.41
		S1126.613,218.29,1135.714,212.88z M1148.273,206.61c0,0,6.32-1.38,12.57-7.84l3.14,4.7c0,0,3.58,3.49,0,6.28
		C1160.403,212.53,1153.773,216.27,1148.273,206.61z M1050.884,123.47c0,0,17.04-11.99,26.71-15.69s25.13-14.12,25.13-14.12
		s24.81,33.22,31.41,42.36c6.61,9.13,20.42,29.8,20.42,29.8l-45.55,26.67c0,0-29.03-32.72-36.12-42.35
		C1065.784,140.5,1050.884,123.47,1050.884,123.47z"/>
	<path style="fill-rule:evenodd;clip-rule:evenodd;fill:#6CABA3;" d="M1120.003,179.94c0,0-1.91-4.16,0-4.71
		c1.9-0.54,3.57-1.58,3.14,1.57C1122.714,179.96,1120.003,179.94,1120.003,179.94z"/>
	<path style="fill-rule:evenodd;clip-rule:evenodd;fill:#FFFFFF;" d="M1121.574,165.82c0,0,2.71-0.47,3.14,1.57
		c0.43,2.04-2.061,0.89-3.14,1.57C1120.483,169.64,1121.574,165.82,1121.574,165.82z"/>
	<path style="fill-rule:evenodd;clip-rule:evenodd;fill:#FFFFFF;" d="M1126.284,159.55c0,0,1.75-5.03,3.14-3.14
		c1.4,1.89-0.68,3.88-1.57,4.71C1126.974,161.95,1126.204,161.8,1126.284,159.55z"/>
	<path style="fill-rule:evenodd;clip-rule:evenodd;fill:#FFFFFF;" d="M1141.994,165.82c0,0-0.17,4.19,3.14,4.71
		c3.31,0.52,4.49-0.32,4.71-3.14c0.22-2.81-1.23-3.97-3.14-4.7C1144.804,161.95,1142.224,161.81,1141.994,165.82z"/>
	<path style="fill-rule:evenodd;clip-rule:evenodd;fill:#FFFFFF;" d="M1140.424,129.74c0,0,3.83,0.37,7.85,0
		c4.02-0.37,5.61,6.04,1.57,6.28C1145.813,136.25,1139.284,137.4,1140.424,129.74z"/>
	<path style="fill-rule:evenodd;clip-rule:evenodd;fill:#FFFFFF;" d="M1185.974,178.37c0,0,4.91,2.06,3.14,3.14
		c-1.77,1.08-4.62,2.16-4.71,0C1184.313,179.35,1185.043,178.24,1185.974,178.37z"/>
	<path style="fill-rule:evenodd;clip-rule:evenodd;fill:#FFFFFF;" d="M1173.403,216.02c0,0,4.91,0.86,3.15,3.14
		C1174.784,221.44,1171.824,218.7,1173.403,216.02z"/>
	<path style="fill-rule:evenodd;clip-rule:evenodd;fill:#FFFFFF;" d="M1163.983,223.86c0,0,3.48,3.95,1.57,4.71
		C1163.644,229.33,1161.284,224.27,1163.983,223.86z"/>
	<path style="fill-rule:evenodd;clip-rule:evenodd;fill:#FFFFFF;" d="M1170.264,233.28c0,0,5.62-1.82,6.29,1.57
		c0.66,3.38-0.27,4.81-3.15,4.7C1170.534,239.44,1167.574,237.03,1170.264,233.28z"/>
	<path style="fill-rule:evenodd;clip-rule:evenodd;fill:#FFFFFF;" d="M1130.994,168.96c0,0,1.68-0.66,1.57,1.57
		c-0.1,2.229-2.67,5.35-3.14,3.14C1128.954,171.45,1129.974,169.98,1130.994,168.96z"/>
	<path style="fill-rule:evenodd;clip-rule:evenodd;fill:#FFFFFF;" d="M1107.434,168.96c0,0,2.16,2.4,4.71,1.57
		c2.56-0.84,1.4-5.37,0-6.28c-1.39-0.91-2.55-3.32-4.71-1.56C1105.273,164.44,1105.874,167.57,1107.434,168.96z"/>
	<path style="fill-rule:evenodd;clip-rule:evenodd;fill:#FFFFFF;" d="M1109.003,178.37c0,0,2.49,0.72,1.57,3.14
		c-0.91,2.42-0.69,4.29-1.57,3.14C1108.124,183.49,1107.914,181.36,1109.003,178.37z"/>
	<path style="fill-rule:evenodd;clip-rule:evenodd;fill:#6CABA3;" d="M1105.863,189.35c0,0,3.521,2.32,4.71,0
		c1.2-2.31,4.99-5.78,1.57-6.27C1108.733,182.59,1106.434,186.21,1105.863,189.35z"/>
	<path style="fill-rule:evenodd;clip-rule:evenodd;fill:#6CABA3;" d="M1126.284,176.8c0,0,1.55,4.75,3.14,3.14
		c1.6-1.6,2.76-2.75,1.57-4.71c-1.19-1.95-4.58-2.59-4.71-1.56C1126.164,174.69,1126.284,176.8,1126.284,176.8z"/>
	<path style="fill-rule:evenodd;clip-rule:evenodd;fill:#FFFFFF;" d="M1156.134,267.79c0,0,5.53-1.91,6.28,1.57
		c0.75,3.47-2.06,9.51-4.71,6.27C1155.043,272.4,1152.164,269.09,1156.134,267.79z"/>
	<path style="fill-rule:evenodd;clip-rule:evenodd;fill:#FFFFFF;" d="M1178.124,263.08c0,0,2.68,2.44,0,3.14
		c-2.68,0.7-3.39-1.72-3.15-3.14C1175.224,261.67,1176.414,261.21,1178.124,263.08z"/>
	<path style="fill-rule:evenodd;clip-rule:evenodd;fill:#FFFFFF;" d="M1196.974,253.67c0,0,2.88,6.67,4.71,4.71
		c1.82-1.97,1.24-5.11,0-6.28C1200.434,250.94,1195.034,248.52,1196.974,253.67z"/>
	<path style="fill-rule:evenodd;clip-rule:evenodd;fill:#6CABA3;" d="M1192.253,274.06c0,0,1.54,1.23,1.57,4.71
		c0.03,3.48-4.41,4.98-4.71,3.14C1188.813,280.06,1188.684,271.57,1192.253,274.06z"/>
	<path style="fill-rule:evenodd;clip-rule:evenodd;fill:#6CABA3;" d="M1173.403,297.59c0,0-0.57,3.45-1.57,3.14
		c-1-0.3-3.23-3.19-1.57-4.7C1171.934,294.51,1173.354,294.54,1173.403,297.59z"/>
	<path style="fill-rule:evenodd;clip-rule:evenodd;fill:#C0C273;" d="M1168.693,280.34c0,0-1.479,2.75,0,6.27
		c1.48,3.52-1.62,5.24-3.14,4.71c-1.52-0.53-8.2,2.13-6.28,6.27c1.91,4.15,0.86,7.53-1.57,6.28c-2.44-1.25-7-0.87-4.72,1.57
		c2.28,2.43,5.47,6.83,1.57,6.27c-3.89-0.55-7.35,6.17-10.99,7.85c-3.64,1.67-1.91,0.08-1.57-4.71c0.34-4.79,3.24-10.31,6.28-9.41
		c3.05,0.9,2.29,0.05,1.57-3.14c-0.72-3.19-1.4-5.86,1.57-6.27c2.98-0.42,11.06-5.2,9.43-7.85c-1.63-2.64-5.39-3.33,0-6.27
		c5.39-2.94,8.12-6.4,7.85-7.85C1168.424,272.62,1173.574,278.43,1168.693,280.34z"/>
	<path style="fill-rule:evenodd;clip-rule:evenodd;fill:#D9AF6C;" d="M1132.563,274.06c0,0-1.35,3.35,1.57,3.14
		c2.93-0.2,2.78,4.22,0,6.28c-2.771,2.06-11.17,4.87-12.56,3.13c-1.39-1.73,1.97-11.61,3.14-14.11
		C1125.884,269.99,1133.113,268.5,1132.563,274.06z"/>
	<path style="fill-rule:evenodd;clip-rule:evenodd;fill:#6CABA3;" d="M1185.974,307.01c0,0,4.32,0.95,3.14,6.27
		c-1.18,5.32-4.96,5.05-4.71,1.57C1184.653,311.38,1183.134,304.61,1185.974,307.01z"/>
	<path style="fill-rule:evenodd;clip-rule:evenodd;fill:#FFFFFF;" d="M1154.554,401.13c0,0,2.65,2.23,6.29,1.57
		c3.63-0.67,6.74-4.66,6.28-6.28c-0.45-1.61-1.73-0.57-4.71,0C1159.434,397,1151.874,398.47,1154.554,401.13z"/>
	<path style="fill-rule:evenodd;clip-rule:evenodd;fill:#FFFFFF;" d="M1173.403,407.41c0,0,2.86,1.5,6.29,1.56
		c3.42,0.07,1.62-5.61,0-6.27c-1.62-0.67-5.69-2.18-6.29,0C1172.813,404.88,1170.063,405.77,1173.403,407.41z"/>
	<path style="fill-rule:evenodd;clip-rule:evenodd;fill:#FFFFFF;" d="M1223.674,408.97c0,0,6.2,3.22,6.28,0
		c0.08-3.21-2.71-2.4-4.71-3.13C1223.244,405.1,1221.474,407.59,1223.674,408.97z"/>
	<path style="fill-rule:evenodd;clip-rule:evenodd;fill:#6CABA3;" d="M1242.523,322.69c0,0,2.67,27.72-6.29,42.36
		c-8.95,14.64-13.96,19.29-10.99,21.96c2.97,2.67,13.09,9.18,12.57,3.14c-0.53-6.04-7.74-1.51-4.72-7.84
		c3.03-6.34,14.08-30.51,14.14-36.08c0,0,6.57-1.86,11,6.27c4.42,8.13,3.37,28.59-17.28,37.65c0,0-1.69,1.86,0,3.14
		c1.68,1.27,15.18-1.63,20.42-10.98c5.23-9.36,12.1-36.43-7.86-40.79c0,0,7.04-11.45,4.72-15.69
		C1255.903,321.59,1245.434,317.06,1242.523,322.69z"/>
	<path style="fill-rule:evenodd;clip-rule:evenodd;fill:#C0C273;" d="M1385.464,294.46c0,0-3.9,8.77-7.86,10.98
		c-3.95,2.21-4.77-2.79-4.71,1.57c0.06,4.35,0.29,10.51-4.71,12.55c-5,2.03-11,6.27-11,6.27s-3.08-4.47-4.71-4.7
		c-1.63-0.24-7.91,1.51-6.28-1.57c1.63-3.08,4.89-5.87,6.28-4.71c1.4,1.16,5.35,3.25,3.14,0c-2.21-3.25-6.28-5.34-7.85-3.14
		c-1.57,2.21-9.37,7.56-6.28,9.42c3.08,1.85,14.48,2.2,10.99,4.7s-7.33,3.2-4.71,4.71c2.62,1.51,2.62-1.4,4.71-1.57
		c2.1-0.18,4.31-2.38,4.71,3.14c0.41,5.52-4.24,9.93-1.57,14.12c2.68,4.18,1.4,5.92,4.72,4.7c3.31-1.22,5.99-9.7,6.28-15.69
		c0.29-5.98-4.25-9.35,0-12.55c4.25-3.19,7.74-3.31,7.851,0c0.12,3.32,0,3.78,4.71,4.71c4.72,0.93,7.86-3.6,6.29-10.98
		C1383.894,309.04,1381.684,303.81,1385.464,294.46z M1380.753,311.71c0,0,1.27,10.69,0,10.98c-1.28,0.29-5.59-1.1-4.72-4.7
		C1376.914,314.39,1377.604,309.51,1380.753,311.71z"/>
	<path style="fill-rule:evenodd;clip-rule:evenodd;fill:#C0C273;" d="M1328.914,255.24c0,0-3.67-3.6-6.28,0
		c-2.62,3.6-13.91,3.14-17.28,4.71c-3.38,1.56-1.28,4.24,1.57,9.41c2.85,5.17,7.39,3.66,10.99,3.14c3.61-0.53,3.61,0.52,3.15,4.7
		c-0.47,4.18,2.09,8.83,9.42,9.41c7.33,0.59,5.47-7.78,6.28-17.25c0.82-9.47,10.59-6.8,14.14-6.28c3.55,0.53-0.06,2.04-3.14,7.85
		s-3.67,4.64-1.57,7.84c2.09,3.2,8.84,2.15,12.56,3.14c3.73,0.99,5.36-1.22,1.58-3.14c-3.79-1.92,3.54-9.24,4.71-10.98
		c1.16-1.74,5.35-0.12,10.99,1.57c5.65,1.68,5.3,3.66,4.72,0c-0.59-3.66-13.39-7.5-17.28-7.85c-3.9-0.34-3.09-5.69-4.72-10.98
		c-1.62-5.28-10.7-14.46-14.13-15.68c-3.43-1.22-1.92,1.22-1.57,6.27c0.35,5.06,1.74,12.84,1.57,14.12
		c-0.18,1.28-4.71,6.16-9.43,7.84c-4.71,1.69-7.85,3.43-10.99,6.28s-6.4,0.17-9.43-1.57c-3.02-1.74-4.88-1.28-6.28-3.14
		s8.84-5.11,11-4.7C1321.644,260.35,1328.914,255.24,1328.914,255.24z M1330.483,272.5c0,0,0.82,6.21,0,6.27
		c-0.81,0.06-6.05-0.76-4.71-3.14S1329.204,269.88,1330.483,272.5z M1352.474,275.63c-3.02-0.64,1.86-5.4,4.71-7.84
		s2.51,1.28,1.57,3.14C1357.824,272.79,1352.474,275.63,1352.474,275.63z M1354.043,259.95c-3.08,1.33-3.66-2.74-4.71-6.28
		c-1.05-3.54-2.91-8.31-1.57-10.98s5.41,5.23,6.28,9.41C1354.914,256.28,1354.043,259.95,1354.043,259.95z"/>
	<path style="fill-rule:evenodd;clip-rule:evenodd;fill:#D9AF6C;" d="M1270.793,407.41c0,0-9.42-10.64-4.71-18.83
		s17.04-26.55,14.14-36.08c0,0,2.9,4.18,9.42,0s15.36-4.42,18.85,0c3.49,4.42,15.94,34.05-14.14,51.77
		C1264.284,421.99,1270.793,407.41,1270.793,407.41z"/>
	<g>
		
			<path style="fill-rule:evenodd;clip-rule:evenodd;fill:none;stroke:#FFFFFF;stroke-width:5;stroke-linecap:round;stroke-linejoin:round;stroke-miterlimit:10;" d="
			M1120.003,354.07c0,0,17.92,2.38,25.13,1.57c7.21-0.82,43.979-10.98,43.979-10.98l14.14-3.14c0,0,8.09,17.84,3.14,21.96
			c-4.94,4.13-4.71,10.52-14.14,9.41c0,0-11.86,7.27-23.56,7.85c-11.69,0.58-38.1,3.48-40.84-1.57c-2.73-5.06-5.18-20.74-6.28-21.96
			C1120.464,355.99,1120.003,354.07,1120.003,354.07z"/>
		
			<path style="fill-rule:evenodd;clip-rule:evenodd;fill:none;stroke:#FFFFFF;stroke-width:5;stroke-linecap:round;stroke-linejoin:round;stroke-miterlimit:10;" d="
			M1148.273,354.07c0,0-2.56,8.54,1.57,12.55c4.13,4.01,8.09,4.47,11,1.57c2.91-2.91,6.63-10,3.14-17.26"/>
		
			<path style="fill-rule:evenodd;clip-rule:evenodd;fill:none;stroke:#FFFFFF;stroke-width:5;stroke-linecap:round;stroke-linejoin:round;stroke-miterlimit:10;" d="
			M1176.554,354.07c0,0-0.24,10.05,3.14,10.98c3.37,0.93,7.21,1.16,7.85-6.28c0.64-7.43-4.71-10.98-4.71-10.98"/>
	</g>
	<path style="fill-rule:evenodd;clip-rule:evenodd;fill:#C0C273;" d="M1112.144,418.39c-0.05-1.28,3.9-24.29,11-28.24
		c7.1-3.95,20.94-6.16,29.84-1.57c8.91,4.59,11.7,2.96,17.28-1.57c5.59-4.53,9.89-9.88,20.42-6.27c10.53,3.6,18.33,6.27,18.85,17.25
		c0,0-0.29,2.73,6.28,0c6.58-2.73,12.86-6.56,23.57-6.27c10.7,0.29,11.05,10.98,29.84,10.98s29.5-3.37,36.13,1.57
		s10.7,10.28,1.57,23.53c0,0-69.99,2.44-106.811,1.57c-36.83-0.87-56.72-8.31-69.12-7.85
		C1118.604,421.99,1112.204,419.66,1112.144,418.39z"/>
	<path style="fill-rule:evenodd;clip-rule:evenodd;fill:#FFFFFF;" d="M1156.134,401.13c0,0,4.82,3.66,7.85,1.57
		c3.02-2.09,4.19-4.42,3.14-6.28c-1.05-1.86-3.84-0.93-6.28,0C1158.394,397.35,1152.934,398.4,1156.134,401.13z"/>
	<path style="fill-rule:evenodd;clip-rule:evenodd;fill:#FFFFFF;" d="M1171.833,405.84c0,0,5.18,5.81,7.86,4.7
		c2.67-1.1,2.67-6.21,0-7.84c-2.68-1.63-4.08-0.7-6.29,0C1171.193,403.4,1170.384,405.02,1171.833,405.84z"/>
	<path style="fill-rule:evenodd;clip-rule:evenodd;fill:#FFFFFF;" d="M1223.674,404.27c0,0,0.11,5.29,3.14,6.27
		c3.03,0.99,8.03-0.06,4.71-3.13C1228.214,404.33,1225.653,404.21,1223.674,404.27z"/>
	<g>
		
			<path style="fill-rule:evenodd;clip-rule:evenodd;fill:none;stroke:#6CABA3;stroke-width:3;stroke-linecap:round;stroke-linejoin:round;stroke-miterlimit:10;" d="
			M1071.304,374.46c0,0,44.17-20.35,59.69-51.77"/>
		
			<path style="fill-rule:evenodd;clip-rule:evenodd;fill:none;stroke:#6CABA3;stroke-width:3;stroke-linecap:round;stroke-linejoin:round;stroke-miterlimit:10;" d="
			M1124.714,333.68c0,0,5.149-15.36,1.57-18.83c-3.58-3.47-4.71-3.14-4.71-3.14s-3.73,6-3.14,12.55c0.58,6.55,4.71,10.98,4.71,10.98
			"/>
		
			<path style="fill-rule:evenodd;clip-rule:evenodd;fill:none;stroke:#6CABA3;stroke-width:3;stroke-linecap:round;stroke-linejoin:round;stroke-miterlimit:10;" d="
			M1109.003,349.36c0,0,5.17-12.3,3.14-21.96c-2.02-9.65-4.71-10.98-4.71-10.98s-14.55,24.08-1.57,25.1"/>
		
			<path style="fill-rule:evenodd;clip-rule:evenodd;fill:none;stroke:#6CABA3;stroke-width:3;stroke-linecap:round;stroke-linejoin:round;stroke-miterlimit:10;" d="
			M1087.014,365.05c0,0,4.64-3.62,3.14-17.26l-1.57-7.84c0,0-6.88,4.01-7.85,9.41c-0.97,5.41-1.85,12.74,4.71,15.69"/>
		
			<path style="fill-rule:evenodd;clip-rule:evenodd;fill:none;stroke:#6CABA3;stroke-width:3;stroke-linecap:round;stroke-linejoin:round;stroke-miterlimit:10;" d="
			M1088.583,365.05c0,0,14.86-3.16,17.28,1.57c2.42,4.73,3.44,9.57,6.28,9.41c0,0-21.23,7.5-25.13-4.71"/>
		
			<path style="fill-rule:evenodd;clip-rule:evenodd;fill:none;stroke:#6CABA3;stroke-width:3;stroke-linecap:round;stroke-linejoin:round;stroke-miterlimit:10;" d="
			M1107.434,350.93c0,0,12.53-2.11,18.85-1.57c6.32,0.55,4.71,0,4.71,0s2.39,11.15-4.71,12.55c-7.1,1.4-13.24,1.63-15.71-6.27"/>
		
			<path style="fill-rule:evenodd;clip-rule:evenodd;fill:none;stroke:#6CABA3;stroke-width:3;stroke-linecap:round;stroke-linejoin:round;stroke-miterlimit:10;" d="
			M1121.574,336.81c0,0,3.91-3.29,10.99-3.13c7.08,0.15,14.14-1.57,14.14-1.57s-2.03,6.93-4.71,7.84c-2.68,0.91-8.81,5.5-20.42-1.57
			"/>
	</g>
	<path style="fill-rule:evenodd;clip-rule:evenodd;fill:#FFFFFF;" d="M1099.583,379.17c0,0,4.48-0.29,9.42,3.14
		c4.95,3.42,5.18,4.59,1.57,4.7c-3.6,0.12-9.3,0.7-10.99-1.57C1097.894,383.18,1095.454,379.11,1099.583,379.17z"/>
	<path style="fill-rule:evenodd;clip-rule:evenodd;fill:#6CABA3;" d="M1162.414,369.76c0,0,3.2,1.66,0,4.7
		c-3.2,3.05-5.57,3.74-4.71,0C1158.554,370.72,1160.344,369.89,1162.414,369.76z"/>
	<path style="fill-rule:evenodd;clip-rule:evenodd;fill:#6CABA3;" d="M1135.714,374.46c0,0-0.19,4.62-3.15,4.71
		c-2.95,0.09-1.87-2.94,0-4.71S1136.324,371.2,1135.714,374.46z"/>
	
		<path style="fill-rule:evenodd;clip-rule:evenodd;fill:#D9AF6C;stroke:#D6D6D6;stroke-width:2;stroke-linecap:round;stroke-linejoin:round;stroke-miterlimit:10;" d="
		M1217.394,343.09c-3.61,18.01,2.67,18.24,7.85,20.39s5.53-8.89,7.85-14.12c2.33-5.23-1.63-8.71-1.57-7.84
		c0.06,0.87-4.24,1.92-6.28-1.57c-2.04-3.49,2.27-4.65,6.28-4.71c4.02-0.05,3.2-4.12,3.14-9.41c-0.05-5.29-10.41-6.8-15.7-6.27
		c-5.3,0.52-4.48-2.62-4.72,1.57c-0.23,4.18-7.21,4.64-9.42,9.41c-2.21,4.76,1.05,5.92,6.28,7.84
		C1216.344,340.3,1217.394,343.09,1217.394,343.09z M1220.534,327.4c0,0,2.21-2.67,1.57,1.57c-0.64,4.24-2.27,4.59-4.71,3.14
		c-2.45-1.46-1.05-6.22,0-6.28C1218.434,325.77,1220.534,327.4,1220.534,327.4z"/>
	<g>
		
			<path style="fill-rule:evenodd;clip-rule:evenodd;fill:none;stroke:#FFFFFF;stroke-width:5;stroke-linecap:round;stroke-linejoin:round;stroke-miterlimit:10;" d="
			M1245.664,95.23c0,0-4.78-59.06-4.71-64.32c0.07-5.26,1.57-6.27,1.57-6.27l12.56-3.14c0,0,5.79,7.12,4.72,17.26
			c-1.08,10.13,1.57,58.04,1.57,58.04v9.41"/>
		
			<path style="fill-rule:evenodd;clip-rule:evenodd;fill:none;stroke:#FFFFFF;stroke-width:5;stroke-linecap:round;stroke-linejoin:round;stroke-miterlimit:10;" d="
			M1236.233,114.05c0,0-6.35,3.29-6.28,4.71s-0.64,8.99,3.14,10.98c3.79,1.99,21.79,11.99,31.42,18.83
			c9.63,6.83,65.97,56.47,65.97,56.47l18.85,14.12l17.28,21.96c0,0,27.95-1.97,28.271-3.14c0.32-1.17,7.54-3.82,11-4.7
			c3.46-0.89,10.99-3.14,10.99-3.14s12.4-8.96,18.85-10.98s20.73-11.43,20.73-11.43"/>
		
			<path style="fill-rule:evenodd;clip-rule:evenodd;fill:none;stroke:#FFFFFF;stroke-width:5;stroke-linecap:round;stroke-linejoin:round;stroke-miterlimit:10;" d="
			M1500.124,200.33c0,0-19.3,8.58-45.55,7.85c0,0-13.02-29.36-12.57-29.81c0.46-0.44-1.57-9.41-1.57-9.41l65.98-47.06"/>
		
			<path style="fill-rule:evenodd;clip-rule:evenodd;fill:none;stroke:#FFFFFF;stroke-width:5;stroke-linecap:round;stroke-linejoin:round;stroke-miterlimit:10;" d="
			M1443.583,179.94l-22,10.98l-29.84,6.28c0,0-29.03-18.81-37.7-25.1c-8.66-6.29-31.75-21.81-37.7-26.67
			c-5.94-4.86-37.47-27.95-37.69-28.24c-0.229-0.29-6.29-3.14-6.29-3.14s-4.63-3.28-9.42-6.27s-18.78-6.99-23.56-6.28
			c0,0-7.36,0.44-6.29,9.42l3.14,4.7"/>
		
			<path style="fill-rule:evenodd;clip-rule:evenodd;fill:none;stroke:#FFFFFF;stroke-width:5;stroke-linecap:round;stroke-linejoin:round;stroke-miterlimit:10;" d="
			M1534.684,308.58c0,0-1.63-0.7-23.56-4.71c-21.93-4.01-47.12-17.26-47.12-17.26s-41.48-10.57-51.84-14.11
			c-10.36-3.55-14.78-3.67-18.85-7.85c-4.07-4.18-7.85-3.14-7.85-3.14s-2.74,5.47-3.14,7.85c-0.41,2.38,4.71,4.7,4.71,4.7
			s-11.29,2.21-9.43,6.28c1.87,4.07,0.35,4.76,4.72,6.27c4.36,1.51,9.42,3.14,9.42,3.14s7.97,7.21,17.28,12.55
			c9.31,5.35,24.43,14.87,34.56,15.69c10.12,0.81,21.99,6.27,21.99,6.27l42.41,28.24"/>
		
			<path style="fill-rule:evenodd;clip-rule:evenodd;fill:none;stroke:#FFFFFF;stroke-width:5;stroke-linecap:round;stroke-linejoin:round;stroke-miterlimit:10;" d="
			M1251.943,148.57c0,0-1.51,54.26-1.57,59.61c-0.06,5.34,0,43.92,0,43.92"/>
		
			<path style="fill-rule:evenodd;clip-rule:evenodd;fill:none;stroke:#FFFFFF;stroke-width:5;stroke-linecap:round;stroke-linejoin:round;stroke-miterlimit:10;" d="
			M1264.514,157.98c0,0,0.23,26.84,0,42.35c-0.23,15.52,0,43.93,0,43.93l-1.57,3.14"/>
		
			<path style="fill-rule:evenodd;clip-rule:evenodd;fill:none;stroke:#FFFFFF;stroke-width:5;stroke-linecap:round;stroke-linejoin:round;stroke-miterlimit:10;" d="
			M1253.514,255.24c0,0-6.11-4.07-12.56-3.14c-6.46,0.93-14.61,6.86-17.28,10.98c-2.68,4.13-7.561,17.96-6.28,31.38
			s17.33,36.08,31.41,37.65c14.08,1.57,40.49-11.33,42.41-18.83c1.92-7.49,0.76-27.36-7.851-43.92
			C1274.753,252.8,1253.514,255.24,1253.514,255.24z"/>
		
			<path style="fill-rule:evenodd;clip-rule:evenodd;fill:none;stroke:#FFFFFF;stroke-width:5;stroke-linecap:round;stroke-linejoin:round;stroke-miterlimit:10;" d="
			M1261.374,285.04c0,0,5,10.4,3.14,12.55c-1.86,2.16-9.08,11.68-15.71,7.85c-6.63-3.84-11.17-14.99-4.71-18.83
			C1250.554,282.78,1256.134,279.41,1261.374,285.04z"/>
	</g>
	<path style="fill-rule:evenodd;clip-rule:evenodd;fill:#6CABA3;" d="M1313.204,401.13c0,0,13.44-4.94,14.14-10.98
		c0.7-6.04,5.58-17.2,9.42-18.83c3.84-1.62,6.75-2.55,7.86,0c1.1,2.56,5.99,19.41-1.57,26.67c-7.57,7.26-16.41,14.93-18.85,10.98
		c-2.45-3.95-0.12-4.99-3.14-4.7c-3.03,0.29-2.21,2.15-1.57,4.7c0.64,2.56,5.06,7.44,10.99,6.28c5.93-1.16,17.92-11.39,20.42-28.24
		c2.5-16.85,1.22-25.21-12.57-21.96c0,0-6.69,1.51-9.42-1.57s-4.71,1.57-4.71,1.57s-1.63,5.11,1.57,6.27
		c3.2,1.17,2.5,3.37-1.57,7.85C1320.134,383.64,1314.424,393.29,1313.204,401.13z"/>
	<path style="fill-rule:evenodd;clip-rule:evenodd;fill:#D9AF6C;" d="M1346.193,487.41c0,0-25.65-8.2-32.99-9.41
		c-7.34-1.22-9.42-1.57-9.42-1.57s-6.99,16.05-11,20.39c-4.01,4.34,1.57,10.98,1.57,10.98l12.57,12.55c0,0,11.14,12.87,20.42,10.98
		c9.28-1.88,24.17-10.82,23.56-21.96c0,0,6.36,1.24,17.28-4.7s17.73-14.16,31.41-18.83c13.69-4.67,20.21-17.1,37.7-20.39
		c17.49-3.3,15.75-8.92,21.99-10.98c6.24-2.07,37.14-16.93,75.4-25.1v-25.1c0,0-42.28,7.77-65.97,20.39
		c-23.69,12.62-73.2,41.3-84.82,45.49S1346.193,487.41,1346.193,487.41z"/>
</g>
<g>
	<g>
		
			<path style="fill-rule:evenodd;clip-rule:evenodd;fill:none;stroke:#FFFFFF;stroke-width:3;stroke-linecap:round;stroke-linejoin:round;stroke-miterlimit:10;" d="
			M405.214,399.76c0,0,6.35-12.06,7.72-20.97c1.36-8.9-0.77-11.08-6.8-14.34c-6.06-3.26-7.93-7.1-8.46-6.66s-4.55,9.44-5.55,18.19
			c-1,8.76-0.33,15.47,15.05,14.49"/>
		
			<path style="fill-rule:evenodd;clip-rule:evenodd;fill:none;stroke:#FFFFFF;stroke-width:3;stroke-linecap:round;stroke-linejoin:round;stroke-miterlimit:10;" d="
			M441.333,367.28c0,0,1.48-7.99,4.07-11.84c2.6-3.84,1.77-5.51,0.05-7.93c-1.73-2.42-2.45-3.72-2.45-3.72s-7.31,9.12-1.94,17.06"/>
		
			<path style="fill-rule:evenodd;clip-rule:evenodd;fill:none;stroke:#FFFFFF;stroke-width:3;stroke-linecap:round;stroke-linejoin:round;stroke-miterlimit:10;" d="
			M448.434,364.05c0,0,10.78,0.09,15.61,1.83c4.82,1.74,6.8-2.46,9.14-5.89c2.34-3.42-5.33-1.87-10.94-0.83
			c-5.63,1.04-11.72,0.16-11.33,0.67"/>
		
			<path style="fill-rule:evenodd;clip-rule:evenodd;fill:none;stroke:#FFFFFF;stroke-width:3;stroke-linecap:round;stroke-linejoin:round;stroke-miterlimit:10;" d="
			M460.124,353.94c-0.53-0.26,11.77-2.47,7.67-14.07c0,0-10.95,2.24-9.19,13.73"/>
		
			<path style="fill-rule:evenodd;clip-rule:evenodd;fill:none;stroke:#FFFFFF;stroke-width:3;stroke-linecap:round;stroke-linejoin:round;stroke-miterlimit:10;" d="
			M477.793,337.42c0,0-7.67,11.8-19.5,17.7c-11.93,5.94-24.53,19.24-27.25,22.72c-2.71,3.49-14.3,9.62-18.83,12.07
			c-4.54,2.47-9.08,8.47-15.63,19.42"/>
		
			<path style="fill-rule:evenodd;clip-rule:evenodd;fill:none;stroke:#FFFFFF;stroke-width:3;stroke-linecap:round;stroke-linejoin:round;stroke-miterlimit:10;" d="
			M428.854,380.57c0,0,15.31-9.5,23.52-4.53c8.17,4.95,12.82,7.52,12.82,7.52s-4.7-1.91-9.8,1.08c-5.11,3-13.02,9.21-28.41-2.86
			c0,0,7.38-16.21,5.72-19.57c-1.67-3.37-9.19-8.61-8.3-14.6c0,0-15.77,12.52-9.52,21.95c6.24,9.4,10.22,13.42,10.22,13.42"/>
		
			<path style="fill-rule:evenodd;clip-rule:evenodd;fill:none;stroke:#FFFFFF;stroke-width:3;stroke-linecap:round;stroke-linejoin:round;stroke-miterlimit:10;" d="
			M411.894,391.46c0,0,0.59,2.24,9.71,0.42c9.07-1.8,15.49,0.85,24.81,5.21c0,0-3.99-0.33-12.09,3.87
			c-8.14,4.23-19.36,6.26-26.23-7.07"/>
	</g>
	<path style="fill-rule:evenodd;clip-rule:evenodd;fill:#FFFFFF;" d="M294.054,617.23c0,0,0.82,3.21,1.57,0
		c0.75-3.22-1.55-2.84-3.14-3.14C290.894,613.79,294.054,617.23,294.054,617.23z"/>
	<path style="fill-rule:evenodd;clip-rule:evenodd;fill:#C0C273;" d="M333.313,578.05c0,0-7.89,8.15-11,7.84
		c-3.1-0.31-19.69,1.88-28.27,1.57c-8.58-0.3-53.85-1.92-64.4-3.14c-10.55-1.21-48.29-5.05-62.83-4.7
		c-14.54,0.35-37.67,0.33-40.84-1.57c-3.17-1.9-11.62-9.03-11-14.12c0.63-5.08,15.25-9.24,18.85-9.41
		c3.6-0.17,16.75-3.64,25.13-3.14c8.39,0.5,45.78,1.08,53.41-1.57c7.63-2.65,14.91-6.55,34.56-1.57
		c19.64,4.99,35.48,8.67,42.41,10.99c6.93,2.31,6.71,6.18,15.71,6.27c8.99,0.09,13.41,2.14,17.27,3.14
		C326.184,569.63,338.864,572.09,333.313,578.05z M287.764,574.91c-1.93-10.11-3.43-11.12-4.71-12.55
		c-1.29-1.42-3.22,8.17-3.15,12.55c0.07,4.39,2.41,9.1,4.72,9.41C286.924,584.64,287.764,574.91,287.764,574.91z M235.924,567.07
		c0.15-3.78-0.18-6.88-1.57-10.98c-1.39-4.11-4.46-1.29-4.71,1.57c-0.25,2.85-2,6.58-3.14,9.41c-1.14,2.83,0.69,11.55,4.71,10.98
		C235.234,577.48,235.924,567.07,235.924,567.07z M193.514,568.64c0,0-0.82-1.43-1.57-3.14s-4.39-5.9-6.28-6.27
		c-1.89-0.38-4.17,1.91-3.14,6.27c1.02,4.36,6.14,3.7,6.28,6.27c0.14,2.58,0.3,2.37,1.57,1.57
		C191.644,572.55,193.583,568.99,193.514,568.64z M147.964,570.21c0,0-4.05-7.25-7.85-7.85c-3.81-0.59-4.95-0.09-4.72,3.14
		s-0.47,7.96,3.14,7.84c3.62-0.11,4.03-4.35,3.15-4.7c-0.88-0.36-0.24,0.34-1.57,1.57c-1.34,1.22-2.7,0.14-3.15-3.14
		c-0.44-3.28,2.9-3.45,4.72-1.57S147.024,572.8,147.964,570.21z"/>
	<path style="fill-rule:evenodd;clip-rule:evenodd;fill:#D9AF6C;" d="M78.833,606.87c0,0-0.64,0.53-1.57-3.13
		c-0.94-3.66-1.77-7.77,0-6.28C79.024,598.95,83.364,600.19,78.833,606.87z M42.704,599.03c0,0-2.11,2.31-3.14,3.14
		c-1.03,0.83-4.35-3.72-3.14-6.28c1.21-2.55,1.47-3.27,3.14-1.57C41.234,596.03,43.724,595.96,42.704,599.03z M217.054,620.99
		c0,0-20.43,10.53-28.27,10.98c-7.84,0.46-28.62-0.68-40.84,0c-12.22,0.69-25.17,1.13-34.56-1.56c-9.38-2.7-39.86-11.18-47.12-12.55
		c-7.26-1.38-28.12-8.02-31.41-7.85c-3.3,0.18-14.6-3.53-20.42-3.14c-5.83,0.4-12.78,0.75-14.14-3.13
		c-1.36-3.89,2.22-14.45,6.28-17.26c4.06-2.8,29.28-5.71,36.13-3.14c6.85,2.58,61.85,9.05,70.68,10.98
		c8.84,1.94,60.09,10.59,70.69,12.55c10.59,1.97,24.14,5.65,26.7,6.28C213.344,613.78,219.654,616.74,217.054,620.99z
		 M166.794,620.99c0,0-1.75-9.14-4.71-9.41c-2.96-0.27-6.23,0.92-6.29,4.71c-0.05,3.78,2.51,4.5,4.72,4.7
		c2.21,0.21,2.06-3.78,0-3.13c-2.07,0.64-0.85,0.71-1.57-1.57c-0.72-2.28,2.05-3.11,3.14-1.57
		C163.174,616.25,164.794,622.36,166.794,620.99z M121.244,611.58c1.49-2.65-1.05-8.81-3.14-9.41c-2.1-0.61-3.98,5.32-4.72,7.84
		c-0.73,2.52,1.19,11.64,4.72,10.98C121.624,620.34,121.244,611.58,121.244,611.58z M83.544,606.87c-0.21-6.01-2.27-9.71-4.71-12.55
		c-2.45-2.83-3.86,4.41-4.72,9.42c-0.85,5.01,1.99,4.65,4.72,6.27C81.563,611.63,83.544,606.87,83.544,606.87z M45.844,600.6
		c3.27-1.72-2.36-4.57-3.14-7.84c-0.78-3.28-2.37-3.47-4.71-3.14c-2.34,0.32-3.51,6.86-3.14,9.41c0.36,2.55,3.9,10.03,4.71,6.28
		C40.364,601.55,45.844,600.6,45.844,600.6z"/>
	<g>
		
			<path style="fill-rule:evenodd;clip-rule:evenodd;fill:none;stroke:#6CABA3;stroke-width:3;stroke-linecap:round;stroke-linejoin:round;stroke-miterlimit:10;" d="
			M34.724,157.86c0,0,7.39-3.61,15.65-10.67s16.19-13.61,25.03-16.75c0,0,7.79,0.64,18.67,0.29c10.87-0.35,24.12-8.07,23.39-7.43
			c-0.73,0.65-8.67-5.72-20.16-6.55c-11.5-0.82-20.51,0.45-21.88,12.13"/>
		
			<path style="fill-rule:evenodd;clip-rule:evenodd;fill:none;stroke:#6CABA3;stroke-width:3;stroke-linecap:round;stroke-linejoin:round;stroke-miterlimit:10;" d="
			M78.534,128.93c0,0,9.07-9.88,37.38-5.65"/>
		
			<path style="fill-rule:evenodd;clip-rule:evenodd;fill:none;stroke:#6CABA3;stroke-width:3;stroke-linecap:round;stroke-linejoin:round;stroke-miterlimit:10;" d="
			M64.464,136.5c0,0,12.41-11.25,20.22,0.32c7.81,11.56,7.38,25.3,16.85,29.88c0,0-30.15-12.13-35.53-28.62"/>
		
			<path style="fill-rule:evenodd;clip-rule:evenodd;fill:none;stroke:#6CABA3;stroke-width:3;stroke-linecap:round;stroke-linejoin:round;stroke-miterlimit:10;" d="
			M66.034,134.97c0,0,8.93-0.22,15.47,9.59c6.54,9.82,15.15,17.46,18.49,20.56"/>
		
			<path style="fill-rule:evenodd;clip-rule:evenodd;fill:none;stroke:#6CABA3;stroke-width:3;stroke-linecap:round;stroke-linejoin:round;stroke-miterlimit:10;" d="
			M51.833,158.13c0,0,8.61-11.7,15.61-5.99c7,5.7,12.26,5.57,17.01,11.18c4.75,5.6,7.71,7.91,7.71,7.91s-8.27-4.29-18.65-1.85
			c-10.38,2.44-20.14-9.67-20.14-9.67s-4.09-4.28-10.84-4.85"/>
		
			<path style="fill-rule:evenodd;clip-rule:evenodd;fill:none;stroke:#6CABA3;stroke-width:3;stroke-linecap:round;stroke-linejoin:round;stroke-miterlimit:10;" d="
			M45.684,150.24c-0.71,0.71-1.03-10.23-2.98-15.64c-1.95-5.41,0.92-26.62,3.39-32.68s3.22-12.42,3.22-12.42s-0.91,15.55,1.34,24.96
			c2.25,9.41,5.21,21.1-4.91,27.98"/>
		
			<path style="fill-rule:evenodd;clip-rule:evenodd;fill:none;stroke:#6CABA3;stroke-width:3;stroke-linecap:round;stroke-linejoin:round;stroke-miterlimit:10;" d="
			M44.224,139.3c0,0-0.18-15.37,1.78-26.47c1.96-11.1,3.31-23.33,3.31-23.33"/>
		
			<path style="fill-rule:evenodd;clip-rule:evenodd;fill:none;stroke:#6CABA3;stroke-width:3;stroke-linecap:round;stroke-linejoin:round;stroke-miterlimit:10;" d="
			M62.914,136.48c0,0-1.2-10.48,6.34-13.93c7.54-3.46,22.22-11.17,15.89-38.73c0,0-3.77-11.15-3.02-10.96
			c0.75,0.19-0.62,8.56-6.37,17.05c-5.75,8.49-9.33,22.02-8.04,31.05"/>
		
			<path style="fill-rule:evenodd;clip-rule:evenodd;fill:none;stroke:#6CABA3;stroke-width:3;stroke-linecap:round;stroke-linejoin:round;stroke-miterlimit:10;" d="
			M72.374,121.04c0,0,8.8-3.64,9.51-20.12s1.78-26.47,1.78-26.47"/>
	</g>
	<g>
		<path style="fill-rule:evenodd;clip-rule:evenodd;fill:#C0C273;" d="M154.524,198.61c0,0,5.15,8.17,1.61,9.67
			c-3.55,1.5-3.45,6.78-1.61,8.06c1.83,1.29,1.61,6.45,1.61,6.45v16.12v3.22c0,0,8.91-11.92,25.74-6.44c0,0,6.72-0.89,3.22-3.23
			s-2.93-1.23-3.22-4.83c-0.28-3.61,1.45-9.75,0-16.12c-1.44-6.38,0-16.12,0-16.12s5.59-1.69,4.83-4.84
			c-0.76-3.14-4.16-14.51-16.09-12.89C158.674,179.27,150.364,185.7,154.524,198.61z M159.344,213.12c9.67-2.77,20.92,0,20.92,0
			l-1.61,19.34c-15.11-1.73-19.31,4.84-19.31,4.84V213.12z M157.734,192.16c14.15,6.8,21.38-4.23,21.38-4.23l1.61,6.45
			c-5.23,9.86-22.99,7.45-22.99,7.45V192.16z"/>
		<path style="fill-rule:evenodd;clip-rule:evenodd;fill:#C0C273;" d="M151.304,293.71c0,0,18.59-1.47,25.74,1.62
			c0,0-1.06,49.04,0,58.03c1.07,8.98,1.61,33.85,1.61,33.85s-17.85,0.16-24.13,0c-6.29-0.17-6.44,0-6.44,0s3.68-70.92,3.22-78.99
			C150.844,300.15,151.304,293.71,151.304,293.71z"/>
		
			<path style="fill-rule:evenodd;clip-rule:evenodd;fill:none;stroke:#C0C273;stroke-width:2;stroke-linecap:round;stroke-linejoin:round;stroke-miterlimit:10;" d="
			M157.734,238.91c0,0-18.98,29.51-20.91,56.42c-1.94,26.91-4.98,81.63,3.21,128.95c0,0,42.66,0.57,56.32-3.22"/>
		
			<path style="fill-rule:evenodd;clip-rule:evenodd;fill:none;stroke:#C0C273;stroke-width:2;stroke-linecap:round;stroke-linejoin:round;stroke-miterlimit:10;" d="
			M202.794,348.52c0,0-0.32-43.54-3.22-56.42c-2.9-12.87-14.48-38.68-14.48-38.68s-4.99-12.23-4.83-20.96"/>
		<path style="fill-rule:evenodd;clip-rule:evenodd;fill:#6CABA3;" d="M74.063,293.71c0,0,3.77,5.77,11.26,0
			c7.5-5.76,2.53-6.23,9.66-4.83c7.12,1.39,20.23,6.7,22.53,14.51c2.29,7.81,1.61,12.89,1.61,12.89s-9.03-5.32-12.88,3.23
			c-3.85,8.54-15.3,16-17.7,8.06c-2.39-7.95-10.06-21.66-16.09-14.51C72.454,313.06,72.704,298.32,74.063,293.71z"/>
		<path style="fill-rule:evenodd;clip-rule:evenodd;fill:#6CABA3;" d="M82.114,374.31c0,0-5.24,7.53-1.61,29.02l1.61-8.06
			c0,0,36.29,0.38,35.4,0c-0.9-0.38,0-20.96,0-20.96H82.114z"/>
		
			<path style="fill-rule:evenodd;clip-rule:evenodd;fill:none;stroke:#6CABA3;stroke-width:2;stroke-linecap:round;stroke-linejoin:round;stroke-miterlimit:10;" d="
			M74.063,419.45c0,0,17.82,6.86,53.1,1.61c0,0-1.71-48.48-4.83-83.82c-3.11-35.34-2.21-60.24-6.43-83.82
			c-4.22-23.59-3.22-32.24-3.22-32.24s3.38-1.21,3.22-6.45c-0.16-5.24-5.6-15.35-14.48-14.51c-8.89,0.84-11.38,4.21-14.49,6.45
			c-3.1,2.24-7.97,8.5-3.21,16.12c4.75,7.62,7.89,11.32,27.35,3.22"/>
		
			<path style="fill-rule:evenodd;clip-rule:evenodd;fill:none;stroke:#6CABA3;stroke-width:2;stroke-linecap:round;stroke-linejoin:round;stroke-miterlimit:10;" d="
			M85.323,224.4c0,0-0.01,20.57-3.21,41.91c-3.21,21.35-8.3,19.74-11.27,58.03s0.15,84.03,4.83,101.55"/>
		
			<path style="fill-rule:evenodd;clip-rule:evenodd;fill:none;stroke:#6CABA3;stroke-width:2;stroke-linecap:round;stroke-linejoin:round;stroke-miterlimit:10;" d="
			M86.934,282.43c0,0,0.81-19.96,1.61-29.01c0.8-9.06,1.61-12.9,1.61-12.9s12.72,1.95,17.7-1.61c0,0,0.27,39.57,1.61,49.97"/>
		
			<path style="fill-rule:evenodd;clip-rule:evenodd;fill:none;stroke:#6CABA3;stroke-width:2;stroke-linecap:round;stroke-linejoin:round;stroke-miterlimit:10;" d="
			M85.323,214.73c0,0-5.49,6.25-1.6,8.06c3.88,1.81,7.88-2.07,9.65,1.61"/>
		<g>
			<path style="fill-rule:evenodd;clip-rule:evenodd;fill:#6CABA3;" d="M341.174,327.57c0,0,1.85,2.72,12.88,3.22
				c11.02,0.5,37.01-6.45,37.01-6.45s-2.69-4.28-17.71-4.83c-15.01-0.56-27.35,1.61-27.35,1.61h-6.44L341.174,327.57z"/>
			
				<path style="fill-rule:evenodd;clip-rule:evenodd;fill:none;stroke:#6CABA3;stroke-width:2;stroke-linecap:round;stroke-linejoin:round;stroke-miterlimit:10;" d="
				M341.174,329.18v11.28c0,0,17.96,6.18,32.18,3.23c14.23-2.96,20.92-6.45,20.92-6.45v-11.29"/>
			
				<path style="fill-rule:evenodd;clip-rule:evenodd;fill:none;stroke:#6CABA3;stroke-width:2;stroke-linecap:round;stroke-linejoin:round;stroke-miterlimit:10;" d="
				M342.784,334.01c0,0,0.64,2.81,4.83,3.23"/>
			
				<path style="fill-rule:evenodd;clip-rule:evenodd;fill:none;stroke:#6CABA3;stroke-width:2;stroke-linecap:round;stroke-linejoin:round;stroke-miterlimit:10;" d="
				M394.274,337.24c0,0,10.95,26.34,11.27,48.36c0.32,22.01,0,49.97,0,49.97l-70.8,1.61"/>
			
				<path style="fill-rule:evenodd;clip-rule:evenodd;fill:none;stroke:#6CABA3;stroke-width:2;stroke-linecap:round;stroke-linejoin:round;stroke-miterlimit:10;" d="
				M334.744,442.01c0,0-4.56-37.97,0-67.7c4.55-29.72,6.43-35.46,6.43-35.46"/>
			
				<path style="fill-rule:evenodd;clip-rule:evenodd;fill:none;stroke:#6CABA3;stroke-width:2;stroke-linecap:round;stroke-linejoin:round;stroke-miterlimit:10;" d="
				M360.484,398.49c0,0-2.8,2.28-1.61,4.84c1.2,2.55,8.44,4.63,11.27-1.62c2.82-6.24-1.32-11.69-4.83-11.28
				c-3.51,0.42-4.83,4.84-4.83,4.84"/>
			
				<path style="fill-rule:evenodd;clip-rule:evenodd;fill:none;stroke:#D9AF6C;stroke-width:2;stroke-linecap:round;stroke-linejoin:round;stroke-miterlimit:10;" d="
				M374.964,400.1c0,0-1.17,7.65,3.22,8.06c4.4,0.42,6.17-0.64,6.44-4.83c0.27-4.2-5.01-8.13-8.05-6.45"/>
			<path style="fill-rule:evenodd;clip-rule:evenodd;fill:#FFFFFF;" d="M365.313,414.61c0,0,5.42-0.82,6.44,3.22
				c1.02,4.05-1.97,10.82-6.44,11.29c-4.47,0.46-6.29-0.12-6.44-4.84c-0.15-4.72-2.59-6.77,1.61-8.06
				C364.694,414.94,365.313,414.61,365.313,414.61z"/>
			<path style="fill-rule:evenodd;clip-rule:evenodd;fill:#FFFFFF;" d="M350.833,408.16c0,0,5.47,4,3.22,6.45
				c-2.26,2.45-8.98,6.51-9.66,3.22c-0.68-3.28-3.36-11.19,0-11.28C347.754,406.46,350.833,408.16,350.833,408.16z"/>
			
				<path style="fill-rule:evenodd;clip-rule:evenodd;fill:none;stroke:#6CABA3;stroke-width:2;stroke-linecap:round;stroke-linejoin:round;stroke-miterlimit:10;" d="
				M379.793,421.06c0,0-1.74,4.75,3.22,6.45c4.96,1.69,9.54,0,9.65-4.84c0.12-4.84-6.53-7.53-9.65-4.84"/>
			
				<path style="fill-rule:evenodd;clip-rule:evenodd;fill:none;stroke:#6CABA3;stroke-width:2;stroke-linecap:round;stroke-linejoin:round;stroke-miterlimit:10;" d="
				M265.544,335.63c0,0-5.53,2.63-3.21,4.83c2.31,2.2,4.82,3.23,4.82,3.23s40.8,0.88,53.1-1.62c0,0,5.3,0.2,3.22-6.44
				c-2.07-6.65-25.62-6.22-53.1-1.62"/>
			
				<path style="fill-rule:evenodd;clip-rule:evenodd;fill:none;stroke:#6CABA3;stroke-width:2;stroke-linecap:round;stroke-linejoin:round;stroke-miterlimit:10;" d="
				M318.654,343.69c0,0,12.93,10.67,14.48,46.74c1.54,36.07-4.83,49.97-4.83,49.97s-26.73,7.49-65.97,1.61"/>
			
				<path style="fill-rule:evenodd;clip-rule:evenodd;fill:none;stroke:#6CABA3;stroke-width:2;stroke-linecap:round;stroke-linejoin:round;stroke-miterlimit:10;" d="
				M265.544,343.69c0,0-4.21,7.25-8.04,27.4"/>
			
				<path style="fill-rule:evenodd;clip-rule:evenodd;fill:none;stroke:#6CABA3;stroke-width:2;stroke-linecap:round;stroke-linejoin:round;stroke-miterlimit:10;" d="
				M300.944,395.27c0,0-6.68,6.5-3.21,12.89c3.46,6.39,13.04-3.37,12.87-9.67c-0.17-6.3-3.99-6.27-8.05-4.84"/>
			
				<path style="fill-rule:evenodd;clip-rule:evenodd;fill:none;stroke:#6CABA3;stroke-width:2;stroke-linecap:round;stroke-linejoin:round;stroke-miterlimit:10;" d="
				M307.384,421.06c0,0,7.13,0.32,6.44,6.45c-0.7,6.12-11.39,13.56-12.88,4.83c-1.48-8.73,1.61-9.67,1.61-9.67"/>
			
				<path style="fill-rule:evenodd;clip-rule:evenodd;fill:none;stroke:#6CABA3;stroke-width:2;stroke-linecap:round;stroke-linejoin:round;stroke-miterlimit:10;" d="
				M263.944,422.67c0,0,4.75-3.39,9.65-1.61c4.9,1.78,3.57,8.5,0,9.67c-3.57,1.17-7.52,3.84-8.05,0c-0.52-3.84,2.82-5.78,6.44-6.45"
				/>
			<path style="fill-rule:evenodd;clip-rule:evenodd;fill:#D9AF6C;" d="M283.244,404.94c0,0,3.69-3.96,3.22-8.06
				c-0.47-4.11-5.75-5.62-9.65-3.23c-3.9,2.4-4.33,7.51-1.61,9.68C277.914,405.49,280.884,405.93,283.244,404.94z"/>
			
				<path style="fill-rule:evenodd;clip-rule:evenodd;fill:none;stroke:#D9AF6C;stroke-width:2;stroke-linecap:round;stroke-linejoin:round;stroke-miterlimit:10;" d="
				M283.244,403.33c0,0-3.13,8.78,0,12.89c3.14,4.11,5.84,2.36,8.05-3.22c2.21-5.58,1.27-11.65-6.44-9.67"/>
			<path style="fill-rule:evenodd;clip-rule:evenodd;fill:#6CABA3;" d="M206.014,332.4c0,0,3.04,8.7,14.48,9.67
				c11.44,0.98,32.18-1.61,32.18-1.61s5.72,12.15,6.44,20.96c0.72,8.8-0.14,33.36,0,48.35c0.14,15,1.61,30.63,1.61,30.63
				s-36.02,6.52-65.98,1.61c0,0-8.16-23.66-4.82-51.58c3.34-27.92,4.82-38.69,4.82-38.69L206.014,332.4z"/>
			
				<path style="fill-rule:evenodd;clip-rule:evenodd;fill:none;stroke:#FFFFFF;stroke-width:2;stroke-linecap:round;stroke-linejoin:round;stroke-miterlimit:10;" d="
				M202.794,429.12c0,0,5.75,2.23,9.65,0c3.91-2.23,6.63-8.44,1.61-9.67c-5.02-1.24-6.78,0.74-9.65,3.22
				C201.534,425.15,200.394,428.26,202.794,429.12z"/>
			<path style="fill-rule:evenodd;clip-rule:evenodd;fill:#FFFFFF;" d="M222.104,429.12c0,0,3.13,6.36,9.65,3.22
				c6.53-3.14,6.79-13.34,4.83-14.51c-1.96-1.16-9.41-2.5-11.26,0C223.464,420.33,219.583,426.53,222.104,429.12z"/>
			<path style="fill-rule:evenodd;clip-rule:evenodd;fill:#FFFFFF;" d="M239.804,414.61c0,0,5.3,0.88,8.04-1.61
				c2.75-2.5,4.18-7.02,0-9.67c-4.17-2.66-7.24-5.64-9.65,0C235.784,408.96,234.204,414.86,239.804,414.61z"/>
			<path style="fill-rule:evenodd;clip-rule:evenodd;fill:#FFFFFF;" d="M226.934,395.27c0,0,1.15,5.31,0,8.06
				c-1.16,2.74-7.96,6.92-9.66,4.83c-1.69-2.09-1.05-6.84,1.61-9.67C221.544,395.66,223.274,393.12,226.934,395.27z"/>
			<path style="fill-rule:evenodd;clip-rule:evenodd;fill:#D9AF6C;" d="M241.414,429.12c0,0-6.06,4.91-1.61,6.45
				c4.44,1.53,8.37,1.26,8.04-3.23c-0.33-4.49-0.91-7.44-3.21-6.45C242.323,426.89,241.414,429.12,241.414,429.12z"/>
			<path style="fill-rule:evenodd;clip-rule:evenodd;fill:#FFFFFF;" d="M228.534,458.13c0,0,5.3,4,4.83,8.06s-5.56,11.62-9.65,9.67
				c-4.09-1.95-6.14-6.74-4.83-11.28S225.333,456.23,228.534,458.13z"/>
			
				<path style="fill-rule:evenodd;clip-rule:evenodd;fill:none;stroke:#6CABA3;stroke-width:2;stroke-linecap:round;stroke-linejoin:round;stroke-miterlimit:10;" d="
				M191.534,462.97c0,0,3.06-5.39,6.43-4.84c3.38,0.56,1.63,5.16,0,8.06c-1.62,2.91-3.55,6.58-6.43,4.84c-2.89-1.74-0.58-3.5,0-4.84
				"/>
			<path style="fill-rule:evenodd;clip-rule:evenodd;fill:#6CABA3;" d="M206.014,480.7c0,0,7.67,0.46,8.04,4.84
				c0.37,4.37-0.92,6.73-6.43,8.05c-5.51,1.33-9.76,1.87-9.66-3.22C198.073,485.29,197.984,479.58,206.014,480.7z"/>
			<path style="fill-rule:evenodd;clip-rule:evenodd;fill:#D9AF6C;" d="M151.304,453.3c0,0,2.66-4.47,6.43-4.84
				c3.78-0.37,7.51-0.12,8.05,3.22c0.54,3.35-0.33,8.21-6.44,6.45C153.244,456.38,151.654,458.51,151.304,453.3z"/>
			
				<path style="fill-rule:evenodd;clip-rule:evenodd;fill:none;stroke:#D9AF6C;stroke-width:2;stroke-linecap:round;stroke-linejoin:round;stroke-miterlimit:10;" d="
				M149.694,433.95c0,0-6.14,8.38-3.22,12.9s11.26,4.83,11.26,4.83s5.11-5.72,4.83-9.67c-0.28-3.94-8.01-7.95-11.26-1.61"/>
			
				<line style="fill-rule:evenodd;clip-rule:evenodd;fill:none;stroke:#6CABA3;stroke-width:2;stroke-linecap:round;stroke-linejoin:round;stroke-miterlimit:10;" x1="251.063" y1="335.63" x2="255.894" y2="348.52"/>
			
				<path style="fill-rule:evenodd;clip-rule:evenodd;fill:none;stroke:#6CABA3;stroke-width:2;stroke-linecap:round;stroke-linejoin:round;stroke-miterlimit:10;" d="
				M251.063,342.07c0.49-0.57,5.89-3.6,4.83-8.06c-1.06-4.46-6.44-6.44-6.44-6.44l-33.79,1.61c0,0-10.56-0.84-9.65,8.06"/>
		</g>
	</g>
	<path style="fill-rule:evenodd;clip-rule:evenodd;fill:#FFFFFF;" d="M275.434,498.79c0,0,10.07,7.11,14.13,9.41
		c4.07,2.3,24.79,0.76,26.71,0c1.91-0.76,19.92-18.92,17.28-23.53c-2.65-4.6-8.38-23.33-20.42-26.67
		c-12.05-3.34-15.86,1.88-20.42,1.57c-4.57-0.31-8.44-0.64-11,3.14C279.154,466.49,265.344,488.17,275.434,498.79z M298.994,489.38
		c0,0,3.38-2.3,4.71,0c1.33,2.29-2.86,7.7-4.71,7.84C297.134,497.37,296.024,492.78,298.994,489.38z M291.134,478.4
		c0,0,1.39,2.55-1.57,6.27c-2.95,3.72-8.58,3.58-7.85,1.57C282.444,484.23,281.854,476.73,291.134,478.4z M300.563,473.69
		c-4.47-1.12-3.43-6.11,0-6.28c3.42-0.16,5.35,0.17,4.71,3.14C304.644,473.52,300.563,473.69,300.563,473.69z M314.704,476.83
		c0,0,4.25,1.13,1.57,4.7c-2.69,3.57-3.96,5.56-6.29,3.14C307.664,482.26,309.674,476.65,314.704,476.83z"/>
	<path style="fill-rule:evenodd;clip-rule:evenodd;fill:#FFFFFF;" d="M322.554,472.12c0,0,11,9.5,20.42,7.84
		c9.42-1.65,19.65-7.02,21.99-12.55c2.34-5.52,8.25-20.22,6.28-26.66c-1.97-6.45-8.61-10.99-15.7-12.55
		c-7.1-1.57-9.34-5.3-18.85-1.57C327.174,430.36,303.894,449.28,322.554,472.12z M327.264,458c-4.07-4.76,1.67-9.03,4.71-7.84
		c3.05,1.19,4.19,3.41,1.58,6.27C330.934,459.3,327.264,458,327.264,458z M342.974,443.88c0,0-1.98-3.45,0-4.7s3.28-0.72,4.71,0
		c1.43,0.72,3.61,6.72,0,7.84C344.073,448.14,342.974,443.88,342.974,443.88z M342.974,461.14c0,0,1.54,3.92,0,6.27
		c-1.54,2.36-5.76,1.81-6.28,0C336.164,465.61,337.063,459.51,342.974,461.14z M357.114,461.14c-2.74,1-2.97-1.22-3.14-4.71
		c-0.18-3.48,0.61-5.05,3.14-6.27c2.52-1.22,3.17,1.22,3.14,4.7C360.214,458.35,357.114,461.14,357.114,461.14z"/>
	<g>
		
			<path style="fill-rule:evenodd;clip-rule:evenodd;fill:none;stroke:#FFFFFF;stroke-width:3;stroke-linecap:round;stroke-linejoin:round;stroke-miterlimit:10;" d="
			M348.274,486.5c0,0-0.61,8.96,9.42,14.11c10.04,5.16,20.42,0,20.42,0s20.67-10.09,23.56-21.96c2.89-11.86,2.45-17.75-3.14-20.39
			c-5.59-2.64-22.53-1.31-25.13,0c-2.6,1.3-11,1.57-11,1.57"/>
		<path style="fill-rule:evenodd;clip-rule:evenodd;fill:#FFFFFF;" d="M363.974,484.93c0,0,4.36,0.1,4.72,3.13
			c0.35,3.04-4.81,5.44-6.29,3.14C360.934,488.91,361.323,485.55,363.974,484.93z"/>
		<path style="fill-rule:evenodd;clip-rule:evenodd;fill:#FFFFFF;" d="M373.404,475.51c0,0,3.77,2.31,6.28-1.56
			c2.52-3.88-0.61-4.45-1.57-4.71c-0.96-0.26-3.86,0.33-4.71,1.57C372.554,472.04,372.504,474.39,373.404,475.51z"/>
		<path style="fill-rule:evenodd;clip-rule:evenodd;fill:#FFFFFF;" d="M382.823,481.79c0,0,2.82,2.73,0,4.71
			c-2.82,1.97-6.38-2.34-4.71-3.14C379.793,482.56,381.234,479.6,382.823,481.79z"/>
		<path style="fill-rule:evenodd;clip-rule:evenodd;fill:#FFFFFF;" d="M389.114,472.38c0,0,4.49-1.78,4.71-3.14
			c0.22-1.36-1.02-6.31-3.14-4.71C388.563,466.13,386.264,470.63,389.114,472.38z"/>
	</g>
	<g>
		
			<path style="fill-rule:evenodd;clip-rule:evenodd;fill:none;stroke:#FFFFFF;stroke-width:3;stroke-linecap:round;stroke-linejoin:round;stroke-miterlimit:10;" d="
			M31.964,477.86c0,0-7.79,17.78-4.72,25.1c3.08,7.33,14.14,6.28,14.14,6.28s7.98,2.16,14.14-1.57c6.15-3.73,10.79-5.17,15.71-7.84
			c4.91-2.68,7.21-15.85,6.28-21.97c-0.93-6.11-10.17-9.35-17.28-12.55c-7.11-3.19-21.37-2.86-32.99,10.99"/>
		<path style="fill-rule:evenodd;clip-rule:evenodd;fill:#FFFFFF;" d="M47.664,481c0,0,5.65,1.29,3.15,3.14
			c-2.51,1.84-4.29,0.78-4.72,0C45.664,483.36,45.063,481.06,47.664,481z"/>
		<path style="fill-rule:evenodd;clip-rule:evenodd;fill:#FFFFFF;" d="M44.524,493.55c0,0,3.83,2.02,3.14,3.14
			c-0.68,1.12-4.64,3.26-6.28,0C39.744,493.43,44.524,493.55,44.524,493.55z"/>
		<path style="fill-rule:evenodd;clip-rule:evenodd;fill:#FFFFFF;" d="M47.664,465.31c0,0-1.87,6.85,1.57,7.85
			c3.45,1,5.47-1.22,3.15-4.71C50.054,464.96,47.664,465.31,47.664,465.31z"/>
		<path style="fill-rule:evenodd;clip-rule:evenodd;fill:#FFFFFF;" d="M64.944,474.73c0,0,1.22-7.17,3.14-6.28
			c1.92,0.89,2.03,5.09,0,6.28C66.063,475.91,65.364,477.27,64.944,474.73z"/>
		<path style="fill-rule:evenodd;clip-rule:evenodd;fill:#FFFFFF;" d="M61.804,482.57c0,0,4,5.41,3.14,6.28
			c-0.86,0.86-3.52,2.35-4.71-1.57C59.044,483.36,59.304,479.81,61.804,482.57z"/>
	</g>
	<path style="fill-rule:evenodd;clip-rule:evenodd;fill:#FFFFFF;" d="M410.124,497l-7.78,0.97c-20.65,10.14-20.94,28.1-17.82,33.82
		c3.13,5.73,10.59,5.96,19.36,9.48c8.84,3.55,19.7,1.01,24.6-1.4c4.91-2.41,10.84-16.99,9.93-22.15
		c-0.91-5.15-4.99-12.84-10.54-18.16C422.344,494.26,410.124,497,410.124,497z M404.974,514.66c-2.35-2.7,2.05-4.75,3.45-3.25
		c1.41,1.5,2.05,4.79,0.88,5.58C408.144,517.78,404.974,514.66,404.974,514.66z M402.313,525.68c0,0,2.24,4.39-0.18,4.43
		c-2.41,0.05-6.83-3.15-6.41-4.61c0.41-1.47,1.62-3.42,3.43-3.23C400.954,522.46,402.313,525.68,402.313,525.68z M420.424,517.27
		c-1.13-1.7-1.63-3.2,1.26-3.32c2.89-0.12,4.67-1.26,2.14,2.29C421.304,519.77,420.424,517.27,420.424,517.27z M429.114,524.21
		c0,0-0.6,9.45-3.68,7.72c-3.08-1.71-1.31-5.9,0.27-6.7S427.994,521.91,429.114,524.21z"/>
	<path style="fill-rule:evenodd;clip-rule:evenodd;fill:#FFFFFF;" d="M148.054,526.23c0,0,0.82,3.21,1.57,0
		c0.75-3.22-1.55-2.84-3.14-3.14C144.894,522.79,148.054,526.23,148.054,526.23z"/>
	<path style="fill-rule:evenodd;clip-rule:evenodd;fill:#FFFFFF;" d="M456.054,549.23c0,0,0.82,3.21,1.57,0
		c0.75-3.22-1.55-2.84-3.14-3.14C452.894,545.79,456.054,549.23,456.054,549.23z"/>
	<path style="fill-rule:evenodd;clip-rule:evenodd;fill:#FFFFFF;" d="M350.894,546.5c0,0,4.38-0.94,6.28-3.14
		c1.9-2.19,2.41-1.23-1.57-3.13c-3.98-1.91-6.61-0.88-6.28,1.56C349.644,544.23,347.964,546.14,350.894,546.5z"/>
</g>
</svg>
