<svg version="1.1" id="&#x5716;&#x5C64;_1" xmlns="http://www.w3.org/2000/svg" xmlns:xlink="http://www.w3.org/1999/xlink" x="0px"
	 y="0px" width="110.667px" height="109px" viewBox="0 0 110.667 109" style="enable-background:new 0 0 110.667 109;"
	 xml:space="preserve">
<g>
	<path style="fill-rule:evenodd;clip-rule:evenodd;fill:#6A318E;" d="M42.633,11.546c0,0-30.97,8.23-38.1,33.27
		c-10.08,35.43,16.5,51.29,23.67,56.28c7.19,5,41.08,7.16,63.24-15.31c22.28-22.57,19.64-46.48,11.05-61.24
		C93.933,9.827,69.563-7.653,42.633,11.546z"/>
	<polygon style="fill-rule:evenodd;clip-rule:evenodd;fill:#6A318E;" points="77.903,88.157 100.133,102.966 85.093,79.957 	"/>
	
		<path style="fill-rule:evenodd;clip-rule:evenodd;fill:none;stroke:#FFFFFF;stroke-linecap:round;stroke-linejoin:round;stroke-miterlimit:10;" d="
		M27.943,11.356c28.44-16.54,59.65-7.53,75.05,23.14c15.49,30.83-15.5,50.98-15.5,50.98l10.82,16.14l-15.03-6
		c0,0-45.53,28.91-70.68-10.14c-24.94-38.72,4.82-65.62,23.35-73.81"/>
</g>
</svg>
