<svg version="1.1" id="&#x5716;&#x5C64;_1" xmlns="http://www.w3.org/2000/svg" xmlns:xlink="http://www.w3.org/1999/xlink" x="0px"
	 y="0px" width="115.999px" height="124.86px" viewBox="0 0 115.999 124.86" style="enable-background:new 0 0 115.999 124.86;"
	 xml:space="preserve">
<path style="fill-rule:evenodd;clip-rule:evenodd;fill:#E0D5EA;" d="M30,72.86c0,0-2.13-6.64-12-8s-18.01,5.04-18,18
	s15.83,19.96,25,16c0,0-1.34,21.27,21,25s33.66-17.4,34-29c0,0,19.65,10.92,28,4s7.49-19.26,7-25s-14.2-21.37-32-13
	c0,0-13.11-13.5-27-13S31.18,61.9,30,72.86z"/>
<path style="fill-rule:evenodd;clip-rule:evenodd;fill:#7C4697;" d="M55,41.22c0.26,0.46-0.73,0.46-0.99,0.73l0.61,1.31
	c0.83-0.02,0.75-0.29,1.53-0.71C55.86,41.86,55.49,41.38,55,41.22z M56.21,43.84c-0.23,0.08-0.45,0.17-0.64,0.26l0.78-0.03
	L56.21,43.84z M52.04,22.14l-1.09,0.51c-0.13,5.49,8.56,4.03,8.84-0.4C57.6,23.67,53.42,26.7,52.04,22.14z M48.74,17.3
	c0.27,0.96-0.27,1.91,0.67,2.61c0.88-0.47,1.85-0.9,1.89-1.68C51.12,17.48,50,16.57,48.74,17.3z M53.69,38.37
	c-0.1-0.33,0.62-0.37,0.45-0.74c0.51-0.05,0.86,0.31,1.16,0.79C54.53,39.05,54.18,38.53,53.69,38.37z M57.89,38.28
	c0.6-1.54,2.97-2.43,2.51-4.36c0.88-0.74,0.87,0.93,1.83-0.05c-0.33,0.73,0.32,1.81-0.5,2.36l-0.41-0.88
	C60.1,36,59.73,36.95,59.63,38C58.87,37.93,58.74,38.55,57.89,38.28z M50.46,38.28c-0.51-0.61,0.03-0.83-0.06-1.29
	c0.63-0.43,0.99-0.09,1.51-0.18C51.94,37.49,51.35,37.94,50.46,38.28z M43.91,37.88c2.06,2.1,1.82,5.35,1.57,8.39
	c0.34-0.12,0.68-0.25,1.03-0.37c0.18-1.62,0.78-3.09,0.42-4.91c0.14-0.43,0.97-0.62,1.11-1.05c-0.96-1.44-0.62-2.41-0.54-3.47
	c0.54,0.02,1.02,0.19,1.5,0.37c0.13,0.71-0.03,1.32-0.17,1.94c1.14,1.01,2.14,1.6,3.33,0.31c0.96,1.85,3.49,1.18,4.64-0.3
	c0.31,0.48,0.73,0.66,0.93,1.43c2.77-1.05,5.16-3.2,5.95-4.37c0.69,2.98,1.1,5.92,1.41,8.85l1.12,0.22l-0.25-2.96
	c5.25-2.16,8.68-5.61,13.35-6.74c0.41-0.64,1.05-1.19,1.56-1.79c6.64-3.21,7.77-8.43,12.98-12.15c-0.29-1.28-0.66-1.24-1.33-2.31
	c-0.6-0.35-1.62,0.45-2.27,0.26c0.18-0.91-0.26-1.57-0.69-2.07c-0.35,0.14-0.74,0.38-0.86-0.13c-5.84,5.49-9.48,11.79-17.95,16.32
	c-1.61,0.34-4.78,0.64-4.92,2.56c11.44-2.03,16.06-10.6,23.24-16.93c0.33,1.03-1.49,1.27-1.04,2.35c0.96,1.2,2.66-0.59,3.68-0.66
	c-1.32,1.46-1.46,3.35-3.8,4.43c-0.5,2.17-2.11,3.09-4.23,4.63c-1.75,1.27-3.39,3.16-5.19,4.28c-1.08,0.66-2.47,0.8-3.6,1.4
	c-3.09,1.67-5.91,4.31-9.18,4.28c-0.96-2.9-0.4-5.24-1.04-8.02c-1.66,0.18,0.19,1.65-0.93,2.03c-0.52-1.71-1.8-1.35-2.86-1.6
	c1.23-1.24,1.19-2.95,0.37-4.95c2.96-2.92,4.28-6.43,4.2-10.46c0.99,0.31,1.88,1.29,2.59-0.14c-0.63-1.42-2.16-0.37-2.86-1.59
	c0.31-1.1,0.4-3.59-0.84-4.13c-2.3,0.91-0.32,2.6-0.55,3.98c-5.39-1.62-11.54-1.16-17.99,0.14c-0.2-1.73,1.1-3.81,0.27-5.17
	c-1.55,0.84-1.4,3.16-1.45,4.92c-0.09,3.4,0.76,6.9,2.38,10.32c-1.18,0.41-2.44,1.04-3.25,0.45c0.06-6.46-1.84-13.64,2.94-18.37
	c2.94-5.47,13.55-7.09,17.87-3.27c5.31,4.7,6.38,14.61,5.82,20.66c-0.25-0.81-0.9-0.5-1.38-0.68c-2.27,1.34-4.27-0.1-5.43,1.46
	c0.48,1.73,3.76-0.08,5.5-0.17c0.55,0.97,1.39,1.16,2.34,1.04c2-7.63-1.3-22.54-9.98-25.64c-0.8-0.12-1.9,0.57-2.35-0.5
	c-5.21,0.22-11.26,2.48-14.43,6.71c-0.59,2.6-1.88,4.46-2.26,7.17c-0.41,2.91,0.9,6.46-0.3,9.71c0.66,1.44,0.11,3.37,1.59,4.03
	c1.42-0.54,3.53-1.42,5.22-1.36c0.33,0.9,1.01,0.86,1.34,1.76c2.68,1.01,6.95,0.77,10.12,0.08c-1.21,2.81,0.47,7.49-3.71,8.63
	c-1.07,0.29-4.14-0.57-5.01-1.65c-1.46-1.82-0.42-4.26-1.75-6.09c-1.15,0.73-0.08,3.24-2.03,3.07c0.01-0.84,0.17-1.64-0.46-2.71
	c-1.91-0.06-1.13,1.53-1.8,2.43c-1.13-0.57-2.41-1.06-3.49-1.83c-0.96-0.67-1.58-1.87-2.51-2.55c-1.85-1.36-3.77-1.8-5.28-3.39
	c-0.48-0.5-0.79-1.3-1.35-1.76c-1.32-1.12-3.82-1.72-4.27-4.66c-1.3-0.81-1.67-1.07-2.72-2.45c-0.82,0.25-1.57,0.34-2.51,0.9
	c0.6,1.37,0.01,2.31-0.31,3.34c0.62,1.62,2.38,3.19,1.58,4.58c0.95,0.83,2.56,1.56,4.13,2.06c2.02,1.75,4.24,2.93,6.09,5.13
	C38.88,32.32,40.19,36.5,43.91,37.88z M48.41,34.99c-0.48-0.72,0.53-0.9,0.05-1.62c0.27,0.08,0.6,0.01,0.98-0.19
	c0.07,0.57,0.32,1.21,0.27,1.74C49.18,35.2,48.87,34.89,48.41,34.99z M51.57,26.88c-2.98-1.97-5.7-7.56-5.48-10.74
	c4.95-0.5,10.16-1.68,14.44-0.34l-2.41,1.12c0.58,0.72,0.98,1.94,1.89,1.78c1.62-0.5,0.62-1.96,0.73-3
	c1.13-0.12,2.04,0.37,3.11,0.41c0.59,3.93-0.89,8.81-4.95,10.54C56.41,27.71,54.12,26.53,51.57,26.88z M26.74,21.96
	c-1.73-1.14-1.55-3.02-1.79-5.01c1.03-0.33,1.09,1.97,2.34,1.04c0.23,1.01,1.29,1.28,1.01,2.18c0.62,0.62,1.21,1.32,1.77,2.1
	c2.23-0.16,3.08,3.44,5.16,3.71c2.68,2.72,6.62,4.66,8.83,7.05c0.3,0.48,1.05-0.23,1.39,0.15c0.6,1.1-0.18,3.17,0.39,4.86
	c-2.07-1.52-3.85-4.05-6.31-5.03c-0.91-2.44-2.72-2.46-4.32-3.04c-2.41-3.14-5.19-5.27-8.42-6.17
	C26.67,22.82,26.15,22.75,26.74,21.96z"/>
<path style="fill-rule:evenodd;clip-rule:evenodd;fill:#7C4697;" d="M29.65,114.49c-0.03-0.49-0.11-0.93-0.63-0.94
	C28.69,113.92,29.24,114.37,29.65,114.49z M27.76,110.91c-0.04-0.58-0.18-1.07-0.63-1.25C27.05,110.37,27.56,110.48,27.76,110.91z
	 M8.73,90.83c-0.4-0.01-0.22-0.61-0.63-0.62C7.59,90.56,8.53,91.22,8.73,90.83z M3.86,79c-0.17-0.01-0.13-0.2,0.16-0.15
	c-0.28-0.4,0.24-0.61-0.32-0.63C3.55,78.43,3.41,79.53,3.86,79z M26.19,73.55c-0.19,0.03-0.45-0.02-0.47,0.16
	c0.35,0.65-0.28,0.12-0.16,0.93h0.47c-0.01-0.81,0.45-1.48,0.16-1.55C26.13,73.31,26,73.35,26.19,73.55z M26.03,72.78
	c0.63,0.1,0.63-0.42,0.63-0.94h-0.47C26.3,72.32,25.92,72.3,26.03,72.78z M32.32,61.57c0.3-0.07,0.68-0.06,0.63-0.47h-0.63V61.57z
	 M53.39,49.12c0.75,0.23,1.31-0.13,1.58-0.78C54.54,48.69,53.46,48.41,53.39,49.12z M56.7,48.18c1.01,0.1,1.72-0.12,2.04-0.31
	C58.04,47.75,57.17,47.67,56.7,48.18z M43.8,52.08c0.3,0.03-0.09,0.25,0.16,0.31c0.02-0.18,0.25-0.17,0.47-0.16
	c-0.2-0.39,0.08-0.49-0.16-0.62C44.32,51.97,43.82,51.78,43.8,52.08z M108.75,60.17c2.14,1.32,3.7,3.34,5.03,5.29
	c1.38,2.02,2.37,3.88,2.2,7.32c-0.07,1.42-0.2,3.11-0.47,4.67c-0.27,1.56-0.9,3.1-0.94,4.51c-0.12,3.31-1.39,7.16-3.46,10.58
	c-0.64,1.05-1.72,2.21-2.52,3.27c-0.82,1.09-1.79,2.29-2.67,2.96c-1.88,1.41-5.12,1.54-7.55,2.02c-0.63,0.13-1.4,0.6-1.89,0.62
	c-0.84,0.04-2.02-0.47-2.99-0.62c-3.19-0.49-5.75-1.07-8.8-1.55c-0.59,1.11-1.13,2.22-1.73,3.42c-0.82,1.64-1.42,2.83-2.2,4.82
	c-0.8,2.02-2.6,4.89-3.94,6.85c-1.49,2.2-2.88,2.81-5.66,3.89c-2.71,1.06-5.54,2.38-8.33,3.58c-2.96,1.28-6.1,2.5-9.12,2.96
	c-2.82,0.43-5.95-0.63-9.28-1.25c-2.83-0.51-5.24-0.43-7.86-1.55c-1.25-0.82-2.46-2.22-3.78-2.49c-2.62-3.14-5.64-6.49-6.92-11.05
	c-0.75-2.69-1.08-5.49-2.04-8.25c-4.51-0.55-7.47-2.62-10.54-4.83c-2.66-1.92-4.87-2.93-6.76-5.6c-0.88-1.24-1.94-3.57-2.67-5.29
	c-1.14-2.7-1.3-7.82,0.47-10.43c1.33-1.95,3.83-4.24,6.29-5.45c2.37-1.16,4.39-2.42,7.55-2.64c2.58-0.18,4.99,0.17,6.6,1.24
	c0.18,0.79,1.09,1.58,0.63,2.49c-0.93-0.84-1.73-1.81-2.83-2.49c-2.28,0.11-5.22-0.22-8.02,0.63c-1.24,0.37-3.21,1.62-4.72,2.64
	c-3.23,2.19-6.31,5.37-5.5,10.9c0.26,1.73,1.35,4.26,2.36,6.07c0.44,0.78,1.4,1.36,2.04,2.18c0.7,0.87,1.09,1.81,1.73,2.33
	c0.69,0.55,1.7,0.81,2.52,1.4c2.27,1.63,4.65,3.79,7.08,4.67c1.63,0.59,3.47,0.76,5.18,0.93c0.38,1.16,0.04,2.3,0.48,3.43
	c1.09,2.8,1.78,7.18,3.14,9.8c1.42,2.73,5.02,6.87,7.86,8.25c1.98,0.96,4.27,1.09,6.77,1.56c3.45,0.64,6.81,2.09,10.22,1.4
	c2.89-0.59,6.29-1.82,9.59-3.27c3.23-1.42,6.57-2.49,9.12-3.58c0.85-0.36,1.52-1.09,2.36-1.56c3.39-5.48,6.94-11.56,8.96-17.89
	c1.58,0.99,4.16,1.39,6.92,1.86c2.04,0.35,3.61,1.18,5.82,1.09c3.31-0.13,7.07-1.12,9.12-2.8c1.64-1.34,3.23-3.67,4.56-5.91
	c1.34-2.26,2.76-5.25,3.15-7.32c0.21-1.13-0.06-2.61,0.15-4.04c0.46-3.04,2.21-7.68,0.79-11.06c-0.61-1.45-2.02-3.76-2.99-4.98
	c-1.57-1.97-2.86-2.33-5.66-3.26c-0.74-0.25-1.43-0.76-2.04-0.94c-1.32-0.39-2.89-0.41-4.25-0.78c-1.1-0.29-2.03-0.99-2.99-1.09
	c-3.53-0.34-7.52,0.56-10.53,1.56c-1.02,0.34-2.68,1.3-3.46,1.09c-0.3-0.08-1.29-1.36-1.89-2.02c-1.54-1.72-2.86-3.93-4.56-5.29
	c-0.67-0.55-1.58-0.67-2.2-1.09c-1.15-0.78-1.89-1.86-3.15-2.49c-5.02-0.8-9.39-1.95-14.31-0.94c-1.67,0.35-3.39,1.32-5.19,1.71
	c-5.53,1.22-9.77,3.8-13.68,6.7c-0.94,0.69-1.95,1.87-2.83,2.95c-0.85,1.06-2.01,2.02-2.67,2.96c-0.75,1.07-1.04,2.79-1.89,4.2
	c-0.77,1.29-2.19,2.9-2.83,4.67c-0.31,0.85-0.35,1.81-0.63,2.65c-0.26,0.78-0.78,1.39-1.1,2.18c-0.38,0.94-0.26,2.09-0.78,2.95
	c-2.56-0.37-0.4-3.43,0.47-4.82c0.56-3.38,1.81-6.1,3.61-8.25c0.78-3.49,3.29-5.35,5.35-7.78c0.91-1.06,1.63-2.22,2.36-2.8
	c1.28-1.03,2.93-1.74,4.4-2.65c1.41-0.86,2.83-1.95,4.25-2.65c2.58-1.26,5.66-1.41,8.49-2.33c0.78-0.25,1.54-0.93,2.36-1.09
	c1.5-0.28,2.89-0.12,3.93-0.31c1.91-0.35,4.31,0.54,6.29,0.78c1.86,0.23,3.62,0.28,5.35,1.09c1.02,0.48,1.69,1.53,2.67,2.18
	c1.52,1,2.27,1.2,3.78,2.64c0.63,0.61,1.59,1.21,2.04,1.71c0.92,1.04,1.38,3.31,2.99,3.58c1.17,0.21,2.54-1.09,3.77-1.4
	c1.57-0.39,3.95-0.74,5.98-0.93c1.3-0.12,2.89-0.16,4.09,0c1.04,0.14,1.76,0.83,2.67,1.09c1.35,0.38,2.77,0.42,4.09,0.78
	C105.34,58.95,106.89,59.95,108.75,60.17z"/>
</svg>
