<svg version="1.1" id="&#x5716;&#x5C64;_1" xmlns="http://www.w3.org/2000/svg" xmlns:xlink="http://www.w3.org/1999/xlink" x="0px"
	 y="0px" width="131.076px" height="80.322px" viewBox="0 0 131.076 80.322" style="enable-background:new 0 0 131.076 80.322;"
	 xml:space="preserve">
<path style="fill-rule:evenodd;clip-rule:evenodd;fill:#E0D5EA;" d="M17.822,25.003c0,0-15.48-0.95-17,18s34,17,34,17
	s11.5,15.92,40,15s35-25,35-25s17.3,0.431,21-15c3.7-15.43-33.86-39-59-25c0,0-12.37-8.61-28-8S19.592,13.874,17.822,25.003z"/>
<path style="fill-rule:evenodd;clip-rule:evenodd;fill:#7C4697;" d="M13.813,22.323c-1.2,1.71-3.49,1.98-5.16,3.3
	c-3.46,2.75-4.97,6.81-6.82,11.16c-1.38,6.17,0.37,11.42,3.31,15.281c1.08,1.43,2.7,3.29,4.13,4.339c2.72,2,6.33,1.961,9.29,3.931
	c2.86-0.1,8.41,0.859,10.95,0.41c4.21,1.43,6.82,5,10.54,7.02c2.41,1.32,5.34,1.69,7.64,3.721c8.34,2.989,17.03,1.97,26.649,0.83
	c5.8-0.69,10.181-2.741,14.661-4.13c2.759-1.531,5.439-2.58,7.649-4.75c2.351-2.33,5.48-4.45,8.05-7.031
	c1.33-1.319,2.57-3.359,3.72-4.13c2.8-1.87,5.771-0.839,9.09-1.859c1.721-0.53,5.101-3.3,6.2-4.54c1.4-1.58,3.61-5.16,3.921-7.85
	c0.229-1.9-0.38-3.64-0.621-5.37c-0.47-3.52-0.819-7.42-2.479-9.71c-4.26-5.89-11.51-10.94-17.97-14.05
	c-0.091-0.32-0.65-0.17-0.41-0.82c-0.77,0.77-3.74-1.56-5.78-0.83c-4-1.85-9.35-2.2-15.5-1.86c-5.08,0.28-9.239,2.75-13.63,3.92
	c-2.95-3.58-8.71-4.37-12.81-6.81c-2.56,0.03-4.54-0.45-7.23-0.62c-1.17-0.08-2.08-0.8-3.1-0.83c-3.05-0.07-5.49,1.88-8.05,2.69
	c-2.44,0.77-4.59,0.89-6.82,2.27c-7.64,4.72-13.78,11.49-18.38,18.38c0.14,0.62-0.06,3.66-1.24,3.72c-1.09-0.36-0.12-2.89-0.21-3.51
	c4.89-8.46,12.25-14.47,20.04-20.04c3.25-1.16,7.86-2.89,11.56-4.13c3.4-1.14,7.71,0.33,11.16,0.83c6.11,0.88,11.841,4.22,15.7,6.4
	c6.649-2.66,15.899-4.92,24.58-2.89c4.42,1.03,9.43,2.03,12.19,3.51c3.199,1.72,5.779,4.89,9.289,5.99c2.03,2.27,3.9,4.09,5.99,6.41
	c1.53,1.68,1.71,2.72,2.69,5.37c0.22,0.58,0.31,1.06,1.03,1.44c-0.25,3.58,1.75,6.87,1.039,11.36c-0.489,3.04-2.56,5.13-3.52,7.85
	c-2.58,1.621-4.97,3.431-7.641,4.96c-1.43-0.25-2.37,0.851-2.89-0.21c-0.59,0.21,0.66,0.2,0,0.621
	c-1.39,0.189-3.36,0.129-4.75,0.829c-1.61,0.811-2.93,3.021-4.34,4.341c-1.11,1.039-2.46,1.439-2.69,2.68
	c-1.62,0.65-2.899,1.65-3.709,3.1c-0.5-0.079-0.45,0.38-1.041,0.21c-3.569,4.72-11.62,6.86-18.18,9.5
	c-1.63-0.189-2.57,0.32-3.51,0.83c-6.05-0.279-11.08,1.57-16.94,1.44c-2.89-0.06-5.13-0.99-8.26-1.44
	c-0.78-0.119-1.78-0.199-2.48-0.42c-1.82-0.55-3.11-1.88-4.75-2.68c-0.78-0.381-1.67-0.28-2.48-0.62c-2.1-0.88-4.05-2.41-5.99-3.72
	c-0.51-0.341-1-1.01-1.44-1.24c-1.34-0.681-2.57-0.88-3.51-2.06c-2.63-0.181-5.22-1.07-8.06-1.041
	c-2.99,0.041-4.06-0.399-6.82-1.439c-2.85-1.07-5.29-1.46-7.43-2.69c-0.09-0.81-1.6-1.279-1.04-2.06c0.07-0.42-0.59,0.04-0.62,0.2
	c-5.34-5.261-8.25-11.65-5.57-20.45c0.12-0.4,0.68-0.64,0.82-1.03c0.22-0.61,0.02-1.38,0.21-1.86c1.42-3.67,4.32-6.48,7.02-8.88
	C10.732,23.343,12.182,21.894,13.813,22.323z"/>
<g>
	<path style="fill-rule:evenodd;clip-rule:evenodd;fill:#FFFFFF;" d="M56.822,69.003c0,0,8.96-4.38,9-9s0-5,0-5s5.189-1,5,3s0,6,0,6
		l6,1c0,0,4-0.27,2,3c-2,3.271,0,0,0,0s1.11,2.29-1,4c0,0,1.49,1.01-1,3c0,0,1.35,3.521-2,4c-3.351,0.479-18-3-18-3V69.003z"/>
	<path style="fill-rule:evenodd;clip-rule:evenodd;fill:#E0D5EA;" d="M67.822,55.003c0,0,1.681,1.08,1,5s-2.7,7.08,0,7
		s9.2-0.851,8,1s-1.681,2.24-1,3s0.569,2.311,0,3s-0.24,1.181,0,2s-1.11,3.061-3,3c0,0,4.85,0.7,5-1c0.149-1.7,2.149-5.319,1-6
		c-1.15-0.681,0.71-2.851,0-4s1.42-2.36-1-3s-7-1-7-1S73.433,54.583,67.822,55.003z"/>
	<path style="fill-rule:evenodd;clip-rule:evenodd;fill:#6A85B2;" d="M48.432,66.064l1,14c0,0,8.61,0.62,8.39-0.061
		s0.52-14.181,0.86-13.87C59.022,66.443,48.432,66.064,48.432,66.064z"/>
	
		<polyline style="fill-rule:evenodd;clip-rule:evenodd;fill:none;stroke:#7C4697;stroke-linecap:round;stroke-linejoin:round;stroke-miterlimit:10;" points="
		51.202,66.543 51.212,79.513 60.142,79.513 60.292,66.573 50.342,66.864 	"/>
	
		<path style="fill-rule:evenodd;clip-rule:evenodd;fill:none;stroke:#7C4697;stroke-linecap:round;stroke-linejoin:round;stroke-miterlimit:10;" d="
		M59.992,67.874c0,0,6.78-4.9,6.29-10.2c-0.48-5.31,5.12-3.15,5.13,0.71c0,3.87-0.74,6.33-0.74,6.33h7.03c0,0,2.77-0.12,2.63,1.859
		c-0.13,1.991-2.19,2.161-2.19,2.161s1.641,0.239,1.461,1.72c-0.181,1.489-1.9,1.58-1.9,1.58s1.92,0.55,1.61,2.02
		c-0.31,1.46-1.9,1.43-1.9,1.43s2.15,2.761-1.609,3.451c-3.771,0.689-16.391-0.431-16.391-0.431"/>
	
		<polyline style="fill-rule:evenodd;clip-rule:evenodd;fill:none;stroke:#7C4697;stroke-linecap:round;stroke-linejoin:round;stroke-miterlimit:10;" points="
		50.202,66.543 50.212,79.513 59.142,79.513 59.292,66.573 49.342,66.864 	"/>
	
		<path style="fill-rule:evenodd;clip-rule:evenodd;fill:none;stroke:#7C4697;stroke-linecap:round;stroke-linejoin:round;stroke-miterlimit:10;" d="
		M58.992,67.874c0,0,6.78-4.9,6.29-10.2c-0.48-5.31,5.12-3.15,5.13,0.71c0,3.87-0.74,6.33-0.74,6.33h7.03c0,0,2.77-0.12,2.63,1.859
		c-0.13,1.991-2.19,2.161-2.19,2.161s1.641,0.239,1.461,1.72c-0.181,1.489-1.9,1.58-1.9,1.58s1.92,0.55,1.61,2.02
		c-0.31,1.46-1.9,1.43-1.9,1.43s2.15,2.761-1.609,3.451c-3.771,0.689-16.391-0.431-16.391-0.431"/>
</g>
<g>
	<path style="fill-rule:evenodd;clip-rule:evenodd;fill:#FFFFFF;" d="M88.732,53.564l-0.55,8.239c-1.65-0.21-4.03,0.45-4.36,0.2
		c-0.52-0.39,0.29,4.311,0.29,4.311l4.34-0.311l0.37,6l5.84,0.76l0.24-5.86l5.77,0.161l0.55-5.931l-6.71-0.16l0.07-7.57
		L88.732,53.564z"/>
	
		<polygon style="fill-rule:evenodd;clip-rule:evenodd;fill:none;stroke:#7C4697;stroke-linecap:round;stroke-linejoin:round;stroke-miterlimit:10;" points="
		87.822,62.003 83.822,62.003 83.822,67.003 87.822,67.003 87.822,73.003 92.822,73.003 92.822,66.003 98.822,66.003 98.822,61.003 
		92.822,62.003 92.822,55.003 87.822,55.003 	"/>
	
		<polygon style="fill-rule:evenodd;clip-rule:evenodd;fill:none;stroke:#7C4697;stroke-linecap:round;stroke-linejoin:round;stroke-miterlimit:10;" points="
		87.822,62.003 83.822,62.003 83.822,67.003 87.822,67.003 87.822,73.003 92.822,73.003 92.822,66.003 98.822,66.003 98.822,61.003 
		92.822,62.003 92.822,55.003 87.822,55.003 	"/>
</g>
</svg>
