<svg version="1.1" id="&#x5716;&#x5C64;_1" xmlns="http://www.w3.org/2000/svg" xmlns:xlink="http://www.w3.org/1999/xlink" x="0px"
	 y="0px" width="126.5px" height="132.999px" viewBox="0 0 126.5 132.999" style="enable-background:new 0 0 126.5 132.999;"
	 xml:space="preserve">
<path style="fill-rule:evenodd;clip-rule:evenodd;fill:#D0E0F0;" d="M16.719,56.242c0,0-21.77-17.41-11.32-38.3
	c9.51-19.03,36.58-15.41,40.6-4.94c0,0,5.25-14.51,18.02-12.18c10.9,1.98,14.221,10.44,14.221,10.44s16.829-6.67,30.18,10.16
	c10.761,13.57,2.58,25.58,2.58,25.58s18.77,13.07,15,29c-5.14,21.71-34.41,24.351-34.41,24.351s-1.46,17.779-19.729,24.67
	c-18.28,6.89-46.82,9.479-49.63-16.54c0,0-19.44-3.771-21.18-25.83C-0.211,66.792,16.719,56.242,16.719,56.242z"/>
<path style="fill-rule:evenodd;clip-rule:evenodd;fill:#7C4697;" d="M60.769,129.191c0.44,0.07,0.57-0.169,0.7-0.419
	C61.179,128.481,60.759,128.772,60.769,129.191z M62.309,128.071c0.04,0.471-0.6-0.02-0.56,0.701c0.2-0.36,1.76-0.051,1.68-0.98
	C63.239,128.361,62.919,128.082,62.309,128.071z M67.769,126.393c0.221,0.21,0.971,0.25,0.851-0.281
	C68.239,126.111,67.789,126.032,67.769,126.393z M71.979,125.272c-0.521,0.04-1.53,0.319-1.4,0.419c0.17,0.241,0.569-0.359,0.98,0
	c0.009-0.359,0.539-0.199,0.56-0.56c-0.06-0.16-0.681-0.16-0.28,0C71.919,125.143,71.999,125.151,71.979,125.272z M78.419,121.912
	c-0.189-0.19-0.521-0.19-0.56,0.14c0.67,0.14,1.209-0.56,0.979-0.84C78.81,121.592,77.93,121.422,78.419,121.912z M82.479,118.412
	c0.169,0.029,0.089,0.15,0,0.279h0.419c0.021-0.17-0.02-0.399,0.141-0.42c0,0.07,0.12,0.15,0.141,0
	C83.019,118.092,82.648,118.212,82.479,118.412z M85.56,115.462c0.459,0.351,1.35-0.66,1.12-0.979
	C86.359,114.752,85.959,114.972,85.56,115.462z M91.169,109.162c-0.2,0.06-0.239,0.17-0.42,0c-0.49,0.75-0.42,1.29-0.84,1.54
	c0.859,0.73,0.82-1.98,1.12-0.98c0.05-0.2,0.17-0.229,0-0.42C91.18,109.313,91.379,109.242,91.169,109.162z M92.849,106.362
	c-0.149,0.32-0.479,0.45-0.419,0.979C92.979,107.512,93.129,106.563,92.849,106.362z M92.148,107.202
	c-0.239,0.43-0.569,0.48-0.14,0.56c-0.41-0.11-0.69,1.03-0.42,0.7c0.19-0.44,0.78-0.641,0.7-0.979
	c0.01,0.089,0.021,0.169,0.141,0.14v-0.28C92.289,107.342,92.259,107.232,92.148,107.202z M104.749,99.642v0.421
	c0.41-0.32,0.66-0.061,0.98-0.561C105.299,99.063,105.259,99.742,104.749,99.642z M106.579,98.941c0.71-0.029,0.95-0.539,1.4-0.839
	c-0.24,0.05-0.36-0.211-0.42,0C107.979,98.571,106.43,98.282,106.579,98.941z M112.739,95.441c-0.53-0.209-1.73,0.761-1.68,1.121
	c-0.051-0.44,0.399,0.35,0.42-0.141c-0.11-0.03-0.28-0.01-0.28-0.14c0.689,0.14,0.6-0.29,0.699-0.42
	c0.771,0.149,1.12-0.841,1.82-0.98c-0.17-0.029-0.09-0.16,0-0.279C113.299,94.782,112.849,94.952,112.739,95.441z M116.799,91.662
	c0.12-0.28,0.7-0.7,0.14-0.841C117.009,91.282,116.148,91.422,116.799,91.662z M117.499,90.542h0.28c0.09-0.01,0.17-0.021,0.14-0.14
	c-0.34,0.039,0.54-0.3,0.141-0.561C117.959,90.152,117.529,90.142,117.499,90.542z M0.959,75.552c-0.04,0.28,0.19,0.28,0.28,0.42
	c-0.15,0.011-0.11,0.181,0.14,0.141c-0.09-0.521,0.44-0.96-0.28-0.98c-0.19,0.32,0.36,0.53,0,0.56
	C1.089,75.612,1.079,75.532,0.959,75.552z M5.159,63.232c-0.24-0.64,0.21-0.45,0-0.84c0.23,0.04,0.38-0.19,0.14-0.28
	c-0.03,0.11-0.11,0.16-0.28,0.14C5.009,62.722,4.739,62.992,5.159,63.232z M114.699,44.882c0.02-0.17,0.04-0.33,0.28-0.28
	c-0.181-0.72,0.159-0.82,0-1.12C114.609,43.992,114.479,44.212,114.699,44.882z M116.379,35.922c-0.13-0.25,0-0.75-0.42-0.7
	C115.979,35.572,115.989,35.942,116.379,35.922z M6.839,24.012c0.27-0.39-0.2-1.12,0.28-0.56c0.16-0.44-0.22-0.34-0.28-0.56
	c0.39,0.22,0.63-0.36,0.28-0.42C6.579,22.712,6.669,23.762,6.839,24.012z M7.679,21.072c-0.11,0.03-0.27,0.01-0.28,0.14
	c0.63-0.11,0.58-0.68,0.7-0.98C7.559,20.312,7.719,20.812,7.679,21.072z M103.068,17.992c-0.039,0.37,0.2,0.46,0.561,0.42
	C103.619,18.032,103.31,17.742,103.068,17.992z M9.079,18.412c0.48-0.27,0.75-0.75,0.84-1.4c-0.03-0.11-0.11-0.16-0.28-0.14
	C9.399,17.322,9.079,17.702,9.079,18.412z M10.629,15.612c0-0.51,0.39-0.63,0.56-0.98C10.739,14.672,10.099,15.462,10.629,15.612z
	 M98.31,14.772c-0.15-0.56-0.351-0.2-0.7-0.56c0.1,0.39,0.34,0.91,0.56,0.42C98.159,14.782,98.239,14.982,98.31,14.772z
	 M11.049,14.492c0.78-0.05,0.95-0.73,1.26-1.26C11.509,13.272,11.539,14.152,11.049,14.492z M95.789,13.232
	c-0.109,0.03-0.28,0-0.28,0.14c0.58,0.04,0.76,0.71,0.84,0.14c0.181,0.34,0.73,1.3,1.12,0.56c-0.85-0.17-1.17-0.94-1.82-0.98
	C95.729,13.102,95.818,13.112,95.789,13.232z M16.089,9.732c0.49,0.31,0.96-0.38,1.12-0.84C16.769,9.152,16.389,9.742,16.089,9.732z
	 M17.909,8.332c0.25,0.02,0.33-0.14,0.28-0.42c0.65-0.17,1.65-0.55,2.24-1.4C19.279,7.062,18.469,7.422,17.909,8.332z M22.809,5.392
	c0.51,0.24,1.28-0.01,1.68-0.56C23.799,4.882,23.409,5.232,22.809,5.392z M24.629,4.552c-0.03,0.59,0.96,0.23,0.84-0.14
	C25.129,4.392,24.799,4.382,24.629,4.552z M26.589,4.132c0.72-0.08,1.2-0.39,2.1-0.28c0.31-0.21-0.17-0.35,0.14-0.42
	c0.78,0.17,1.5,0.26,1.83-0.28C29.159,3.332,27.339,3.192,26.589,4.132z M60.209,1.462c0.19-0.52,1.12,0.2,1.4-0.42
	C61.259,1.272,60.079,0.812,60.209,1.462z M38.779,5.112c0.55,0.17,0.43,0.1,0.56-0.14c0.11,0.31,0.49,0.35,0.7,0.56
	c-0.05-0.24,0.21-0.36,0-0.42c-0.09,0.33-0.78-0.69-1.26-0.28C38.949,4.862,38.869,4.982,38.779,5.112z M78.419,10.292
	c6.13-1.84,12.94-0.19,17.649,2.24c2.211,1.14,4.051,2.83,6.301,4.2c0.96,0.58,1.85,1.18,2.8,1.96c4.29,3.5,7.27,9.4,10.93,13.59
	c0.891,2.13,0.49,4.74,0.98,7.14c-0.47,0.98-0.649,2.16-1.12,3.5c-0.311,0.89-1.3,2.44-1.26,2.94c0.01,0.13,1.86,2.87,2.239,3.36
	c0.931,1.22,1.921,2.22,2.521,3.08c2.34,3.38,3,7.56,4.06,12.33c0.36,1.59,1.11,3.021,1.261,4.62c0.38,3.87,0.31,7.87-0.561,11.62
	c-0.42,1.84-1.43,3.27-2.1,4.76c-0.67,1.51-0.98,2.64-2.24,3.79c-0.34,0.311-0.899,0.391-1.26,0.7c-0.84,0.71-1.41,1.819-2.24,2.66
	c-0.41,0.409-0.97,0.7-1.399,1.12c-0.411,0.399-0.591,1.06-0.98,1.399c-1.02,0.881-2.689,1.65-4.2,2.381
	c-1.56,0.739-2.92,2.039-4.069,2.52c-1.771,0.73-3.641,0.86-5.32,1.54c-1.63,0.659-3.03,1.68-4.9,2.1
	c-0.529,0.45-1.029,0.93-1.68,1.261c-0.04,1.77-1.061,2.619-1.96,4.06c-0.54,0.859-1.09,1.97-1.54,2.521
	c-1.27,1.55-3.17,2.819-4.49,4.35c-0.479,0.56-0.63,1.33-1.12,1.82c-0.43,0.43-1.27,0.729-1.96,1.26
	c-0.579,0.439-1.02,1.12-1.54,1.539c-0.82,0.661-2.27,1.471-3.5,2.101c-1.33,0.67-2.4,1.55-3.359,2.101
	c-2.49,1.399-6.49,2-9.95,3.219c-3.44,1.221-6.54,2.931-9.38,3.781c-3.78,1.129-6.52,1.62-10.09,0.56
	c-1.06-0.32-2.34-1.03-3.64-1.681c-1.25-0.629-2.64-0.89-3.92-1.399c-0.56-0.229-1.11-0.939-1.68-1.12c-0.29-0.09-0.71,0.12-0.98,0
	c-0.53-0.23-1.1-0.819-1.68-1.12c-3.79-1.949-6.41-4.67-8.83-8.4c-1.04-1.609-2.33-3.17-2.94-4.35c-0.51-0.97-0.75-2.12-1.26-3.08
	c-0.49-0.92-1.27-1.52-1.54-2.52c-4.48-2.091-7.76-5.841-11.21-8.54c-2.12-2.45-4.11-5.03-5.46-8.261
	c-1.03-4.109-2.37-9.229-1.54-14.569c1.2-7.681,2.91-14.94,7.42-19.19c1.54-1.44,3.51-2.67,4.91-4.06c1.22-1.21,2.21-2.5,3.22-3.78
	c0.33-0.2,0.31-0.35,0.56,0c0.21-0.37-0.28-0.48,0.14-0.98c0.74-0.65,1.16-2.23,1.96-3.22c2.22,0.51-0.76,3.71-1.96,5.18
	c-1.8,2.2-3.16,3.25-4.9,4.9c-3.1,2.94-5.81,5.87-7.57,10.23c-3.01,7.489-3.57,18.29-0.98,25.489c1.69,4.681,4.84,6.98,8.13,10.36
	c1.66,1.72,3.7,2.66,5.6,3.92c0.48,0.32,1.11,1.07,1.82,1.54c0.77,0.51,1.65,0.851,1.96,1.4c0.25,0.45,0.12,1.029,0.28,1.54
	c0.73,2.369,2.33,4.489,3.78,6.449c2.07,2.781,3.82,5.92,6.59,7.841c0.93,0.53,1.9,0.85,2.94,1.4c0.26,0.14,0.46,0.579,0.7,0.699
	c1.9,0.979,4.61,1.431,6.86,2.52c3.14,1.511,5.42,2.881,9.53,2.101c3.37-0.641,7.07-2.26,10.92-3.779
	c4.79-1.891,9.36-2.98,13.17-5.181c2.971-1.72,5.91-3.76,8.54-5.74c1.17-2.31,3.36-3.729,5.051-5.61
	c1.649-1.85,2.479-4.409,4.199-6.299c0.54,0.169-0.14,0.689,0.28,0.979c0.239-0.95,0.67-1.87,0.979-3.08
	c2.16-0.24,3.721-1.601,5.601-2.38c1.54-0.64,3.32-0.851,4.899-1.4c1.3-0.45,2.57-1.65,3.93-2.38c1.391-0.75,3.011-1.29,4.061-2.1
	c0.84-0.65,1.53-1.86,2.38-2.66c1.48-1.41,2.33-2.84,4.2-3.78c2.08-2.739,3.32-6.22,4.06-10.79c0.3-1.829,0.841-3.229,0.561-5.32
	c-0.07-0.55-0.47-1.129-0.561-1.68c-0.089-0.659,0.11-1.37,0-1.96c-0.08-0.449-0.409-0.79-0.56-1.26
	c-0.641-2.04-0.79-4.57-1.399-6.86c-1.53-5.81-4.65-10.29-8.261-13.73c0.69-2.11,1.46-4.14,2.381-6.02
	c-0.131-1.78,0.089-3.07,0-4.48c-0.311-4.75-4.32-6.81-5.881-10.51c-1.619-1.65-3.06-3.48-4.489-5.32
	c-3.08-2.28-6.591-4.14-9.521-6.58c-2.78-0.91-5.729-2.55-8.83-3.08c-1.479-0.26-2.71,0.34-4.061,0.42
	c-1.52,0.09-3.219-0.15-4.479,0.84c-0.66-0.32-0.91-1.05-1.68-1.26c-1.9-3.61-5.25-5.77-7.98-8.54c-0.67-0.04-1.01-0.4-1.41-0.71
	c-2.76-0.62-5.149,0.4-8.12,0.85c-1.49,0.22-2.98,0.03-4.06,0.42c-1.61,0.57-2.6,1.95-3.92,2.66c-0.83,2.01-2.75,3.55-3.51,5.18
	c-1.96-0.45-3.16-2.48-4.76-3.5c-0.68-0.44-1.76-0.46-2.8-0.84c-1.31-0.49-2.68-1.54-3.78-1.82c-11.23-2.87-19.24,5.26-24.79,10.22
	c-1.02,1.69-1.46,3.96-2.95,5.18c-1.3,3.79-3.04,7.83-1.68,12.47c0.34,1.13,1.1,2.24,1.54,3.5c1.26,3.54,2.82,7.65,3.93,10.78
	c-1.22-0.21-1.52-1.53-1.97-2.52c-1.27-2.86-2.32-6.53-3.5-9.52c-0.34-0.88-1.06-1.65-1.26-2.52c-0.87-3.81,0.05-7.27,0.98-9.95
	c0.31-0.86,0.49-1.87,0.84-2.52c0.84-1.54,2.23-2.82,2.38-4.62c1.75-2.56,4.5-4.05,6.87-6.16c1.38-1.24,2.57-2.39,4.76-3.36
	c0.83-0.37,1.88-0.57,2.8-0.98c3.48-1.56,7.75-2.11,12.19-1.12c1.77,0.39,4.33,1.52,5.88,2.1c1.59,0.58,3.07,2.6,4.62,3.36
	c1.76-0.76,2.19-2.85,3.37-4.2c2.71-3.13,8.91-4.07,13.58-4.49c3.359-0.29,4.38,0.45,6.31,1.96
	C73.419,4.472,76.079,7.222,78.419,10.292z"/>
</svg>
