<svg version="1.1" id="&#x5716;&#x5C64;_1" xmlns="http://www.w3.org/2000/svg" xmlns:xlink="http://www.w3.org/1999/xlink" x="0px"
	 y="0px" width="138.454px" height="108.745px" viewBox="0 0 138.454 108.745" style="enable-background:new 0 0 138.454 108.745;"
	 xml:space="preserve">
<path style="fill-rule:evenodd;clip-rule:evenodd;fill:#FDEBC7;" d="M12.014,18.427c0,0-11.53,6.23-12,22c-0.47,15.77,11,25,11,25
	s26.61,16.26,49-1c0,0,13.439,4.12,14,4s-9-11-9-11s14.23-10.17,17-26s-18.15-29.55-35-31S9.764,3.217,12.014,18.427z"/>
<g>
	<path style="fill-rule:evenodd;clip-rule:evenodd;fill:#7C4697;" d="M95.434,68.187c-0.28,6.721,10.21,6.95,10.261,0.36
		c-1.601,0.99-1.971,3.61-4.32,3.96c-2.461,0.359-4.49-1.2-4.5-4.141C96.614,68.087,95.954,68.207,95.434,68.187z"/>
	<path style="fill-rule:evenodd;clip-rule:evenodd;fill:#7C4697;" d="M79.774,104.987c-0.06-1.221,1.21-2.561,1.98-3.42
		c0.25-0.41,1.25-0.071,1.8-0.181c0.6,1.979,2.16,3,2.88,4.859C84.454,106.496,79.934,108.246,79.774,104.987z M88.414,99.587
		c4.62-0.35,10.431,0.38,13.86,2.34c-2.61,2.729-7.5,3.181-12.24,3.78c-0.6,0.42-1.17,0.869-2.339,0.72
		c-0.711-2.351-2.771-3.351-3.241-5.939C85.974,100.447,87.344,100.437,88.414,99.587z M82.654,93.287
		c-0.279,0.92-0.99,1.399-1.26,2.34c1.36,0.739,2.439,1.76,4.14,2.16c-0.089,0.689,0.05,1.149,0.36,1.439
		c-1.38-0.3-3.069,1.53-4.5,0.54c-0.23-1.96-1.5-4.87-1.8-6.84C80.614,92.487,81.604,93.196,82.654,93.287z M78.695,92.927
		c-0.361,2.29,1.399,4.92,1.979,7.74c-4.92-0.1-8.841-2.591-7.561-8.64C75.464,91.616,76.583,92.917,78.695,92.927z M99.934,66.107
		c0.729,0.63,2.52,0.43,2.7-0.541c0.24-0.899-0.551-0.77-0.54-1.439c1.81,0.67,4.23,0.77,5.58,2.16c0.63,0.649,2.43,3.95,2.521,4.68
		c0.469,3.729-3.5,6.05-6.301,6.479c-6.569,1.011-12.64-3.52-13.68-8.819c0.689-0.311,0.399-0.48,0.54-1.261
		c1.909-2.409,5.649-2.989,9.54-3.42C99.984,64.477,99.833,65.167,99.934,66.107z M112.534,63.767c-0.68-0.08-0.76-0.75-1.439-0.359
		c-0.41-2.55-3.66-3.161-2.88-6.3C112.204,55.347,115.575,61.187,112.534,63.767z M108.214,60.347c-0.04-0.05-0.41,0.07-0.36,0.181
		c0.29,0.64,1.04,0.789,1.62,1.619c0.439,0.631,1.05,2.05,1.26,3.061c0.23,1.109,0.811,2.95-0.18,4.32
		c-0.609-1.79-1.67-3.131-2.88-4.32c0.989-1.761-0.44-3.6-1.8-4.141c-0.7,0.561-1.32,1.2-1.261,2.521
		c-2.439-0.62-5.25-1.141-7.56-0.18c-0.229-0.61-0.31-1.37-0.54-1.98c-1.069-0.36-2.14-0.54-2.52,0.54
		c0.3,0.479,0.47,1.09,0.72,1.62c-2.301,0.22-3.261,1.779-4.681,2.88C86.984,54.197,103.904,54.477,108.214,60.347z M89.134,60.527
		c-1.439,8.149,0.96,14.38,6.84,16.56c-0.021,3.4-1.779,5.06-2.7,7.56c-2.89,1.43-4.12,4.521-7.199,5.761
		c-0.471-0.48,1.199-1.101,0.359-1.98c-1.01-0.23-0.9,0.79-1.62,1.26c-2.28-0.46-1.42-3.99-0.54-5.76
		c0.78-1.569,3.15-3.931,4.68-5.04c1.41-1.029,3.811-1.479,3.241-3.42c-1.07-0.189-1.12,1.061-1.801,1.62
		c-0.73,0.6-1.94,0.8-2.699,1.44c-0.511,0.43-0.98,1.219-1.62,1.799c-2.161,1.961-4.851,5.75-3.601,9.36
		c0.45,0.51,1.189,0.73,2.16,0.721c-0.36,0.839-1.15,1.25-1.439,2.159c-2.521-1.07-6.551-0.99-8.82-1.8
		c-0.311-0.409-0.521-0.92-1.261-0.9c-1,0.741-1.39,2.351-1.439,3.241c-0.3,5.319,2.95,8.329,8.1,8.639
		c-3.54,4.87,2.71,7.721,7.021,6.841c0.21-0.21,0.2-0.64,0.18-1.08c1.15,0.26,2.63,0.061,3.601-0.721
		c4.819-0.409,9.319-0.939,12.06-3.779c1.42-0.7,2.42,0.529,3.779,0.72c0.811,0.11,1.911-0.38,3.061-0.36
		c1.3,0.021,2.65,0.771,3.601,0.721c0.649-0.04,1.31-0.62,1.979-0.721c1.8-0.25,3.729,0.871,5.94,1.081
		c2.06,0.199,4.25-0.5,5.939-0.36c1.73,0.14,3.16,0.819,4.68,0.9c2.311,0.12,4.811-0.831,6.84-0.54
		c-0.239-1.88-1.92-1.13-2.52-1.081c-0.76,0.061-1.46,0.46-2.16,0.54c-2.14,0.24-3.899-0.479-6.3-0.72
		c-2.12-0.21-4.59,0.39-6.84,0.18c-1.58-0.149-3.09-1.04-4.5-1.08c-1.471-0.04-2.689,0.79-3.96,0.721
		c-1.05-0.06-2.62-1.32-4.141-0.54c0-0.3-0.25-1.25-1.08-0.721c2.13-2.189,3.801-4.839,4.86-8.1c1.7,2.141,4.33,4.78,7.561,2.521
		c0.68-3.051-0.841-5.38-1.08-8.101c-1.24-1.459-2.23-3.3-3.42-4.859c-1.2-1.57-2.961-2.79-3.24-4.68c-0.87,0.029-0.7-0.98-1.62-0.9
		c2.86,5.65,9.061,9.71,8.28,17.819c-1.271,0.411-2.5,0.521-3.42-0.18c-1.74-1.31-3.99-4.19-5.041-6.659
		c-1.389-3.271-2.729-7.23-5.399-9.181c-0.67,0.939,0.811,1.53,0.72,2.88c1.98,1.221,2.421,3.9,3.601,6.301
		c1.25,2.539,3.029,3.319,1.44,6.659c-0.281,0.591-1,1.07-1.44,1.8c-0.38,0.63-0.44,1.391-0.721,1.8
		c-0.839,1.23-2.76,2.591-4.14,2.521c-1.53-0.08-3.16-1.569-5.22-2.16c-1.29-0.369-2.92-0.55-4.141-0.72
		c-3.089-0.431-5.05-0.181-7.02-0.181c-0.91-1.549-3.08-1.839-4.5-2.88c0.41-1.81,1.439-3,2.34-4.319
		c0.641,0.02,0.65,0.67,1.44,0.54c0.939-1.7,3.45-1.83,3.96-3.96c3.659-1.74,4.97-5.83,6.479-9.72c3.97,1.47,10.03,0.959,12.24-1.98
		c1.979-2.63,3.021-6.18,2.34-10.979c0.49-0.061,1.011-0.351,1.8-0.54c2.92-3.95-0.75-9.641-5.58-8.641
		c-0.409,0.34-0.819,1.35-0.539,1.8c-5.11-3.03-14.971-3.09-18,1.8c-2.581,0-2.041-4.1-0.541-4.859c1.991-0.5,3.891,0.18,4.681,1.44
		c0.8-0.311,0.33-0.911,0.54-1.621c-1.71-0.52-3.03-1.49-4.86-1.08C86.044,54.057,85.354,59.987,89.134,60.527z"/>
	<path style="fill-rule:evenodd;clip-rule:evenodd;fill:#7C4697;" d="M47.014,94.646c-3.96,1.35-5.68-3.39-3.78-5.76
		C46.434,88.927,46.954,91.987,47.014,94.646z M65.194,101.847c-2.38,1.54-5.73,2.399-8.82,1.439c-2.09-0.649-6.32-4.359-7.38-6.119
		c-1.53-2.551-1.01-6.5-1.26-10.26c2.19,1.709,5.12,2.68,8.46,3.239c2.09-1.33,7.68,0.2,9.72-1.8c0.63-0.62,0.08-1.4,1.08-1.8
		C67.744,91.097,66.924,97.746,65.194,101.847z M48.994,84.207c0.56-0.4,0.91-1.011,1.44-1.44c2.07,0.06,3.8-0.84,5.58-1.08
		c3.2-0.43,5.49,0.7,8.46,1.62c0.54,0.601,0.7,1.58,1.8,1.62c-0.33,3.08-2.9,3.561-6.48,3.96c-4.72,0.521-8.93-0.46-10.8-2.34
		C49.104,85.576,48.794,84.757,48.994,84.207z M46.654,88.887c-1.06,0.12-1.94-1.38-3.42-1.08c-3.75,0.77-1.6,10.42,4.14,8.101
		c0.36,0.6,0.59,1.33,0.72,2.159c2.55,1.711,3.8,4.72,7.02,5.76c-5.14-0.67-10.78-0.239-16.02-0.54
		c-0.77,0.171-0.01-1.189-0.72-1.079c-0.87,0.27-1.3,0.979-1.62,1.8c2.34,0.34,4.81,1.101,7.2,0.899
		c0.55-0.049,1.09-0.489,1.62-0.54c0.79-0.069,1.65,0.341,2.34,0.36c1.16,0.04,2.33-0.39,3.42-0.36c1.6,0.04,2.99,0.971,4.68,1.081
		c2.44,0.16,6.11-1.17,9.36-0.9c2.21,0.18,4.25,1.09,6.3,1.08c1.529-0.011,2.989-0.29,4.5-0.721c-0.891-1.39-3.07-0.39-4.5-0.359
		c-2.28,0.04-4.41-0.65-6.48-0.9c-0.07-0.729,1.01-1.1,1.44-1.979c0.98-1.98,1.59-7.94,1.8-10.98c0.15-2.149-0.28-4.94-0.9-6.12
		c-0.61-1.17-2.02-1.25-2.52-2.34c-2.03,0.17-3.4-1.21-5.4-1.619c-2.91-0.591-6.87,0.6-9.54,1.079c-0.95,0.171-1.7,1.96-2.7,2.341
		C46.984,85.467,46.404,87.366,46.654,88.887z"/>
</g>
<path style="fill-rule:evenodd;clip-rule:evenodd;fill:none;stroke:#7C4697;stroke-linecap:round;stroke-linejoin:round;stroke-miterlimit:10;" d="
	M3.874,24.107l-0.3-0.49l9.94-16.57c13.49-7.45,28.01-6.89,43-6.12c-3.05,1.06,6.07,2.21,9,3.56l5.88,4.25
	c19.81,15.95,8.76,37.14-4.25,51.69c1.2,5.77,7.23,8.67,11.12,12.561l-0.5-0.25l-1.189-0.25l-3.061-1.621l-3.56-1.189l-5.19-1.689
	v-0.25c-6.09-2.2-32.44,8.189-55.94-1.371c1.35-7.189-18.03-17.1,0.44-42.5"/>
</svg>
