<svg version="1.1" id="&#x5716;&#x5C64;_1" xmlns="http://www.w3.org/2000/svg" xmlns:xlink="http://www.w3.org/1999/xlink" x="0px"
	 y="0px" width="102.901px" height="64px" viewBox="0 0 102.901 64" style="enable-background:new 0 0 102.901 64;"
	 xml:space="preserve">
<path style="fill-rule:evenodd;clip-rule:evenodd;fill:#E0D5EA;" d="M3.09,47.352c0,0-7.16-33.19,14.04-41.46
	c19.8-7.72,38.06,1.83,38.06,1.83s28.29-10.14,39.04,6.62c10.739,16.77-4.34,28.68-4.34,28.68s-7.81,30.061-50.96,11.03
	c0,0-4.77,10.45-17.35,9.93C9.01,63.461,4,51.011,3.09,47.352z"/>
<path style="fill-rule:evenodd;clip-rule:evenodd;fill:#7C4697;" d="M5.85,52.562c-0.52,1.079-0.94-1.021-1.7-0.96
	c-1.41-3.021-2.82-5.931-4.15-9.44c-0.03-1.71-0.21-5.75,0-8.66c0.19-2.62,1.45-4.4,2.27-6.55c0.84-2.22,1.2-4.12,2.26-6.35
	c0.92-1.93,2.32-3.75,3.21-5.77c4.08-4.5,9.25-7.89,15.28-10.4c0.5-0.23,0.58-0.17,0.37-0.77c4.77-0.18,9.83-3.54,15.29-3.66
	c1.2-0.03,2.67,0.44,4.15,0.58c2.61,0.24,4.1,0.65,6.03,1.35c2.72,0.98,4.9,1.21,6.42,3.27c1.66,0.54,3.32-0.33,5.851-1.35
	c1.529-0.62,3.1-0.91,4.52-1.35c1.61-0.49,3.34-1.45,6.23-1.15c7.209,0.73,12.95,2.56,18.859,4.81c0.91,1.18,2.28,2.01,3.4,3.08
	c0.35,0.34,0.62,0.88,0.94,1.16c0.209,0.17,0.909,0.15,1.13,0.38c0.829,0.88,1.529,2.3,2.27,3.28c0.76,1,1.4,2.08,2.45,2.69
	c0.3,1.69,0.68,3.29,1.89,4.04c0.27,4.32-0.101,9.45-1.7,12.899c-0.75,0.65-1.909,1.9-1.89,2.7c-1.19,1.03-2.431,2.01-3.96,2.69
	c-1.4,1.38-3.33,2.78-4.15,4.43c-0.92,1.88-1.27,3.801-2.26,5.2c-1.141,1.59-3.1,3.83-4.72,5.2c-0.53,0.449-1.46,0.65-2.07,1.15
	c-0.93,0.759-1.51,1.89-2.65,2.509c-0.989,0.54-2.06,0.421-3.01,1.341c-2.09,0.22-3.02,0.569-4.149,1.54
	c-10.86,2.89-25.331,0.86-33.21-4.23c-5.24,1.91-11.08,6.23-18.48,5.39c-4.42-0.5-8.21-2.329-11.89-3.85
	c-0.76-2.19-2.54-2.449-2.45-4.24c1.4,0.17,1.79,1.38,2.45,2.311c2.53,1.399,4.83,2.91,8.49,3.851c2.06,0.539,4.1,0.85,6.6,0.579
	c5.69-0.6,10.5-3.52,14.53-5.77c2.1,0.77,3.75,2.619,6.22,3.46c3.13,1.07,7.14,1.83,10.76,2.31c7.88,1.04,16.101-0.35,22.07-3.27
	c3.06-1.5,5.34-3.64,7.73-6.16c1.5-1.57,3.189-3.641,3.969-5.391c0.7-1.589,1.131-3.56,2.261-5.199c3.72-2.37,8.109-4.851,9.43-9.82
	c0,0.02-0.1-0.27,0-0.58c0.55-1.72,0.79-3.63,0.76-5.39c-0.06-2.5-1.369-4.44-2.08-6.74c-1.069-1.36-1.979-2.84-3.209-4.23
	c-1.101-1.26-2.25-2.95-3.58-4.05c-5.391-4.43-13.021-5.41-21.32-6.93c-2.99,0.26-6.45,1.04-9.62,2.31
	c-3.54,1.43-6.79,3.82-9.43-0.38c-7.021-3.42-15.16-3.4-23.581-0.96c-4.62,1.33-9.53,3.92-13.21,5.96
	c-1.44,0.81-2.38,1.81-3.77,3.28c-2.4,2.52-4.72,5.06-6.42,7.7c-1.02,2.52-1.84,7.45-3.39,9.43c-0.35,2.21-1.55,4.78-0.57,6.55
	c-1.56,2.36,0.7,6.98,0.95,9.24c1.41,1.28,1.54,3.16,3.01,4.62C4.78,51.211,6.58,52.141,5.85,52.562z"/>
</svg>
