<svg version="1.1" xmlns="http://www.w3.org/2000/svg" xmlns:xlink="http://www.w3.org/1999/xlink" x="0px" y="0px"
	 width="218.05px" height="179.042px" viewBox="0 0 218.05 179.042" enable-background="new 0 0 218.05 179.042"
	 xml:space="preserve">
<g id="圖層_2">
	<g opacity="0.9">
		<path fill-rule="evenodd" clip-rule="evenodd" fill="#FFFFFF" d="M123.373,3.721c3.195,0,6.39,0,9.584,0
			c51.061,2.611,79.573,27.771,81.467,79.55c0,0.639,0,1.278,0,1.917c-2.137,51.216-36.675,80.366-63.925,87.97
			c-7.624,2.127-24.571,2.123-33.836,2.123c-32.81-3.477-68.78-10.451-84.342-34.503c-8.639,2.224-17.635,4.089-26.836,5.75
			c0-0.319,0-0.639,0-0.958c7.603-7.093,15.609-13.783,21.085-23.002C11.106,49.157,52.796,3.462,123.373,3.721z"/>
	</g>
	<g>
		<path fill-rule="evenodd" clip-rule="evenodd" fill="none" stroke="#FFFFFF" stroke-miterlimit="10" d="M123.079,2.756
			c3.239,0,6.478,0,9.716,0c51.763,2.647,80.667,28.154,82.588,80.645c0,0.647,0,1.295,0,1.943
			c-2.166,51.921-28.798,75.304-70.636,87.552c-9.393,0-21.503,0.262-30.896,0.262c-34.434-5.727-67.3-7.076-83.076-31.46
			c-8.757,2.255-20.113,5.56-29.441,7.243c0-0.324,2.236-2.061,2.236-2.385c7.708-7.19,15.824-13.972,21.375-23.318
			C9.267,48.817,51.53,2.494,123.079,2.756z"/>
	</g>
</g>
<g id="圖層_1">
	<path fill-rule="evenodd" clip-rule="evenodd" fill="#6A318E" d="M101.245,56.44c1.32-2.88,2.34-5.66,3.24-8.46
		c0.7-0.48,0.92-1.68,1.26-2.52c0.24-0.59,1.26-1.83,0.36-1.98h-0.18c-0.01-0.11-0.03-0.21-0.18-0.18c-0.04,0.14,0,0.36-0.18,0.36
		c-1.42,3.58-3.21,7.94-5.04,11.88c-1.78,3.81-4.25,7.72-4.68,12.06c-0.15,1.56,0.18,3.18,0.18,4.86c-0.01,3.03-0.93,6.15-0.54,9.54
		c0.16,1.35,0.03,2.3,0,3.6c-0.02,0.87,0.32,2.02,0.36,3.06c0.09,2.41,0.03,4.44,0.18,6.12c0.04,0.43-0.05,0.91,0.18,1.26
		c1.9-0.31,0.66-2.82,0.54-4.14c-0.32-3.54-0.2-7.49-0.36-11.34c-0.14-3.53,0.66-6.92,0.54-9.9c-0.09-2.2-0.11-3.9,0.36-5.94
		C97.975,61.729,100.015,59.12,101.245,56.44z"/>
	<path fill-rule="evenodd" clip-rule="evenodd" fill="#6A318E" d="M99.265,85.06c-0.15,0.38-0.74,0.7-0.36,1.08
		C99.515,86.37,99.645,85.229,99.265,85.06z"/>
	<path fill-rule="evenodd" clip-rule="evenodd" fill="#6A318E" d="M72.445,88.84c0.25-0.7,0.34-2.23-0.18-2.7
		c-0.05,0.28-0.39,0.12-0.54,0c-0.29,0.95-1.36,1.75-0.72,3.06C71.754,89.35,71.854,88.85,72.445,88.84z"/>
	<path fill-rule="evenodd" clip-rule="evenodd" fill="#6A318E" d="M76.945,86.86c-1.48,0.13-2.3,1.39-1.62,2.7
		C76.735,90.03,77.725,88.15,76.945,86.86z"/>
	<path fill-rule="evenodd" clip-rule="evenodd" fill="#6A318E" d="M72.445,94.6c-2.14-0.4-2.62-2.07-3.6-3.96
		c-1.31,0.12-0.35,0.32-0.9,1.08c0.88,0.58,1.15,1.48,1.62,2.34c-0.02-0.03-0.46,0.06-0.36,0.18c0.05,0.06,1.08,0.89,1.44,1.08
		c1.84,0.96,4.05,0.29,5.4-0.36c1.47-0.71,2.2-1.07,3.06-1.8c-0.16-0.32-0.06-0.9-0.36-1.08C77.064,93.38,74.945,95.06,72.445,94.6z
		"/>
	<path fill-rule="evenodd" clip-rule="evenodd" fill="#6A318E" d="M145.524,95.86c0.78-1.34-0.64-3.06-0.72-4.68
		C143.885,91.99,144.415,95.01,145.524,95.86z"/>
	<path fill-rule="evenodd" clip-rule="evenodd" fill="#6A318E" d="M144.084,83.8c-0.68-1.08-0.19-1.93-0.54-3.06
		c-0.52-0.56-1.27-0.89-2.16-1.08c-0.1-3.35,0.51-8.65,3.78-7.38C146.075,75.69,144.075,80.41,144.084,83.8z M143.185,89.38
		c-0.16-0.77,0.55-1.6,0-2.16C143.785,86.79,143.834,89.11,143.185,89.38z M142.645,84.16c-0.57,0.11-0.56-0.34-0.9,0v1.26
		c-2.04,1.36-4.77,2.65-7.74,2.52c-0.38,0.08-0.34-0.26-0.36-0.54c-1,1.09-3.23-0.17-2.34-1.62c1.04,0.08,1.27-0.65,2.34-0.54
		c0.08-0.98,0.61-2.31,0.72-3.78c1.44-1.58,4.62-2.5,6.3-0.54c0.18-0.12,0.19-0.41,0.54-0.36
		C142.705,80.68,143.235,82.53,142.645,84.16z M142.285,88.479c0-0.73-0.54-1.33-0.36-2.52c0.46-0.02,0.63-0.33,0.9-0.54
		C142.655,86.32,142.405,87.19,142.285,88.479z M140.305,91.18c0.19-1.24,0.37-2.44,0.72-3.42
		C141.604,88.51,141.774,90.78,140.305,91.18z M133.104,93.16c-0.38-1.31,0.39-2.95,0.9-3.96
		C134.774,90.18,134.035,92.69,133.104,93.16z M132.024,90.82c-0.45-0.35,0.1-1.21,0.18-1.62
		C133.095,89.39,132.305,90.63,132.024,90.82z M130.584,84.52c-0.37,0.05-0.17,0.67-0.54,0.72c-3.84,0.79-6.82,0.47-10.08,0.72
		c-1.15,0.09-2.77,1.07-3.78,0.54c-0.26,0.28-0.45,0.63-0.9,0.72c-1.98-1.05-2.03-2.24-4.5-1.8c-1.13-3.86-0.82-8.95,1.08-12.06
		c1.59-1.34,3.61-0.9,5.76-1.08c4.6-0.37,9.9-3.5,15.3-1.44c0.55,3.81,1.36,9.9-0.36,13.86
		C132.004,84.729,130.805,85.25,130.584,84.52z M113.485,93.16c-0.53-0.27-0.19-0.7-0.18-1.26
		C113.564,91.78,113.705,92.95,113.485,93.16z M104.305,94.24c-0.14-0.15-0.49-0.11-0.54-0.36c-0.72,0.77-0.67,1.87-1.26,3.06
		c-0.38-0.66,0.43-1.75,0-3.06c0.72-0.12,1.22-0.45,2.16-0.36C104.665,93.88,104.175,93.75,104.305,94.24z M164.245,47.26
		c-0.35-4.54-2.44-7.19-4.86-9.36c1.24-2.91,2.23-10.21-0.54-12.06c-0.86-0.58-2.34-0.38-3.42-0.54c-1.04-0.16-1.87-0.59-2.7-0.54
		c-5.77,0.35-8.37,6.76-8.64,12.06c-8.33-1.75-7.27,16.17-0.54,17.28c0.75-0.27,0.87-1.17,1.26-1.8c0.41,6.7-1.24,13.05,0.36,18.9
		c-1.14-0.05-1.88-0.33-2.7,0.18c-0.19,1.63-1.57,3.23-1.8,5.04c-0.14,1.08,0.47,2.38-0.36,3.06c-2.08-1.59-4.38-0.15-5.94,0.9
		c-0.47-4.33,1.56-10.53-2.88-10.98c-4.2-0.43-9.13,1.25-12.06,1.26c0.13,0.67-0.63,0.45-0.9,0.72c-2.45-0.42-5.03,0.06-7.38,1.26
		c-1.67,3.52-2.11,7.23-1.44,12.6c-1.11-0.1-1.91-0.01-3.6,0.36c-0.05-5.23,0.56-11.85-2.88-14.22c-4.66,0.83-4.63,8.87-4.32,13.86
		c1.22-3.01,0.25-10.68,2.7-12.42c2.35-1.67,2.44,1.61,2.7,2.52c0.02,0.09,0.47,0.34,0.54,0.54c0.99,2.96-0.06,7.22,0,10.26
		c-1.71,0.57-3.67,0.89-4.14,2.7c2.49-1.46,8.23-3.75,11.7-2.52c2.59,0.92,2.34,3.23,0.54,4.5c-2.74,1.94-8.19,1.12-11.34,2.7
		c-1.75-1.11-1.95-3.04-2.16-5.4c0.34-0.45,0.94,0.38,1.08-0.36c-2.53-2.08-2,3.04-1.08,4.86c0.55,1.09,1.44,1.45,1.62,2.16
		c0.06-0.62,0.68-0.49,0.9-0.36c-0.11,1.22-1.05,3.48,0.18,4.5c1.35-0.82,1.49-2.83,2.34-4.14c0.19,0.16,0.17,1.31,0.9,1.44
		c1.33-0.54,0.74-2.15,1.26-3.24c1.78-0.12,3.9-0.24,5.58-0.9c0.48,2.01,0.11,2.83,1.26,3.96c1.6-0.54,0.9-4.02,0.54-5.04
		c0.84-0.72,1.76-1.9,1.62-3.06c2.84-1.04,5.48-1.19,10.44-1.44v3.6c-1.79-0.09-3.91,1.98-5.58,0.54c0.39-0.71,0.53-2.06,0.72-3.42
		c-1.57,0.65-1.37,3.07-1.8,4.86c3.02,0.89,5.29-1.86,7.02-0.18c1.32-0.96,0.13-5.14,0.54-5.76c1.22,0.15,2.41-0.53,3.42,0
		c-0.23,0.77,0.01,0.89,0,1.8c0.23,0.31,1.08,0,1.08,0.54c-0.49,1.42-1.02,3.6-0.9,5.04c0.79,0.61,1.13-1.1,1.62-0.72
		c-0.17,0.75-0.23,1.49,0.54,1.98c1.97-0.9,2.4-3.36,2.52-6.12c1.98,0,2.97-0.82,4.86-1.26c-0.14,1.73-1.06,3.6-0.54,5.4
		c1.27-0.29,1.9-1.22,2.52-2.16c0.42,0.12,0.14,0.94,0.9,0.72c2.38-0.64,1.32-4.47,1.08-6.3c1.37,0.11,0.55-1.97,1.26-2.52
		c-0.55-2.94,1.75-6.67,1.08-10.08c-0.19-0.97-0.85-1.62-0.9-2.7c-0.06-1.3-0.19-2.3-0.36-3.6c-0.5-3.72,0.8-8.54,0.36-12.6
		c0.07-0.41,0.79-0.17,0.72-0.72c-0.84-2.17,1.17-3.82,0.9-5.4c-1.11-0.08-1.12,1.4-1.26,1.8c-0.31,0.86-0.78,1.6-0.72,2.7
		c-0.8,0.1-0.83,0.97-1.44,1.26c-3.62-0.19-4.61-5.72-5.04-10.26c0.61-2.37,1.42-5.35,4.68-5.58c0.4,0.33,1.32,1.08,1.98,0.54
		c-1.97-5.43,4.02-14.69,9.72-11.52c5.63-2.09,5.64,8.28,3.24,11.7c0.56,1.18,1.69,1.79,2.7,2.52c2.9,3.89,2.75,8.72,2.34,14.4
		c-0.86,1.78-2.1,3.18-2.88,5.04c-1.97,2.58-5.4,2.27-9.18,1.98c0.48-2.61-0.1-6.11,0.18-9c0.17-1.8,1.55-4.17,0-5.4
		c-0.84,0.7,0.04,1.51,0,2.34c-0.06,1.47-0.82,2.98-0.9,4.68c-0.13,2.79-0.31,5.98,0,8.28c0.56,4.18,1.29,8.87,1.44,13.5
		c0.11,3.4,0.05,6.96,0.36,10.08c0.26,2.63,0.79,4.33,1.08,6.48c0.13,0.92-0.28,2.1,0.54,2.7c0.84,0.24,0.35-0.85,0.9-0.9
		c-1.34-3.75-1.54-7.78-1.62-12.06c-0.14-7.02-1.17-13.62-1.8-19.8c2.71-0.22,5.42,0.2,8.1-0.72c1.68-2.6,4.3-5,4.68-9
		C164.415,51.39,164.395,49.27,164.245,47.26z"/>
	<path fill-rule="evenodd" clip-rule="evenodd" fill="#6A318E" d="M93.325,57.88c-0.83-4.4-1.17-9.17-1.62-13.5
		c1.85-0.74,4.06-1.1,5.4-2.34c0.64-0.59,0.63-1.49,1.44-1.98c0.49,1.64-0.83,6.17,2.34,6.3C97.825,49.53,95.475,55.51,93.325,57.88
		z M98.544,50.32c1.57-2.46,4.31-4.02,5.04-6.66c-1.53-0.09-1.15,1.73-2.34,1.98c-0.45-0.39-1.38-0.3-1.62-0.9
		c-1.8-5.81,0.89-11.08,5.94-11.7c3.59-0.44,6.77,1.81,6.48,6.12c-0.11,1.69-1.24,2.82-2.7,3.06c0.15,0.87,1.13,0.91,1.8,1.26
		c2.06,2.39,3.98,6.28,2.7,8.82c-0.66,1.31-1.5,2.72-2.34,3.24c-2.47,1.53-7.48,0.13-8.28-2.34c-1.25,2.18,2.96,3.56,4.32,3.78
		c3.37,0.53,6.99-2.02,7.56-5.4c0.68-4.07-2.01-5.99-3.78-9c2.46-2.04,1.33-8.19-1.08-9.54c-1-0.56-4.19-1.06-5.58-0.72
		c-2.44,0.6-5.65,3.6-6.12,5.22c-0.32,1.09,0.23,1.53-0.18,2.34c-0.54-1.81-0.88-4.7-3.06-5.4c0.53-2.23,0.37-2.52-0.36-4.5
		c-1.75-1.51-4.97-0.69-7.2,0.18c-6.08-4.15-11.06,4.18-7.56,9.72c-2.21,0.07-2.66,1.9-3.96,2.88c-1.1,5.39,4.03,11.1,8.28,10.8
		c-1.26-0.57-3.85-2.05-5.58-3.24c-2.25-2.45-3.03-8.77,1.08-9.72c0.79-0.14,1.11,0.78,1.62,0.36c-0.36-1.97-1.8-3.39-1.8-5.58
		c0-3.86,2.98-6.4,6.84-5.04c0.31,0.59,0.17,1.63,1.26,1.44c0.97-1.57,4.64-2.8,6.48-1.08c0.6,1.38,0.45,3.69-0.36,4.68
		c0.4,0.32,1.35,0.09,1.8,0.36c3.76,4.05-0.45,7.81-4.5,8.1c0.03-0.81-0.58-0.98-0.72-1.62c-0.29,0.51,0.26,1.83-0.36,2.16
		c-0.07-0.31-0.23,0.04-0.54,0c-0.45-0.27,0.12-1.56-0.72-1.44c-0.3,0.93-0.36,2.06,0,2.34c0.42-0.32,1.54-0.62,1.98-0.36
		c0.19,4.15,1.5,10.44,1.44,15.48c1.98-0.83,2.28-3.18,3.24-4.86C96.625,53.86,97.524,51.92,98.544,50.32z"/>
	<path fill-rule="evenodd" clip-rule="evenodd" fill="#6A318E" d="M83.425,98.56c-0.18-1.14,0.74-1.18,0.9-1.98
		c-0.12-1.08-0.42-1.98-0.36-3.24c0.67-0.41,1.2-0.95,1.8-1.44C86.774,94.15,86.865,98.55,83.425,98.56z M76.584,84.52
		c-0.06-1.26,0.97-1.43,1.26-2.34c1.01,0.48,0.6,2.91-0.54,2.88C77.024,84.92,77.035,84.49,76.584,84.52z M80.725,94.06
		c0.05-2.88,0.16-5.49-1.08-7.74c-0.9,1.58,0.1,3.6,0.18,5.22c0.19,3.88-2.59,6.63-7.74,6.3c-0.96-0.82-2.03-0.61-2.88-1.26
		c-4.75-3.61-0.05-12.68,5.58-11.7c2.28,0.4,1.54,2.31,3.96,2.88c0.02-0.86-0.14-1.54-0.72-1.8c1.24-0.82,2.1-4,0.54-5.04
		c-1.61,0.25-1.81,1.91-2.7,2.88c-0.32,0.02-0.38-0.22-0.72-0.18c-0.74-0.23,0.8-1.05,1.08-1.44c1.44-1.86,3.73-2.87,5.58-4.32
		c0.84-0.08,2.1-0.76,3.42-0.9c-0.03,5.04-0.05,7.75-0.18,12.6c0.36,0.3,0.49,0.83,0.72,1.26C84.325,92.14,82.625,93.2,80.725,94.06
		z M87.925,42.76c-0.2-0.36-0.93-0.36-0.54,0c0.01-0.11,0.03-0.21,0.18-0.18c-1.01,1.77,0.47,4.04-0.54,5.94
		c0.88,4.7-0.99,9.64-1.26,14.58c-0.1,1.82,0.3,3.66,0,5.22c-0.43,2.22-0.67,5.07-0.54,7.56c-4.84,1.03-8.47,4.21-11.34,7.74
		c-0.96,0.14-2.01,1.01-3.06,0.9c-0.09-0.41-0.36-0.92,0-1.26c-1.05-0.33-1.37-0.59-2.52-0.54c-0.93,0.62-1.21,3.24-0.36,3.78
		c1.37,0.12-0.57-2.55,1.26-2.7c0.95,1.06,1.02,2.14-0.54,2.52c-2.1,2.62-3.28,7.85-0.36,10.8c0.74,0.16,1.46,0.34,1.62,1.08
		c1.27-0.25,1.58,0.46,2.34,0.72c5.11,0.27,7.12-3.21,10.62-5.04c1.04,1.92-0.92,3.63-0.72,5.76c1,0.34,2.78-0.07,3.42-1.08
		c0.5,0.28,0.88,0.68,1.26,1.08c0.06-0.54,0.54-0.66,0.9-0.9c0.23-2.34-1.09-4.45-0.9-7.74c0.33,0.33,0.63-0.28,0.9-0.54
		c-0.32-0.92-0.98-0.43-1.44-0.54c-0.36-5.53-0.42-8.83,0.18-14.04c-0.73-2.28-0.2-6.02,0-8.28c0.11-1.23,0.02-2.19,0-3.42
		c-0.05-3.18,1-6.15,1.26-9.36C88.055,51,88.265,47.22,87.925,42.76z"/>
</g>
</svg>
