<svg version="1.1" id="圖層_1" xmlns="http://www.w3.org/2000/svg" xmlns:xlink="http://www.w3.org/1999/xlink" x="0px" y="0px"
	 width="109.489px" height="117.192px" viewBox="0 0 109.489 117.192" enable-background="new 0 0 109.489 117.192"
	 xml:space="preserve">
<path fill-rule="evenodd" clip-rule="evenodd" fill="#6A318E" d="M62.42,7.026c0,0-31.35-7.06-49,12c-25,27-8.2,53.3-4,61
	s33.4,24.88,63,15s37.93-32.1,37-49S94.871,2.426,62.42,7.026z"/>
<polygon fill-rule="evenodd" clip-rule="evenodd" fill="#6A318E" points="59.42,91.026 72.42,114.026 69.42,87.026 "/>
<path fill-rule="evenodd" clip-rule="evenodd" fill="none" stroke="#FFFFFF" stroke-linecap="round" stroke-linejoin="round" stroke-miterlimit="10" d="
	M49.42,0.026c32.7-1.51,56.18,20.89,56,55s-36.34,37.95-36.34,37.95l2.34,19.05l-10.58-12c0,0-53.35,5.1-58.42-41s33.78-56.31,54-55
	"/>
</svg>
