<svg version="1.1" id="圖層_1" xmlns="http://www.w3.org/2000/svg" xmlns:xlink="http://www.w3.org/1999/xlink" x="0px" y="0px"
	 width="984.878px" height="216.022px" viewBox="0 0 984.878 216.022" enable-background="new 0 0 984.878 216.022"
	 xml:space="preserve">
<path fill="#D4EDFC" d="M46.473,138.727c0,0-25.77-3.6-28,7s-5.56,24.52,10,21s12,4.75,21,5s18.34-3.6,19-12
	S67.663,135.297,46.473,138.727z"/>
<path fill="#7C4697" d="M44.103,141.147c-8.83-0.67-18.99-5.199-25.8,1.541c-5.62,5.549-3.89,21.84,5.53,23.039
	c1.59,0.211,3.4,0.041,4.91-0.299c2.64-0.602,5.27-2.791,8.3-2.461c3.4,0.369,7.48,6.311,12.28,7.369
	c3.99,0.881,9.64-0.439,13.52-2.148c5.01-2.191,9.78-5.33,6.45-11.98c-2.15-4.301-7.21-7.291-10.14-11.371
	c-3.8-1.959-10.85-1.529-14.13-3.068c4.41-0.33,9.91-0.521,13.83,1.529c1.31,0.689,3.88,3.35,5.83,5.23
	c1.81,1.729,4,3.85,4.92,5.219c0.48,0.711,0.23,1.74,0.61,2.461c0.56,1.061,2.14,2.471,2.15,4.299c0.01,1.611-1.36,4.422-2.45,5.531
	c-3.65,3.709-16.45,8-23.35,5.23c-2.51-1.012-7.01-6.541-10.14-6.762c-3.68-0.27-7.35,3.371-12.9,2.762
	c-9.35-1.031-13.2-18.111-6.45-25.201c1.69-1.779,6.28-4.34,9.83-4.609C32.333,137.057,38.703,139.098,44.103,141.147z"/>
<path fill="#D4EDFC" d="M260.473,19.728c0,0-10.44,6.17-7,15s17,8,17,8s4.85,10.13,15,15c10.15,4.871,29.19,4.471,32-15
	c2.81-19.471-26-23-26-23s-16.8-7.66-21-3S260.473,19.728,260.473,19.728z"/>
<path fill="#7C4697" d="M270.203,44.257c-2.461,0.71-5.421,1.431-7.681,1.23c-10.58-0.95-19.62-22.36-4.92-22.74
	c-3.68,0.82-6.5,3.46-6.45,7.99c0.11,8.9,10.561,16.52,19.66,11.68c3.72,10.8,18.42,17.21,34.41,13.21
	c6.3-1.58,13.39-8.8,13.51-14.44c0.11-4.84-2.84-11.5-7.37-13.221h-2.46c-3.26-3.09-9.1-5.939-14.739-8.289
	c-4.74-1.971-9.83-4.54-14.131-4.921c-5.6-0.489-8.199,4.181-12.29,7.07c-2.84,2-5.979,2.64-9.22,3.99
	c1.07-3.19,4.95-3.26,7.681-4.91c4.64-2.8,7.119-8.16,14.75-7.07c8.35,1.19,19.029,6.86,25.8,10.75c1.97,1.141,3.01,1.46,5.529,2.46
	c6.511,2.58,10.71,15.061,5.221,21.82c-0.181,0.22,0.029,0.21-0.3,0.311c-1.551,0.449-2.311,2.689-3.07,3.379
	C303.003,62.557,274.553,59.108,270.203,44.257z"/>
<path fill="#D4EDFC" d="M908.473,132.727c0,0-14.439,8.74-11,18s26,2,26,2s-1.08,12.621,13,14c14.08,1.381,21.8-2.34,22-10
	s-3.65-15.471-10-15c0,0-15.43-16.93-24-19S900.423,127.317,908.473,132.727z"/>
<path fill="#7C4697" d="M925.232,163.278c6.5,1.82,17.08,5.289,24.88,3.379c4.271-1.049,5.771-4.289,7.681-7.99
	c2.01-3.898,4.24-8.01,1.54-12.6c-2.8-2-5.48-2.799-9.53-3.07c-2.11-1.459-3.01-2.75-4.91-4.609c-1.07-1.061-2.39-2.051-3.38-3.08
	c-1.65-1.699-2.17-3.85-3.68-5.529c-2.37-2.621-11.811-8.621-15.36-9.83c-6.14-2.09-11.63,1.75-14.75,4.609
	c-2.28,2.09-4.97,3.811-5.53,7.371c1.511,0.17,2.03-2.111,3.07-0.611c-0.21,2.041-1.38,2.57-3.681,3.07
	c-2.13,5.551-7.279,11.439-5.529,17.211c5,4.049,16.47,3.529,23.34,1.539C920.963,156.897,922.772,160.407,925.232,163.278z
	 M918.173,155.288c-8.5,1.299-20.45,2.141-23.97-4.609c0.279-7.82,4.01-12.182,7.069-17.211c-0.189-1.029-0.88-1.58-0.61-3.07
	c4.73-5.369,9.86-13.49,19.041-12.6c3.739,0.359,7.489,2.971,10.449,4.91c3.221,2.129,6.48,4.02,8.9,6.459
	c0.71,3.512,4.01,5.021,7.07,8.291c1.229,1.33,1.819,3.039,3.069,3.689c3.42,1.781,8.3,1.061,10.75,3.689
	c6.08,6.531-3.069,21.891-9.52,23.352c-7.011,1.59-16.98-0.84-24.88-3.07C922.072,162.848,920.393,158.797,918.173,155.288z"/>
</svg>
