<svg version="1.1" id="&#x5716;&#x5C64;_1" xmlns="http://www.w3.org/2000/svg" xmlns:xlink="http://www.w3.org/1999/xlink" x="0px"
	 y="0px" width="90px" height="102px" viewBox="0 0 90 102" style="enable-background:new 0 0 90 102;" xml:space="preserve">
<g>
	<path style="fill-rule:evenodd;clip-rule:evenodd;fill:#FFFFFF;" d="M1,44.86c0,22.68,17.28,41.35,39.43,43.63L45,101l4.57-12.51
		C71.72,86.21,89,67.54,89,44.86C89,20.64,69.3,1,45,1S1,20.64,1,44.86z"/>
	<g>
		<path style="fill:none;stroke:#794697;stroke-width:2;stroke-linecap:round;stroke-linejoin:round;" d="M34.519,87.471
			c1.924,0.469,3.897,0.812,5.911,1.019l2.059,5.636"/>
		<polyline style="fill:none;stroke:#794697;stroke-width:2;stroke-linecap:round;stroke-linejoin:round;" points="42.941,95.364 
			45,101 47.059,95.364 		"/>
		<path style="fill:none;stroke:#794697;stroke-width:2;stroke-linecap:round;stroke-linejoin:round;" d="M47.511,94.126
			l2.059-5.636c2.014-0.208,3.987-0.55,5.911-1.019"/>
		
			<path style="fill:none;stroke:#794697;stroke-width:2;stroke-linecap:round;stroke-linejoin:round;stroke-dasharray:12.1335,12.1335;" d="
			M66.726,83.01C80.027,75.464,89,61.203,89,44.86C89,20.64,69.3,1,45,1S1,20.64,1,44.86c0,18.491,11.486,34.317,27.734,40.768"/>
	</g>
</g>
</svg>
