<svg version="1.1" id="&#x5716;&#x5C64;_1" xmlns="http://www.w3.org/2000/svg" xmlns:xlink="http://www.w3.org/1999/xlink" x="0px"
	 y="0px" width="67.306px" height="32.008px" viewBox="0 0 67.306 32.008" style="enable-background:new 0 0 67.306 32.008;"
	 xml:space="preserve">
<ellipse style="opacity:0.2;fill-rule:evenodd;clip-rule:evenodd;fill:#7A4697;" cx="32.102" cy="29.508" rx="19.5" ry="2.5"/>
<path style="fill-rule:evenodd;clip-rule:evenodd;fill:#D4EDFC;" d="M13.602,19.008c0,0-5.33,2.38-6-3c0,0-5.54,1.17-5-6
	c0,0-4.15-5.7-1-6s12,8,12,8V19.008z"/>
<path style="fill-rule:evenodd;clip-rule:evenodd;fill:#D4EDFC;" d="M50.602,10.008c0,0,0.77,7.18,1,7s4.96-1.47,5-6
	c0,0,6.56,2.06,8-2s-3-4-3-4s3.89-2.47,3-4S54.472,4.058,50.602,10.008z"/>
<path style="fill-rule:evenodd;clip-rule:evenodd;fill:#FFCCCC;" d="M29.602,14.008c0,0-3.62-3.65-6-3s-0.87,7.94,1,11s4,1,4,1
	s12.29-5.03,10-11S29.602,14.008,29.602,14.008z"/>
<path style="fill-rule:evenodd;clip-rule:evenodd;fill:#7C4697;" d="M26.742,23.308c0.6,0.38,1.35-0.14,2.7-0.72
	c2.61-1.11,3.16-1.44,5.22-2.7c3.55-2.17,6.85-3.98,5.76-8.82c-0.69-0.82-1.05-0.87-1.8-1.62c-6.33-1.16-7.16,3.64-9.9,5.76
	c-0.55-2.75-2.01-4.59-4.68-5.22C20.162,14.108,23.312,21.168,26.742,23.308z M41.501,12.508c-0.17,0.49,0.09,1.09,0,1.62
	c-0.65,3.9-3.67,4.39-6.3,6.12c-0.58,0.38-0.88,1.11-1.44,1.44c-1.55,0.93-3.35,0.81-4.32,1.98c6.11-0.26,13.99-1.18,21.42-0.9
	c1.21-1.08,0.28-3.74,0.18-5.94c0.13-0.49-0.85,0.13-0.72-0.36c0.61-2.94-0.89-7.35-0.9-10.26
	C47.501,7.988,42.432,9.898,41.501,12.508z M12.881,11.068c-0.68-1.4-4.75-4.07-6.48-4.86c-0.99-1.03-3.04-3.03-4.68-2.16
	c-1.66,0.88-0.83,3.94,0.36,5.04c0.68,0.5,1.28,0,1.62,0.72c-0.58,1.55-2.39,2.77-2.16,4.5c0.3,2.27,3.42,2.13,5.58,1.26
	c0.84,1.25,0.55,2.77,1.62,3.96c1.74,0.42,2.46-0.46,4.14-0.54C12.952,15.958,13.992,13.338,12.881,11.068z M34.481,3.508
	c-7.23-0.12-11.33,1.51-18.72,1.62c1.28,2.22,3.91,4.54,5.94,4.86c-0.19,0.59-0.47,1.09-1.26,1.08c-2.05-2.11-3.86-3.57-5.76-5.58
	c-0.73,5.97-0.75,11.11-0.9,16.2c0.58-0.35-0.02,0.93,0.54,1.26c4.35-0.88,8.65,1.22,11.16,0.36c-0.76-1.07-1.3-1.77-2.16-2.16
	c-2.17-3.1-2.68-10.25,0.9-12.24c1.59,0.9,4.34,1.96,4.86,4.5c2.01-2.38,5.58-5.9,10.08-4.68c1.18,0.32,1.48,1.63,2.34,2.52
	c2.11-2.39,5.35-3.65,7.38-6.12c-4.68-0.97-10.15-0.79-13.86-1.98c-0.01-0.11-0.03-0.21-0.18-0.18
	C34.802,3.229,34.542,3.268,34.481,3.508z M50.861,10.888c0.19,1.73,0.43,3.41,0.9,4.86c1.78-0.38,3.37-0.95,4.5-1.98
	c-0.1-0.57-0.43-1.56,0.36-1.98c2.08,1.64,8.97,1.67,8.46-3.6c-0.79-0.95-1.3-2.18-2.52-2.7c0.21-2.04,3.99-1.51,3.78-4.5
	C58.111-0.182,55.191,6.968,50.861,10.888z M64.182,4.948c0.76,1.66,2.12,2.95,1.98,4.86c-0.25,3.32-5.18,4.25-8.64,3.78
	c-0.99,1.89-3.44,2.32-5.76,2.88c0.64,1.82,0.66,4.61,0.36,6.84c-3.15,1.15-7.15-0.34-11.16,0c-0.61,0.05-1.19,0.45-1.8,0.54
	c-4.18,0.59-8.72-0.47-12.06,0.9c-0.37-0.05-0.05-0.79-0.36-0.9c-3.61,0.75-7.75-0.77-12.06-0.54c-0.71,0.07-0.02,1.54-0.9,1.44
	c-0.5-0.5,0.16-0.75,0.18-1.26c-0.84-0.1-0.52,0.58-1.44,0.72c-0.66-0.88,0.76-0.96,0.9-1.62c-0.19-0.89-0.28-1.88-0.54-2.7
	c-2.13,0.31-3.13,1.07-4.86,0.36c-0.56-1-1.1-2.02-1.44-3.24c-4.22,0.99-8.23-2.49-4.32-6.48c-0.64-0.98-1.45-1.79-2.16-2.7
	c-0.58-3.73,1.36-5.73,4.86-3.96c1.2,0.6,2.95,2.58,4.5,3.6c1.2,0.79,3.14,2,3.96,3.06c0.11-1.45,0.45-3.85,0.18-5.4
	c2.58-1.51,5.58-0.77,8.46-1.08c4.38-0.47,8.6-1.48,12.96-1.44c3.32,0.03,6.97,1.02,10.26,1.26c1.65,0.12,3.48,0.27,5.4,0.36
	c-0.63,1.68,0.07,3.15,0,5.58c4.66-3.86,7.69-10.66,16.02-9.72C68.602,2.348,65.532,3.788,64.182,4.948z"/>
</svg>
