<svg version="1.1" id="圖層_1" xmlns="http://www.w3.org/2000/svg" xmlns:xlink="http://www.w3.org/1999/xlink" x="0px" y="0px"
	 width="146.615px" height="161.098px" viewBox="0 0 146.615 161.098" enable-background="new 0 0 146.615 161.098"
	 xml:space="preserve">
<g>
	<path fill="#6A318E" d="M67.771,15.085c0,0-42.739,2.409-58.669,33.215c-22.641,43.747,8.244,71.529,16.38,79.943
		c8.137,8.428,52.028,20.04,86.774-3.563c34.736-23.606,37.424-55.343,30.066-76.766C134.997,26.559,107.835-2.637,67.771,15.085z"
		/>
	<polygon fill="#6A318E" points="93.987,124.237 119.146,149.328 105.487,115.415 	"/>
	<path fill="none" stroke="#FFFFFF" stroke-width="2" stroke-linecap="round" stroke-linejoin="round" stroke-miterlimit="10" d="
		M48.598,10.886c41.44-13.858,79.704,6.205,91.829,50.075c12.189,44.099-33.23,62.278-33.23,62.278l16.906,31.952l-25.031-19.812
		c0,0-67.162,26.079-90.028-31.697c-22.705-57.341,23.538-84.537,49.959-90.234"/>
</g>
</svg>
