<svg version="1.1" id="&#x5716;&#x5C64;_1" xmlns="http://www.w3.org/2000/svg" xmlns:xlink="http://www.w3.org/1999/xlink" x="0px"
	 y="0px" width="58.493px" height="57.5px" viewBox="0 0 58.493 57.5" style="enable-background:new 0 0 58.493 57.5;"
	 xml:space="preserve">
<path style="fill-rule:evenodd;clip-rule:evenodd;fill:#FFFFFF;" d="M0,29C0,13.26,12.97,0.5,28.97,0.5
	c16.01,0,28.98,12.76,28.98,28.5S44.98,57.5,28.97,57.5C12.97,57.5,0,44.74,0,29z"/>
<polygon style="fill-rule:evenodd;clip-rule:evenodd;fill:#C3D711;" points="24.27,16.14 29.87,16.14 30.67,13 34.67,20.07 
	29.07,23.21 29.07,20.86 23.47,20.86 "/>
<polygon style="fill-rule:evenodd;clip-rule:evenodd;fill:none;stroke:#7A4697;stroke-linecap:round;stroke-linejoin:round;stroke-miterlimit:10;" points="
	29.07,13 28.27,24 35.47,19.29 "/>
<polyline style="fill-rule:evenodd;clip-rule:evenodd;fill:none;stroke:#7A4697;stroke-linecap:round;stroke-linejoin:round;stroke-miterlimit:10;" points="
	28.27,16.14 23.47,16.14 23.47,20.86 28.27,20.86 "/>
<path style="fill-rule:evenodd;clip-rule:evenodd;fill:none;stroke:#7A4697;stroke-linecap:round;stroke-linejoin:round;stroke-miterlimit:10;" d="
	M27.1,4.18c0,0,18.85-2.97,28.04,12.87c9.2,15.83-5.42,38.29-21.49,39.53C17.57,57.82,1.94,45.15,1.86,30.84
	C1.79,16.53,11.53,0.82,29.91,0.5"/>
</svg>
