<svg version="1.1" id="&#x5716;&#x5C64;_1" xmlns="http://www.w3.org/2000/svg" xmlns:xlink="http://www.w3.org/1999/xlink" x="0px"
	 y="0px" width="71px" height="61.998px" viewBox="0 0 71 61.998" style="enable-background:new 0 0 71 61.998;"
	 xml:space="preserve">
<g>
	<path style="fill-rule:evenodd;clip-rule:evenodd;fill:#794697;" d="M24.767,31.248c0.3,0.77,1.05,1.85,0.5,2.91
		C21.387,34.837,22.297,31.107,24.767,31.248z"/>
	<path style="fill-rule:evenodd;clip-rule:evenodd;fill:#794697;" d="M32.247,45.007c0.27-0.05,0.28,0.15,0.5,0.16
		c-0.27,0.76,0.01,2.06-0.34,2.75C31.227,48.107,31.597,45.438,32.247,45.007z"/>
	<path style="fill-rule:evenodd;clip-rule:evenodd;fill:#794697;" d="M47.697,17.007c-0.74-1.55,1.72-1.63,1.16-4.21
		c-0.15-0.67-2.05-2.56-2.83-2.91c-1.59-0.72-3.74-0.12-5.31-0.16c-1.2,1.85-1.44,4.68-0.17,6.31c0.84,1.07,4.9,2.41,6.31,2.1
		c2.59-0.56,5.32-4,5.65-7.12c0.39-3.61-1.67-7.54-4.32-8.25c-1.12-0.3-3.27-0.64-4.32-0.65c-3.04-0.03-7.03,5.6-6.81,9.23
		c-1.62-2.88,0.86-4.89,2.5-6.8c1.14-1.33,2.13-2.97,3.48-3.24c1.33-0.26,2.35,0.28,3.33,0.49c1.62,0.34,2.48,0.21,3.32,0.64
		c1.12,0.58,2.56,2.98,2.99,3.89c1.44,3.06,0.38,7.87-1.66,10.03c-1.09,1.15-2.76,2.56-4.82,2.59c-2.23,0.04-5.72-1.42-6.48-2.75
		c-0.99-1.73-1.27-6.49,0.83-7.44c1-0.45,4.51-0.06,5.48,0.32c1.37,0.53,3.19,2.62,3.66,3.08
		C50.287,14.488,49.157,16.658,47.697,17.007z"/>
	<path style="fill-rule:evenodd;clip-rule:evenodd;fill:#794697;" d="M25.597,18.138c1.58,4.57,5.71,11.14,10.63,13.76
		c1.39,0.73,3.54,1.61,5.15,1.62c0.82,0,1.77,0.54,2.33,0.48c2.21-0.23,2.44-3.09,2.66-5.5c-0.29,0.15-0.9-0.01-0.83,0.49
		c-5.06-2.23-10.59-3.62-12.3-9.88c1.41,1.04,1.95,2.97,3.33,4.37c0.99,1.02,2.4,1.74,3.98,2.43c1.96,0.85,3.5,2.16,5.82,1.78
		c0.6-2,0.32-5.34-1.66-6.15c-0.05-0.47,0.37-0.5,0.33-0.97c3.29,1.39,2.57,7.03,1.99,10.36c-0.53,3.06-2.48,5.46-3.82,7.28
		c-0.06,0.65,1.31-0.08,1,0.81c-0.31,0.65-1.3,0.25-1.33-0.32c-2.67,2.25-4.95,4.88-9.47,5.34c-0.39,0.05-0.71,0.16-0.83,0.48
		c-0.21-0.28-0.55-0.44-1-0.48c-4.67,0.21-8.74-3.13-10.63-6.32c-1.19-2.02-2.26-7.29-1.49-11.16c0.3-1.49,0.78-3.52,2.16-4.05
		c-1.13,2.31-1.33,4.85-1.16,7.45c0.12,1.93,0.02,4.06,0.66,5.98c1.14,3.43,4.44,5.08,7.14,6.8c7.9,1.77,12.7-2.93,16.28-7.93
		c-1.35,0.05-3.19-0.44-4.49-0.48c-0.04,0.69,0.51,0.8,0.34,1.61c-0.43,0.51-0.79,1.07-1.66,1.14c-1.31-0.41-0.89-2.73,0.33-2.92
		c-3.4-1.7-7.47-4.48-9.14-6.79C28.597,24.928,25.377,22.078,25.597,18.138z"/>
	<path style="fill-rule:evenodd;clip-rule:evenodd;fill:#794697;" d="M43.537,40.958c0.03-0.18,0.17-0.09,0.17,0
		c0.78-0.75,1.7-1.36,1.99-2.59c0-0.43-0.46-0.41-0.66-0.65c-0.12-0.7,0.3-0.89,0.66-1.13
		C47.637,37.678,45.517,42.708,43.537,40.958z"/>
	<path style="fill-rule:evenodd;clip-rule:evenodd;fill:#794697;" d="M9.327,11.507c-2.77,2.58-4.08,7.6-4.32,11.65
		c1.03-0.25,2.65-0.55,3.82-0.16c1.94-1.91,4.56-5.5,3.49-8.74c-0.94-0.06-2.22,0.22-2.33-0.65c0.24-0.68,1.01-0.85,0.83-1.94
		C10.267,11.658,9.987,11.397,9.327,11.507z M19.457,3.087c0.48,0.67,0.92,1.28,0.83,2.11c2.61,1.84,4.63-0.72,3.32-3.24
		C22.107,0.797,19.677,0.708,19.457,3.087z M18.627,51.317c0.61-0.26-0.39-0.24-0.17-0.65c1.37-0.49,2.24,0.67,3.32,0.97
		c3.08-0.56,5.95-1.33,7.64-3.23c0.71-1.24-0.82-4,1-3.89c0.08,0.73,0.2,1.99,0,2.75c0.06,0.54,0.73-0.42,0.83,0.16
		c0.38,0.69-0.35,0.99-0.5,1.62c-1.72,0.69-2.97,1.86-4.48,2.75c-1.69-0.52-3.01,0.77-4.49,0.65c-1.24-0.1-2.21-1.44-3.48-0.65
		c-2.67-1.92-5.98-4.59-7.48-7.76c-2.13-4.53-1.14-13-0.66-19.59c-0.33-0.73-1.11,0.08-1.66,0c-0.46-0.06-0.51-0.46-1-0.48
		c-1.22-0.05-2.51,0.49-3.32,0.16c-1.61,3.99-3.25,9.31-3.32,15.37c-0.01,0.85,0.41,2,0.49,3.08c0.11,1.39-0.21,2.58,0.17,3.72
		c0.24,0.72,0.93,1.27,1.16,1.94c0.35,1,0.28,2.04,0.67,2.92c1.02,2.34,3.19,3.49,4.15,5.66c0.33,0.22,0.95,0.16,1.33,0.33
		c0.05,0.54,0.26,0.92,0.16,1.61c-1.96-0.54-2.62-2.18-3.98-4.04c-0.87-1.19-2-2.2-2.49-3.24c-0.46-0.96-0.38-2.05-0.67-2.91
		c-0.38-1.13-1.33-1.94-1.49-3.08c-0.11-0.72,0.2-1.65,0.16-2.42c-0.03-0.8-0.45-1.52-0.49-2.27c-0.14-2.12,0.31-4.23,0.33-6.47
		c0.02-3.83,2.34-7.31,2.49-10.85c0.54-0.01,0.63-0.46,1.33-0.32c-0.16-1.94,0.45-3.56,1.16-5.99c0.56-1.91,1.38-4.58,2.66-5.82
		c0.69-0.68,2.09-1.2,3.15-0.33c2.37-2.03,4.85-4.74,7.15-6.31c-0.55-1.66,0.7-3.78,2.32-4.69c4.35-0.37,5.64,5.26,2.49,6.96
		c-1.15-0.17-3.11-0.68-4.15-1.46c-2.9,2.19-6.14,4.05-7.47,7.77c0.12,0.36,0.93,0.06,1.32,0.16c2.13,3.27-1.17,7.21-2.65,9.55
		c-0.02,0.61,0.87,0.33,0.99,0.81c-0.25,6.37-1.66,13.69,0.34,19.42c0.33,0.95,1.08,1.65,1.82,2.59c1.61,2,3.06,3.98,5.32,5.34
		V51.317z"/>
	<path style="fill-rule:evenodd;clip-rule:evenodd;fill:#794697;" d="M63.307,31.578c1.25,0.56,2.36,1.26,3.49,1.94
		c0.86-1.35,1.92-2.49,2.49-3.72c-0.64-1.86-3.03-0.06-3.66-1.78c0.72-0.01,0.45-0.98,0.5-1.62c-0.63-0.25-1.41-0.36-1.99-0.65
		C63.187,27.598,62.547,29.448,63.307,31.578z M69.787,15.388c0.28-1.13,0.21-2.48-0.5-3.07
		C66.487,11.728,67.537,15.908,69.787,15.388z M67.957,27.688c0.72,0.54,1.63,0.9,2.16,1.62c-0.13,2.14-1.6,2.97-2.49,4.37
		c-0.14,0.67,0.32,0.76,0.33,1.29c-1.38,2.14-1.7,5.07-3.16,7.45c-0.2,0.33-0.74,0.47-0.99,0.81c-0.66,0.9-1.01,2.07-1.66,3.07
		c-0.55,0.84-1.28,1.44-2,2.27c-1.48,1.7-2.52,3.84-3.98,5.18c-0.49,0.44-1.25,0.64-1.83,1.13c-1.33,1.12-2.59,2.44-4.32,3.56
		c-2.82,1.82-4.84,3.19-8.47,3.56c-0.02-1.96,2.95-1.01,4.15-1.78c9.92-5.73,17.28-14,21.1-25.25c-0.72-0.4-0.96,0.85-1.83,0.81
		c0.25-1.12-0.52-1.61,0-2.1c-0.76-0.5-1.38-1.14-2.49-1.3c-1.49,5.39-4.02,9.94-7.64,13.27c-2.9,2.67-6.75,4.15-10.47,6.48
		c-2.1-0.44-5.31,0.22-6.64-0.97c2.02-0.75,4.24,0.5,6.14,0.16c0.77-0.14,2.97-1.59,3.99-2.1c1.94-0.98,3.23-2.01,4.98-2.59
		c-0.02-0.71,0.99-0.4,0.5-1.14c4.05-1.99,5.38-6.63,7.64-10.35c0.27-1.18,0.15-2.46,0.67-3.56c0.11-0.24,0.77-0.54,0.83-0.81
		c0.06-0.3-0.33-0.92-0.33-1.3c-0.01-1.52,0.73-3.07,1.66-4.53c1.78-0.04,3.32,0.75,3.32,1.94c1.71-2.36,1.96-6.13,1.99-9.38
		c-0.57-0.15-0.77-0.66-1.33-0.81c0.33-0.47,0.26-0.71,1-0.49c-0.24-0.69-0.62-0.25-1.16-0.65c-0.66-1.31-1-2.96-0.5-3.88
		c1.76-0.96,3.54,0.28,3.82,1.62c0.29,1.36-0.71,2.75-1,4.04c-0.43,1.96-0.01,4.38-0.5,6.32
		C68.997,25.448,67.987,26.428,67.957,27.688z"/>
	<path style="fill-rule:evenodd;clip-rule:evenodd;fill:#794697;" d="M18.297,28.018c0.75,0.75,0.6,0.89,0.49,2.26
		c-0.71-0.11-0.01-1.11-0.33-1.29c-1.53,0.07-2.1,1.45-1.99,2.26c0.24,0.33,0.64-0.55,1.16-0.48c0.29,0.31,0.68,0.52,0.5,1.29
		c-0.84,0.11-1.38-0.05-1.66-0.48c0.08,1.26,0.94,1.78,1.16,2.91C14.917,34.428,14.807,28.438,18.297,28.018z"/>
	<path style="fill-rule:evenodd;clip-rule:evenodd;fill:#794697;" d="M26.267,38.857c0.82-0.53,1.2,0.76,1.49,1.29
		c1.22,0.41,2.05,0.2,2.99,0.81c1.65-0.44,2.48-1.68,4.16-2.1c0.37,0.44-0.03,1.17-0.17,1.62c-2.11,0.57-3.91,1.79-5.98,1.13
		C27.427,40.948,26.607,39.638,26.267,38.857z"/>
</g>
</svg>
