<svg version="1.1" id="&#x5716;&#x5C64;_2" xmlns="http://www.w3.org/2000/svg" xmlns:xlink="http://www.w3.org/1999/xlink" x="0px"
	 y="0px" width="1440px" height="483px" viewBox="0 0 1440 483" style="enable-background:new 0 0 1440 483;" xml:space="preserve">
<path style="fill:#E3F0DF;" d="M-19.581,498.774c0,0,48-112,112-143c22.36-10.829,56-49,96-29s113,58,131,31s80-107,111-103
	s51,34,65,74s47,48,57,22s73-146,164-145s204,20,285,134c0,0,58,96,66,85s122-103,265-46s141,105,141,105l-7,15H-19.581
	L-19.581,498.774z"/>
<path style="fill:#FFFFFF;" d="M959.419,252.774l58,48c0,0,24.66-20.149,19-40c-5.66-19.85-20.221-31.33-34-31
	C988.639,230.104,968.438,235.745,959.419,252.774z"/>
<path style="fill:#FEF8C9;" d="M937.419,261.774c0,0-1.24,9.41,3,13c4.24,3.591,14-1,14-1l35,30c-3.391,1.222-4.15,10.801-1,15
	c3.15,4.2,18-1,18-1l16,13c0,0,8.28-0.93,13-6c4.72-5.069-8-21-8-21s7.35-6.93,12-34c4.65-27.069-23.189-40.561-39-42
	c-15.811-1.438-48,21-48,21l-19-9l-11,13L937.419,261.774z M964.419,253.774c12.7-20.79,39.99-25.43,51-14c11.01,11.431-14,43-14,43
	L964.419,253.774z M1005.419,285.774c0,0,22.93-22.449,26-19c3.07,3.45-12,28-12,28L1005.419,285.774z"/>
<path style="fill:#7C4697;" d="M916.219,231.975c0.521,0.149,2.892,0.319,2.15,1.53c1.35,0.369,4.3,1.819,2.77,3.08
	c-1,0.27-0.438-1.011-0.93-1.23c-1.74,0.021-2.67-1.52-3.68-2.46c-2.08-1.92-6.82-3.31-6.45-6.148h1.229
	c-0.028,0.84,0.511,0.619,0,1.229c2.15-0.279,3.15,2.899,5.53,3.38C916.949,231.884,916.6,231.934,916.219,231.975z"/>
<path style="fill:#7C4697;" d="M914.068,239.345c-2.811,0.289-4.311-2.899-7.069-3.689c-1.44-0.409-2.771,0.069-3.99-1.221
	c-0.159-0.25-0.318-0.5-0.3-0.93c0.24-0.16,0.49-0.32,0.92-0.301c3.07,0.91,6.24,1.74,7.98,3.99
	C912.999,237.415,914.759,237.954,914.068,239.345z"/>
<path style="fill:#7C4697;" d="M1007.448,235.655c0.591,1.829-0.42,3.729,0,5.229c1.851-1.359,4.951-3.049,7.381-1.229
	c-0.17,1.521-1.44,3.091-1.851,5.22c-2.891-0.43-1.17-2.58-0.609-4.3c-2.102-0.311-3.65,2.46-7.07,1.851
	c-0.72-2.01,0.87-3.131,0.62-5.541c-2.46,0.051-4.93,1.57-6.76,1.23C999.769,235.265,1005.089,234.824,1007.448,235.655z"/>
<path style="fill:#7C4697;" d="M997.319,236.585c-1.99,3.039-5.052,6.609-4.302,11.369c2.99,7.6,15.83,6.149,18.431-0.931
	c-0.279-0.54-1.25-0.391-0.92-1.528c1.28-0.16,2.08,0.17,2.761,0.608c-2.091,10.431-16.94,11.96-21.811,3.08
	c-1-5.83,1.739-9.67,4.92-12.91C996.889,236.184,996.919,236.564,997.319,236.585z"/>
<path style="fill:#7C4697;" d="M1000.079,241.195c-0.32,3.42,1.608,3.069,2.46,4.909c-2.46,0.07-4.94-2.409-7.99-2.76
	C993.858,239.175,998.459,239.005,1000.079,241.195z"/>
<path style="fill:#7C4697;" d="M1007.448,248.255c0.569,1.789-1.181,1.279-0.92,2.77c-2.189,0.189-2.47-1.92-4.3-1.229
	c0.229-0.949-0.841-0.59-0.609-1.539C1003.379,244.934,1005.129,246.425,1007.448,248.255z"/>
<path style="fill:#7C4697;" d="M982.569,248.255c-2.86,0.25-6.73,0.959-8.91,1.85c2.069,1.07,2.35,5,4.92,4.609
	c-0.131,1.811-1.601,0.9-2.771,0.61c-1.341-2.75-3.561-4.63-4.601-7.681c0.88-0.79,2.069-0.029,2.149,0.92
	C975.688,248.124,981.81,244.505,982.569,248.255z"/>
<path style="fill:#7C4697;" d="M983.489,259.934c-0.812,1.029-1.931,1.75-3.681,1.84
	C979.229,259.634,982.979,258.064,983.489,259.934z"/>
<path style="fill:#7C4697;" d="M953.079,285.745c-1.37-2.07-4.591-4.771-7.061-6.762c2.421-0.859,5.3-1.25,7.369-2.46
	c3.972,2.892,6.431,7.301,11.37,9.222c1.86,4.039,6.76,5.059,9.83,7.688c2.45,2.091,4.42,4.55,7.062,6.449
	c1.579,1.141,3.56,1.91,5.22,3.07c-2.23,3.131-4.48,8.34-3.38,12.91c-1.472-2.631-5.271-5.99-7.98-9.221
	c-0.6-0.71-1.6-3.011-2.77-4.3c-0.181-0.211-1.091-0.09-1.23-0.311c-0.67-1.09-2.26-3.391-3.38-4.301
	c-0.53-0.439-1.6-0.439-2.15-0.92c-0.5-0.449-0.379-1.3-0.92-1.851c-0.688-0.699-1.789-0.549-2.76-1.229
	C959.229,291.595,955.398,286.425,953.079,285.745z M1031.409,296.195c-1.931,1.108-2.91,5.63-4.601,7.989
	c1.459,3.351,4.159,5.47,6.75,7.681c0.891,2.5,2.5,4.27,3.689,6.46c0.54,3.021-0.189,6.12-2.15,8.909
	c-1.948,2.762-4.89,7.551-9.83,6.762c-2.659-0.432-7.688-5.562-9.52-7.682c-2.23-2.59-5.84-5.62-8.6-7.689
	c0.6-2.25-1.03-4.07-3.07-4.609c-0.24,1.85,2.63,1.271,1.529,3.08c-1.33-1.131-2.591-2.33-4.3-3.08
	c-0.541,1.75,2.521,2.35,3.689,3.38c-6.15,5.069-18.28,5.44-19.971-3.38c-1.021-5.311,2.461-7.74,3.989-12.29
	c0.972-0.351,0.75,0.479,1.23,0.62c0.84-0.28-0.311-1.08-0.311-1.541c-1.431-0.1-1.811,0.852-2.449,1.541
	c-2.2-1.9-4.23-3.971-7.37-4.92c0.12-0.641-0.22-0.811-0.311-1.23c-4.479-1.869-6.311-6.391-11.37-7.68
	c-2.329-2.79-4.489-5.75-8.29-7.07c-1.561-2.329-3.181-4.6-5.841-5.84c0.36-1.069,2.2-0.67,2.15-2.149
	c0.271-0.979-0.8-0.641-0.92-1.229c-1.29,0.34-0.71,2.271-3.38,1.851c-0.671,0.04-0.66,0.771-0.61,1.529
	c-2.33,0.011-4.149,1.66-6.449,1.23c-3.261-0.61-5.2-5.271-7.989-6.142c0.239-4.17,0.379-8.43,4.3-8.92
	c-1.63-1.8-4.22,0.48-6.761-0.92c-0.129-0.069,0.121-0.811,0-0.92c-1.91-1.811-6.261-2.561-8.601-3.99c-0.14-0.09,0.13-0.811,0-0.93
	c-0.93-0.78-2.43-0.62-3.069-1.229c2.101-7.039,4.859-11.671,10.141-15.671c0.41,0.101,0.25,0.771,0.3,1.23
	c3.17,1.83,6.88,2.619,10.141,4.609c2.069,1.26,4.479,3.35,6.76,4.92c0.82,0.561,2.141,0.621,3.681,0.609
	c-0.069-1.21,2.51-1.37,1.852-2.148c0.06-0.352,0.31-0.17,0.299,0c9.011-5.972,20.581-13.61,31.641-18.131
	c9.159-3.74,24.521-0.729,33.181,3.381c3.72,1.77,6.979,4.989,10.14,8.91c3.16,3.93,7.551,9.809,8.91,15.67
	c2.681,11.608-1.92,20.58-4.3,30.119C1033.688,289.464,1031.749,293.354,1031.409,296.195z M1004.079,345.365
	c-0.42-0.9,1.108,0.699,1.529,0.92c-0.199,0.409-0.66,0.569-1.229,0.609C1004.209,346.454,1004.739,345.314,1004.079,345.365z
	 M831.889,223.954c0.65,0.569,1.32,1.09,2,1.561c-5.5-1.76-11.34-3.189-17.81-3.99c-7.71-3.979-15.561-3.409-23.96-4.92
	c-4.312-0.77-8.15-2.75-12.29-3.989c-2.55-0.771-5.53-1.04-8.29-1.851c-4.189-1.211-7.771-2.211-12.29-3.381
	c-1.351-0.34-2.67-1.219-3.99-1.529c-13.609-3.17-26.42-0.801-41.17-1.54c-5.64-0.279-12.37,1.53-18.729,2.46
	c-8.49,1.24-15.851,4.312-22.74,5.222c-0.03,1.619,1.5,0.068,2.15,1.229c-8.4,5.42-16.351,11.3-26.11,15.37
	c-9.21,6.13-18.11,15-23.34,26.119c-4.15,3.84-6.98,8.99-11.98,11.98c-0.04,0.77-0.58,0.949,0,1.539
	c-2.75,0.319-4.04,3.66-5.84,5.221c-0.479,0.42-1.36,0.489-1.84,0.92c-5.87,5.311-12.51,10.75-15.98,18.131
	c-7.659,7.91-13.26,17.879-20.88,25.818c-1.54,4-5.46,7.221-6.149,11.061c-3.94,3.841-5.681,9.881-9.521,13.83
	c-2.609,5.58-5.32,10.67-8.91,15.67c-2.319,3.229-9.729,5.041-14.739,5.531c-10.641,1.028-16.83-3-21.511-7.682
	c-4.8-4.818-8.41-13.67-9.21-20.279c-2.359-3.181-2.79-8.279-4.609-11.99c-0.971-6.609-4.301-11.859-6.761-17.819
	c-3.18-7.71-4.29-17.99-8.909-23.66c-3.53-10.31-10.91-16.148-19.66-21.51c0.1-1.94-2.46-1.22-2.45-3.08
	c-11.08-5.17-25.37-12.06-40.86-8.91c-3.71,1.71-8.31,3.58-12.29,5.84c-3.94,4.82-10.77,6.971-14.43,11.37
	c-0.97,1.16-0.8,0.261-1.85,0.92c-0.83,0.53-1.78,2.011-3.07,3.08c-6.1,5.03-11.83,10.66-15.97,16.9c-0.4-0.021-0.43-0.4-0.92-0.311
	c-2.21,3.221-4.66,6.199-7.68,8.6c-4.92,7.271-11.99,12.391-16.29,20.281c-1.18-0.262-0.5,1.35-1.84,0.93
	c-2.74,5.56-9.34,8.88-10.75,14.75c17.86-19.01,33.6-40.141,52.22-58.391c1.16-0.591,2.101-1.381,2.771-2.459
	c4.82-3.172,8.35-7.621,14.13-9.83c6.93-6.82,18.28-12.701,31.02-10.75c-0.01-0.012,0.94,0.199,1.23,0.299
	c5.229,1.781,10.77,3.261,15.67,4.92c1.76,2.551,5.28,2.221,7.68,3.99c0.53,0.399,0.67,1.41,1.23,1.851
	c0.45,0.351,1.07-0.011,1.53,0.3c0.88,0.601,1.77,1.73,2.77,2.46c6.84,5.021,13.41,10.149,15.97,19.051
	c3.95,4.239,5.04,11.489,7.07,17.83c1.51,4.739,3.9,8.829,5.22,13.21c1.33,0.851,0.771,2.31,1.23,3.689
	c0.648,1.99,2.01,4.119,2.76,6.449c0.891,2.781,1.17,5.82,2.15,8.61c0.62,1.761,1.68,3.14,2.149,4.909c0.8,3,0.88,5.721,2.15,8.301
	c0.54,1.1,1.59,1.84,2.149,3.069c1.29,2.82,2.19,4.55,4,6.761c0.49,0.609,0.65,1.579,1.221,2.149c0.12,0.119,1.68,0.41,2.149,0.93
	c0.13,0.131-0.14,0.82,0,0.921c0.271,0.17,0.99-0.211,1.23,0c3.52,3.01,6.41,5.739,11.979,6.141c7.65,0.549,18.7-0.36,22.73-5.53
	c0.83-1.05,0.59-2.591,2.16-3.07c3.12-6.101,6.38-12.05,10.439-17.21c5.66-11.061,12.811-22.948,21.5-31.96v-1.229
	c5.54-3.16,6.101-11.312,11.98-14.131c1.54-5.431,6.649-7.279,8.91-11.99c4.67-3.039,9.649-7.299,12.29-11.369
	c4.97-2.69,7.75-7.74,11.359-11.67c1.03-1.131,1.95-1.15,2.46-2.15c0.21-0.409,0.03-1.069,0.311-1.54
	c1.97-3.26,4.489-5.979,6.449-8.609c4.421-5.931,9.131-11.229,15.671-15.049c10.619-4.74,18.96-11.762,29.18-16.9
	c0.05-0.36-0.05-0.87,0.31-0.92c15.54-4.9,31.98-7.7,47.92-7.07c5,0.189,8.859,0.109,13.819,0c10.94-0.26,20.761,3.65,30.101,6.449
	c5.08,1.521,10.33,2.33,15.061,3.99c2.239,0.791,4.46,1.779,7.37,2.16c9.08,1.159,14.38,1.75,21.81,4.301
	c4.62,1.59,10,1.77,14.74,2.76c11.819,2.47,22.45,7.66,34.41,7.07c3.22,1.709,8.409,3.039,11.979,3.379
	c-0.13,0.74,0.562,0.67,0.312,1.541c2.069-0.67,2.729,1.93,5.22,0.92c11.05,9.229,26.17,14.379,39.62,21.199
	c4.22,5.109,10.66,7.989,15.67,12.301c1.67,3.439,4.061,6.18,8.6,6.76c7.381,9.101,17.121,15.851,25.812,23.66
	c0.59,1.959,2.72,2.39,3.068,4.609c11.951,10.779,20.15,25.319,30.41,37.791c-0.67,0.648,0.15,0.879,0,1.85
	c1.94,1.6,2.01,1.81,3.99,3.38c1.12,0.8,1.38-0.62,2.15,0c2.899,5.75,8.51,9.39,12.288,14.44c4.552,6.08,8.701,12.52,14.74,17.209
	v0.92c3.44,1.271,4.45,4.979,6.761,7.381c3.479,6.76,7.681,12.8,11.37,19.35c4.561,4.65,6.5,12.312,9.83,17.83
	c1.17,1.939,2.859,3.9,2.761,6.142c1.64,0.02,3.709,3.568,3.38,5.528c-1.262-1.29-2.15-2.971-3.07-4.608
	c0.101,3.6,2.4,6.08,4.92,5.539c0.46-4.851-3.96-7.25-5.229-11.369c-3.65-4.32-4.69-10.142-7.37-15.062
	c-1.12-2.05-2.92-3.641-4.301-5.528c-5.34-7.302-8.449-16.451-14.131-22.432v-0.931c-11.26-8.811-18.278-21.869-28.568-31.649
	c-0.971-2.3-2.91-3.64-3.69-6.14c-0.89-0.08-0.938,0.689-1.84,0.609c-3.22-3.271-5.12-7.709-7.979-11.061
	c-1.261-1.47-2.921-2.37-4-4c-2.391-3.62-3.97-7.87-7.681-10.439c2.37,0.541,4.79,1.609,7.99,1.229c3.71-0.45,7.43-3.09,10.141-4
	c-0.051,0.771,0.479,0.949,0.609,1.54c4.891,1.7,7.979,7.819,11.67,10.75c1.979,1.569,5.91,5.579,9.83,4.61
	c1.649-0.4,6.21-4.08,8.3-6.762c1.062-1.359,1.28-3.37,1.841-4.609c0.09-0.199,0.83-0.229,0.92-0.609
	c1.369-5.471-2.62-8.74-4.609-13.221c-2.99-1.409-3.59-5.209-7.061-6.14c0.59-0.131,1.319-0.11,1.229-0.921
	c5.68-11.738,13.8-24.609,13.51-40.26c-0.25-13.46-9.01-22.261-16.58-30.11c-9.609-4.63-22.06-9-33.18-7.069
	c-6.932,1.201-12.11,5.591-18.432,7.371c-6.52,4.448-12.929,9-19.97,12.91c-0.31,0.709-0.41,1.639-1.528,1.538
	c-6.25-3.31-12.052-7.55-18.44-9.84c0.06-0.88,0.04-1.67-0.92-1.528c-6.33,3.83-10.75,10.06-11.979,18.129
	c5.199,2.791,10.181,5.801,15.359,8.601c-1.02,1.55-1.24,5.149-1.229,6.76c-1.159-1.908-4.069-2.068-4.609-4.609
	c-9.08-4.84-14.84-11.739-26.41-14.439c-3.188-2.858-7.51-4.569-11.979-6.149c-3.681-3.08-8.391-5.129-11.67-8.601
	c-4.971-0.6-9.869-3.278-14.439-4.608c-7.311-2.132-15.3-1.07-22.34-3.41C838.829,228.234,834.619,225.975,831.889,223.954z"/>
<path style="fill:#7C4697;" d="M1005.608,346.284c-0.199,0.41-0.66,0.569-1.229,0.609c-0.17-0.439,0.36-1.58-0.3-1.529
	C1003.659,344.464,1005.188,346.064,1005.608,346.284z"/>
<path style="fill:#7C4697;" d="M972.438,259.934c0.83-0.67,0.08-1.02,0.61-1.84c0.78,0.38,1.39-0.689,2.761,0
	c9.25-2.12,9.869-16.28-0.301-17.211c-4.561,3.431-8.26,7.721-11.06,12.9C966.609,256.265,972.06,257.595,972.438,259.934z
	 M1001.31,282.984c-0.471-0.01,0.149-1.449,0.311-1.851c0.8,0.83,0.92-0.369,1.84-0.299c1.271-2.892,4.899-5.852,6.76-8.91
	c2.182-3.61,4.15-9.17,6.141-14.141c1.84-4.591,3.649-9.15,1.541-13.83c-2.062-4.57-5.472-9.59-11.062-11.061
	c-5.1-1.351-9.311,1.181-14.438,2.149c-3.4,0.641-6.052-0.049-8.291,2.149c-3.341-0.3-4.609,2.171-6.761,2.15
	c2.78,2.55,6.931,3.271,7.681,7.38c0.381,2.069-0.619,6.54-1.84,8.601c-1.561,2.601-6.069,4.409-9.529,4.609
	c4.27,2.869,7.68,5.359,11.06,8.609c-0.01-0.939,0.28-1.569,0.92-1.851c1.801-0.97,5.352-5.358,4.922-8.3
	c-0.41-2.819-4.422-3.591-5.842-4.91c-0.271-0.988,0.479-0.96,0.92-1.229c1.9,0.148,2.221,1.879,4,2.148
	c0.65-0.488,1.87-2,3.07-0.92c0.04,1.391-2.5,1.42-1.54,2.762c1.08,0.789,2.439-3.171,3.689-1.23c-0.66,0.88-1.351,1.73-2.459,2.15
	c-0.65,5.81-4.062,10.479-7.062,12.909C990.969,273.495,996.019,278.865,1001.31,282.984z M1002.539,283.284
	c-0.3,1.43,1.84,0.42,1.54,1.85c-2.96,2.07-7.381-3.959-9.53-6.148c-1.479-0.921-4.08-2.19-4.3-3.381
	c-1.12,0.21-1.18-0.659-2.15-0.608c-4.448-5.392-10.52-11.062-17.198-14.441c-0.24-0.279-0.33-0.699-0.312-1.229
	c-2.5-0.579-4.59-1.561-5.53-3.69c-0.948-0.17-2-0.25-2.76-0.619c0.41-1.66,1.42-3.729,2.46-5.221
	c0.05-0.069,0.521,0.451,0.61,0.311c1.1-1.739,1.49-2.909,3.068-4.608c0.75-0.801,1.28-1.951,1.852-2.461
	c1.39-1.271,4.189-2.271,6.14-3.689c0.92-0.67,3.08-2.881,4.61-3.381c0.88-0.289,1.92,0.201,2.76,0c1.95-0.469,3.36-2.029,5.22-2.76
	c3.642,1.35,7.25-2.521,11.062-1.851c4.84-1.108,9.979,0.33,13.21,2.771c1.979,1.49,3.78,4.801,5.22,7.99
	c0.5,1.09,1.641,2.109,1.85,2.76c2.562,8.221-3.579,14.359-4.92,21.211C1011.219,271.894,1008.399,279.115,1002.539,283.284z"/>
<path style="fill:#7C4697;" d="M903.009,242.725c4.07,0.229,6.96,1.649,11.061,1.851c-2.431,3.12-8.539-0.551-11.061-0.311V242.725z
	"/>
<path style="fill:#7C4697;" d="M1026.188,265.774c-8.97,4.54-15.909,11.12-19.659,20.892c3.729,2.629,7.121,5.59,11.681,7.379
	c7.101-6.83,12.46-15.39,14.43-27.35C1030.839,266.034,1028.938,265.484,1026.188,265.774z M1034.179,265.464
	c0.19,11.391-6.528,18.439-10.75,26.431c-2.649,1.341-4.02,3.971-6.76,5.221c-1.229-0.221-0.021-1.439-0.609-1.841
	c-0.561-0.04-0.649,0.37-1.229,0.312c-0.09-0.5,0.29-0.531,0.3-0.932c-3.51-1.908-5.931-4.92-10.13-6.14
	c0.38-1.07,0.89-0.57,1.529-0.92c-0.391-0.53-1.459-0.381-1.529-1.23c0.689-2.819,2.479-5.868,4.3-8.608
	c2.53-3.812,4.91-6.142,9.21-8.91C1023.149,265.865,1027.108,261.634,1034.179,265.464z"/>
<path style="fill:#7C4697;" d="M1048.311,342.905c-2.021-0.421-5-0.801-7.371,0c0.351-0.36,0.351-1.091,0.301-1.841
	c8.14-3.189,16.99,6.83,9.22,10.141c0.26,2.33,0.08,3.381-0.31,5.83c-2.84,0.949-6.67,0.979-8.291-0.609
	c-0.989-0.971-0.92-3.17-1.539-4.61c-1.471-3.439-3.4-7.189-3.07-9.829c2.029-0.602,0.85,2.021,1.54,2.761
	c0.79,4.028,3.05,6.579,3.989,10.448c1.57,1.07,4.609,1.591,6.141,0.312c0.301-2.721-0.71-2.91-0.608-4.92
	c0.969-0.67,2.528-0.75,3.379-1.531C1052.849,345.945,1049.169,343.934,1048.311,342.905z"/>
<path style="fill:#7C4697;" d="M1071.039,371.175c-0.561,0.72,0.318,1.959,0,3.379c-6.682,6.451-17.79-2.148-15.97-11.68
	c1.409,2.051,1.788,5.939,3.068,8.91c2.36,2.189,6.511,4.68,10.75,3.08c1.171-1.67-0.079-2.99,0.62-5.23
	c3.17,0.932,6.7,0.67,7.98-1.84c-2.78-5.539-12.62-5.561-18.74-6.76v-0.609c2.66-1.729,6.09,0.99,8.91-0.311
	c0.85,1.449,3.13,0.869,4.92,1.529c2.06,0.771,6.359,3.12,6.449,5.841C1079.119,370.574,1074.679,372.124,1071.039,371.175z"/>
<path style="fill:none;stroke:#7C4697;stroke-width:2;stroke-linecap:round;stroke-linejoin:round;stroke-miterlimit:10;" d="
	M1070.419,413.774c0,0,152-111,339-6"/>
<path style="fill:none;stroke:#7C4697;stroke-width:2;stroke-linecap:round;stroke-linejoin:round;stroke-miterlimit:10;" d="
	M327.419,335.774c0,0-23,43-56,29s-89.91-83.43-156-23c-35,32-55,13-55,13"/>
<g>
	<g>
		<path style="fill:#FFFFFF;" d="M742.559,172.774c0,0-10.55-4.721-20-3l3,6c0,0,14.15-0.17,15,11c0.86,11.171-6.5,18.62-14,18
			c-7.489-0.619-15.739-8.778-14-17c1.75-8.221,10-10,10-10l-5-7c0,0-8.64,4.851-8,17l-3-1c0,0,0.511-18.619,11-19l-10-21
			c0,0-5.25,0.25-6-2c0,0-10.729,7.931-15,8c-4.26,0.07-1-2-1-2l-12-4v-2l11,3c2.11,0.57,2,2,2,2s10.16-5.04,13-7
			c2.851-1.96,1-2,1-2l-6-6l5-3l3,5l4-2l-2-4l4-2l2,6c0,0,4,0.261,4-3c0.011-3.26,0.051-13.739,3-13c2.961,0.74-0.18,7.351,0,10
			c0.19,2.65-2,9-2,9s-0.13,9.29-4,10l9,19c0,0,12.041-6.04,22,0V172.774z"/>
		<path style="fill:#FFFFFF;" d="M707.559,161.774c0,0-7.1,11.16-14,15l1,8c0,0,5.721,4.439,4,9c-1.71,4.562-17,4-17,4l-15,1
			c0,0-8.67,0.671-13-2c-4.319-2.67-4-12-4-12l-11,1c0,0-13.409-4.1-14-8c-0.58-3.899,5.86-7.579,15-7c9.15,0.58,22.44,3.65,31,0
			c8.57-3.649,13.82-8.93,18-9C692.749,161.704,699.759,152.195,707.559,161.774z"/>
		<path style="fill:#FFFFFF;" d="M720.559,105.774l-3,5l-5-1l4-5C716.559,104.774,720.079,103.274,720.559,105.774z"/>
		<path style="fill:#FFFFFF;" d="M708.559,113.774c0,0-6.3-2.59-10-1c-3.689,1.591-6.51,4.029-2,4
			C701.079,116.745,707.979,116.755,708.559,113.774z"/>
		<path style="fill:#FFFFFF;" d="M664.559,98.774c0,0,9.511,7.95,8,16c-1.5,8.051-14.13,7.46-18,2
			C650.699,111.314,656.729,99.345,664.559,98.774z"/>
		<path style="fill:#FFFFFF;" d="M633.559,106.774c0,0,8.54,4.601,9,9c0.471,4.4-3.05,15.051-13,9c-9.939-6.05-3-11-3-11
			L633.559,106.774z"/>
		<path style="fill:#FFFFFF;" d="M623.559,120.774c0,0-5.539,0.972-6,7c-0.449,6.029-6.43,6.222-9,5c0,0,2.221-0.329,3-6
			C612.349,121.104,619.579,114.365,623.559,120.774z"/>
		<path style="fill:#FFFFFF;" d="M670.559,155.774c0,0-4.06,0.812-8,0c-3.93-0.811-4-4-4-4l1-2
			C659.559,149.774,669.039,153.304,670.559,155.774z"/>
		<path style="fill:#FFFFFF;" d="M647.559,201.774c0,0,5.271,10.312,4,16c-1.26,5.689-8.659,14.24-17,14
			c-8.33-0.239-20.949-4.149-20-18c0.961-13.85,21-18,21-18l4-9h4l-5,11C638.559,197.774,646.419,197.804,647.559,201.774z"/>
		<path style="fill:#FFFFFF;" d="M663.559,207.774l-8-2l-6-5l2-8c0,0,1.7,2.54,2,2c0.311-0.54-1,5-1,5
			S662.809,205.445,663.559,207.774z"/>
		<path style="fill:#FFFFFF;" d="M676.559,195.774c0.061-0.35,0,10,0,10s16.761,2.312,17,2c0.25-0.311-0.449-3.46-5-4
			c-4.539-0.54-8-2-8-2v-6C680.559,195.774,676.509,196.124,676.559,195.774z"/>
	</g>
	<path style="fill:#FEF8C9;" d="M669.559,167.774c0,0,12.99,10.74,13,13c0.021,2.261,0,19,0,19l-6-1c0,0-1.3-13.829-2-14
		c-0.689-0.17-17.479-11.869-18-14c-0.51-2.13-1-3-1-3H669.559z"/>
	<path style="fill:#7C4697;" d="M722.039,107.604c-1.89,1.16-2.15,2.971-3.08,5.529c-0.69-1.969-2.25-3.08-4.6-3.379
		c0.489-1.76,1.239-3.26,2.149-4.61C718.869,105.225,721.199,105.335,722.039,107.604z M711.899,110.984
		c2.42,0.311,5.399,1.16,6.76,3.381c2.8-1.091,2.04-5.74,5.22-6.449c-0.83-2.75-3.7-4.41-6.76-4
		C714.109,102.484,713.489,108.324,711.899,110.984z"/>
	<path style="fill:#7C4697;" d="M665.509,109.445c0.55-0.62,0.771,1.67,1.851,1.539c0.89-0.648,1.189-1.88,2.449-2.148
		c0.131-1.261-1.01-1.25-0.609-2.771c-0.74-0.189-1.4-0.439-2.46-0.31c-0.55,1.779-3.2,2.149-2.761,4
		c-0.31,0.51-1.42,0.22-1.539,0.92C663.409,112.554,666.099,110.064,665.509,109.445z"/>
	<path style="fill:#7C4697;" d="M661.829,110.365c-0.73,0-0.91,0.529-1.851,0.311c0.15,2.189-2.09,2-2.449,3.689
		c0.02,0.899,0.699,1.141,1.229,1.529c0.69-0.431,1.98-0.271,1.84-1.529c1.16,0.391,3.271,0.029,2.761-2.15
		C661.519,112.294,662.749,111.204,661.829,110.365z"/>
	<path style="fill:#7C4697;" d="M695.919,114.365c3.04-0.199,6.08-2.011,9.84-1.23c1.34-0.01,1.54,1.121,3.07,0.92
		c-0.37-2.68-5.36-2.688-8.3-2.459c-0.681,0.061-0.95,0.771-1.53,0.92C697.419,112.945,695.469,112.155,695.919,114.365z"/>
	<path style="fill:#7C4697;" d="M638.479,118.054c1.711,0.171,2.15-0.92,3.07-1.539c-0.43-1.211-0.82-2.45-2.149-2.77
		C637.879,115.074,637.589,115.695,638.479,118.054z"/>
	<path style="fill:#D4EDFC;" d="M695.559,117.774c0,0-20.449,5.98-24,12c-3.539,6.021-3.439,32.83-1,37l-16-1c0,0-1.83-33.159,6-38
		c0,0,3.44-5.43,9-6c5.561-0.569,25-7,25-7L695.559,117.774z"/>
	<path style="fill:#7C4697;" d="M632.029,120.505c0.069,0.99-0.54,1.299-0.311,2.459c1.76,1.131,3.181-0.129,4.61-0.92
		C636.439,119.564,633.869,120.365,632.029,120.505z"/>
	<path style="fill:#7C4697;" d="M720.189,121.734h-1.23c-0.04,6.79-2,11.41-4.3,14.75c3.41,2.03,3.33-3.84,4.3-7.06
		C719.549,127.464,721.539,124.274,720.189,121.734z"/>
	<path style="fill:#7C4697;" d="M647.699,124.814c-1.431,1.79,2.529,3.37,3.99,4.301c1.31,0.641,1.449,2.438,3.689,2.149
		c0.51-1.84-1.1-1.561-1.85-2.149C651.869,127.394,649.079,126.804,647.699,124.814z"/>
	<path style="fill:#7C4697;" d="M641.549,126.655c-0.24,0.06-0.3,0.31-0.609,0.31c-2.44,3.211-3.25,8.24-3.381,12.601
		c-0.109,3.881,0.381,7.86,0.92,11.979c0.221,1.66-0.72,4.471,1.54,4.61c1.58-1.149-0.109-2.83-0.31-4
		c-1.46-8.431-0.04-17.83,1.54-24.58C641.609,127.524,641.499,127.015,641.549,126.655z"/>
	<path style="fill:#7C4697;" d="M737.089,138.945c1.19,3.63,6.561,3.069,10.14,4.301c0.791,0.26-0.6,1.35,0.302,1.85
		c0.66-0.37,1.68-0.381,1.85-1.229c-1.07-3.24-6.09-2.521-9.22-3.689C739.619,139.284,738.738,138.725,737.089,138.945z"/>
	<path style="fill:#7C4697;" d="M655.069,153.695c-0.25,0.159-0.5,0.319-0.92,0.311c0.26,2.539-1.551,9.89,0.609,12.289
		C655.609,163.564,655.069,157.604,655.069,153.695z"/>
	<path style="fill:#FFCAE4;" d="M642.559,123.774l13,9l-1,14l4,3l-1,4l-4-2v14c0,0-7.289-2.721-9-3
		C642.859,162.495,635.929,141.324,642.559,123.774z"/>
	<path style="fill:#7C4697;" d="M742.919,154.925c-0.16,1.6,2.431,0.449,2.771,1.539c2.67,1.42,3.198,4.99,6.448,5.83
		c0.78-1.33-0.6-1.039-1.229-1.84c-1.091-1.38-2.521-3.709-3.99-4.91C746.229,154.975,744.249,153.675,742.919,154.925z"/>
	<path style="fill:#D4EDFC;" d="M673.559,145.774l-3,2l-5-4l1-4C666.559,139.774,671.039,144.995,673.559,145.774z"/>
	<path style="fill:#7C4697;" d="M640.329,156.765c-0.61,1.74,0.2,3.42-0.62,5.23C642.289,162.214,641.289,157.524,640.329,156.765z"
		/>
	<path style="fill:#7C4697;" d="M641.249,163.225c4.51-1.091,7.37,2.55,11.67,1.53c0.45-1.711-2.61-1.431-4.3-1.84
		C646.029,162.284,642.219,159.495,641.249,163.225z"/>
	<path style="fill:#7C4697;" d="M654.149,193.644c-0.671,0.04-0.66,0.771-0.62,1.54
		C654.159,194.954,654.789,194.255,654.149,193.644z"/>
	<path style="fill:#FEF8C9;" d="M641.559,162.774c0,0-1.859,12.71,9,18v13l3,1l6-15l-5-14L641.559,162.774z"/>
	<path style="fill:#7C4697;" d="M734.318,127.265c-0.061,0.529,0.53,0.8,0,0.931c1.42,1.899,8.091-2.421,10.141,0.92
		c0.5-0.431,1.58-0.261,1.84-0.92C744.389,124.845,737.889,126.945,734.318,127.265z"/>
	<path style="fill:#7C4697;" d="M681.789,204.704c-1.7-0.91-0.9-2.459-1.22-4.609h-2.771c0.5,1.141,0.26,3.021,0.311,4.609
		c0.409,0.311,1.14,0.291,1.229,0.92c5.21-1.141,9.82,2.221,14.13,0.93C690.839,205.044,684.809,202.854,681.789,204.704z
		 M635.099,201.945c1.16-1.351,2.801-3.699,2.771-5.23h-1.54c-1.08,5.23-4.14,8.031-6.14,12.91
		C633.499,208.734,634.769,205.804,635.099,201.945z M652.919,201.015c-1.09-2.051-0.05-5.109-1.84-7.061
		c-1.54,2.069,0.46,5.271-0.62,7.99c2.63,1.409,3.68,2.5,5.22,4.909c3.3-0.43,4.47,1.271,6.761,1.851
		c-0.851-3.76-4.74-4.479-6.45-7.38C654.879,201.144,654.439,201.245,652.919,201.015z M653.529,195.184
		c0.63-0.229,1.26-0.93,0.62-1.54C653.479,193.684,653.489,194.415,653.529,195.184z M693.769,176.434c0.44-0.739,2.78-2.45,4-2.46
		c0.23-1.29-1.18,0.42-1.229-0.921c4.49-2.709,9.81-6.108,9.83-12.289c-2.58-0.561-3.55-2.95-6.141-3.069
		c-3.699-0.181-7.399,3.449-10.449,4.6c-2.5-0.34-3.23,1.08-5.53,0.931c-1.5,1.561-3.11,3.03-4.91,4.3
		c0.01,0.931,0.18,2.021-0.92,1.841c-1.21,0.5-0.11-1.32-0.93-1.23c-1.28,0.67-1.811,2.08-3.38,2.461
		c3.33,0.689,4.779,5.029,8.609,6.15c0.771,5.709,2.53,13.608,0.92,19.969c5.32-0.17,13.4-0.549,15.36-5.84
		c-0.35-1.771-0.79-3.25-0.92-3.99c-0.7-1.049-2.59-0.899-3.38-1.84c0.1-2.18-1.16-3.939-0.931-7.069
		c-2.649,1.561-5.64,3.05-8.6,3.681c-0.13-2.69,3.61-1.511,4-3.681C691.619,178.574,692.529,176.024,693.769,176.434z
		 M723.879,185.044c-2.79-5.1-5.17-10.609-7.68-15.979c-8.88,0.95-9.54,10.641-9.22,18.432c0.8-0.182,1.109,0.129,0.93,0.93
		c1.03-0.2,0.75-1.711,1.84-1.851c0.74-6.659,2.44-9.841,5.53-14.44h1.84c0.18,1.861-2.3,4-3.38,4.611
		c-1.04,3.559-2.46,6.76-2.46,11.369c1.26-4.79,2.99-9.101,8.3-9.841c0.08,1.62-1.19,1.892-2.46,2.16
		c-6.46,5.021-3.24,17.949,1.84,22.431c5.48,2.52,17.75,1.59,19.66-4.301c0.949-2.92,2.529-6.04,2.15-10.14
		c-0.262-2.871-2.182-6.15-3.07-8.61c-2.12-1.46-4.62-2.55-7.062-3.689c-2.17,0.08-3.71-0.109-4.92,0.311
		c2.2,2.55,4.21,7.851,5.841,11.99c-0.051,0.67-0.779,0.66-1.539,0.609c-5.33-13.9-12.291-24.779-18.121-40.561
		c-0.931,0.09-1.101,0.95-2.46,0.61c4.92,14.64,12.29,26.84,17.819,40.869c-0.05,0.569-1.04,0.189-1.229,0.62
		c-0.94-1.471-2.15-4.141-1.84-5.841C724.02,184.265,723.869,184.714,723.879,185.044z M686.099,140.794
		c1.36-4.949-4.92-3.279-7.38-2.16c0.45,0.48,1.24,0.611,0.92,1.852C682.359,140.695,683.589,140.684,686.099,140.794z
		 M711.899,136.794c-2.61-2.449-5.94-0.689-8.91,0.621c-6.23,9.25,11.92,15.159,11.37,3.989
		C712.989,140.134,713.209,138.034,711.899,136.794z M700.529,132.794c-2.811-0.24-3.11,2.01-4.91,2.771
		c1.22,1.95,3,3.352,4.3,5.229c1.21-1.149,0.43-4.289,2.46-4.609C701.389,135.425,701.059,134.015,700.529,132.794z
		 M710.059,134.024c1.28-1.8-2.02-3.02-1.229-4.3c-1.4-0.97-2.82,0.659-4,0.92c0.6,1.149,1.3,2.19,1.85,3.38
		C708.069,133.265,708.499,133.684,710.059,134.024z M701.449,145.394c-1.98-3.54-4.811-6.239-7.681-8.91
		c0.051-2.609,2.641-2.689,3.381-4.609c1.54,0,1.979-1.101,3.689-0.92c0.75,1.609,1.811,2.899,2.76,4.301
		c0.551-0.371,1.62-0.221,1.851-0.92c-1.01-1.24-1.91-2.602-2.15-4.61c1.72-0.83,3.01-2.109,5.83-1.841
		c0.3,0.562,0.76,1.42,1.54,0.611c-0.34,1.329,2.3,4.789,0,6.148c2.81,0.569,2.88,3.88,5.53,4.61c0.33,4.529-0.16,8.24-3.69,8.91
		c3.69,7.068,6.7,14.26,10.75,21.51c6.841-0.74,13.97,0.74,19.05,2.77c0.291-1.649,0.5-3.641,0-5.229
		c-2.979-0.699-5.108-3.25-8.6-3.379c-4.03-0.15-7.939,1.479-11.67,1.539v-1.539c6.41-1.5,15.311-2.75,19.35,1.85
		c0.34-0.79,0.211-2.051,1.84-1.54c0.66,2.729,1.98,8.21-0.608,9.83c-4.68-0.63-12.881-4.671-18.74-2.149
		c0.65,0.79,1.101,1.761,1.53,2.771c6.12-0.291,10.78,1.64,14.14,4.91c3.65,6.31,3.48,17.149-0.62,22.438
		c-4.869,4.421-17.898,5.689-23.04,0.609c-0.489-1.619-0.869-1.59-1.84-2.459c-0.75-3.74-2.819-7.51-2.46-11.37
		c-1.609,0.479-2.01,0.8-4.3,0.92c-0.479-0.439-0.82-1.021-1.53-1.22c-1.56-8.541,0.32-18.061,7.681-20.291
		c1.25-0.289,1.96,0.761,2.76,0c-2.25-3.379-3.83-7.439-5.22-11.67c-1.95,2.961-2.561,7.271-4,10.75c-0.761,0.4-1.49-0.68-1.53,0
		c-1.66,3.15-3.49,4.439-6.45,6.461c0.81,0,1.92-0.291,1.53,0.92c-2.05,0.3-4.44,1.55-6.141,3.07c1.141,1.83,1.36,4.58,2.15,6.76
		c3.28,0.3,3.479,3.689,4.3,6.449c-2.08,7.051-10.64,7.211-17.2,7.381c-0.1,1.119,0.051,2,0.311,2.76
		c-0.21,0.93-1.771,0.49-1.851,1.539c3.28-0.119,8.771,0.73,11.98,2.461c0.51,1.101,0.43,2.96-0.311,3.689
		c-5.21-0.59-11.729-1.521-17.5-2.459c0.19-1.861,0.431-3.66,0.301-5.842c-1.061,0.102-1.761-0.81-3.07-1.229
		c-2.58,1.05-4.9,1.75-7.68,1.84c-2.351,0.09-4-1.07-6.141-1.53c-1.609-0.351-4.529,0.7-4.92-1.851c1.21-2.1,2.811,1.021,4.92-0.299
		c3.57,3.699,11.23,0.41,15.66,0.608c-0.9-3.97,0.25-7.67-0.92-11.68c-3.52,0.689-12.01,0.63-15.66-0.301
		c-1.29,4.74-2.229,10.66-5.529,11.67c1.079,0.451-0.04,1.48,0.609,2.16c5.45,1.32,7.76,5.03,10.44,7.979
		c-0.38,0.95-0.25,2.42-1.53,2.46c-2.2,0.11-4.26-2.47-7.68-2.148c-1.46-1.58-3.681-5.44-6.141-3.99
		c0.9,0.529,0.641,2.22,1.84,2.459c4.36,10.23-1.159,19.461-7.68,23.961l1.1-0.34c-2.579,1.68-5.939,2.859-10.27,2.689
		c0.4-0.16,0.79-0.32,1.18-0.5c-5.989-0.851-13.01-0.08-16.59-4.301c-1.96,0.051-3.92-3.13-4.6-4
		c-3.271-4.17-2.17-13.279-0.311-17.511c1.23-0.329,1.71-2.369,2.761-3.688c1.05-0.699,2.069-1.421,2.46-2.771
		c4.52-2.85,9.31-5.43,16.59-5.53c1.38-1.931,1.04-5.72,3.99-6.761c0.59,2.142-3.131,5.541-1.53,7.682
		c2.439-2.461,1.689-6.271,5.22-7.682c0.17,2.861-2.64,5.33-3.38,8.301c2.95,0.42,6.47,2.12,7.68,5.221
		c-2.89,0.101-4.67-3.5-7.989-3.989c-1.351,4.109-4.07,8.02-4.601,11.979c-2.21,0.46-4.189,3.37-6.46,1.841
		c1.53-5.96,4.66-8.79,6.46-14.739c-6.49,0-10.16,2.52-14.14,4.299c-3.48,3.74-7.931,9.451-7.37,16.281
		c0.2,2.329,1.75,4.229,1.229,6.459c0.841,0.021,0.62-0.521,1.23,0c2.21,4.311,6.859,6.439,11.37,7.061
		c2.1,0.3,4.739,0.939,6.75,0.931c6.71-0.062,10.189-2.96,13.21-6.761c2.79-3.52,4.46-9.52,3.38-13.83
		c-0.93-3.729-5.84-8.699-0.61-10.449c-1.09-2.08-0.319-6.521-2.149-8.61c2.08-0.68,3.77,1.51,5.529,2.16
		c0.07-0.539,0.53-0.699,1.23-0.619c1.41-4.311,2.04-7.601,4.3-12.601c0.83-0.221-0.22,1.449,0.61,1.229
		c0.16-0.76,0.13-1.41,1.229-1.84c-0.939-0.08-1.38-0.67-2.149-0.92c-0.36-2.65-3.57-3.97-3.99-5.529
		c2.92,0.149,4.899,3.89,7.06,5.83c-0.13,2.89-2.3,3.529-2.149,5.84c3.989-0.891,9.68,0.709,14.13-0.609
		c-1.311,0.079-1.59-0.87-1.84-1.852c-4.28-1.949-7.771-4.688-12.29-7.06c0.46-1.46-1.86-2.051-2.761-3.079
		c0.33-1.23-1-2.371,0.301-2.761c3.619,6.14,8.859,8.05,15.67,11.67c0.27,2.05,2.069,3.279,3.38,3.39
		c-0.32,0.91-0.23,2.221-0.92,2.76c2.43,2.201,0.09,8.011,1.84,10.761c1.67-0.359,4.28,0.271,5.53-0.31
		c0.96-5.801-0.19-14.021-0.62-19.67c-3.19-3.461-7.641-5.67-10.44-9.521c3.11,3.171,3.69-3.14,7.07-2.148
		c1.33-1.642,3.34-4.381,5.22-5.23c2.7-1.229,6.86-0.409,7.061-1.84c4.939-3.859,12.069-5.25,16.899-0.62
		c0.74,1.44-0.76,1.811,0.311,2.46c1.66-4.471,3.39-8.51,0-12.29c-3.511-0.04-3.891-1.33-6.15-2.46
		c-3.34,3.42-9.38,4.351-12.59,7.07c-1.69,0.039-3.311,0.029-4.61-0.311c-2.569-3.381-8.899-3.54-11.979-5.529
		c-0.88,0.148-1.12,0.93-1.84,1.229c-1.92-0.659-3.681-2.71-4.311-3.689c-2.99-2.021-6.12-3.9-7.37-7.681
		c0.681-0.27,1.66-0.289,2.15,0c0.5,3.642,6.85,6.37,9.53,9.83c0.93-0.699,1.739-1.529,2.76-2.149c-2.42-0.75-3.96-2.391-6.141-3.38
		c-0.859-1.351-2.159-3.409-3.689-5.221c-0.86-1.02-4.95-3.739-1.23-4.608c2.32,5.568,6.62,9.148,11.37,12.289
		c0.42-0.71,0.54-1.71,1.841-1.539c0.869,1.34-1.4,1.76-1.23,3.379c2.43,1.131,5.55,3.471,9.83,3.689
		c-0.8-2.079,0.83-1.06,1.229-2.46c-3.1-0.989-8.88,1.271-9.52-3.38c3.37,2.45,10.03-0.229,11.979,3.69
		c2.08-1.4,5.181-1.781,6.761-3.69c-1.88-0.88-2.021-3.521-3.38-4.91c-1.15,0.641-3.32,0.301-4,0.61
		c0.649,0.68,0.25,2.05-0.301,2.459c-2.64-0.6-4.409-0.659-7.38-0.31c-1.45-1.011-2.359-2.551-2.149-5.221
		c3.34-0.659,5.14-1.229,9.22-1.229c0.63,0.5-0.01,2.271,0.61,2.76c1.579-0.469,3.72-0.379,5.529-0.609
		c0.311,2.771,1.67,4.48,2.771,6.45c0.939-0.8,3.26-3.921,3.989-1.229c-3.829,3.139-9.05,6.43-13.529,6.739
		c-0.141-0.04-0.34-0.03-0.601,0.021c0.2,0,0.4-0.01,0.601-0.021c0.979,0.25-0.38,2.38,0.319,2.479
		C691.929,150.615,697.509,148.824,701.449,145.394z"/>
	<path style="fill:#7C4697;" d="M655.379,105.144c0.21,3.34,0.271,8.641-0.62,11.061c-8.729,1.561-7.45-10.209-5.83-15.979
		c3.87-5.819,13.82-4.75,17.811,0.62v2.459c0.8,0.551,0.93-0.139,1.85,0.301c1.67,2.351,3.811,8.54,1.53,12.29
		c-0.33,0.551-0.66-0.029-1.23,0.62c-0.369,0.42-0.189,1.431-0.3,1.539c-0.6,0.562-0.38-0.409-1.229,0
		c-1.04,0.49-1.62,1.941-3.08,2.15c-2.55,0.359-4.46-1.38-7.67-0.619c2.21,2.949,7.46,2.569,10.75,1.539
		c1.77-2.021,3.8-3.771,5.22-6.149c0.4-5.87-0.66-8.91-2.771-12.601c-0.939,0.229-0.899-0.529-1.84-0.3
		c-1.14-6.341-7.91-8.641-13.21-7.69c-0.83,0.15-1.6,1.121-2.76,1.541c-1.54,0.561-3.84,1.779-4.92,3.689
		c-2.28,4.061-1.23,14.149,0.31,16.279c1.42,1.971,5.69,2.739,8.91,1.54c0.97-2.41,1.17-7.471,0.61-11.37
		c2.78-0.33,6.14-2.369,9.22-3.38c0.02-0.489-0.15-1.17,0.3-1.229c-2.6-1.141-5.3,2.87-8.899,2.149
		C656.959,104.835,656.509,105.005,655.379,105.144z"/>
	<path style="fill:#7C4697;" d="M636.329,114.975c0.53-0.63,2.17-2.16,2.46-3.989c4.72,2.101,3.02,7.239,2.46,11.979
		c-1.19,0.391-2.1,0.371-1.54,1.851c-4.43,1.561-9.17,0.932-11.37-2.148c2.79-1.761,5.63-4.642,9.22-4.611
		C638.669,116.294,636.559,116.284,636.329,114.975z M635.099,113.445v3.68c-3.359,0.43-4.52,3.061-7.68,3.689
		c1.021-4.72,5.37-6.109,7.38-9.83c1.25,0.229,1.05-0.988,2.45-0.619C637.209,112.064,636.229,112.824,635.099,113.445z
		 M620.969,107.604c0.561,1.4-1.22,2.23-1.84,3.38c-0.31,2.03-0.38,3.979,0,6.141c-2.52,0.109-7.79,0.17-8.91,4
		c-1.29,4.399,0.9,11.59-4.609,11.67c0.689,1.931,3.08,0.83,3.689,0.311c2.72-2.29,1.86-8.729,2.76-12.6
		c1.83-1.301,4.75-2.26,7.681-1.53c-0.04,1.471,0.239,2.63,1.229,3.069c-4.84,1.61-3.189,9.721-6.76,12.601
		c-2.15,0.149-4.12-0.261-5.52,0c2.319,2.75,7.329,1.061,8.6-1.229c1.32-2.41,0.81-6.551,2.45-8.91
		c0.359-0.521,1.25-0.521,1.229-1.541c1.22,0.32,1.021,2.062,2.46,2.15c0.05-0.57,1.04-0.181,1.23-0.609
		c-2.811-3.19-5.28-8.51-4-12.601c1.53-4.881,7.41-6.29,11.989-7.681c2.641,0.53,3.54,2.8,6.141,3.38c-2,1.83-5.17,1.79-6.76,3.381
		c-2.65,3.46-5.58,6.601-7.37,10.14c0.29,0.631,0.63,1.211,0.92,1.84c0.939-0.08,1.38-0.66,2.149-0.92
		c0.9,0.94-1.199,0.601-1.229,1.541c2.09,3.27,6.58,3.649,10.45,4.299c0.16-0.25,0.319-0.5,0.3-0.92c2.87-0.1,4.1-1.85,5.53-3.379
		c1.16-3.83,1.91-10.041-1.23-13.221c-1.37,0.46-0.939-0.9-2.149-0.609c-0.41-0.041,0.449-1.371,0.619-1.84
		c-1.5-2.611-4.22-3.98-6.76-5.541c-3.34,0.76-6.6,1.59-9.22,3.08C623.659,106.804,622.479,107.365,620.969,107.604z"/>
	<path style="fill:#7C4697;" d="M670.429,121.124c2.88,2.979,7.141-0.699,10.44-1.851c4.28-1.479,8.859-2.54,12.29-4.3
		c1.02,0.63,1.43,1.851,1.54,3.38c-4.44,1.04-7.23,1.812-9.83,4.609c-5.811-0.89-7.08,2.761-11.061,3.69
		c-0.26,1.319-0.92,0.869-1.229,2.46c-0.101,0.42-0.771,0.25-1.23,0.311c-0.27,1.43-1.96,2.99-2.46,5.22
		c-0.37,1.7-1.35,6.45,1.851,6.149c-1.38-6.069,1.81-10.021,4.3-13.22c0.93,0.38-0.34,1.06,0,1.851c1.08-0.19,2.15-1.541,1.53-2.461
		c2.409-0.56,3.3-2.649,6.149-2.771c0.9,0.271-0.93,0.25-0.31,1.23c5.24-1.98,7.35-5.44,14.13-5.53c0.43-0.39,0.189-1.45,0.61-1.841
		c3.409-0.25,8.56-0.42,11.68-1.229c-4.13-2.37-9.97,0.359-13.21,0c-0.58-1.021-0.66-1.61,0-2.46c0.05-0.359-0.07-0.551-0.311-0.619
		c-7.649,0.449-14.06,4.778-21.199,6.76C672.209,120.425,671.509,120.095,670.429,121.124z"/>
	<path style="fill:#7C4697;" d="M710.669,119.274h-1.229c1.409,2.08,2.51,4.46,4.92,5.54c-0.381,3.58-1.12,7.221-1.54,10.141
		c2.7-2.601,3.17-9.021,3.689-11.99c0.931-1.219,1.28-3.02,2.15-4.299c0.14,0.449,0.33,2.188,1.229,2.77
		c0.7-1.34,0.261-4.16-1.229-4.311c-1.72,1.16-3,2.74-3.08,5.541c0.01,0.93-1.54,0.289-1.53,1.219
		c-0.95-0.889-0.82-2.869-2.46-3.069c0.61-1.75,0.91-5.08,3.38-5.84v-2.149c-2.81-0.92-1.109,2.421-3.38,2.771
		C712.019,117.634,709.089,117.915,710.669,119.274z"/>
	<path style="fill:#7C4697;" d="M670.739,156.155c-1.601,1.56-1.73-0.852-3.69-0.61c-0.22,0.931,0.311,1.11,0.311,1.84
		c-3.65-1.06-7.03-2.398-9.221-4.92c1.83,0.291,1.16-1.91,2.46-2.149C662.799,153.434,668.239,153.324,670.739,156.155z
		 M643.399,138.945c-0.101,2.76,3.09,2.229,3.38,4.608c2.91-0.659,2.89,3.99,6.14,4c0.76,0.261,0.91,1.131,1.54,1.531
		c1.51-0.521,3.08,0.819,4.6,1.229c-0.619,0.399-0.77,1.271-1.529,1.54c-2.03-0.229-3.631-0.88-4.301-2.46
		c-3.859,0.649-6.68-5.261-9.529-3.689c-0.11,1.141,1.18,1.811,1.85,1.229c1.771,2.24,5.85,3.75,7.98,4.609
		c0.42,0.201,0.58,0.66,0.619,1.229c5.771,1.021,8.5,6.271,14.131,6.45c0.51,1.63,0.399,4.931,1.84,6.46
		c-4.46,0.63-10.63,1.369-15.971,1.23c1.801,2.959,11.45,0.938,15.051,0.299c0.979,0.051,1.35,0.701,2.46,0.621
		c-0.101-3.291-2.12-4.65-1.851-8.301h-0.92c-0.04-0.55,0.38-0.65,0.311-1.23c0.54-0.489,1.64-0.409,2.46-0.608
		c0.72-1.562-0.681-2.779-1.851-3.381c0.49-0.79,0.49-3.21,0-4c-0.89,0.33-0.989,1.46-0.92,2.771
		c-4.989-1.881-9.449-3.98-13.819-7.07c1.2-4.279,1.22-11.711,3.689-16.29c0.54-1,1.86-1.271,1.84-2.761
		c-4.09-0.279-4.609,6.561-5.84,9.221c-2.46-2.76-5.72-4.729-8.29-7.381c-0.76,4.171,5.551,3.861,6.141,7.682
		c0.699-0.29,1.01,0.359,1.85,0.31c0.22,3.44-0.7,7.141-0.93,9.83C650.909,145.644,647.649,140.314,643.399,138.945z"/>
	<path style="fill:#7C4697;" d="M648.929,191.495h0.92c1.011-1.99,0.391-5.24,0.92-8.301c0.21-0.711,1.61-0.23,1.23-1.54
		c-0.34-1.399-2.4-1.08-3.07-2.149c-0.939-1.721-2.08-3.25-4.31-3.681c0.25-1.28-1.021-0.931-1.53-1.54
		c-2.11-2.511-1.61-6.431-3.38-9.221c-1.4,1.21-0.061,4.521,0.31,5.229c-5.52,0.36-13.85-3.061-16.279,2.451
		c-1.011,2.289,0.069,4.438-0.62,7.379c4.84,7.051,16.1,6.78,24.88,6.141c-1.74-2.43-6.311-0.95-10.13-1.221
		c-3.851-0.279-7.28-1.319-10.141-2.459c-3.14-1.781-3.02-6.34-2.149-9.531c3.8-3.25,7.81-1.609,13.21-0.92
		c1.14,0.32,0.6-1.039,1.229-1.229c1.71,4.74,5.99,6.91,9.21,10.141C649.989,184.975,647.829,188.134,648.929,191.495z"/>
	<path style="fill:#7C4697;" d="M675.039,192.725c-2.46-1.62-7.1,0.28-10.45-0.31c-1.29-0.23-2.32-1-3.38-1.541
		c-0.51-1.039,0.68-1.879-0.92-1.84c-0.07-0.92,1.14-1.039,0.31-1.84c-1.069-0.25-1.18,0.449-2.149,0.301
		C657.399,194.115,669.209,195.934,675.039,192.725z"/>
	<path style="fill:#D4EDFC;" d="M666.559,99.774l-11,5v11c0,0-5.699,2-8-9C645.269,95.774,660.819,93.335,666.559,99.774z"/>
	<path style="fill:#FFCAE4;" d="M638.559,107.774c0,0-11.68,6.062-14,15c0,0-7.81-10.02-1-15
		C630.379,102.794,635.369,103.595,638.559,107.774z"/>
</g>
<g>
	<path style="fill:#E3F0DF;" d="M166.889,282.814c0,0-15.59-11.8-10.95-22.64c4.68-10.92,21.92-20.18,32.8-13.49
		c10.95,6.74,17.58,12.41,12.64,28.66c-4.88,16.09-25.26,11.22-25.26,11.22l0.42-5l-7.21-0.068
		C169.329,281.495,168.719,284.554,166.889,282.814z"/>
	<g>
		<path style="fill:#7C4697;" d="M194.069,204.314c1.03,0.33,2.35,0.5,2.15,1.551C195.329,205.445,193.899,205.345,194.069,204.314z
			"/>
		<path style="fill:#7C4697;" d="M173.829,311.695l-0.58-0.181c-1.7-0.631-0.1-3.01-1.41-3.85c0.51-0.24,0.53-1.371,1.29-1.17
			c0.26-7.791,1.19-18.432,4.09-26.091c1.09,1.851-0.16,4.148-0.52,6.148c-1.46,8.25-2.3,17.541-2.62,24.281L173.829,311.695z"/>
		<path style="fill:#7C4697;" d="M169.569,281.624l0.58,0.17c-0.64,6.939-1.87,15.359-2.66,22.359c-0.25,2.262,0.2,5.69-1.98,6.86
			c0.56-9.25,1.98-19,3.6-28.899C168.629,281.704,169.469,282.034,169.569,281.624z"/>
		<path style="fill:#7C4697;" d="M193.929,290.064c0.5-3.279,4.63-3.92,7.061-5.239c3.12-5.409,4.96-13.261,3.729-19.11
			c-0.27-1.31-1.26-2.85-1.939-4.42c-1.82-4.18-2.2-6-6.601-9.59c-2.81-2.3-4.149-4.561-7.41-5.619
			c-5.54-1.801-17.72-0.73-22.29,2.06c-2.32,1.431-5.76,5.149-7.9,7.899c-0.95,1.229-2.2,2.939-2.68,3.971
			c-4.74,10.199,1.61,14.33,4.83,20.57c1.49,0.789,1.38-1.312,2.73-0.761c-0.67,1.13-1.52,1.931-2.56,2.38
			c-2.35-0.609-2.26-3.369-3.48-5.41c-1.19-2.01-3.35-3.459-4.05-5.58c-1.26-3.84,0.14-8.709,1.86-13.279
			c3.73-4.149,7.21-8.79,11.54-11.93c6.56-0.951,15.46-4.021,23.54-0.78c4.74,1.899,6.95,6.46,11.01,8.891
			c1.69,3.729,3.32,7.489,5.17,11.131c-0.17,6.1,0.68,15.858-4.57,20.809c-1.2,1.142-4.29,1.48-5.9,2.4
			C195.139,288.964,195.109,290.195,193.929,290.064z"/>
	</g>
</g>
<g>
	<path style="fill:#E3F0DF;" d="M1350.399,349.995c0,0-15.852-5.82-14.712-15.941c1.142-10.18,13.021-22.119,23.642-19.358
		c10.699,2.779,17.58,5.77,17.64,20.391c0.061,14.529-18,15.67-18,15.67l-0.92-4.25l-5.97,1.771
		C1352.079,348.274,1352.349,350.964,1350.399,349.995z"/>
	<g>
		<path style="fill:#7C4697;" d="M1353.108,278.784c0.931,0.01,2.051-0.181,2.149,0.721
			C1354.429,279.384,1353.229,279.655,1353.108,278.784z"/>
		<path style="fill:#7C4697;" d="M1363.429,372.214h-0.528c-1.57-0.1-0.852-2.489-2.142-2.85c0.36-0.33,0.09-1.271,0.771-1.301
			c-1.761-6.539-3.67-15.609-3.209-22.689c1.369,1.25,0.91,3.479,1.13,5.229c0.87,7.21,2.52,15.142,3.97,20.83L1363.429,372.214z"/>
		<path style="fill:#7C4697;" d="M1352.311,348.324l0.52-0.011c1.22,5.92,2.32,13.21,3.439,19.239
			c0.359,1.941,1.601,4.681,0.09,6.221c-1.869-7.84-3.149-16.311-4.311-24.93C1351.549,348.624,1352.339,348.684,1352.311,348.324z"
			/>
		<path style="fill:#7C4697;" d="M1374.561,349.134c-0.422-2.84,2.818-4.42,4.488-6.129c1.19-5.25,0.721-12.19-1.771-16.701
			c-0.561-1.01-1.771-2.02-2.72-3.139c-2.561-2.98-3.329-4.381-7.851-6.221c-2.88-1.181-4.56-2.699-7.5-2.75
			c-5.01-0.08-14.76,3.85-17.83,7.301c-1.56,1.75-3.47,5.68-4.54,8.488c-0.479,1.25-1.09,2.971-1.229,3.94
			c-1.369,9.629,4.91,11.439,9.141,15.779c1.42,0.28,0.8-1.431,2.062-1.32c-0.271,1.101-0.771,1.98-1.521,2.621
			c-2.101,0.09-2.71-2.211-4.229-3.601c-1.49-1.36-3.642-2.011-4.74-3.591c-2-2.851-2.062-7.229-1.771-11.439
			c2.04-4.351,3.75-9.039,6.54-12.72c5.16-2.421,11.71-7.181,19.171-6.551c4.369,0.37,7.329,3.562,11.279,4.529
			c2.33,2.641,4.62,5.32,7.069,7.851c1.41,5.061,4.58,12.891,1.521,18.301c-0.699,1.25-3.16,2.319-4.25,3.489
			C1375.27,347.915,1375.561,348.945,1374.561,349.134z"/>
	</g>
</g>
<path style="fill:#E3F0DF;" d="M496.419,255.774c0,0-13.57-9.71-11-21s11.51-24.721,26-22c14.49,2.722,20.23,6.58,22,16
	c1.771,9.421-2.38,26.851-23,30l3-8l-12-4L496.419,255.774z"/>
<path style="fill:#E3F0DF;" d="M562.419,269.774c0,0-27.03-5.649-27-27c0.03-21.35,14.44-35.891,24-41c9.56-5.108,41.48-3.438,41,21
	c-0.479,24.439-24,39-24,39l-1-19l-13,6V269.774z"/>
<g>
	<path style="fill:#7C4697;" d="M573.399,243.644h0.92c1.33,5.88,1.1,15.409,1.54,25.819c0.39,9.32,1.729,19.521,0,27.041
		c-2.07-1.59-0.761-3.211-0.61-5.53c0.17-2.72,0.12-5.58,0-8.3c-0.58-13.03-1.39-26.16-2.15-38.101
		C573.009,244.074,573.389,244.044,573.399,243.644z"/>
	<path style="fill:#7C4697;" d="M501.829,245.495c1.6,0.559,0.01,2.729-0.92,2.76c-0.76,2.42-2.88,3.47-3.38,6.149
		c-5.811,8.119-10.48,16.829-15.67,24.89c-0.07,1.41-0.601,3.41-2.46,2.771c1.109-5.05,4.51-7.79,6.149-12.3
		c1.351,0.33,0.8-2.18,1.84-1.221c1.66-5.22,6.24-10.149,8.602-15.68C498.399,250.874,499.009,247.074,501.829,245.495z"/>
	<path style="fill:#7C4697;" d="M535.009,243.034c0.46-3.431,0.22-8.271,0.3-12.601
		C533.269,231.835,533.269,241.354,535.009,243.034z M558.659,270.995c-1.561,1.879-6.91-0.682-8.601-1.841
		c-0.81-0.551-1.22-1.94-2.149-2.771c-2.23-1.959-5.431-3.239-7.07-5.219c-2.83-3.41-4.34-7.92-5.83-11.98
		c-4.479,7.601-14.939,9.23-25.5,10.75c-1.37,1.601-1.58,4.359-3.38,5.529c-1.59,4.851-4.5,10.781-7.68,12.91
		c-0.99,4.631-5.19,8.621-6.141,13.521c-2.25,0.801-0.909,3.36-4,3.38c1.11-3.229,3.16-5.938,4.61-8.909
		c4.15-8.521,10.34-16.16,14.44-25.199c0.63-1.142-0.44-0.801-0.311-2.15c4-1.26,3.18-8.859,7.68-8.6
		c-1.46,3.039-3.3,5.709-5.22,8.289c4.3-0.369,9.3-1.74,13.51-3.07c4.53-1.43,10.37-4.01,10.761-8.909
		c0.31-3.939-2.58-8.25-1.54-13.22c0.83-3.94,3.21-6,0.609-10.44c-3.279-5.64-14.06-9.71-21.5-10.761
		c-6.37-0.898-10.939-0.358-15.05,2.461c-4.04,2.771-8.54,10.07-10.439,15.67c-2.96,8.699,0.949,17.779,5.829,24.279
		c-1.1,0.44-1.97-0.67-2.76-1.539c-1.1-1.189-4.89-8-5.22-11.061c-1.11-9.99,3.21-20.109,9.52-26.119
		c2.061-1.961,5.261-5.511,9.521-5.841c3.75-0.29,8.35,0.359,12.59,1.54c4.06,1.119,10.08,1.801,12.6,3.989
		c1.261,1.101,1.511,1.939,3.07,3.07c1.24,0.899,2.04,2.51,3.38,3.379c-0.02,1.25,1,1.461,0.62,3.08
		c2.73-3.93,5.521-8.27,8.9-12.289c3.3-3.979,7.79-6.76,11.68-10.15c9.19-3.829,19.61-9.5,30.72-4.608
		c0.24,0.108,0.13,0.84,0.301,0.93c0.14,0.061,0.59-0.5,0.92-0.311c7.189,3.989,13.859,9.85,15.67,17.211
		c0.939,3.799-0.761,6.159-1.54,9.52c-0.41,1.811-0.2,3.771-0.61,5.539c-1.22,5.182-3.38,10.82-5.84,15.361
		c-1.66,3.06-4.54,6.549-7.061,9.219c-3,3.181-7.09,5.66-11.68,6.761c0.11-1.58,1.061-0.72,1.85-1.229
		c1.471-2.352,5.461-3.121,7.99-5.531c3.561-3.389,6.891-8.039,9.21-12.909c2.54-5.319,3.44-11.021,4.91-17.21
		c0.72-2.979,2.3-4.729,1.54-8.29c-0.58-2.71-2.46-6.37-3.99-8.609c-1.39-2.029-4.51-3.939-7.989-6.141
		c-1.45-0.921-2.66-2.37-4.61-3.08c-3.48-1.261-8.41-1.939-12.59-1.229c-9.96,1.699-20.271,7.76-27.34,15.06
		c-0.271,0.28,0.039,0.54-0.311,0.92c-2.229,2.479-8.51,10.051-8.91,12.909c-0.239,1.771,0.5,4.091,0.62,6.15
		c0.101,1.76,0.41,3.561,0.311,5.529c-0.17,3.102-1.91,6.881-1.23,9.521c0.54,2.109,2.38,4.33,3.68,6.76
		c1.11,2.07,1.721,4.08,3.07,5.539c1.07,1.142,3.09,2.541,4.61,3.682C550.919,266.964,553.839,269.184,558.659,270.995z"/>
	<path style="fill:#7C4697;" d="M535.309,230.434c-0.08,4.33,0.16,9.17-0.3,12.601C533.269,241.354,533.269,231.835,535.309,230.434
		z"/>
	<path style="fill:#7C4697;" d="M561.729,247.954h0.921c1.109,2.62,1.729,5,1.84,9.211c0.12,4.469-0.261,12.42,0,18.75
		c0.42,9.739,2.649,19.409,1.85,27.039c-0.27,1.43,1.01-0.209,0.92,0.62c0.01,1.449-0.42,3.72-1.54,3.069
		c-1.67-1.181-0.6-2.779-0.609-4.3c-0.04-7.479-1.71-16.939-2.15-26.74c-0.44-9.63,1.42-18.77-1.23-26.729V247.954z"/>
</g>
<g>
	<path style="fill:#E3F0DF;" d="M417.219,193.804c0,0-20.11,0.921-31.36-10.859c-11.24-11.789,2.44-42.819,7.56-49.18
		c5.12-6.35,27.15-25.03,51.21-14.131c24.061,10.9,28.311,31.771,20.75,52.08c-7.56,20.311-24.43,31.701-36.29,27.451l2.51-22.972
		l-10.84,7.16L417.219,193.804z"/>
	<g>
		<path style="fill:#7C4697;" d="M444.969,201.335c0.67-1.681,2.53-0.271,3.521-1.11c16.39-12.25,26.52-41.55,19.24-59.31
			c-1.101-2.69-3.25-4.381-3.9-7.15c-2.94-1.979-4.7-5.18-7.771-7.54c-13.989-10.779-36.58-12.739-48.09-6.22
			c-7.51,6.709-18.6,16.31-24.5,28.67c-3.14,6.58-6.06,14.939-4.81,20.72c1.1,5.04,2.67,6.729,6.149,11.19
			c3.61,4.619,7.12,8.719,15.09,11.52c2.78,0.98,5.86,0.771,8.64,2.551c-3.17,0.189-6.74-0.181-9.82-1.399
			c-6.79-2.681-10.92-6.211-14.66-10.99c-1.979-2.529-4.439-5.051-5.43-7.5c-1.11-2.77-2.32-9.551-2.03-11.35
			c0.63-3.861,3.9-12.341,5.59-15.65c2.86-5.58,6.61-11.881,10.4-15.85c1.95-2.041,5.08-3.94,7.53-6.361
			c2.89-2.85,5.53-6.17,8.439-7.639c17.01-8.57,40.99-1.341,55.86,13.76c4.36,6.5,6.48,13.859,7.99,21.449
			c-1.4,10.5-3.891,25.551-10.96,36.121c-1.94,2.879-5.05,5.549-7.602,8.02C451.359,199.665,448.389,203.374,444.969,201.335z"/>
		<path style="fill:#7C4697;" d="M421.209,183.544l0.84,0.381c-3.54,13.92-4.43,26.061-5.2,39.061c-0.3,5.13-0.649,11.3-3.88,17.101
			c0.05,1.039,2.28-0.431,1.44,1.319c-0.72,1.011-2.33,0.63-3.18-0.431c4.76-11.649,4.27-22.431,5.17-33.681
			c0.31-3.85,0.91-7.609,1.8-11.649C419.069,191.675,419.649,187.165,421.209,183.544z"/>
		<path style="fill:#7C4697;" d="M431.519,174.725c0.341,0.101,0.471,0.29,0.431,0.54c0.76,8.33-2.65,18.26-2.84,27.66
			c-0.15,7.5-0.051,15,0.21,22.311c0.09,2.729-0.04,5.56-0.58,8.159c1.489,2.931,0.75,6.71-0.34,10.62
			c-1.83-0.779-1.61-2.34-2.091-3.641c0.602-0.709,0.83,0.58,1.4,0.631c-0.05-18.4-1.33-35.86,1.45-54.891
			C431.549,182.774,429.579,177.905,431.519,174.725z"/>
	</g>
</g>
<g>
	<path style="fill:#E3F0DF;" d="M837.079,170.144c0,0-16.15,0.75-25.181-8.79c-9.039-9.54,1.95-34.649,6.069-39.79
		c4.11-5.14,21.812-20.261,41.131-11.439c19.329,8.82,22.739,25.711,16.67,42.149c-6.08,16.431-19.631,25.65-29.149,22.21
		l2.02-18.59l-8.71,5.79L837.079,170.144z"/>
	<g>
		<path style="fill:#7C4697;" d="M859.379,176.234c0.54-1.359,2.03-0.21,2.83-0.89c13.16-9.91,21.29-33.631,15.45-48
			c-0.89-2.18-2.61-3.541-3.14-5.78c-2.352-1.609-3.771-4.199-6.24-6.109c-11.24-8.709-29.381-10.311-38.62-5.029
			c-6.04,5.43-14.95,13.199-19.681,23.199c-2.529,5.33-4.88,12.101-3.869,16.771c0.879,4.069,2.14,5.45,4.938,9.051
			c2.9,3.739,5.722,7.061,12.13,9.329c2.23,0.79,4.7,0.62,6.932,2.062c-2.541,0.148-5.41-0.15-7.881-1.131
			c-5.459-2.17-8.771-5.029-11.779-8.9c-1.59-2.049-3.57-4.079-4.36-6.059c-0.89-2.25-1.87-7.73-1.63-9.191
			c0.5-3.119,3.13-9.989,4.49-12.67c2.289-4.51,5.3-9.6,8.35-12.819c1.562-1.648,4.09-3.189,6.051-5.148
			c2.319-2.301,4.439-4.99,6.779-6.182c13.66-6.931,32.92-1.079,44.87,11.141c3.5,5.26,5.2,11.211,6.42,17.351
			c-1.13,8.5-3.12,20.681-8.81,29.229c-1.552,2.33-4.052,4.5-6.102,6.49C864.509,174.884,862.129,177.894,859.379,176.234z"/>
		<path style="fill:#7C4697;" d="M840.289,161.845l0.68,0.3c-2.85,11.271-3.56,21.102-4.18,31.61c-0.24,4.148-0.53,9.148-3.12,13.84
			c0.04,0.84,1.84-0.35,1.16,1.07c-0.58,0.81-1.87,0.51-2.561-0.352c3.83-9.42,3.439-18.148,4.159-27.25
			c0.25-3.12,0.73-6.16,1.44-9.431C838.568,168.425,839.039,164.774,840.289,161.845z"/>
		<path style="fill:#7C4697;" d="M848.568,154.714c0.28,0.08,0.381,0.23,0.351,0.431c0.61,6.739-2.13,14.771-2.28,22.38
			c-0.119,6.07-0.039,12.142,0.16,18.062c0.08,2.209-0.02,4.5-0.46,6.59c1.19,2.379,0.601,5.43-0.271,8.6
			c-1.479-0.63-1.3-1.891-1.681-2.938c0.48-0.58,0.66,0.459,1.12,0.51c-0.04-14.891-1.06-29.021,1.17-44.42
			C848.6,161.214,847.009,157.274,848.568,154.714z"/>
	</g>
</g>
<g>
	<path style="fill:#E3F0DF;" d="M926.419,128.774c0,0-20.66-8.85-25-24c-4.34-15.149,4.229-66.43,22-75.999
		c17.771-9.57,39.36-23.38,63-1c23.641,22.38,38.101,115.02-46,110.999l13-54l-7-4L926.419,128.774z"/>
	<g>
		<path style="fill:#7C4697;" d="M953.079,143.165c-0.7-0.841-1.87-2.49-0.92-3.99c0.568,0.76,0.329,2.33,1.229,2.76
			c6.91-0.43,12.972-2.12,17.82-4.92c8.46-4.891,15.42-9.811,20.89-17.2c2.2-2.989,4.94-6.25,6.75-9.529
			c2.521-4.55,3.69-10.74,5.53-15.98c2.102-5.979,3.979-11.159,4-17.209c0.021-11.74-3.79-22.1-8.91-31.649
			c-4.62-8.62-11.72-17.75-19.35-22.74c-1.83-1.189-4.29-1.609-6.15-2.76c-1.17-0.73-1.93-2.189-3.068-2.771
			c-13.57-6.961-33.28,0.17-42.7,7.069c-2.01,1.47-3.69,3.33-5.53,5.22c-3.8,3.92-6.42,5.5-9.521,10.451
			c-3.601,5.75-6.029,11.119-7.989,19.969c-2.87,12.94-8.63,31.65-3.38,45.791c0.6,1.6,2.05,2.99,2.148,4.609
			c3.391,2.399,4.61,7.37,6.762,11.061c1,1.72,2.648,2.82,2.77,4.609c-4.221-1.931-4.88-6.959-6.76-10.449
			c-1.53-2.83-3.801-4.871-5.221-7.681c-4.351-8.59-3.511-22.739-0.931-35.03c3.222-15.299,5.54-26.938,13.83-37.49
			c1.57-2.01,3.851-3.959,5.83-5.84c5.93-5.619,12.68-12.09,21.812-14.438c2.34-0.601,4.898-0.48,7.068-0.92
			c2.182-0.45,4.32-1.4,6.45-1.54c4.561-0.29,10.74,0.33,15.67,2.771c1.44,0.709,2.569,2.18,3.989,3.069
			c1.521,0.95,3.371,1.271,4.921,2.149c3.989,2.271,8.01,6.62,11.36,10.45c9.14,10.439,18.879,28.14,18.738,46.399
			c-0.06,6.97-2.63,12.869-4.92,19.97c-2.479,7.711-4.8,13.521-8.601,18.75c-2.689,3.721-5.811,7.57-8.601,11.371
			C977.489,133.774,969.649,142.835,953.079,143.165z"/>
		<path style="fill:#7C4697;" d="M952.779,84.165c0.489-0.091,0.52,0.289,0.92,0.31c0.26,6.069-2.892,11.28-4.61,16.899
			c-1.729,5.641-2.489,11.7-3.989,17.51c-2.881,11.091-7.221,21.891-9.83,32.881c-2.819,11.83-4.33,23.279-7.989,34.42
			c-1.791,5.439-3.521,10.82-5.222,16.29c-1.619,5.221-3.26,10.63-5.528,15.67c-1.44-1.479,0.148-5.04,0.92-7.681
			c2.21-7.569,5.369-15.14,7.989-23.049c3.561-10.781,5.109-22.25,7.681-33.801c2.399-10.812,6.66-21.301,9.52-31.96
			c1.511-5.631,2.53-11.319,3.99-16.899c1.78-6.791,4.62-12.211,5.84-19.67C952.379,84.595,952.759,84.554,952.779,84.165z"/>
		<path style="fill:#7C4697;" d="M947.549,78.324c0.42,3.149-1.66,7.421-3.38,10.761c-1.72,3.35-3.34,6.68-4.91,10.14
			c-3.2,7.04-5.51,14.261-8.3,21.819c-1.3,3.541-3.52,6.59-4.91,10.141c-1.42,3.619-2.37,7.601-3.688,11.369
			c-3.11,8.891-5.222,17.191-7.98,27.041c-2.141,7.619-6.42,15.18-8.91,23.039c-1.819,5.74-4.43,11.32-7.368,16.602
			c-0.69,1.239-1.462,3.699-3.382,3.689c-1.14-1.83,1.53-4.4,2.761-5.229c6.431-15.23,12.75-30.301,17.819-47.32
			c0.87-2.91,1.341-5.729,2.15-8.609c0.76-2.68,2.1-5,3.07-7.68c1.988-5.471,3.09-10.951,5.528-16.291
			c1.21-2.649,2.771-5.039,3.689-7.68c0.971-2.801,1.431-5.74,2.451-8.601c2.778-7.729,6.93-15.279,10.448-23.051
			c1.171-2.59,1.882-5.59,3.07-7.989c0.24-0.489,0.46-1.189,1.54-1.229c-0.17-0.24-0.32-0.49-0.31-0.921L947.549,78.324
			L947.549,78.324z"/>
	</g>
</g>
<path style="fill:#E3F0DF;" d="M1127.419,267.774c0,0-27.562-8.42-33-23c-5.438-14.579-23.33-41.84-6-62
	c17.33-20.159,46.271-39.891,79-17c32.729,22.892,37.71,62.051,24,84c-13.71,21.95-39.04,36.83-59,29l37-48l-13-8L1127.419,267.774z
	"/>
<g>
	<path style="fill:#7C4697;" d="M1061.52,349.054c0.829-2.889,3.829-3.809,5.84-5.539c4.989-4.29,9.471-9.18,14.131-13.82
		c0.779-3.108,3.779-4,4.91-6.76c6.789-5.83,11.108-14.7,16.278-22.131c0.19-0.27-0.198-0.969,0-1.229
		c0.65-0.841,1.86-1.341,2.46-2.149c3.422-4.61,6.141-9.57,10.44-13.211c0.069-1.93,2.64-3.34,3.08-5.84
		c7.09-8.699,13.67-18.869,19.04-29.189c4.12-7.91,9.68-16.66,15.97-23.359c0.521-1.54,1.109-2.989,3.08-3.069
		c-1.91,4.43-6.91,10.02-10.76,14.439c-4.552,10.551-11.04,19.979-16.58,29.188c-1.19,1.98-2.931,4.101-4.302,6.15l-6.148,9.221
		c-0.95,1.43-2.25,3.289-3.38,4.609c-0.9,1.051-2.062,1.479-3.07,2.76c-1.26,1.621-1.92,3.7-3.38,5.229
		c-0.189,0.199-0.78,0.21-0.61,0c-4.788,6.08-7.979,13.341-12.288,19.66c-0.671,1-1.882,1.46-2.462,2.46
		c-0.318,0.561-0.22,1.28-0.608,1.851c-3.67,5.31-9.131,10-13.521,15.05c-3.55,4.09-7.688,7.399-11.359,11.371
		c-1.101,0.028-1.659,0.6-1.851,1.539C1064.089,346.505,1064.009,348.984,1061.52,349.054z"/>
	<path style="fill:#7C4697;" d="M1139.849,284.515c-0.448-0.891-1.5-2.78-0.608-3.99c1.24-0.01,0.26,2.2,0.92,2.761
		c9.21-1.449,17.3-1.391,23.96-4.91c5.17-2.74,8.83-6.84,13.819-9.529c3.211-5.109,9.34-8.721,12.601-15.061
		c1.479-2.88,2.56-6.529,3.989-9.83c3.03-6.97,4.211-12.47,4.301-21.199c0.109-10.051-0.48-18.301-3.07-26.431
		c-1.699-5.351-4.74-9.59-7.069-13.521c-14.25-12.889-27.739-30.079-50.989-28.879c-6.171,0.311-12.521,2.05-17.82,4.91
		c-4.979,2.699-10.318,4.989-14.43,7.989c-1.47,1.069-2.562,2.569-4,3.689c-1.391,1.08-3.2,1.699-4.602,2.761
		c-2.34,1.778-3.368,4.329-6.459,5.84c-2.261,5.359-8.721,12.26-9.829,19.359c-1.75,11.28,0.1,19.899,4.608,28.271
		c5.892,5.148,7.21,14.75,11.37,22.129c2.51,4.45,5.95,7.45,8.91,11.371c2.569,1.17,4.64,3.26,7.37,4.608
		c2.6,1.29,6.06,1.71,7.68,4.301c-18.221-5.03-26.399-20.102-32.561-37.181c-4.619-5.97-9.369-13.699-9.83-22.431
		c-0.129-2.279,0.931-5.039,1.221-7.689c0.24-2.09-0.15-3.891,0.311-5.529c0.421-1.489,1.71-2.94,2.46-4.61
		c0.801-1.76,1.09-3.898,1.84-5.219c0.851-1.49,2.541-2.691,3.381-4c0.97-1.5,1.56-2.951,2.149-4.301
		c2.859-1.511,3.8-3.71,5.841-5.529c1.729-1.551,4.02-2.271,5.84-3.69c9.379-7.29,21.068-15.46,35.629-16.591
		c17.621-1.369,28.291,7.48,38.091,15.361c9.27,7.459,20.34,17.108,23.35,30.42c1.58,7.029,2.08,12.438,2.15,18.438
		c0.1,9.33,0.29,16.562-2.15,23.359c-2.229,6.181-5.22,11.67-8.3,18.431c-2.78,2.45-4.729,5.721-7.99,7.69
		c-2.739,4.209-7.368,7.021-11.67,10.14C1163.119,281.415,1152.159,284.515,1139.849,284.515z"/>
	<path style="fill:#7C4697;" d="M1170.879,230.124c-4.01,9.28-11.68,15.83-18.13,23.051c-2.57,2.879-5.09,5.779-7.68,8.6
		c-2.58,2.83-4.722,6.142-7.682,8.609c-3.75,5.99-7.148,12.48-10.438,19.051c-2.15,4.29-3.95,8.73-5.841,13.21
		c-2.689,6.409-6.171,12.521-10.439,17.521c-2.649,5.369-5.79,9.858-8.6,15.06c-1.32,2.431-2.44,4.75-4,7.681
		c-1.932,3.648-2.84,7.64-4.91,11.979c-0.62,1.312-1.94,2.341-2.46,3.69c-0.53,1.39-0.33,3.16-0.921,4.609
		c-0.549,1.351-1.879,2.91-2.771,4.301c-0.91,1.431-1.569,2.92-2.76,4c-1.27-0.171-1.09-3.061-0.61-4
		c0.671,0.039,0.13,1.31,0.301,1.851c3.59-3.281,3.989-8.051,5.84-12.301c0.801-1.83,2.319-3.289,3.069-5.221
		c2.23-5.771,4.54-11.42,7.37-16.898c3.54-6.841,8.432-12.931,12.602-19.67c7.198-11.621,11.09-25.312,17.81-37.181
		c6.811-12,16.88-19.811,24.58-30.421c6.09-4.659,10.37-11.14,14.75-17.521c0.12-0.729-1.399,0.17-0.931-0.92
		C1169.869,228.405,1170.179,229.865,1170.879,230.124z"/>
</g>
<g>
	<path style="fill:#B19ACA;" d="M776.695,131.27c0,0,2.17,14.392,2,19c-0.17,4.609-0.9,52.568-0.9,52.568l9-2l-0.1-98.567l65-15
		l15-19l-16-8l-63,13c0,0-2.391-38.563-3-39.999c-0.61-1.441-4.33,1.776-4,6c0.33,4.219,0,12.999,0,12.999l-65-6.999
		c0,0-14.721,6.606-14,6.999c0.72,0.39,13,16,13,16l65,12L776.695,131.27z"/>
	<g>
		<path style="fill:none;stroke:#7C4697;stroke-width:2;stroke-linecap:round;stroke-linejoin:round;stroke-miterlimit:10;" d="
			M777.695,209.27c0,0,1.819-38.672,2-46c0.18-7.33-4.03-20.5-3-26c1.029-5.5,5.09-70.632,4-76.999c-1.09-6.371,0-8,0-8V38.272
			c0,0,0.8-7.07,2-7c1.199,0.067,1.84,1.688,3,8c1.16,6.309,0.84,85.147,1,94.998s-0.16,29.312,0,42c0.16,12.689-1,30-1,30"/>
		<path style="fill:none;stroke:#7C4697;stroke-width:2;stroke-linecap:round;stroke-linejoin:round;stroke-miterlimit:10;" d="
			M778.695,51.271c0,0-45.471-7.079-49-7.999c-3.53-0.923-13-2-13-2s-12.44,7.52-18,9c0,0,5.83,11.479,9,13.999s4,6,4,6
			s12.16,0.379,16,1c3.84,0.617,49,9,49,9"/>
		<path style="fill:none;stroke:#7C4697;stroke-width:2;stroke-linecap:round;stroke-linejoin:round;stroke-miterlimit:10;" d="
			M788.695,72.271c0,0,41.06-9.813,47-11c5.939-1.19,12-1,12-1h4l18,8c0,0-13.63,18.117-14,20c-0.37,1.879-22.04,3.681-30,6
			c-7.96,2.318-37,9-37,9"/>
	</g>
</g>
</svg>
