<svg version="1.1" id="&#x5716;&#x5C64;_1" xmlns="http://www.w3.org/2000/svg" xmlns:xlink="http://www.w3.org/1999/xlink" x="0px"
	 y="0px" width="1440px" height="421.479px" viewBox="0 0 1440 421.479" style="enable-background:new 0 0 1440 421.479;"
	 xml:space="preserve">
<g>
	<path style="fill-rule:evenodd;clip-rule:evenodd;fill:#7C4697;" d="M570.08,187.295c0.31-0.05,0.33,0.18,0.58,0.19
		c2.18,5.99,6.51,10.82,14.29,10.61c0.63-0.06,0.22-1.16,1.14-0.94c0.13,0.69-0.41,0.72-0.38,1.32c-3.64,1.68-8.81-0.38-11.62-3.22
		c-0.13-0.13,0.12-0.62,0-0.76c-0.28-0.31-0.98-0.38-1.34-0.76c-0.49-0.51-0.99-1.73-1.52-2.46
		C570.57,190.366,569.09,188.886,570.08,187.295z"/>
	<path style="fill-rule:evenodd;clip-rule:evenodd;fill:#7C4697;" d="M589.17,193.366c0.81,0.24-0.01,0.94,0.19,1.7
		C588.76,195.025,588.92,193.666,589.17,193.366z"/>
	<path style="fill-rule:evenodd;clip-rule:evenodd;fill:#7C4697;" d="M567.8,202.235c1.04,1.14,1.18,4.01-1.53,3.41
		c-0.58-1.11-0.89-1.88-0.38-3.22C566.54,202.375,566.99,202.125,567.8,202.235z"/>
	<path style="fill-rule:evenodd;clip-rule:evenodd;fill:#7C4697;" d="M581.52,203.215c0.72,1.11,0.13,2.55,0.19,3.79
		c-2.21,0.78-3.33-1.64-2.479-3.41C580.02,203.496,580.73,203.315,581.52,203.215z"/>
	<path style="fill-rule:evenodd;clip-rule:evenodd;fill:#7C4697;" d="M551.22,287.936c0.19,0.59,0.02,1.13,0.38,1.89
		c2.38-1.05,5.87-0.99,7.62-2.65c-0.52-0.18,0.27-0.59,0-1.14C556.39,286.505,554.17,287.585,551.22,287.936z M560.94,284.896
		c-0.2,1.64-0.37,2.32-0.19,3.79c-3.4,0.99-7.28,1.48-9.72,3.42c-1.1-0.98-0.82-2.81-0.77-4.55c1.24-0.9,4.96-2.26,7.06-2.66
		C558.51,284.676,559.84,284.775,560.94,284.896z"/>
	<path style="fill-rule:evenodd;clip-rule:evenodd;fill:#7C4697;" d="M516.76,324.326c1.48,1.35,2.4,0.89,4.76,0.56
		c1.27,2.1,5.87,0.25,6.29,3.42c-1.67,0.54-2.72-0.19-3.24-1.14c-0.59-0.02-0.54,0.59-1.33,0.38c-0.12-0.52-0.48-0.79-0.58-1.33
		c-0.99,1.41-2.66,0.78-4,0.95c-0.38-0.37-0.44-0.76-0.19-1.33c-0.39-0.25-1.18,0.71-2.29,0.38
		C516.37,325.186,516.06,324.835,516.76,324.326z"/>
	<path style="fill-rule:evenodd;clip-rule:evenodd;fill:#7C4697;" d="M596.57,399.715c1.79,1.02,8.09,2.95,8.96,0.38
		c0.35-1.02-0.67-1.37-1.52-2.08c-1.63-1.36-3.61-2.05-5.53-2.84C597.88,396.726,596.709,397.706,596.57,399.715z M527.78,395.355
		c-3.59,0.33-7.33-0.96-10.48,0c-1.32,3.1,1.14,5.28,2.85,7.4c2.48,0.01,3.57-1.37,5.53-2.28c0.81-1.54,1.81-4,2.86-6.25
		c-0.22,0.03-0.54-0.04-0.57,0.19C528.37,394.476,527.94,395.235,527.78,395.355z M576.75,385.696c0.09,3.09,0.51,6.76,0.96,10.04
		c5.99,0.81,11.771,1.81,17.53,2.85c0.92-0.98,1.53-2.28,1.91-3.79c-4.71-1.93-12.66,0.54-15.06-3.6c0.04-2.45-0.05-4.76-0.38-6.83
		C579.97,384.726,578.35,385.196,576.75,385.696z M636.98,354.806c-0.21,0.93-0.66,1.62-1.15,2.27c1.06,0.71,4,1.39,2.86,3.03
		c-1.73-0.3-2.31-1.74-4.19-1.89c-0.62,0.64-1.2,1.34-2.1,1.7c-0.74,2.37-2.97,2.5-5.14,3.6c-2.03,1.03-3.42,1.73-4.96,0.76
		c-1.8-1.13-2.85-3.84-4.76-4.92c-0.95,0.51-1.79,1.12-2.67,1.7c0.64,0.22,0.81-0.13,1.14,0.19c0.36,0.47-0.16,0.74,0.19,1.33
		c4.55,2.27,7.88,6.65,8.2,12.51c2.11-3.38,6.66-5.86,9.91-8.72c0.02-1.6,1.99-2.56,2.48-3.79c3.32-2.02,6.57-4.97,5.33-9.29
		C639.65,352.956,639.19,354.496,636.98,354.806z M497.09,332.056c-1.8,4.12-3.08,8.14-4.38,12.32
		c-3.76,12.11-8.07,25.26-8.96,37.91c0.38,0.57,0.729,1.17,0.96,1.89c7.17,1.84,14.28,3.74,21.53,5.5c2.08,1.87,6.35,0.87,8.58,2.84
		c3.96,0.53,10.28,1.98,14.1,1.14c3.21-9.4,3.44-19.27,5.15-28.81c0.77-4.33,2.49-8.54,3.24-12.89c0.87-5.07,1.37-10.5,2.66-15.73
		c-2.96-0.72-6.56-0.46-9.72-1.32c-0.52-0.15-0.97-0.67-1.52-0.76c-1.57-0.27-3.16,0.21-4.76-0.19c-1.59-0.39-3.07-1.42-4.58-1.9
		c-4.37-1.37-8.92-1.93-12.39-3.98c-2.24,0.19-3.05-0.8-4.95-1.32c-0.83-0.57-1.4-1.39-2.29-1.9
		C499.12,327.386,498.13,329.706,497.09,332.056z M533.3,314.436c-3.91-1.17-7.44-2.61-11.43-3.03c-2.09-0.23-3.64-1.45-5.34-1.9
		c-3.46-0.91-7.42-1.01-10.67-1.7c-2.95,4.01-3.79,10.12-5.72,15.16c0.12,0.32,0.91-0.02,0.96,0.38c0.09,1.8,1.93,1.87,2.47,3.22
		c4.57,0.72,8.63,3.32,12.96,3.79c0.44,0.05,0.91-0.08,1.34,0c2.5,0.46,4.73,2.16,6.86,2.65c1.82,0.43,3.62-0.21,5.91,0.19
		c0.6,0.11,1.09,0.62,1.71,0.76c2.38,0.54,5.27-0.32,7.81,0.76c0.03-4.01,2.09-6.65,2.48-9.86c0.27-2.19-0.44-4.35,0.57-6.44
		c-1.08-0.19-3.02,0.47-3.24-0.57c0.19-0.21,2.09,0.36,2.1-0.57c-2.94-0.69-5.76-2.83-8.77-2.27
		C532.98,314.926,533.34,314.755,533.3,314.436z M514.25,307.806c0.6-0.16,1.73,0.58,2.28,0.37c1.48-4.57,1.43-9.37,2.48-13.64
		c-0.94,0.11-1.47-0.18-1.33-1.14c1.38-0.98,4.38,0.31,5.14,1.71c-1.14,0.12-1.86-0.17-2.86-0.19c-0.479,4.64-1.36,9.05-1.9,13.64
		c4.96,1.7,10.22,2.92,15.63,4.55c2-5.27,2.58-12.96,4.19-18c-0.82-0.33-1.95-0.34-2.29-1.14c0.06-0.39,0.52-0.37,0.57-0.76
		c-1.16-0.23-1.97-0.81-3.24-0.95c-0.46,0.81-0.76,1.77-1.14,2.66c1.49,0.41,3.44,0.37,3.81,1.89c-0.81,0.76-1.07,2.02-1.33,3.23
		c-0.61,2.75-1.78,6.24-1.91,8.71c-0.07,1.31,0.49,2.77-0.95,3.23c-0.45-0.07-0.82-0.2-0.95-0.57c1.78-4.23,1.69-10.32,3.62-14.41
		c-2.84-1-4.49,1.01-7.44,1.33c-0.34-0.91-0.4-1.36-0.19-2.27c-0.75,1.02-2.59,1.88-3.43,0.37c0.31-2.05,0.21-3.53,0.57-5.3
		c-2.12-0.48-3.52-1.68-5.71-2.09C515.51,294.465,515,301.436,514.25,307.806z M585.33,289.036c-1.35,0.2-2.79-0.1-4,0.19
		c-0.94,0.23-1.77,1.03-2.67,1.33c-3.65,1.2-7.55,0.79-11.24,1.89c-1.3,11.28-1.3,21.53-0.19,32.6c0.32,3.24,1.3,6.34,1.33,9.48
		c0.05,5.13-0.58,10.52-0.57,15.54c0.01,5.14,0.87,10.44,0.95,15.54c0.04,2.26-0.53,4.47-0.38,6.63c0.16,2.36,0.77,4.79,1.14,7.02
		c0.4,2.34,0.45,4.81,1.53,6.82c0.93,0.1,2.25-1.04,3.62-1.14c0.44-0.9-0.79-1.17-0.19-2.27c0.44,0.06,0.73-0.03,0.95-0.19
		c0.76,0.19,0.12,1.77,1.14,1.7c2.13-0.6,4.4-1.06,6.29-1.89c-0.3-5.02-0.41-10.19-0.95-15.16c-0.39-3.61,0.14-6.85,0.38-10.43
		c0.35-5.08,0.28-10.28,0.76-15.54c0.37-4.03,0.93-7.84,0.77-11.94c-0.21-5.25-1.76-10.74,0.57-14.59h1.52
		c0.24,1.21,0.66,2.07,0.77,3.79c4.44,9.25,5.71,19.8,11.24,27.1c0.71,0.94,1.76,1.6,2.48,2.65c0.7,1.03,1.09,2.29,1.71,3.41
		c0.59,1.07,1.45,1.97,2.1,3.04c0.55,0.9,0.65,2.1,1.14,3.03c1.05,2,2.97,3.54,3.81,5.69c2.6-2.29,5.96-3.81,8.39-6.26
		c0.86,0.3,1.76-0.85,2.479-1.33c-0.13-1.84-1.26-4.3-1.91-6.25c-1.54-2.48-3.3-4.87-4.96-7.58c-2.42-3.96-3.22-9.11-6.86-12.13
		c-0.521-2.14-2.79-3.33-3.81-4.93c-1.02-1.62-1.22-4.09-1.9-6.25c-0.48-1.54-1.25-2.9-1.53-3.98c-0.28-1.13-0.12-2.53-0.57-3.6
		c-0.23-0.56-0.89-0.99-1.14-1.52c-2.16-4.49-3.61-8.66-5.15-14.02c-0.53-1.85-0.74-4.61-0.76-7.02
		C589.57,287.545,587.709,288.686,585.33,289.036z M559.6,282.025c-3.97-0.58-7.97,1.86-11.24,3.22c0.3,5.08,0.94,12.22,2.48,17.63
		c4.51-0.94,8.96-1.96,12.57-3.79c-0.71-5.39-1.04-12.99-1.71-18.01C560.01,280.806,560.25,281.516,559.6,282.025z M545.69,257.196
		c-0.39,1.32-1.09,2.36-1.71,3.41c-2.16,3.66-3.93,8.56-6.86,11c-2.16,3.06-2.37,5.71-4.96,8.34c-0.85,0.86-1.22,3.11-1.91,4.16
		c-1.1,1.71-2.88,2.96-3.43,4.93c-1.49,1.5-2.35,3.74-1.9,5.88c0.37-1.02,1.38-1.4,2.67-1.52c0.3,1.49-0.24,1.84-0.19,3.41
		c1.15,0.02,1.35-0.93,2.28-1.13c0.44-3.17,3.13-4.09,3.24-7.58c1.22-1.33,2.2-3.66,3.05-5.88c1.15-1.01,2.22-2.09,2.48-3.98
		c1.65-1.34,1.99-3.07,3.24-4.55c-0.41-0.97,0.42-0.86,0.38-1.89c2.13-1.78,2.31-5.37,4.38-7.59c0.88-3.07,1.94-6,3.05-8.33
		c1.25-0.09,0.88-1.79,2.1-1.9c0.56-2.35,2.87-2.95,2.86-5.87c-0.93-0.53-1.51-1.41-2.67-1.71
		C549.43,249.676,548.54,254.406,545.69,257.196z M559.98,251.136c-0.11,0.95,0.06,2.75,0.19,3.98c0.55,5.13,1.33,10.13,0.58,14.97
		c0.95-0.61,2.94-1.69,3.43-3.03c0.21-0.59-0.04-1.39,0-2.09c0.33-6.99,1.07-15.09,0.38-21.98
		C563.29,245.636,560.33,248.206,559.98,251.136z M595.05,243.366c1.66,0.27,2.94,1.09,4,1.51c2.12,0.85,4.12,0.43,6.48,0.95
		c0.45,0.1,0.85,0.5,1.34,0.57c0.91,0.12,1.74-0.16,3.04,0c2.23,0.27,4.24,1.14,6.87,0.76c0.51-0.08,0.92-0.5,1.52-0.57
		c0.62-0.07,1.37,0.26,2.1,0.19c0.93-0.09,1.82-0.51,2.66-0.57c3.36-0.23,10.43,1.97,12.39-0.76c-1.36,0.03-2.56-0.1-3.05-0.95
		c0.26-1.56,2.52-1.53,3.24-2.08c-4.13-1.16-8.81,0.33-13.53,0.76c-5.33,0.48-11.17-0.25-15.44-1.14c-0.96-0.2-1.73-0.73-2.47-1.14
		c-3.86-0.02-4.51-2.08-8.01-2.46C595.75,240.016,595.76,242.045,595.05,243.366z M549.88,244.125c2.34,0.48,3.48,2.63,6.1,2.27
		c0.2,0.43,0.12,1.14,0.38,1.52c1.04-0.09,1.15,0.75,2.29,0.56c-0.9-5.01-0.31-10.45-1.52-14.97
		C555.16,237.485,551.7,239.996,549.88,244.125z M586.86,240.335c2.49,0.86,4.72,2,6.67,3.41c-0.24-1.06,0.34-1.31,0.95-1.52
		c-0.021-2.59,1.16-4.98,0.76-6.82c-2.06-0.41-2.74-2.21-4.57-2.85C589.65,235.406,587.97,237.585,586.86,240.335z M558.27,231.426
		c0.86,5.91,0.82,10.72,1.71,16.49c1.58-3.05,2.21-4.93,4.77-6.83c0.11-1.53-0.23-3.51,1.14-3.79c0.63,0.42,0.18,1.47,0.19,1.9
		c1.11,0.02,0.38-1.77,1.53-1.71c0.44,0.07,0.82,0.2,0.95,0.57v1.14c-1.37,0.09-1.3,1.61-2.48,1.89
		c-0.97,8.17,0.07,15.86-0.76,24.83c3.32-2.22,6.13-4.99,8.96-7.2c0.14-0.74,0.32-1.45,1.14-1.52c0.7-2.83,3.08-4.01,4-6.63h0.57
		c0.98-3.52,3.35-5.61,4.58-9.29c-1.16,0.48-1.8-0.24-1.72-1.51c0.89-0.3,1.74-0.14,2.67,0c1.15-2.9,3.22-4.89,4.19-7.96
		c-1.24-1.11-2.42-2.27-4-3.04c0.28,0.91-0.8,0.48-1.33,0.57c-0.44-1.27-1.33-2.09-1.53-3.6c-0.78-0.16-1.27-0.63-1.52-1.32
		c-3.49,2.02-9.35,3.87-13.91,1.7c-0.11-0.78-0.93-0.85-0.77-1.89c-1.51-0.06-2.11,0.1-3.05-0.38
		C561.47,226.326,560.06,228.965,558.27,231.426z M558.27,207.545c-0.54,4.96-0.97,11.96,0.57,16.68c-0.13,1.98-1.11,5.03-0.57,6.44
		c1.45-3.29,3.07-6.43,5.72-8.53c0.19,0.63,1.01,0.63,1.9,0.57c3.82,6.17,13.09,1.96,16.58-1.14c-0.03,1.14-0.1,1.2,0,2.28
		c2.08,2.73,5.08,4.55,7.82,6.63c2.12-3.21,1.45-10.1,1.71-15.73c0.16-3.47,1.55-7.43-1.71-8.34c0.13-0.82-0.35-1.05-0.77-1.33
		c-0.34,0.61-1.2,0.7-2.09,0.76c-0.58-0.12-0.3-1.09-0.96-1.14c-1.93,3.65-4.31,6.83-8,8.72c-0.77,0.13-1.09-0.18-1.72-0.19
		c-0.19,2.78,0.16,6.09-0.57,8.34c-1.76-1.72-0.22-6.14-0.57-8.34c-0.73,0.35-1.71,0.36-2.29,0.38c-0.04,2.68,1.17,6.92,0,8.34
		c-0.51-0.12-0.89-0.37-1.14-0.76c0.98-2.35-0.56-5.57,0.76-8.15c-1.66,0.64-2.56-0.59-4.38-0.38c-2.76-2.43-6.37-4.02-7.24-8.33
		c-0.41-0.23-1.07-0.21-1.34-0.57C560.8,204.985,559.95,207.755,558.27,207.545z M588.57,194.275c-0.21-0.76,0.62-1.46-0.19-1.7
		C588.13,192.875,587.97,194.246,588.57,194.275z M575.99,184.235c0.08,0.39-0.13,0.5-0.19,0.75c1.1,0.88,1.75,2.18,2.48,3.42
		c2,1.73,4.21,3.26,7.24,3.98c0.53,0.08-0.15-1.04,0.38-0.95c1.01-0.33,1.72,0.32,2.29,0.95c0.08-4.51-4.04-6.48-6.86-8.72
		c-5.41-2.09-14.84-1.91-18.11,1.51c-0.02-1.12,1-1.01,1.72-1.51c1.3-0.91,2.04-2.48,3.43-2.66c4.93-0.63,10.8-0.4,14.48,1.9
		c0.61,0.38,0.94,1.15,1.53,1.52c0.35,0.21,1.02,0.11,1.33,0.37c0.97,0.82,3.12,3.6,3.62,4.93c0.34,0.9,0.67,2.34,0.76,3.03
		c0.33,2.36-0.47,5.06-2.09,7.02c-0.01,0.87,0.1,1.87-0.38,2.27c0.51,0,1.55-0.12,2.09,0.19c0.9,2.54,3.021,4.38,4.39,5.88
		c-1.11,7.94,0.35,17.55-2.86,23.31c1.52,1.2,3.41,2.04,4.38,3.79c0.67-0.19-0.16-0.84,0.57-0.76c0.78-0.07,0.21,1.18,0.38,1.71
		c2.37,1.74,4.55,2.64,8.01,3.6c0.77,0.21,1.56,0.77,2.29,0.94c1.03,0.25,2.21,0.04,3.24,0.19c2.8,0.43,4.65,0.85,8.19,0.76
		c2.99-0.07,6-0.81,8.96-0.95c0.71-0.03,1.24,0.28,1.9,0.19c1.8-0.23,4.49-0.49,6.86-0.38c0.95,0.36,0.9,0.97,1.53,1.33
		c-0.11,1.32-0.62,2.28-1.34,2.09c0.8,0.47,1.58,0.95,1.34,2.46c-2.9,1.98-6.8,1.76-11.06,1.33c-4.41-0.46-8.32,1.39-12.38,1.13
		c-1.59-0.09-3.03-0.74-4.58-0.94c-5.18-0.68-10.17-0.93-14.1-2.85c-0.82-0.25-0.24,0.91-0.95,0.76c-2.64-0.85-3.97-3-6.67-3.79
		c-1.1,5.47,1.37,11.51,1.9,17.25c0.7,7.45,1.72,15.05,2.29,22.36c0.15,1.91,0.81,3.83,0.95,5.69c0.25,3.22-0.58,6.63,1.34,9.28
		c0.58,3.55,1.81,6.99,3.24,9.86c2.8,5.63,3.96,11.48,6.29,17.62c2.35,3.35,5.59,6.38,7.62,10.24c0.99,1.89,1.43,4.18,2.48,6.06
		c1.23,2.21,3.08,3.85,3.81,6.26c0.63,0.57,0.84,1.56,1.71,1.89c0.69,2.81,2.67,5.08,2.48,8.15c-0.92,0.48-1.65,1.14-2.29,1.9
		c-0.12,1.07,1.28,1.65,1.91,2.46c0.8,1.03,1.58,2.36,3.81,1.71c0.64-0.19,1.26-0.75,2.1-1.14c1.17-0.54,2.15-0.68,2.86-1.33
		c1.22-1.13,3.51-1.86,3.05-4.17c0.59,0.07,0.91-0.43,1.33,0c0.98-0.33,1.13-2.21,2.48-3.03c0.51-0.31,1.83-0.48,2.66-0.76
		c1.95-0.65,3.08-0.95,4.2,0.57c0.62,4.2-2.28,6.55-4,9.48c-2.81,0.35-3.63,3.1-5.15,4.93c-2.42,2.9-6.25,4.37-8.77,7.01
		c-0.62,1.27-0.92,2.87-2.28,3.41c-1.94-2-0.53-5.28-1.91-8.15c-2.01-2.74-4.85-4.66-7.43-6.82c0.16-0.46,0.12-0.5,0.19-1.33
		c-2.74,0.56-2.82,3.76-5.91,3.98c-1.14-2.02-2.53-3.8-3.43-6.06c-0.23-0.28-0.73-0.29-0.95-0.57c-1.34-4.53-4-7.47-5.91-11
		c-1.771-1.81-4.34-5.22-5.53-7.96c-2.24-5.17-2.95-11.31-5.14-16.29c-0.93-2.11-2.29-4.03-2.48-6.26c-1.66,3.17-0.11,8.31,0,12.13
		c0.14,4.76-0.71,9.1-0.95,14.21c-0.3,6.16-0.89,12.12-1.34,18.2c-0.28,3.82,0.4,8,0.58,11.94c0.14,3.16,0.99,6.18,0.95,9.48
		c-0.59,0.29-1.22,0.56-1.72,0.94c0.82,1.66,0.01,4.93,0.77,6.64c3.38,2.87,9.85,0.77,14.1,3.03c0.76,0.19,0.57-0.57,1.33-0.38
		c0.69-0.18,0.2,0.82,0.57,0.95c0.73,0.48,2.45,0.32,3.62,0.94c0.36,0.19,0.58,0.9,1.15,1.33c0.79,0.6,2.74,1.3,2.86,2.65
		c0.08,0.99-0.96,1.7-1.53,2.66c-2.51,0.24-4.95,0.69-7.24,0c-2.08-0.63-3.65-2.12-5.72-2.66c-0.86-0.22-1.9-0.01-2.86-0.18
		c-1.74-0.32-3.27-1.18-5.14-1.33c-2.96-0.25-5.85-0.03-8.39-0.38c-0.36-3.99-1.1-6.95-0.95-11.18c-2.02,0.21-3.2,2.01-5.53,1.32
		c-0.71-2.67-1.28-5.88-1.71-8.71c-0.44-2.88-0.77-4.75-0.57-8.91c0.31-6.64-1.07-14.6-0.77-22.18c0.17-3.95,0.33-8.14,0.39-11.75
		c0.02-1.55-0.31-4.33-0.58-6.63c-0.25-2.2-1.12-4.23-1.14-6.25c-0.01-1.32-0.05-2.87,0-4.36c-0.72-2.7-0.56-5.63-0.57-8.53
		c-0.02-3.35,0.54-6.94,0.76-10.42c0.15-2.35-0.16-4.58,0.57-6.64c-0.33-0.49-0.79-0.98-0.76-1.32c3.1-2.14,7.64-1.15,11.63-2.28
		c1.53-0.43,2.63-1.42,4-1.7c3.52-0.75,7.04-0.34,10.1-1.71c0.03-1.2-0.3-2.06-1.15-2.84c-0.3-0.87,0.8-0.35,0.77-0.95
		c0.18-6.32-1.62-11.94-2.1-17.63c-0.14-1.73,0.03-3.58-0.19-5.3c-0.2-1.59-0.86-3.07-1.14-4.55c-0.88-4.56-0.95-8.81-1.15-13.08
		c-0.83,0.69-1.33,1.71-1.52,3.03c-2.29,2.15-3.13,5.74-4.96,8.34c-2.03,1.58-2.94,3.93-4.57,6.26c-1.8,1.06-2.68,2.85-4.19,3.98
		c-1.12,0.84-2.71,1.33-3.81,2.27c-0.69,0.59-1.03,1.44-1.72,2.09c-1.59,6.17,0.24,12.56,0.57,19.33c-0.49,1.09-0.39,2.28,0,3.41
		c-1.83,0.21-1.86-1.52-1.9-2.46c-0.06-1.25,0.43-2.58,0.38-3.99c-0.19-4.61-1.73-10.11-0.38-14.78c-1.35,0.81-2.23,2.08-3.43,3.03
		c-0.66,2.2,0,4.4-0.38,6.83c1.12-0.29,1.75,0.85,2.85,1.13c-0.13,7.33,1.76,14.61,1.53,21.23c-5.07-0.37-9.74,2.43-14.68,3.41
		c-1.04-1.46-0.31-3.59-1.71-4.55c0.19-4.26-1.36-10.31-1.33-15.54c0-1.14-0.08-1.76,0.76-2.46c0.99-0.17,1.35,0.3,1.33,1.14
		c2.64-1.68,6.14-2.49,9.53-3.42c1.09-1.65,0.7-5.17,0.38-7.01c1.28-7.21,0.46-14.04-0.19-21.98c-1.28-0.56-1.71-1.97-2.86-2.66
		c-0.61,0.34-0.48,0.85-0.38,1.52c-2.42,3.98-5.45,6.61-7.05,11.94c-1.06,3.55-3.67,6.3-4.38,9.86c-1.08-0.19-0.25,1.52-1.34,1.32
		c-1.88,6.22-7.01,10.84-8.95,17.63c1.35,0.51,3.86,1.87,5.14,2.46c0.97,1.65-0.41,3.44-0.95,5.5c-1.22,4.62-1.41,10.64-3.24,14.59
		c3.17,1.08,6.63,1.88,9.34,3.41c0.22,0.79-0.4,0.74-0.38,1.33c-0.14,0.51,0.89-0.14,0.76,0.38c-0.56,2.7-0.57,5.76-1.34,8.34
		c-0.69,2.35-1.91,5.09-1.71,8.34c0.17,0.6-0.5,0.39-0.57,0.75c-1.51,13.04-4.87,23.57-7.05,36.2c-1.29,7.44-0.78,15.13-3.82,21.99
		c0.22,1.42-0.43,1.97-0.57,3.03c-1.64,0.64-1.62,2.93-2.67,4.17c-2.3,1.06-3.52,3.19-7.24,2.84c-1.58-1.39-2.35-3.59-4-4.92
		c-0.18-1.7-0.47-3.97,0.57-4.93c-5.66-2.4-13.88-3.53-20.01-6.07c-4.29-1.01-8.62-0.87-12.19-2.65c-1.8,1.76-1.34,6.13,1.14,6.44
		c1.75,0.22,2.65-1.52,4.38-1.89c0.82-1.06,2.21-2.89,3.43-1.9c-0.13,1.64-2.05,1.5-2.479,2.85c-2.16,0.87-3.87,2.58-6.86,2.08
		c-1.7-1.78-3.12-5.91-1.14-8.15c0.28-0.72-0.85-0.04-0.57-0.76c0.43-7.2,2.69-13.84,4.38-20.47c1.63-6.38,2.99-12.3,5.15-18.38
		c1.48-4.17,2.23-8.56,4-12.32c0.51-1.09,1.56-2.51,2.1-3.98c0.68-1.88,0.8-3.97,1.33-5.87c0.42-1.5,1.24-2.9,1.71-4.36
		c1.38-4.2,1.96-8.74,4.39-12.51c2.81-0.58,5.18,0.73,7.43,1.33c2.01-2.39,1.4-5.6,1.72-8.72c0.38-3.75,2-7.57,2.28-11.37
		c0.56-0.09,1.81-0.09,2.67-0.38c1.15,1.44,3.43,1.76,4.57,3.22c2-0.9,1.47-3.24,3.43-3.98v-0.95h0.77
		c1.72-2.71,3.53-6.13,5.71-8.91c0.67-2.2,1.34-3.98,2.86-4.92c3.13-4.91,6.1-10.13,8.58-15.17c1.13-0.38,1.08-1.96,2.1-2.46
		c0.68-3.24,2.4-5.44,3.81-7.96c-1.24-0.1-1.9-0.66-3.05-0.38c0.17-0.74,0.41-0.7,0.19-1.51c0.34-0.17,0.24-0.77,0.95-0.57
		c2.21-4.81,6.13-7.61,8.39-11.94c-0.63-2.62,0.79-6.43-1.15-8.34c0.3-5.06-0.13-10.57,0.96-15.73c-0.84-0.97-1.13-1.44-1.34-2.85
		c0.63-0.91,1.61-2.4,3.24-1.7c-2.64-3.39-3.58-11.32-0.38-14.97c-1.08,4.45-1.38,11.42,1.52,14.02c-0.18-2.56-2.42-6.93-0.38-9.29
		c1.06,0.97,0.57,2.89,0.77,4.36c0.22,1.67,0.46,3.35,1.33,4.36c-0.02,1.42,0.57,2.22,0.76,3.41c0.95,0.96,1.67,2.13,2.29,3.42
		c0.65,0.23,1.29,0.49,1.33,1.32c3.4,2.02,7.54,4.08,12.2,2.47c5.03-4.4,8.64-9.65,8.39-18.39
		C581.44,192.996,575.16,189.025,575.99,184.235z"/>
	<path style="fill-rule:evenodd;clip-rule:evenodd;fill:#7C4697;" d="M564.209,187.866h0.57c0.25,2.68,1.25,4.69,2.67,6.63
		c3.01,4.13,10.15,8.7,17.53,6.45c-0.37,2.19-3.93,2.26-6.1,1.89c-2.8-0.48-4.73-1.78-6.86-3.03c-1.82-1.08-2.19-0.97-3.43-2.09
		c-2.07-1.86-4.95-5.74-4.38-9.28C563.98,188.186,564.13,188.136,564.209,187.866z"/>
</g>
<g>
	<g>
		<path style="fill-rule:evenodd;clip-rule:evenodd;fill:#7C4697;" d="M768.35,186.156h0.76c0.57,1.19-1.03,1.72-1.34,2.66
			c3.45,4.6,7.48,8.6,12.39,11.75c-0.04,0.59,0.13,1.39-0.19,1.7c-1.35-0.49-2.72-0.96-4-1.51c0.53-0.99,1.64,0.77,2.28-0.19
			c-4.83-2.79-7.52-7.07-11.43-10.43c-3.53,5.15-7.14,10.21-10.29,15.73c0.17,1.13-0.33,1.57-0.38,2.47c-0.6,0-1.24,0.45-1.72,0
			c1.42-3.28,3.4-6.78,4.96-9.1c1.16-1.72,2.42-2.85,3.24-4.55c0.89-1.87,2.59-3.51,3.62-5.49c0.31-0.6,0.28-1.11,0.76-1.71
			c0.24-0.26,0.9-0.12,1.14-0.38C768.09,186.666,768.18,186.375,768.35,186.156z"/>
		<path style="fill-rule:evenodd;clip-rule:evenodd;fill:#7C4697;" d="M835.24,187.485c0.48,0.02,0.37,0.63,0.38,1.14
			c-3.98,3.59-6.05,8.04-9.15,12.32c0.2,0.89-0.33,1.06-0.76,1.32c0.03,0.42,0.48,0.41,0.95,0.38c-0.62,0.75-1.03,2.38-2.48,1.71
			C827.31,197.585,830.51,192.735,835.24,187.485z"/>
		<path style="fill-rule:evenodd;clip-rule:evenodd;fill:#7C4697;" d="M876.02,187.646c-4.65,6.64-7.29,16.35-10.48,25.01
			c-1.79-0.76-0.03-2.98,0.38-4.16c1.6-4.62,3.31-9.1,4.95-13.65c1.75-2.41,2.25-4.9,4.01-7.2c0.27,0.01,0.54,0.03,0.57-0.19
			C875.76,187.396,875.78,187.636,876.02,187.646z"/>
		<path style="fill-rule:evenodd;clip-rule:evenodd;fill:#7C4697;" d="M838.48,190.326c0.41,0.52-0.11,0.79,0.19,1.33
			c-2.3,2.51-4.68,5.73-6.67,8.72c-1.1,1.64-1.84,2.89-3.05,4.74c-0.79,1.2-0.57,0.55-0.57,1.7c-0.01,0.91-0.82,1.99-1.91,1.9
			c-0.16-0.16-0.11-0.52-0.38-0.57c3.48-6.05,8.3-11.96,11.81-17.82H838.48z"/>
		<path style="fill-rule:evenodd;clip-rule:evenodd;fill:#7C4697;" d="M740.52,194.875h0.57c2.04,3.41,3.08,7.81,5.53,10.8
			c-0.11,1.13,0.33,1.69,0.19,2.85c-0.37,0.34-1.76,0.64-2.29,0.19c0.14-0.63,1.15-0.38,1.53-0.76c-2.34-3.17-3.6-8.76-6.1-11.75
			C739.47,195.596,740.79,195.465,740.52,194.875z"/>
		<path style="fill-rule:evenodd;clip-rule:evenodd;fill:#7C4697;" d="M730.77,233.346c-2.63,4.09-5.73,7.72-9.15,11.38
			c0.69,1.16-0.94,2.86-2.48,3.03c-0.15-0.22-0.25-0.51-0.19-0.95c2.22-2.86,5.73-6.8,8.39-10.23
			C728.6,234.946,728.65,233.766,730.77,233.346z"/>
		<path style="fill-rule:evenodd;clip-rule:evenodd;fill:#7C4697;" d="M771.58,239.036h0.39c3.82,3.02,7.98,5.7,12.76,7.77v1.33
			c-0.92,0.41-2.25,0.41-3.62,0.38c0.44-0.71,1.65-0.64,2.48-0.95c-3.76-1.82-7.27-3.89-10.67-6.07c-0.33-0.49-0.47-1.17-1.34-1.13
			V239.036z"/>
		<path style="fill-rule:evenodd;clip-rule:evenodd;fill:#7C4697;" d="M713.27,275.996c0.22,0.03,0.16,0.34,0.19,0.57
			c-1.53,0.56-1.22,2.95-2.67,3.6c-0.18,2.01-2.32,3.43-2.48,5.49c-1.13,0.26-0.75,2.03-2.28,1.9c-0.54-1.31,0.69-1.91,1.33-2.66
			c1.45-1.69,1.96-4.43,3.62-5.87c-0.15-1.04,0.64-1.14,0.57-2.09C712.16,276.656,712.72,276.326,713.27,275.996z"/>
		<path style="fill-rule:evenodd;clip-rule:evenodd;fill:#7C4697;" d="M800.93,286.386c1.04-0.1,2.19,0.19,2.48,1.33
			c-0.45,0.79-2.19,1.44-3.24,0.38C800.78,287.875,800.37,286.646,800.93,286.386z"/>
		<path style="fill-rule:evenodd;clip-rule:evenodd;fill:#7C4697;" d="M810.27,288.875c0.06,0.76-0.34,1.06-0.19,1.9
			c-0.51,0-1.09,0.07-1.33-0.19v-1.14C809.65,289.656,809.45,288.755,810.27,288.875z"/>
		<path style="fill-rule:evenodd;clip-rule:evenodd;fill:#7C4697;" d="M805.48,297.976c0.82,1.22-0.521,3.76,0.38,5.69h-1.34
			C803.99,301.956,804.55,299.346,805.48,297.976z"/>
		<path style="fill-rule:evenodd;clip-rule:evenodd;fill:#7C4697;" d="M816.94,310.295c-0.32,0.63,0.07,1.96-0.95,1.9
			c3.64,1.61,5.93,4.58,9.91,5.87c0.04,0.9,1.04,0.86,0.95,1.9c-0.43,0.37-1.43,0.16-1.9,0v-0.76c-3.49-2.01-6.35-3.56-8.96-6.26
			c-1.37-0.22-1.67,0.62-2.29,1.14c3.04,3.42,7.64,5.29,11.63,7.77c0.82-0.02-0.32-0.81,0.57-0.76c0.75-0.11,0.22,1.04,0.38,1.52
			c-2.11,0.79-3.21-1.17-4.76-1.9c-1.46-0.67-3.18-1.06-4.58-2.08c-1.51-1.11-2.6-2.48-3.81-3.41c-0.77-0.13-1.09,0.18-1.71,0.19
			c-0.2-0.25-0.19-0.7-0.39-0.95c-1.8-1.24-3.16-2.92-4.57-4.55c0.04-1.53-1.49-2.98,0-3.6c0.65,3.37,5.07,9.2,8.58,4.74
			c-0.73-0.55-1.25-1.29-2.1-1.71c-0.58-2.45-2.67-3.41-3.43-5.68c0.12-0.27,0.73-0.03,0.76-0.38
			C812.7,305.806,813.75,308.926,816.94,310.295z"/>
		<path style="fill-rule:evenodd;clip-rule:evenodd;fill:#7C4697;" d="M807.38,321.666h0.57c0.08,0.4-0.13,0.5-0.19,0.76
			C807.43,322.375,807.33,322.096,807.38,321.666z"/>
		<path style="fill-rule:evenodd;clip-rule:evenodd;fill:#7C4697;" d="M799.22,335.886h0.57c-0.44,1.33-0.01,3.52-0.95,4.36
			c-0.39,4.41-1.39,7.58-2.48,11.75c-0.33,1.27-1.24,2.45-1.53,3.79c-0.43,2.03,0.43,4.8-1.52,6.25c-1.12-0.47,0.01-1.74,0.19-2.65
			c0.41-2.13,0.38-3.65,0.95-5.5C796.13,348.485,798.14,342.226,799.22,335.886z"/>
		<path style="fill-rule:evenodd;clip-rule:evenodd;fill:#7C4697;" d="M731.37,256.476c1.93-2.57,1.91-4.98,1.72-9.29
			c-0.5-0.52-0.71-1.32-1.34-1.71C731.13,249.636,731.65,252.625,731.37,256.476z M766.82,261.206c0.27,0.53,0.93,0.09,0.95,1.14
			c-1.24,2.32-1.71,4.21-1.71,7.2c-0.01,4.72,0.53,9.85,0.19,14.98c-0.56,8.36-2,17.13-2.67,25.96c-0.34,4.47,0,9.35,0,13.46
			c0,8.92,1.05,17.71,1.33,26.15c1.6-0.17,2.05,1.91,0.39,2.46c1.24,4.77,0.77,8.71,1.52,14.79c2.54,0.96,3.83,2.24,5.53,3.79
			c-0.46-7.08,0.52-14.24-2.1-20.66c0.08-0.67,0.83-0.38,0.38-1.14c-1.2-8.25-1.84-17.43-1.71-26.34
			c0.25-17.52-0.07-34.37,0.95-50.22c-1.21-1.53-0.4-3.66-0.38-5.5c0.05-5.58-1.53-11.52-1.34-16.11c-0.03-0.54-0.9-0.24-0.76-0.95
			c0.86-1.66-0.19-3.39-0.19-5.3c-0.24-0.02-0.26-0.25-0.57-0.19C766.43,251.186,766.1,254.576,766.82,261.206z M731.95,244.726
			c0.47-0.03,0.91-0.03,1.14,0.19c-0.27-0.79,0.54-1.47,0-1.9C732.76,243.636,732.34,244.166,731.95,244.726z M732.52,242.065
			c1.04-0.57,1.68-3.81,0.76-4.55C733.43,239.315,732,240.545,732.52,242.065z M766.44,243.206c1.29-1.55,0.17-5.02,0.38-7.39
			c-0.04-0.15-0.16-0.22-0.38-0.19C765.77,238.076,767.01,240.496,766.44,243.206z M766.44,234.485c0.16-1.08,0.38-3.87-0.38-3.79
			C766.37,231.596,765.45,233.656,766.44,234.485z M735.95,205.676c0.38,3.59-0.99,8.58,0,12.51c1.64-3.62,1.29-10.57,1.14-13.83
			C736.81,204.896,736.39,205.295,735.95,205.676z M767.01,210.605c0.4-3.43,0.48-5.68-0.19-7.96
			C767.1,205.476,766.37,208.755,767.01,210.605z M735.95,203.976c0.97-0.8,1.65-1.89,2.47-2.84c-0.53-0.54-0.79-1.36-1.52-1.71
			C736.06,200.855,736.39,201.875,735.95,203.976z M760.53,251.355c1.15-2.29,3.02-4.33,4.77-6.63c-0.11-2.69,0.3-4.73-0.19-7.02
			c-2.28,3.24-4.49,7.38-7.06,11c-0.76,1.07-1.52,2.86-3.05,3.03c-0.29-0.67,0.11-0.85-0.19-1.52c1.84-0.7,2.27-2.8,4.01-3.6
			c-0.05-0.24-0.38-0.19-0.39,0c1.94-3.13,4.48-7.3,6.68-10.8c-0.56-4.64,0.57-10.58,0.38-14.41c-3.01,3.38-5.57,8.54-8.39,12.7
			c0.26,1.01-0.1,2.86-1.9,2.85c-0.46-0.64-0.12-1.8,0.76-1.71c1.41-3.19,3.68-7.06,5.91-10.42c0.29-0.45,0.53-1.25,0.76-1.52
			c0.13-0.16,0.63,0,0.76-0.19c0.15-0.22-0.01-0.79,0.19-1.14c-0.1,0.18,1.15-0.99,1.33-1.32c1.18-2.1,0.43-5.52,0.58-8.53
			c-4.91,2.39-6.64,7.93-10.29,11.56c-0.47,1.07-0.78,2.81-2.1,2.46c-0.25-1.91,1.78-3.14,2.86-4.36c1.69-3.13,4.71-6.8,7.24-9.85
			c0.98,0.03,1.18-0.72,2.29-0.57c0.04-5.94-0.22-10.89,0.95-15.73c0.78,0.18,1.22-0.47,1.71,0c0.4,6.08-0.18,14.2-0.19,20.85
			c0.66-0.85,0.54-1.71,1.34-2.09c5.03,3.02,9.94,6.16,15.24,8.91v1.33c-0.78,0.02-1.19-0.33-2.09-0.19
			c-0.03-0.34,0.23-0.4,0.19-0.76c-4.65-2.64-9.35-5.24-13.72-8.15c-0.52,1.35-2.3,7.54-0.96,8.91c1.83,1.85,4.2,2.36,6.86,3.98
			c0.62,0.37,1.47,1.43,2.48,2.08c1.47,0.94,4.15,2.15,1.15,3.03c0.15-1.72-1.91-1.97-3.44-3.03c-0.41-0.29-0.57-0.9-0.95-1.14
			c-2.05-1.27-4.72-2.05-6.29-3.6c-0.9,2.01-0.1,5.68-0.19,7.58c0.06,0.26,0.48,0.16,0.77,0.19c0.04,0.68-0.58,0.7-0.58,1.33
			c0.47,4.29-0.11,8.77,0.77,12.7c0.19,0.86,0.66,2.52,1.33,3.03c2.85,2.16,7.28,3.91,10.86,5.69c0.52,1.4-0.33,1.89-1.71,1.89
			c-0.3-0.74,0.49-0.39,0.57-0.76c-3.06-2.07-7.32-3.96-10.29-5.49c-0.09,3.1,0.16,5.76,0.95,8.53c1.16,0.86,2.81,1.25,3.62,2.46
			c3.37,1.39,5.82,3.69,9.34,4.93c1.13,1.65,3.88,1.7,4.76,3.6c-1.38,1.44-4.09-0.21-5.71-0.38c0.84-0.91,3.1,0.3,3.81,0.19
			c-5.35-3.48-9.61-5.81-15.44-8.91c-0.63,0.62,0.51,0.45,0.38,1.14c0.07,2.02-0.5,3.42-0.38,5.49c2.79,3.68,8.19,6.22,13.34,8.15
			c-0.04,0.61,0.34,0.81,0.19,1.52c-0.78,0.41-1.54-0.03-1.71-0.76c-4.49-1.86-8.1-3.97-11.63-6.44
			c-0.09,7.17-0.97,15.13-0.76,22.93c0.5,18.63-1.34,38.02,1.71,55.53c1.75-1.19,3.49,1,4.96-0.38c1.1,0.05,1.44,1.42,2.67,0.76
			c0.65,2.13,0.55,5.01,1.33,7.01c3.35-1.23,8.18-1.04,12.01-1.32c0.26,0.24,0.11,0.89,0.38,1.13c-0.22,0.67-1.11,0.67-1.53,1.14
			c-0.03,1.87-0.47,3.52,0.2,5.5c1.87-0.07,4.52-0.24,5.9-1.33c0.16-0.73-0.92-0.22-0.76-0.95c1.97-1.19,1.69-5.26,2.48-8.15
			c1.04-3.79,2.64-7.38,3.62-11.37c0.61-2.5,0.05-5.41,1.71-7.77c0.21,7.23-3.1,13.91-4.76,20.28c-0.62,2.36-0.521,5.66-0.57,7.58
			c1.59,0.07,2.34-1.05,3.43,0c-0.55,2.46,0.15,3.59,0.57,5.88c3.43,1.02,7.25-0.38,10.48-0.76c-0.13-0.43-0.7-0.83-0.19-1.33
			c-0.02-0.49-0.74-0.27-0.76-0.76c-2.57-6.27-4.32-16.12-6.48-23.69c-0.56-1.97-0.96-3.93-1.14-5.87c0.52,0.51,0.18-0.28,0.57-0.38
			c0.87-0.02,0.38,0.56,0.19,0.95c3.22,8.79,4.21,19.81,7.81,28.23c1.85-0.06,3.21-0.59,4.19-1.51c-2.63-6.28-3.96-15.48-7.05-20.85
			c-0.39-2.39-2.06-4.51-1.52-7.2c4.02,8.26,6.5,19.68,10.29,28.81c-0.07,0.62-0.56,0.83-0.95,1.13c0.02,0.68,0.7,0.69,0.57,1.52
			c3.02-0.77,5.26-1.27,8.19-0.19c1.2,2.22-1.02,3.43-1.9,4.74c-2.6-1.03-4.75-0.45-7.43,0.19c0.74-2.45,4.09-2.47,6.67-1.71
			c0.82-0.24,1.55-1.41,1.33-2.08c-2.03-1.02-5.29-0.11-6.86,0.57c-1.14-0.48-1.54-1.94-1.72-2.85c-1.15,0.24-2.51,0.28-3.43,0.76
			c0.13,1.39,1.44,1.61,2.48,2.09c0.4,2.88,0.76,5.81,1.53,8.33c-0.53,0.43-0.74,1.17-1.91,0.95c0.22-2.44-0.22-5.02-0.95-7.58
			c-3.87-1.79-9.66,1.22-13.15,0.57c0.18-2.99-0.72-4.34-1.72-6.44c-2.99,0.39-5.21,1.16-8,2.08c-0.89-0.19-1.19-0.97-2.1-1.14
			c-0.34-2.65-0.04-3.93-0.19-6.82c-2.61,0.03-4.3,0.02-7.05,0.38c-1.11,0.5-2.52,1.77-3.81,0.95c0.46-2.38-1.09-4.59-1.15-6.45
			c-1.01-1.2-4.02-1.72-6.28-1.13c1.3,6.37,1.84,14.9,1.52,21.41h-1.91c-1.35-1.86-2.39-3.25-4.19-4.36
			c-0.79,0.17-0.03,1.87-1.14,1.71c-1.16,0.02-0.29-1.99-1.34-2.09c-0.08-0.4,0.28-0.36,0.58-0.37c0.17-4.99-0.71-11.87-1.15-15.36
			c-1.6-0.07-2.98,0.07-4.38,0.19c-0.72,3.4-0.63,7.59-2.1,10.24c-3.09,0.09-6.37-2.16-10.1-0.95c0.02-0.27,0.03-0.54-0.19-0.57
			c-1.49,0.06-3.68-0.08-4.57,0c0.35,3.45,1.82,7.3,0.57,10.8c-3.36,0.79-5.61-1.07-9.34-1.13c0.2-0.79,0.13-0.91-0.76-0.95
			c-0.36,1.59,0.44,4.38,0.38,6.63c-4.19,0.69-7.19,1.66-11.62,2.28c0.19-10.8,0.85-20.16,0.76-31.08
			c-0.02-2.54-0.68-5.05-0.76-7.58c-0.14-3.96,1.13-8.13,0.76-12.51c-0.69-8.19,0.39-16.7,0.38-24.83
			c-0.01-4.74,1.1-9.09,1.91-13.84c1.07-6.37,1.17-12.98,2.09-19.33c-1.86,0.55-1.03,4.49-3.43,5.31c-1.26-1.71,0.77-3.4,1.72-4.74
			c1.08-1.53,2.04-3.06,2.86-4.17c-0.04-0.72,0.15-0.07,0.57-0.19c1.26-3.22,0.59-7.87,1.33-10.99c-3.33,1.47-5,7.72-8,10.61
			c-0.26,0.48,0.75,0.6,0.19,0.76c-0.83,1.13-1.11,2.82-3.05,2.84c-0.32-0.74-0.32-0.58,0-1.32c3.87-3.97,5.51-9,8.76-13.08
			c1.05,0.15,1.15-0.63,2.1-0.57c-0.12-1.98-0.03-4.51,0-6.63c-1.38,0.52-1.28,2.51-2.67,3.03c-0.3,1.75-0.99,3.81-2.86,3.41
			c-0.26-1.72,1.55-2.5,2.48-3.79c1.14-1.58,2.1-3.53,3.24-5.12c0.29-0.4,0.02-1.23,0.19-2.08c0.34-1.7,1.23-3.49,1.53-5.31
			c0.75-4.52,0.51-9.28,1.33-13.45c-2.44,2.43-5.3,6.1-7.81,9.09c0.65,0.39,1.38-0.77,1.9-1.13c-0.21,1.52-2.35,3.6-4.19,3.03
			c3.41-7.21,11.64-9.37,10.86-20.09c-4.17,2.11-4.82,7.72-8.76,10.04c-0.03-0.35-0.65-0.11-0.77-0.37v-0.76
			c3.73-2.56,5.6-7.9,9.53-10.81c0.09-2.11,0.27-3.39,0.38-5.87c-1.55,1.42-2.76,3.19-4.38,4.55c-0.41,1.41-1.33,2.94-2.86,2.65
			c-0.31-0.42,0.04-1.03-0.19-1.14c3.07-2.02,4.49-4.97,7.43-7.39c0.13-1.88-0.39-3.32-0.19-4.74c0.29-1.96,1.77-2.75,2.67-4.35
			c-3.2,2.17-5.97,6.24-7.81,10.04c-1.77,0.45-0.89,3.54-3.24,3.41c-0.57-1.03,0.19-1.8,0.95-2.08v-0.95
			c3.57-4.21,6.23-8.7,10.1-12.89c0.98-0.01,1.53-0.89,2.48-0.38c-0.53,1.28-0.74,1.62-0.57,2.66c-0.5,0.85-1.09,1.08-0.38,1.89
			c0.35,0.41,1.12,0.4,1.9,0.38c-0.41,2.67-2.22,3.63-2.29,6.25c-0.1,4.14,3.89,7.61,5.91,10.43c-0.23,0.53-1.17,0.35-1.9,0.38
			c-0.79-2.45-3-3.46-3.81-5.88c-0.33,0.93-0.93,4.67,0,5.5c-0.07,0.56-0.31,0.96-0.58,1.33c2.58,1.79,5.52,4.84,8.2,7.2
			c0.78,0.69,1.66,1.38,1.71,2.84c-0.8,0.32-1.18,0.04-2.28,0.19c-0.3-0.87,0.79-0.35,0.76-0.95c-3.12-3-5.5-5.61-9.15-7.96
			c-0.67,2.68-2.16,5.27-1.71,7.96c0.53,3.22,4.05,5.41,5.14,8.15c0.98,1.27,2.521,0.92,2.67,2.84c-0.6,0.5-1.48-0.43-1.91,0
			c-2.17-2.7-4.1-5.64-6.09-8.52c-0.88,1.47-0.71,5.46-0.77,7.77c0.49,0.86,1.68,0.49,2.48,0.19c0.16,0.53-0.27,0.49-0.19,0.94
			c3.67,2.51,5.78,6.83,9.53,8.72c0.12,0.69-0.13,1.01-0.38,1.33c-0.66,0.15-0.73-0.28-1.34-0.19c-0.16-0.22-0.25-0.51-0.19-0.95
			c-3.14-2.18-5.09-5.55-8.19-7.77c-2.12,1.38-1.59,4.32-1.91,7.58c0.73,1.56,1.95,2.61,2.86,3.98c0.23,0.28,0.73,0.29,0.95,0.57
			c1.21,2.71,4.4,3.46,5.15,6.63c-0.32,0.32-1.12,0.15-1.72,0.19c-0.15-0.53,0.27-0.49,0.2-0.94c-2.69-2.58-5.1-5.43-7.63-8.15
			c0.62,5.58-1.87,8.13-2.28,12.5c1.27,0.23,1.3-2.08,1.14-3.03c0.82,0.19,1.27,0.45,2.1,0.19c0.25,0.4-0.1,0.56,0.19,1.14
			c3.63,2.63,6.41,6.13,9.52,9.28c-0.02,0.55,0.11,1.25-0.19,1.52c-0.85,0.29-1.84-0.43-2.47-0.95c0.02-0.41,0.48-0.4,0.95-0.38
			c-2.64-3.06-5.37-6.03-8.58-8.52c-1.71,1.13-2.37,3.32-4,4.54c-0.36,1.59,1.16,3.17-0.19,3.98c-0.64-0.43-0.74-1.41-0.95-2.27
			c-0.31,0.57-1.09,1.04-1.15,1.9c-0.37,6.16-1.61,15.41-2.66,23.12c-0.49,3.53-0.82,7.62-0.96,11.37
			c-0.29,7.78-1.38,15.95-0.76,23.5c0.33,3.97-0.49,8.91-0.57,13.27c-0.03,1.61,0.46,3.29,0.57,4.92
			c0.75,10.75-0.33,22.09-0.57,32.22c2.97,0.16,6.07-1.16,8.96-1.7c-0.33-1.77,0-3.13-0.38-4.93c-0.81-0.21-1.78-0.25-2.1-0.95
			c0.22-0.73,0.5-1.39,1.52-1.33c-0.7-5.19-0.6-11.01-0.38-15.54c0.14-2.9,0.01-8.97,0-12.5c-0.01-3.63,0.83-6.57,0.96-9.86
			c0.16-4.19-0.28-8.46,0.38-12.51c0.75-4.65,1.57-9.76,1.9-14.59c0.12-1.69-0.06-3.51,0.19-5.12c0.2-1.23,0.89-2.52,0.96-3.79
			c0.07-1.46-0.46-2.95-0.39-4.36c0.08-1.42,0.47-2.73,0.58-4.17c0.42-5.79-1.34-11.51-1.53-17.43c-0.71-1.12-3.24-1.25-2.48-3.23
			c1.28-0.19,1.1,1.06,2.1,1.14c0.14-0.78-0.84-0.85-0.19-2.08h1.52c0.89,1.35-0.3,1.52,0,3.22c3.94,3.48,9.42,5.42,13.15,9.1
			c-2.77,1.1-3.93-2.65-6.48-3.04c-0.09-0.28-0.28-0.47-0.38-0.75c-2.14-0.78-4.26-1.57-5.52-3.23c-0.88,4.96,1.19,9.8,1.14,14.79
			c-0.01,1.08-0.45,2.13-0.57,3.22c-0.22,2.04,0.27,4.05,0.19,6.06c-0.1,2.46-0.99,5.02-1.14,7.58c-0.24,3.81-0.76,7.21-1.15,10.43
			c-0.11,0.89,0.28,1.8,0.19,2.65c-0.26,2.5-1.14,4.73-1.14,7.2c0,0.94-0.07,1.76-0.19,2.85c-0.26,2.36,0.29,4.64,0.19,7.01
			c-0.07,1.59-0.77,3.15-0.95,4.74c-0.16,1.33,0.17,2.66,0.19,3.98c0.14,9.72-0.82,19.26,0.38,28.8c1.12,1.04,3.18,1.14,5.33,1.14
			c0.35-0.6,0.18-1.72,1.34-1.52c0.29,0.35,0.29,1.55,0,1.9c0.98,0.65,2.17,0.53,3.05,0c0.03-0.48-0.43-0.46-0.57-0.76
			c1.51-2.21-0.6-6.33-0.96-9.1c0.58,0.07,0.4-0.61,0.57-0.94c5.4,0.55,10.73,0.4,15.06,1.89c1.72-3.42,0.6-6.62,2.29-10.42
			c1.9-0.03,2.96-0.21,4.76,0c0.16-6.12-0.83-12.96-1.14-19.71c-0.47-9.97-0.62-17.16,0.57-26.72c1.04-8.36,2.05-16.24,2.29-24.64
			c0.15-5.28-0.72-9.05-0.19-12.7c-0.98,1.07-2.1,2.21-3.24,3.6c-1.72,2.1-2.35,5.37-4.77,6.82c-0.08-0.23-0.24-0.39-0.57-0.38
			c1.33-3.18,3.73-5.05,5.15-7.77c0.44-0.37,0.21,0.05,0.57,0.19c0.93-2.74,2.54-3.75,3.81-6.25c-0.89-2.43-1-4.29-1.14-7.39
			c-1.08,0.39-1.31,1.61-2.29,2.08c-0.73,2.79-3.56,5.75-4.96,8.53c-0.47,0.95-0.28,3.09-2.09,2.46c-0.26-0.43,0.49-0.71,0-0.75
			c2.76-3.74,4.81-8.38,7.62-12.51c0.71,0.01,0.58-0.82,1.52-0.57c0.48-1.89,0.33-5.83,0.39-8.53c-2.79,2.6-4.57,6.2-6.67,9.48
			c0.22,1.51-0.14,2.51-1.91,2.46C757.22,255.636,759.74,252.726,760.53,251.355z"/>
		<path style="fill-rule:evenodd;clip-rule:evenodd;fill:#7C4697;" d="M794.61,320.156c1.49,0.66,2.68,1.63,4,2.46
			c-0.15-2.66,0.56-5.64,0.77-8.15c0.03-0.36-0.29-0.95-0.19-1.33c0.11-0.45,0.52-0.51,0.57-0.94c0.3-2.54-0.46-4.98,1.14-6.83
			C794.7,304.536,793.08,314.446,794.61,320.156z M814.05,294.375c-0.19,0.57,0.43,0.34,0.76,0.38v-0.57
			C814.45,294.146,814.39,294.396,814.05,294.375z M796.709,291.156c0.45,0.24,0.7,0.69,1.521,0.57v-0.76
			c-1.63,0.23,0.3-0.92-0.76-1.14c0.14,0.31-0.38,0.83-0.38,0.38c-0.14-0.72,0.88-1.02-0.19-1.14
			C796.67,289.605,796.69,290.375,796.709,291.156z M805.67,321.286c-3.23,2.68-4-2.51-5.15-4.73c-0.43,2.1-0.6,4.27-0.76,7.01
			c0.17,0.52,0.67-0.34,0.95,0.19c0.13,0.7-0.67,0.47-0.95,0.76c0.46,2.61,0,4.92,0,7.39c2.03-0.73,4.93,1.14,6.86,0.57
			c0.58-0.18,0.67-0.94,1.52-0.95c-0.14-0.18-0.34-0.29-0.57-0.38c1.18-1.37,0.09-4.37,0.38-6.26c-0.15-0.92-1.35-0.8-1.14-2.08
			c3.56,1.64,4.67,5.72,8.77,6.82c0.7,0.2,0.37-0.64,0.76-0.76c1.07-0.05,1.32,0.71,2.28,0.76c-2.79-2.78-6.06-5.09-9.71-7.01
			c0.11-0.95-1.01-0.93-1.15-2.08c5.01,2.4,8.72,6.11,13.15,9.09c-0.04,0.61,0.34,0.8,0.19,1.52c-0.82,0.88-3.19,0.73-3.81-0.19
			c-3.82,0.32-6.04-2.41-8-4.55c-0.73,1.39,0.67,5-0.19,6.63c-0.61,0.17-0.59-0.29-0.96-0.38c-1.9,2.9-6.32-0.23-9.53,0.95
			c-0.53-2.63,0.36-5.86,0-9.47c-1.32-1.18-3.84-1.66-4.76-2.66c-2.47-6.95-0.24-15.91,5.91-18c0.77,0.11,1.22,0.55,2.09,0.57
			c0.88-2.45-1.21-6.91,0.77-8.53c-1.25-0.97-2.91-1.54-3.62-3.03c-0.88,0.87-2.31,0.22-3.44-0.19c-0.29-2.47,0.12-4.47,1.91-5.31
			c-0.09-0.92-0.36-3.45,0.76-4.17c0.93,1.33,0.27,2.32,0.38,3.79c0.2,2.63,1.03,5.33,3.05,6.82c0.4,0.29,1.1,0.18,1.53,0.38
			c0.46,0.22,0.81,0.92,1.9,0.95c3.7,0.1,5.36-3.15,7.25-5.5c-0.04-0.32-0.86-1.32,0-1.32c-6.13-0.85-12.39-4.34-12.2-9.1
			c1.06,0.84,1.43,2.37,2.29,3.41c2.61,2.01,5.27,3.98,9.33,4.55c0.6-0.04,0.33-0.94,0.39-1.52c-3.99,1.5-8.08-3.17-7.82-7.2
			c2.09,2.42,2.95,7.03,7.43,6.45c-0.09-2.37-3.55-4.06-3.05-6.83c1.86,1.47,2.79,4.56,5.34,4.74c-1.9,1.94,1.12,5.17-0.57,7.2
			c1.1,0.85,2.99,1.52,3.05,3.41c0.1,3.04-3.92,4.33-4,0.76c0.67-0.6,1.39-1.14,2.47-1.32c-0.37-0.72-0.92-1.38-1.71-1.33
			c-1.1,0.07-1.4,1.83-2.29,2.65c-0.44,0.41-4.05,2.39-5.33,2.47c-0.98,0.05-1.29-0.85-2.86-0.19c0.21,2.53-0.03,5.58,0.95,7.77
			c-2.43,1.34-2.9,4.98-3.05,8.9c0.03,0.42,0.48,0.41,0.95,0.38c-1.23,3.07,1.36,4.92,2.1,7.21c1.81-0.04,2.19-1.49,3.62-1.9
			c-1.43-3.36-3.63-4.55-4.38-7.96c2.34,0.99,3.27,4.15,4.76,6.07c0.71,0.91,2.79,1.73,1.53,3.22c-1.37-0.53-1.8,0.81-3.05,0.94
			c-0.21,1.17,0.13,1.62,0.19,1.9C805.67,322.676,806.03,321.625,805.67,321.286z"/>
		<path style="fill-rule:evenodd;clip-rule:evenodd;fill:#7C4697;" d="M883.26,263.076c0.83,0,0.85-2.62,0.19-2.85
			C882.9,261.056,883.09,262.426,883.26,263.076z M878.69,245.255c0.16,8.14-0.53,15.66-0.96,23.88c0.82,0.35,1.66-1.68,2.86-0.95
			c-0.61,1.29-2.08,1.72-3.05,2.66c0.11,5.85-1.09,10.04-1.33,15.35c-0.15,3.21,0.01,6.45-0.38,9.67c-0.38,3.06-0.98,6.17-0.95,9.09
			c0.06,6.67,0.66,12.33,0.38,18.39c-0.17,3.48-0.88,6.87-1.15,10.42c-0.22,3,0.14,6.09,0,9.1c-0.36,7.85,0.44,15.91,1.15,22.55
			c3.19-1.06,7.39-0.06,9.72-2.08c0.34-3.54-0.78-6.31-1.15-9.48c-0.66-5.79-1.08-11.49-0.95-17.25c0.13-6.03-1.03-10.96-1.14-16.3
			c-0.24-11.57,0.71-23.56,2.09-34.68c-0.9-3.36,0.04-7.58-0.57-10.99c-1.15-0.59-1.37-1.13-2.67-1.33
			c-0.62-0.67,0.07-1.48-1.14-1.51c1.82-0.79,2.33,0.68,3.81,1.13c-0.68-2.14,0.11-4.77-1.33-6.63c-0.04-0.61,0.39-0.56,0.57-1.33
			c-0.25-1.68-1.13-3.2-0.95-4.74c0.93-0.28,1.79-0.25,2.09-0.75c-0.17-0.47-0.53-2.37-0.38-3.79c-0.6-0.92-1.77-1.27-2.29-2.28
			c0.05-0.78,0.29-1.35,0.96-1.51c0.25,0.33-0.08,1.65,1.14,1.51c-0.47-4.11-0.04-8.13,0-12.32
			C880.7,241.146,880.459,243.815,878.69,245.255z M878.5,234.646c0.55,0.68,1.21-1,1.52,0c-2.77,1.34-0.83,5.28-1.33,8.72
			c1.69-0.9,1.99-4.01,4.19-3.79c-0.47-9.4-0.11-14.88-0.95-23.31c-1.22-0.12-1.56-1.11-2.48-1.52
			C879.26,221.896,878.05,227.585,878.5,234.646z M880.209,206.786c-0.36,2.31-0.96,5.22-0.38,7.39c-0.05-0.43,0.05-0.71,0.38-0.76
			c0.45,0.44,0.82,0.96,1.53,1.14c-0.33-5.29-0.31-10.14-0.77-15.73c-0.24-0.01-0.26-0.24-0.57-0.19
			C880.17,200.795,879.27,204.266,880.209,206.786z M878.69,208.116c-5.33,3.79-9.48,10.76-14.3,15.35
			c0.08,1.47-1.31,3.23-2.85,3.03c-0.46-1.24,1.09-2.68,2.28-3.41c0.29-1.61,2.58-2.04,2.48-3.41c2.15-1.53,3.28-4.07,5.34-5.69
			c0.95-2.29,3.92-4.17,5.52-6.44c0.6-0.1,0.84-0.56,1.53-0.57c-0.24-3.21,0.73-6.22,0.38-8.91c-1.07,0.6-1.18,2.13-1.91,3.22
			c-2.29,3.44-5.29,7.22-7.43,10.81c0.82,1.55-0.54,3.25-2.29,3.41c-0.17-0.34-0.53-0.48-0.38-1.14
			c3.83-5.89,8.21-11.62,11.82-18.57c-0.15-0.87-0.75-1.28-0.76-2.28c0.39-0.11,0.61-0.4,0.95-0.57c0.69,0.01,0.39,1.01,0.76,1.33
			c1.31-1.92,2.83-3.63,4-5.68c-0.5-1.15-2.34-0.96-2.28-2.66c1.31-0.43,1.91,1.17,3.04,1.52c1.22,0,0.6-1.81,2.1-1.52
			c0.4,0.85-0.39,1.96-0.95,2.47c2.66,3.1,5.4,6.12,7.62,9.66c1.47,1.2,1.98,3.34,3.81,4.17c-0.17,0.44-0.17,1.56-1.33,1.52
			c-0.28-0.85-2.04-1.05-2.86-1.9c0.45-0.31,1.17,0.39,1.91,0.38c-2.94-4.6-6.19-8.88-9.91-12.7c-1.58,0.75-1.61,1.87-2.67,3.04
			c1.23,2.32-0.7,3.68,0,6.44c0.69,2.75,4.27,5.54,5.14,8.53c1.16,0.93,2.04,2.42,3.05,3.6c0.44,0.51,0.71,0.82,1.34,1.51
			c0.57,0.64,2.9,1.62,1.9,3.42c-4.38-3.86-8.04-8.73-11.05-14.41c-0.41,3.05,0.05,9.74,0.38,14.22c5.07,4.62,10.4,8.99,16.01,13.07
			c0.08,0.66-0.08,1.07-0.19,1.52c-2.5-1.37-3.88-3.85-6.67-4.93c-0.51-1.32-2.15-1.53-2.67-2.84c-2.55-0.94-3.61-3.36-6.1-4.36
			c-0.22,1.29,0.15,3.64,0,5.5c3.83,4.9,9.39,9.4,15.82,12.32c-0.15,0.16-0.21,0.42-0.19,0.75c-0.63,0.49-1.33-0.22-2.29,0
			c-0.08-0.36-0.41-0.47-0.38-0.94c-5.02-2.34-8.87-5.83-12.58-9.48c-0.06,3.73-0.17,8.83,0.19,13.46c0.64,0.5,1.26,1.02,2.29,1.13
			c4.19,4.49,10.22,7.15,15.44,10.62c0.49-0.19,1.14-0.04,1.71,0.19c0.22,0.53,0.22,0.98,0,1.51c-0.28,0.11-0.979-0.22-0.95,0.19
			c-1.31-1.23-3.63-1.44-4.57-3.03c-1.01-0.46-2.38-0.54-2.67-1.71c-4.24-1.72-7.29-4.63-10.68-7.2c-1.11,4.04-0.67,9.02-0.19,13.08
			c1.33,1.27,3.34,1.87,4.58,3.22c1.61,0.32,3.229,1.72,5.72,2.84c1.37,0.63,5.38,1.62,4.95,2.66c-0.54,1.3-1.77-0.22-3.05,0
			c-0.07-0.5-0.57-0.57-0.57-1.14c-3.97-0.98-7.4-3.51-10.29-4.93c-0.39-0.25-0.65-0.62-0.76-1.14c-1.21,1.19,1.58,7.82-1.34,7.96
			c0.09,0.44,0.38,0.97,0,1.33c6.88,2.76,12.9,6.38,19.82,9.1c0.4,0.42,0.15,1.26-0.19,1.52c-6.76-3.13-12.25-6.38-19.44-9.1
			c-0.77,1.7,0.35,3.46,0.57,4.93c0.11,0.64-0.21,1.34,0,1.89c0.63,1.61,2.5,1.58,3.24,3.03c3.31,1.98,8.04,3.26,11.82,4.55
			c0.58,0.2,2.42,0.76,1.71,2.09c-5.93-2-11.93-3.93-16.38-7.39c-0.58,4.79,0.54,9.33-0.39,13.83c-0.8,3.95-1.02,9.53-1.14,13.27
			c-0.24,7.69-0.74,15.16,0.19,22.93c0.59,4.85,0.92,9.95,0.57,14.97c-0.23,3.39,0.6,7.62,1.15,12.32c0.41,3.6,1.89,8.32,0.57,12.32
			c-4.74,0.03-8.18,0.81-12.2,1.33c0.49-7.33-1.01-15.36-0.57-25.02c0.13-2.77-0.36-5.52-0.19-7.96c0.34-4.79,1.59-9.4,1.52-14.03
			c-0.06-4.72-0.76-11.71-0.38-17.24c0.21-3,0.91-5.95,1.15-8.91c0.22-2.83,0.03-5.63,0.19-8.34c0.27-4.86,1.45-9.36,1.14-13.46
			c-3.89,4.35-7.65,9.83-9.15,15.93c0.81-0.09,0.5-1.28,1.34-1.33c-0.47,1.37-0.84,2.82-2.29,3.22c-1.43-2.11,0.91-4.77,1.52-6.06
			c1.65-3.48,3.38-7.11,5.53-10.24c1.49-0.6,1.73-2.45,3.24-3.03c0.08-2.17,0.42-4.91,0-7.58c-5.27,3.42-8.79,9.61-12.58,14.78
			c-0.07,0.46,0.87-0.1,0.58,0.57c-0.98,1.07-1.46,3.15-3.24,2.84c-0.12-2.45,1.97-3.2,2.09-5.11c3.63-3.49,5.48-7.78,9.15-11
			c-0.02-0.9,0.77-1,0.95-1.7c1.08,0.01,1.95-0.32,2.86-0.95c0.91-3.58,1.02-9.55,1.33-14.03c0.05-0.67,0.57-1.48,0-1.89
			c-3.92,4.44-7.92,10.44-11.43,15.92c0.77,0.58,0.51-1.18,1.52-0.95c-0.91,1.18-1.01,3.16-3.04,3.22c-0.11-0.33-0.1-0.78-0.39-0.94
			c3.98-6.74,7.99-12.73,13.34-18.77c0.18-2.82-0.25-4.56-0.19-7.77c-2.42,1.57-3.68,4.3-6.09,5.88c-1.35,2.41-3.6,3.92-4.77,6.25
			c-0.65,1.3-0.53,3.29-2.48,3.41c-0.18-3.36,3.26-4.7,4.2-7.58c3.18-3.14,5.81-6.85,9.14-9.85c-0.39-6.72,0.77-14.15,0.77-20.47
			c-1.55,1.94-3,3.97-4.01,6.44c-2.27,1.98-2.84,5.64-5.14,7.58c-1.49,3.27-4.26,6.04-5.91,9.67c0.62,0.71,1.22-0.94,1.91-0.19
			c-0.92,0.6-1.35,1.69-2.86,1.71c-0.53-3.24,2.68-5.89,4.19-8.34c0.16-0.26,0.26-0.28,0.19-0.19c4.18-5.76,7.1-12.72,11.82-18.77
			C878.58,211.085,878.98,209.795,878.69,208.116z"/>
		<path style="fill-rule:evenodd;clip-rule:evenodd;fill:#7C4697;" d="M767.93,200.565c4.04,2.49,6.16,6.89,10.67,8.9
			c0.15,0.72-0.23,0.91-0.19,1.52c-1.11,0.21-1.56-0.55-2.28-0.19c0.94-1.35-1.12-2.08-2.29-2.84c-1.97-1.29-3.74-4.98-6.1-6.07
			C767.65,201.295,768.08,201.215,767.93,200.565z"/>
		<path style="fill-rule:evenodd;clip-rule:evenodd;fill:#7C4697;" d="M764.72,199.996c0.31-0.06,0.33,0.18,0.58,0.19
			c-3.51,5.74-6.5,11.02-9.72,16.49c-0.6,0.09-0.43-0.59-1.15-0.38c1.83-4.23,4.95-6.05,6.29-10.81c1.23-1.33,1.81-2.85,2.67-4.17
			C763.9,200.946,764.82,200.976,764.72,199.996z"/>
		<path style="fill-rule:evenodd;clip-rule:evenodd;fill:#7C4697;" d="M832.57,260.266c-0.31,3.37-0.07,6.81-0.19,10.42
			c-0.32,9.76,0.1,22.19-0.38,33.17c-0.19,4.12-0.76,8.1-0.96,12.13c-0.2,4.25,0.43,8.44,0.38,12.69
			c-0.09,8.46-0.03,19.13,0.58,27.49c0.5,6.81,2.87,11.64,3.05,17.43c1.31-0.65,1.91-2.01,3.24-2.65c2.56,0.21,4.82-1.35,7.05-2.09
			c-0.15-6.09-1.95-12.93-1.72-19.52c0.07-1.86,0.63-3.52,0.57-5.3c-0.06-2.09-0.71-4.3-0.76-6.45c-0.03-1.49,0.43-3.03,0.38-4.55
			c-0.06-2.09-0.85-4.01-1.14-6.06c-0.31-2.2-0.25-4.79-0.19-7.01c0.28-11.07,1.01-22.16,0.38-33.36
			c-0.39-6.83,0.35-13.99,0.38-21.04c-1.19-1.9-2.57-3.64-3.81-5.49c-0.6-2-3.24-5.49-1.33-7.02c0.91,4.28,2.82,7.56,5.14,10.43
			c-0.14-4.71-0.42-9.75,0.19-13.27c-0.95-0.38-1.06-1.59-2.29-1.7C837.44,251.585,835.58,256.496,832.57,260.266z M840.19,214.396
			c-0.71,1.51-2.75,2.58-3.43,4.55c-0.54,1.56-0.19,3.44-0.38,5.12c-0.16,1.42-1.11,2.62-0.38,3.79c1.1-2.47,1.49-5.69,3.81-6.07
			c-1.54,2.64-2.66,5.7-4.38,8.15c-0.2,3.04-0.31,8.27-0.38,11.37c1.24-0.97,2.32-3.12,4.19-2.84c-1.65,1.4-3.14,2.94-4.58,4.55
			c-0.56,5.56-1.84,9.64-2.09,15.73c2.4-3.29,4.72-7.65,8-11.37c-0.82-1.39-3.03-2.42-2.47-4.55c1.86,0.73,1.47,3.71,4.19,3.6
			c-0.52,1.01,0.34,1.78,1.33,2.28c0.46-4.53-0.13-7.1-0.19-10.81c-2.51-2.17-5-4.37-6.67-7.39c0.39-0.12,0.05-0.96,0.76-0.76
			c1.66,2.61,3.14,4.43,5.53,6.07c-2.25-6.43,0-12.25-3.05-16.87c0.4-0.44,0.78-1.21,1.14-0.19c0.07-1.37,0.05-2.69,0-4.17
			C840.69,214.666,840.73,214.246,840.19,214.396z M837.33,217.056c0.51-1.49,1.87-2.38,2.29-3.42c-0.6-0.91-1.12-1.92-1.91-2.65
			C837.95,213.246,836.75,215.076,837.33,217.056z M838.86,201.136c0.48,0.32,0.66-0.22,0.95,0.18c-0.38,0.2-0.81,0.33-0.95,0.76
			c0.36,0.08,0.82,0.07,0.76,0.57c-0.77,2.31-1.92,4.37-1.52,7.39c0.16-0.28,0.47-0.4,0.95-0.38c0.13,1.39,0.65,2.38,1.9,2.66
			c-0.03-2.44-0.17-2.94-0.19-5.5c-0.36-0.46-1.36-0.29-1.33-1.14c1.45-1.31,0.49-3.9,1.14-5.87c-0.72-0.04-0.55-0.97-1.52-0.76
			C838.99,199.746,839.209,200.726,838.86,201.136z M822.09,276.746c0.41,0.7,0.42-0.56,0.95-0.37c-0.7,1.07-0.7,2.84-2.48,2.84
			c0.27-2.26,1.31-3.75,2.67-4.93c0.62-2.16,1.69-3.5,3.24-5.31c1.2-3.1,3.31-5.3,4.95-7.96c-0.1-4.74,1.32-11.22,1.91-15.35
			c-1.41,1.16-2.32,2.98-3.43,4.55c-1.09,1.55-2.52,2.94-3.05,4.93c-2.26,1.98-2.91,5.57-5.33,7.39c-1.37-0.49-0.01-3.46,0.95-2.27
			c3.33-5.33,6.78-10.98,10.86-16.11c0.69-4.37,0.97-6.95,0.95-12.13c-3.31,5.17-7.58,9.38-10.67,14.78
			c0.95,0.24,0.71-0.68,1.34-0.76c-0.45,1.16-1.26,2.88-2.86,2.28c-0.15-0.97,0.42-1.23,0.95-1.52c3.2-6.61,8.16-10.19,11.43-16.87
			c0-2.63,0.88-5.73,0.96-9.09c-3.23,3.73-5.3,8.63-8.2,12.69c-0.85,2.51-1.771,4.93-3.81,6.26c-0.45-1.37,0.85-2.55,1.91-3.03
			c-0.08-1.26,1.47-2.57,1.71-4.55c2.46-2.34,3.33-6.6,6.1-9.1c0.18-1.53,1.36-2.06,1.72-3.41c0.36-0.14,0.13-0.57,0.57-0.19
			c1.02-4.39,0.99-7.13,1.71-12.13c-3.32,4.22-6.18,8.89-8.76,13.83v1.71c-0.81,0.28-0.8,0.37-1.53,0c2.63-7.8,7.89-11.8,11.05-19.9
			c-1.04,0.18-2.1,0.99-2.85,1.71c-1.55,1.47-2.84,3.75-4.58,5.68c-2.51,2.8-4.84,5.22-6.86,8.53c0.59,0.53,0.51-0.75,1.34-0.57
			c0,1.3-1.45,2.05-2.67,1.52c1.88-4.35,4.31-5.34,6.29-9.1c2.28-1.6,2.78-3.57,4.76-4.93c0.91-2.06,3.03-2.93,4.57-4.36
			c0.28-1.18,0.05-2.51,0.2-3.41c-0.59-0.55-1.83-1.46-1.15-2.65c0.22,0.03,0.34-0.04,0.38-0.19c0.54-0.03,0.55,0.46,0.57,0.95
			c0.64-0.38,0.07-1.96,0.96-2.09c1.52,0.78-0.96,3.27,1.52,3.98c0.76-1.13,0.1-3.49,0.38-5.49c-0.16-0.56-0.48,0.24-0.95,0
			c-0.23-2.32,0.69-3.49,0.95-5.31c1.95,0.55,2.79,3.59,4.2,5.5c0.66,0.9,1.63,1.95,2.47,3.22c1.29,0.8,2.41,1.77,3.62,2.65
			c0.15,0.59-0.52,0.37-0.38,0.95c-1.37-0.02-1.93-0.86-3.24-0.95c-0.18-0.69,0.83-0.19,0.96-0.57c-2.55-2.08-4.55-4.7-6.29-7.58
			c-0.52,2.19,0.19,5.32-0.38,8.34c1.22,1.4,4.52,1.65,4.57,3.6c-1.84-0.25-2.92-1.27-4.38-1.89c-0.7,1.59-0.31,3.88-0.19,5.49
			c3.46,4.27,7.2,8.25,12.76,10.43c-0.06,0.44-0.22,0.78-0.38,1.13c-4.84-2-8.67-5.02-11.62-8.9c-0.53,0.54-0.57,2.86,0,3.79
			c-0.11,0.68-0.32,1.27,0,1.89c0.74,0.91,1.47,1.82,2.67,2.28c0.5,1.81,3.46,2.06,2.85,4.36c-0.86,0.23-0.74-0.52-1.52-0.38
			c-0.34-2.26-2.65-2.55-3.62-4.17c-1.14,4.98,1.45,7.36,4,10.8c1.46,1.96,3.23,3.75,4.58,5.31c1.36,1.57,1.97,3.22,3.43,4.17
			c0.09,0.59-0.35,0.66-0.2,1.32c-2.46-0.45-4.28-1.55-5.33-3.41c1.37,0.6,2.19,1.74,3.81,2.09c-2.86-3.98-7.08-8.25-9.91-12.89
			c-1.04,4.47,0.74,9.35,1.33,13.45c1.97,1.84,3.99,3.62,5.91,5.5c0.84,0.36,2.04,0.38,2.1,1.52c-0.5,0.3-0.99,0.46-1.53,0.38
			c-0.65-0.11-2.33-2.12-3.05-2.85c-1.17-1.2-2.24-1.65-3.23-2.84c-0.06,3.3,0.48,7.95-0.2,10.61c3.48,3.94,7.85,6.99,11.06,11.19
			c0.09,0.59-0.59,0.42-0.38,1.13c-1.16-0.18-1.95-0.71-2.48-1.51c0.61-0.12,0.59,0.35,0.95,0c-2.78-3.58-5.9-5.72-8.95-9.1
			c-0.78,3.28-0.7,8.8-0.39,12.51c0.18,2.07,2.31,3.44,3.82,5.3c1.87,2.33,2.76,4.03,4.57,5.69c0.13,0.82-0.89,0.51-1.53,0.57
			c-1.93-3.26-4.34-6.05-6.86-8.72c-0.73,5.11,0.03,11.21,0,16.87c-0.03,7.34-0.12,14.63-0.38,21.03
			c-0.16,3.99-0.04,10.21-0.19,15.17c-0.05,1.88-0.18,4,0,5.87c0.36,3.59,1.54,6.48,1.15,10.43c-0.35,3.42,0.45,7.36,0.19,11.18
			c-0.51,7.4,0.87,14.71,1.9,21.98c-0.38,0.64-1.04,0.99-1.33,1.71c-2.84-0.02-4.97,1.72-7.82,2.27c-1.29,0.87-2.56,2.76-4,2.84
			c-1.46-0.99-0.19-2.11-0.19-3.79c0.01-2.62-1.24-5.47-1.9-8.52c-1.21-5.54-1.01-12.02-1.34-18.2c-0.36-6.84,0.25-14.04-0.19-21.22
			c-0.44-7.36,0.58-17.02,0.95-25.02c0.55-11.63-0.55-23.02,0.19-36.58c-0.15-0.04-0.19-0.19-0.38-0.19
			C828.41,266.866,825.14,272.206,822.09,276.746z"/>
		<path style="fill-rule:evenodd;clip-rule:evenodd;fill:#7C4697;" d="M646,293.996c-0.89,6.88,0.66,16.37,0.95,24.64
			c0.13,3.83,0.5,7.04,0.38,10.23c1.75-0.12,2.75,0.17,3.81-0.56c-0.33-1.47-0.35-2.67-0.76-4.36c0.49-9.09-1.23-18.23-1.91-28.43
			c-0.67-0.17-0.98,0.48-1.14-0.19c0.14-0.43,1.32,0.17,1.14-0.57c-0.22-1.19,0.18-2.76-0.57-3.79
			C647.39,292.045,646.12,293.036,646,293.996z M646.76,291.156c1.55-1.63,0.46-4.53,1.14-7.58c-0.6,0.09-0.43-0.58-1.14-0.38
			C646.709,285.755,646.19,289.025,646.76,291.156z M646.76,282.625c1.27,0.44,1.56-1.58,0.57-1.71
			C647.22,281.565,646.69,281.806,646.76,282.625z M647.14,280.545c1.02-0.06,0.53-1.65,0.57-2.47c0.05-1.01,0.14-1.81,0-2.27
			c-0.04-0.15-0.16-0.22-0.38-0.19C647.53,277.286,646.54,279.715,647.14,280.545z M647.709,272.396c0.19-0.47,0.06-0.41,0.19-1.14
			C647.08,271.125,647.28,272.246,647.709,272.396z M647.9,270.116c0.17-1.46,0.42-3.66-0.38-5.3
			C647.81,266.636,646.95,269.406,647.9,270.116z M646.57,272.775c-2.39,2.55-4.2,5.68-6.67,8.14c-0.09-0.23-0.25-0.38-0.57-0.37
			v-0.95c3.02-2.17,4.73-5.65,7.05-8.53c0.37-3.14-0.15-5.1,0.19-8.15c-0.73,0.65-1.21,1.47-1.72,2.27
			c-1.24,1.99-2.36,4.91-5.14,6.07c-0.09-0.17-0.17-0.34-0.38-0.38c-0.08-0.4,0.13-0.5,0.19-0.76c4.26-2.52,5.01-8.53,9.33-10.99
			c-1.11,3.1,4.46,5.12,6.87,7.58c0.15,0.66-0.22,0.8-0.39,1.14c-2.29-1.11-4.01-3.31-6.48-4.74c0.28,2.98,0.91,5.99,0.2,9.29
			c1.67,2.12,4.11,3.49,6.67,4.73c0.72,0.28,0.36-0.52,0.95-0.38c0.07,0.88,0.23,1.1,0,1.9c-2.77-0.59-5.66-2.54-7.82-4.36
			c-0.08,2.49-0.04,6.39,0.39,8.53c0.71,1.06,2.48,1.07,3.24,2.08c1.74,0.67,4.65,0.18,5.14,2.09c-3.06,0.18-6.01-1.33-8.38-2.46
			c-0.56,1.17,0.04,2.54-0.39,3.6c0.06,0.8,0.81-0.13,0.96,0.38c0.07,0.57-0.69,0.32-0.76,0.75c0.33,1.75,0.39,3.78,0.76,5.5
			c1.36,1.06,3.34,1.62,4.76,1.14c0.14,0.96-0.51,1.13-0.76,1.7c-1.3,0.44-2.49-0.78-3.81-0.95c-0.44,0.58,0.05,1.84,0.38,2.28
			c-0.26,4.8,0.81,9.02,0.95,13.46c0.09,2.89,0.53,7.28,0.57,10.61c0.02,1.06,0.14,2.55,0.39,3.6c0.28,1.19,1.21,2,0.19,3.22
			c-2.5-0.02-4.11,1.64-6.48,1.14c0.62-12.12-1.65-24.47-1.15-35.63c-1.47,1.63-2.14,4.06-4.38,4.93c-0.08-0.17-0.17-0.34-0.38-0.38
			c0.7-1.51,1.93-2.51,3.24-3.41c2.45-3.15,2.32-7.76,2.29-12.7c-2.39,2.18-3.39,5.73-5.72,7.96c-0.03-0.22-0.35-0.16-0.57-0.19
			c-0.31-0.62,0.04-0.73,0-1.52c0.77,0.26,0.6-0.41,1.14-0.38c1.7-2.85,3.3-5.81,5.53-8.15
			C645.86,278.946,646.5,275.166,646.57,272.775z"/>
		<path style="fill-rule:evenodd;clip-rule:evenodd;fill:#7C4697;" d="M675.5,298.136c-0.31,0.38-0.69,0.7-0.76,1.33
			c0.05,13.32-0.69,25.69,0.76,36.2c0.91-0.24,1.47-0.82,2.48-0.95c0.58-10.63-1.1-20.85,0.95-31.27c-0.89-0.95-2.55-1.13-2.85-2.66
			c1.23-0.51,1.85,0.83,3.04,0.95c0.33-1.94-0.03-2.62,0.2-4.55c-1.44-1.04-2.44-2.5-4.2-3.22
			C674.87,295.416,674.52,297.525,675.5,298.136z M674.93,286.576c-0.07,0.45,0.87-0.11,0.57,0.57c-0.68,1.57-0.08,3.28-0.19,5.3
			c1.82,0.47,2.38,2.19,4.01,2.85c0.07-5.29-2.29-10.24-1.91-14.98C673.95,277.636,674.76,283.766,674.93,286.576z M676.08,278.806
			h1.33c-0.32-0.44,0.1-1.62-0.76-1.52c0.06,0.76-0.48,0.92-0.77,1.33C676.14,278.516,675.79,279.735,676.08,278.806z
			 M674.74,278.616c0.92-0.7,1.72-1.76,2.48-2.09c-0.53-2.66-0.81-4.4-1.53-6.82C674.85,272.186,675.02,276.146,674.74,278.616z
			 M674.74,266.866c0.8-0.07,0.14,0.62,0.19,0.95c0.44,0.08,1.35,0.78,2.67,0.56c1.08,2.66,3.93,3.55,6.86,4.36v1.33
			c-3.2,0.15-4.1-1.99-6.479-2.65c-0.36,2.21,0.69,5.72,0.57,8.34c1.35,1.25,1.94,3.25,4.39,3.41c0.34,0.65,1.6,1.38,0.57,2.27
			c-1.85-0.63-3.42-1.53-4.19-3.22c-0.89,4.49,1.99,8.63,1.14,13.84c1.3,1.29,3.41,1.78,5.33,2.46c0.12,0.68-0.22,0.92-0.38,1.33
			c-1.86-0.3-3.01-1.3-4.57-1.9c-0.48,0.62,0.11,3.43-0.57,4.55c1.97,1.91,5.14,3.05,8,3.03c-1.64,2.94-6-0.48-8-1.33
			c-2.05,10.27-1,20.75-0.38,30.9c-1.93,1.11-3.57,2.52-6.29,2.84c-0.44-1.46,0.55-3.32,0.57-4.93c0.02-1.83-0.58-3.65-0.76-5.68
			c-0.36-3.91,0.32-7.94,0.19-12.13c-0.15-4.7,0.02-9.57,0.19-14.6c-1.68,1.75-1.93,4.91-3.24,7.02c-0.36-0.09-0.35-0.55-0.95-0.38
			c0.47-2.76,2.66-5.26,3.62-8.15h0.57c-0.29-2.49,0.61-4.31-0.19-5.69c0.68-0.82,0.61-1.72,0.57-2.84
			c-1.37,2.35-2.94,5.84-3.81,9.29c-0.45-0.01-0.56,0.32-1.15,0.19c-0.479-1.9,1.48-2.95,1.53-4.93c1.54-1.98,1.6-4.86,3.43-6.83
			c-0.21-1.93-0.56-4.1-0.38-5.87c-1.35,1.25-1.94,3.25-3.24,4.55c-0.02,1.3-0.64,2.02-2.1,1.89c1.61-3.14,3.54-5.68,5.34-8.72
			c-0.09-3.96,0.08-6.52,0.57-9.85c0.02-0.48,0.28-0.74,0.76-0.76c-0.26-0.44-0.76-0.63-0.57-1.51c-2.13,3.24-4.05,6.7-5.53,10.61
			c-0.57,0.12-0.66,0.73-1.52,0.57c-0.25-1.43,1.05-2.5,1.91-3.41c0.72-2.32,2.4-4.81,3.24-7.59c0.74-0.02,1.52-0.99,1.52-1.13
			C674.2,266.835,674.52,266.896,674.74,266.866z"/>
		<path style="fill-rule:evenodd;clip-rule:evenodd;fill:#7C4697;" d="M713.27,308.965c0.01,12.23-1.83,26.59-1.14,40.94
			c1.3-0.41,2.86-0.57,4-1.14c0.66-5.85-0.93-11.6-0.38-18.95c0.42-5.79-1.39-12.25-0.77-19.52c-0.15-0.54-1.09-0.3-0.95-1.14
			c0.52-0.33,1.89-1.32,0.76-2.08C714.5,307.916,713.89,308.456,713.27,308.965z M713.08,307.835c0.63-0.61,0.88-1.48,1.9-2.09
			c-0.36-1.23-0.72-2.99-0.38-4.36c-0.46-0.84-1.03-0.83-1.33-1.51c0.54-0.04,1.31,0.16,1.33-0.38c-0.93-0.44,0.32-1.93-0.38-2.66
			C712.17,299.516,712.23,304.585,713.08,307.835z M713.27,297.406c0.09-0.73,0.9-0.75,1.33-1.13c0.6-3.7-0.57-5.35-0.76-7.96
			C711.8,289.916,712.82,295.116,713.27,297.406z M711.36,301.766c-1.3,0.39-1.35,3.32-3.05,4.36c-0.02-0.35-0.64-0.12-0.76-0.38
			c1.27-2.65,3.06-4.79,4.58-7.2c-0.48-2.13-0.34-4.8-0.77-6.44c-1.98,1.43-1.76,5.06-4.57,5.68c-0.54-1.58,0.96-2.69,1.91-3.41
			c0.84-2.2,2.74-3.33,3.24-5.87c1.04,0.29,1.33-0.99,2.09-1.52c-0.29-2.53-2.85-6.38-0.76-8.34c1.78,1.83,4.02,3.2,6.48,4.36v0.95
			c-2.01,0.3-3.34-1.57-5.15-2.09c-0.52,1.7,0.56,3.46,0.77,4.74c0.23,1.45-0.16,2.56,0.38,3.6c1.01,1.98,3.39,1.58,4.38,3.98
			c-1.23,0.69-2.92-1.02-4.19-1.52c-0.4,2.47-0.34,4.99-0.19,7.59c0.87,1.78,4.53,1.8,4.95,3.41c-1.65,1.17-3.25-0.92-4.76-1.14
			c-0.24-0.03,0.03,2.41,0.57,2.08c-1.35,4.05,1.38,7.01,4.19,8.15c0.92-0.08,1.5,0.16,1.53,0.95c-1.67,1.82-3.98-1.53-5.72-2.08
			c-1.1,5.48,0.41,10.34,0.76,15.35c0.13,1.89-0.38,3.88-0.38,5.87c0,2.11,0.65,4.13,0.76,6.26c0.19,3.57-0.79,7.22,0,10.99
			c-2.33,0.47-4.56,1.02-6.67,1.71c-0.87-0.73-0.23-1.36-0.19-2.28c0.2-4.74,0.08-9.51,0.19-14.4c0.17-7.16,1.31-15.13,0.76-23.69
			c-0.88,1.19-1.18,3.81-2.85,3.6c-0.38-2.63,2.82-3.46,3.05-5.69c0.08-0.87-0.48-1.62-0.58-2.46
			C711.15,305.065,711.38,303.326,711.36,301.766z"/>
		<path style="fill-rule:evenodd;clip-rule:evenodd;fill:#7C4697;" d="M655.72,331.116c0.21,3.42,0.46,7.38,0.57,10.04
			c5.07-0.82,11.52-0.91,17.72-0.57c0.79,2.59,0.53,5.09,0.76,7.58c4.72-0.25,10.44-0.32,15.82,0.76c0.35,2.89-1.03,6.59-0.19,8.91
			c4.08-0.25,7.6-0.12,12.2,0c0.6,2.24,0.96,4.73,0.95,7.58c6.06,0.27,12.38,1.96,17.53,1.9c0.3,0.38,0.3,1.69,0,2.08
			c-5.8-0.76-12.71-2.98-18.67-1.71c-0.59-2.63,0.03-6.06-0.77-8.15c-4.33-0.97-8.64,0.12-12.76,0c0.34-2.81-0.33-5.97,0.57-8.9
			c-2.74-0.63-5.96-1.59-9.53-1.33c-2.37,0.17-4.71,1.54-6.67,0.57c0.61-2.05,0-5.52-0.38-7.77c-3.9-0.29-8.59-0.88-12.58-0.19
			c-2.01,0.34-3.92,1.65-5.53,0.76c0.7-2.48-0.26-7.14-0.19-10.24c-4.67-0.03-10.97-0.09-15.62,0v-1.32c4.56-0.93,10.41,0.9,14.67,0
			C654.18,330.996,654.95,330.496,655.72,331.116z"/>
	</g>
	<path style="fill-rule:evenodd;clip-rule:evenodd;fill:#7C4697;" d="M819.61,375.116c4.34,0.74,8.57,0.9,12.58,0
		c0.34,0.68,0.13,1.54-0.19,2.08c-3.22-1.04-8.86,1.06-12.2-0.95C819.8,375.806,819.47,375.696,819.61,375.116z"/>
</g>
<g>
	<path style="fill-rule:evenodd;clip-rule:evenodd;fill:#7C4697;" d="M957.24,368.326c0.03,1.26,0.2,1.56-0.39,2.27
		c-1,0.02-1.32,0.22-2.09-0.19c-0.15-0.97,0.4-1.24,0.38-2.08C955.77,368.266,956.7,367.886,957.24,368.326z"/>
	<path style="fill-rule:evenodd;clip-rule:evenodd;fill:#7C4697;" d="M956.66,376.096c0.16,1.13,0.01,1.54-0.19,2.65
		c-0.72,0.4-1.19-0.07-2.09,0C952.959,376.916,954.18,374.815,956.66,376.096z"/>
	<path style="fill-rule:evenodd;clip-rule:evenodd;fill:#7C4697;" d="M949.23,384.656h0.38c-0.03,0.16,0.08,0.18,0.19,0.19v0.38
		c-0.16-0.04-0.18,0.07-0.19,0.19h-0.38c0.04-0.17-0.07-0.18-0.19-0.19v-0.38C949.2,384.875,949.22,384.766,949.23,384.656z"/>
	<path style="fill-rule:evenodd;clip-rule:evenodd;fill:#7C4697;" d="M954,386.516c1.37,1.55,2.53,0.22,3.43-0.57
		c1.47-1.3,3.36-2.95,4.19-3.79v-1.7C957.33,380.746,955.24,383.775,954,386.516z M943.7,376.476c3.35,1.92,7.24,2.39,11.06,3.6
		c3.02-0.97,6.4-0.52,8.57-2.09c0.36-1.06,0.23-6.46-0.38-7.39c-0.93-1.42-2.8-1.42-3.81-2.84c-1.5,0.03-3.37-1.19-4.38-2.28
		c-4.62-0.38-8.35,1.13-10.29,4.36c0.21,0.68,1.15,0.63,1.14,1.52c-0.41,0.98-1,1.78-2.29,1.89
		C943.25,374.525,943.49,375.485,943.7,376.476z M962,367.375c0-1.33-0.86-3.86-2.1-5.31c-0.39-0.46-0.91-0.43-1.14-0.76
		c-0.56-0.77-1.11-2.47-3.05-1.51c-1.46,2.34,1.44,4.07,2.67,5.49c0.71,0.14,0.82-0.32,1.52-0.19c0.16,0.22,0.26,0.51,0.19,0.95
		c-0.04,0.53-1.07,0.07-0.95,0.76c1.52-0.12,2.15,2.44,3.62,1.14C962.51,367.755,962.05,367.766,962,367.375z M962.76,368.886
		c0.4,0.3,0.78,0.62,1.34,0.76c0.47,3.58,2.48,8.7-1.72,10.43c0.05,0.39,0.71,0.18,0.76,0.57c0.16,1.92-1.42,2.12-1.52,3.79
		c-1.83,0.7-2.6,2.47-4.19,3.41c0.5,0.55,0.21,0.71,0.38,1.51c2.39,1.11,5.32,4.39,6.86,6.83c0.81,1.28,0.11,2.7-0.57,4.17
		c-1.69,0.01-2.46,0.2-3.62-0.38c-0.95-2.08-2.56-2.47-4.39-3.79c0.26,2.4,2.65,4.31,2.67,7.58c-3.83,1.24-6.54-0.47-7.62-3.41
		c-4.72-4.86-14.48-1.89-21.54-2.09c-1.8,1.56,0.9,2.63,1.34,4.17c0.12,0.45-0.08,1.33,0,1.9c0.2,1.55,1.05,2.83-0.39,4.35
		c-0.73,0.11-0.92-0.33-1.71-0.19c-0.16-0.59-0.6-0.91-0.76-1.51c-0.71,0.02-0.55,0.21-1.15,0c0.11-0.15,0.2-0.31,0.19-0.57
		c-1.73-0.49-3.18-1.26-4-2.65c-1.57-0.46-2.8-1.26-3.62-2.47c-5.28,0.12-3.69,7.51-9.15,6.45c-1.55-3.55,1.95-7.53,3.24-9.48
		c0.15-0.42-0.95-0.67,0-0.76c-1.96-2.1-3.52-4.71-4.95-7.77c0.62-2.55-0.48-6.31,0.19-8.91c0.54-2.08,2.99-5.37,4.76-6.82
		c0.72-0.58,2.34-1.62,3.24-2.46c1.1-0.47,3.53-1.41,4.58-0.19c-1.01,5.5-6.56,6.49-6.1,13.45c-0.07,0.77,1.5-0.09,1.14,0.95
		c10.36-0.46,20.97-1.17,32.02-1.13c0.15,0.84-0.79,0.6-0.95,1.13c-9.77-0.34-22.3,0.9-32.59,1.52c-3.9-5.85,3.16-10.81,4.76-15.16
		c-4.8,1.59-9.97,5.34-9.72,10.99c0.14,3.11-0.2,6.78,1.53,9.47c0.97,1.97,3.19,2.87,3.43,4.74c0.43,3.38-4.66,5.34-3.62,9.1
		c3.65-1.06,2.84-7.31,8.76-6.63c2.52,3,6.55,4.78,9.53,7.2c0.44-2.11-0.54-6.01-2.67-6.82c0.12-0.69,0.33-1.27,0-1.9
		c1.78-2.01,5.13-1.52,8.39-1.52c2.7,0.01,5.38-1.16,8-0.75c2.24,0.35,5.62,0.19,7.63,1.32c0.38,1.64,1.64,2.41,2.09,3.98
		c1.07,0.61,2.16,2.12,4,1.33c-0.91-2.15-1.31-4.41-2.66-6.44c-0.44-0.66-1.54-1-1.15-2.09c2.22-0.67,5.38,1.76,7.05,3.22
		c0.98,0.86,1.38,2.38,3.05,1.33c-0.32-3.64-3.6-7.3-7.24-8.34c-0.16-0.6-0.6-0.92-0.76-1.52c-4.86-0.21-1.11-6.08,0.95-7.58
		c-2.12-0.09-5.89,0.13-7.05-1.51c-4.22-0.23-8.57-2.13-7.05-6.83c-0.35-0.6-0.88-1.01-0.76-2.08c0.34-0.48,0.75-0.9,1.71-0.76
		c1.05-4.28,8.47-7.45,13.15-4.74c-0.67-1.89-3.27-2.54-2.28-5.49c1.16-1.51,2.72-1.6,4.76-0.76c1.75,2.87,4.64,4.61,4.96,8.91
		C963.36,368.226,963.24,368.735,962.76,368.886z"/>
</g>
<g>
	<path style="fill-rule:evenodd;clip-rule:evenodd;fill:#7C4697;" d="M978.7,218.596c1.23,4.43,4.09,7.25,4.63,12.37
		c4.29,8.55,6.9,18.1,9.57,27.62c1.59,5.68,1.53,11.98,4.63,16.4c0.1,6.82,2.14,15.04,0,21c-0.75-4.6,1.25-16.15-2.61-20.14
		c-0.02-1.46,0.37-1.65,0-2.88c-0.22-1.42-1.28-0.68-1.73-1.44c0.08-0.87,0.89-1.02,0.57-2.3c-3.41-18.57-9.33-34.65-16.51-49.48
		c-3.92-0.86-6.77,0.07-8.98,2.01c-2.7,3.08-3.9,5.89-6.95,8.63c-4.26,8.71-6.02,17.98-9.85,26.47c-1.9,4.2-3.86,8.26-5.8,12.37
		c-4.05,8.58-6.13,18.1-8.69,27.91c-2.39,9.18-5.47,18.63-7.24,29.63c-1.06,6.53-3.8,11.44-4.35,18.98
		c-1.53-5.56,1.56-10.56,2.9-16.68c0.95-4.32,1.73-8.94,2.61-13.23c1.82-8.92,5.02-17.6,6.95-25.9c1.41-6.08,2.91-11.6,4.92-16.68
		c3.3-8.3,7.86-15.65,10.72-23.88c1.55-4.44,2.12-9.27,3.77-13.81c1-2.73,3.45-5.26,5.5-8.05
		C966.87,221.926,969.09,216.505,978.7,218.596z"/>
	<path style="fill-rule:evenodd;clip-rule:evenodd;fill:#7C4697;" d="M972.33,262.326c0.76-1.35,1.47-2.75,1.44-4.89
		C971.6,257.766,971.8,261.096,972.33,262.326z M974.64,255.996c1.12,2.19-0.09,6.2-2.02,7.19c-0.29,1.05,1.41,0.13,0.86,1.44
		c-2.87-0.25-4.54-2.78-3.47-6.04C972.56,258.726,971.44,255.206,974.64,255.996z"/>
	<path style="fill-rule:evenodd;clip-rule:evenodd;fill:#7C4697;" d="M976.67,304.036c-0.72-2.13-0.99-4.38,1.16-5.18
		c0.26,1.84-1.22,2.68-0.29,4.32c3.8,0.19,5.36-7.03,1.16-7.48c-1.34,0.01-0.1,2.58-1.74,2.3c-1.25-1.56,1.82-4.83,4.35-2.88
		C983.27,298.806,981.53,305.456,976.67,304.036z"/>
	<path style="fill-rule:evenodd;clip-rule:evenodd;fill:#7C4697;" d="M1051.709,311.516c0,1.96,2.98-0.38,1.45-0.57
		C1053.45,311.906,1052.26,311.386,1051.709,311.516z M1054.03,309.795c-0.03-1.03-0.14-1.98-0.87-2.31
		C1052.29,308.386,1052.69,309.636,1054.03,309.795z M1054.61,306.625c1.59,2.67,0.11,4.66-0.87,6.91
		C1048.26,314.186,1049.89,305.556,1054.61,306.625z"/>
	<path style="fill-rule:evenodd;clip-rule:evenodd;fill:#7C4697;" d="M1116.6,316.406c0.87,0.72,1.96-0.19,2.03-1.15
		c-0.34-0.14-0.65-0.31-0.87-0.57c0.16,0,0.33-0.24,0-0.29C1117.54,315.226,1116.39,315.136,1116.6,316.406z M1119.5,317.846
		c-1.97,0.64-3.74-0.11-4.05-1.44C1114.459,312.156,1122.72,312.706,1119.5,317.846z"/>
	<path style="fill-rule:evenodd;clip-rule:evenodd;fill:#7C4697;" d="M1037.51,323.596c0.46-0.48,0.32-2-0.58-2.01
		C1036.72,322.255,1036.2,323.735,1037.51,323.596z M1037.22,318.996c3.8,0.03,1.72,8.33-1.74,4.89c-0.14-1.78,0.29-2.98,1.74-3.16
		C1036.65,320.186,1037.13,319.666,1037.22,318.996z"/>
	<path style="fill-rule:evenodd;clip-rule:evenodd;fill:#7C4697;" d="M1105.31,333.956c0.39,0.09,0.55,0.41,1.15,0.29
		c0.13-0.98,0.69-2.37-0.29-2.88C1106.2,332.545,1105.65,333.146,1105.31,333.956z M1104.73,328.206h1.729
		c0.35,0.8,0.48,1.83,1.74,1.72c-0.14,2.07-0.59,3.82-1.16,5.47c-1.13,0.26-1.8,0.35-2.6-0.29c-0.39-2.59,0.79-3.62,1.44-5.18
		C1105.77,329.085,1104.2,329.676,1104.73,328.206z"/>
	<path style="fill-rule:evenodd;clip-rule:evenodd;fill:#7C4697;" d="M1130.8,339.996c0.42,0.45,1.48,0.26,2.32,0.29
		c-0.12-0.6,0.2-0.76,0.29-1.15c-2.41-1.17-2.44,2.32-4.06,2.88c-1.04-2.81,2.84-5.5,5.51-3.74c0.23,2.53-1.37,3.24-3.19,3.74
		C1130.86,341.855,1131.13,340.625,1130.8,339.996z"/>
	<path style="fill-rule:evenodd;clip-rule:evenodd;fill:#7C4697;" d="M953.49,272.396c5.38,0.1,4.57,7.69,3.48,11.79
		c-0.89-0.21-0.85,0.5-1.74,0.29c-0.63,1.28,0.21,2.44-1.74,2.59c1.24-2.66-0.87-6.41,0.58-9.5h1.45c0.94-0.25,0.41,0.94,0.87,1.16
		c0.55-1.52-0.7-3.72-1.16-5.18c-1.3,0.28-0.43,0.72-0.29,1.72C953.26,275.436,953.14,273.406,953.49,272.396z"/>
	<path style="fill-rule:evenodd;clip-rule:evenodd;fill:#7C4697;" d="M1087.05,329.065c5.33-7.47,7.33-15.27,12.75-21.86
		c2.24-2.73,5.61-4.59,8.11-7.2c0.85-0.88,1.25-2.32,2.03-3.16c0.37-0.4,1.28-0.44,1.74-0.86c1.21-1.13,2.09-3.15,3.19-4.03
		c1.38-1.11,3.54-1.36,4.34-3.17c1.45-0.48,3.12-0.73,4.64-1.15c1.54,0.58,2.55,1.69,4.05,2.3c4.35,6.53,8.43,13.31,12.46,20.14
		c2.71,3.36,5.18,6.94,6.95,11.22c1.93,0.96,2.26,3.52,4.64,4.03c-0.05,0.33,0.06,0.51,0.29,0.58c-2.08,1.8-0.7,6.22-2.03,9.78
		c-1-0.24-1.22,0.53-1.74,0c2.67-0.99,0.74-6.56,1.74-9.21c-1.35-1.05-1.72-3.08-3.76-3.45c-0.44-4.84-4.07-6.51-5.22-10.65
		c-5.95-7.03-9.62-16.33-15.93-23.01c-1.42-0.42-3.84,0.01-5.8,0.57c-3.76,3.46-8.21,6.24-10.72,10.94
		c-11.46,6.53-14.41,19.95-22.02,30.49c-0.4,3.66,0.52,10.73-2.02,13.81c0.22-3.03,0.8-8.23,1.15-12.37
		c-1.21-0.42-0.93,2.11-1.44,1.44c-1.3-0.81,1.01-2.76,1.44-3.74c-4.55-4.4-4.19-13.68-11.58-15.25v-1.44
		c-2.11-2.72-3.8-6.33-6.38-9.49c-2.02-2.48-3.16-4.4-4.92-8.06c-1.45-2.99-2.44-4.27-3.48-8.05c-0.96-3.48-4.31-11.48-6.66-12.37
		c-3.09-1.16-5.17,1.81-7.54,2.88c-0.46,1.06-1.17,1.42-1.16,2.3c-6.71,5.51-10.02,14.4-14.479,22.15
		c-4.17,8.15-8.021,17.02-11.59,26.47c-1.69,1.29-2.5,3.46-2.9,6.04c-2.66,1.21-6.44,1.5-8.98,0c-5.55-12.66-6.5-31.32-6.95-44.88
		c-0.07-2.19-1.47-5.13,0.58-6.62c0.62,15.62,1.55,35.52,6.95,49.77c1.31,1.48,4.74,1.9,6.96,0.86c1.46-1.61,1.7-4.45,3.47-5.75
		c7.65-18.77,15.42-37.43,27.81-51.5c2.71-1.25,4.51-4.25,8.12-3.16c2.86,0.86,3.2,5.64,5.21,6.9c1.86,7.08,4.84,13.04,7.53,19.28
		c5.57,4.71,8.02,13.53,15.36,17.26c1.35,2.51,1.44,5.84,2.9,8.06C1085,327.176,1086.97,327.326,1087.05,329.065z"/>
</g>
<g>
	<path style="fill-rule:evenodd;clip-rule:evenodd;fill:#7C4697;" d="M300.96,218.596c1.24,4.43,4.09,7.25,4.64,12.37
		c4.28,8.55,6.9,18.1,9.56,27.62c1.59,5.68,1.53,11.98,4.63,16.4c0.11,6.82,2.14,15.04,0,21c-0.75-4.6,1.26-16.15-2.6-20.14
		c-0.02-1.46,0.36-1.65,0-2.88c-0.22-1.42-1.29-0.68-1.74-1.44c0.09-0.87,0.9-1.02,0.58-2.3c-3.41-18.57-9.34-34.65-16.52-49.48
		c-3.91-0.86-6.76,0.07-8.98,2.01c-2.69,3.08-3.9,5.89-6.95,8.63c-4.25,8.71-6.02,17.98-9.85,26.47c-1.89,4.2-3.85,8.26-5.79,12.37
		c-4.06,8.58-6.14,18.1-8.7,27.91c-2.39,9.18-5.46,18.63-7.24,29.63c-1.05,6.53-3.79,11.44-4.34,18.98
		c-1.53-5.56,1.55-10.56,2.89-16.68c0.95-4.32,1.73-8.94,2.61-13.23c1.83-8.92,5.03-17.6,6.95-25.9c1.42-6.08,2.91-11.6,4.93-16.68
		c3.29-8.3,7.85-15.65,10.72-23.88c1.54-4.44,2.11-9.27,3.76-13.81c1-2.73,3.46-5.26,5.51-8.05
		C289.13,221.926,291.36,216.505,300.96,218.596z"/>
	<path style="fill-rule:evenodd;clip-rule:evenodd;fill:#7C4697;" d="M294.59,262.326c0.77-1.35,1.48-2.75,1.45-4.89
		C293.87,257.766,294.06,261.096,294.59,262.326z M296.91,255.996c1.12,2.19-0.09,6.2-2.03,7.19c-0.28,1.05,1.41,0.13,0.87,1.44
		c-2.88-0.25-4.54-2.78-3.48-6.04C294.83,258.726,293.7,255.206,296.91,255.996z"/>
	<path style="fill-rule:evenodd;clip-rule:evenodd;fill:#7C4697;" d="M298.93,304.036c-0.71-2.13-0.99-4.38,1.16-5.18
		c0.26,1.84-1.21,2.68-0.29,4.32c3.81,0.19,5.37-7.03,1.16-7.48c-1.33,0.01-0.1,2.58-1.74,2.3c-1.25-1.56,1.82-4.83,4.35-2.88
		C305.53,298.806,303.79,305.456,298.93,304.036z"/>
	<path style="fill-rule:evenodd;clip-rule:evenodd;fill:#7C4697;" d="M373.97,311.516c0,1.96,2.98-0.38,1.45-0.57
		C375.72,311.906,374.52,311.386,373.97,311.516z M376.29,309.795c-0.03-1.03-0.13-1.98-0.87-2.31
		C374.55,308.386,374.95,309.636,376.29,309.795z M376.87,306.625c1.6,2.67,0.12,4.66-0.87,6.91
		C370.53,314.186,372.16,305.556,376.87,306.625z"/>
	<path style="fill-rule:evenodd;clip-rule:evenodd;fill:#7C4697;" d="M438.87,316.406c0.87,0.72,1.95-0.19,2.03-1.15
		c-0.35-0.14-0.66-0.31-0.87-0.57c0.16,0,0.33-0.24,0-0.29C439.81,315.226,438.649,315.136,438.87,316.406z M441.77,317.846
		c-1.979,0.64-3.75-0.11-4.06-1.44C436.72,312.156,444.99,312.706,441.77,317.846z"/>
	<path style="fill-rule:evenodd;clip-rule:evenodd;fill:#7C4697;" d="M359.78,323.596c0.45-0.48,0.31-2-0.58-2.01
		C358.99,322.255,358.46,323.735,359.78,323.596z M359.49,318.996c3.79,0.03,1.71,8.33-1.74,4.89c-0.15-1.78,0.28-2.98,1.74-3.16
		C358.92,320.186,359.4,319.666,359.49,318.996z"/>
	<path style="fill-rule:evenodd;clip-rule:evenodd;fill:#7C4697;" d="M427.57,333.956c0.39,0.09,0.55,0.41,1.16,0.29
		c0.12-0.98,0.68-2.37-0.29-2.88C428.47,332.545,427.92,333.146,427.57,333.956z M426.99,328.206h1.74c0.34,0.8,0.47,1.83,1.74,1.72
		c-0.14,2.07-0.6,3.82-1.16,5.47c-1.14,0.26-1.81,0.35-2.61-0.29c-0.38-2.59,0.79-3.62,1.45-5.18
		C428.03,329.085,426.47,329.676,426.99,328.206z"/>
	<path style="fill-rule:evenodd;clip-rule:evenodd;fill:#7C4697;" d="M453.07,339.996c0.42,0.45,1.48,0.26,2.31,0.29
		c-0.12-0.6,0.2-0.76,0.29-1.15c-2.4-1.17-2.43,2.32-4.05,2.88c-1.04-2.81,2.84-5.5,5.5-3.74c0.23,2.53-1.37,3.24-3.19,3.74
		C453.12,341.855,453.399,340.625,453.07,339.996z"/>
	<path style="fill-rule:evenodd;clip-rule:evenodd;fill:#7C4697;" d="M275.76,272.396c5.37,0.1,4.56,7.69,3.47,11.79
		c-0.88-0.21-0.85,0.5-1.73,0.29c-0.63,1.28,0.2,2.44-1.74,2.59c1.23-2.66-0.87-6.41,0.58-9.5h1.45c0.93-0.25,0.4,0.94,0.86,1.16
		c0.55-1.52-0.69-3.72-1.15-5.18c-1.31,0.28-0.44,0.72-0.29,1.72C275.52,275.436,275.4,273.406,275.76,272.396z"/>
	<path style="fill-rule:evenodd;clip-rule:evenodd;fill:#7C4697;" d="M409.32,329.065c5.32-7.47,7.32-15.27,12.74-21.86
		c2.25-2.73,5.61-4.59,8.12-7.2c0.85-0.88,1.24-2.32,2.03-3.16c0.37-0.4,1.28-0.44,1.729-0.86c1.22-1.13,2.101-3.15,3.19-4.03
		c1.38-1.11,3.54-1.36,4.35-3.17c1.44-0.48,3.12-0.73,4.63-1.15c1.55,0.58,2.55,1.69,4.06,2.3c4.34,6.53,8.43,13.31,12.46,20.14
		c2.7,3.36,5.17,6.94,6.95,11.22c1.93,0.96,2.25,3.52,4.63,4.03c-0.04,0.33,0.07,0.51,0.29,0.58c-2.08,1.8-0.7,6.22-2.021,9.78
		c-1.01-0.24-1.229,0.53-1.74,0c2.67-0.99,0.73-6.56,1.74-9.21c-1.36-1.05-1.729-3.08-3.77-3.45c-0.44-4.84-4.07-6.51-5.22-10.65
		c-5.95-7.03-9.62-16.33-15.93-23.01c-1.42-0.42-3.84,0.01-5.79,0.57c-3.77,3.46-8.21,6.24-10.72,10.94
		c-11.46,6.53-14.42,19.95-22.02,30.49c-0.41,3.66,0.51,10.73-2.03,13.81c0.229-3.03,0.81-8.23,1.16-12.37
		c-1.21-0.42-0.94,2.11-1.45,1.44c-1.3-0.81,1.02-2.76,1.45-3.74c-4.55-4.4-4.19-13.68-11.59-15.25v-1.44
		c-2.1-2.72-3.8-6.33-6.37-9.49c-2.03-2.48-3.17-4.4-4.93-8.06c-1.44-2.99-2.43-4.27-3.48-8.05c-0.95-3.48-4.3-11.48-6.66-12.37
		c-3.08-1.16-5.17,1.81-7.53,2.88c-0.46,1.06-1.18,1.42-1.16,2.3c-6.71,5.51-10.03,14.4-14.49,22.15
		c-4.17,8.15-8.02,17.02-11.59,26.47c-1.68,1.29-2.49,3.46-2.89,6.04c-2.66,1.21-6.44,1.5-8.98,0c-5.55-12.66-6.51-31.32-6.96-44.88
		c-0.07-2.19-1.47-5.13,0.58-6.62c0.62,15.62,1.56,35.52,6.96,49.77c1.3,1.48,4.74,1.9,6.95,0.86c1.47-1.61,1.7-4.45,3.48-5.75
		c7.65-18.77,15.42-37.43,27.81-51.5c2.71-1.25,4.5-4.25,8.11-3.16c2.86,0.86,3.2,5.64,5.22,6.9c1.85,7.08,4.83,13.04,7.53,19.28
		c5.57,4.71,8.01,13.53,15.35,17.26c1.35,2.51,1.44,5.84,2.9,8.06C407.26,327.176,409.24,327.326,409.32,329.065z"/>
</g>
<path style="fill-rule:evenodd;clip-rule:evenodd;fill:#794697;" d="M1025.4,147.625c-0.02-0.38-0.08-0.72-0.48-0.72
	C1024.669,147.196,1025.09,147.536,1025.4,147.625z M1023.959,144.866c-0.03-0.45-0.14-0.82-0.479-0.96
	C1023.41,144.456,1023.81,144.536,1023.959,144.866z M1009.44,129.386c-0.31-0.01-0.17-0.47-0.48-0.48
	C1008.57,129.176,1009.28,129.686,1009.44,129.386z M1005.72,120.266c-0.13-0.01-0.09-0.15,0.12-0.12
	c-0.21-0.31,0.18-0.47-0.24-0.48C1005.49,119.826,1005.38,120.676,1005.72,120.266z M1022.76,116.065
	c-0.14,0.02-0.34-0.02-0.36,0.12c0.27,0.5-0.21,0.09-0.12,0.72h0.36c-0.01-0.62,0.35-1.15,0.12-1.2
	C1022.709,115.875,1022.62,115.906,1022.76,116.065z M1022.64,115.465c0.48,0.08,0.48-0.32,0.48-0.72h-0.36
	C1022.85,115.116,1022.55,115.096,1022.64,115.465z M1027.44,106.826c0.229-0.05,0.52-0.04,0.479-0.36h-0.479V106.826z
	 M1043.52,97.226c0.57,0.18,1-0.1,1.2-0.6C1044.39,96.896,1043.57,96.676,1043.52,97.226z M1046.04,96.505
	c0.77,0.07,1.31-0.1,1.56-0.24C1047.07,96.166,1046.4,96.105,1046.04,96.505z M1036.2,99.505c0.23,0.03-0.07,0.2,0.12,0.24
	c0.02-0.14,0.19-0.13,0.36-0.12c-0.15-0.3,0.06-0.38-0.12-0.48C1036.6,99.426,1036.209,99.275,1036.2,99.505z M1085.76,105.746
	c1.64,1.02,2.82,2.57,3.84,4.08c1.05,1.56,1.81,2.99,1.68,5.64c-0.05,1.09-0.16,2.4-0.36,3.6c-0.21,1.21-0.68,2.39-0.72,3.48
	c-0.09,2.55-1.05,5.52-2.64,8.16c-0.48,0.81-1.31,1.7-1.92,2.52c-0.63,0.84-1.37,1.77-2.04,2.28c-1.43,1.09-3.9,1.19-5.76,1.56
	c-0.48,0.1-1.06,0.46-1.44,0.48c-0.64,0.03-1.54-0.37-2.28-0.48c-2.44-0.38-4.39-0.83-6.72-1.2c-0.45,0.86-0.86,1.72-1.32,2.64
	c-0.62,1.26-1.08,2.18-1.68,3.72c-0.61,1.56-1.98,3.77-3,5.28c-1.14,1.69-2.2,2.16-4.32,3c-2.07,0.82-4.23,1.83-6.36,2.76
	c-2.26,0.98-4.65,1.92-6.96,2.28c-2.15,0.33-4.54-0.49-7.08-0.96c-2.16-0.4-4-0.33-6-1.2c-0.95-0.63-1.88-1.71-2.88-1.92
	c-2-2.42-4.3-5-5.28-8.52c-0.58-2.07-0.83-4.23-1.561-6.36c-3.44-0.43-5.7-2.02-8.04-3.72c-2.04-1.49-3.72-2.27-5.16-4.32
	c-0.67-0.96-1.48-2.75-2.04-4.08c-0.87-2.08-0.99-6.03,0.36-8.04c1.01-1.51,2.92-3.27,4.8-4.2c1.81-0.89,3.35-1.87,5.76-2.04
	c1.97-0.14,3.81,0.13,5.04,0.96c0.14,0.61,0.83,1.21,0.48,1.92c-0.71-0.65-1.32-1.4-2.16-1.92c-1.74,0.09-3.99-0.17-6.12,0.48
	c-0.94,0.29-2.45,1.26-3.6,2.04c-2.47,1.69-4.82,4.14-4.2,8.4c0.19,1.33,1.03,3.29,1.8,4.68c0.34,0.61,1.07,1.05,1.56,1.68
	c0.53,0.68,0.83,1.4,1.32,1.8c0.52,0.42,1.29,0.62,1.92,1.08c1.73,1.25,3.55,2.92,5.4,3.6c1.24,0.46,2.65,0.58,3.96,0.72
	c0.28,0.89,0.02,1.77,0.36,2.64c0.83,2.16,1.36,5.53,2.4,7.56c1.08,2.1,3.83,5.3,6,6.36c1.51,0.74,3.25,0.84,5.16,1.2
	c2.63,0.5,5.2,1.61,7.8,1.08c2.21-0.45,4.8-1.4,7.32-2.52c2.47-1.09,5.01-1.92,6.96-2.76c0.65-0.28,1.16-0.84,1.8-1.2
	c2.59-4.23,5.29-8.92,6.84-13.8c1.21,0.77,3.17,1.07,5.28,1.44c1.561,0.27,2.75,0.91,4.44,0.84c2.53-0.1,5.4-0.87,6.96-2.16
	c1.25-1.03,2.46-2.83,3.48-4.56c1.02-1.74,2.11-4.04,2.4-5.64c0.16-0.88-0.04-2.01,0.12-3.12c0.35-2.34,1.68-5.92,0.6-8.52
	c-0.47-1.13-1.54-2.91-2.28-3.84c-1.2-1.52-2.18-1.8-4.32-2.52c-0.56-0.19-1.09-0.58-1.56-0.72c-1.01-0.3-2.2-0.32-3.24-0.6
	c-0.84-0.23-1.55-0.77-2.28-0.84c-2.7-0.27-5.74,0.43-8.04,1.2c-0.78,0.26-2.04,1-2.64,0.84c-0.23-0.06-0.99-1.05-1.44-1.56
	c-1.18-1.32-2.18-3.03-3.48-4.08c-0.52-0.42-1.2-0.51-1.68-0.84c-0.88-0.6-1.44-1.43-2.4-1.92c-3.83-0.62-7.17-1.5-10.92-0.72
	c-1.28,0.27-2.59,1.02-3.96,1.32c-4.22,0.94-7.46,2.92-10.44,5.16c-0.72,0.54-1.49,1.44-2.16,2.28c-0.65,0.81-1.54,1.56-2.04,2.28
	c-0.57,0.83-0.8,2.15-1.44,3.24c-0.59,0.99-1.67,2.23-2.16,3.6c-0.24,0.66-0.271,1.39-0.48,2.04c-0.2,0.6-0.6,1.07-0.84,1.68
	c-0.29,0.73-0.2,1.62-0.6,2.28c-1.95-0.29-0.3-2.64,0.36-3.72c0.43-2.61,1.38-4.7,2.76-6.36c0.59-2.69,2.5-4.13,4.08-6
	c0.69-0.82,1.24-1.71,1.8-2.16c0.98-0.79,2.24-1.34,3.36-2.04c1.07-0.66,2.16-1.51,3.24-2.04c1.97-0.97,4.32-1.09,6.48-1.8
	c0.59-0.19,1.17-0.72,1.8-0.84c1.14-0.22,2.2-0.09,3-0.24c1.46-0.27,3.29,0.41,4.8,0.6c1.42,0.18,2.76,0.22,4.08,0.84
	c0.78,0.37,1.29,1.18,2.04,1.68c1.16,0.77,1.73,0.93,2.88,2.04c0.49,0.47,1.22,0.93,1.56,1.32c0.7,0.79,1.06,2.55,2.28,2.76
	c0.9,0.16,1.94-0.84,2.88-1.08c1.2-0.31,3.01-0.57,4.561-0.72c0.99-0.1,2.21-0.12,3.12,0c0.79,0.11,1.34,0.64,2.04,0.84
	c1.03,0.3,2.11,0.32,3.12,0.6C1083.16,104.806,1084.34,105.576,1085.76,105.746z"/>
<path style="fill-rule:evenodd;clip-rule:evenodd;fill:#794697;" d="M419.12,123.666c0.38,0.06,0.49-0.15,0.6-0.36
	C419.47,123.056,419.11,123.306,419.12,123.666z M420.439,122.706c0.03,0.41-0.51-0.01-0.479,0.6c0.17-0.31,1.5-0.04,1.439-0.84
	C421.229,122.956,420.96,122.715,420.439,122.706z M425.12,121.266c0.18,0.18,0.82,0.21,0.72-0.24
	C425.52,121.025,425.13,120.956,425.12,121.266z M428.72,120.306c-0.44,0.03-1.3,0.27-1.2,0.36c0.15,0.21,0.49-0.31,0.84,0
	c0.01-0.31,0.47-0.17,0.48-0.48c-0.05-0.14-0.58-0.14-0.24,0C428.67,120.196,428.74,120.206,428.72,120.306z M434.24,117.426
	c-0.16-0.16-0.45-0.16-0.48,0.12c0.57,0.13,1.04-0.47,0.84-0.72C434.58,117.156,433.82,117.005,434.24,117.426z M437.72,114.426
	c0.15,0.03,0.07,0.13,0,0.24h0.36c0.02-0.14-0.021-0.34,0.12-0.36c0,0.07,0.1,0.14,0.12,0
	C438.18,114.156,437.87,114.255,437.72,114.426z M440.36,111.906c0.39,0.29,1.15-0.57,0.96-0.84
	C441.04,111.295,440.7,111.476,440.36,111.906z M445.16,106.505c-0.17,0.05-0.2,0.14-0.36,0c-0.42,0.64-0.36,1.11-0.72,1.32
	c0.74,0.62,0.71-1.7,0.96-0.84c0.05-0.17,0.14-0.2,0-0.36C445.17,106.636,445.34,106.565,445.16,106.505z M446.6,104.105
	c-0.12,0.28-0.41,0.39-0.36,0.84C446.71,105.085,446.84,104.275,446.6,104.105z M446,104.826c-0.2,0.36-0.49,0.41-0.12,0.48
	c-0.35-0.1-0.59,0.88-0.36,0.6c0.17-0.38,0.67-0.55,0.6-0.84c0.01,0.07,0.02,0.14,0.12,0.12v-0.24
	C446.12,104.946,446.1,104.846,446,104.826z M456.8,98.346v0.36c0.35-0.27,0.56-0.05,0.84-0.48
	C457.26,97.846,457.229,98.426,456.8,98.346z M458.36,97.746c0.61-0.03,0.82-0.46,1.2-0.72c-0.21,0.05-0.31-0.18-0.36,0
	C459.56,97.436,458.24,97.176,458.36,97.746z M463.64,94.746c-0.45-0.18-1.48,0.66-1.44,0.96c-0.04-0.38,0.35,0.31,0.36-0.12
	c-0.09-0.03-0.24,0-0.24-0.12c0.6,0.12,0.51-0.25,0.6-0.36c0.66,0.13,0.96-0.72,1.56-0.84c-0.14-0.03-0.07-0.13,0-0.24
	C464.12,94.186,463.74,94.326,463.64,94.746z M467.12,91.505c0.1-0.24,0.6-0.6,0.12-0.72C467.3,91.186,466.56,91.306,467.12,91.505z
	 M467.72,90.545h0.24c0.07-0.01,0.14-0.02,0.12-0.12c-0.29,0.04,0.46-0.25,0.12-0.48C468.11,90.215,467.74,90.206,467.72,90.545z
	 M367.88,77.706c-0.04,0.24,0.16,0.24,0.24,0.36c-0.13,0.01-0.09,0.15,0.12,0.12c-0.08-0.44,0.37-0.83-0.24-0.84
	c-0.16,0.27,0.31,0.45,0,0.48C367.99,77.755,367.98,77.686,367.88,77.706z M371.48,67.146c-0.21-0.55,0.18-0.38,0-0.72
	c0.2,0.04,0.32-0.16,0.12-0.24c-0.03,0.09-0.1,0.14-0.24,0.12C371.35,66.706,371.12,66.936,371.48,67.146z M465.32,51.426
	c0.01-0.15,0.04-0.28,0.24-0.24c-0.16-0.62,0.14-0.71,0-0.96C465.24,50.666,465.13,50.846,465.32,51.426z M466.76,43.746
	c-0.11-0.21,0-0.64-0.36-0.6C466.41,43.456,466.42,43.766,466.76,43.746z M372.92,33.545c0.23-0.33-0.17-0.96,0.24-0.48
	c0.14-0.38-0.19-0.29-0.24-0.48c0.33,0.19,0.54-0.31,0.24-0.36C372.7,32.426,372.77,33.326,372.92,33.545z M373.64,31.025
	c-0.09,0.03-0.24,0-0.24,0.12c0.54-0.1,0.5-0.59,0.6-0.84C373.54,30.375,373.67,30.806,373.64,31.025z M455.36,28.386
	c-0.04,0.32,0.17,0.39,0.48,0.36C455.83,28.426,455.57,28.166,455.36,28.386z M374.84,28.746c0.41-0.23,0.64-0.64,0.72-1.2
	c-0.03-0.09-0.1-0.14-0.24-0.12C375.11,27.815,374.83,28.136,374.84,28.746z M376.16,26.346c0-0.44,0.34-0.54,0.48-0.84
	C376.26,25.545,375.71,26.215,376.16,26.346z M451.28,25.625c-0.13-0.48-0.3-0.17-0.6-0.48c0.09,0.33,0.29,0.78,0.48,0.36
	C451.16,25.636,451.22,25.806,451.28,25.625z M376.52,25.386c0.67-0.05,0.81-0.63,1.08-1.08
	C376.92,24.346,376.95,25.096,376.52,25.386z M449.12,24.306c-0.09,0.03-0.24,0-0.24,0.12c0.5,0.03,0.65,0.61,0.72,0.12
	c0.15,0.29,0.63,1.11,0.96,0.48c-0.729-0.15-1-0.8-1.56-0.84C449.07,24.196,449.14,24.206,449.12,24.306z M380.84,21.306
	c0.42,0.27,0.82-0.33,0.96-0.72C381.43,20.815,381.1,21.315,380.84,21.306z M382.4,20.105c0.22,0.02,0.28-0.12,0.24-0.36
	c0.56-0.14,1.41-0.47,1.92-1.2C383.58,19.025,382.88,19.335,382.4,20.105z M386.6,17.585c0.44,0.21,1.09-0.01,1.44-0.48
	C387.45,17.156,387.11,17.456,386.6,17.585z M388.16,16.866c-0.03,0.51,0.82,0.2,0.72-0.12
	C388.58,16.726,388.3,16.726,388.16,16.866z M389.84,16.505c0.62-0.06,1.03-0.33,1.8-0.24c0.27-0.17-0.15-0.29,0.12-0.36
	c0.66,0.15,1.28,0.23,1.56-0.24C392.04,15.826,390.479,15.706,389.84,16.505z M418.64,14.226c0.16-0.45,0.96,0.17,1.2-0.36
	C419.54,14.056,418.53,13.666,418.64,14.226z M400.28,17.346c0.47,0.15,0.37,0.09,0.48-0.12c0.09,0.27,0.42,0.3,0.6,0.48
	c-0.05-0.21,0.18-0.31,0-0.36c-0.08,0.28-0.67-0.59-1.08-0.24C400.43,17.136,400.35,17.235,400.28,17.346z M434.24,21.786
	c5.25-1.58,11.08-0.16,15.12,1.92c1.9,0.98,3.47,2.42,5.4,3.6c0.82,0.5,1.58,1.01,2.4,1.68c3.67,3,6.23,8.05,9.36,11.64
	c0.76,1.83,0.42,4.06,0.84,6.12c-0.41,0.84-0.55,1.85-0.96,3c-0.27,0.76-1.109,2.09-1.08,2.52c0.01,0.11,1.6,2.46,1.92,2.88
	c0.8,1.04,1.65,1.9,2.16,2.64c2,2.89,2.57,6.47,3.48,10.56c0.3,1.36,0.95,2.59,1.08,3.96c0.32,3.32,0.26,6.75-0.48,9.96
	c-0.36,1.57-1.229,2.8-1.8,4.08c-0.58,1.29-0.84,2.26-1.92,3.24c-0.29,0.27-0.77,0.34-1.08,0.6c-0.72,0.61-1.21,1.56-1.92,2.28
	c-0.35,0.35-0.83,0.6-1.2,0.96c-0.35,0.34-0.5,0.91-0.84,1.2c-0.87,0.75-2.3,1.42-3.6,2.04c-1.33,0.64-2.49,1.75-3.48,2.16
	c-1.52,0.63-3.12,0.74-4.56,1.32c-1.4,0.56-2.601,1.44-4.2,1.8c-0.45,0.39-0.88,0.8-1.44,1.08c-0.04,1.51-0.91,2.25-1.68,3.48
	c-0.46,0.74-0.93,1.68-1.32,2.16c-1.08,1.32-2.71,2.42-3.84,3.72c-0.42,0.48-0.55,1.14-0.96,1.56c-0.37,0.37-1.09,0.63-1.68,1.08
	c-0.5,0.38-0.88,0.97-1.32,1.32c-0.7,0.57-1.95,1.27-3,1.8c-1.14,0.58-2.06,1.33-2.88,1.8c-2.13,1.2-5.56,1.71-8.52,2.76
	c-2.95,1.04-5.61,2.51-8.04,3.24c-3.24,0.97-5.58,1.39-8.64,0.48c-0.91-0.27-2.01-0.88-3.12-1.44c-1.07-0.54-2.26-0.76-3.359-1.2
	c-0.48-0.19-0.95-0.8-1.44-0.96c-0.25-0.08-0.61,0.1-0.84,0c-0.45-0.2-0.94-0.7-1.44-0.96c-3.25-1.67-5.49-4-7.56-7.2
	c-0.89-1.37-2-2.71-2.52-3.72c-0.43-0.84-0.65-1.82-1.08-2.64c-0.42-0.79-1.09-1.3-1.32-2.16c-3.84-1.79-6.65-5.01-9.6-7.32
	c-1.82-2.1-3.53-4.31-4.68-7.08c-0.88-3.52-2.03-7.9-1.32-12.48c1.02-6.58,2.49-12.8,6.36-16.44c1.31-1.23,3-2.3,4.2-3.48
	c1.05-1.04,1.9-2.14,2.76-3.24c0.28-0.17,0.27-0.3,0.48,0c0.18-0.31-0.24-0.41,0.12-0.84c0.63-0.56,1-1.91,1.68-2.76
	c1.9,0.44-0.65,3.18-1.68,4.44c-1.54,1.89-2.71,2.79-4.2,4.2c-2.65,2.51-4.98,5.03-6.48,8.76c-2.58,6.42-3.06,15.67-0.84,21.84
	c1.45,4.01,4.15,5.98,6.96,8.88c1.43,1.47,3.17,2.28,4.8,3.36c0.41,0.27,0.95,0.91,1.56,1.32c0.66,0.44,1.42,0.73,1.68,1.2
	c0.21,0.39,0.11,0.88,0.24,1.32c0.63,2.03,2,3.84,3.24,5.52c1.77,2.39,3.27,5.07,5.64,6.72c0.8,0.46,1.63,0.73,2.52,1.2
	c0.23,0.12,0.4,0.5,0.6,0.6c1.63,0.84,3.95,1.23,5.88,2.16c2.69,1.3,4.65,2.47,8.16,1.8c2.89-0.55,6.06-1.94,9.36-3.24
	c4.11-1.62,8.02-2.55,11.28-4.44c2.54-1.47,5.07-3.22,7.32-4.92c1-1.98,2.88-3.19,4.32-4.8c1.42-1.59,2.13-3.78,3.6-5.4
	c0.47,0.14-0.12,0.59,0.24,0.84c0.2-0.82,0.58-1.6,0.84-2.64c1.85-0.2,3.19-1.37,4.8-2.04c1.32-0.55,2.85-0.73,4.2-1.2
	c1.11-0.39,2.2-1.42,3.36-2.04c1.2-0.64,2.58-1.11,3.48-1.8c0.72-0.55,1.31-1.59,2.04-2.28c1.27-1.2,2-2.43,3.6-3.24
	c1.78-2.34,2.851-5.33,3.48-9.24c0.25-1.57,0.72-2.77,0.48-4.56c-0.06-0.47-0.41-0.96-0.48-1.44c-0.08-0.57,0.09-1.17,0-1.68
	c-0.07-0.38-0.35-0.67-0.48-1.08c-0.55-1.75-0.68-3.92-1.2-5.88c-1.31-4.97-3.98-8.81-7.08-11.76c0.59-1.81,1.25-3.55,2.04-5.16
	c-0.11-1.53,0.08-2.63,0-3.84c-0.26-4.07-3.7-5.84-5.04-9c-1.38-1.42-2.62-2.98-3.84-4.56c-2.65-1.95-5.65-3.55-8.16-5.64
	c-2.38-0.78-4.91-2.18-7.56-2.64c-1.27-0.22-2.33,0.29-3.479,0.36c-1.311,0.08-2.76-0.13-3.84,0.72c-0.57-0.27-0.78-0.9-1.44-1.08
	c-1.63-3.09-4.5-4.94-6.84-7.32c-0.57-0.03-0.87-0.33-1.2-0.6c-2.37-0.54-4.41,0.34-6.96,0.72c-1.27,0.19-2.56,0.03-3.48,0.36
	c-1.38,0.49-2.22,1.67-3.36,2.28c-0.71,1.72-2.36,3.04-3,4.44c-1.69-0.38-2.72-2.12-4.08-3c-0.59-0.38-1.51-0.39-2.4-0.72
	c-1.13-0.42-2.3-1.32-3.24-1.56c-9.62-2.45-16.48,4.51-21.24,8.76c-0.87,1.45-1.25,3.39-2.52,4.44c-1.12,3.25-2.61,6.71-1.44,10.68
	c0.29,0.97,0.94,1.92,1.32,3c1.07,3.04,2.41,6.56,3.36,9.24c-1.05-0.18-1.3-1.31-1.68-2.16c-1.1-2.45-1.99-5.6-3-8.16
	c-0.3-0.75-0.91-1.41-1.08-2.16c-0.74-3.26,0.04-6.22,0.84-8.52c0.26-0.74,0.42-1.6,0.72-2.16c0.71-1.32,1.91-2.42,2.04-3.96
	c1.5-2.19,3.85-3.47,5.88-5.28c1.19-1.06,2.2-2.04,4.08-2.88c0.71-0.32,1.61-0.49,2.4-0.84c2.98-1.33,6.64-1.81,10.44-0.96
	c1.52,0.34,3.71,1.31,5.04,1.8c1.36,0.5,2.63,2.24,3.96,2.88c1.51-0.65,1.87-2.44,2.88-3.6c2.33-2.68,7.64-3.49,11.64-3.84
	c2.87-0.25,3.75,0.39,5.4,1.68C429.95,16.806,432.24,19.156,434.24,21.786z"/>
<path style="fill-rule:evenodd;clip-rule:evenodd;fill:#794697;" d="M1224.2,247.065c-0.7,0.99-2.03,1.15-3,1.92
	c-2.01,1.59-2.89,3.95-3.96,6.48c-0.8,3.59,0.21,6.63,1.92,8.88c0.63,0.83,1.57,1.91,2.4,2.52c1.58,1.16,3.68,1.14,5.4,2.28
	c1.66-0.05,4.88,0.5,6.36,0.24c2.44,0.83,3.96,2.9,6.12,4.08c1.4,0.76,3.11,0.98,4.44,2.16c4.85,1.74,9.89,1.14,15.48,0.48
	c3.37-0.4,5.92-1.59,8.52-2.4c1.6-0.88,3.16-1.5,4.44-2.76c1.37-1.35,3.18-2.59,4.68-4.08c0.771-0.77,1.49-1.95,2.16-2.4
	c1.63-1.08,3.35-0.49,5.28-1.08c1-0.31,2.96-1.92,3.6-2.64c0.81-0.92,2.1-3,2.28-4.56c0.13-1.1-0.22-2.11-0.36-3.12
	c-0.28-2.04-0.479-4.31-1.439-5.64c-2.48-3.42-6.69-6.36-10.44-8.16c-0.05-0.19-0.38-0.1-0.24-0.48c-0.45,0.45-2.18-0.9-3.36-0.48
	c-2.32-1.07-5.43-1.28-9-1.08c-2.95,0.16-5.37,1.6-7.92,2.28c-1.72-2.09-5.06-2.54-7.44-3.96c-1.49,0.02-2.64-0.26-4.2-0.36
	c-0.68-0.04-1.21-0.47-1.8-0.48c-1.78-0.04-3.19,1.09-4.68,1.56c-1.41,0.45-2.67,0.52-3.96,1.32c-4.44,2.74-8.01,6.67-10.68,10.68
	c0.09,0.36-0.03,2.12-0.72,2.16c-0.63-0.21-0.07-1.68-0.12-2.04c2.84-4.92,7.12-8.4,11.64-11.64c1.89-0.67,4.57-1.68,6.72-2.4
	c1.97-0.66,4.48,0.19,6.48,0.48c3.55,0.51,6.88,2.45,9.12,3.72c3.86-1.55,9.24-2.86,14.28-1.68c2.56,0.6,5.48,1.18,7.08,2.04
	c1.86,1,3.36,2.84,5.4,3.48c1.17,1.32,2.26,2.37,3.48,3.72c0.88,0.98,0.99,1.58,1.56,3.12c0.13,0.34,0.18,0.62,0.6,0.84
	c-0.15,2.08,1.01,3.99,0.6,6.6c-0.28,1.76-1.49,2.98-2.04,4.56c-1.5,0.94-2.89,1.99-4.44,2.88c-0.83-0.14-1.38,0.5-1.68-0.12
	c-0.34,0.12,0.38,0.11,0,0.36c-0.81,0.11-1.95,0.07-2.76,0.48c-0.93,0.47-1.7,1.75-2.52,2.52c-0.65,0.61-1.43,0.84-1.561,1.56
	c-0.95,0.37-1.689,0.95-2.16,1.8c-0.29-0.05-0.26,0.22-0.6,0.12c-2.07,2.74-6.75,3.99-10.56,5.52c-0.95-0.11-1.5,0.18-2.04,0.48
	c-3.51-0.16-6.44,0.91-9.84,0.84c-1.68-0.04-2.98-0.58-4.8-0.84c-0.46-0.07-1.04-0.12-1.439-0.24c-1.061-0.32-1.811-1.1-2.76-1.56
	c-0.45-0.22-0.97-0.16-1.44-0.36c-1.22-0.51-2.35-1.4-3.48-2.16c-0.3-0.2-0.58-0.59-0.84-0.72c-0.77-0.39-1.49-0.51-2.04-1.2
	c-1.52-0.1-3.03-0.62-4.68-0.6c-1.74,0.02-2.36-0.24-3.96-0.84c-1.66-0.62-3.08-0.85-4.32-1.56c-0.05-0.47-0.93-0.75-0.6-1.2
	c0.04-0.24-0.35,0.02-0.36,0.12c-3.1-3.06-4.79-6.77-3.24-11.88c0.07-0.23,0.4-0.37,0.48-0.6c0.13-0.35,0.01-0.8,0.12-1.08
	c0.83-2.13,2.51-3.77,4.08-5.16C1222.41,247.656,1223.25,246.815,1224.2,247.065z"/>
<path style="fill-rule:evenodd;clip-rule:evenodd;fill:#794697;" d="M146.96,213.426c-0.33,0.67-0.6-0.64-1.08-0.6
	c-0.9-1.88-1.8-3.7-2.64-5.88c-0.02-1.07-0.13-3.58,0-5.4c0.12-1.64,0.92-2.74,1.44-4.08c0.54-1.39,0.77-2.57,1.44-3.96
	c0.58-1.21,1.48-2.34,2.04-3.6c2.6-2.8,5.89-4.91,9.72-6.48c0.32-0.14,0.37-0.1,0.24-0.48c3.03-0.11,6.25-2.2,9.72-2.28
	c0.76-0.02,1.7,0.27,2.64,0.36c1.66,0.15,2.61,0.4,3.84,0.84c1.73,0.61,3.12,0.76,4.08,2.04c1.06,0.33,2.11-0.2,3.72-0.84
	c0.98-0.39,1.97-0.57,2.88-0.84c1.03-0.31,2.12-0.9,3.96-0.72c4.59,0.46,8.24,1.6,12,3c0.58,0.73,1.45,1.25,2.16,1.92
	c0.22,0.21,0.39,0.55,0.6,0.72c0.13,0.11,0.58,0.09,0.72,0.24c0.52,0.54,0.97,1.43,1.44,2.04c0.49,0.63,0.89,1.3,1.56,1.68
	c0.19,1.05,0.43,2.05,1.2,2.52c0.17,2.69-0.06,5.89-1.08,8.04c-0.48,0.4-1.22,1.18-1.2,1.68c-0.76,0.64-1.55,1.25-2.52,1.68
	c-0.89,0.86-2.12,1.73-2.64,2.76c-0.59,1.17-0.81,2.37-1.44,3.24c-0.72,0.99-1.97,2.38-3,3.24c-0.34,0.28-0.93,0.41-1.32,0.72
	c-0.59,0.47-0.96,1.18-1.68,1.56c-0.63,0.34-1.31,0.26-1.92,0.84c-1.33,0.13-1.92,0.35-2.64,0.96c-6.91,1.8-16.11,0.53-21.12-2.64
	c-3.34,1.19-7.05,3.88-11.76,3.36c-2.81-0.31-5.22-1.45-7.56-2.4c-0.48-1.37-1.62-1.53-1.56-2.64c0.89,0.1,1.14,0.86,1.56,1.44
	c1.61,0.87,3.07,1.81,5.4,2.4c1.31,0.33,2.61,0.53,4.2,0.36c3.62-0.38,6.67-2.19,9.24-3.6c1.34,0.48,2.39,1.63,3.96,2.16
	c1.99,0.66,4.54,1.14,6.84,1.44c5.01,0.65,10.24-0.22,14.04-2.04c1.95-0.93,3.39-2.27,4.92-3.84c0.95-0.98,2.03-2.27,2.52-3.36
	c0.45-0.99,0.72-2.22,1.44-3.24c2.37-1.48,5.16-3.02,6-6.12c0,0.01-0.06-0.17,0-0.36c0.35-1.07,0.5-2.26,0.48-3.36
	c-0.03-1.56-0.87-2.77-1.32-4.2c-0.68-0.85-1.26-1.77-2.04-2.64c-0.7-0.78-1.44-1.84-2.28-2.52c-3.43-2.77-8.28-3.37-13.56-4.32
	c-1.9,0.16-4.1,0.64-6.12,1.44c-2.25,0.89-4.32,2.38-6-0.24c-4.46-2.13-9.64-2.12-15-0.6c-2.93,0.83-6.06,2.44-8.4,3.72
	c-0.92,0.5-1.51,1.13-2.4,2.04c-1.52,1.57-3,3.15-4.08,4.8c-0.65,1.57-1.17,4.64-2.16,5.88c-0.22,1.38-0.99,2.98-0.36,4.08
	c-0.99,1.47,0.44,4.35,0.6,5.76c0.9,0.8,0.98,1.97,1.92,2.88C146.28,212.585,147.42,213.166,146.96,213.426z"/>
</svg>
