<svg version="1.1" id="圖層_1" xmlns="http://www.w3.org/2000/svg" xmlns:xlink="http://www.w3.org/1999/xlink" x="0px" y="0px"
	 width="20.294px" height="20.294px" viewBox="0 0 20.294 20.294" enable-background="new 0 0 20.294 20.294" xml:space="preserve">
<path fill="#FFFFFF" d="M434.973,288.064c-5.604,0-10.146,4.543-10.146,10.146c0,5.604,4.543,10.147,10.146,10.147
	c5.604,0,10.147-4.543,10.147-10.147C445.12,292.607,440.577,288.064,434.973,288.064z M438.054,296.765h-2.627v3.911
	c0,0.261,0.021,0.469,0.063,0.625c0.044,0.156,0.117,0.27,0.181,0.359c0.203,0.286,1.256,0.286,2.257,0.148v1.001
	c-0.61,0.113-2.074,0.259-3.131-0.043c-0.295-0.085-0.512-0.241-0.664-0.434c-0.153-0.192-0.253-0.433-0.298-0.72
	c-0.046-0.286-0.068-0.619-0.068-1v-3.849h-1.873v-1.032h1.873v-1.071l1.661-1.185v2.256h2.627V296.765z"/>
<path fill="#FFFFFF" d="M10.146,0C4.543,0,0,4.543,0,10.147s4.543,10.147,10.146,10.147c5.604,0,10.147-4.543,10.147-10.147
	S15.751,0,10.146,0z M13.228,8.7h-2.627v3.911c0,0.261,0.021,0.469,0.063,0.625c0.044,0.156,0.117,0.27,0.181,0.359
	c0.203,0.286,1.256,0.286,2.257,0.148v1.001c-0.61,0.113-2.074,0.259-3.131-0.043c-0.295-0.085-0.512-0.241-0.664-0.434
	c-0.153-0.192-0.253-0.433-0.298-0.72c-0.046-0.286-0.068-0.619-0.068-1V8.7H7.066V7.668h1.873V6.597l1.661-1.184v2.256h2.627V8.7z"
	/>
</svg>
