<svg version="1.1" id="圖層_1" xmlns="http://www.w3.org/2000/svg" xmlns:xlink="http://www.w3.org/1999/xlink" x="0px" y="0px"
	 width="60px" height="60px" viewBox="0 0 60 60" enable-background="new 0 0 60 60" xml:space="preserve">
<path fill-rule="evenodd" clip-rule="evenodd" fill="#FFFFFF" d="M30.298,55.135c0.73-0.59,2-0.64,2.64-1.32
	C31.989,54.295,30.519,54.565,30.298,55.135z M33.179,53.815c0.07-0.12,0.56-0.03,0.6-0.48
	C33.489,53.335,32.929,53.675,33.179,53.815z M19.499,53.095c0.18-0.46-0.9-0.67-0.6-0.48
	C19.068,52.805,19.199,53.036,19.499,53.095z M18.778,52.255c-0.47-0.09-0.46-0.66-0.84-0.84
	C17.858,51.715,18.269,52.456,18.778,52.255z M36.179,51.896c0.17,0.15,1.82-0.89,1.8-1.32
	C37.409,51.045,36.858,51.536,36.179,51.896z M16.499,49.976c-0.1-0.41-0.25-0.79-0.6-0.96v0.6
	C16.349,49.485,16.289,49.865,16.499,49.976z M14.458,45.295c0.46,0.03,0.46-0.75,0-0.72V45.295z M32.338,37.855
	c0.66-0.04,1.55,0.11,2.28-0.24C33.918,37.476,32.719,37.595,32.338,37.855z M28.858,37.615c1.04-0.1,1.89,0.18,2.4,0
	C30.679,37.525,29.298,37.045,28.858,37.615z M28.739,37.375c-0.21,0-0.7-0.32-0.84,0C27.999,37.485,28.668,37.635,28.739,37.375z
	 M15.539,46.016c0.32,1.21,0.46,2.46,0.96,3.24c0.29,0.45,0.92,0.73,1.32,1.2c0.33,0.38,0.43,1,0.72,1.32
	c0.4,0.43,1.1,0.61,1.56,0.96c0.54,0.41,0.87,0.86,1.32,1.2c2.63,0.42,5.09,1.99,7.44,1.32c1.26-0.36,2.1-1.41,3.6-1.44
	c2.33-1.51,4.87-2.91,6.96-4.68c2.19-1.85,3.07-3.01,4.08-6.12c0.65-1.98,1.72-3.86,1.08-5.88c-0.48,0.67-1.28,0.84-2.28,0.72
	c-2.62-0.31-4.92-0.41-7.56,0.12c-2.24,0.45-4.75,0.07-7.08-0.24c-0.17,1.51-0.08,3.28-0.6,4.44c-1.66-0.46,0-3.26-0.36-4.32
	c-2.68-0.52-7.26-0.91-10.68-0.6c0.15,0.55-0.33,0.47-0.24,0.96c0.07,0.53,0.85,0.35,0.84,0.96c-0.1,0.7-0.7,0.9-1.32,1.08
	c-0.37-0.27-0.07-0.77-0.36-0.96C14.269,41.686,14.949,43.815,15.539,46.016z M25.139,37.016c-0.72,0.25-1.08-0.31-1.68,0
	C24.068,37.075,24.979,37.505,25.139,37.016z M20.338,36.775c0.57-0.11,0.95,0.32,1.2-0.12
	C21.219,36.695,20.079,36.545,20.338,36.775z M27.418,32.095c-0.07-0.29,0.15-0.87-0.12-0.96
	C27.139,31.315,27.048,32.085,27.418,32.095z M27.298,29.815c-0.3-0.07,0.38-0.8,0-0.96c-0.03,0.13-0.13,0.19-0.24,0.24
	C27.249,29.365,26.938,30.065,27.298,29.815z M37.858,19.855c-0.48,0.08-0.82,0.3-1.2,0.48c-2.94,0.11-5.6,2.15-7.56,3.24
	c-0.26-0.3-0.81-0.31-0.84-0.84c3.23-1.55,6.08-3.21,9.6-3.84c-0.53-0.64-1.05-1.71-1.68-2.4c-0.75-0.82-1.89-0.5-3.24,0
	c-1.04,0.39-2.14,1.1-3.12,1.68c-0.46,0.27-1.29,0.88-1.44,1.08c-0.91,1.2-0.42,4.79-0.24,5.88c1.12,0.08,1.9,0.5,3.24,0.36
	c2.69-1.28,5.01-2.86,8.16-3.12c-0.65-0.91-0.35-2.77-1.56-3.12C37.539,19.335,38.259,19.815,37.858,19.855z M32.938,12.536
	c-1.55,0.7-2.52,0.88-3.96,1.44c-0.48,1.21-0.65,2.76-0.6,4.2c1.92-1.36,4.27-2.28,6.48-3.36
	C34.168,14.105,33.719,13.155,32.938,12.536z M29.338,12.896c1.26-0.22,2.28-0.68,3.36-1.08c-0.63-1.65-1.12-3.44-1.68-5.16
	C30.479,8.755,29.969,10.885,29.338,12.896z M31.139,3.295c-0.12-0.4,0.37-0.19,0.6-0.24c0.03,2.78,0.77,5.8,1.8,8.28
	c1.07-0.15,1.21-0.69,2.52-0.72c0.14,1.31-1.16,1.78-1.92,1.32c0.33,1.17,1.5,2.48,2.52,3.36c0.16,1.37,1.95,2.33,2.88,3.72
	c0.64,0.95,1.7,3.65,0.48,4.32c-1.52,0.28-2.78,0.3-4.08,0.72c-1.84,0.6-3.26,2.08-4.8,2.4c-1.05,0.22-1.81-0.68-3-0.36
	c-0.98,3.57,0.05,7.68-0.48,10.68c2.95,0.86,5.88,0.32,9,0c3.44-0.36,6.79,0.3,9-0.96c1.31,1.08,0.06,3.49-0.48,4.92
	c-0.91,2.43-1.34,5.53-3.36,7.44c-0.54,0.51-1.23,0.93-1.8,1.44c-1.63,1.47-3.65,2.95-5.64,3.84c-2.25,1.55-5.86,3.13-9.12,2.52
	c-1.17-0.68-2.45-0.54-3.6-0.96c-2.06-0.76-3.71-2.93-5.16-4.56c-0.99-1.11-1.13-1.75-1.68-3.6c-0.72-2.42-1.29-4.86-0.96-7.68
	c0.19-0.21,0.5-0.3,0.96-0.24c0.17-1.19-0.26-1.94-0.36-2.52c0.41-0.19,0.98-0.22,1.32-0.48c0.3,0.22,0.9,0.14,1.08,0.48
	c3.21-0.25,6.8-0.09,9.6,0.48c0.62-1.52,0.63-3.23,0.48-5.4c-0.26-3.85,0.56-8.35,0.12-11.88c0.59-1.29,0.51-3.25,0.84-4.8
	c-0.46-0.48-0.63,0.82-1.2,0.24c-0.54-0.81,0.89-1.43,1.68-1.68c0.86-2.86,1.79-6.15,2.16-9.12c0.06-0.41,0.72-0.24,0.84-0.6
	C31.409,3.235,30.869,3.436,31.139,3.295z"/>
</svg>
