<svg version="1.1" id="圖層_1" xmlns="http://www.w3.org/2000/svg" xmlns:xlink="http://www.w3.org/1999/xlink" x="0px" y="0px"
	 width="60px" height="60px" viewBox="0 0 60 60" enable-background="new 0 0 60 60" xml:space="preserve">
<path fill-rule="evenodd" clip-rule="evenodd" fill="#FFFFFF" d="M34.62,9.87c0.16-0.01,0.2,0.11,0.4,0.06
	c0.02-0.23,0.23-0.41,0-0.53C35.02,9.68,34.61,9.56,34.62,9.87z M34.89,9.26c-0.09-0.1-0.41-0.57-0.4-0.34
	c-0.18,0.05,0.05-0.31-0.13-0.26c0.45-0.81,1.81,0.67,1.26,1.54c-0.06,0.1-0.43,0.38-0.6,0.4C33.8,10.78,33.57,8.84,34.89,9.26z"/>
<path fill-rule="evenodd" clip-rule="evenodd" fill="#FFFFFF" d="M38.89,12.55c-0.37,0.08-0.38,0.39-0.67,0.07v0.47
	c0.86-0.08,1.98,0.11,2.2-0.6C40.21,12.21,38.94,11.57,38.89,12.55z M38.29,12.28c-0.27-1.48,2.92-1,2.8,0.34
	c-0.09,0.94-2.04,1.42-3.07,1.01C37.21,13.31,37.41,12.35,38.29,12.28z"/>
<path fill-rule="evenodd" clip-rule="evenodd" fill="#FFFFFF" d="M24.97,20.15c-0.66-0.33-0.07-0.86,0.13-1.28
	c0.42-0.9,0.58-1.9,0-2.69c-0.33-0.45-0.95-0.75-1.53-0.87c-0.08-0.08-0.08-0.24-0.07-0.4c-0.78-0.65-1.85-1.81-3.13-2.02
	c-1.01-0.17-2.49,0.14-3.33,0.47c-0.86,0.34-1.48,0.96-2.13,1.14c-1.25,1.19-1.88,4.49,0,5.45c0.28,0.07,0.45-0.15,0.6,0
	c0.07,0.08,0.13,0.52,0,0.6c-0.53,0.14-0.6,0.61-0.87,1.21c-0.08,0.18-0.32,0.29-0.4,0.47c-0.28,0.63-0.58,1.63-0.33,2.49
	c0.08,0.27,0.4,0.62,0.67,1c0.23,0.33,0.43,0.79,0.66,1.01c1.28,1.25,3.77,1.6,5.33,0.54c0.77-0.53,1.17-1.39,1.86-1.88
	c0.09,0.49-0.51,0.87-0.59,1.41c-0.6,0.4-1.01,1.14-1.8,1.48c-1.15,0.48-2.43,0.18-3.73-0.07c-1.12-0.6-2-1.43-2.53-2.62
	c-0.12-0.13-0.25-0.25-0.4-0.34c-0.36-1.26,0.06-2.55,0.6-3.76c0.09-0.22,0.66-0.89,0.66-0.94c0-0.11-0.77-0.57-0.93-0.81
	c-1.45-2.15-0.1-5.06,1.66-6.25c0.28-0.18,0.77-0.39,1.14-0.53c0.83-0.34,1.72-0.33,2.99-0.68c0.63-0.16,2.54,0.57,3.07,0.95
	c0.76,0.54,1.03,1.66,2.13,1.74c0.85,0.72,1.86,1.82,1.2,3.63C25.68,19.21,25.27,19.79,24.97,20.15z"/>
<path fill-rule="evenodd" clip-rule="evenodd" fill="#FFFFFF" d="M17.44,16.52c0.49-0.09,1.12-0.04,1.13-0.61
	c-0.2-0.1-0.37,0.02-0.53,0.14C17.76,15.49,16.96,16.01,17.44,16.52z M17.37,17.19c-0.72-0.23-0.76-1.52-0.13-1.88
	c0.82,0.1,1.86-0.34,2,0.47C19.4,16.68,18.24,16.98,17.37,17.19z"/>
<path fill-rule="evenodd" clip-rule="evenodd" fill="#FFFFFF" d="M31.76,15.85c0.21-0.03,0.21,0.14,0.2,0.33
	C31.75,16.21,31.75,16.04,31.76,15.85z"/>
<path fill-rule="evenodd" clip-rule="evenodd" fill="#FFFFFF" d="M40.42,23.98c0.02,0.17-0.02,0.29-0.2,0.27
	c-0.04-0.06-0.07-0.11-0.07-0.21C40.21,23.99,40.3,23.97,40.42,23.98z"/>
<path fill-rule="evenodd" clip-rule="evenodd" fill="#FFFFFF" d="M44.95,26.53c-0.04,0.16-0.02,0.32-0.07,0.61
	c0.21,0.17,0.28,0.07,0.54,0c-0.05-0.34,0.15-0.51-0.07-0.68C45.14,26.41,45.15,26.58,44.95,26.53z M44.55,25.05
	c0.48-0.13,1.72,1.04,1.66,1.82c-0.05,0.74-1.03,1.37-1.86,0.87c-0.16-0.41-0.19-1.36,0.4-1.55c0.01-0.12-0.08-0.14-0.07-0.26
	c0.06,0.05,0.15,0.07,0.27,0.06c-0.07-0.21-0.2-0.36-0.4-0.27C44.44,25.5,44.51,25.29,44.55,25.05z"/>
<path fill-rule="evenodd" clip-rule="evenodd" fill="#FFFFFF" d="M40.55,29.69c0.07,0.04,0.07,0.15,0.2,0.13
	c-0.06,0.36-0.54,0.66-0.46,0.94c0.01,0.06-0.03,0.07-0.07,0.07c-0.06-0.01-0.06,0.03-0.07,0.07c-0.15-0.05-0.14-0.26-0.33-0.27
	C39.97,30.14,40.41,30.03,40.55,29.69z"/>
<path fill-rule="evenodd" clip-rule="evenodd" fill="#FFFFFF" d="M42.22,32.31c-0.63-0.1-1.31,0.24-1.53-0.2
	c0.59-0.06,0.99-0.3,1.39-0.54c0.12-0.57-0.07-0.86-0.53-1.01c-0.1,0.08-0.27,0.09-0.33,0.2c-0.05,0.43,0.5,0.26,0.47,0.68
	c-0.52,0.18-0.88-0.26-1.2-0.47c0-0.81,0.75-1.12,1.33-1.01C42.81,30.14,43.02,31.72,42.22,32.31z"/>
<path fill-rule="evenodd" clip-rule="evenodd" fill="#FFFFFF" d="M40.15,30.97c0.1,0.17,0.03,0.33,0.07,0.67
	C39.85,31.64,40.08,31.11,40.15,30.97z"/>
<path fill-rule="evenodd" clip-rule="evenodd" fill="#FFFFFF" d="M41.09,41.04c0.68-0.15,1.56,1.41,1.46,2.02
	c-0.07,0.42-0.71,0.93-1,1.01c-1.45,0.38-2.5-1.31-0.8-1.82c-0.08,0.3-0.44,0.6-0.2,1.01c0.57,0.34,1.25,0.05,1.33-0.33
	C42.03,42.23,40.87,41.65,41.09,41.04z"/>
<path fill-rule="evenodd" clip-rule="evenodd" fill="#FFFFFF" d="M28.1,54.95c-0.19,0.56-0.68,0.21-1,0.21
	c-1.11-0.01-2.42,0.51-3.8,0.53c-1.31,0.02-2.67-0.14-4.06-0.13c-0.79,0-1.6,0.2-2.4,0.27c-2.07,0.17-4.12-0.01-5.93,0.27
	c-0.98,0.14-2.03,1.02-2.8,0.06c0.35-0.12,0.67-0.08,1.07-0.2c0.21-0.06,0.39-0.27,0.6-0.33c0.45-0.13,1.2-0.11,1.86-0.21
	c2.1-0.29,4.54-0.17,7-0.33c1.38-0.09,3.41,0.02,4.86,0c1.26-0.02,2.66-0.37,3.66-0.54C27.54,54.49,28.14,54.46,28.1,54.95z"/>
<path fill-rule="evenodd" clip-rule="evenodd" fill="#FFFFFF" d="M41.02,25.52c0.17,0.24-0.04,0.56-0.07,0.81
	c-0.25,0.05-0.32-0.08-0.53-0.07c-0.62,0.77-1.79,0.65-2.8,0.94c-1.45,0.42-2.78,1.33-4.26,1.41c-0.17-2.85,0.53-5.96,1.53-8.19
	c-0.03-0.19-0.32-0.13-0.47-0.21c0.15-0.41,0.2-0.64,0.67-0.47c0.59-1.58,1.46-2.87,2.47-4.03c0.27-0.15,0.78,0.36,0.73,0.54
	c-0.02,0.4-0.42,0.04-0.6,0.2c-0.7,1.07-1.55,1.98-1.87,3.43c2.84,0.04,6.41-0.83,7.8-3.16c0.05-0.71,0.27-1.08,0.2-1.68
	c0.04-0.36-0.33-0.29-0.34-0.61c0.97-0.94,2.03-1.75,2.47-3.62c0.14-0.61,0.17-0.99-0.4-1.55c-0.37-0.36-1.33-0.9-2.13-1.14
	c-0.3-0.09-0.63,0-0.94-0.07c-0.34-0.08-0.56-0.3-0.86-0.33c-0.37-0.05-0.73-0.05-1.07,0c-0.73,0.09-1.16,0.82-1.8,0.4
	c0.07-0.77,0.68-1.07,0.6-1.82c-0.13-1.22-1.74-1.31-3.06-1.61c-0.87-0.2-1.97-0.63-3-0.33c-1.96,0.85-3.66,2.52-4.26,4.97
	c-0.27,0.07,0.08,0.29-0.27,0.27c-0.19,1.78-0.21,4.59,1.4,5.31c0.39,0.14,0.85,0.21,0.93,0.67c-1.91,0.06-2.97-1.83-2.99-3.63
	c-0.02-1.28,0.06-2.35,0.53-3.5c0.92-2.22,3.02-5.04,5.99-4.83c0.5,0.03,0.94,0.32,1.54,0.47c0.81,0.2,1.75,0.23,2.39,0.53
	c0.67,0.32,1.76,1.38,1.34,2.56c0.35,0.14,0.68-0.13,1-0.14c1.16-0.01,3.61,0.71,4.53,1.28c0.46,0.29,1.15,1.08,1.26,1.48
	c0.53,1.92-1.34,3.45-2.33,4.63c0.66,4.01-3.18,5.05-6.4,5.85c-0.56,0.14-1.57,0.33-2.33,0.2c-1.17,2.11-1.39,4.48-1.66,7.26
	c0.47-0.19,0.97-0.19,1.46-0.34c0.75-0.22,1.32-0.73,2.07-0.94c0.8-0.22,1.67,0.05,2.26-0.47C39.74,25.88,40.56,25.16,41.02,25.52z"
	/>
<path fill-rule="evenodd" clip-rule="evenodd" fill="#FFFFFF" d="M23.77,19.81c0.18,0.05,0.13-0.14,0.2-0.2
	c2.57,2.03,3.72,5.33,5.79,7.73c0.19-1.02,0.85-1.89,1.33-2.89c0.47-0.96,0.96-1.92,0.94-3.03c-0.04-1.44,0.49-2.67,0.93-3.76
	c0.06-0.16,0.29-0.33,0.33-0.47c0.33-1.03,1.29-1.97,1.87-2.82c0.35,0.02,0.53,0.22,0.73,0.4c-0.07,0.42-0.03,0.57-0.27,0.74
	c-0.23,0.01-0.09-0.35-0.26-0.4c-0.69,0.85-1.25,1.69-1.67,2.68c-0.32,0.76-0.89,1.6-1,2.36c-0.11,0.78,0.16,1.6-0.06,2.35
	c-0.12,0.39-0.43,0.7-0.6,1.07c-0.5,1.07-1.18,2.25-1.54,3.36c-0.18,0.59-0.16,1.1-0.59,1.48c-0.61-0.09-0.79-1.18-1.4-1.48
	c0.04-0.2-0.07-0.24-0.07-0.4c-0.73-0.96-1.35-2.04-2.07-3.02c-0.48-1.76-1.8-1.9-2.33-3.5C24.02,19.9,23.72,20.12,23.77,19.81z"/>
<path fill-rule="evenodd" clip-rule="evenodd" fill="#FFFFFF" d="M21.77,20.08c0.19-0.23,0.36-0.49,0.33-0.94
	c-0.19-0.15-0.42-0.24-0.66-0.34C21.09,19.21,21.32,20.11,21.77,20.08z M21.84,20.82c-0.47-0.14-0.87-0.24-1.07-0.81
	c-0.24-0.69,0.13-1.69,0.6-1.81c0.54-0.14,1.32,0.36,1.4,0.94C22.87,19.88,22.26,20.42,21.84,20.82z"/>
<path fill-rule="evenodd" clip-rule="evenodd" fill="#FFFFFF" d="M39.42,28.61c0.09,0.22,0.63-0.02,0.4-0.13
	C39.76,28.73,39.34,28.31,39.42,28.61z M37.29,29.15c0.08,0.08,0.05,0.18-0.07,0.27c0.92-0.21,1.88-1.27,3.07-1.21
	c0.13,0.42,0.7,0.79,0.33,1.14c-0.26,0.05-0.27-0.29-0.4-0.53c-1.38,0.24-2.21,1.03-3.26,1.61c-0.11,0.41-0.12,1.18-0.2,1.41
	c1,4.07,6.76,3.77,10.25,2.28c1.85-1.36,4.35-3.85,4.53-6.78c0.12-1.87-1.15-2.62-2.66-3.16c-0.24-0.09-1.06-0.25-1.47-0.2
	c-0.6,0.07-0.99,0.76-1.33,0c0.23-0.46,0.83-0.5,1.13-1.01c0.82-1.4,0.42-3.18-1.33-3.43c-0.38-0.05-1.07,0.08-1.6,0.2
	c-1.96,0.48-3.96,1.56-4.33,3.63c-0.18,0.24,0.39,0.47,0.07,0.67c-0.1-0.09-0.21-0.05-0.2,0.14c-1.16-0.55-0.06-2.52,0.87-3.36
	c1.43-1.32,5.66-2.91,7.26-0.74c0.43,0.97,0.2,2.48-0.4,3.16c1.64,0.31,2.79,0.95,3.99,1.81c0.46,0.69,0.67,1.45,0.54,2.42
	c-0.46,3.41-3.5,7.15-7.2,8c-0.63,0.14-1.18,0.15-1.73,0.2c-2.2,0.19-4.45-0.05-5.73-1.48c-0.69-0.77-1.42-1.9-1-3.29
	c-0.61,0.22-1.36,0.97-1.8,1.75c-0.58,1.02-0.5,2.05-0.46,3.49c0.04,1.74,0.2,3.79,0.13,5.51c-0.03,0.78-0.18,1.5-0.13,2.22
	c0.15,2.21,0.84,3.88,1.4,5.64c0.7,1.07,0.56,2.97,1.13,4.17c2.03-0.34,4.37-0.74,6.86-0.54c0.89,0.07,1.74,0.29,2.6,0.2
	c0.44-0.04,0.83-0.28,1.26-0.33c0.82-0.11,1.8-0.1,2.6-0.07c0.61,0.02,1.26,0.17,1.67,0.47c-0.25,0.61-1.01,0.3-1.47,0.07
	c-0.55,0.19-1.13,0.03-1.73,0.06c-0.76,0.04-1.48,0.32-2.27,0.41c-1.18,0.13-2.33-0.18-3.46-0.21c-2.23-0.05-4.37,0.15-6.26,0.74
	c-1.19-0.21-2.39,0.38-3.26,0.47c-0.22-0.07-0.11-0.47-0.34-0.53c0.87-0.5,1.9-0.42,3-0.68c-0.19-1.21-0.57-2.24-0.67-3.56
	c-0.92-2.09-1.64-4.18-1.79-6.92c0.27-2.46,0.12-5.2,0.13-7.93c0-0.81-0.25-1.38,0.13-2.21c0.41-0.9,1.13-1.63,1.6-2.36
	C36.08,30.35,36.75,29.81,37.29,29.15z"/>
<path fill-rule="evenodd" clip-rule="evenodd" fill="#FFFFFF" d="M27.5,32.11c-0.18,0.5,0.16,1.72,0,2.42
	c-0.06,0.24-0.3,0.19-0.07,0.27c-0.11,0.65,0.23,1.58,0.2,1.94c-0.01,0.1-0.17,0.18-0.2,0.27c-0.2,0.61-0.02,1.11,0,1.82
	c0.02,0.72-0.13,1.48-0.07,2.21c0.03,0.26,0.15,0.49,0.14,0.74c-0.02,0.43-0.24,0.7-0.2,1.08c0.03,0.35,0.18,0.76,0.26,1.14
	c0.24,1.13,0.31,2.13,0.34,3.23c0.05,2.31,0.18,4.44,0.2,6.85c-0.07,0.26-0.45-0.21-0.4,0.13c-0.14-1.36-0.27-2.75-0.27-4.23
	c0.01-1.69,0.06-3.44-0.2-4.97c-0.11-0.64-0.39-1.21-0.47-2.02c-0.08-0.99,0.07-2,0.2-2.95c0.08,0.01,0.05,0.13,0.14,0.13
	c-0.38-0.86-0.33-1.71-0.27-2.42c0.09,0.03,0.11,0.12,0.2,0.14c0.03-0.41-0.14-0.67-0.4-1.01c0.22-0.27,0.33-0.66,0.53-0.94
	c-0.14-0.21-0.08-0.15-0.33-0.2c0.04-0.3,0.19-0.48,0.4-0.61c-0.31-0.22,0.06-0.58-0.07-0.8c-0.01-0.15-0.17,0.09-0.26-0.07
	c0.15-0.37,0.06-0.79,0.33-0.74c0.03-0.23-0.11-0.29-0.2-0.4c0.01-0.26,0.26-0.01,0.27-0.14c0.01-0.11-0.2-0.32-0.2-0.2
	c0.12-0.5-0.46-0.97-0.47-1.55c0-0.2,0.25-0.2,0.27-0.4c0.02-0.21-0.41-0.49-0.6-0.81c-0.22-0.35-0.07-0.66-0.47-0.73
	c0-0.71-0.54-0.59-0.53-1.21c-0.7-0.35-0.73-1.33-1.33-1.48c-0.49-0.97-1.44-2.04-2.4-2.76c0.04-0.27-0.18-0.27-0.13-0.53
	c0.2,0.28,0.54,0.44,0.66,0.8c0.13-0.59-0.5-1.3-1.13-1.14c-0.1-0.19,0.02-0.28-0.07-0.54c0.29-0.02,0.35,0.19,0.6,0.2
	c0.01,0.04-0.09,0.09-0.06,0.14c0.15,0.27,0.63,0.63,0.93,1.01c0.69,0.86,1.95,1.53,2,2.41c0,0.07-0.11,0.2-0.14,0.14
	c0.19,0.39,0.77,0.61,0.94,0.87c0.37,1.38,2.11,2.47,2.19,4.1C27.38,31.62,27.12,32.01,27.5,32.11z"/>
<path fill-rule="evenodd" clip-rule="evenodd" fill="#FFFFFF" d="M17.71,23.31c0.21,1.33-1.81,1.83-1.8,0.67
	c0-0.44,0.53-0.32,0.4-1.01C16.67,22.47,17.52,22.85,17.71,23.31z"/>
<path fill-rule="evenodd" clip-rule="evenodd" fill="#FFFFFF" d="M21.17,49.78c0.15,0.36-0.27,0.35-0.07,0.81
	c0.8,0.27,1.92-0.07,1.67-1.28c-0.17-0.13-0.35-0.23-0.6-0.27C22.06,49.52,21.54,49.57,21.17,49.78z M20.44,50.59
	c0.16-0.79,0.71-1.51,1.46-1.48c0.2-0.15-0.17-0.47,0.14-0.54c1.15-0.23,1.57,0.7,1.46,1.41C23.32,51.18,21.08,52,20.44,50.59z"/>
</svg>
