<svg version="1.1" id="圖層_1" xmlns="http://www.w3.org/2000/svg" xmlns:xlink="http://www.w3.org/1999/xlink" x="0px" y="0px"
	 width="4204px" height="36.082px" viewBox="0 0 4204 36.082" enable-background="new 0 0 4204 36.082" xml:space="preserve">
<g>
	<path fill="none" stroke="#824F9D" stroke-linecap="round" stroke-linejoin="round" stroke-miterlimit="10" d="M1494.295,20.495
		c0,0,121.25,19.771,347-2c280-27,488,26,714,7c188.1-15.811,352.725-7.636,443.725,3.364"/>
	<path fill="none" stroke="#824F9D" stroke-linecap="round" stroke-linejoin="round" stroke-miterlimit="10" d="M2999.02,28.859
		c0,0,89.15,16.359,314.9-5.41c280-27,488,26,714,7c188.1-15.811,367-6,458,5"/>
	<path fill="none" stroke="#824F9D" stroke-linecap="round" stroke-linejoin="round" stroke-miterlimit="10" d="M-24.28,10.577
		c0,0,121.25,19.771,347-2c280-27,488,26,714,7c188.101-15.811,367-6,458,5"/>
</g>
</svg>
