<svg version="1.1" id="&#x5716;&#x5C64;_1" xmlns="http://www.w3.org/2000/svg" xmlns:xlink="http://www.w3.org/1999/xlink" x="0px"
	 y="0px" width="4204px" height="36.082px" viewBox="0 0 4204 36.082" style="enable-background:new 0 0 4204 36.082;"
	 xml:space="preserve">
<path style="fill:#F1E9F3;" d="M2832.501-16c-1.574,0-3.147,0-4.723,0c-479.636,0-959.204,0-1438.826,0c-0.375,0-0.75,0-1.125,0
	c-481.196,0-962.34,0-1443.549,0c0,10.799,0,31.231,0,32.073c160.984-1.798,303.579,14.74,457.479,20.005
	c20.734,0,41.473,0,62.202,0c75.246,0.225,150.34-11.426,225.73-15.004c115.633-5.489,235.66,5.002,351.136,5.002
	c37.372,0,75.226-3.277,113.367-6.002c77.041-5.503,155.236-3.599,234.193-4.992c78.957,1.394,157.156-0.511,234.197,4.992
	c38.146,2.725,75.995,6.002,113.367,6.002c115.475,0,235.503-10.491,351.136-5.002c75.39,3.578,150.48,15.229,225.729,15.004
	c20.732,0,41.471,0,62.201,0c152.395-5.213,293.707-21.468,452.758-20.041c0,0.011,0,0.026,0,0.036
	c0.791-0.009,1.571-0.011,2.36-0.019c0.789,0.008,1.571,0.01,2.361,0.019c0-0.01,0-0.025,0-0.036
	c159.05-1.427,300.366,14.828,452.757,20.041c20.734,0,41.471,0,62.202,0c75.246,0.225,150.34-11.426,225.729-15.004
	c115.635-5.489,235.659,5.002,351.139,5.002c37.371,0,75.225-3.277,113.365-6.002c77.226-5.516,155.609-3.588,234.76-5.001
	c0-8.802,0-29.32,0-31.073C3792.455-16,3312.51-16,2832.501-16z"/>
</svg>
