<svg version="1.1" id="圖層_1" xmlns="http://www.w3.org/2000/svg" xmlns:xlink="http://www.w3.org/1999/xlink" x="0px" y="0px"
	 width="4204px" height="62.123px" viewBox="0 0 4204 62.123" enable-background="new 0 0 4204 62.123" xml:space="preserve">
<path fill="#ffffff" d="M4272.451,67.373c0-1.754,0-22.271,0-31.073c-79.148-1.412-157.535,0.516-234.76-5.001
	c-38.143-2.725-75.995-6.002-113.366-6.002c-115.478,0-235.504,10.49-351.138,5.002c-75.389-3.579-150.482-15.229-225.729-15.004
	c-20.731,0-41.468,0-62.202,0c-152.391,5.213-293.707,21.468-452.757,20.041c0-0.013,0-0.026,0-0.036
	c-0.79,0.01-1.571,0.012-2.36,0.02c-0.789-0.008-1.57-0.01-2.361-0.02c0,0.01,0,0.023,0,0.036
	c-159.051,1.427-300.365-14.828-452.758-20.041c-20.732,0-41.469,0-62.201,0c-75.246-0.225-150.34,11.425-225.729,15.004
	c-115.633,5.488-235.661-5.002-351.136-5.002c-37.372,0-75.225,3.277-113.367,6.002c-77.041,5.503-155.24,3.599-234.197,4.992
	c-78.957-1.394-157.154,0.511-234.195-4.992c-38.143-2.725-75.995-6.002-113.367-6.002c-115.476,0-235.503,10.49-351.136,5.002
	C614.299,26.72,539.206,15.07,463.96,15.295c-20.731,0-41.468,0-62.202,0C247.858,20.56,105.263,37.099-55.721,35.3
	c0,0.842,0,21.273,0,32.073c481.209,0,962.353,0,1443.549,0c0.375,0,0.75,0,1.125,0c479.622,0,959.189,0,1438.826,0
	c1.575,0,3.148,0,4.723,0C3312.51,67.373,3792.455,67.373,4272.451,67.373z"/>
</svg>
