<svg version="1.1" id="圖層_1" xmlns="http://www.w3.org/2000/svg" xmlns:xlink="http://www.w3.org/1999/xlink" x="0px" y="0px"
	 width="20.294px" height="20.294px" viewBox="0 0 20.294 20.294" enable-background="new 0 0 20.294 20.294" xml:space="preserve">
<path fill="#FFFFFF" d="M10.147,0C4.543,0,0,4.543,0,10.147s4.543,10.147,10.147,10.147s10.147-4.543,10.147-10.147
	S15.751,0,10.147,0z M12.896,9.772h-2.068v5.162H9.297V9.772H7.397V8.855h1.899V7.7c0-1.408,0.806-2.341,2.418-2.341
	c0.254,0,0.475,0.008,0.661,0.024c0.188,0.016,0.348,0.038,0.48,0.065v1.021c-0.157-0.019-0.31-0.032-0.457-0.041
	c-0.148-0.01-0.301-0.015-0.458-0.015c-0.393,0-0.676,0.08-0.852,0.24c-0.175,0.16-0.262,0.665-0.262,1.059v1.142h2.068V9.772z"/>
</svg>
