<svg version="1.1" id="圖層_1" xmlns="http://www.w3.org/2000/svg" xmlns:xlink="http://www.w3.org/1999/xlink" x="0px" y="0px"
	 width="1440px" height="483px" viewBox="0 214 1440 483" enable-background="new 0 214 1440 483" xml:space="preserve">
<g>
	<path fill="#FFFFFF" d="M732,415.5c0,0,10.55-4.721,20-3l-3,6c0,0-14.15-0.171-15,11c-0.85,11.17,6.5,18.619,14,18
		c7.5-0.62,15.74-8.78,14-17c-1.74-8.221-10-10-10-10l5-7c0,0,8.64,4.85,8,17l3-1c0,0-0.5-18.62-11-19l10-21c0,0,5.25,0.25,6-2
		c0,0,10.74,7.93,15,8c4.26,0.069,1-2,1-2l12-4v-2l-11,3c-2.1,0.569-2,2-2,2s-10.16-5.04-13-7c-2.84-1.961-1-2-1-2l6-6l-5-3l-3,5
		l-4-2l2-4l-4-2l-2,6c0,0-3.99,0.26-4-3c-0.01-3.261-0.04-13.74-3-13c-2.96,0.739,0.18,7.35,0,10c-0.18,2.649,2,9,2,9
		s0.13,9.289,4,10l-9,19c0,0-12.04-6.04-22,0V415.5z"/>
	<path fill="#FFFFFF" d="M767,404.5c0,0,7.1,11.159,14,15l-1,8c0,0-5.71,4.439-4,9c1.71,4.56,17,4,17,4l15,1c0,0,8.68,0.67,13-2
		c4.32-2.671,4-12,4-12l11,1c0,0,13.42-4.101,14-8c0.58-3.9-5.85-7.58-15-7c-9.15,0.579-22.43,3.649-31,0
		c-8.57-3.65-13.81-8.931-18-9C781.81,404.43,774.8,394.92,767,404.5z"/>
	<path fill="#FFFFFF" d="M754,348.5l3,5l5-1l-4-5C758,347.5,754.49,346,754,348.5z"/>
	<path fill="#FFFFFF" d="M766,356.5c0,0,6.3-2.591,10-1c3.7,1.59,6.52,4.029,2,4C773.48,359.47,766.59,359.48,766,356.5z"/>
	<path fill="#FFFFFF" d="M810,341.5c0,0-9.5,7.949-8,16c1.5,8.05,14.13,7.46,18,2C823.87,354.039,817.84,342.07,810,341.5z"/>
	<path fill="#FFFFFF" d="M841,349.5c0,0-8.54,4.6-9,9c-0.46,4.399,3.05,15.05,13,9c9.95-6.051,3-11,3-11L841,349.5z"/>
	<path fill="#FFFFFF" d="M851,363.5c0,0,5.54,0.97,6,7c0.46,6.029,6.43,6.22,9,5c0,0-2.22-0.33-3-6
		C862.22,363.829,854.99,357.09,851,363.5z"/>
	<path fill="#FFFFFF" d="M804,398.5c0,0,4.07,0.81,8,0c3.93-0.811,4-4,4-4l-1-2C815,392.5,805.53,396.03,804,398.5z"/>
	<path fill="#FFFFFF" d="M827,444.5c0,0-5.26,10.31-4,16c1.26,5.689,8.67,14.239,17,14c8.33-0.24,20.95-4.15,20-18
		c-0.95-13.851-21-18-21-18l-4-9h-4l5,11C836,440.5,828.15,440.53,827,444.5z"/>
	<path fill="#FFFFFF" d="M811,450.5l8-2l6-5l-2-8c0,0-1.69,2.539-2,2c-0.31-0.54,1,5,1,5S811.75,448.17,811,450.5z"/>
	<path fill="#FFFFFF" d="M798,438.5c-0.05-0.351,0,10,0,10s-16.76,2.31-17,2c-0.24-0.311,0.46-3.461,5-4c4.54-0.54,8-2,8-2v-6
		C794,438.5,798.05,438.85,798,438.5z"/>
</g>
<path fill="#E3F0DF" d="M-22,746.5c0,0,48-112,112-143c22.36-10.83,56-49,96-29s113,58,131,31s80-107,111-103s51,34,65,74
	s47,48,57,22s73-146,164-145s204,20,285,134c0,0,58,96,66,85s122-103,265-46s141,105,141,105l-7,15H-22L-22,746.5z"/>
<path fill="#FEF8C9" d="M805,410.5c0,0-12.99,10.739-13,13c-0.01,2.26,0,19,0,19l6-1c0,0,1.3-13.83,2-14
	c0.7-0.171,17.48-11.87,18-14c0.52-2.131,1-3,1-3H805z"/>
<path fill="#7C4697" d="M752.53,350.329c1.88,1.16,2.14,2.971,3.069,5.53c0.7-1.97,2.25-3.08,4.61-3.38
	c-0.49-1.76-1.25-3.26-2.15-4.61C755.69,347.949,753.36,348.06,752.53,350.329z M762.67,353.71c-2.42,0.31-5.41,1.159-6.76,3.38
	c-2.8-1.09-2.04-5.74-5.22-6.45c0.829-2.75,3.699-4.41,6.75-4C760.46,345.21,761.07,351.05,762.67,353.71z"/>
<path fill="#7C4697" d="M809.05,352.17c-0.54-0.62-0.77,1.67-1.84,1.54c-0.89-0.65-1.2-1.881-2.46-2.15
	c-0.13-1.26,1.01-1.25,0.61-2.771c0.739-0.189,1.409-0.439,2.46-0.31c0.55,1.78,3.199,2.15,2.77,4c0.3,0.51,1.42,0.22,1.53,0.92
	C811.16,355.28,808.46,352.789,809.05,352.17z"/>
<path fill="#7C4697" d="M812.74,353.09c0.72,0,0.899,0.529,1.84,0.31c-0.14,2.19,2.1,2,2.46,3.69c-0.021,0.899-0.7,1.14-1.229,1.529
	c-0.7-0.43-1.98-0.27-1.841-1.529c-1.17,0.39-3.27,0.029-2.77-2.15C813.05,355.02,811.81,353.93,812.74,353.09z"/>
<path fill="#7C4697" d="M778.64,357.09c-3.029-0.2-6.069-2.011-9.83-1.23c-1.34-0.01-1.54,1.12-3.069,0.92
	c0.37-2.68,5.359-2.689,8.29-2.46c0.68,0.061,0.95,0.771,1.54,0.92C777.15,355.67,779.1,354.88,778.64,357.09z"/>
<path fill="#7C4697" d="M836.08,360.78c-1.71,0.17-2.15-0.92-3.07-1.54c0.431-1.21,0.83-2.45,2.15-2.77
	C836.68,357.8,836.97,358.42,836.08,360.78z"/>
<path fill="#D4EDFC" d="M779,360.5c0,0,20.45,5.979,24,12c3.55,6.02,3.45,32.829,1,37l16-1c0,0,1.84-33.16-6-38c0,0-3.44-5.431-9-6
	c-5.56-0.57-25-7-25-7L779,360.5z"/>
<path fill="#7C4697" d="M842.53,363.23c-0.061,0.99,0.55,1.3,0.31,2.46c-1.75,1.13-3.18-0.13-4.609-0.92
	C838.12,362.289,840.7,363.09,842.53,363.23z"/>
<path fill="#7C4697" d="M754.37,364.46h1.229c0.04,6.79,2.011,11.409,4.301,14.75c-3.4,2.029-3.32-3.841-4.301-7.061
	C755.01,370.19,753.02,367,754.37,364.46z"/>
<path fill="#7C4697" d="M826.87,367.539c1.43,1.79-2.53,3.37-4,4.301c-1.3,0.64-1.44,2.439-3.68,2.149
	c-0.511-1.84,1.1-1.56,1.84-2.149C822.69,370.119,825.48,369.53,826.87,367.539z"/>
<path fill="#7C4697" d="M833.01,369.38c0.25,0.06,0.311,0.31,0.62,0.31c2.44,3.21,3.24,8.24,3.37,12.6
	c0.12,3.881-0.38,7.86-0.92,11.98c-0.22,1.66,0.729,4.47-1.53,4.61c-1.59-1.15,0.101-2.83,0.3-4c1.46-8.431,0.051-17.83-1.529-24.58
	C832.96,370.25,833.06,369.74,833.01,369.38z"/>
<path fill="#7C4697" d="M737.48,381.67c-1.19,3.63-6.561,3.069-10.141,4.3c-0.8,0.26,0.59,1.35-0.31,1.85
	c-0.65-0.37-1.67-0.38-1.841-1.229c1.061-3.24,6.08-2.521,9.211-3.69C734.95,382.01,735.82,381.449,737.48,381.67z"/>
<path fill="#7C4697" d="M819.5,396.42c0.24,0.159,0.49,0.319,0.92,0.31c-0.27,2.54,1.54,9.89-0.62,12.29
	C818.95,406.289,819.49,400.329,819.5,396.42z"/>
<path fill="#FFCAE4" d="M832,366.5l-13,9l1,14l-4,3l1,4l4-2v14c0,0,7.29-2.721,9-3C831.71,405.22,838.63,384.05,832,366.5z"/>
<path fill="#7C4697" d="M731.64,397.65c0.17,1.601-2.42,0.45-2.76,1.54c-2.68,1.42-3.2,4.99-6.46,5.83
	c-0.77-1.33,0.6-1.04,1.23-1.84c1.1-1.38,2.52-3.71,4-4.91C728.34,397.699,730.31,396.4,731.64,397.65z"/>
<path fill="#D4EDFC" d="M801,388.5l3,2l5-4l-1-4C808,382.5,803.52,387.72,801,388.5z"/>
<path fill="#7C4697" d="M834.24,399.49c0.6,1.74-0.2,3.42,0.609,5.23C832.28,404.94,833.27,400.25,834.24,399.49z"/>
<path fill="#FFFFFF" d="M957,500.5l58,48c0,0,24.66-20.15,19-40c-5.66-19.851-20.22-31.33-34-31
	C986.22,477.829,966.02,483.47,957,500.5z"/>
<path fill="#FEF8C9" d="M935,509.5c0,0-1.24,9.409,3,13c4.24,3.59,14-1,14-1l35,30c-3.39,1.22-4.15,10.8-1,15c3.15,4.199,18-1,18-1
	l16,13c0,0,8.28-0.931,13-6c4.72-5.07-8-21-8-21s7.35-6.931,12-34c4.65-27.07-23.19-40.561-39-42c-15.81-1.44-48,21-48,21l-19-9
	l-11,13L935,509.5z M962,501.5c12.7-20.79,39.99-25.431,51-14c11.01,11.43-14,43-14,43L962,501.5z M1003,533.5
	c0,0,22.93-22.45,26-19c3.07,3.449-12,28-12,28L1003,533.5z"/>
<path fill="#7C4697" d="M833.32,405.949c-4.511-1.09-7.37,2.551-11.67,1.53c-0.45-1.71,2.609-1.43,4.3-1.84
	C828.53,405.01,832.34,402.22,833.32,405.949z"/>
<path fill="#7C4697" d="M820.42,436.369c0.67,0.04,0.66,0.771,0.61,1.54C820.41,437.68,819.78,436.98,820.42,436.369z"/>
<path fill="#7C4697" d="M913.8,479.699c0.521,0.15,2.891,0.32,2.15,1.53c1.35,0.37,4.3,1.82,2.77,3.08c-1,0.27-0.439-1.01-0.93-1.23
	c-1.74,0.021-2.67-1.52-3.68-2.46c-2.08-1.92-6.82-3.31-6.45-6.149h1.229c-0.029,0.84,0.511,0.62,0,1.229
	c2.15-0.279,3.15,2.9,5.53,3.38C914.53,479.61,914.18,479.659,913.8,479.699z"/>
<path fill="#7C4697" d="M911.65,487.07c-2.811,0.29-4.311-2.899-7.07-3.689c-1.44-0.41-2.771,0.069-3.99-1.221
	c-0.16-0.25-0.32-0.5-0.3-0.93c0.24-0.16,0.49-0.32,0.92-0.3c3.07,0.91,6.24,1.74,7.98,3.99
	C910.58,485.14,912.34,485.68,911.65,487.07z"/>
<path fill="#FEF8C9" d="M833,405.5c0,0,1.87,12.71-9,18v13l-3,1l-6-15l5-14L833,405.5z"/>
<path fill="#7C4697" d="M1005.03,483.38c0.59,1.83-0.42,3.729,0,5.229c1.85-1.359,4.95-3.05,7.38-1.229
	c-0.17,1.52-1.44,3.09-1.85,5.22c-2.891-0.43-1.171-2.58-0.61-4.3c-2.101-0.311-3.65,2.46-7.07,1.85c-0.72-2.01,0.87-3.13,0.62-5.54
	c-2.46,0.05-4.93,1.57-6.76,1.23C997.35,482.99,1002.67,482.55,1005.03,483.38z"/>
<path fill="#7C4697" d="M994.9,484.31c-1.99,3.04-5.051,6.61-4.301,11.37c2.99,7.6,15.83,6.149,18.431-0.93
	c-0.28-0.54-1.25-0.391-0.92-1.53c1.279-0.16,2.08,0.17,2.76,0.609c-2.09,10.431-16.94,11.96-21.81,3.08
	c-1-5.83,1.739-9.67,4.92-12.91C994.47,483.909,994.5,484.289,994.9,484.31z"/>
<path fill="#7C4697" d="M997.66,488.92c-0.32,3.42,1.609,3.069,2.46,4.909c-2.46,0.07-4.94-2.409-7.99-2.76
	C991.44,486.9,996.04,486.73,997.66,488.92z"/>
<path fill="#7C4697" d="M1005.03,495.98c0.569,1.79-1.181,1.28-0.92,2.771c-2.19,0.189-2.471-1.921-4.3-1.23
	c0.229-0.95-0.841-0.59-0.61-1.54C1000.96,492.659,1002.71,494.15,1005.03,495.98z"/>
<path fill="#7C4697" d="M980.15,495.98c-2.86,0.25-6.73,0.96-8.91,1.85c2.07,1.07,2.35,5,4.92,4.61c-0.13,1.811-1.6,0.9-2.771,0.61
	c-1.34-2.75-3.56-4.63-4.6-7.681c0.88-0.79,2.07-0.029,2.15,0.92C973.27,495.85,979.39,492.23,980.15,495.98z"/>
<path fill="#7C4697" d="M981.07,507.659c-0.811,1.03-1.931,1.75-3.681,1.841C976.81,507.36,980.56,505.789,981.07,507.659z"/>
<path fill="#7C4697" d="M740.24,369.99c0.069,0.53-0.521,0.8,0,0.931c-1.42,1.899-8.09-2.421-10.141,0.92
	c-0.489-0.431-1.58-0.261-1.84-0.92C730.18,367.57,736.68,369.67,740.24,369.99z"/>
<path fill="#7C4697" d="M950.66,533.47c2.32,0.68,6.149,5.85,9.22,7.989c0.97,0.681,2.07,0.53,2.76,1.23
	c0.54,0.55,0.42,1.4,0.92,1.85c0.551,0.48,1.62,0.48,2.15,0.92c1.12,0.91,2.71,3.211,3.38,4.301c0.141,0.22,1.05,0.1,1.23,0.31
	c1.17,1.29,2.17,3.59,2.77,4.3c2.71,3.23,6.51,6.59,7.98,9.221c-1.101-4.57,1.149-9.78,3.38-12.91c-1.66-1.16-3.641-1.931-5.22-3.07
	c-2.641-1.9-4.61-4.36-7.061-6.45c-3.07-2.63-7.97-3.649-9.83-7.689c-4.939-1.92-7.4-6.33-11.37-9.221
	c-2.069,1.21-4.95,1.601-7.37,2.46C946.07,528.699,949.29,531.4,950.66,533.47z M1028.99,543.92c0.34-2.841,2.279-6.73,4.31-8.91
	c2.38-9.54,6.98-18.51,4.3-30.12c-1.359-5.86-5.75-11.74-8.909-15.67c-3.16-3.92-6.42-7.141-10.141-8.91
	c-8.66-4.11-24.02-7.12-33.18-3.38c-11.06,4.52-22.63,12.16-31.64,18.13c0.01-0.17-0.24-0.35-0.301,0c0.66,0.78-1.92,0.94-1.85,2.15
	c-1.54,0.01-2.86-0.051-3.68-0.61c-2.28-1.57-4.69-3.66-6.761-4.92c-3.26-1.99-6.97-2.78-10.14-4.61c-0.05-0.46,0.11-1.13-0.3-1.229
	c-5.28,4-8.04,8.63-10.14,15.67c0.64,0.609,2.14,0.45,3.069,1.229c0.13,0.12-0.14,0.84,0,0.931c2.34,1.43,6.69,2.18,8.601,3.989
	c0.119,0.11-0.131,0.851,0,0.92c2.539,1.4,5.13-0.88,6.76,0.921c-3.92,0.489-4.061,4.75-4.3,8.92c2.79,0.869,4.729,5.529,7.989,6.14
	c2.301,0.43,4.12-1.22,6.45-1.229c-0.05-0.761-0.06-1.49,0.61-1.53c2.67,0.42,2.09-1.511,3.38-1.851c0.12,0.591,1.19,0.25,0.92,1.23
	c0.05,1.479-1.79,1.08-2.15,2.15c2.66,1.239,4.28,3.51,5.841,5.84c3.8,1.319,5.96,4.279,8.289,7.069
	c5.061,1.29,6.891,5.811,11.37,7.681c0.091,0.42,0.431,0.59,0.311,1.229c3.14,0.95,5.17,3.021,7.37,4.92
	c0.64-0.689,1.02-1.64,2.449-1.54c0,0.46,1.15,1.261,0.311,1.54c-0.48-0.14-0.26-0.97-1.23-0.62c-1.529,4.551-5.01,6.98-3.989,12.29
	c1.689,8.82,13.819,8.45,19.97,3.38c-1.17-1.029-4.23-1.63-3.69-3.38c1.71,0.75,2.971,1.95,4.301,3.08
	c1.1-1.81-1.771-1.229-1.53-3.08c2.04,0.54,3.67,2.36,3.07,4.61c2.76,2.07,6.369,5.1,8.6,7.689c1.83,2.12,6.859,7.25,9.52,7.681
	c4.94,0.79,7.881-4,9.83-6.76c1.96-2.79,2.69-5.891,2.15-8.91c-1.19-2.19-2.8-3.96-3.69-6.46c-2.59-2.21-5.29-4.33-6.75-7.681
	C1026.08,549.55,1027.061,545.03,1028.99,543.92z M792.77,447.43c-3.01-1.851-9.039,0.34-11.67,1.85
	c4.311,1.29,8.92-2.069,14.131-0.93c0.08-0.63,0.819-0.61,1.229-0.92c0.05-1.59-0.19-3.47,0.3-4.61H794
	C793.67,444.97,794.48,446.52,792.77,447.43z M839.46,444.67c0.34,3.859,1.61,6.79,4.92,7.68c-2.01-4.88-5.06-7.68-6.149-12.91
	h-1.53C836.67,440.97,838.3,443.32,839.46,444.67z M821.65,443.74c-1.521,0.23-1.971,0.13-3.08,0.311
	c-1.71,2.899-5.601,3.62-6.45,7.38c2.3-0.58,3.46-2.28,6.76-1.851c1.54-2.409,2.59-3.5,5.22-4.909
	c-1.069-2.721,0.92-5.921-0.609-7.99C821.69,438.63,822.73,441.69,821.65,443.74z M821.03,437.909c0.05-0.77,0.06-1.5-0.61-1.54
	C819.78,436.98,820.41,437.68,821.03,437.909z M780.79,419.159c1.24-0.409,2.16,2.141,4.61,1.54c0.38,2.17,4.119,0.99,3.989,3.681
	c-2.96-0.63-5.939-2.12-8.6-3.681c0.24,3.13-1.021,4.891-0.92,7.07c-0.79,0.94-2.69,0.79-3.38,1.84c-0.13,0.74-0.57,2.22-0.92,3.99
	c1.96,5.29,10.029,5.67,15.359,5.84c-1.609-6.36,0.15-14.26,0.92-19.97c3.82-1.12,5.271-5.46,8.601-6.15
	c-1.561-0.38-2.101-1.79-3.38-2.46c-0.811-0.09,0.29,1.73-0.92,1.23c-1.101,0.18-0.931-0.91-0.92-1.84
	c-1.801-1.271-3.41-2.74-4.921-4.301c-2.3,0.15-3.029-1.27-5.529-0.93c-3.05-1.15-6.75-4.78-10.44-4.6
	c-2.59,0.119-3.57,2.51-6.14,3.069c0.01,6.181,5.33,9.58,9.83,12.29c-0.061,1.34-1.46-0.37-1.23,0.92
	C778.02,416.71,780.36,418.42,780.79,419.159z M750.69,427.77c0.01-0.33-0.15-0.78-0.311-0.31c0.311,1.699-0.91,4.369-1.84,5.84
	c-0.19-0.431-1.19-0.05-1.23-0.62c5.53-14.03,12.891-26.23,17.811-40.87c-1.36,0.34-1.521-0.521-2.45-0.61
	c-5.83,15.78-12.79,26.66-18.13,40.561c-0.76,0.05-1.49,0.06-1.53-0.61c1.62-4.14,3.63-9.439,5.83-11.99
	c-1.21-0.42-2.74-0.229-4.91-0.31c-2.449,1.14-4.939,2.229-7.069,3.689c-0.88,2.461-2.801,5.74-3.07,8.61
	c-0.38,4.101,1.21,7.22,2.15,10.14c1.909,5.891,14.189,6.82,19.659,4.301c5.08-4.48,8.311-17.41,1.841-22.431
	c-1.261-0.27-2.54-0.54-2.45-2.159c5.3,0.739,7.04,5.05,8.29,9.84c0-4.61-1.41-7.811-2.46-11.37c-1.07-0.61-3.561-2.75-3.381-4.61
	h1.851c3.09,4.601,4.78,7.78,5.53,14.44c1.09,0.14,0.8,1.649,1.84,1.85c-0.18-0.8,0.12-1.109,0.92-0.93
	c0.33-7.79-0.33-17.48-9.21-18.43C755.85,417.159,753.48,422.67,750.69,427.77z M788.47,383.52c2.5-0.11,3.74-0.1,6.45-0.31
	c-0.31-1.24,0.48-1.37,0.92-1.851C793.39,380.24,787.1,378.57,788.47,383.52z M762.67,379.52c-1.32,1.24-1.09,3.34-2.46,4.61
	c-0.56,11.17,17.59,5.26,11.36-3.99C768.6,378.829,765.27,377.07,762.67,379.52z M774.03,375.52c-0.53,1.22-0.86,2.63-1.84,3.39
	c2.02,0.32,1.239,3.46,2.46,4.61c1.29-1.88,3.069-3.28,4.3-5.23C777.14,377.53,776.84,375.28,774.03,375.52z M764.51,376.75
	c1.561-0.341,1.98-0.761,3.38,0c0.54-1.19,1.25-2.23,1.841-3.381c-1.17-0.26-2.601-1.89-3.99-0.92
	C766.52,373.73,763.22,374.949,764.51,376.75z M1001.66,593.09c0.66-0.051,0.13,1.09,0.3,1.529c0.57-0.039,1.03-0.199,1.229-0.609
	C1002.77,593.789,1001.24,592.19,1001.66,593.09z M773.11,388.119c3.939,3.431,9.529,5.221,15.05,7.07c0.8-0.11-1.101-2.9,0.92-2.46
	c-4.6-0.04-10.13-3.479-14.13-6.76c0.729-2.69,3.05,0.43,4,1.229c1.1-1.97,2.46-3.68,2.76-6.449c1.81,0.229,3.95,0.14,5.53,0.609
	c0.63-0.49-0.01-2.26,0.609-2.76c4.08,0,5.881,0.57,9.221,1.229c0.21,2.671-0.7,4.21-2.15,5.221c-2.97-0.351-4.74-0.29-7.37,0.31
	c-0.55-0.41-0.95-1.78-0.31-2.46c-0.681-0.31-2.84,0.03-3.99-0.61c-1.37,1.391-1.5,4.03-3.38,4.91c1.569,1.91,4.67,2.29,6.76,3.69
	c1.95-3.92,8.61-1.24,11.98-3.69c-0.641,4.65-6.421,2.391-9.53,3.38c0.399,1.4,2.04,0.381,1.229,2.46c4.28-0.22,7.4-2.56,9.83-3.689
	c0.181-1.62-2.1-2.04-1.229-3.38c1.31-0.17,1.43,0.83,1.85,1.54c4.74-3.141,9.05-6.721,11.36-12.29c3.72,0.87-0.36,3.59-1.23,4.609
	c-1.52,1.811-2.819,3.87-3.68,5.221c-2.19,0.989-3.72,2.63-6.15,3.38c1.021,0.62,1.83,1.45,2.771,2.149
	c2.68-3.46,9.03-6.189,9.52-9.829c0.5-0.29,1.48-0.271,2.15,0c-1.24,3.779-4.38,5.659-7.37,7.68c-0.63,0.979-2.39,3.03-4.3,3.689
	c-0.73-0.3-0.97-1.08-1.84-1.229c-3.09,1.99-9.41,2.149-11.98,5.53c-1.3,0.34-2.93,0.35-4.609,0.31
	c-3.221-2.72-9.25-3.65-12.601-7.07c-2.26,1.13-2.64,2.42-6.14,2.46c-3.391,3.78-1.67,7.82,0,12.29c1.07-0.649-0.43-1.02,0.31-2.46
	c4.83-4.63,11.96-3.239,16.891,0.62c0.21,1.43,4.359,0.61,7.069,1.84c1.87,0.851,3.88,3.59,5.221,5.23
	c3.369-0.99,3.949,5.32,7.06,2.149c-2.8,3.851-7.25,6.061-10.44,9.521c-0.43,5.649-1.58,13.87-0.609,19.67
	c1.25,0.58,3.859-0.05,5.53,0.31c1.739-2.75-0.601-8.56,1.84-10.76c-0.69-0.54-0.61-1.85-0.92-2.76c1.31-0.11,3.1-1.34,3.38-3.39
	c6.81-3.62,12.05-5.53,15.66-11.671c1.31,0.391-0.03,1.53,0.31,2.761c-0.91,1.029-3.229,1.62-2.77,3.08
	c-4.521,2.37-8,5.109-12.28,7.06c-0.25,0.98-0.53,1.93-1.851,1.85c4.45,1.32,10.141-0.279,14.131,0.61
	c0.149-2.31-2.011-2.95-2.15-5.84c2.16-1.94,4.15-5.68,7.07-5.83c-0.42,1.56-3.63,2.88-3.99,5.53c-0.771,0.25-1.21,0.84-2.15,0.92
	c1.101,0.43,1.061,1.08,1.22,1.84c0.841,0.22-0.22-1.45,0.62-1.23c2.25,5,2.88,8.29,4.301,12.601c0.699-0.08,1.149,0.08,1.229,0.62
	c1.75-0.65,3.44-2.84,5.53-2.16c-1.83,2.09-1.07,6.53-2.15,8.61c5.22,1.75,0.32,6.72-0.62,10.449
	c-1.08,4.311,0.59,10.311,3.38,13.83c3.021,3.8,6.5,6.7,13.21,6.761c2.011,0.01,4.65-0.631,6.761-0.931
	c4.5-0.62,9.149-2.75,11.359-7.06c0.61-0.521,0.391,0.02,1.23,0c-0.521-2.23,1.04-4.13,1.229-6.46c0.57-6.83-3.88-12.54-7.369-16.28
	c-3.971-1.78-7.65-4.3-14.131-4.3c1.79,5.95,4.931,8.78,6.45,14.74c-2.27,1.529-4.25-1.381-6.45-1.841
	c-0.54-3.96-3.26-7.869-4.609-11.979c-3.32,0.49-5.09,4.09-7.98,3.99c1.21-3.101,4.73-4.801,7.67-5.221
	c-0.739-2.97-3.54-5.439-3.38-8.3c3.54,1.41,2.78,5.22,5.23,7.68c1.59-2.14-2.13-5.539-1.54-7.68c2.96,1.04,2.62,4.83,3.99,6.76
	c7.279,0.101,12.069,2.681,16.59,5.53c0.399,1.351,1.42,2.07,2.46,2.771c1.06,1.319,1.54,3.359,2.76,3.689
	c1.87,4.23,2.96,13.34-0.3,17.51c-0.68,0.87-2.65,4.051-4.61,4c-3.58,4.221-10.59,3.45-16.59,4.301c7.55,3.5,16.49,1.939,24.58,4.3
	c4.57,1.33,9.47,4.01,14.44,4.609c3.279,3.471,7.989,5.521,11.67,8.601c4.47,1.58,8.789,3.29,11.979,6.149
	c11.57,2.7,17.33,9.601,26.41,14.44c0.54,2.54,3.45,2.7,4.61,4.61c-0.011-1.61,0.21-5.21,1.229-6.761
	c-5.18-2.8-10.16-5.81-15.36-8.6c1.23-8.07,5.65-14.3,11.98-18.13c0.96-0.141,0.979,0.649,0.92,1.53
	c6.39,2.289,12.189,6.529,18.439,9.84c1.12,0.1,1.221-0.83,1.53-1.54c7.04-3.91,13.45-8.46,19.97-12.91
	c6.32-1.78,11.5-6.17,18.431-7.37c11.12-1.93,23.569,2.44,33.18,7.07c7.57,7.85,16.33,16.649,16.58,30.109
	c0.29,15.65-7.83,28.521-13.51,40.261c0.09,0.81-0.641,0.79-1.23,0.92c3.47,0.93,4.07,4.729,7.061,6.14
	c1.989,4.48,5.979,7.75,4.609,13.22c-0.09,0.38-0.829,0.41-0.92,0.61c-0.56,1.24-0.78,3.25-1.84,4.609
	c-2.09,2.681-6.649,6.36-8.3,6.761c-3.92,0.97-7.85-3.04-9.83-4.61c-3.69-2.93-6.78-9.05-11.67-10.75
	c-0.13-0.59-0.66-0.77-0.61-1.54c-2.71,0.91-6.43,3.55-10.14,4c-3.2,0.38-5.62-0.689-7.99-1.229c3.71,2.569,5.29,6.819,7.68,10.439
	c1.08,1.63,2.74,2.53,4,4c2.86,3.351,4.761,7.79,7.98,11.061c0.9,0.08,0.95-0.69,1.84-0.61c0.78,2.5,2.72,3.84,3.69,6.14
	c10.29,9.78,17.31,22.841,28.569,31.65v0.93c5.681,5.98,8.79,15.131,14.131,22.431c1.38,1.89,3.18,3.479,4.3,5.529
	c2.68,4.921,3.72,10.74,7.37,15.061c1.27,4.12,5.688,6.52,5.229,11.37c-2.52,0.54-4.82-1.94-4.92-5.54
	c0.92,1.64,1.811,3.319,3.07,4.609c0.33-1.96-1.74-5.51-3.381-5.529c0.101-2.24-1.59-4.2-2.76-6.141
	c-3.33-5.52-5.27-13.18-9.83-17.83c-3.689-6.55-7.89-12.59-11.369-19.35c-2.312-2.4-3.32-6.11-6.761-7.38v-0.92
	c-6.04-4.69-10.189-11.13-14.739-17.21c-3.78-5.05-9.391-8.69-12.29-14.44c-0.771-0.62-1.03,0.8-2.15,0
	c-1.98-1.57-2.05-1.78-3.99-3.38c0.15-0.97-0.67-1.2,0-1.85c-10.26-12.471-18.46-27.011-30.41-37.79
	c-0.35-2.221-2.479-2.65-3.069-4.61c-8.69-7.81-18.431-14.56-25.811-23.66c-4.54-0.58-6.93-3.319-8.6-6.76
	c-5.01-4.31-11.45-7.19-15.67-12.3c-13.45-6.82-28.57-11.97-39.62-21.2c-2.49,1.01-3.15-1.59-5.22-0.92
	c0.25-0.87-0.44-0.8-0.311-1.54c-3.569-0.34-8.76-1.67-11.979-3.38c-11.96,0.59-22.59-4.601-34.41-7.07
	c-4.74-0.99-10.12-1.17-14.74-2.76c-7.43-2.55-12.729-3.14-21.81-4.3c-2.91-0.38-5.13-1.37-7.37-2.16
	c-4.73-1.66-9.98-2.47-15.061-3.99c-9.34-2.8-19.159-6.71-30.1-6.45c-4.96,0.11-8.82,0.19-13.82,0
	c-15.939-0.63-32.38,2.17-47.92,7.07c-0.359,0.05-0.26,0.56-0.31,0.92c-10.22,5.14-18.561,12.16-29.18,16.9
	c-6.54,3.819-11.25,9.12-15.67,15.05c-1.961,2.63-4.48,5.35-6.45,8.61c-0.28,0.47-0.101,1.13-0.311,1.54
	c-0.51,1-1.43,1.02-2.46,2.149c-3.609,3.93-6.39,8.98-11.359,11.67c-2.641,4.07-7.62,8.33-12.29,11.37
	c-2.261,4.71-7.37,6.561-8.91,11.99c-5.88,2.82-6.44,10.97-11.98,14.13v1.229c-8.689,9.011-15.84,20.9-21.5,31.961
	c-4.06,5.159-7.319,11.109-10.439,17.21c-1.57,0.479-1.33,2.02-2.16,3.069c-4.03,5.17-15.08,6.08-22.73,5.53
	c-5.569-0.4-8.46-3.13-11.979-6.14c-0.24-0.21-0.96,0.17-1.23,0c-0.14-0.101,0.131-0.79,0-0.92c-0.47-0.521-2.029-0.811-2.149-0.931
	c-0.57-0.569-0.73-1.54-1.22-2.149c-1.811-2.21-2.711-3.94-4-6.761c-0.561-1.229-1.61-1.97-2.15-3.069
	c-1.271-2.58-1.35-5.301-2.15-8.301c-0.47-1.77-1.529-3.149-2.149-4.909c-0.98-2.79-1.261-5.83-2.15-8.61
	c-0.75-2.33-2.11-4.46-2.76-6.45c-0.46-1.38,0.1-2.84-1.23-3.689c-1.319-4.38-3.71-8.471-5.22-13.21
	c-2.03-6.341-3.12-13.591-7.07-17.83c-2.56-8.9-9.13-14.03-15.97-19.051c-1-0.729-1.89-1.859-2.77-2.46
	c-0.46-0.31-1.08,0.051-1.53-0.3c-0.561-0.439-0.7-1.45-1.23-1.85c-2.399-1.771-5.92-1.44-7.68-3.99
	c-4.9-1.66-10.439-3.14-15.67-4.92c-0.29-0.1-1.24-0.31-1.23-0.3c-12.74-1.95-24.089,3.93-31.02,10.75
	c-5.78,2.21-9.31,6.66-14.13,9.83c-0.67,1.08-1.61,1.87-2.77,2.46c-18.62,18.25-34.36,39.38-52.22,58.39
	c1.41-5.87,8.01-9.189,10.75-14.75c1.34,0.42,0.66-1.189,1.84-0.93c4.3-7.89,11.37-13.01,16.29-20.28c3.02-2.4,5.47-5.38,7.68-8.6
	c0.49-0.09,0.52,0.29,0.92,0.31c4.14-6.24,9.87-11.87,15.97-16.899c1.29-1.07,2.24-2.551,3.07-3.08c1.05-0.66,0.88,0.239,1.85-0.92
	c3.66-4.4,10.49-6.551,14.43-11.37c3.98-2.261,8.58-4.13,12.29-5.84c15.49-3.15,29.78,3.739,40.86,8.909
	c-0.01,1.86,2.55,1.141,2.45,3.08c8.75,5.36,16.13,11.2,19.66,21.51c4.619,5.671,5.729,15.95,8.909,23.66
	c2.46,5.96,5.79,11.21,6.761,17.82c1.819,3.71,2.25,8.81,4.609,11.99c0.8,6.609,4.41,15.46,9.21,20.279
	c4.681,4.681,10.87,8.711,21.511,7.681c5.01-0.49,12.42-2.3,14.739-5.53c3.59-5,6.301-10.09,8.91-15.67
	c3.84-3.95,5.58-9.99,9.521-13.83c0.689-3.84,4.609-7.06,6.149-11.06c7.62-7.94,13.221-17.91,20.88-25.82
	c3.471-7.38,10.11-12.82,15.98-18.13c0.479-0.43,1.36-0.5,1.84-0.92c1.8-1.561,3.09-4.9,5.84-5.221c-0.58-0.59-0.04-0.77,0-1.539
	c5-2.99,7.83-8.141,11.98-11.98c5.229-11.12,14.13-19.99,23.34-26.12c9.76-4.07,17.71-9.95,26.11-15.37
	c-0.65-1.16-2.181,0.391-2.15-1.229c6.89-0.91,14.25-3.98,22.74-5.221c6.359-0.93,13.09-2.739,18.729-2.46
	c14.75,0.74,27.561-1.63,41.17,1.54c1.32,0.311,2.641,1.19,3.99,1.53c4.521,1.17,8.1,2.17,12.29,3.38
	c2.76,0.811,5.74,1.08,8.29,1.851c4.14,1.239,7.979,3.22,12.29,3.989c8.399,1.511,16.25,0.94,23.96,4.921
	c6.47,0.8,12.31,2.229,17.81,3.989c-6.51-4.5-12.029-13.729-7.67-23.96c1.2-0.24,0.94-1.93,1.84-2.46
	c-2.47-1.45-4.68,2.41-6.14,3.99c-3.43-0.32-5.49,2.26-7.68,2.15c-1.29-0.04-1.16-1.511-1.54-2.46c2.68-2.95,5-6.66,10.439-7.98
	c0.66-0.68-0.47-1.71,0.62-2.16c-3.31-1.01-4.25-6.93-5.53-11.67c-3.649,0.93-12.149,0.99-15.67,0.3
	c-1.17,4.01-0.01,7.71-0.92,11.681c4.431-0.2,12.101,3.09,15.67-0.61c2.11,1.32,3.711-1.8,4.91,0.3c-0.39,2.55-3.3,1.5-4.91,1.85
	c-2.14,0.461-3.789,1.62-6.149,1.53c-2.771-0.09-5.101-0.79-7.681-1.84c-1.3,0.42-2.01,1.33-3.069,1.23
	c-0.13,2.18,0.12,3.979,0.31,5.84c-5.77,0.939-12.29,1.87-17.51,2.46c-0.74-0.73-0.81-2.59-0.31-3.69
	c3.22-1.729,8.699-2.58,11.979-2.46c-0.07-1.05-1.64-0.609-1.84-1.54c0.26-0.76,0.4-1.64,0.31-2.76
	c-6.569-0.17-15.13-0.33-17.21-7.38c0.83-2.76,1.021-6.15,4.311-6.45c0.79-2.18,1.01-4.93,2.149-6.76
	c-1.7-1.521-4.09-2.771-6.149-3.07c-0.391-1.21,0.729-0.92,1.54-0.92c-2.96-2.02-4.801-3.31-6.45-6.46c-0.05-0.68-0.78,0.4-1.54,0
	c-1.43-3.48-2.04-7.79-3.99-10.75c-1.399,4.23-2.979,8.29-5.22,11.67c0.79,0.76,1.5-0.29,2.76,0c7.35,2.23,9.24,11.75,7.68,20.29
	c-0.71,0.2-1.06,0.78-1.539,1.22c-2.29-0.12-2.681-0.439-4.301-0.92c0.37,3.86-1.71,7.63-2.449,11.37
	c-0.971,0.87-1.36,0.84-1.851,2.46c-5.13,5.08-18.16,3.811-23.04-0.609c-4.09-5.29-4.26-16.131-0.609-22.44
	c3.35-3.271,8.01-5.2,14.13-4.91c0.43-1.01,0.89-1.979,1.54-2.77c-5.86-2.521-14.07,1.52-18.74,2.149c-2.6-1.62-1.271-7.1-0.62-9.83
	c1.63-0.51,1.51,0.75,1.85,1.54c4.04-4.6,12.94-3.35,19.351-1.85v1.54c-3.74-0.061-7.641-1.69-11.67-1.54
	c-3.5,0.13-5.63,2.68-8.601,3.38c-0.51,1.59-0.29,3.58,0,5.23c5.08-2.03,12.2-3.511,19.04-2.771c4.05-7.25,7.07-14.44,10.75-21.51
	c-3.529-0.67-4.02-4.38-3.68-8.91c2.64-0.73,2.71-4.04,5.52-4.61c-2.3-1.359,0.341-4.819,0-6.149c0.79,0.81,1.25-0.05,1.54-0.61
	c2.83-0.27,4.11,1.01,5.841,1.84c-0.25,2.011-1.141,3.37-2.15,4.61c0.22,0.7,1.3,0.55,1.84,0.92c0.95-1.4,2.01-2.69,2.76-4.3
	c1.721-0.18,2.16,0.92,3.69,0.92c0.75,1.92,3.33,2,3.38,4.61C777.93,381.88,775.1,384.579,773.11,388.119z"/>
<path fill="#7C4697" d="M1003.19,594.01c-0.2,0.41-0.66,0.569-1.23,0.609c-0.17-0.439,0.36-1.58-0.3-1.529
	C1001.24,592.19,1002.77,593.789,1003.19,594.01z"/>
<path fill="#7C4697" d="M819.19,347.869c-0.21,3.341-0.28,8.641,0.609,11.061c8.74,1.56,7.45-10.21,5.84-15.98
	c-3.87-5.819-13.83-4.75-17.819,0.62v2.46c-0.801,0.55-0.92-0.14-1.84,0.3c-1.671,2.351-3.811,8.54-1.54,12.29
	c0.329,0.551,0.67-0.029,1.229,0.62c0.37,0.42,0.2,1.431,0.311,1.54c0.59,0.561,0.38-0.41,1.229,0c1.04,0.49,1.61,1.94,3.07,2.15
	c2.55,0.359,4.46-1.38,7.68-0.62c-2.22,2.95-7.47,2.57-10.75,1.54c-1.771-2.021-3.81-3.771-5.22-6.15c-0.4-5.87,0.66-8.91,2.76-12.6
	c0.94,0.229,0.9-0.53,1.84-0.3c1.15-6.34,7.92-8.641,13.21-7.69c0.83,0.15,1.601,1.12,2.771,1.54c1.54,0.561,3.84,1.78,4.91,3.69
	c2.289,4.06,1.239,14.149-0.301,16.279c-1.43,1.971-5.699,2.74-8.909,1.54c-0.98-2.409-1.171-7.47-0.62-11.37
	c-2.78-0.329-6.13-2.369-9.21-3.38c-0.03-0.489,0.14-1.17-0.311-1.229c2.61-1.141,5.311,2.87,8.91,2.149
	C817.61,347.56,818.06,347.73,819.19,347.869z"/>
<path fill="#7C4697" d="M838.23,357.699c-0.521-0.63-2.171-2.16-2.45-3.989c-4.721,2.1-3.021,7.239-2.46,11.979
	c1.189,0.39,2.1,0.37,1.529,1.85c4.431,1.561,9.17,0.931,11.37-2.149c-2.79-1.76-5.62-4.64-9.22-4.61
	C835.89,359.02,838,359.01,838.23,357.699z M839.46,356.17v3.68c3.36,0.43,4.53,3.06,7.68,3.689c-1.01-4.72-5.359-6.109-7.37-9.829
	c-1.25,0.229-1.06-0.99-2.46-0.62C837.36,354.789,838.33,355.55,839.46,356.17z M853.59,350.329c-0.55,1.4,1.23,2.23,1.851,3.381
	c0.3,2.029,0.38,3.979,0,6.14c2.51,0.11,7.779,0.17,8.899,4c1.29,4.4-0.899,11.59,4.61,11.67c-0.681,1.93-3.07,0.83-3.681,0.31
	c-2.72-2.29-1.869-8.729-2.77-12.6c-1.82-1.3-4.74-2.26-7.68-1.53c0.04,1.471-0.23,2.63-1.23,3.07c4.851,1.61,3.19,9.72,6.76,12.6
	c2.15,0.15,4.131-0.26,5.53,0c-2.319,2.75-7.34,1.061-8.6-1.229c-1.33-2.41-0.811-6.55-2.46-8.91c-0.36-0.52-1.25-0.52-1.23-1.54
	c-1.21,0.32-1.01,2.061-2.45,2.15c-0.05-0.57-1.04-0.181-1.229-0.61c2.8-3.19,5.27-8.51,3.99-12.6c-1.53-4.88-7.4-6.29-11.98-7.681
	c-2.649,0.53-3.54,2.801-6.14,3.38c1.99,1.83,5.17,1.79,6.75,3.381c2.66,3.46,5.59,6.6,7.38,10.14c-0.3,0.63-0.63,1.21-0.92,1.84
	c-0.95-0.08-1.391-0.66-2.16-0.92c-0.89,0.94,1.21,0.6,1.23,1.54c-2.08,3.27-6.58,3.65-10.44,4.3c-0.16-0.25-0.32-0.5-0.31-0.92
	c-2.87-0.1-4.091-1.85-5.53-3.38c-1.16-3.83-1.91-10.04,1.229-13.22c1.38,0.46,0.94-0.9,2.15-0.61c0.41-0.04-0.44-1.37-0.61-1.84
	c1.49-2.61,4.21-3.98,6.761-5.54c3.33,0.76,6.6,1.59,9.21,3.08C850.91,349.53,852.09,350.09,853.59,350.329z"/>
<path fill="#7C4697" d="M804.14,363.85c-2.89,2.979-7.149-0.7-10.449-1.85c-4.28-1.48-8.86-2.54-12.29-4.301
	c-1.011,0.63-1.42,1.851-1.53,3.38c4.43,1.04,7.22,1.811,9.83,4.61c5.81-0.89,7.069,2.76,11.06,3.69c0.26,1.319,0.91,0.87,1.23,2.46
	c0.09,0.42,0.77,0.25,1.22,0.31c0.271,1.43,1.97,2.99,2.46,5.22c0.38,1.7,1.35,6.45-1.84,6.15c1.37-6.07-1.82-10.02-4.3-13.22
	c-0.931,0.38,0.33,1.06,0,1.85c-1.08-0.189-2.16-1.54-1.54-2.46c-2.41-0.56-3.29-2.65-6.141-2.77
	c-0.909,0.27,0.931,0.25,0.311,1.229c-5.24-1.979-7.36-5.439-14.13-5.53c-0.431-0.39-0.19-1.449-0.62-1.84
	c-3.41-0.25-8.561-0.42-11.67-1.229c4.13-2.37,9.97,0.359,13.21,0c0.569-1.021,0.649-1.61,0-2.46c-0.05-0.36,0.069-0.551,0.3-0.62
	c7.65,0.45,14.07,4.78,21.2,6.76C802.36,363.15,803.05,362.82,804.14,363.85z"/>
<path fill="#7C4697" d="M763.89,362h1.23c-1.4,2.079-2.5,4.46-4.91,5.539c0.38,3.58,1.11,7.221,1.53,10.141
	c-2.7-2.601-3.16-9.021-3.68-11.99c-0.931-1.22-1.28-3.02-2.15-4.3c-0.15,0.45-0.34,2.189-1.23,2.77
	c-0.71-1.34-0.27-4.159,1.23-4.31c1.71,1.16,2.99,2.74,3.07,5.54c-0.011,0.93,1.55,0.29,1.539,1.22c0.95-0.89,0.811-2.87,2.45-3.07
	c-0.609-1.75-0.909-5.079-3.38-5.84v-2.149c2.82-0.92,1.12,2.42,3.38,2.77C762.54,360.36,765.48,360.64,763.89,362z"/>
<path fill="#7C4697" d="M803.83,398.88c1.59,1.56,1.72-0.851,3.68-0.61c0.23,0.93-0.31,1.11-0.3,1.84
	c3.64-1.06,7.021-2.399,9.21-4.92c-1.82,0.29-1.16-1.91-2.45-2.15C811.76,396.159,806.32,396.05,803.83,398.88z M831.17,381.67
	c0.1,2.76-3.09,2.229-3.38,4.609c-2.92-0.66-2.89,3.99-6.14,4c-0.761,0.26-0.91,1.13-1.54,1.53c-1.511-0.521-3.08,0.82-4.61,1.229
	c0.63,0.4,0.78,1.271,1.54,1.54c2.03-0.229,3.62-0.88,4.3-2.46c3.85,0.65,6.68-5.26,9.521-3.689c0.109,1.14-1.17,1.81-1.841,1.229
	c-1.77,2.24-5.85,3.75-7.989,4.61c-0.41,0.2-0.57,0.66-0.61,1.23c-5.77,1.02-8.5,6.27-14.13,6.449c-0.521,1.63-0.4,4.931-1.85,6.46
	c4.46,0.63,10.63,1.37,15.979,1.23c-1.81,2.96-11.46,0.939-15.06,0.3c-0.971,0.05-1.351,0.7-2.45,0.62
	c0.09-3.29,2.109-4.65,1.84-8.3h0.92c0.04-0.55-0.37-0.65-0.31-1.23c-0.53-0.49-1.63-0.41-2.45-0.609
	c-0.72-1.561,0.67-2.78,1.84-3.381c-0.48-0.789-0.48-3.21,0-4c0.9,0.33,0.99,1.461,0.92,2.771c4.99-1.88,9.45-3.98,13.83-7.07
	c-1.2-4.279-1.22-11.71-3.69-16.29c-0.54-1-1.869-1.27-1.84-2.76c4.08-0.28,4.601,6.561,5.83,9.22c2.47-2.76,5.72-4.729,8.3-7.38
	c0.761,4.17-5.55,3.86-6.149,7.681c-0.69-0.29-1.011,0.359-1.84,0.31c-0.23,3.44,0.689,7.14,0.92,9.83
	C823.66,388.369,826.92,383.039,831.17,381.67z"/>
<path fill="#7C4697" d="M825.64,434.22h-0.92c-1.02-1.99-0.39-5.24-0.92-8.3c-0.21-0.71-1.62-0.23-1.229-1.54
	c0.34-1.4,2.399-1.08,3.069-2.15c0.931-1.72,2.07-3.25,4.301-3.68c-0.24-1.28,1.02-0.931,1.529-1.54
	c2.12-2.51,1.61-6.431,3.38-9.221c1.4,1.211,0.07,4.521-0.3,5.23c5.511,0.36,13.851-3.06,16.28,2.45c1.01,2.29-0.08,4.439,0.61,7.38
	c-4.841,7.05-16.101,6.78-24.88,6.14c1.739-2.43,6.31-0.95,10.14-1.22c3.84-0.28,7.27-1.32,10.13-2.46
	c3.14-1.78,3.03-6.34,2.16-9.53c-3.8-3.25-7.82-1.609-13.21-0.92c-1.15,0.32-0.61-1.04-1.23-1.229
	c-1.71,4.739-5.989,6.909-9.22,10.14C824.58,427.699,826.74,430.86,825.64,434.22z"/>
<path fill="#7C4697" d="M799.53,435.449c2.45-1.62,7.09,0.28,10.439-0.31c1.29-0.23,2.32-1,3.38-1.54
	c0.521-1.04-0.67-1.88,0.92-1.84c0.07-0.92-1.13-1.04-0.3-1.84c1.061-0.25,1.181,0.449,2.15,0.3
	C817.17,436.84,805.36,438.659,799.53,435.449z"/>
<path fill="#7C4697" d="M970.02,507.659c0.83-0.67,0.08-1.02,0.61-1.84c0.78,0.38,1.39-0.689,2.76,0c9.25-2.12,9.87-16.28-0.3-17.21
	c-4.56,3.43-8.26,7.72-11.06,12.9C964.19,503.99,969.64,505.32,970.02,507.659z M998.89,530.71c-0.47-0.011,0.15-1.45,0.311-1.851
	c0.8,0.83,0.92-0.37,1.84-0.3c1.271-2.89,4.9-5.85,6.76-8.91c2.181-3.609,4.15-9.17,6.141-14.14c1.84-4.59,3.649-9.15,1.54-13.83
	c-2.061-4.57-5.471-9.59-11.061-11.061c-5.1-1.35-9.31,1.181-14.439,2.15c-3.4,0.64-6.051-0.05-8.29,2.15
	c-3.341-0.301-4.61,2.17-6.761,2.149c2.78,2.55,6.931,3.271,7.681,7.38c0.38,2.07-0.62,6.54-1.841,8.601
	c-1.56,2.6-6.069,4.41-9.529,4.609c4.27,2.87,7.68,5.36,11.06,8.61c-0.01-0.939,0.28-1.57,0.92-1.85
	c1.8-0.971,5.351-5.36,4.92-8.301c-0.409-2.819-4.42-3.59-5.84-4.909c-0.27-0.99,0.48-0.96,0.92-1.23c1.9,0.15,2.22,1.88,4,2.15
	c0.65-0.49,1.87-2,3.07-0.92c0.04,1.39-2.5,1.42-1.54,2.76c1.08,0.79,2.439-3.17,3.689-1.23c-0.659,0.88-1.35,1.73-2.46,2.15
	c-0.649,5.81-4.06,10.479-7.06,12.91C988.55,521.22,993.6,526.59,998.89,530.71z M1000.12,531.01c-0.3,1.43,1.84,0.42,1.54,1.85
	c-2.96,2.07-7.38-3.96-9.53-6.15c-1.479-0.92-4.08-2.189-4.3-3.38c-1.12,0.21-1.18-0.659-2.15-0.609
	c-4.45-5.391-10.52-11.061-17.2-14.44c-0.239-0.28-0.329-0.7-0.31-1.229c-2.5-0.58-4.59-1.561-5.53-3.69
	c-0.95-0.17-2-0.25-2.76-0.62c0.41-1.66,1.42-3.729,2.46-5.22c0.05-0.07,0.521,0.45,0.61,0.31c1.1-1.739,1.489-2.909,3.069-4.609
	c0.75-0.8,1.28-1.95,1.851-2.46c1.39-1.271,4.189-2.271,6.14-3.69c0.92-0.67,3.08-2.88,4.61-3.38c0.88-0.29,1.92,0.2,2.76,0
	c1.95-0.47,3.36-2.03,5.22-2.76c3.641,1.35,7.25-2.521,11.061-1.851c4.84-1.109,9.979,0.33,13.21,2.771
	c1.979,1.49,3.78,4.8,5.22,7.99c0.5,1.09,1.64,2.109,1.85,2.76c2.561,8.22-3.58,14.359-4.92,21.21
	C1008.8,519.619,1005.98,526.84,1000.12,531.01z"/>
<path fill="#7C4697" d="M900.59,490.449c4.07,0.23,6.96,1.65,11.061,1.851c-2.431,3.12-8.54-0.55-11.061-0.311V490.449z"/>
<path fill="#7C4697" d="M1023.77,513.5c-8.97,4.539-15.909,11.119-19.659,20.89c3.729,2.63,7.12,5.59,11.68,7.38
	c7.1-6.83,12.46-15.39,14.43-27.35C1028.42,513.76,1026.52,513.21,1023.77,513.5z M1031.76,513.19
	c0.19,11.39-6.529,18.44-10.75,26.43c-2.649,1.341-4.02,3.971-6.76,5.221c-1.23-0.221-0.02-1.44-0.61-1.841
	c-0.56-0.04-0.649,0.37-1.229,0.311c-0.09-0.5,0.29-0.53,0.3-0.93c-3.51-1.91-5.93-4.921-10.13-6.141
	c0.38-1.069,0.89-0.569,1.53-0.92c-0.391-0.53-1.46-0.38-1.53-1.229c0.689-2.82,2.479-5.87,4.3-8.61c2.53-3.81,4.91-6.14,9.21-8.91
	C1020.73,513.59,1024.689,509.36,1031.76,513.19z"/>
<path fill="#7C4697" d="M1045.89,590.63c-2.02-0.42-5-0.801-7.37,0c0.351-0.36,0.351-1.091,0.301-1.841
	c8.14-3.189,16.99,6.83,9.22,10.141c0.26,2.33,0.08,3.38-0.31,5.83c-2.841,0.95-6.671,0.979-8.291-0.61
	c-0.989-0.97-0.92-3.17-1.539-4.61c-1.471-3.439-3.4-7.189-3.07-9.829c2.03-0.601,0.85,2.02,1.54,2.76
	c0.79,4.03,3.05,6.58,3.99,10.45c1.569,1.069,4.609,1.59,6.14,0.31c0.3-2.72-0.71-2.91-0.61-4.92c0.971-0.67,2.53-0.75,3.38-1.53
	C1050.43,593.67,1046.75,591.659,1045.89,590.63z"/>
<path fill="#7C4697" d="M1068.62,618.9c-0.561,0.72,0.319,1.96,0,3.38c-6.681,6.45-17.79-2.149-15.97-11.68
	c1.41,2.05,1.79,5.939,3.069,8.91c2.36,2.189,6.511,4.68,10.75,3.08c1.17-1.67-0.08-2.99,0.62-5.23c3.17,0.93,6.7,0.67,7.98-1.84
	c-2.78-5.54-12.62-5.56-18.74-6.76v-0.61c2.66-1.729,6.09,0.99,8.91-0.31c0.85,1.449,3.13,0.87,4.92,1.529
	c2.06,0.771,6.359,3.12,6.45,5.841C1076.7,618.3,1072.26,619.85,1068.62,618.9z"/>
<path fill="none" stroke="#7C4697" stroke-width="2" stroke-linecap="round" stroke-linejoin="round" stroke-miterlimit="10" d="
	M1068,661.5c0,0,152-111,339-6"/>
<path fill="none" stroke="#7C4697" stroke-width="2" stroke-linecap="round" stroke-linejoin="round" stroke-miterlimit="10" d="
	M325,583.5c0,0-23,43-56,29s-89.91-83.431-156-23c-35,32-55,13-55,13"/>
<path fill="#D4EDFC" d="M808,342.5l11,5v11c0,0,5.71,2,8-9S813.74,336.06,808,342.5z"/>
<path fill="#FFCAE4" d="M836,350.5c0,0,11.69,6.06,14,15c0,0,7.82-10.021,1-15C844.18,345.52,839.2,346.32,836,350.5z"/>
<g>
	<path fill="#E3F0DF" d="M164.47,530.539c0,0-15.59-11.8-10.95-22.64c4.68-10.92,21.92-20.18,32.8-13.49
		c10.95,6.74,17.58,12.41,12.64,28.66c-4.88,16.09-25.26,11.22-25.26,11.22l0.41-5l-7.2-0.069
		C166.91,529.22,166.3,532.28,164.47,530.539z"/>
	<g>
		<path fill="#7C4697" d="M191.65,452.039c1.03,0.33,2.35,0.5,2.15,1.551C192.91,453.17,191.48,453.07,191.65,452.039z"/>
		<path fill="#7C4697" d="M171.41,559.42l-0.58-0.181c-1.7-0.63-0.1-3.01-1.41-3.85c0.51-0.24,0.53-1.37,1.29-1.17
			c0.26-7.79,1.19-18.431,4.09-26.09c1.09,1.85-0.16,4.149-0.52,6.149c-1.46,8.25-2.3,17.54-2.62,24.28L171.41,559.42z"/>
		<path fill="#7C4697" d="M167.15,529.35l0.58,0.17c-0.64,6.939-1.87,15.36-2.66,22.36c-0.25,2.26,0.2,5.689-1.98,6.859
			c0.56-9.25,1.98-19,3.6-28.899C166.21,529.43,167.05,529.76,167.15,529.35z"/>
		<path fill="#7C4697" d="M191.51,537.789c0.5-3.279,4.63-3.92,7.06-5.239c3.12-5.41,4.96-13.261,3.73-19.11
			c-0.27-1.31-1.26-2.85-1.94-4.42c-1.82-4.18-2.2-6-6.6-9.59c-2.81-2.3-4.15-4.561-7.41-5.62c-5.54-1.8-17.72-0.73-22.29,2.06
			c-2.32,1.431-5.76,5.15-7.9,7.9c-0.95,1.23-2.2,2.94-2.68,3.97c-4.74,10.2,1.61,14.33,4.83,20.57c1.49,0.79,1.38-1.31,2.73-0.76
			c-0.67,1.13-1.52,1.93-2.56,2.38c-2.35-0.61-2.26-3.37-3.48-5.41c-1.19-2.01-3.35-3.46-4.05-5.58c-1.26-3.84,0.14-8.71,1.86-13.28
			c3.73-4.149,7.21-8.79,11.54-11.93c6.56-0.95,15.46-4.02,23.54-0.78c4.74,1.9,6.95,6.46,11.01,8.891
			c1.69,3.729,3.32,7.489,5.17,11.13c-0.17,6.1,0.68,15.859-4.57,20.81c-1.2,1.141-4.29,1.48-5.9,2.4
			C192.72,536.69,192.69,537.92,191.51,537.789z"/>
	</g>
</g>
<g>
	<path fill="#E3F0DF" d="M1347.98,597.72c0,0-15.851-5.82-14.711-15.94c1.141-10.18,13.021-22.12,23.641-19.359
		c10.7,2.779,17.58,5.77,17.64,20.39c0.061,14.53-18,15.67-18,15.67l-0.92-4.25l-5.97,1.771
		C1349.66,596,1349.93,598.69,1347.98,597.72z"/>
	<g>
		<path fill="#7C4697" d="M1350.689,526.51c0.931,0.01,2.051-0.181,2.15,0.72C1352.01,527.11,1350.811,527.38,1350.689,526.51z"/>
		<path fill="#7C4697" d="M1361.01,619.94h-0.529c-1.57-0.1-0.851-2.49-2.141-2.85c0.36-0.33,0.09-1.271,0.771-1.301
			c-1.761-6.539-3.671-15.609-3.21-22.689c1.369,1.25,0.91,3.479,1.13,5.229c0.87,7.21,2.52,15.141,3.97,20.83L1361.01,619.94z"/>
		<path fill="#7C4697" d="M1349.89,596.05l0.521-0.011c1.22,5.92,2.32,13.211,3.439,19.24c0.36,1.94,1.601,4.68,0.09,6.22
			c-1.869-7.84-3.149-16.31-4.31-24.93C1349.13,596.35,1349.92,596.409,1349.89,596.05z"/>
		<path fill="#7C4697" d="M1372.14,596.86c-0.42-2.84,2.82-4.42,4.49-6.13c1.19-5.25,0.72-12.19-1.77-16.7
			c-0.561-1.01-1.771-2.02-2.721-3.14c-2.56-2.98-3.329-4.38-7.85-6.22c-2.88-1.181-4.56-2.7-7.5-2.75
			c-5.01-0.08-14.76,3.85-17.83,7.3c-1.56,1.75-3.46,5.68-4.54,8.489c-0.479,1.25-1.09,2.971-1.229,3.94
			c-1.37,9.63,4.909,11.44,9.14,15.78c1.42,0.28,0.8-1.43,2.061-1.32c-0.271,1.1-0.771,1.98-1.521,2.62
			c-2.1,0.09-2.71-2.21-4.229-3.6c-1.49-1.36-3.641-2.011-4.74-3.591c-2-2.85-2.061-7.229-1.771-11.439
			c2.04-4.35,3.75-9.04,6.54-12.72c5.16-2.42,11.71-7.181,19.17-6.551c4.37,0.37,7.33,3.561,11.28,4.53
			c2.33,2.641,4.62,5.32,7.07,7.851c1.41,5.06,4.58,12.89,1.52,18.3c-0.7,1.25-3.16,2.319-4.25,3.49
			C1372.85,595.64,1373.14,596.67,1372.14,596.86z"/>
	</g>
</g>
<path fill="#E3F0DF" d="M494,503.5c0,0-13.57-9.711-11-21c2.57-11.29,11.51-24.721,26-22c14.49,2.72,20.23,6.579,22,16
	c1.77,9.42-2.38,26.85-23,30l3-8l-12-4L494,503.5z"/>
<path fill="#E3F0DF" d="M560,517.5c0,0-27.03-5.65-27-27c0.03-21.351,14.44-35.891,24-41c9.56-5.11,41.48-3.44,41,21
	c-0.48,24.439-24,39-24,39l-1-19l-13,6V517.5z"/>
<g>
	<path fill="#7C4697" d="M570.98,491.369h0.92c1.33,5.881,1.1,15.41,1.539,25.82c0.391,9.32,1.73,19.521,0,27.04
		c-2.069-1.59-0.76-3.21-0.609-5.53c0.17-2.72,0.12-5.58,0-8.3c-0.58-13.03-1.391-26.16-2.15-38.1
		C570.59,491.8,570.97,491.77,570.98,491.369z"/>
	<path fill="#7C4697" d="M499.41,493.22c1.6,0.56,0.01,2.729-0.92,2.76c-0.76,2.42-2.88,3.47-3.38,6.15
		c-5.811,8.12-10.48,16.83-15.67,24.89c-0.07,1.41-0.601,3.41-2.46,2.77c1.109-5.05,4.51-7.789,6.149-12.3
		c1.351,0.33,0.8-2.18,1.84-1.22c1.66-5.22,6.24-10.15,8.601-15.68C495.98,498.6,496.59,494.8,499.41,493.22z"/>
	<path fill="#7C4697" d="M532.59,490.76c0.46-3.431,0.22-8.271,0.3-12.601C530.85,479.56,530.85,489.079,532.59,490.76z
		 M556.24,518.72c-1.561,1.88-6.91-0.681-8.601-1.84c-0.81-0.551-1.22-1.94-2.149-2.771c-2.23-1.96-5.431-3.24-7.07-5.22
		c-2.83-3.41-4.34-7.92-5.83-11.98c-4.479,7.601-14.939,9.23-25.5,10.75c-1.37,1.601-1.58,4.36-3.38,5.53
		c-1.59,4.85-4.5,10.78-7.68,12.91c-0.99,4.63-5.19,8.62-6.141,13.52c-2.25,0.801-0.91,3.36-4,3.38
		c1.11-3.229,3.16-5.939,4.61-8.909c4.15-8.521,10.34-16.16,14.439-25.2c0.631-1.141-0.439-0.8-0.31-2.15
		c4-1.26,3.18-8.859,7.68-8.6c-1.46,3.04-3.3,5.71-5.22,8.29c4.3-0.37,9.3-1.74,13.51-3.07c4.53-1.43,10.37-4.01,10.761-8.91
		c0.31-3.939-2.58-8.25-1.54-13.22c0.83-3.94,3.21-6,0.609-10.44c-3.279-5.64-14.06-9.71-21.5-10.76
		c-6.37-0.899-10.939-0.359-15.05,2.46c-4.04,2.771-8.54,10.07-10.44,15.67c-2.96,8.7,0.95,17.78,5.83,24.28
		c-1.1,0.44-1.97-0.67-2.76-1.54c-1.1-1.19-4.89-8-5.22-11.06c-1.11-9.99,3.21-20.11,9.52-26.12c2.061-1.96,5.261-5.511,9.521-5.84
		c3.75-0.29,8.35,0.359,12.59,1.54c4.06,1.119,10.08,1.8,12.6,3.989c1.261,1.101,1.511,1.94,3.07,3.07c1.24,0.9,2.04,2.51,3.38,3.38
		c-0.02,1.25,1,1.46,0.62,3.08c2.73-3.93,5.521-8.27,8.9-12.29c3.3-3.979,7.79-6.76,11.68-10.15c9.19-3.829,19.61-9.5,30.72-4.609
		c0.24,0.109,0.13,0.84,0.3,0.93c0.141,0.061,0.591-0.5,0.92-0.31c7.19,3.989,13.86,9.85,15.671,17.21
		c0.939,3.8-0.761,6.16-1.54,9.52c-0.41,1.811-0.2,3.771-0.61,5.54c-1.22,5.18-3.38,10.82-5.84,15.36
		c-1.66,3.06-4.54,6.55-7.061,9.22c-3,3.18-7.09,5.66-11.68,6.76c0.11-1.58,1.06-0.72,1.85-1.229c1.471-2.351,5.46-3.12,7.99-5.53
		c3.561-3.39,6.891-8.04,9.21-12.91c2.54-5.319,3.44-11.02,4.91-17.21c0.72-2.979,2.3-4.729,1.54-8.29
		c-0.58-2.71-2.46-6.37-3.99-8.609c-1.39-2.03-4.51-3.94-7.989-6.141c-1.45-0.92-2.66-2.37-4.61-3.08
		c-3.48-1.26-8.41-1.939-12.59-1.229c-9.96,1.7-20.271,7.76-27.341,15.06c-0.27,0.28,0.04,0.54-0.31,0.92
		c-2.229,2.48-8.51,10.051-8.91,12.91c-0.239,1.771,0.5,4.09,0.62,6.15c0.1,1.76,0.41,3.56,0.311,5.529
		c-0.17,3.101-1.91,6.881-1.23,9.521c0.54,2.11,2.38,4.33,3.68,6.76c1.11,2.07,1.721,4.08,3.07,5.54c1.07,1.141,3.09,2.54,4.61,3.68
		C548.5,514.69,551.42,516.909,556.24,518.72z"/>
	<path fill="#7C4697" d="M532.89,478.159c-0.08,4.33,0.16,9.17-0.3,12.601C530.85,489.079,530.85,479.56,532.89,478.159z"/>
	<path fill="#7C4697" d="M559.31,495.68h0.921c1.109,2.62,1.729,5,1.84,9.21c0.12,4.47-0.261,12.42,0,18.75
		c0.42,9.74,2.649,19.41,1.85,27.04c-0.27,1.43,1.01-0.21,0.92,0.62c0.01,1.45-0.42,3.72-1.54,3.069c-1.67-1.18-0.6-2.779-0.609-4.3
		c-0.04-7.479-1.71-16.939-2.15-26.74c-0.44-9.63,1.42-18.77-1.23-26.729V495.68z"/>
</g>
<g>
	<path fill="#E3F0DF" d="M414.8,441.53c0,0-20.11,0.92-31.36-10.859c-11.24-11.79,2.44-42.82,7.56-49.181
		c5.12-6.35,27.15-25.029,51.21-14.13c24.06,10.9,28.31,31.771,20.75,52.08c-7.56,20.311-24.43,31.7-36.29,27.45l2.51-22.97
		l-10.84,7.159L414.8,441.53z"/>
	<g>
		<path fill="#7C4697" d="M442.55,449.06c0.67-1.68,2.53-0.271,3.521-1.11c16.39-12.25,26.52-41.55,19.239-59.31
			c-1.1-2.69-3.25-4.38-3.899-7.15c-2.94-1.979-4.7-5.18-7.771-7.54c-13.989-10.779-36.58-12.739-48.09-6.22
			c-7.51,6.71-18.6,16.31-24.5,28.67c-3.14,6.58-6.06,14.94-4.81,20.72c1.1,5.04,2.67,6.73,6.15,11.19
			c3.61,4.62,7.12,8.72,15.09,11.52c2.78,0.98,5.86,0.771,8.64,2.551c-3.17,0.189-6.74-0.181-9.82-1.4
			c-6.79-2.68-10.92-6.21-14.66-10.99c-1.98-2.529-4.44-5.05-5.43-7.5c-1.11-2.77-2.32-9.55-2.03-11.35
			c0.63-3.86,3.9-12.34,5.59-15.65c2.86-5.58,6.61-11.88,10.4-15.85c1.95-2.04,5.08-3.94,7.53-6.36c2.89-2.85,5.53-6.17,8.44-7.64
			c17.01-8.57,40.99-1.34,55.86,13.76c4.36,6.5,6.48,13.86,7.99,21.45c-1.4,10.5-3.891,25.55-10.96,36.12
			c-1.94,2.88-5.05,5.55-7.601,8.02C448.94,447.39,445.97,451.1,442.55,449.06z"/>
		<path fill="#7C4697" d="M418.79,431.27l0.84,0.38c-3.54,13.92-4.43,26.061-5.2,39.061c-0.3,5.13-0.65,11.3-3.88,17.1
			c0.05,1.04,2.28-0.43,1.44,1.32c-0.72,1.01-2.33,0.63-3.18-0.431c4.76-11.649,4.27-22.43,5.17-33.68
			c0.31-3.85,0.91-7.61,1.8-11.65C416.65,439.4,417.23,434.89,418.79,431.27z"/>
		<path fill="#7C4697" d="M429.1,422.449c0.341,0.101,0.471,0.29,0.431,0.54c0.76,8.33-2.65,18.261-2.84,27.66
			c-0.15,7.5-0.051,15,0.21,22.311c0.09,2.729-0.04,5.56-0.58,8.159c1.489,2.931,0.75,6.71-0.34,10.62
			c-1.83-0.779-1.61-2.34-2.091-3.64c0.601-0.71,0.83,0.58,1.4,0.63c-0.05-18.4-1.33-35.86,1.45-54.89
			C429.13,430.5,427.16,425.63,429.1,422.449z"/>
	</g>
</g>
<path fill="#E3F0DF" d="M728,326.5c0,0-33.4-10.561-35-41c-1.6-30.44,14.27-56.94,40-62c25.73-5.061,55.39,3.359,59,35
	c3.61,31.64-3.72,72.569-47,69v-33h-12C733,294.5,727.45,318.23,728,326.5z"/>
<g>
	<path fill="#7C4697" d="M744.24,294.09c0.49-0.08,0.52,0.29,0.92,0.31c-1.04,13.021-0.61,26.5-1.23,41.79
		c-0.25,6.12-1.229,12.05-1.54,18.13c-0.1,2.04,0.9,3.811,0.311,4.92c-1.82,0.13-1.51-2.58-1.54-4c-0.1-5.55,1.32-11.87,1.54-18.13
		c0.109-3.21,0.22-6.56,0.31-9.52c0.311-10.92-0.399-22.431,0.61-32.88C743.7,294.37,744.23,294.5,744.24,294.09z"/>
	<path fill="#7C4697" d="M753.45,328.51c1.149-1.04,3.37-0.94,4.92-0.92c7.13,0.069,12.33,1.31,16.89-3.38
		c3.87-3.98,7.01-9.591,10.44-15.061c6.859-10.93,10.26-22.59,9.22-37.8c-0.39-5.75-1.43-12.49-3.38-18.13
		c-1.56-4.52-4.37-9.89-6.45-14.75c-3.07-3.58-7.27-6.69-11.67-9.83c-4.09-2.91-8.79-6.41-13.21-7.99
		c-3.9-1.399-9.57,0.261-14.75,1.23c-5.5,1.03-10.18,2.16-15.66,3.689c-1.77,0.49-3.52,1.78-5.53,2.46
		c-1.729,0.58-3.529,0.641-4.92,1.221c-4.939,2.09-8.33,5.979-11.979,10.149c-7.48,8.551-13.8,24.25-13.82,40.87
		c-0.03,17,8.03,26.64,14.44,37.79c1.47,1.43,5.51,3.46,3.99,5.84c-1.341-2.189-3.78-3.03-5.221-4.92
		c-1.609-2.1-3.24-4.98-4.92-7.68c-2.95-4.761-4.689-8.971-7.06-14.75c-4.16-10.13-2.91-24.3,0.31-35.95
		c1.58-5.72,3.7-11.93,6.45-16.6c1.5-2.561,4.83-5.34,6.45-7.681c0.89-1.29,2.12-2.39,3.68-3.68c8.34-6.92,21.1-9.57,34.41-12.3
		c6.43-1.311,11.38-3.12,17.2,0c7.85,4.22,16.39,10.01,22.42,16.29c5.74,9.41,10.51,23.02,11.06,37.18
		c0.38,9.55-1.529,17.94-3.68,25.81c-4.59,6.78-9.68,16.23-15.05,23.051c-1.771,2.239-4.98,5.659-7.681,6.449
		c-2.63,0.78-7.01,0.13-10.76,0C757.27,329.05,754.76,330.05,753.45,328.51z"/>
	<path fill="#7C4697" d="M733.18,292.86c-0.6,5.601-2.58,13.09-3.38,19.98c-0.51,4.34-0.25,8.66-0.92,12.899
		c-1.11,6.94-3.649,13.16-5.229,20.9c-0.511,2.51,0.3,6.47-2.761,7.68c0.841-9.47,4.771-18.41,6.45-28.27
		c1.771-10.42,1.12-22.44,4.61-32.26c-0.09-0.5,0.29-0.53,0.31-0.931H733.18z"/>
</g>
<path fill="#E3F0DF" d="M924,376.5c0,0-20.66-8.851-25-24c-4.34-15.15,4.23-66.431,22-76c17.77-9.57,39.36-23.38,63-1
	s38.1,115.02-46,111l13-54l-7-4L924,376.5z"/>
<g>
	<path fill="#7C4697" d="M950.66,390.89c-0.7-0.84-1.87-2.49-0.92-3.99c0.569,0.76,0.33,2.33,1.229,2.76
		c6.91-0.43,12.971-2.12,17.82-4.92c8.46-4.89,15.42-9.81,20.89-17.2c2.2-2.989,4.94-6.25,6.75-9.529
		c2.521-4.55,3.69-10.74,5.53-15.98c2.1-5.979,3.98-11.16,4-17.21c0.021-11.74-3.79-22.1-8.91-31.649
		c-4.62-8.62-11.72-17.75-19.35-22.74c-1.83-1.189-4.29-1.61-6.15-2.76c-1.17-0.73-1.93-2.19-3.069-2.771
		c-13.57-6.96-33.28,0.17-42.7,7.07c-2.01,1.47-3.69,3.33-5.53,5.22c-3.8,3.92-6.42,5.5-9.521,10.45
		c-3.6,5.75-6.029,11.12-7.989,19.97c-2.87,12.94-8.63,31.65-3.38,45.79c0.6,1.601,2.05,2.99,2.149,4.61
		c3.391,2.399,4.61,7.37,6.761,11.06c1,1.72,2.649,2.82,2.77,4.61c-4.22-1.93-4.88-6.96-6.76-10.45c-1.53-2.83-3.8-4.87-5.221-7.68
		c-4.35-8.59-3.51-22.74-0.93-35.03c3.22-15.3,5.54-26.939,13.83-37.49c1.57-2.01,3.85-3.96,5.83-5.84
		c5.93-5.62,12.68-12.09,21.811-14.439c2.34-0.601,4.899-0.48,7.069-0.92c2.181-0.45,4.32-1.4,6.45-1.54
		c4.56-0.29,10.74,0.33,15.67,2.77c1.44,0.71,2.57,2.18,3.99,3.07c1.52,0.95,3.37,1.27,4.92,2.149
		c3.99,2.271,8.01,6.62,11.359,10.45c9.141,10.44,18.881,28.14,18.74,46.4c-0.06,6.97-2.63,12.87-4.92,19.97
		c-2.479,7.71-4.8,13.52-8.6,18.75c-2.69,3.72-5.811,7.57-8.601,11.37C975.07,381.5,967.23,390.56,950.66,390.89z"/>
	<path fill="#7C4697" d="M950.36,331.89c0.489-0.09,0.52,0.29,0.92,0.31c0.26,6.07-2.891,11.28-4.61,16.9
		c-1.729,5.64-2.49,11.7-3.99,17.51c-2.88,11.09-7.22,21.891-9.83,32.88c-2.819,11.83-4.33,23.28-7.989,34.42
		c-1.79,5.44-3.521,10.82-5.221,16.29c-1.62,5.221-3.26,10.63-5.529,15.67c-1.44-1.479,0.149-5.04,0.92-7.68
		c2.21-7.57,5.37-15.14,7.989-23.05c3.561-10.78,5.11-22.25,7.681-33.8c2.399-10.811,6.66-21.3,9.52-31.96
		c1.511-5.63,2.53-11.32,3.99-16.9c1.78-6.79,4.62-12.21,5.84-19.67C949.96,332.32,950.34,332.28,950.36,331.89z"/>
	<path fill="#7C4697" d="M945.13,326.05c0.42,3.149-1.66,7.42-3.38,10.76c-1.72,3.35-3.34,6.68-4.91,10.14
		c-3.2,7.04-5.51,14.261-8.3,21.82c-1.3,3.54-3.521,6.59-4.91,10.14c-1.42,3.62-2.37,7.601-3.689,11.37
		c-3.11,8.891-5.221,17.19-7.98,27.04c-2.14,7.62-6.42,15.181-8.91,23.04c-1.819,5.74-4.43,11.32-7.37,16.601
		c-0.689,1.239-1.46,3.699-3.38,3.689c-1.14-1.83,1.53-4.399,2.761-5.229c6.43-15.23,12.75-30.301,17.819-47.32
		c0.87-2.91,1.34-5.73,2.15-8.61c0.76-2.68,2.1-5,3.07-7.68c1.989-5.47,3.09-10.95,5.529-16.29c1.21-2.65,2.771-5.04,3.69-7.68
		c0.97-2.8,1.43-5.74,2.45-8.601c2.779-7.729,6.93-15.279,10.45-23.05c1.17-2.59,1.88-5.59,3.069-7.99
		c0.24-0.489,0.46-1.189,1.54-1.229c-0.17-0.24-0.32-0.49-0.31-0.92H945.13L945.13,326.05z"/>
</g>
<path fill="#E3F0DF" d="M1125,515.5c0,0-27.561-8.421-33-23c-5.439-14.58-23.33-41.841-6-62c17.33-20.16,46.27-39.891,79-17
	c32.73,22.89,37.71,62.05,24,84c-13.71,21.949-39.04,36.829-59,29l37-48l-13-8L1125,515.5z"/>
<g>
	<path fill="#7C4697" d="M1059.1,596.78c0.83-2.89,3.83-3.81,5.84-5.54c4.99-4.29,9.471-9.18,14.131-13.819
		c0.779-3.11,3.779-4,4.91-6.761c6.789-5.83,11.109-14.699,16.279-22.13c0.19-0.27-0.199-0.97,0-1.229
		c0.65-0.84,1.86-1.34,2.46-2.15c3.42-4.61,6.141-9.57,10.44-13.21c0.069-1.93,2.64-3.34,3.08-5.84
		c7.09-8.7,13.67-18.87,19.04-29.19c4.12-7.91,9.68-16.66,15.97-23.359c0.52-1.54,1.109-2.99,3.08-3.07
		c-1.91,4.43-6.91,10.02-10.76,14.44c-4.551,10.55-11.041,19.979-16.58,29.189c-1.19,1.98-2.931,4.1-4.301,6.15l-6.149,9.22
		c-0.95,1.43-2.25,3.29-3.38,4.61c-0.9,1.05-2.061,1.479-3.07,2.76c-1.26,1.62-1.92,3.7-3.38,5.229c-0.19,0.2-0.78,0.21-0.61,0
		c-4.79,6.08-7.979,13.341-12.29,19.66c-0.67,1-1.88,1.46-2.46,2.46c-0.319,0.561-0.22,1.28-0.609,1.851
		c-3.67,5.31-9.131,10-13.521,15.05c-3.55,4.09-7.688,7.399-11.359,11.37c-1.101,0.029-1.66,0.6-1.851,1.54
		C1061.67,594.23,1061.59,596.71,1059.1,596.78z"/>
	<path fill="#7C4697" d="M1137.43,532.24c-0.449-0.89-1.5-2.78-0.609-3.989c1.24-0.011,0.26,2.199,0.92,2.76
		c9.21-1.45,17.3-1.391,23.96-4.91c5.17-2.74,8.83-6.84,13.819-9.53c3.211-5.109,9.341-8.72,12.601-15.06
		c1.479-2.88,2.56-6.53,3.99-9.83c3.029-6.97,4.21-12.47,4.3-21.2c0.109-10.05-0.48-18.3-3.07-26.43
		c-1.699-5.351-4.74-9.59-7.069-13.521c-14.25-12.89-27.74-30.08-50.99-28.88c-6.17,0.311-12.521,2.05-17.82,4.91
		c-4.979,2.7-10.319,4.99-14.43,7.99c-1.47,1.069-2.562,2.569-4,3.689c-1.39,1.08-3.2,1.7-4.601,2.761
		c-2.341,1.779-3.37,4.329-6.461,5.84c-2.26,5.359-8.72,12.26-9.829,19.359c-1.75,11.28,0.1,19.9,4.609,28.271
		c5.891,5.149,7.21,14.75,11.37,22.13c2.51,4.45,5.95,7.45,8.91,11.37c2.57,1.17,4.64,3.26,7.37,4.609
		c2.6,1.29,6.06,1.71,7.68,4.301c-18.22-5.03-26.399-20.101-32.56-37.181c-4.62-5.97-9.37-13.699-9.83-22.43
		c-0.13-2.28,0.93-5.04,1.22-7.69c0.24-2.09-0.149-3.89,0.311-5.529c0.42-1.49,1.71-2.94,2.46-4.61c0.8-1.76,1.09-3.9,1.84-5.22
		c0.85-1.49,2.54-2.69,3.38-4c0.97-1.5,1.56-2.95,2.149-4.3c2.86-1.511,3.801-3.71,5.841-5.53c1.729-1.55,4.02-2.271,5.84-3.69
		c9.38-7.29,21.069-15.46,35.63-16.59c17.62-1.37,28.29,7.48,38.09,15.36c9.27,7.46,20.34,17.109,23.35,30.42
		c1.58,7.03,2.08,12.439,2.15,18.439c0.1,9.33,0.29,16.561-2.15,23.36c-2.229,6.18-5.22,11.67-8.3,18.43
		c-2.78,2.45-4.729,5.721-7.99,7.69c-2.739,4.21-7.37,7.021-11.67,10.14C1160.7,529.14,1149.74,532.24,1137.43,532.24z"/>
	<path fill="#7C4697" d="M1168.46,477.85c-4.01,9.28-11.68,15.83-18.13,23.05c-2.57,2.88-5.09,5.78-7.68,8.601
		c-2.58,2.829-4.721,6.14-7.681,8.609c-3.75,5.99-7.149,12.48-10.438,19.05c-2.15,4.29-3.95,8.73-5.84,13.21
		c-2.69,6.41-6.171,12.521-10.44,17.521c-2.65,5.37-5.79,9.86-8.6,15.06c-1.32,2.431-2.44,4.75-4,7.681
		c-1.931,3.649-2.841,7.64-4.91,11.979c-0.62,1.311-1.94,2.34-2.46,3.69c-0.53,1.39-0.33,3.159-0.92,4.609
		c-0.551,1.351-1.881,2.91-2.771,4.3c-0.91,1.431-1.569,2.921-2.76,4c-1.271-0.17-1.09-3.06-0.61-4
		c0.67,0.04,0.13,1.311,0.301,1.851c3.59-3.28,3.989-8.05,5.84-12.3c0.8-1.83,2.319-3.29,3.069-5.221
		c2.23-5.77,4.54-11.42,7.37-16.899c3.54-6.84,8.43-12.931,12.6-19.67c7.2-11.62,11.091-25.311,17.811-37.181
		c6.811-12,16.88-19.81,24.58-30.42c6.09-4.66,10.37-11.14,14.75-17.52c0.12-0.73-1.4,0.17-0.93-0.92
		C1167.45,476.13,1167.76,477.59,1168.46,477.85z"/>
</g>
<g>
	<path fill="#B19ACA" d="M544,366.5l6,19l68,20c0,0,2.17,14.39,2,19c-0.17,4.609-0.9,52.569-0.9,52.569l9-2L628.83,419l81.5-16
		l14-17.5l-18.66-7.671L628.5,394l-0.5-17.5l65-15l15-19l-16-8l-63,13c0,0-2.39-38.561-3-40c-0.61-1.44-4.33,1.779-4,6
		c0.33,4.22,0,13,0,13l-65-7c0,0-14.72,6.609-14,7c0.72,0.39,13,16,13,16l65,12c0,0-1.11,20.439-1,21c0.11,0.56-64-14-64-14
		L544,366.5z"/>
	<g>
		<path fill="none" stroke="#7C4697" stroke-width="2" stroke-linecap="round" stroke-linejoin="round" stroke-miterlimit="10" d="
			M619,483.5c0,0,1.82-38.671,2-46c0.18-7.33-4.03-20.5-3-26s5.09-70.631,4-77c-1.09-6.37,0-8,0-8v-14c0,0,0.8-7.07,2-7
			c1.2,0.069,1.84,1.689,3,8c1.16,6.31,0.84,85.149,1,95c0.16,9.85-0.16,29.31,0,42c0.16,12.689-1,30-1,30"/>
		<path fill="none" stroke="#7C4697" stroke-width="2" stroke-linecap="round" stroke-linejoin="round" stroke-miterlimit="10" d="
			M620,375.5c0,0-41.86-9.54-48-11c-6.14-1.461-16-5-16-5s-9.1,4.56-16,7c0,0,3.2,3.739,5,9c1.8,5.26,3,9,3,9s5.51,3,9,5
			s31.06,8.869,35,10c3.94,1.13,26,7,26,7"/>
		<path fill="none" stroke="#7C4697" stroke-width="2" stroke-linecap="round" stroke-linejoin="round" stroke-miterlimit="10" d="
			M620,325.5c0,0-45.47-7.08-49-8c-3.53-0.921-13-2-13-2s-12.44,7.52-18,9c0,0,5.83,11.479,9,14c3.17,2.52,4,6,4,6s12.16,0.38,16,1
			c3.84,0.619,49,9,49,9"/>
		<path fill="none" stroke="#7C4697" stroke-width="2" stroke-linecap="round" stroke-linejoin="round" stroke-miterlimit="10" d="
			M630,346.5c0,0,41.06-9.811,47-11c5.94-1.19,12-1,12-1h4l18,8c0,0-13.63,18.119-14,20c-0.37,1.88-22.04,3.68-30,6
			c-7.96,2.319-37,9-37,9"/>
		<path fill="none" stroke="#7C4697" stroke-width="2" stroke-linecap="round" stroke-linejoin="round" stroke-miterlimit="10" d="
			M628,392.5c0,0,58.56-13.971,64.5-15.171c5.94-1.189,12-1,12-1h4l18,8c0,0-13.63,18.12-14,20c-0.37,1.881-22.04,3.681-30,6
			c-7.96,2.33-54.5,13.171-54.5,13.171"/>
	</g>
</g>
</svg>
