<svg version="1.1" id="圖層_1" xmlns="http://www.w3.org/2000/svg" xmlns:xlink="http://www.w3.org/1999/xlink" x="0px" y="0px"
	 width="50.94px" height="38.175px" viewBox="0 0 50.94 38.175" enable-background="new 0 0 50.94 38.175" xml:space="preserve">
<g>
	<path fill-rule="evenodd" clip-rule="evenodd" fill="#FFFFFF" d="M49.86,33.852c0.367,0.172,0.712,0.367,1.08,0.539
		c-0.143,0.781-0.654,0.148-0.9,0.9C49.634,35.157,49.97,34.281,49.86,33.852z"/>
	<path fill-rule="evenodd" clip-rule="evenodd" fill="#FFFFFF" d="M17.46,23.051c2.443-1.307,4.217-3.018,4.32-5.399
		c0.78,0.06,0.94,0.739,1.26,1.26c-1.601,1.819-3.019,3.821-5.4,4.86c-0.05,0.709,1.268,0.052,1.44,0.539
		c0.157,0.684-0.598,0.846-0.9,0.541c1.157,1.247,4.081,0.446,5.94,0.359c0.879,1.701-0.174,5.334,1.08,6.66
		c-2.988,2.509-8.304,0.662-11.34,1.62c0.357-0.415-0.045-0.2-0.18-0.54c-1.133,0.432-2.806,1.064-3.78,1.08
		c0.683-2.291,0.359-4.331,0.9-6.12c1.808,0.573,0.338,3.192,0.36,4.681c1.962,0.123,5.423-0.066,8.46-0.181
		c1.504-0.056,2.794-0.13,3.96-0.36c0.83-1.498-0.121-3.774-0.18-5.399c-1.299-0.794-3.347-0.061-4.86-0.36
		c-0.545,0.825-0.673,1.107-1.44,1.08c-0.297-0.025,0.188-0.75,0-1.26c-2.264,0.436-3.396,2.004-5.22,2.88
		c1.1-2.05,2.653-2.534,4.68-3.601c-0.09-0.961-0.956-1.162-1.44-1.26c-1.434-2.043-3.089-4.875-3.6-7.74
		c0.339-0.781,1.476-0.293,1.98-0.54c0.705,1.216,2.069,1.771,2.52,3.24c0.288-0.652-0.169-2.084,0-3.6
		c-2.359-0.542-3.832-3.472-5.22-5.58c0.159-0.468,0.153-1.058,0.36-1.26c2.188-2.134,4.011,2.137,5.22,2.34
		c-0.002,0,1.615-0.638,1.44-0.54c1.084-0.607,1.956-2.219,3.24-2.52c1.418,0.082,2.055,0.945,2.16,2.34
		c-1.239,2.48-4.627,2.812-6.48,4.68c-0.024,1.705,0.073,3.287,0.36,4.68c1.119-1.532,3.398-4.67,5.58-2.879
		c-1.98,0.38-4.109,1.458-4.86,3.42c-0.101,0.264-0.054,0.413-0.18,0.18C17.39,20.855,17.334,21.925,17.46,23.051z M17.1,13.151
		c2.064-0.396,3.772-1.148,4.86-2.52c-0.235-0.461-0.953,0.417-1.08,0c0.13-0.59,0.737-0.703,1.44-0.72
		C21.108,6.973,17.371,11.313,17.1,13.151z M15.84,14.771c0.135-0.615-0.731-0.229-0.54-0.9c1.881-2.125-0.915-4.987-3.6-4.86
		C12.354,11.657,13.891,13.42,15.84,14.771z M16.38,23.771c0.142-0.922-0.252-1.308-0.18-2.16c-0.569-0.029-0.602,0.479-1.26,0.359
		c-0.077-0.342-0.388-0.451-0.36-0.899c0.491-0.017,0.362,0.3,0.72,0c0.141-2.003-0.914-4.048-2.7-3.96
		C13.368,19.824,14.188,22.482,16.38,23.771z"/>
	<path fill-rule="evenodd" clip-rule="evenodd" fill="#FFFFFF" d="M45.36,36.012c-0.377-0.164-0.549-0.531-0.54-1.08
		c-2.913-0.198-3.925-0.202-6.479,0c-0.078-0.344-0.389-0.453-0.361-0.9c-0.676,0.438-1.201,0.512-2.34,0.54
		c-2.627,0.063-5.303-0.081-8.279-0.36c-3.632-0.34-7.432,0.992-11.16,1.26c-3.073,0.221-5.789,0.176-8.28,1.08
		c-0.384,0.084-0.343-0.257-0.36-0.539c-0.182,1.078-1.404,1.115-1.8,1.979c-1.168-1.673-4.362,0.271-5.58,0.181
		c1.046-2.213,4.107-1.215,5.58-1.98C8.232,27.302,5.43,16.75,8.1,8.471c0.657,2.375-0.727,5.721-0.72,9.18
		c0.004,1.915,0.531,3.786,0.36,5.76c-0.255,2.946,0.262,5.947-0.18,9.36c-0.148,1.144-1.001,2.136,0,3.06
		c3.621-1.336,7.519-0.818,11.7-1.44c3.623-0.537,7.604-1.795,11.34-0.539c-1.01-8.412-3.819-17.665-3.061-27
		c-2.044-1.42-5.471-1.092-8.46-1.8c-1.814-0.43-3.988-2.343-5.94-1.8c-2.434,0.677-2.636,3.394-5.04,4.32
		c-1.143,1.511-2.484,3.123-3.78,4.68c-1.233,1.481-2.499,3.423-4.32,3.78c3.353-4.546,8.19-9.146,12.24-13.68
		c1.501-0.376,2.133-2.523,3.6-2.34c-0.387,0.934-1.511,1.129-1.8,2.16c5.657,3.495,14.836,2.359,19.98,6.3
		c-0.23,0.309-0.857,0.223-0.9,0.72c-1.73-0.67-2.504-2.296-4.859-2.34c-1.012,8.813,2.524,19.635,3.239,26.821
		c0.647,0.244,1.919-0.48,2.88,0c0.488-0.413,0.492-1.309,0.721-1.98c-1.252,0.042-2.395,1.041-3.42,0.72
		c-0.141-1.473,0.74-3.082,1.08-4.5c0.252-1.058-0.2-2.756,1.08-2.7c1.002,0.055,0.236,0.766,0,1.08
		c4.374,0.265,12.697-2.102,16.559,0.54c-0.922,1.599,0.707,4.269-1.26,5.04c-0.151,0.752,0.351,0.85,0.36,1.439
		c-0.771,0.371-1.304,0.977-1.62,1.801C45.837,34.374,46.526,35.116,45.36,36.012z M46.44,26.471
		c-4.203-0.197-8.742,0.621-12.78,0.721c-0.175,1.506-0.931,2.43-0.899,4.14c1.228-0.527,5.14,0.112,6.299-1.079
		c0.465,0.015,0.189,0.77,0.9,0.539c3.65-0.336,5.801-0.05,9,0c0.377-1.131,0.452-2.889,0-3.779
		C48.112,26.624,47.297,26.512,46.44,26.471z M39.24,32.951c-0.33-0.347-0.609,0.154-0.899,0.359
		c1.26,0.807,3.148,1.254,4.139,0.541c-0.218,0.055-0.62-0.521-0.18-0.541c1.488-0.058,1.751,0.833,2.881,0.721
		c0.252-0.938,0.071-2.031,0.18-2.7C43.142,31.693,38.563,30.244,39.24,32.951z M46.261,31.512c-0.032,0.954-0.117,0.918,0,1.799
		c0.867-0.056,0.904-0.139,1.979-0.18c-0.151-0.509-0.209-1.111-0.36-1.619C47.163,31.666,46.55,31.242,46.261,31.512z
		 M36.181,31.691c-0.346,0.494-0.424,1.256-0.541,1.98c0.872-0.148,1.67-0.371,2.521-0.541c0.021-0.518-0.099-1.178,0.181-1.439
		C37.397,31.404,37.103,31.603,36.181,31.691z"/>
</g>
<g>
	<path fill-rule="evenodd" clip-rule="evenodd" fill="#FFFFFF" d="M49.86,33.852c0.367,0.172,0.712,0.367,1.08,0.539
		c-0.143,0.781-0.654,0.148-0.9,0.9C49.634,35.157,49.97,34.281,49.86,33.852z"/>
	<path fill-rule="evenodd" clip-rule="evenodd" fill="#FFFFFF" d="M17.46,23.051c2.443-1.307,4.217-3.018,4.32-5.399
		c0.78,0.06,0.94,0.739,1.26,1.26c-1.601,1.819-3.019,3.821-5.4,4.86c-0.05,0.709,1.268,0.052,1.44,0.539
		c0.157,0.684-0.598,0.846-0.9,0.541c1.157,1.247,4.081,0.446,5.94,0.359c0.879,1.701-0.174,5.334,1.08,6.66
		c-2.988,2.509-8.304,0.662-11.34,1.62c0.357-0.415-0.045-0.2-0.18-0.54c-1.133,0.432-2.806,1.064-3.78,1.08
		c0.683-2.291,0.359-4.331,0.9-6.12c1.808,0.573,0.338,3.192,0.36,4.681c1.962,0.123,5.423-0.066,8.46-0.181
		c1.504-0.056,2.794-0.13,3.96-0.36c0.83-1.498-0.121-3.774-0.18-5.399c-1.299-0.794-3.347-0.061-4.86-0.36
		c-0.545,0.825-0.673,1.107-1.44,1.08c-0.297-0.025,0.188-0.75,0-1.26c-2.264,0.436-3.396,2.004-5.22,2.88
		c1.1-2.05,2.653-2.534,4.68-3.601c-0.09-0.961-0.956-1.162-1.44-1.26c-1.434-2.043-3.089-4.875-3.6-7.74
		c0.339-0.781,1.476-0.293,1.98-0.54c0.705,1.216,2.069,1.771,2.52,3.24c0.288-0.652-0.169-2.084,0-3.6
		c-2.359-0.542-3.832-3.472-5.22-5.58c0.159-0.468,0.153-1.058,0.36-1.26c2.188-2.134,4.011,2.137,5.22,2.34
		c-0.002,0,1.615-0.638,1.44-0.54c1.084-0.607,1.956-2.219,3.24-2.52c1.418,0.082,2.055,0.945,2.16,2.34
		c-1.239,2.48-4.627,2.812-6.48,4.68c-0.024,1.705,0.073,3.287,0.36,4.68c1.119-1.532,3.398-4.67,5.58-2.879
		c-1.98,0.38-4.109,1.458-4.86,3.42c-0.101,0.264-0.054,0.413-0.18,0.18C17.39,20.855,17.334,21.925,17.46,23.051z M17.1,13.151
		c2.064-0.396,3.772-1.148,4.86-2.52c-0.235-0.461-0.953,0.417-1.08,0c0.13-0.59,0.737-0.703,1.44-0.72
		C21.108,6.973,17.371,11.313,17.1,13.151z M15.84,14.771c0.135-0.615-0.731-0.229-0.54-0.9c1.881-2.125-0.915-4.987-3.6-4.86
		C12.354,11.657,13.891,13.42,15.84,14.771z M16.38,23.771c0.142-0.922-0.252-1.308-0.18-2.16c-0.569-0.029-0.602,0.479-1.26,0.359
		c-0.077-0.342-0.388-0.451-0.36-0.899c0.491-0.017,0.362,0.3,0.72,0c0.141-2.003-0.914-4.048-2.7-3.96
		C13.368,19.824,14.188,22.482,16.38,23.771z"/>
	<path fill-rule="evenodd" clip-rule="evenodd" fill="#FFFFFF" d="M45.36,36.012c-0.377-0.164-0.549-0.531-0.54-1.08
		c-2.913-0.198-3.925-0.202-6.479,0c-0.078-0.344-0.389-0.453-0.361-0.9c-0.676,0.438-1.201,0.512-2.34,0.54
		c-2.627,0.063-5.303-0.081-8.279-0.36c-3.632-0.34-7.432,0.992-11.16,1.26c-3.073,0.221-5.789,0.176-8.28,1.08
		c-0.384,0.084-0.343-0.257-0.36-0.539c-0.182,1.078-1.404,1.115-1.8,1.979c-1.168-1.673-4.362,0.271-5.58,0.181
		c1.046-2.213,4.107-1.215,5.58-1.98C8.232,27.302,5.43,16.75,8.1,8.471c0.657,2.375-0.727,5.721-0.72,9.18
		c0.004,1.915,0.531,3.786,0.36,5.76c-0.255,2.946,0.262,5.947-0.18,9.36c-0.148,1.144-1.001,2.136,0,3.06
		c3.621-1.336,7.519-0.818,11.7-1.44c3.623-0.537,7.604-1.795,11.34-0.539c-1.01-8.412-3.819-17.665-3.061-27
		c-2.044-1.42-5.471-1.092-8.46-1.8c-1.814-0.43-3.988-2.343-5.94-1.8c-2.434,0.677-2.636,3.394-5.04,4.32
		c-1.143,1.511-2.484,3.123-3.78,4.68c-1.233,1.481-2.499,3.423-4.32,3.78c3.353-4.546,8.19-9.146,12.24-13.68
		c1.501-0.376,2.133-2.523,3.6-2.34c-0.387,0.934-1.511,1.129-1.8,2.16c5.657,3.495,14.836,2.359,19.98,6.3
		c-0.23,0.309-0.857,0.223-0.9,0.72c-1.73-0.67-2.504-2.296-4.859-2.34c-1.012,8.813,2.524,19.635,3.239,26.821
		c0.647,0.244,1.919-0.48,2.88,0c0.488-0.413,0.492-1.309,0.721-1.98c-1.252,0.042-2.395,1.041-3.42,0.72
		c-0.141-1.473,0.74-3.082,1.08-4.5c0.252-1.058-0.2-2.756,1.08-2.7c1.002,0.055,0.236,0.766,0,1.08
		c4.374,0.265,12.697-2.102,16.559,0.54c-0.922,1.599,0.707,4.269-1.26,5.04c-0.151,0.752,0.351,0.85,0.36,1.439
		c-0.771,0.371-1.304,0.977-1.62,1.801C45.837,34.374,46.526,35.116,45.36,36.012z M46.44,26.471
		c-4.203-0.197-8.742,0.621-12.78,0.721c-0.175,1.506-0.931,2.43-0.899,4.14c1.228-0.527,5.14,0.112,6.299-1.079
		c0.465,0.015,0.189,0.77,0.9,0.539c3.65-0.336,5.801-0.05,9,0c0.377-1.131,0.452-2.889,0-3.779
		C48.112,26.624,47.297,26.512,46.44,26.471z M39.24,32.951c-0.33-0.347-0.609,0.154-0.899,0.359
		c1.26,0.807,3.148,1.254,4.139,0.541c-0.218,0.055-0.62-0.521-0.18-0.541c1.488-0.058,1.751,0.833,2.881,0.721
		c0.252-0.938,0.071-2.031,0.18-2.7C43.142,31.693,38.563,30.244,39.24,32.951z M46.261,31.512c-0.032,0.954-0.117,0.918,0,1.799
		c0.867-0.056,0.904-0.139,1.979-0.18c-0.151-0.509-0.209-1.111-0.36-1.619C47.163,31.666,46.55,31.242,46.261,31.512z
		 M36.181,31.691c-0.346,0.494-0.424,1.256-0.541,1.98c0.872-0.148,1.67-0.371,2.521-0.541c0.021-0.518-0.099-1.178,0.181-1.439
		C37.397,31.404,37.103,31.603,36.181,31.691z"/>
</g>
</svg>
