<svg version="1.1" id="圖層_1" xmlns="http://www.w3.org/2000/svg" xmlns:xlink="http://www.w3.org/1999/xlink" x="0px" y="0px"
	 width="1409px" height="239px" viewBox="0 0 1409 239" enable-background="new 0 0 1409 239" xml:space="preserve">
<path fill-rule="evenodd" clip-rule="evenodd" fill="#7C4697" d="M864.29,138.35c-0.06-0.3-1.08,0.13-1.22,0.41
	c-1.32-1.75,1-1.74,1.22-2.46c0.64-0.1,0.46,0.63,1.23,0.41c0.31,1.75-0.39,2.64-1.23,3.69c0.52,1.19,2.4,1.01,2.25,2.87
	c-0.96,0.48-2.23-0.31-3.47-0.2c0.13,1.08,0.62,1.44,0.2,2.25c-1.32-0.34-3.1-1.22-3.06-2.25c-1.78-0.82-3.96-0.58-4.09-2.67
	c0.93-0.55,1.55-0.16,2.86-0.2c-0.26-0.7-0.02-2.73,0.61-3.69c0.68,0.21,1.16,0.62,2.05,0.61c-0.21,0.96,0.59,0.91,0.81,1.44
	c-0.17,0.5-0.47,0.89-1.22,0.82c0.03-0.51,0.04-1-0.41-1.03c-0.43-0.08-0.54,0.14-0.82,0.21c-0.19,1.15,0.6,1.32,0.61,2.25
	c-0.19,0.15-0.3,0.38-0.4,0.62c-0.68-0.49-1.41,0.33-2.05-0.21c0.46,1.01,1.56,0.43,2.66,1.03c-0.08,0.96,0.36,1.41,1.02,1.64
	c0.61-0.57-0.21-1.42-0.2-2.05c1.14-0.64,1.79,0.35,2.85,0.41c-0.24-0.93-0.68-0.4-1.42-0.82
	C862.5,140.28,863.64,139.38,864.29,138.35z"/>
<path fill-rule="evenodd" clip-rule="evenodd" fill="#7C4697" d="M18.84,91.43c-0.06-0.31-1.08,0.12-1.23,0.4
	c-1.31-1.75,1.01-1.74,1.23-2.45c0.64-0.1,0.46,0.62,1.22,0.41c0.32,1.75-0.38,2.63-1.22,3.68c0.52,1.19,2.4,1.01,2.24,2.87
	c-0.96,0.48-2.22-0.3-3.47-0.2c0.14,1.08,0.63,1.45,0.21,2.25c-1.33-0.34-3.1-1.22-3.07-2.25c-1.77-0.82-3.95-0.58-4.08-2.67
	c0.93-0.55,1.55-0.15,2.86-0.2c-0.26-0.7-0.02-2.73,0.61-3.69c0.68,0.21,1.16,0.62,2.04,0.62c-0.2,0.95,0.6,0.9,0.82,1.43
	c-0.18,0.51-0.48,0.89-1.22,0.82c0.03-0.51,0.03-0.99-0.41-1.02c-0.43-0.09-0.54,0.14-0.82,0.2c-0.19,1.15,0.59,1.32,0.61,2.25
	c-0.19,0.16-0.31,0.38-0.41,0.62c-0.68-0.49-1.4,0.33-2.04-0.21c0.46,1.01,1.55,0.43,2.66,1.03c-0.08,0.96,0.36,1.41,1.02,1.64
	c0.61-0.56-0.21-1.42-0.21-2.05c1.15-0.63,1.8,0.35,2.86,0.41c-0.24-0.93-0.68-0.4-1.43-0.82C17.05,93.36,18.19,92.45,18.84,91.43z"
	/>
<path fill-rule="evenodd" clip-rule="evenodd" fill="#7C4697" d="M899.65,200.56c-0.1-1.06-2.49-1.6-3.47-2.46
	c-0.08-1.79,0.95-2.47,1.64-3.49c-0.64-0.32-3.47,1.47-3.27-0.81c1.11-0.04,2.33-0.14,3.27-0.82c0.5,0.1,0.68,0.54,1.22,0.61
	c-0.29,1.63-0.94,2.88-1.84,3.89c1.4,0.95,2.42,1.52,4.29,2.26c0,0.54,0.08,1.17-0.2,1.43c-2.02-0.21-3.58-0.33-4.7-1.02
	c-0.62,1.24,0.62,2.38,0.41,3.89c-1.91-0.2-2.33-1.9-3.47-2.87c-1.88-0.37-3.76-0.73-4.9-1.84c0.54-1.09,1.57-1.7,3.06-1.85
	c-0.26-1.8,0.08-3.5,0.41-5.12c1.39-0.13,2.63,1.73,1.63,2.66c-0.65,0.05-0.49-0.73-0.81-1.02c-0.1,1.65-0.39,2.76,0,4.1
	c-0.85,0.44-1.96,0.63-2.86,1.02c1.08,0.69,2.29,0.91,3.26,0.21c0.25,1.59,1.82,1.87,2.25,3.28c0.7-0.75-0.84-2.49-0.82-3.9
	C896.88,198.83,898.28,199.68,899.65,200.56z"/>
<path fill-rule="evenodd" clip-rule="evenodd" fill="#7C4697" d="M160.43,144.52c-0.1-1.06-2.49-1.6-3.47-2.46
	c-0.08-1.8,0.95-2.47,1.63-3.49c-0.63-0.32-3.46,1.47-3.26-0.82c1.11-0.04,2.33-0.13,3.26-0.82c0.51,0.11,0.69,0.55,1.23,0.62
	c-0.29,1.62-0.94,2.88-1.84,3.89c1.4,0.95,2.42,1.52,4.29,2.26c0,0.54,0.08,1.17-0.21,1.43c-2.01-0.21-3.57-0.33-4.69-1.02
	c-0.62,1.24,0.62,2.38,0.41,3.89c-1.91-0.2-2.33-1.9-3.47-2.87c-1.88-0.37-3.76-0.74-4.91-1.84c0.55-1.1,1.58-1.71,3.07-1.85
	c-0.26-1.81,0.08-3.5,0.41-5.12c1.38-0.14,2.63,1.72,1.63,2.66c-0.66,0.04-0.5-0.73-0.82-1.02c-0.1,1.65-0.38,2.76,0,4.1
	c-0.85,0.44-1.96,0.62-2.86,1.02c1.09,0.69,2.29,0.91,3.27,0.21c0.25,1.59,1.82,1.86,2.25,3.28c0.69-0.76-0.84-2.49-0.82-3.9
	C157.66,142.79,159.06,143.64,160.43,144.52z"/>
<path fill-rule="evenodd" clip-rule="evenodd" fill="#7C4697" d="M12.35,45.5c1.12,0.04,2.93,1.16,4.09,1.84
	c0.04-0.36-0.21-1.02,0.41-0.82c0.82,1.01,2.05,3.6,3.26,2.87c-0.36-0.45-1.01-0.62-1.02-1.43c0.29-0.26,0.09-1,0.61-1.03
	c1.05-0.41,2.11,0.28,2.66-0.41c-1.12-0.79-2.82-0.99-3.27-2.46c0.3-0.86,1.16-1.16,1.43-2.04c-1.38-0.12-1.53-1.48-2.45-2.05
	c0.28,1.04,0.35,2.7-0.2,3.48C16.49,43.35,13.25,44.61,12.35,45.5z M17.25,38.12c1.17,0.61,2.19,1.36,2.66,2.67
	c0.7-0.82,1.65-0.38,1.84-1.44c1.62,0.54,1.94-0.9,3.26-0.41c0.43,0.49-0.45,0.9-0.61,1.44c-2.5-0.06-2.66,2.24-3.88,3.48
	c0.66,1.8,3.39,1.52,4.29,3.07c-0.4,1.39-2.83,0.52-4.49,1.03c0.47,0.99,1.15,2.75,0.81,3.89c-1.94-0.44-2.44-2.53-3.88-3.48
	c-0.73-0.49-2.04-0.4-2.85-0.82c-1.3-0.67-2.08-1.79-3.48-2.26c1-2.21,4.65-1.75,6.33-3.27C17.5,40.26,15.96,39.22,17.25,38.12z"/>
<path fill-rule="evenodd" clip-rule="evenodd" fill="#7C4697" d="M562.75,184.63c2.01-0.31,2.4,1.01,3.67,1.44v1.43
	c-1.54,0.12-1.37-1.49-2.85-1.43c0.41,0.76,1.19,2.44-0.41,2.46c1.43,0.68,2.35,1.88,3.06,3.28c0.89-1.04-0.74-1.3-0.41-2.46
	c0.85-0.64,2.62,0.23,3.27-0.21c-0.02-0.73-1.34-0.16-1.63-0.61c0.05-1.05,0.65-1.53,1.63-1.64c-0.11-0.17-0.21-0.33-0.21-0.62
	c-0.02-0.14-1.28,0.21-1.42,0.62c-0.53-0.16-0.71-0.66-0.62-1.44c1.2-0.42,2.9-0.88,3.47,0.21c0.1,1.12-0.25,1.79-1.02,2.05
	c0.19,0.7,1.14,0.63,1.84,0.82c0.07,0.74,0.31,0.99,0,1.64c-1.93,0.14-2.53-0.09-3.88,0.41c0.52,0.73,0.31,1.76,0,2.66
	c-1.45-0.18-2.06-1.2-2.45-2.46c-1.92-0.8-2.76-1.69-4.08-3.28c0.24-0.03,0.17-0.37,0.2-0.61c0.77,0.1,0.87,0.06,1.63,0.41
	C562.87,186.77,562.3,185.46,562.75,184.63z"/>
<path fill-rule="evenodd" clip-rule="evenodd" fill="#7C4697" d="M765.74,174.98c-0.35,0.8,3.89,0.77,2.66,3.08
	c-1.34-0.03-2.16-0.56-3.47-0.62c0.27,1.27,1.01,3.04,0.61,4.31c-2.05-0.75-3.13-2.47-4.08-4.31c-1.69,0.12-2.45-0.69-3.68-1.02
	c-0.15-1.44,1.82-1.41,2.65-1.23c0.14-0.95,0.2-2.44,0-3.9c0.35,0.01,0.53-0.15,0.62-0.4c1.11,0.58,2.21,1.19,2.65,2.45
	c-0.96,0.21-1.16-0.33-1.63-0.61c-0.81,0.64-0.02,1.76-0.21,3.28c-1.08,0.18-1.65-0.25-2.04,0.41c0.66,0.44,1.89,0.25,2.86,0.82
	c-0.08,1.58,1.12,1.88,1.63,2.87c0.26-1.2-0.55-2.61-1.02-4.1c0.71-0.31,1.55,0.14,2.25,0.41c-0.01-0.68-0.86-0.5-1.02-1.03
	c0.14-1.43,1.37-1.76,2.04-2.66c-0.5-0.94-1.78,0.16-2.65-0.41c0.16-0.58-0.29-0.53-0.21-1.03c0.39-0.22,1.18,0.16,1.43-0.61
	c0.31,0.72,2.03,0.41,2.66,0.21c0.27,0.47,0.82,0.67,0.61,1.63C767,172.73,766.88,175.2,765.74,174.98z"/>
<g>
	<path fill-rule="evenodd" clip-rule="evenodd" fill="#7C4697" d="M895.46,64.87c0.36-0.05,1.02,0.58,1.23,0
		c0.3,0.55,0.11,1.15,0.2,2.26C896.04,66.76,895.8,65.76,895.46,64.87z"/>
	<path fill-rule="evenodd" clip-rule="evenodd" fill="#7C4697" d="M896.89,67.13c-0.09-1.11,0.1-1.71-0.2-2.26
		c-0.21,0.58-0.87-0.05-1.23,0C895.8,65.76,896.04,66.76,896.89,67.13z M895.67,61.8c-1.08,0.12-1.76-0.15-2.66-0.21
		c0.81,1.45,2.62,1.89,3.68,3.08c0.24-0.09-0.05-0.88,0.61-1.03c1.81-0.3,3.38,2.07,3.68,0.82c-0.73,0.12-1.1-1.9-2.25-2.05
		c-0.23-0.59,0.55-1.53,0.41-1.84c-0.12,0.46-0.32-0.25-0.61,0.2c-0.55-1.43-2.11-2.94-2.86-3.48
		C896.09,58.48,895.27,60,895.67,61.8z M898.73,59.13c0.62-0.25-0.22-0.7,0-1.23c0.41,0.07,0.64-0.04,0.61-0.41
		c0.9,0.61,2.87-0.23,3.88,0.62c-0.08,2.1-2.17,2.19-3.06,3.48c0.56,1.9,2.77,2.14,3.06,4.31c-1.33,0.76-3.83-0.41-5.1-1.03
		c-1.05,1.13,0.43,3.04-0.82,4.1c-1.5-0.77-2.34-2.99-2.45-4.51c-1.39-0.92-2.34-2.3-4.29-2.66c-0.28-1.89,2.54-1.18,3.47-1.23
		c0.8-1.53,0.22-4.43,2.25-4.72C897.15,56.9,897.94,58.01,898.73,59.13z"/>
</g>
<path fill-rule="evenodd" clip-rule="evenodd" fill="#7C4697" d="M674.83,74.85c1.33-0.26,2.23,1.81,3.68,1.43
	c-0.2,0.8,0.45,1.19,0,1.64c-0.29-0.02-0.58-0.03-0.61,0.21c-0.51-0.72-1.11-1.35-2.05-1.64c-0.69,1.45-0.1,2.67,0,3.89
	c-0.51,0.52-1.42,0.62-2.45,0.62c0.86,0.84,2.52,0.89,3.47,1.64c-3.07,0.75-0.22,3.44,1.03,4.1c1.17-0.65,0.27-3.35,0.61-4.31
	c1.23-0.29,2.66,0.66,4.08,0.82c-0.26-1.03-1.58-1-2.04-1.84c0.36-1.97,2.37-2.27,3.06-3.9c-0.7-0.03-3.26-0.31-3.67,0.62
	c-1.09-0.07-0.8-1.43-0.62-2.26c1.64,0.97,3.58-0.52,5.72,0.41c0.01,2.73-1.71,3.23-3.26,4.72c1.09,1.02,2.8,1.42,3.06,3.28
	c-1.55,0.38-4.09-0.16-4.9-0.62c-0.43,1-0.31,3.61-1.23,4.72h-0.41c-1-1.62-4.33-2.76-3.06-5.33c-1.271-0.92-3.07-1.3-4.9-1.64
	c-0.02-0.33,0.1-0.79-0.2-0.82c1.06-0.97,2.9-0.72,4.08-0.62C674.15,78.63,674.39,76.31,674.83,74.85z"/>
<path fill-rule="evenodd" clip-rule="evenodd" fill="#7C4697" d="M410.06,40.17c0.13-1.15-2.3-1.51-3.06-2.46
	c0.04-1.46,1.96-1.03,2.45-2.05c-1.07-0.61-3.53,2-3.47-0.82c1.08,0.1,2.97-0.63,5.1-0.61c0.22,1.48-1,2.47-2.24,3.07
	c1.05,1.61,3.38,1.94,3.88,4.1c-1.82,0.54-3.73-1.3-5.72-0.61c-0.32,1.61,0.21,2.91-0.41,4.3c-1.75-0.16-2.41-1.41-2.86-2.87
	c-1.51-1.49-3.74-2.26-5.31-3.69c0.41-1.44,2.15-1.1,3.27-1.23c-0.02-1.93,1.24-2.57,1.63-4.1c1.82,0.43,1.94,2.57,2.66,4.1
	c-0.37,0.19-0.52,0.58-1.23,0.41c0.58-1.3-0.54-1.65-0.81-2.66c-1.43,0.34-0.78,1.86-0.82,3.28c-1.26,0.25-1.94,0.09-3.06,0.2
	c1.19,1.06,2.91,1.59,4.28,2.46c-0.09,2.04,1.01,1.6,1.43,3.08c0.32-1.28-0.15-3.26,0.41-4.72
	C407.51,39.59,409.16,39.51,410.06,40.17z"/>
<path fill-rule="evenodd" clip-rule="evenodd" fill="#7C4697" d="M210.06,178.17c0.13-1.15-2.3-1.51-3.06-2.46
	c0.04-1.46,1.96-1.03,2.45-2.05c-1.07-0.61-3.53,2-3.47-0.82c1.08,0.1,2.97-0.63,5.1-0.61c0.22,1.48-1,2.47-2.24,3.07
	c1.05,1.61,3.38,1.94,3.88,4.1c-1.82,0.54-3.73-1.3-5.72-0.61c-0.32,1.61,0.21,2.91-0.41,4.3c-1.75-0.16-2.41-1.41-2.86-2.87
	c-1.51-1.49-3.74-2.26-5.31-3.69c0.41-1.44,2.15-1.1,3.27-1.23c-0.02-1.93,1.24-2.57,1.63-4.1c1.82,0.43,1.94,2.57,2.66,4.1
	c-0.37,0.19-0.52,0.58-1.23,0.41c0.58-1.3-0.54-1.65-0.81-2.66c-1.43,0.34-0.78,1.86-0.82,3.28c-1.26,0.25-1.94,0.09-3.06,0.2
	c1.19,1.06,2.91,1.59,4.28,2.46c-0.09,2.04,1.01,1.6,1.43,3.08c0.32-1.28-0.15-3.26,0.41-4.72
	C207.51,177.59,209.16,177.51,210.06,178.17z"/>
<g>
	<path fill-rule="evenodd" clip-rule="evenodd" fill="#7C4697" d="M819.3,44.92c1.71,0.41,3.11,1.12,3.27,3.08
		c-1.14,0.11-1.22-0.83-1.84-1.23c-0.7,0.39-0.31,1.87-0.41,2.87c-0.3,0.45-1.62-0.12-1.63,0.61c0.08,0.6,1.19,0.16,1.43,0.62
		c-0.63,2.06-2.7-0.69-3.88,0c0-0.49-0.35-0.61-0.21-1.23c0.86-0.29,1.83-0.76,2.86-0.62C819.3,47.92,819.34,46.47,819.3,44.92z"/>
	<path fill-rule="evenodd" clip-rule="evenodd" fill="#7C4697" d="M827.06,52.1c-1.03-0.88-2.03-1.8-3.68-2.05
		c0.21-0.5,0.07-0.44,0.21-1.23c1.07-0.09,1.57-0.75,2.04-1.44c0.24,0.03,0.17,0.38,0.2,0.62c0.24-0.04,0.18-0.38,0.21-0.62
		c-0.29-0.47-1.42-0.07-2.04-0.2v-1.44c0.81-0.3,2.13-0.62,3.06-0.2c0.04,2.02-0.67,3.29-2.04,3.89c1.37,1.22,3.5,1.68,4.28,3.49
		c-1.71,1.29-4.37-1.25-6.12,0.2c0.5,0.52,0.59,2.32,0.2,3.08c-1.9-0.64-2.2-2.15-3.47-3.69c0.02-0.67,0.93-0.44,0.61-1.44
		c0.8,0.97,0.39,2,1.64,3.49c0.51-1.09-0.11-1.79,0-2.87c1.61-0.08,3.33-0.46,3.88,0.61C826.52,52,826.42,51.87,827.06,52.1z"/>
</g>
<path fill-rule="evenodd" clip-rule="evenodd" fill="#7C4697" d="M576.38,30.71c-0.92,0.52-2.11,0.76-3.27,1.03
	c1.29,0.21,1.59,1.41,3.06,1.43c0.53,1.12,1.09,2.19,1.64,3.28c0.59-1.82,0.7-2.82,1.22-4.1c1.03,0.06,1.3,0.88,2.45,0.82
	c-0.2-1.37-1.97-1.17-2.45-2.25c-0.1-0.79,0.72-0.65,1.02-1.03c-1.62-0.83-1.44-3.47-3.06-4.3
	C576.65,27.35,576.38,29.12,576.38,30.71z M576.38,24.15c2.98,0.35,2.96,3.73,4.08,5.95c0.84-0.05,0.87-0.91,1.84-0.82
	c-0.56-0.61-0.88-0.52-1.84-0.41c-0.07-2.13,2.56-1.31,3.88-1.03c-0.68,1.82-1.53,2.27-3.06,3.08c0.52,1.65,2.64,1.71,2.86,3.68
	c-1.52,0.59-3.07-0.44-4.29-0.81c-0.81,1.18-0.72,3.1-1.23,4.09c-0.29-0.01-0.58-0.03-0.61,0.21c-1.06-0.43-0.84-2.16-2.04-2.46
	c-0.55-2.66-3.76-2.65-5.11-4.51c-0.15-0.63,0.56-0.39,0.41-1.02c1.13,0.67,2.65,0.07,3.47,0.2
	C575.3,28.27,575.9,26.27,576.38,24.15z"/>
<g>
	<path fill-rule="evenodd" clip-rule="evenodd" fill="#7C4697" d="M113.19,80.79c0.04-0.23,0.21-0.12,0.21,0
		c1.24-0.74,0.98-2.98,1.43-4.51c1.12,0.45,3.5,0.22,3.88,1.23c0.33-1.73-3.51-1.29-3.88-3.49c0.82-0.94,1.72-1.82,2.86-2.46
		c-0.59-1.08-1.57,0.43-2.04,0c-0.24-0.24-0.24-0.72-0.21-1.23c1.03-0.4,1.75-0.41,3.27-0.61c0.69,2.06-1.05,3.25-2.25,4.51
		c1.42,1.31,3.45,2,4.9,3.28c0.09,0.49-0.37,0.44-0.2,1.02c-2.11-0.38-3.18-0.55-5.11-1.02c-0.87,1.31-1.13,3.23-1.83,4.71
		C113.65,81.97,113.5,81.3,113.19,80.79z"/>
	<path fill-rule="evenodd" clip-rule="evenodd" fill="#7C4697" d="M111.15,68.9h1.43c0.44,1,0.84,2.03,2.04,2.25
		c-0.15,0.78,0.25,0.98,0.21,1.64c-1.43-0.13-1.34-1.79-2.66-2.05c-0.82,1.06-0.42,2.4-0.2,3.69c-0.64,0.66-2.32,0.27-3.27,0.62
		c0.58,0.95,1.65,0.93,2.25,1.43c0.71-0.34-0.23-1.14,1.02-1.02c-0.63,2.08,1.22,3.04,1.43,4.92c-0.95-0.69-1.37-1.91-1.84-3.08
		c-2.66,0.5-2.93-1.98-5.51-2.05v-1.23c1.84-0.27,3.1-0.41,4.29-0.2C110.64,72.21,110.58,70.24,111.15,68.9z"/>
</g>
<path fill-rule="evenodd" clip-rule="evenodd" fill="#7C4697" d="M463.46,116.32h-0.82c-0.11-1.3-1.49-2.28-2.24-2.26
	c-0.63,0.58,0.21,1.42,0,2.26c-1.08,0.57-2.06-0.09-3.07-0.21c1.01,1.9,2.72,1.18,3.88,2.87c0.18,0.67-0.66,0.29-0.81,0.62
	c0.76,0.39,1.02,1.29,1.42,2.05c0.32-0.93,0.77-1.82,0.41-2.87c0.81-0.78,1.53,0.18,2.25-0.21c0-0.54-0.57-0.52-0.82-0.82
	c0.11-1.19,0.73-1.86,1.43-2.46c-0.31-0.3-0.9-0.33-1.43-0.41v-1.43c1.16,0.07,1.74-0.44,2.45-0.82c0.54,0.07,0.69,0.54,0.82,1.02
	c-0.4,1.45-1.11,2.58-1.84,3.69c0.16,1.37,3.07,0.77,2.66,3.28c-1.59,0.02-2.35-0.79-3.88-0.82c-1.01,0.69-0.67,3.06-1.43,3.9
	c-1.36-0.98-2.5-3.21-2.66-4.72c-1.35-1.3-5.46-1.8-4.29-4.3c1.05,0.25,2.46,0.14,3.27,0.61c0.5-1.27,0.59-2.95,1.64-3.68
	C461.47,113,463.74,114.24,463.46,116.32z"/>
<g>
	<path fill-rule="evenodd" clip-rule="evenodd" fill="#7C4697" d="M316.08,74.51c0.79,0.77,2.49,0.64,3.47,1.23
		c-0.04,0.58-0.38,0.85-0.41,1.43c-1.35,0.08-2.53,0.13-3.68,0c0.66,1.66,1.38,3.27,1.64,5.33h-0.62c-1.4-1.46-3.17-2.56-4.28-4.3
		c-1.6,0.39-3-0.68-3.88-1.64c1.77,0.31,2.44,1.17,4.08,0.82c0.46,1.38,1.81,1.88,2.65,2.87c0.88-1.21-1.19-2.35-0.81-3.9
		c0.68-0.29,1.97-0.29,2.65,0c-0.48-0.74-1.73-0.72-2.45-1.23c-0.06-1.7,1.4-1.87,1.64-3.28c-0.64-0.2-2.05,0.34-2.86,0.62
		c-0.03-0.8-0.7-0.82-0.21-1.64c1.52,0.26,4.02-1.61,4.49,0.41C317.76,72.31,316.31,73.2,316.08,74.51z"/>
	<path fill-rule="evenodd" clip-rule="evenodd" fill="#7C4697" d="M312.4,71.84c-0.47,0.59,0.44,1.36-0.41,1.64
		c-0.79-0.65-0.82-0.8-1.63-1.43c-0.59,1.18,1.57,2.5,0.41,3.69c-1.91-0.1-2.31,0.2-3.88,0.2c-0.28-1.64,1.88-0.84,2.65-1.43
		c-0.1-1.34-0.91-1.96-0.82-3.49C309.91,70.09,311.22,71.52,312.4,71.84z"/>
</g>
<g>
	<path fill-rule="evenodd" clip-rule="evenodd" fill="#7C4697" d="M229.78,89.92c0.93,0.91,2.93,0.75,4.08,1.44
		c-0.04,0.68-0.44,1-0.48,1.68c-1.59,0.09-2.97,0.15-4.32,0c0.77,1.95,1.62,3.82,1.92,6.24h-0.72c-1.65-1.71-3.72-3-5.04-5.04
		c-1.87,0.45-3.52-0.8-4.56-1.92c2.09,0.37,2.88,1.37,4.8,0.96c0.54,1.62,2.12,2.2,3.12,3.36c1.03-1.42-1.41-2.75-0.96-4.56
		c0.8-0.34,2.32-0.34,3.12,0c-0.57-0.87-2.04-0.84-2.88-1.44c-0.08-2,1.64-2.19,1.92-3.84c-0.74-0.24-2.41,0.4-3.36,0.72
		c-0.04-0.94-0.82-0.96-0.24-1.92c1.78,0.3,4.72-1.88,5.28,0.48C231.76,87.34,230.05,88.39,229.78,89.92z"/>
	<path fill-rule="evenodd" clip-rule="evenodd" fill="#7C4697" d="M225.46,86.8c-0.55,0.68,0.52,1.59-0.48,1.92
		c-0.93-0.77-0.96-0.94-1.92-1.68c-0.69,1.38,1.85,2.93,0.48,4.32c-2.24-0.12-2.72,0.23-4.56,0.24c-0.32-1.92,2.21-0.99,3.12-1.68
		c-0.12-1.56-1.07-2.29-0.96-4.08C222.54,84.75,224.08,86.42,225.46,86.8z"/>
</g>
<g>
	<path fill-rule="evenodd" clip-rule="evenodd" fill="#7C4697" d="M363.78,144.92c0.93,0.91,2.93,0.75,4.08,1.44
		c-0.04,0.68-0.44,1-0.48,1.68c-1.59,0.09-2.97,0.15-4.32,0c0.77,1.95,1.62,3.82,1.92,6.24h-0.72c-1.65-1.71-3.72-3-5.04-5.04
		c-1.87,0.45-3.52-0.8-4.56-1.92c2.09,0.37,2.88,1.37,4.8,0.96c0.54,1.62,2.12,2.2,3.12,3.36c1.03-1.42-1.41-2.75-0.96-4.56
		c0.8-0.34,2.32-0.34,3.12,0c-0.57-0.87-2.04-0.84-2.88-1.44c-0.08-2,1.64-2.19,1.92-3.84c-0.74-0.24-2.41,0.4-3.36,0.72
		c-0.04-0.94-0.82-0.96-0.24-1.92c1.78,0.3,4.72-1.88,5.28,0.48C365.76,142.34,364.05,143.39,363.78,144.92z"/>
	<path fill-rule="evenodd" clip-rule="evenodd" fill="#7C4697" d="M359.46,141.8c-0.55,0.68,0.52,1.59-0.48,1.92
		c-0.93-0.77-0.96-0.94-1.92-1.68c-0.69,1.38,1.85,2.93,0.48,4.32c-2.24-0.12-2.72,0.23-4.56,0.24c-0.32-1.92,2.21-0.99,3.12-1.68
		c-0.12-1.56-1.07-2.29-0.96-4.08C356.54,139.75,358.08,141.42,359.46,141.8z"/>
</g>
<path fill-rule="evenodd" clip-rule="evenodd" fill="#7C4697" d="M529.34,90.83c-0.55-0.34-0.98,0.58-1.83,0.21
	c0.03-0.24-0.05-0.36-0.21-0.41c0.17-1.2,1.57-1.16,2.86-1.23c0.83,1.18-0.23,2.53-1.22,3.07c0.24,1.27,1.86,1.14,1.83,2.67
	c-0.89,0.47-2.37-0.02-3.26-0.21c-0.56,1.27,0.07,2.5-0.62,3.49c-1.61-0.23-1.82-1.86-2.65-2.87c-1.65-0.17-3.59-0.78-3.68-3.08
	c0.69-0.44,1.36-0.4,2.05-0.2c0.55-1.15,0.84-2.57,1.63-3.48c1.76,0.16,2.07,1.86,2.25,3.07c-0.56,0.45-0.51,0.23-1.23,0.41
	c-0.2-0.71-0.17-1.4-0.61-2.05c-0.93,0.58-0.4,2.61-1.23,3.28c-0.58-0.02-1.35-0.89-1.63,0c0.99,0.44,1.51,1.35,3.06,1.23
	c0.11,0.62,0.76,1.44,1.23,2.25c0.24-0.17,0.4-2.18-0.21-2.66c0.2-0.01,0.16-0.25,0.21-0.41c0.96-0.08,1.7,0.07,2.45,0.2
	c0.08-1.04-1.48-0.43-1.23-1.64C527.86,91.81,528.82,91.54,529.34,90.83z"/>
<path fill-rule="evenodd" clip-rule="evenodd" fill="#7C4697" d="M583.29,111.78c1.54-0.05,2.11,0.88,3.47,1.02v1.23
	c-0.46,0.15-1.94-0.17-2.25-0.82c-1.01,0.77,0.06,2.36,0.41,3.49c-0.93,0.42-2.37,0.35-3.47,0.61c0.83,0.51,2.71,0.53,3.67,1.43
	c-0.99,1.44,1.74,1.87,1.64,3.69c0.43-1.1-0.14-2.9,0.2-4.09c0.67,0.41,2.13,0.05,2.04,1.22c0.21-0.13,0.21-0.47,0.62-0.41
	c-0.68-0.89-1.67-1.47-2.45-2.25c0.04-1.39,1.35-1.51,2.24-2.05c-0.25-0.7-1.61-0.3-2.24-0.61c-0.12-0.67,0.13-0.96,0.2-1.44
	c1.12,0.43,1.96-0.07,3.27,0c0.69,2.08-1.19,2.94-2.05,4.1c0.69,0.88,3.3,1.42,3.68,3.28c-1.66,0.73-2.45-0.12-4.08-0.41
	c-0.92,0.29,0.31,3.64-1.02,4.1c-0.9-1.86-2.87-3.2-3.07-5.13c-1.94,0.17-2.54-0.99-4.08-1.22v-1.23c1.39,0,2.5-0.07,3.27-0.21
	C582.71,115.28,583.16,113.07,583.29,111.78z"/>
<path fill-rule="evenodd" clip-rule="evenodd" fill="#7C4697" d="M777.61,109.49c0.19-0.28-0.53-1.38-0.61-2.05
	c-1.25,0.78-6.37,0-5.11-2.26c0.63-0.15,0.75,0.21,1.23,0.21c1.15-0.77-0.36-2.63,0.2-3.49c2.09-0.18,2.13,1.7,3.47,2.26
	c0.18,0.66-0.53,0.42-0.61,0.82c-0.67,0.05-0.43-0.8-1.02-0.82c-0.91,0.82,0.54,0.91,0.2,2.25c-0.7,0.09-1.14-0.08-1.63-0.2
	c0.43,1.15,1.45,0.45,2.65,0.82c0.49-1.13,1.47-0.95,2.66-1.03c-0.19-0.63-1.04-0.59-1.23-1.23c0.2-1.09,0.57-2.03,1.23-2.66
	c-1.54-0.3-2.02,0.1-3.06,0c0.1-2.07,2.98-1.83,4.28-1.03c-0.19,2.02-2.13,4.04,0.82,4.31c0.16,0.71-0.3,0.79-0.2,1.43
	c-0.93,0.1-1.68,0.37-2.66,0.41c0.09,1.62,1.38,2.03,1.43,3.69c-1.33,0.03-3.21-0.95-3.47-2.66
	C777,108.32,777.1,109.11,777.61,109.49z"/>
<path fill-rule="evenodd" clip-rule="evenodd" fill="#7C4697" d="M426.96,166.7c-0.51-0.03-0.63,0.32-1.02,0.41
	c-0.18-0.3-0.31-0.65-0.82-0.61c0.33,1.94-1.36,0.72-1.43,2.05c1.43-0.34,1.6,0.58,2.45,0.82c0.29-0.29-0.04-1-0.2-1.44
	c0.98-0.54,1.53,0.42,2.24,0c-0.26-0.62-1.12-0.65-0.81-1.84c0.64,0.3,0.98-1.18,0.2-1.03C427.32,165.86,426.49,165.62,426.96,166.7
	z M427.57,163.22c0.54,0,1.17-0.08,1.43,0.2c0.05,1.47,0.4,2.31-0.41,3.49c0.97,1.1,2.31,0.98,1.02,2.66
	c-0.64-0.62-1.19-0.21-2.24-0.2c0.42,0.39,0.91,0.73,1.02,1.43c-0.19,0.15-0.31,0.37-0.41,0.62c-1.73-1.34-4.31-1.83-6.13-3.08
	c0.3-0.73,0.83-1.22,1.84-1.23c-0.31-1.23-0.83-1.81,0-2.87c1.31-0.15,1.38,0.94,2.25,1.23
	C425.93,163.8,427.49,164.43,427.57,163.22z"/>
<path fill-rule="evenodd" clip-rule="evenodd" fill="#7C4697" d="M499.46,36.45c-0.5-0.03-0.63,0.32-1.02,0.41
	c-0.17-0.3-0.3-0.65-0.81-0.62c0.33,1.95-1.36,0.73-1.43,2.05c1.42-0.33,1.59,0.59,2.45,0.82c0.29-0.29-0.05-0.99-0.21-1.43
	c0.98-0.54,1.54,0.42,2.25,0c-0.27-0.62-1.12-0.65-0.82-1.85c0.65,0.31,0.98-1.17,0.21-1.02C499.83,35.61,499,35.37,499.46,36.45z
	 M500.08,32.97c0.54,0,1.16-0.08,1.43,0.2c0.05,1.47,0.39,2.3-0.41,3.48c0.96,1.11,2.3,0.99,1.02,2.67
	c-0.64-0.63-1.2-0.21-2.25-0.21c0.43,0.4,0.91,0.73,1.02,1.44c-0.19,0.15-0.31,0.37-0.4,0.61c-1.74-1.33-4.31-1.82-6.13-3.07
	c0.3-0.73,0.83-1.22,1.84-1.23c-0.31-1.23-0.83-1.81,0-2.87c1.3-0.15,1.38,0.94,2.24,1.23C498.44,33.55,500,34.18,500.08,32.97z"/>
<path fill-rule="evenodd" clip-rule="evenodd" fill="#7C4697" d="M719.82,33.03c-0.51-0.03-0.63,0.33-1.02,0.41
	c-0.18-0.3-0.3-0.65-0.81-0.61c0.33,1.94-1.37,0.72-1.43,2.05c1.42-0.34,1.59,0.59,2.45,0.82c0.29-0.29-0.05-1-0.21-1.44
	c0.98-0.54,1.54,0.42,2.25,0c-0.27-0.62-1.12-0.65-0.82-1.84c0.65,0.3,0.98-1.18,0.21-1.03C720.19,32.19,719.36,31.96,719.82,33.03z
	 M720.44,29.55c0.54,0,1.16-0.08,1.42,0.2c0.06,1.47,0.4,2.31-0.4,3.49c0.96,1.1,2.3,0.98,1.02,2.66c-0.64-0.62-1.2-0.21-2.25-0.2
	c0.43,0.39,0.91,0.73,1.02,1.43c-0.19,0.15-0.31,0.38-0.41,0.62c-1.73-1.34-4.3-1.83-6.12-3.08c0.3-0.72,0.82-1.22,1.84-1.23
	c-0.31-1.23-0.83-1.81,0-2.87c1.3-0.14,1.38,0.94,2.24,1.23C718.8,30.14,720.36,30.76,720.44,29.55z"/>
<path fill-rule="evenodd" clip-rule="evenodd" fill="#7C4697" d="M173.6,24.49c-0.5-0.03-0.63,0.33-1.02,0.41
	c-0.17-0.3-0.3-0.65-0.81-0.61c0.33,1.94-1.36,0.72-1.43,2.05c1.42-0.34,1.59,0.59,2.45,0.82c0.29-0.29-0.05-1-0.21-1.44
	c0.98-0.54,1.54,0.42,2.25,0c-0.27-0.62-1.12-0.65-0.82-1.84c0.65,0.3,0.98-1.18,0.21-1.03C173.97,23.65,173.14,23.42,173.6,24.49z
	 M174.22,21.01c0.54,0,1.16-0.08,1.43,0.2c0.05,1.47,0.39,2.31-0.41,3.49c0.96,1.1,2.3,0.98,1.02,2.66
	c-0.64-0.62-1.19-0.21-2.25-0.2c0.43,0.39,0.91,0.73,1.02,1.43c-0.19,0.15-0.31,0.38-0.4,0.62c-1.74-1.34-4.31-1.83-6.13-3.08
	c0.3-0.72,0.83-1.22,1.84-1.23c-0.31-1.23-0.83-1.81,0-2.87c1.3-0.14,1.38,0.94,2.24,1.23C172.58,21.6,174.14,22.22,174.22,21.01z"
	/>
<path fill-rule="evenodd" clip-rule="evenodd" fill="#7C4697" d="M284.28,14.05c0.52,0.77,2.68-0.09,2.24,1.64
	c-1.37,0.13-2.16,0.83-3.47,1.02c1.02,0.97,2.94,1.02,4.5,1.44c0.01,0.56-0.34,0.41,0,0.82c0.52,0.1,0.75,0.09,1.43,0.41
	c0.32-1.96-1.08-2.21-1.23-3.69c2.4-0.11,3.72,0.68,5.1-0.62c-2.13-0.31-4.37-0.52-5.3-2.05c0.04-1.08,0.41-1.99,0-3.07
	c-0.68,0.9-0.65,2.49-1.43,3.28c-0.69,0.59-1.56-0.5-1.84-0.21C284.88,13.2,284.01,13.54,284.28,14.05z M288.77,8.31
	c0.79,1.54-0.35,2.74,0.21,4.51c1.58,1.51,5.08,0.33,5.92,2.66c-1.33,0.88-3.17,1.79-5.11,1.44c-0.56,1.73,1.43,2.66,1.43,4.51
	h-0.82c-1.98-2.25-5.68-2.77-8.78-3.9c-0.25-1.83,1.44-1.7,2.66-2.05c-0.67-0.76-1.21-1.66-2.04-2.25c-0.15-0.9,0.34-1.16,0.2-2.05
	c1.09,0.13,1.79,0.66,2.86,0.82C286.52,10.92,286.51,7.68,288.77,8.31z"/>
<path fill-rule="evenodd" clip-rule="evenodd" fill="#7C4697" d="M267.7,155.74c0.34,2.43-1.38,1.39-2.04,1.64
	c0.91,0.66,2.19,0.95,2.04,2.67c-0.62,0.19-1.66-0.03-1.63,0.82c0.97-0.08,1.7,0.06,2.45,0.2c-0.02-0.51-0.39-0.64,0.2-0.82
	c0.28,0.42,1.37,0.62,1.84,0.21c0.11,0.29-0.24,1.06,0.21,1.02c0.31-0.22,1.08,0.62,1.63-0.2c-0.89-0.27-0.82-1.51-1.84-1.64
	c-0.56-1.67,1.92-1.35,1.43-2.26c-0.75,0.21-2.2,0.36-3.06-0.41c0.05-1.13,1.76-2.86,0.41-3.48
	C269.06,154.51,268.69,155.44,267.7,155.74z M270.56,152.05c1.07,1.19,0.49,2.71-0.2,4.1c1.11,0.82,4.67-0.6,4.49,1.85
	c-1.44,0.61-1.95,1.12-3.06,1.23c1.14,0.77,1.51,2.3,2.24,3.48c-0.16,0.18-0.56,0.12-0.61,0.41c-3.24-2.08-5.94-0.56-9.39-2.25
	c0.18-1.06,1.04-1.42,2.24-1.44c-0.76-1.13-2.86-2.21-1.83-3.89c0.76,0.11,1.8,0.94,1.83-0.21c0.48-0.06,0.23,0.59,0.62,0.62
	c0.16-0.11,0.33-0.22,0.61-0.21c-0.35-0.13-0.34-0.62-0.61-0.82c-0.11-0.72,0.72-0.5,0.61-1.23c0.18,0.09,0.36,0.18,0.41,0.41
	C268.59,153.22,269.09,152.15,270.56,152.05z"/>
<path fill-rule="evenodd" clip-rule="evenodd" fill="#7C4697" d="M1385.97,91.43c0.061-0.31,1.08,0.12,1.23,0.4
	c1.31-1.75-1.01-1.74-1.23-2.45c-0.64-0.1-0.46,0.62-1.22,0.41c-0.32,1.75,0.38,2.63,1.22,3.68c-0.51,1.19-2.4,1.01-2.24,2.87
	c0.96,0.48,2.22-0.3,3.47-0.2c-0.14,1.08-0.63,1.45-0.2,2.25c1.32-0.34,3.09-1.22,3.06-2.25c1.77-0.82,3.95-0.58,4.08-2.67
	c-0.92-0.55-1.55-0.15-2.86-0.2c0.26-0.7,0.02-2.73-0.61-3.69c-0.68,0.21-1.15,0.62-2.04,0.62c0.2,0.95-0.6,0.9-0.82,1.43
	c0.18,0.51,0.48,0.89,1.23,0.82c-0.03-0.51-0.04-0.99,0.41-1.02c0.42-0.09,0.54,0.14,0.81,0.2c0.19,1.15-0.59,1.32-0.61,2.25
	c0.19,0.16,0.31,0.38,0.41,0.62c0.68-0.49,1.4,0.33,2.04-0.21c-0.46,1.01-1.55,0.43-2.65,1.03c0.07,0.96-0.37,1.41-1.03,1.64
	c-0.61-0.56,0.21-1.42,0.21-2.05c-1.14-0.63-1.8,0.35-2.86,0.41c0.25-0.93,0.68-0.4,1.43-0.82
	C1387.77,93.36,1386.62,92.45,1385.97,91.43z"/>
<path fill-rule="evenodd" clip-rule="evenodd" fill="#7C4697" d="M1244.38,144.52c0.11-1.06,2.49-1.6,3.47-2.46
	c0.09-1.8-0.95-2.47-1.63-3.49c0.64-0.32,3.46,1.47,3.271-0.82c-1.12-0.04-2.34-0.13-3.271-0.82c-0.51,0.11-0.68,0.55-1.229,0.62
	c0.29,1.62,0.939,2.88,1.84,3.89c-1.4,0.95-2.42,1.52-4.29,2.26c0.01,0.54-0.07,1.17,0.21,1.43c2.01-0.21,3.57-0.33,4.69-1.02
	c0.62,1.24-0.61,2.38-0.4,3.89c1.9-0.2,2.32-1.9,3.47-2.87c1.87-0.37,3.75-0.74,4.9-1.84c-0.55-1.1-1.58-1.71-3.07-1.85
	c0.26-1.81-0.08-3.5-0.4-5.12c-1.39-0.14-2.64,1.72-1.64,2.66c0.66,0.04,0.5-0.73,0.82-1.02c0.1,1.65,0.38,2.76,0,4.1
	c0.85,0.44,1.96,0.62,2.86,1.02c-1.09,0.69-2.29,0.91-3.27,0.21c-0.25,1.59-1.81,1.86-2.25,3.28c-0.69-0.76,0.84-2.49,0.82-3.9
	C1247.15,142.79,1245.75,143.64,1244.38,144.52z"/>
<path fill-rule="evenodd" clip-rule="evenodd" fill="#7C4697" d="M1392.46,45.5c-1.12,0.04-2.93,1.16-4.09,1.84
	c-0.04-0.36,0.21-1.02-0.4-0.82c-0.83,1.01-2.06,3.6-3.27,2.87c0.36-0.45,1.01-0.62,1.02-1.43c-0.28-0.26-0.09-1-0.61-1.03
	c-1.05-0.41-2.11,0.28-2.66-0.41c1.12-0.79,2.83-0.99,3.27-2.46c-0.3-0.86-1.16-1.16-1.43-2.04c1.38-0.12,1.53-1.48,2.45-2.05
	c-0.28,1.04-0.35,2.7,0.2,3.48C1388.32,43.35,1391.56,44.61,1392.46,45.5z M1387.56,38.12c-1.17,0.61-2.19,1.36-2.66,2.67
	c-0.69-0.82-1.65-0.38-1.83-1.44c-1.63,0.54-1.94-0.9-3.27-0.41c-0.43,0.49,0.46,0.9,0.61,1.44c2.51-0.06,2.66,2.24,3.88,3.48
	c-0.66,1.8-3.38,1.52-4.29,3.07c0.4,1.39,2.83,0.52,4.49,1.03c-0.47,0.99-1.15,2.75-0.811,3.89c1.95-0.44,2.44-2.53,3.88-3.48
	c0.73-0.49,2.04-0.4,2.86-0.82c1.29-0.67,2.08-1.79,3.47-2.26c-1-2.21-4.65-1.75-6.33-3.27
	C1387.31,40.26,1388.85,39.22,1387.56,38.12z"/>
<path fill-rule="evenodd" clip-rule="evenodd" fill="#7C4697" d="M994.75,40.17c-0.12-1.15,2.31-1.51,3.06-2.46
	c-0.04-1.46-1.96-1.03-2.45-2.05c1.08-0.61,3.53,2,3.47-0.82c-1.08,0.1-2.97-0.63-5.1-0.61c-0.22,1.48,1,2.47,2.25,3.07
	c-1.06,1.61-3.38,1.94-3.88,4.1c1.81,0.54,3.72-1.3,5.71-0.61c0.32,1.61-0.21,2.91,0.41,4.3c1.75-0.16,2.41-1.41,2.86-2.87
	c1.51-1.49,3.74-2.26,5.31-3.69c-0.41-1.44-2.15-1.1-3.27-1.23c0.02-1.93-1.24-2.57-1.63-4.1c-1.82,0.43-1.94,2.57-2.66,4.1
	c0.37,0.19,0.52,0.58,1.23,0.41c-0.58-1.3,0.54-1.65,0.82-2.66c1.42,0.34,0.77,1.86,0.81,3.28c1.26,0.25,1.95,0.09,3.07,0.2
	c-1.2,1.06-2.92,1.59-4.29,2.46c0.09,2.04-1.01,1.6-1.43,3.08c-0.32-1.28,0.15-3.26-0.41-4.72
	C997.3,39.59,995.65,39.51,994.75,40.17z"/>
<path fill-rule="evenodd" clip-rule="evenodd" fill="#7C4697" d="M1194.75,178.17c-0.12-1.15,2.31-1.51,3.06-2.46
	c-0.04-1.46-1.96-1.03-2.45-2.05c1.08-0.61,3.53,2,3.47-0.82c-1.08,0.1-2.97-0.63-5.1-0.61c-0.22,1.48,1,2.47,2.25,3.07
	c-1.06,1.61-3.38,1.94-3.88,4.1c1.81,0.54,3.72-1.3,5.71-0.61c0.32,1.61-0.21,2.91,0.41,4.3c1.75-0.16,2.41-1.41,2.86-2.87
	c1.51-1.49,3.74-2.26,5.31-3.69c-0.41-1.44-2.15-1.1-3.27-1.23c0.02-1.93-1.24-2.57-1.63-4.1c-1.82,0.43-1.94,2.57-2.66,4.1
	c0.37,0.19,0.52,0.58,1.23,0.41c-0.58-1.3,0.54-1.65,0.82-2.66c1.42,0.34,0.77,1.86,0.81,3.28c1.26,0.25,1.95,0.09,3.07,0.2
	c-1.2,1.06-2.92,1.59-4.29,2.46c0.09,2.04-1.01,1.6-1.43,3.08c-0.32-1.28,0.15-3.26-0.41-4.72
	C1197.3,177.59,1195.65,177.51,1194.75,178.17z"/>
<g>
	<path fill-rule="evenodd" clip-rule="evenodd" fill="#7C4697" d="M1291.62,80.79c-0.04-0.23-0.21-0.12-0.21,0
		c-1.23-0.74-0.98-2.98-1.43-4.51c-1.11,0.45-3.5,0.22-3.88,1.23c-0.33-1.73,3.52-1.29,3.88-3.49c-0.82-0.94-1.72-1.82-2.86-2.46
		c0.59-1.08,1.57,0.43,2.05,0c0.23-0.24,0.23-0.72,0.2-1.23c-1.02-0.4-1.75-0.41-3.27-0.61c-0.69,2.06,1.05,3.25,2.25,4.51
		c-1.42,1.31-3.45,2-4.9,3.28c-0.08,0.49,0.37,0.44,0.2,1.02c2.11-0.38,3.18-0.55,5.11-1.02c0.87,1.31,1.14,3.23,1.84,4.71
		C1291.16,81.97,1291.31,81.3,1291.62,80.79z"/>
	<path fill-rule="evenodd" clip-rule="evenodd" fill="#7C4697" d="M1293.66,68.9h-1.43c-0.43,1-0.84,2.03-2.04,2.25
		c0.15,0.78-0.25,0.98-0.21,1.64c1.43-0.13,1.35-1.79,2.66-2.05c0.82,1.06,0.42,2.4,0.2,3.69c0.64,0.66,2.33,0.27,3.27,0.62
		c-0.58,0.95-1.65,0.93-2.25,1.43c-0.71-0.34,0.23-1.14-1.02-1.02c0.63,2.08-1.22,3.04-1.43,4.92c0.95-0.69,1.37-1.91,1.84-3.08
		c2.66,0.5,2.93-1.98,5.51-2.05v-1.23c-1.84-0.27-3.1-0.41-4.28-0.2C1294.17,72.21,1294.23,70.24,1293.66,68.9z"/>
</g>
<g>
	<path fill-rule="evenodd" clip-rule="evenodd" fill="#7C4697" d="M1088.74,74.51c-0.8,0.77-2.5,0.64-3.48,1.23
		c0.04,0.58,0.38,0.85,0.41,1.43c1.35,0.08,2.53,0.13,3.68,0c-0.66,1.66-1.38,3.27-1.63,5.33h0.61c1.4-1.46,3.17-2.56,4.29-4.3
		c1.59,0.39,2.99-0.68,3.88-1.64c-1.78,0.31-2.45,1.17-4.09,0.82c-0.46,1.38-1.8,1.88-2.65,2.87c-0.88-1.21,1.19-2.35,0.81-3.9
		c-0.68-0.29-1.97-0.29-2.65,0c0.48-0.74,1.73-0.72,2.45-1.23c0.07-1.7-1.4-1.87-1.63-3.28c0.63-0.2,2.05,0.34,2.86,0.62
		c0.03-0.8,0.69-0.82,0.2-1.64c-1.52,0.26-4.02-1.61-4.49,0.41C1087.05,72.31,1088.51,73.2,1088.74,74.51z"/>
	<path fill-rule="evenodd" clip-rule="evenodd" fill="#7C4697" d="M1092.41,71.84c0.47,0.59-0.44,1.36,0.41,1.64
		c0.79-0.65,0.82-0.8,1.63-1.43c0.59,1.18-1.57,2.5-0.4,3.69c1.9-0.1,2.31,0.2,3.87,0.2c0.28-1.64-1.88-0.84-2.65-1.43
		c0.1-1.34,0.91-1.96,0.82-3.49C1094.9,70.09,1093.59,71.52,1092.41,71.84z"/>
</g>
<g>
	<path fill-rule="evenodd" clip-rule="evenodd" fill="#7C4697" d="M1175.03,89.92c-0.93,0.91-2.93,0.75-4.08,1.44
		c0.04,0.68,0.44,1,0.479,1.68c1.59,0.09,2.97,0.15,4.32,0c-0.77,1.95-1.61,3.82-1.92,6.24h0.72c1.65-1.71,3.73-3,5.04-5.04
		c1.88,0.45,3.53-0.8,4.56-1.92c-2.09,0.37-2.88,1.37-4.8,0.96c-0.54,1.62-2.12,2.2-3.12,3.36c-1.03-1.42,1.41-2.75,0.96-4.56
		c-0.8-0.34-2.32-0.34-3.12,0c0.57-0.87,2.04-0.84,2.88-1.44c0.08-2-1.64-2.19-1.92-3.84c0.75-0.24,2.41,0.4,3.36,0.72
		c0.04-0.94,0.82-0.96,0.24-1.92c-1.78,0.3-4.72-1.88-5.28,0.48C1173.05,87.34,1174.76,88.39,1175.03,89.92z"/>
	<path fill-rule="evenodd" clip-rule="evenodd" fill="#7C4697" d="M1179.35,86.8c0.55,0.68-0.52,1.59,0.48,1.92
		c0.93-0.77,0.97-0.94,1.92-1.68c0.69,1.38-1.85,2.93-0.48,4.32c2.24-0.12,2.72,0.23,4.56,0.24c0.32-1.92-2.21-0.99-3.12-1.68
		c0.12-1.56,1.07-2.29,0.96-4.08C1182.28,84.75,1180.73,86.42,1179.35,86.8z"/>
</g>
<g>
	<path fill-rule="evenodd" clip-rule="evenodd" fill="#7C4697" d="M1041.03,144.92c-0.93,0.91-2.93,0.75-4.08,1.44
		c0.04,0.68,0.44,1,0.479,1.68c1.59,0.09,2.97,0.15,4.32,0c-0.77,1.95-1.61,3.82-1.92,6.24h0.72c1.65-1.71,3.73-3,5.04-5.04
		c1.88,0.45,3.53-0.8,4.56-1.92c-2.09,0.37-2.88,1.37-4.8,0.96c-0.54,1.62-2.12,2.2-3.12,3.36c-1.03-1.42,1.41-2.75,0.96-4.56
		c-0.8-0.34-2.32-0.34-3.12,0c0.57-0.87,2.04-0.84,2.88-1.44c0.08-2-1.64-2.19-1.92-3.84c0.75-0.24,2.41,0.4,3.36,0.72
		c0.04-0.94,0.82-0.96,0.24-1.92c-1.78,0.3-4.72-1.88-5.28,0.48C1039.05,142.34,1040.76,143.39,1041.03,144.92z"/>
	<path fill-rule="evenodd" clip-rule="evenodd" fill="#7C4697" d="M1045.35,141.8c0.55,0.68-0.52,1.59,0.48,1.92
		c0.93-0.77,0.97-0.94,1.92-1.68c0.69,1.38-1.85,2.93-0.48,4.32c2.24-0.12,2.72,0.23,4.56,0.24c0.32-1.92-2.21-0.99-3.12-1.68
		c0.12-1.56,1.07-2.29,0.96-4.08C1048.28,139.75,1046.73,141.42,1045.35,141.8z"/>
</g>
<path fill-rule="evenodd" clip-rule="evenodd" fill="#7C4697" d="M977.85,166.7c0.51-0.03,0.63,0.32,1.02,0.41
	c0.18-0.3,0.31-0.65,0.82-0.61c-0.33,1.94,1.36,0.72,1.43,2.05c-1.43-0.34-1.59,0.58-2.45,0.82c-0.29-0.29,0.04-1,0.2-1.44
	c-0.98-0.54-1.53,0.42-2.24,0c0.26-0.62,1.12-0.65,0.81-1.84c-0.64,0.3-0.98-1.18-0.2-1.03
	C977.49,165.86,978.32,165.62,977.85,166.7z M977.24,163.22c-0.54,0-1.17-0.08-1.43,0.2c-0.05,1.47-0.4,2.31,0.41,3.49
	c-0.97,1.1-2.3,0.98-1.02,2.66c0.64-0.62,1.19-0.21,2.24-0.2c-0.42,0.39-0.9,0.73-1.02,1.43c0.19,0.15,0.31,0.37,0.41,0.62
	c1.74-1.34,4.31-1.83,6.13-3.08c-0.3-0.73-0.83-1.22-1.84-1.23c0.31-1.23,0.83-1.81,0-2.87c-1.31-0.15-1.38,0.94-2.25,1.23
	C978.88,163.8,977.32,164.43,977.24,163.22z"/>
<path fill-rule="evenodd" clip-rule="evenodd" fill="#7C4697" d="M1231.21,24.49c0.5-0.03,0.63,0.33,1.02,0.41
	c0.18-0.3,0.3-0.65,0.81-0.61c-0.33,1.94,1.37,0.72,1.43,2.05c-1.42-0.34-1.59,0.59-2.45,0.82c-0.29-0.29,0.05-1,0.21-1.44
	c-0.98-0.54-1.54,0.42-2.25,0c0.27-0.62,1.12-0.65,0.82-1.84c-0.65,0.3-0.98-1.18-0.21-1.03
	C1230.84,23.65,1231.67,23.42,1231.21,24.49z M1230.59,21.01c-0.54,0-1.16-0.08-1.42,0.2c-0.06,1.47-0.4,2.31,0.4,3.49
	c-0.96,1.1-2.3,0.98-1.02,2.66c0.64-0.62,1.2-0.21,2.25-0.2c-0.43,0.39-0.91,0.73-1.02,1.43c0.189,0.15,0.31,0.38,0.41,0.62
	c1.73-1.34,4.3-1.83,6.12-3.08c-0.3-0.72-0.82-1.22-1.84-1.23c0.311-1.23,0.83-1.81,0-2.87c-1.3-0.14-1.38,0.94-2.24,1.23
	C1232.23,21.6,1230.67,22.22,1230.59,21.01z"/>
<path fill-rule="evenodd" clip-rule="evenodd" fill="#7C4697" d="M1120.53,14.05c-0.521,0.77-2.67-0.09-2.24,1.64
	c1.37,0.13,2.16,0.83,3.47,1.02c-1.02,0.97-2.94,1.02-4.49,1.44c-0.02,0.56,0.34,0.41,0,0.82c-0.53,0.1-0.76,0.09-1.43,0.41
	c-0.32-1.96,1.07-2.21,1.22-3.69c-2.4-0.11-3.71,0.68-5.1-0.62c2.13-0.31,4.37-0.52,5.31-2.05c-0.05-1.08-0.42-1.99,0-3.07
	c0.67,0.9,0.65,2.49,1.43,3.28c0.68,0.59,1.55-0.5,1.83-0.21C1119.93,13.2,1120.8,13.54,1120.53,14.05z M1116.04,8.31
	c-0.78,1.54,0.36,2.74-0.2,4.51c-1.59,1.51-5.08,0.33-5.92,2.66c1.32,0.88,3.16,1.79,5.1,1.44c0.56,1.73-1.43,2.66-1.43,4.51h0.82
	c1.98-2.25,5.68-2.77,8.78-3.9c0.26-1.83-1.44-1.7-2.66-2.05c0.67-0.76,1.21-1.66,2.05-2.25c0.14-0.9-0.35-1.16-0.21-2.05
	c-1.09,0.13-1.79,0.66-2.86,0.82C1118.29,10.92,1118.3,7.68,1116.04,8.31z"/>
<path fill-rule="evenodd" clip-rule="evenodd" fill="#7C4697" d="M1137.11,155.74c-0.34,2.43,1.39,1.39,2.04,1.64
	c-0.91,0.66-2.18,0.95-2.04,2.67c0.62,0.19,1.66-0.03,1.63,0.82c-0.96-0.08-1.7,0.06-2.45,0.2c0.03-0.51,0.39-0.64-0.2-0.82
	c-0.27,0.42-1.37,0.62-1.84,0.21c-0.11,0.29,0.24,1.06-0.21,1.02c-0.31-0.22-1.08,0.62-1.63-0.2c0.89-0.27,0.82-1.51,1.84-1.64
	c0.56-1.67-1.92-1.35-1.43-2.26c0.76,0.21,2.2,0.36,3.06-0.41c-0.05-1.13-1.76-2.86-0.41-3.48
	C1135.75,154.51,1136.12,155.44,1137.11,155.74z M1134.25,152.05c-1.07,1.19-0.49,2.71,0.2,4.1c-1.11,0.82-4.67-0.6-4.49,1.85
	c1.45,0.61,1.95,1.12,3.06,1.23c-1.13,0.77-1.51,2.3-2.24,3.48c0.16,0.18,0.56,0.12,0.61,0.41c3.24-2.08,5.95-0.56,9.39-2.25
	c-0.17-1.06-1.04-1.42-2.24-1.44c0.77-1.13,2.87-2.21,1.84-3.89c-0.77,0.11-1.81,0.94-1.84-0.21c-0.47-0.06-0.23,0.59-0.62,0.62
	c-0.16-0.11-0.33-0.22-0.61-0.21c0.35-0.13,0.34-0.62,0.61-0.82c0.11-0.72-0.72-0.5-0.61-1.23c-0.18,0.09-0.36,0.18-0.41,0.41
	C1136.22,153.22,1135.72,152.15,1134.25,152.05z"/>
</svg>
