<svg version="1.1" id="圖層_1" xmlns="http://www.w3.org/2000/svg" xmlns:xlink="http://www.w3.org/1999/xlink" x="0px" y="0px"
	 width="45.452px" height="68.408px" viewBox="0 0 45.452 68.408" enable-background="new 0 0 45.452 68.408" xml:space="preserve">
<path fill="#652F82" d="M19.986,47.979c-0.018-0.162-1.794-16.294-4.113-25.574c-2.354-9.421-3.56-22.185-3.572-22.313l1.991-0.186
	c0.012,0.126,1.204,12.742,3.521,22.013c2.353,9.413,4.143,25.68,4.161,25.843L19.986,47.979z"/>
<path fill="#652F82" d="M21.712,42.643l-1.465-1.361l22.59-24.305c-1.908-1.375-6.746-4.558-12.015-5.655
	c-7.044-1.467-17.688-4.418-17.794-4.448l0.535-1.927C13.67,4.976,24.252,7.91,31.231,9.363c7.245,1.51,13.463,6.492,13.724,6.704
	l0.833,0.674L21.712,42.643z"/>
<g>
	
		<rect x="28.81" y="9.248" transform="matrix(0.6657 0.7462 -0.7462 0.6657 25.698 -15.1977)" fill="#652F82" width="2" height="23.666"/>
</g>
<g>
	
		<rect x="25.004" y="8.358" transform="matrix(0.7304 0.683 -0.683 0.7304 17.7423 -13.5253)" fill="#652F82" width="2" height="14.707"/>
</g>
<path fill="#652F82" d="M24.809,68.408c-11.904,0-19.848-9.514-23.125-14.366c-0.37,0.079-0.583,0.124-0.594,0.126l-0.323-1.549
	C0.315,51.883,0.058,51.401,0,51.291l1.77-0.931c0.016,0.029,0.305,0.568,0.854,1.433c2.476-0.543,6.86-1.537,10.405-2.522
	c5.27-1.463,17.967-3.307,31.366-2.397l1.058,0.072l-0.134,1.052c-0.024,0.194-2.664,19.454-19.259,20.376
	C25.638,68.396,25.221,68.408,24.809,68.408z M3.828,53.575c3.469,4.849,11.188,13.419,22.12,12.802
	C38.752,65.665,42.36,52.639,43.146,48.8c-12.65-0.718-24.782,1.064-29.583,2.398C10.324,52.098,6.399,53.004,3.828,53.575z"/>
</svg>
