<svg version="1.1" id="圖層_1" xmlns="http://www.w3.org/2000/svg" xmlns:xlink="http://www.w3.org/1999/xlink" x="0px" y="0px"
	 width="1178.333px" height="519px" viewBox="0 0 1178.333 519" enable-background="new 0 0 1178.333 519" xml:space="preserve">
<path opacity="0.2" fill-rule="evenodd" clip-rule="evenodd" fill="none" stroke="#B19ACA" stroke-width="2" stroke-linecap="round" stroke-linejoin="round" stroke-miterlimit="10" d="
	M753.833,120c0,0,0.31,9.75,10,16s33.48,15.67,41-6c0,0,24.15,3.67,36-9s-3.63-25.26-17-25c0,0,2.48-16.4-16-19s-27,19-27,19
	s-16.85-3.08-20,5c0,0-16.62-1.71-8,16"/>
<path opacity="0.2" fill-rule="evenodd" clip-rule="evenodd" fill="none" stroke="#B19ACA" stroke-width="2" stroke-linecap="round" stroke-linejoin="round" stroke-miterlimit="10" d="
	M246.833,169c0,0,0.31,9.75,10,16s33.48,15.67,41-6c0,0,24.15,3.67,36-9s-3.63-25.26-17-25c0,0,2.48-16.4-16-19s-27,19-27,19
	s-16.85-3.08-20,5c0,0-16.62-1.71-8,16"/>
<g opacity="0.2">
	<path fill-rule="evenodd" clip-rule="evenodd" fill="#B19ACA" d="M79.303,85l-1.63,0.06c-2.98,4.93-6.54,9.34-10.95,12.98
		c-0.69,1.53-0.74,3.64-3.13,3.65c0.62-1.31-0.14-1.5-0.11-3.14c2.86-0.22,1.62-4.12,4.75-4.1c2.16-4.9,7.5-6.95,8.51-12.89
		c0.58,0.02,1.15,0.02,1.2-0.43C79.463,81.32,79.263,83.28,79.303,85z"/>
	<path fill-rule="evenodd" clip-rule="evenodd" fill="#B19ACA" d="M127.233,106.39c-2.07,9.17-4.58,17.95-9.76,24.33
		c-0.31,1.67,2.31,0.31,2.1,1.88l-2.03,0.08c1.13,3.57-0.11,9.58,4,10.07c-1.77,2.44-4.13-0.98-4.54-1.8
		c-2.91-5.87-1.66-17.17-3.64-23.44c0.59-1.48,2.36-1.3,4.04-0.93c-2.27,2.11-0.64,6.93-0.44,11.01c1.8-2.77,5.79-9.81,6.82-14.79
		c0.51-2.45,0.08-4.72-0.64-7.04C124.473,103.73,126.183,104.99,127.233,106.39z"/>
	<path fill-rule="evenodd" clip-rule="evenodd" fill="#B19ACA" d="M87.553,112.58c1.73,2.09,2.73,4.85,2.75,8.93
		c0.04,14.56-8.39,30.68-15.78,38.67c0.2,2.59-1.53,3.44-3.52,4.06c-1.5-0.91,1.76-3.26,1.44-5.55c8.9-9.86,18.01-25.22,14.42-42.55
		c-0.42-1.52-1.45,1.35-1.63,0.06C85.303,114.36,85.393,112.54,87.553,112.58z"/>
	<path fill-rule="evenodd" clip-rule="evenodd" fill="#B19ACA" d="M18.383,122.99l2.44-0.09c2.54,5.21,6.54,8.91,8.62,14.6
		c-6.16-1.59-6.01-9.73-10.99-12.55L18.383,122.99z"/>
	<path fill-rule="evenodd" clip-rule="evenodd" fill="#B19ACA" d="M127.813,159.41c0.94-0.16,1.56,0.01,2.04,0.32
		c-0.49,3.23-0.79,6.64-1.71,9.49C127.013,167.24,127.703,162.07,127.813,159.41z"/>
	<path fill-rule="evenodd" clip-rule="evenodd" fill="#B19ACA" d="M147.393,172.45c0.73,7.15-0.69,19.13-4.42,25.7
		c4.04-1.19,6.75-3.57,10.41-5.1c0.66-2.96,1.8-5.48,5.1-6.07c2.32,3.29-2.92,4.5-2.99,7.96c-8.24,3.51-16.18,7.28-23.23,11.85
		c-1.87,0.31-1.1-2.11-1.34-3.49c3.67-0.39,5.82-2.13,8.86-3.07c0.09-2.84,1.55-4.44,3.05-6.01c1.61-7.47,3.74-14.01,2.12-21.69
		C145.653,171.78,145.993,172.82,147.393,172.45z"/>
	<path fill-rule="evenodd" clip-rule="evenodd" fill="#B19ACA" d="M127.053,173.19l1.22-0.05c-1.05,1.59,1.02,5.99-1.41,6.34
		C127.293,177.72,127.163,175.44,127.053,173.19z"/>
	<path fill-rule="evenodd" clip-rule="evenodd" fill="#B19ACA" d="M126.893,180.26c0.72-0.13,0.84,0.35,0.42,0.38
		c-1.96,36.15,2.22,73.76,4.52,109.45c1.89-0.84-0.27-5.32,1.83-5.96c2.03,2.07,0.98,5.72,0.68,7.84
		c-1.17,8.15-3.56,20.47-2.63,30.73c0.48,5.29,2.79,11.29,3.07,18.36c0.08,2.1-0.56,4.17-0.6,6.31c-0.3,15.86,1.62,33,2.49,49.41
		c0.76,14.46-0.93,31,1.08,43.96c0.39,2.55,2.69,4.88-0.59,6.7c-1.54-2.21-1.84-5.64-1.9-8.18c-0.31-11.33,0.07-28.18-0.15-40.46
		c-0.3-16.33-3.29-34.18-2.57-51.77c0.11-2.81,0.77-5.45,0.53-8.27c-0.45-5.29-2.39-10.31-2.56-15.62
		c-0.33-10.03,0.35-19.68,1.85-29.53c-0.21-1.11-2.36,1.09-2.86-0.29c-1.64-18.54-1.21-36.3-2.67-54.52
		c-0.75-9.44-1.72-18.3-1.83-30.18c-0.04-3.86-0.97-7.66-0.78-10.97C124.543,191.81,127.043,186.39,126.893,180.26z"/>
	<path fill-rule="evenodd" clip-rule="evenodd" fill="#B19ACA" d="M65.403,202.92c1.63-0.16,1.02,3.17-0.74,2.38
		C64.773,204.38,65.103,203.67,65.403,202.92z"/>
	<path fill-rule="evenodd" clip-rule="evenodd" fill="#B19ACA" d="M17.153,230.57l1.22-0.05c-1.43,8.47-2,17.71-4.84,24.9
		c-0.11,1.61,0.78,4.06-1.51,3.58c-1.94-1.64-0.08-4.7,0.58-7.08c1.46-5.35,3.03-12.6,3.39-19.74
		C17.063,232.26,17.303,231.59,17.153,230.57z"/>
	<path fill-rule="evenodd" clip-rule="evenodd" fill="#B19ACA" d="M192.573,230.95c-2.84,4.62-5.32,10.67-3.49,17.42
		c1.41-2.8,2.72-5.68,3.78-8.79c0.59-0.23,2.12,0.39,2.03-0.46c2.93,4.37-4.44,7.1-5.32,11.59c-0.04,4.01,3.98,9.72,1.63,12.13
		c-3.58-9.43-5.11-20.62-3.08-30.95C189.493,231.48,190.473,230.71,192.573,230.95z"/>
	<path fill-rule="evenodd" clip-rule="evenodd" fill="#B19ACA" d="M173.743,240.66c2.48,4.71-2.45,10.48-3.98,14.69
		c-0.07,0.17,0.61,0.95,0.46,1.55c-0.71,2.85-2.99,4.97-3.41,7.59c0.62,3.42,3.08,4.94,5.51,6.49c-1.9,0.38-5.71-0.52-5.81-3.33
		c-1.62,2.47-3.89,4.36-5.05,7.25c-1.44-2.3,3.29-6.05,2.54-9.13c-1.67,0.78-1.98,2.78-2.7,4.42c-5.72,3.61-8.09,10.23-13.37,14.23
		c-2.39,4.95-5.34,9.4-11.44,11.01c-0.2-0.74-0.91-0.96-0.88-1.94c0.63-0.69,1.67-1.03,3.23-0.9c8.6-7.36,15-19.62,23.48-28.33
		c-0.08-1.01-1.54-0.58-2.08-1.11c1.06-1.33,0.89-3.77,3.54-3.66c1.27-0.23,1.19,0.95,1.69,1.51c2.04-6.18,6.99-11.69,5.44-19.84
		C172.203,241.3,172.323,240.4,173.743,240.66z"/>
	<path fill-rule="evenodd" clip-rule="evenodd" fill="#B19ACA" d="M215.793,242.3c0.06,0.62-0.14,1.51,0.46,1.56
		c-2.19,4.13-0.5,10.25-1.11,15.37c-0.43,3.71-2.78,5.44-3.81,8c-1.93,0.16-2.19,1.84-3.16,2.87c-3.65,0.81-7.2,3.63-10.48,3.51
		c-0.09-2.1,3.41-0.98,3.15-3.25c11.72-0.36,12.78-15.78,13.03-24.45c-0.12-0.69-0.73-0.87-1.65-0.73
		C213.033,243.6,213.113,241.18,215.793,242.3z"/>
	<path fill-rule="evenodd" clip-rule="evenodd" fill="#B19ACA" d="M74.763,251.27c0.68,1.37-1.37,0.29-1.18,1.22
		c4.04,14.5,12.39,24.53,20.7,34.61c0.76-8.21,2.28-19.37-0.1-27.1c1.34-1.27,2.15,0.47,3.67,0.27c0.15,1.4-1.17,1.48-1.13,2.78
		c2.52,9.38-1.81,17.14,0.87,25.5c5.13,2.81,8.97,6.96,17.31,6.46c0.23-6.66,0.21-14.15,3.41-19.37c-0.88,4.83-2.32,12.9-2.61,18.95
		c0.04,1.17,2.99-0.66,2.48,1.09l-2.44,0.09l0.21,6.27c-1.1-1.61-0.67-3.66-0.59-5.48c-1.29-0.38-1.16-0.21-1.6,0.85
		c-6.93-0.42-10.78-4.02-16.47-5.71c-11.39-9.72-21.05-22.99-25.32-38.76c-0.31-1.57-1.81-1.92-1.76-3.86
		C72.213,246.55,74.153,249.04,74.763,251.27z"/>
	<path fill-rule="evenodd" clip-rule="evenodd" fill="#B19ACA" d="M183.253,244.65c-0.46,3.45,2.34,3.53,3.05,5.78
		c-0.51,0.56-1.76,0.45-2.84,0.5c-0.74-1.81-1.49-3.61-3.4-4.2l-0.07-1.97C180.773,243.95,182.313,244.43,183.253,244.65z"/>
	<path fill-rule="evenodd" clip-rule="evenodd" fill="#B19ACA" d="M164.623,248.06c-0.07,1.86-1.29,1.48-1.41,0.88
		C163.143,248.59,163.453,248.15,164.623,248.06z"/>
	<path fill-rule="evenodd" clip-rule="evenodd" fill="#B19ACA" d="M202.933,247.87c1.76,0.21,1.95,2.05,3.35,2.64
		c-0.07,0.69-0.67,0.92-1.6,0.84c1.62,2.53,2.87,5.43,4.75,7.69c0.65,0.51,2.47,0.71,1.28,1.92
		C206.073,259.2,202.313,252.39,202.933,247.87z"/>
	<path fill-rule="evenodd" clip-rule="evenodd" fill="#B19ACA" d="M174.593,253.6c-1.76,4.15-0.64,9.25-0.32,14.56
		c4.2-1.69,2.88-9.93,2-13.05c0.46-0.46,1.42-0.49,2.43-0.48c1.79,4.27,0.38,11.25-1.97,14.22c-0.93,0.16-1.56,0-2.04-0.32
		c1.68,4.63,3.53,9.09,6.92,11.94c4.66-3.99,3.02-13.47,3.8-20.18c3.95,2.25,0.23,8.83,1.27,13.32c-2.13,6.08-3.89,12.49-4.63,19.82
		c-0.71,0.37-1,1.13-2.41,0.87c-0.43,4.19-3.94,5.6-5.83,8.46c-0.25-3.81,3.95-6.82,4.51-11.17c1.5-0.46,1.34,0.78,2.08,1.11
		c0.39-4.14,1.17-7.18,0.45-10.63c-6.71-6.44-10.77-18.06-8.73-29.17C173.393,252.67,173.733,253.41,174.593,253.6z"/>
	<path fill-rule="evenodd" clip-rule="evenodd" fill="#B19ACA" d="M221.843,252.31c1.5,0.23,0.8,2.97,0.54,3.91
		c-3.13,1.12-3.45,4.77-5.9,6.51c-2.16-3.46,2.89-6.72,3.75-9.97C220.873,252.71,221.793,252.9,221.843,252.31z"/>
	<path fill-rule="evenodd" clip-rule="evenodd" fill="#B19ACA" d="M156.773,256.99c0.23,1.22-0.82,1.28-1.99,1.25
		C155.133,257.54,155.493,256.85,156.773,256.99z"/>
	<path fill-rule="evenodd" clip-rule="evenodd" fill="#B19ACA" d="M171.123,283.6c-2.03,12.14-0.99,22.94,3.94,32.08
		c-4.15-2.8-6.43-9.55-6.62-15.09c-2.43-2.45-6.69-4.9-7.99-7.19c0.03-0.86,1-0.88,2.01-0.85c1.98,1.33,3.03,3.63,5.06,4.93
		c0.93-5.43,1-9.41,1.15-14.19C169.673,283.2,170.633,283.16,171.123,283.6z"/>
	<path fill-rule="evenodd" clip-rule="evenodd" fill="#B19ACA" d="M139.813,297.28l-2.44,0.08
		C137.433,296.77,139.983,295.69,139.813,297.28z"/>
	<path fill-rule="evenodd" clip-rule="evenodd" fill="#B19ACA" d="M232.803,298.72c-0.19,1.28,0.34,1.82,0.5,2.74
		c-2.81,1.28-2.26,5.58-3.81,7.99c4.89-1.03,9.5-4.74,9.11-8.18c1.18-0.58,2.5-0.58,3.27,0.28c-2.32,5.02-6.78,8.12-12.72,9.88
		c-3.26,5.07-4.46,11.98-6.74,17.93c-1.17-5.08,0.02-9.25,1.19-13.02c5.24-3.27,1.67-7.43-0.4-11.78c3.25-0.64,3.09,2.23,4.61,3.38
		c1.1-2.57,2.33-5.01,2.15-8.73C231.253,299.36,231.373,298.45,232.803,298.72z"/>
	<path fill-rule="evenodd" clip-rule="evenodd" fill="#B19ACA" d="M115.993,303.22c0.34-0.08,0.39,0.14,0.42,0.38
		c3.99,27.07-1.73,51.69-2.64,78.25c-0.21,6.28,0.4,12.72,0.25,19.24c-0.1,3.87-0.99,7.92-0.81,12.2
		c0.34,8.27,0.54,17.75,1.28,25.88c0.39,4.23,2.76,9.08,0.01,12.18c-2.43-0.75-1.39-4-1.41-5.45c-0.06-5.24-0.53-12.43-0.65-19.23
		c-0.28-15.81-1.36-32.73-0.07-50.27c1.6-21.81,4.37-44.55,3.91-64.55C116.223,308.95,115.273,305.81,115.993,303.22z"/>
	<path fill-rule="evenodd" clip-rule="evenodd" fill="#B19ACA" d="M219.793,299.96c-3.22,4.84-4.41,19.26,1.96,21.96
		c0,1.51-1.53,1.66-3.2,1.68C216.463,317.63,211.543,301.03,219.793,299.96z"/>
	<path fill-rule="evenodd" clip-rule="evenodd" fill="#B19ACA" d="M164.483,316.05l2.03-0.07c3.6,5.26,0.3,13.45-0.99,18.9
		c-2.45-4.08-0.08-10.15,0.76-13.78c-0.38-1.14-1.01,0.55-2.03,0.07C164.353,319.49,163.713,317.14,164.483,316.05z"/>
	<path fill-rule="evenodd" clip-rule="evenodd" fill="#B19ACA" d="M211.863,318.72c-0.02,1.89-1,2.92-0.65,5.14
		C209.403,323.29,208.283,318.24,211.863,318.72z"/>
	<path fill-rule="evenodd" clip-rule="evenodd" fill="#B19ACA" d="M247.143,324.57c-2.13,9.12-9.68,15.41-20.28,15.65
		c-0.19-2,2.26-1.32,3.21-1.69c2.35-0.91,4.62-2.68,7.24-3c2.53-2.16,4.85-4.53,6.69-7.31c0.14-1.09-1.53-0.32-1.67-1.13
		C243.453,325.49,245.553,323.63,247.143,324.57z"/>
	<path fill-rule="evenodd" clip-rule="evenodd" fill="#B19ACA" d="M210.323,333.72c0.63,1.69,0.21,2.41-0.69,3.56
		c-0.57,3.77,0.86,10.34-3.27,11.91c-0.8-4.9,1.05-10,0.69-15.75C208.233,333.44,209.713,333.13,210.323,333.72z"/>
	<path fill-rule="evenodd" clip-rule="evenodd" fill="#B19ACA" d="M216.213,350.81c1.11-0.03,1.03,1.82,0.48,2.34
		C215.793,353.14,216.463,351.49,216.213,350.81z"/>
	<path fill-rule="evenodd" clip-rule="evenodd" fill="#B19ACA" d="M179.943,363.47l1.22-0.05c-2.39,15.43-3.23,30.84-3.71,46.9
		c1.39,2.12,1.8,7.26-1.79,7.14c-1.85-1.34-0.22-3.16-0.16-4.71c0.44-10.87-0.16-23.39,1.69-34.25
		C178.123,373.05,179.923,368.03,179.943,363.47z"/>
	<path fill-rule="evenodd" clip-rule="evenodd" fill="#B19ACA" d="M94.113,174c0.23,1.22-0.98,1.14-1.57,1.62
		c3.05,4.02,8.81,5.22,11.32,9.8c-7.38-1.88-9.45-6.53-14.57-9.68l-0.07-1.96C90.553,172.81,92.873,173.6,94.113,174z"/>
	<path fill-rule="evenodd" clip-rule="evenodd" fill="#B19ACA" d="M72.173,138.67c1.15,1.32-1.28,1.95-1.94,2.82
		c-2.2,13.66-8.07,26.99-7.16,40.71c0.65,9.85,0.71,18.69,0.95,28.23c5.92-4.68,12.71-13.5,14.72-21.74
		c-0.17-1.29-1.74,1.1-2.04-0.32c0.79-1.43,1.6-2.87,3.97-2.89c1.2,3.68-0.61,7.92-2.08,10.68c-3.71,6.97-9.88,12.62-15.25,18.22
		c-3.95,13.42-3.76,30.57-7.44,44.24c2.35-0.56,4.26-4.07,6.28-6.51c2.02-2.42,3.84-5.21,6.28-6.9c1.16-3.13,3.07-5.6,4.17-8.78
		c-0.23-1.37-1.34-1.19-1.28-1.92c0.97-1.28,0.93-3.47,3.55-3.27c1.01,9.27-5.55,15.45-10.65,21.98c-2.64,3.38-5.57,6.97-9.06,8.56
		c-3.11,18.24-2.59,37.6-2.12,57.39c0.37,15.65-1.3,31.61,0.77,46.69c1.66,12.07,0.48,24.79,2.06,36.82
		c1.12,8.55,3.5,16.94,4.1,24.99c0.41,5.45-0.23,11.5,0.98,16.84c0.55,2.44,2.76,4.2,1.04,6.64c-2.47-0.9-3.13-4.8-3.49-6.95
		c-1.94-11.71-1.87-25.58-3.29-37.18c-1.5-2.48-2.33-8.75-2.47-12.86c-1.49-43.51-5.17-90.01,0.45-130.74
		c-0.11-1.68-1.71,0.73-1.67-1.11c-0.33-1.44,0.59-1.76,1.98-1.64c4.25-14.04,3.54-30.83,7.85-44.26c-1.78-0.83-2.42,2.63-5.21,2.16
		c-0.67-3.34,3.68-4.22,5.89-6.11c-0.7-6.71,0.62-13.43,0.51-20.82c-0.07-5.16-1.54-10.06-1.31-14.87
		c0.29-6.22,1.75-12.53,3.04-18.18c1.51-6.6,5.01-13.58,4.22-19.39c0.07-0.32,0.4-0.41,0.38-0.8
		C70.043,137.44,71.743,138.73,72.173,138.67z"/>
	<path fill-rule="evenodd" clip-rule="evenodd" fill="#B19ACA" d="M193.473,281.63c-1.39-6.58,1.71-13.6-0.2-18.08
		c1.6-0.44,3.51-0.9,4.1,0.64c-2.31,5.04-1.57,12.8-3.88,17.83c0.58,2.81-1.73,6.23-2.1,10.29c-0.89,9.68-0.57,21.7-2.29,28.78
		c3.41,1.45,5.48-1.35,8.51-1.48c0.77-6.87,2.31-14.46,0.87-22.44c1.32,0.04,1.7-0.75,3.25-0.5c-0.95,4.49-0.53,13.47-1.38,19.31
		c2.83-3.66,4.01-8.82,7.75-11.67c0.6-3.4,2.55-5.59,2.96-9.15c-0.28-1.51-1.57,0.36-2.47-0.7c3.26-8.14,6.63,2.77,3.07,6.58
		c2.38,0.36,2.69-1.15,4.45-1.34c0.6,2.77-2.9,3.16-5.21,2.93c-2.15,6.06-6.75,9.92-8.83,16.04c-3.19,2.97-7.78,4.68-12.85,5.95
		c-1.56,12.78-0.64,26.89-1.52,39.36c-0.66,9.52,0.43,18.87,0.13,27.91c-0.14,4.33-2.06,8.68-2,13.04c0.05,3.48,0.17,7.28-0.02,11.4
		c-0.16,3.51,1.67,7.81-0.88,10.24c-2.45-2.08-1.5-7.93-2.39-10.53c0.58,0.02,1.15,0.03,1.21-0.43c0.01-0.62-0.25-1.49,0.35-1.59
		c-0.04-12.61,1.46-24.86,2.07-35.05c0.51-8.37-0.36-22.44,0.07-34.2c0.25-6.93,1.67-14.09,1.72-21.28
		c0.01-1.28-0.54-2.62-0.54-3.91c0.01-2.39,1.2-4.73,1.39-7.13c0.7-8.8-0.58-18.61,2.35-26.81c-0.81-2.08-1.44-1.87-0.55-4.31
		C191.173,280.75,192.593,281.35,193.473,281.63z"/>
	<path fill-rule="evenodd" clip-rule="evenodd" fill="#B19ACA" d="M63.153,76.57c-5.34,19,3.9,38.67,10.41,55.38
		c1.56,2.04,4.42,2.73,5.47,5.29c-3.71,0.05-5.05-2.34-7.44-3.65c-5.68-17-16.02-36.71-10.47-56.94c0.47,0.05,0.72-0.11,0.8-0.42
		C62.573,76.09,62.633,76.57,63.153,76.57z"/>
	<path fill-rule="evenodd" clip-rule="evenodd" fill="#B19ACA" d="M38.973,106.92c-0.12,1.29-2.23,0.79-2.79,1.68
		c-0.96,0.53-0.48,2.36-1.95,2.42c-0.87,12.63-3.88,30.74-0.2,42.01c2.18,6.68,7.25,10.55,10.31,16.5c0.98-0.29,2.06-0.87,2.06,0.71
		c-1.79-0.15-4.29-0.32-5.33-1.37c-2.67-2.7-9.02-12.28-9.96-18.09c-2.02-12.4,0.16-25.94-0.06-37.68c1.4-2.41,2.01-5.54,4.23-7.22
		c0.08-0.43,0.79-0.29,0.78-0.81C37.333,105.37,38.903,105.37,38.973,106.92z"/>
	<path fill-rule="evenodd" clip-rule="evenodd" fill="#B19ACA" d="M140.783,133.79c-0.31,0.28-1.09,0.65-1.22,0.04
		c3.63-0.13,8.84-7.55,13.31-4.03c-5.95,2.52-11.52,5.38-18.08,7.35c-1.5,1.15-1.65,5.25-1.4,6.73c-0.16,1.24,1.87,0.23,2.07,1.1
		c-0.11,1.86-2.12-0.21-3.65,0.53c-0.06-1.29-0.75-1.93-0.52-3.52c-1.73-0.54,0,2.04-1.15,2.01c-2.56-1.67,2.09-3.1,1.86-5.17
		c-0.14-0.82-1.79-0.05-2.06-0.71c-0.27-2.15,1.73-2.25,3.16-2.87c0.03-7.2,3.96-10.9,7.22-15.2c0.66,1.51,1.43,2.78,2.21,5.03
		c-5.55-0.85-5.47,6.44-7.82,9.71c1.46,1.13,2.14-0.89,4.05-0.54c0.26,0.87-0.75,0.59-0.77,1.21
		C139.483,135.4,140.143,134.6,140.783,133.79z"/>
	<path fill-rule="evenodd" clip-rule="evenodd" fill="#B19ACA" d="M117.983,241.87c-1.51-14.79,1.51-30.36-3.91-43.46
		c-2.34-0.7-3.41-2.7-5.42-3.73c-1.69-5.13-4.82-11.71-6.33-18.63c-1.12-5.12-0.93-11.9-1.79-16.82c-0.37-2.11-2.01-10.55,3.34-9.55
		c-4.12,11.74,1.94,33.13,6.35,43.37c1.24,0.75,2.07,1.91,3.35,2.63c1.63-7.44,2.37-13.76,5-20.61c-0.34-3.79,2.46-6.49,2.88-11.11
		c0.26-2.87-0.68-6.6-0.34-9.81c0.24-2.17,0.66-7.38,3.91-4.85c0.76,1.95-1.24,1.42-1.97,2.03c-0.98,3.38,1.19,6.3,1.14,9.39
		c-0.1,5.54-4.15,11.27-5.53,17.1c-1.44,6.06-1.89,11.99-2.63,18.55c0.4,1.62,3.15,0.81,3.74,2.22c-0.7,0.76-1.04-0.28-2.44,0.09
		c2.06,13.66,1.61,26.95,1.87,43.15c0.29,0.92,2.5-0.15,2.87,0.68c-0.02,0.87-1.72,0.23-2.42,0.48c-1.36,7.16-0.91,15.38,0.01,24.35
		c0.22,2.16,2.22,5.26-0.6,6.31c-2.56-10.6-2-22.11-1.45-30.59c-7.7,1.16-14.33-2.18-18.51-6.01c-7.08-13.39-12-31.16-15.43-46.97
		c2.68-0.06,3.86,1.42,4.59,3.37l-2.03,0.08c3.66,13.53,6.52,27.9,13.1,38.4c0.76-4.36,3.56-12.26,0.65-16.91
		c0.63-1.31,2.78-0.78,3.65-0.13c-0.84,6.59-0.66,14.11-2.58,19.73C103.983,240.51,109.323,240.88,117.983,241.87z"/>
	<path fill-rule="evenodd" clip-rule="evenodd" fill="#B19ACA" d="M170.763,188.89c0.54,0.12,0.67,0.66,1.25,0.74
		c-1.74,10.48-4.14,20.38-8.82,28.22c2.66,0.02,5.56-0.45,7.68-1.85c2-1.32,2.31-4.77,4.75-4.1c0.48,6.17-8.77,8.84-14.77,9.18
		c-1.84,4.11-5.34,7.42-7.76,11.28c-0.7,1.12-0.76,2.86-1.5,3.99c-0.73,1.12-2.34,1.86-3.55,3.27c-2.39,2.76-4.05,5.19-6.65,8.09
		c-1.22,1.36-2.32,3.36-3.12,4.04c-1.92,1.62-5.11,1.39-6.39,3.77c-1.07-0.5-0.17-2.4-0.11-3.14c1.49-0.18,2.22-1.05,3.62-1.31
		c5.08-4.5,8.74-10.32,12.95-14.61c0.69-8.37,1.98-21.53,1.43-29.91c1.97-0.15,3.89-0.23,4.91,0.61c-0.11,2.06-1.83,0.94-2.8,1.67
		c0.37,6.77-1.7,16.38-0.83,23.6c5.65-10.24,14.95-20.22,17.16-34.8c0.58-1.42-1.39-0.19-1.26-1.14
		C168.243,193.97,168.423,190.46,170.763,188.89z"/>
	<path fill-rule="evenodd" clip-rule="evenodd" fill="#B19ACA" d="M78.373,213.84c0.37,1.34-0.32,1.74-1.15,2
		c4.97,2.85,10.41,5.19,15.72,7.68c-5.73,1.15-11.14-4.94-17.68-5.64c-0.23-1.13-1.48-1.18-1.32-2.7
		C75.343,214.9,77.243,213.09,78.373,213.84z"/>
	<path fill-rule="evenodd" clip-rule="evenodd" fill="#B19ACA" d="M159.253,245.9c-1.4,0.36-1.58-0.53-2.86-0.3
		c-3.57,6.69-2.48,17.57-4.85,25.33c0.6,1.03,0.53,2.46,2.09,1.49c-0.59,1.38-1.26,2.68-3.58,2.49
		c-1.35-10.77,3.16-19.44,2.62-30.74C154.863,242.47,159.053,242.47,159.253,245.9z"/>
	<path fill-rule="evenodd" clip-rule="evenodd" fill="#B19ACA" d="M4.203,243.98c0.47-0.08,0.73,0.06,0.83,0.36
		c2.97,9.9,6.93,18.79,12.65,25.84c1.02,0.24,1.68,0.33,2.42-0.48c-0.42,4.35,6.76,6.79,9.3,10.66c1.96-0.35-1.19-2.54-0.1-3.13
		c2.48,1.14,4.08,4.44,2.69,7.36c-5.44-3.31-9.28-8.25-13.83-12.46c-3.81,0.79-9.19,1.61-13.38,0.87c-0.04-0.93,0.66-1.18,0.33-2.37
		c3.48,0.3,8.42,0.85,11.38,0.38C10.483,263.84,5.543,255.25,4.203,243.98z"/>
	<path fill-rule="evenodd" clip-rule="evenodd" fill="#B19ACA" d="M64.703,278.33c6.39-1.03,11.96-1.23,17.86-1.03
		c-0.16,1.76-1.83,2.16-3.16,2.86c-6.83-2.84-12.87,2.27-19.14-0.89c-0.2-0.94,0.71-0.88,0.34-1.98
		C62.743,277.57,64.783,274.82,64.703,278.33z"/>
	<path fill-rule="evenodd" clip-rule="evenodd" fill="#B19ACA" d="M185.063,298.04c0.5,1.97-1.14,2.02-1.52,3.2
		c0.2,6.18-1.87,13.38-2.17,20.12c-0.22,4.76,1.51,10.02-1.57,13.81c-1.3-11.57,0.15-23.58,1.28-34.24
		c0.26-1.08-1.91,0.35-1.65-0.73C178.883,297.46,183.103,297.3,185.063,298.04z"/>
	<path fill-rule="evenodd" clip-rule="evenodd" fill="#B19ACA" d="M240.113,309.87c1.12,7.62-5.76,14.26-12.47,17.34
		c1.03,3.99-4.91,8.99-1.61,12.64c-1.71,4.66-5.3,14.16,1.35,15.69c3.37-1.16,5.25-3.65,8.82-4.63c0.54-0.53,0.34-1.73,0.31-2.77
		c1.83-0.37,3.84,0.71,4.18,3c-3.14,1.49-5.29,3.87-8.8,5.03c4.57,1.94,8.79-0.7,12.61-1.23c0.24,0.57-0.41,2.05,0.47,1.95
		c-4.47,3.51-12.84,0.25-17.88,2.19c-0.32-2.65-3.01-2.85-3.84-4.97c-2,15.04-7.28,32.73-8.56,48.26c-0.13,1.57,1.38,3.14-0.67,4.35
		c-3.57-0.08-0.94-4.12-0.62-6.27c0.33-2.17-0.06-4.64,0.2-6.3c2.53-16.6,8.12-35.56,8.79-53.38c1.36-4.42,3.44-10.04,3.6-14.28
		c1.99-1.41,1.12-5.1,1.39-7.13c2.7-0.5,2.33,2.01,2.15,3.46c3.58-0.47,5.74-5.5,8.72-7.78c-0.01-1.34-2.49-0.14-2.5-1.48
		C236.513,311.22,237.743,309.89,240.113,309.87z"/>
	<path fill-rule="evenodd" clip-rule="evenodd" fill="#B19ACA" d="M180.543,344.97c-0.42-1.97-0.19-2.19-0.15-4.32
		c1.91-0.4,1.42,3.11,0.95,3.9c0.2,0.88,2.16-0.06,2.47,0.7c-0.24,1.19-2.35,0.68-2.8,1.67c0.11,5.76,0.58,9.56-0.33,14.16
		c-1.35-2.8-0.72-10.07-0.46-13.35c-6.56,0.52-12.06-3.13-16.11-6.51c-4.75,2.17-11.01,0.04-13.53-2.67
		c-0.3-2.55,1.61-3.12,3.54-3.66c0.48,1.7-1.33,1.33-1.13,2.79c0.99,2.89,6.42,2.94,9.85,2.01c-7.65-5.79-11.1-18.04-13.97-27.41
		c0.47-1.12,1.63-1.36,2.82-0.88c0.32,11.03,6.17,19.17,11.09,26.72c0.55,0.38,1.52,0.33,2.06,0.72
		C167.003,344.13,175.193,346.63,180.543,344.97z"/>
	<path fill-rule="evenodd" clip-rule="evenodd" fill="#B19ACA" d="M216.693,353.15c0.55-0.52,0.63-2.37-0.48-2.34
		C216.463,351.49,215.793,353.14,216.693,353.15z M210.103,327.04l1.22-0.04c0.11,5.87,3.13,8.96,5.35,13.57
		c0.54-0.4,0.49-1.34,1.17-1.61c0.91,0.02,0.23,1.66,0.49,2.34c1.39-2.47,2.04-4.91,0.96-7.9c0.59-0.22,1-0.61,1.6-0.84
		c4.32,2.2-1.28,8.39-0.02,11.4c-3.62,4.63-1.05,13.21-4.26,18.63c-0.65-1.94,0.02-3.94-0.24-7.07
		c-2.39,12.75-3.79,25.28-5.61,39.12c-4.17,2.97-0.2,13.27-6.03,14.75c-0.36-0.3-0.27-1.07-0.85-1.15
		c2.44-3.92,2.28-8.58,3.23-13.08c1.17-5.58,3.59-10.06,3.94-15.86c0.5-8.22,1.5-15.36,2.9-22.91c-2.22-1.77-5.46-2.49-8.28-3.64
		c-1.74-4.03-4.83-6.67-5.3-12c-1.86,1.13-6.3,6.12-10.92,2.73c1.93-1.64,5.22,0.54,7.7-1.44c1.85-1.76,1.15-5.82,4.69-6.06
		c-1.51,8.75,3.42,17.13,12.82,17.24c1.37-0.28,0.42-2.66,1.1-3.57c0.84-0.2,1.09,0.23,1.64,0.33c-0.1-1.99-0.32-4.09,0.64-5.13
		c-0.36-0.57-1.05-0.81-2.06-0.72C214.213,338.08,210.423,333.42,210.103,327.04z"/>
	<path fill-rule="evenodd" clip-rule="evenodd" fill="#B19ACA" d="M38.973,227.04c1.32-3.38,0.82-8.39,3.72-10.34
		c0.46-7.38,2.29-18.39,3.12-27.99c0.27-3.23-0.93-7.22,1.31-9.07c0.81-8.99,4.31-22.44,4.18-32.74c-0.03-2.33-2.79-7.86,1.8-6.74
		c1.16,2.95-0.64,6.83-0.87,10.24c-0.17,2.54,0.5,5.26,0.27,7.84c-0.73,8.07-3.32,16.08-4.46,24.5c-0.28,2.07,0.09,4.23-0.19,6.29
		c-1.34,9.84-3.52,20.6-2.29,28.35c-1.54,3.1-1.71,7.27-0.09,9.42c-4.52-0.75-1.2-3.72-2.65-6.18c-1.01,2.33-1.78,4.75-1.38,7.11
		c0.49,2.89,4.22,4.47,3.09,7.35c-2.88,0.53-2.12-1.4-3.31-1.84c-0.72,2.64-0.38,6.24-1.75,8.3c1.02,5.57-1.6,11.04-2.29,16.57
		c-1.47,11.96-1.33,25.06-2.37,37.76c-0.44,5.3-1.27,10.56-1.1,15.74c0.17,5,1.52,9.82,1.32,14.87c-0.1,2.38-0.82,4.71-0.98,7.09
		c-1.1,16.11,2.08,33.36,0.5,50.61c-1.12,12.18,1.38,29.4,0.66,43.54c-0.21,4.22-1.36,8.14-1.21,12.21c0.09,2.53,2,6.57-0.95,7.88
		c-2.27-1.27-1.54-4.73-1.45-6.62c0.24-4.72,1.39-9.13,1.58-13.4c0.58-12.58-2-27.81-1.31-38.8c0.87-13.99,0.25-29.66,0.15-43.57
		c-0.05-6.12,0.73-12.06,1.01-18.09c0.42-9.02-1.46-17.22-0.91-26.66c0.83-14.17,1.58-29.93,3.78-44.48c0.71-4.71,2.09-9,2.79-13.44
		c0.6-3.73,1.27-9.22,0.82-11.81c-0.64-3.76-5.59-9.57-8.61-14.21c-3.06-4.71-5.76-10.2-7.82-15.02
		c-4.92-11.54-9.87-21.93-11.3-33.74c-0.29-2.37-0.7-5.74,2.2-7.14c0.4,26.67,13.97,48.78,24.98,65.81L38.973,227.04z"/>
</g>
<g opacity="0.2">
	<path fill-rule="evenodd" clip-rule="evenodd" fill="#B19ACA" d="M1052.783,18.46c0.99,0.14,1.58,0.67,2.96,0.43
		c-0.81,9.47,11.79,11.26,11.4,20.32c-3.33-1.42-3.23-7.41-8.03-8.47c0.37-1.35-0.66-1.31-0.84-2.11c-3.32-1.19-3.45-5.57-6.33-7.2
		C1052.243,20.46,1052.313,19.27,1052.783,18.46z"/>
	<path fill-rule="evenodd" clip-rule="evenodd" fill="#B19ACA" d="M923.983,95.11h2.54c1.89,3.39,1.96,7.68,3.37,11.43
		c1.18,3.15,4.68,6.53,2.54,9.75c-3.31-4.93-4.31-10.29-6.34-16.94C925.453,97.87,923.453,97.77,923.983,95.11z"/>
	<path fill-rule="evenodd" clip-rule="evenodd" fill="#B19ACA" d="M955.233,159.9c-2.7-2.61,0-6.38,0.42-10.16
		c0.47-4.18-1.11-13.42,0.43-16.52c1.02-2.06,2.04-3.97,2.95-6.35c0.83-2.16,1.53-5.32,3.38-5.93c2.67,0.83,0.41,4.37-0.84,5.08
		c-5.08,8.77-3.75,23.38-5.49,33.46C955.733,159.56,955.663,159.9,955.233,159.9z"/>
	<path fill-rule="evenodd" clip-rule="evenodd" fill="#B19ACA" d="M925.673,180.23c-0.3,2.01-1.73,0.7-3.38,0.85
		c-0.83-5.44-8.85-7.18-10.98-12.71h-2.11c0.04-0.67-0.2-1.61,0.42-1.69c-5.43-4.29-7.28-12.18-11.82-17.36
		c-0.67-6.87-4.03-15.28-5.91-20.75c2.87-0.48,3.13,1.65,4.22,2.96c0.08,0.92-0.34,1.35-1.27,1.27
		c4.55,12.03,7.22,22.97,14.36,31.34c2.76-10.2,2.63-20.17,3.38-29.22c1.33-0.21,1.65,0.6,2.53,0.84
		c-1.87,10.14-1.9,20.33-3.8,30.92C915.643,171.44,920.583,174.39,925.673,180.23z"/>
	<path fill-rule="evenodd" clip-rule="evenodd" fill="#B19ACA" d="M891.473,151.86c0.04,5.04,5.42,4.72,9.29,5.93
		c-0.3,2.22-3.04-0.03-4.23,1.69c-2.71-2.08-6.58-3-8.44-5.93C888.423,152.19,889.563,151.64,891.473,151.86z"/>
	<path fill-rule="evenodd" clip-rule="evenodd" fill="#B19ACA" d="M930.743,155.24c0.2,1.76-1.82,1.29-1.69,2.97
		c3.86,18.43-4.4,34.44,0,52.93c0.021,1.43-0.979,1.84-1.69,2.54c2.65,11.91-1.56,25.93-0.84,38.54c0.17,3.1,1.36,6.36,1.69,9.74
		c0.85,8.83-1.53,18.28-0.43,27.95c0.48,1.07,2.15,0.95,2.96,1.69c-0.09,1.97-2.33,0.16-3.38,0.42c0.2,5.29-1.34,10.07-1.69,15.25
		c-0.43,6.39,1.23,12.19,1.69,18.63c0.34,4.7-0.81,9.48-1.27,14.4c-0.44,4.69,0.75,9.3,0.85,13.98c0.16,7.78-0.49,16.17-0.85,24.13
		c-0.39,8.66,0.02,17.4,0.43,25.83c0.59,12.44-2.51,25.43-1.27,36.42c0.23,2.04,4.06,8.56-0.42,10.59
		c-2.19-7.62-1.21-15.98-0.85-24.14c1.24-27.84,0.44-53.76-0.42-79.61c-0.34-10.36,3.52-20.87,0.42-30.49
		c-3.44-2.37-7.62-2.11-9.71-5.51c-2.49-4.04-2.76-11.07-6.76-13.97c1.47-3.64,3.13-5.04,5.49-7.2c0.58,2-2.37,4.11-2.95,6.35
		c3.31,7.4,5.08,16.36,13.93,18.21c-0.76-6.38,1.3-16.55,1.27-23.71c-10.06-11.98-18.97-29-17.74-49.55
		c1.19-0.24,3.35-1.7,4.65-0.42c-0.85,1.51-2.83,2.44-3.38,4.23c-1.52,4.92,2.12,14.11,4.22,20.75c3.09,9.77,6.71,15.98,12.25,21.18
		c-0.9-6.45,1.71-15.17,1.27-23.72c-0.14-2.57-1.39-5.22-1.69-8.04c-0.93-8.69,2.22-18.87,1.69-28.8
		c-0.49-9.01-1.43-16.59-1.27-27.1c0.17-11.63,3.46-21.96,2.53-35.15c-0.17-2.5-1.19-6.16,0-8.89c-0.12-0.69,0.4-0.73,0.43-1.27
		C929.663,154.06,929.993,154.87,930.743,155.24z"/>
	<path fill-rule="evenodd" clip-rule="evenodd" fill="#B19ACA" d="M1166.373,162.44h0.85c4.47,4.35-1.65,5.97-2.96,10.17
		c-5.399,5.63-13.2,8.79-21.53,11.85c-7.99,2.94-16.93,6.88-25.76,5.93c0.78-2.34,4.23-2.21,5.91-2.54
		c13.15-2.56,26.73-7.69,36.74-13.55c1.55-3.25,3.98-5.6,6.33-8.05C1165.733,164.62,1166.713,164.19,1166.373,162.44z"/>
	<path fill-rule="evenodd" clip-rule="evenodd" fill="#B19ACA" d="M878.803,201.4c-3.02,10.81-3.96,23.7-8.03,33.46
		c-4.3-2.56,1.34-8.43,2.11-13.55c1.01-6.64,0.83-12.68,2.96-16.94c0.04-1.32-1.33-1.21-0.84-2.97
		C876.323,200.22,877.233,200.88,878.803,201.4z"/>
	<path fill-rule="evenodd" clip-rule="evenodd" fill="#B19ACA" d="M888.513,221.31c-2.02,4.46-1.63,11.35-2.96,16.51
		c3.47-0.76,4.45-4.01,7.18-5.5c1.15,0.39,0.97,2.13,1.27,3.38c-3.35,0.88-4.07,4.39-8.02,4.66c-2.83,3.23-4.45,7.68-7.61,10.59
		c-1.67-0.43-0.4-2.55-0.42-3.81c7.31-4.26,6.28-17.33,7.18-25.83C885.753,220.68,887.903,220.68,888.513,221.31z"/>
	<path fill-rule="evenodd" clip-rule="evenodd" fill="#B19ACA" d="M867.403,223c-5.6,7.27,2.76,13.96,2.53,23.29
		c-2.07-0.67-1.81-3.89-2.96-6.78c-1.07-2.7-2.89-5.35-3.38-8.04C862.893,227.55,862.333,221.37,867.403,223z"/>
	<path fill-rule="evenodd" clip-rule="evenodd" fill="#B19ACA" d="M891.043,247.56c0.49-0.07,0.75,0.09,0.85,0.42
		c3.53,2.77,1.94,12.89,0.84,18.21c4.27,0.75,1.82-8.9,6.76-8.89c2.47,3.41-2.29,5.15-1.69,9.32c-9.88,1.81-5.69,17.72-16.05,19.05
		c-0.03-3.25,3.9-4.14,5.49-6.77c3.69-6.1,3.7-16.6,4.65-25.83c-1.79-0.11-0.73,2.65-2.11,2.96
		C888.913,253.6,890.793,250.28,891.043,247.56z"/>
	<path fill-rule="evenodd" clip-rule="evenodd" fill="#B19ACA" d="M846.703,248.83c1.68,0.3,4.68-0.74,5.07,0.85
		c0.43,1.42-1.31,0.66-2.11,0.84c1.23,5.83,4.84,9.27,6.76,14.4c2.8-3.76-4.51-10.26-0.85-13.55c1.62,0.21,1.43,2.24,2.53,2.97
		c0.08,0.92-0.34,1.34-1.26,1.27c2.73,4.01,1.52,9.22,3.38,13.12c1.74,3.67,6.2,5.17,7.18,8.9c-3.35,1.39-4.03-3.13-5.92-5.09
		c-1.17-1.22-3.17-1.79-4.22-2.96c-4.73-5.24-6.34-13.85-10.98-19.06C846.613,250.15,846.733,249.57,846.703,248.83z"/>
	<path fill-rule="evenodd" clip-rule="evenodd" fill="#B19ACA" d="M873.313,253.91c-2.42,2.1-1.4,7.63-2.11,11.44
		c-0.2,0.9,0.6,0.8,1.26,0.84c-2.05,27.95-1.68,60.17-2.11,87.24c-0.14,8.64-2.34,16.34-1.69,26.25c0.24,3.55,1.45,7.36,1.69,11.01
		c0.67,9.94-0.59,19.8,0.42,27.53c0.32,2.39,2.85,5.57-0.42,7.2c-3.01-3.17-1.38-8.17-1.69-11.86c-0.36-4.27,0-9.17,0-13.55
		c0.01-7.02-1.72-13.68-2.11-20.75c-0.41-7.45,1.57-15.38,1.69-23.29c0.19-12.73,0.45-25.93,1.27-39.38
		c-2.89,0.68-5.66-1.79-6.76-4.24c-1.33-0.92-2.53,1.43-4.22,0c-0.59-2.43,0.85-2.81,1.69-3.81c-5.32-3.92-8.42-15.49-8.45-24.14
		c1.37-0.73,4.32,0.03,5.07,1.27c-0.12,2.21-2.83-0.39-3.38,0.85c0.04,4.51,2.03,9.12,2.96,13.97c3.19-0.75,1.27-8.88,4.22-8.47
		c2.34,3.86-2.32,7.25-2.11,11.01c0.23,4.21,6.57,9.91,10.13,11.44c1.88-14.62,0.04-26.03,0.85-39.81c-0.12-0.87-1.87-0.1-1.69-1.27
		c-0.32-1.45,1.71-0.54,1.26-2.12c-1.12-5.36,1.1-13.97,0-18.63C871.413,252.09,871.683,252.41,873.313,253.91z"/>
	<path fill-rule="evenodd" clip-rule="evenodd" fill="#B19ACA" d="M921.033,253.49c-1.14,6.06-2.63,11.76-4.65,16.94
		c-3.07-2.8,0.14-8.1,1.27-11.44c-0.83-1.88,0.51-3.93,1.26-5.5H921.033z"/>
	<path fill-rule="evenodd" clip-rule="evenodd" fill="#B19ACA" d="M835.723,294.99h-2.53c-0.14,3.79,1.62,9.01,2.53,13.13
		c1.35-1.42,2.63-3.7,3.38-6.78c0.6-2.45-0.27-7.32,3.38-5.93c-1.34,3.48-1.18,12.07-5.49,13.98c0.58,2.3,0.34,3.63-1.69,4.23
		c-1.04,6.39-1.09,12.6-1.69,19.06c0.05,0.8,1.4,0.29,1.27,1.27c-1.58,15.67-1.86,30.53-0.42,45.31c0.68,7.01-0.19,14.06,0.42,21.17
		c0.33,3.85,2.67,11.42-0.42,14.82c-3.1-7.48-0.72-21.85-1.69-33.87c-0.38-4.69-1.52-9.11-1.27-12.71c-0.5-1.26-0.36,1.55-1.69,0.85
		c-6.79-3.82-13.24-10.1-13.51-19.06c-2.229,0.25-4.1-0.86-5.49-2.54c0.29-1.3,0.29-0.81,0-2.12c0.5-0.48,1.49-0.47,2.53-0.42
		c1.75,0.28-1.51,3.3,2.11,2.97c1.44-3.14-0.68-9.93,0.85-11.86c2.83,0.84,1.14,2.92,1.271,5.08c0.66,11.86,1.86,23,13.93,25.41
		c0.72-8.13,0.57-16.72,0.42-25.83c-0.71-0.16-0.79,0.33-0.84,0.84c-1.39-0.23-0.65-1.63,0.84-1.27c0.47-3.14,0.12-5.59,0.43-7.2
		c-4.32-2.05-9.98-5.95-12.25-11.43c-3.35,0.89-8.24-0.15-10.98-1.27c0.88-4.96,6.13,0.57,9.71-0.42
		c-1.31-4.47-4.9-10.66-0.42-13.98c1.88,0.35-0.24,3.22-0.42,4.24c1.22,10.35,6.8,16.32,13.93,20.75
		c-0.92-6.38,1.91-13.23,2.11-19.91c0.21-6.69-3.15-12.28-3.37-17.78C832.053,292.97,835.833,292.89,835.723,294.99z"/>
	<path fill-rule="evenodd" clip-rule="evenodd" fill="#B19ACA" d="M958.193,321.67c-0.56-0.43-1.56-0.42-2.11-0.85
		c1.77-9.88,8.73-12.32,8.86-24.14c-0.11-1.48-1.57,1.07-1.69-0.42c-0.54-2.38,2.11-1.56,3.8-1.69
		C967.703,307.21,959.983,311.47,958.193,321.67z"/>
	<path fill-rule="evenodd" clip-rule="evenodd" fill="#B19ACA" d="M887.673,295.41c3.9,5.36-0.68,17.5,3.37,22.02
		c-7.93-0.47-1.36-16.49-5.06-20.75c-0.07-0.49,0.09-0.75,0.42-0.84C886.743,295.61,887.083,295.39,887.673,295.41z"/>
	<path fill-rule="evenodd" clip-rule="evenodd" fill="#B19ACA" d="M853.043,303.03c1.51,12.23-5.03,19.72-13.09,23.72
		c-1.79,16.23,2.53,32.67,3.38,50.81c0.37,8.05-0.99,16.65,0,24.14c0.31,2.42,3.93,7.56-0.85,8.47
		c-1.81-13.11-0.54-23.19-1.27-37.26c-0.47-9.25-2.38-18.28-2.95-27.11c-0.58-8.95-0.52-17.84,0-26.25c0.14-2.25-0.16-5.47,2.11-7.2
		c2.42,2.77-1.15,8.26-0.42,12.28c5.16-3.02,10.88-9.12,11.4-18.21c-0.36-1.1-1.85,0.82-2.54-0.42
		C849.333,304.11,850.123,302.51,853.043,303.03z"/>
	<path fill-rule="evenodd" clip-rule="evenodd" fill="#B19ACA" d="M855.993,320.4c-6.28,5.64-1.05,14.35-0.42,22.44
		c1.979-1.74,1.58-7.94,1.69-10.16c-0.1-1.1-0.73,0.58-1.69,0c0.229-2.45,1.19-4.18,4.22-3.81c1.01,4.53-0.9,8.67-1.69,12.7
		c2.56,0.9,2.9-3.79,5.49-4.24c1.16,4.6-4.51,5.89-5.91,9.32c0.2,5.59,4.65,6.91,8.87,8.47c-0.22,1.33-1.57,1.53-2.96,1.69
		c-2.66-1.28-4.63-3.25-6.33-5.5c-0.63,0.64-0.68,1.86-0.84,2.97c-3.53,4.82-6.78,13.34-13.09,14.39c1.18-4.04,5.72-4.7,6.75-8.89
		c-1.79-4.76-2.57-13.11-1.27-17.36c1.22,0.05,2.77-0.23,3.38,0.42c-3.17,2.69-2.07,10.01-0.42,14.4c8.42-10.3-3.19-22.59-1.27-34.3
		C852.543,322.47,853.803,319.33,855.993,320.4z"/>
	<path fill-rule="evenodd" clip-rule="evenodd" fill="#B19ACA" d="M821.373,358.51c-1.39-6.43,2.75-8.44,3.37-13.98
		c-0.35-1.24-1.06,0.56-2.11,0c-0.34-3.31,1-4.92,2.96-5.92c0.34,0.22,0.68,0.44,1.27,0.42c0.92,4.54-1.42,10.93-2.96,14.82
		C823.203,355.62,822.723,357.65,821.373,358.51z"/>
	<path fill-rule="evenodd" clip-rule="evenodd" fill="#B19ACA" d="M818.413,496.14c1.46,0.08,3.25-0.15,3.38,1.27
		C820.483,497.17,818.583,497.52,818.413,496.14z"/>
	<path fill-rule="evenodd" clip-rule="evenodd" fill="#B19ACA" d="M923.143,232.74c-2.85,2.03-5.01-2.12-5.91-4.66
		c-8.01-3.97-13.8-10.16-18.16-17.79c1.81-8.41-3.42-13.15-5.49-19.05c0.12-1.26,3.35-2.07,3.8-0.42c0.67,1.66-1.83,0.14-1.69,1.27
		c6.46,7.36,4.11,20.97,11.82,27.1c0.48-7.2-1.81-12.7-1.26-20.33c1.28,0.41,2.88,0.5,3.37,1.7c0.38,1.36-1.37,0.59-1.69,1.27
		c0.43,5.51,2.46,11.91,1.27,18.63c4.49,3,7.22,5.75,10.98,8.89C917.843,229.94,923.113,230.65,923.143,232.74z"/>
	<path fill-rule="evenodd" clip-rule="evenodd" fill="#B19ACA" d="M941.723,93.84c0.13,1.12-0.59,1.39-1.69,1.27
		c5.55,11.19-2.08,21-3.38,30.07c-0.78,5.49,0.53,13.91-2.96,20.75c-2.76-2.9,0.77-8.17,1.27-13.13c0.28-2.75-0.73-5.62-0.42-8.47
		c0.53-4.89,4.39-9.02,5.07-14.82c0.34-2.91,0.55-5.67,0.42-7.62c-0.22-3.15-3.01-5.69-2.11-8.9
		C939.133,91.99,941.013,93.03,941.723,93.84z"/>
	<path fill-rule="evenodd" clip-rule="evenodd" fill="#B19ACA" d="M969.173,237.82c1.84-0.27,2.02-2.2,3.8-2.54
		c-0.53-1.3-0.46-3.21-1.69-3.81C970.973,233.99,969.273,235.1,969.173,237.82z M975.503,236.55c4.21,6.36,9.51,11.64,14.78,16.94
		c-2.19-8.11-1.98-18.63-6.76-24.14C982.843,233.74,977.983,233.96,975.503,236.55z M974.233,237.4c-2.33,0.62-3.14,2.77-5.49,3.39
		c-6.89,11.15-12.86,23.23-22.8,31.33c0.2-5.73,5.98-8.34,9.29-12.7c3.1-4.07,5.54-9.5,8.02-14.4c2.52-4.96,4.69-10.3,6.76-15.67
		c-2.11-5.36-5.37-9.57-7.18-15.24c-1.3-1.8-4.24-1.96-3.8-5.51c3.68-0.7,3.87,3.31,5.07,5.51c1.81,3.31,4.3,8.11,7.18,11.43
		c-0.96-5.41,3.71-11.01,3.38-16.52c-0.17-2.71-2.52-4.2-2.12-7.19c-2.37-1.38-2.28,2.96-4.64,2.96c1.4-1.97,1.58-5.26,4.22-5.08
		c2.13,0.14,3.73,4.43,4.23,6.77c1.86,8.84-7.39,21.66-1.69,27.53c2.79-0.73,4.55-2.49,6.75-3.81c0.01-1.43-2.22-1.89-0.84-3.39
		c1.59-0.33,2.02,0.52,3.38,0.42c-1.28-4.71-1.25-10.03-2.54-16.09c-2.3-10.85-8.82-25.65,2.11-29.22c-0.17,1.81-3.6,4.01-4.22,6.78
		c1.8,24.6,9.45,43.32,13.09,66.06c6.97,5.86,14.44,11.21,24.5,13.97c0.48-26.89,4.34-48.65,6.75-73.68
		c-1.97-2.78-5.34-4.21-8.02-6.35c-2.89-2.31-6.32-4.07-8.87-6.35c-1.58-1.42-2.8-4.09-4.64-5.93
		c-10.48-10.51-20.07-25.69-23.65-45.31c-1.37,1.02-1.55,3.25-2.11,5.08c-4.02,4.09-7.36,7.03-10.98,11.85
		c-1.09,1.44-2.84,3.14-3.8,4.66c-6.33,9.94-6.81,23.45-17.32,28.38c-4.08,23.41-1.49,53.16-2.53,81.73
		c-0.89,24.2-4.64,46.12-0.85,68.17c6.31-4.31,14.24-5.46,19.01-11.01c8.62-10.04,17.87-24.64,21.11-40.65
		c-0.29-1.56-1.27-4.64-0.42-5.93c0.54-0.58,1.83-0.42,2.95-0.42c-0.82,10.4-3.5,18.39-8.02,27.1c-1.81,3.5-4.85,6.89-7.18,10.59
		c-2.48,3.94-4.25,8.17-7.18,11.01c-5.58,5.41-12.98,7.05-20.27,11.43c0.55,30.08,5.02,59.13,7.18,89.35
		c0.46,6.44,2.41,13.49,2.96,20.75c0.28,3.66,0.44,7.47,0.84,11.01c0.33,2.84,2.39,6.55,0,8.9c-2.14-1.39-1.93-4.93-2.11-7.2
		c-0.58-7.27-0.54-14.07-1.69-21.18c-0.979-6.1-1.76-11.16-2.11-19.05c-0.1-2.22-0.16-4.52-0.42-6.78
		c-2.21-18.99-5.13-38.56-6.34-58.01c-0.58-9.4-0.11-18.98-0.84-28.37c-0.66-8.49-1.64-16.82-1.27-25.41
		c1.17-26.66,3.31-53.78,3.38-81.73c0.02-8.56,0.02-17.32,0.42-26.26c0.82-18.13-3.78-36.91-0.42-49.97
		c0.34,0.23,0.69,0.44,1.27,0.43c0.41,5.51-0.32,12.41,0,19.48c0.32,7.13,0.57,14.36,1.27,20.75c2.34-0.62,4.6-4.98,7.6-6.36
		c4.2-13.92,10.85-23.77,19.42-33.45c3.06-3.45,6.49-7.55,6.76-13.13c0.41-8.44-4.12-15.02-2.54-26.68
		c1.13-0.42,1.03-2.07,2.12-2.54c1.35,1.06-0.26,3.32-0.43,5.08c-0.38,3.97,0.01,8.84,0.43,12.71c0.56,5.22,2.5,10.13,3.37,15.24
		c2.76,16.17,12.49,29.76,20.27,39.81c1.21-11.63-0.54-33.34,2.12-43.19c-1.75-2.14-1.69-0.98-4.23-0.43
		c0.04-3.4,3.99-4.45,5.91-2.54c2.21,2.19-0.86,9.01-1.26,13.98c-1.01,12.48,1.07,22.65-0.42,34.3
		c5.55,7.83,13.81,12.96,21.53,18.63c1.82-4.01-1.28-6.34-1.69-10.59c-0.47-4.85,2.64-9.94,2.54-15.24
		c-0.05-2.23-1.02-4.1-1.27-6.35c-1.26-11.38,3.65-23.17,0.84-33.46c-1.03-1.22-2.84-1.66-4.22-2.54
		c-4.01-8.43-10.68-14.49-15.2-22.44c-4.74-8.35-6.63-16.96-8.45-27.95c-0.55-3.38-3.08-8.23-0.42-11.44
		c2.07,14.6,5.01,28.45,11.4,38.96c4.29,7.06,9.81,12.79,13.52,20.33c1.74-0.19,1.58,1.52,2.95,1.69
		c-1.62-5.76,0.6-12.68,0.42-19.48c-0.04-1.84-1.07-3.46,0-5.08c3.78-0.82,2.18,3.75,3.38,5.51c-3.61,5.41-1.4,13.64-1.69,19.9
		c2.28,2.52,8.27,1.31,9.29,5.08c-0.71,0.7-1.89,0.92-2.53,1.7c-2.47-0.92-3.14-3.63-6.33-3.82c3.44,8.74-1.64,20.47-0.85,31.34
		c0.39,5.28,1.32,9.43,0.85,13.98c-0.37,3.47-2.11,6.65-1.27,10.58c-0.07,1.88,1.19-0.2,1.69,0.85c-2.29,3.1,2.2,7.4-0.85,9.74
		c0.72,1.8,3.47-0.46,3.8,2.12c-0.07,1.2-0.77,1.76-0.84,2.96c-2.26,0.71-1.83-1.27-3.38-1.27c-2.91,24.26-6.4,49.66-6.76,71.99
		c0.06,1.22,1.81,0.74,1.69,2.12c0.41,1.53-1.89,0.35-1.69,1.69c-1.51,20.09-7.33,41.13-7.17,63.95c0.04,6.66,0.87,13.56,0.42,20.32
		c-0.41,6.05-1.87,12.05-2.11,18.21c-0.36,9.01,0.97,18.16,0.42,27.1c-0.36,5.76-1.97,11.32-2.11,16.94
		c-0.16,5.92-0.03,11.97,0,17.79c0.02,4.86,1.46,9.64,0.84,14.4c-0.38,2.93-1.55,5.6-1.69,8.46c-0.29,6.16-0.19,12.19-0.42,18.21
		c-0.25,6.51,2.3,13.02,0,19.06c-2.42-1.69-1.59-5.96-1.69-8.89c-0.31-9.44-0.42-19.58,0-27.95c0.24-4.73,2.24-9.55,2.11-13.55
		c-0.3-9.22-1.38-18.9-0.84-28.37c0.33-5.95,1.87-11.72,2.11-17.79c0.37-9.44-0.42-19.17,0-28.8c0.25-5.65,1.43-11.28,1.69-16.93
		c0.23-5.16-0.42-10.16-0.42-15.25c-0.02-24.15,5.59-44.84,7.18-67.76C997.603,264.35,984.503,252.95,974.233,237.4z"/>
	<path fill-rule="evenodd" clip-rule="evenodd" fill="#B19ACA" d="M1102.193,94.26c1.99,1.08,3.19,5.46,3.38,7.2
		c0.4,3.8-0.86,6.31-1.69,10.59c-1.3,6.66-5.55,14.82-8.87,22.44c-2.29,5.24-4.6,10.78-7.6,16.1
		c-8.96,15.88-23.85,31.46-38.85,40.65c-1.39,24.72-5.65,46.56-7.18,71.14c9.32-1.49,17.97-5.53,23.22-11.43
		c5.76-6.48,11.82-12.19,18.58-20.75c0.54-0.68,1.4-2.03,2.54-3.39c3.41-4.08,2.09-2.51,0.84-7.2c-1.96-7.4-1.42-19.26,0-27.95
		c0.35-2.13,1.41-4.32,1.69-6.35c0.56-4.04-0.58-7.85,0.42-11.86c3.83,0.16,1.26,4.76,1.27,6.78c0.05,10.87-4.4,29.35-0.42,42.35
		c5.67-8.46,14.52-14.27,19.42-24.14c2.57-5.17,3.07-10.81,5.07-16.94c1.03-3.15,3.8-5.45,5.07-8.47c0.22-0.52-0.3-1.94,0-2.96
		c0.82-2.78,3.53-6.66,2.96-11.86c3.64-3.8,1.4-11.42-3.81-12.28c3.87-2.4,7.6,2.68,8.03,5.08c1.46,8.17-6.13,17.11-5.91,24.98
		c-5.19,6.19-6.28,19.8-10.56,26.26c-5.91,8.91-14.08,15.82-20.69,24.14c-6.5,8.16-13.6,15.77-20.27,24.13
		c-4.32,3.04-7.65,7.59-12.67,10.17c-4.62,2.37-10.12,2.72-15.2,5.08c1.22,17.24,2.89,29.92,5.06,45.31
		c13.68,0.26,20.85-8.52,30.41-14.4c4.18-2.57,8.31-5.34,13.51-7.62c6.3-6.82,10.86-12.43,15.2-20.33c2.53-1.13,3.87-3.46,6.34-4.65
		c-0.28-0.57-0.91-0.79-1.69-0.85c1.62-1.55,4.38-3.98,7.6-2.54c-0.12,2.56-2.32,3.04-4.22,3.81c-6.5,7.31-12.99,14.64-18.16,23.29
		c-3.58,2.05-8.36,6.2-13.09,8.47c0.72,1.11,2.18-0.6,3.8,0c8.64,4.78,26.12,6.16,38,3.39c1.35-0.32,3.92-1.31,3.8-2.97
		c1.74,1.32,4.8-1.21,5.92,0.85c-1.79,2.63-6.25,3.9-9.72,4.66c-6.31,1.38-16.18,2.03-23.22,1.27c-7.69-0.84-14-5.51-21.54-5.08
		c-11.39,4.38-16.15,15.42-32.09,15.24c-0.84,11.1,0.86,20.7,2.11,30.07c1.46,10.93-0.68,21.99,0.42,32.6
		c0.95,9.17,1.97,17.26,2.54,28.38c0.18,3.69,1.51,7.35,1.68,11.01c0.32,6.58-1.89,13.15-1.26,19.9c1.66,17.77,1.7,35.9,5.07,52.93
		c1.05,5.36,3.24,10.18,3.37,15.25c0.05,1.7,0.08,5.08-1.689,5.93c-1.5,1.29-1.33-1.8-2.11-2.54c-0.67-1.67,1.83-0.15,1.69-1.27
		c-3.1-19.36-7.04-39.44-7.18-60.56c-0.04-6.16-1.84-12.23-1.26-18.63c0.36-4.07,1.73-7.86,1.26-12.71
		c-0.35-3.67-1.16-7.29-1.26-11.01c-0.37-12.76-3.04-25.96-2.96-39.8c0.03-5.35,0.73-10.65,0.42-15.67
		c-0.37-6-2.11-11.64-2.53-17.79c-0.59-8.58-0.28-16.66-1.69-24.98c-2.11-12.46-3.64-24.76-4.22-37.69
		c-0.7-1.66-3.02,2.21-3.38-0.42c-0.64-1.8,2.06-2.7,3.8-3.39c1.11-22.66,5.37-46.53,7.18-69.87c0.13-1.13-2.37,0.39-1.69-1.27
		c-0.01-1.28,1.27-1.58,2.11-2.97c2.08-15.55,1.3-25.62,0.42-41.08c0.6-1.87-1.43-1.1-1.26-2.54c1.06-6.04,2.01-11.65,1.26-18.2
		c-0.75-6.66-4.17-13.48-4.64-19.91c-0.42-5.65,2.57-12.32,2.95-18.63c0.14-2.35-0.72-4.94-0.84-7.62
		c-0.24-5.11,0.99-10.48,0.42-14.4c-0.28-1.94-2.34-4.09-0.84-5.93c4.12-0.12,2.46,5.91,2.53,9.74c0.11,5.67,0.59,11.98,0.84,15.67
		c3.66-5.58,9.22-10.01,13.1-16.52c2.83-4.77,4.93-11.46,6.33-17.78c1.53-6.92,3.65-14,3.8-19.9c0.07-2.6-0.88-5.6-0.84-8.47
		c0.06-5.18,2.69-9.87,0-14.4c-2.03-0.74-1.9,2.86-2.96,1.69c0.34-2.43,1.85-5.64,4.22-4.66c3.47,3.95,1.11,10.22,0.85,16.1
		c-0.16,3.4,0.55,7.1,0.42,10.58c-0.2,5.15-2.33,10.79-3.38,16.52c-0.94,5.13-1.28,10.42-2.95,14.4
		c-3.83,9.09-10.62,15.94-15.63,22.02c-0.91,0.35-1.44,1.09-2.96,0.84c0.37,6.63-2.59,13.15-2.53,19.48
		c0.08,8.97,3.86,16.87,4.22,25.83c0.17,4.01-0.75,8.03-0.84,12.28c-0.29,13.9,3.99,28.02,0,43.2c4.17-0.09,6.4-5.69,10.98-6.78
		c12.7-11.48,21.7-23.19,28.71-37.69c-4.29-3.04-4.74-9.66-5.49-17.36c-0.57-5.92-3.95-10.55,0.85-13.13c1.87,1.33,0.08,3.31,0,5.09
		c-0.4,8.32,2.43,17.91,4.64,24.56c3.5-3.35,4.78-9.4,5.92-12.71c1.29-3.77,3.82-7.62,5.06-11.85
		C1101.973,109.68,1104.023,102.57,1102.193,94.26z"/>
	<path fill-rule="evenodd" clip-rule="evenodd" fill="#B19ACA" d="M898.643,286.1c0.34,0.22,0.69,0.44,1.27,0.42
		c5.45,21.15-6.03,35.02-15.2,46.58c-0.64-5.76,7.42-11.5,8.87-16.51c-0.29-1.14,0.87-0.82,1.26-1.27
		c3.99-8.09,5.33-18.42,2.54-28.38C897.723,286.58,898.533,286.69,898.643,286.1z"/>
	<path fill-rule="evenodd" clip-rule="evenodd" fill="#B19ACA" d="M879.643,258.99c0.68-0.12,0.73,0.4,1.27,0.43
		c0.31,12.15-2.5,26.81-0.42,42.34c0.75,5.65,2.54,11.3,2.95,16.94c0.88,12.15-1.42,24.02,0,36c7.08-0.8,9.89-5.9,14.36-9.32
		c-1.49-2.42-3.18-10.1-1.27-11.86c3.65,0.73,0.42,8.34,2.54,10.59c3.07-3.83,5.86-7.95,8.44-12.28c0.97-4.14,0.12-8.06,3.38-9.31
		c0.81,11.91-7.41,20.19-14.78,27.1c-3.52,3.3-7.5,6.77-12.25,7.62c0.3,17.15,2.56,31.37,3.81,48.27c0.4,1.54-1.9,0.36-1.69,1.7
		c0.48,5.01-1.34,12.34,1.69,14.82c-0.3,1.58-3.29,2.11-4.65,1.27c1.06-6.75,1.67-16.12-0.42-23.29c0.14-1.73,1.11,0.02,2.11-0.85
		c-0.74-16.33-3.87-42.88-2.96-62.67c0.26-5.44,0.26-10.89,0-16.09c-0.31-6.36-2.46-12.33-2.95-18.64
		C877.653,287.16,878.643,272.16,879.643,258.99z"/>
</g>
<path opacity="0.2" fill-rule="evenodd" clip-rule="evenodd" fill="none" stroke="#B19ACA" stroke-width="2" stroke-linecap="round" stroke-linejoin="round" stroke-miterlimit="10" d="
	M674.833,69c0,0,5.95-11.95,16-7s4,12,4,12s10.18,1.79,10,10s-10.09,17.37-27,6c0,0-7.32,5.07-14,1s0-14,0-14s-5.63-14.18,11-14"/>
<path opacity="0.2" fill-rule="evenodd" clip-rule="evenodd" fill="none" stroke="#B19ACA" stroke-width="2" stroke-linecap="round" stroke-linejoin="round" stroke-miterlimit="10" d="
	M307.833,57c0,0,5.95-11.95,16-7s4,12,4,12s10.18,1.79,10,10s-10.09,17.36-27,6c0,0-7.32,5.07-14,1s0-14,0-14s-5.63-14.18,11-14"/>
</svg>
