<svg version="1.1" id="圖層_1" xmlns="http://www.w3.org/2000/svg" xmlns:xlink="http://www.w3.org/1999/xlink" x="0px" y="0px"
	 width="601.5px" height="771px" viewBox="0 0 601.5 771" enable-background="new 0 0 601.5 771" xml:space="preserve">
<g>
	<path fill-rule="evenodd" clip-rule="evenodd" fill="#FFFFFF" d="M96.5,460c0,0-6.42,5.54-9,5s-3.14-4.01-6-4
		c-2.86,0.01-5.85,2.26-4,6s4.57,7.17,10,5s12-8,12-8L96.5,460z"/>
	<path fill-rule="evenodd" clip-rule="evenodd" fill="#D4EDFC" d="M197.5,480c0,0,17.63,15.16,26,27s26.15,37.24,31,43
		s14.59,19.1,20,29s11,19,11,19l24-24c0,0-31.21-36.52-39-45s-20.59-21.51-23-28s-10-17-10-17s6.72,4.67,21,10s32.21,21.15,33,21
		s20.15,16.02,24,20s15.56,11.84,16,12s14-25,14-25s-36.16-28.55-45-34s-25.26-18.2-31-22s-42-24-42-24L197.5,480z"/>
	<path fill-rule="evenodd" clip-rule="evenodd" fill="#FFFFFF" d="M338.5,537c0,0,6.55,7.67,9,8s6.71-0.88,10-6s8.8-8.01,10-9
		s4.27-5.18,4-8s-0.81-12.85-5-9s-15.65,24.69-20,24s-7-4-7-4L338.5,537z"/>
	<path fill-rule="evenodd" clip-rule="evenodd" fill="#FFFFFF" d="M294.5,589c0.21,0.21,7.28,6.03,4,9s-23.77,17.98-23,20
		s7.37,9.37,10,6s20.35-21.11,20-28s-8-11-8-11S294.29,588.79,294.5,589z"/>
	<path fill-rule="evenodd" clip-rule="evenodd" fill="#FFFFFF" d="M389.5,481c0,0,11.26,11.91,5,17s-15.14,8.72-13,12
		s6.94,1.73,13-3s16.62-16.9,12-21s-10.81-7.72-11-11L389.5,481z"/>
	<path fill-rule="evenodd" clip-rule="evenodd" fill="#FFFFFF" d="M453.5,427c0,0,6.87,12.14,9,12s9.03-0.47,11-4s10.43-9.27,14-11
		s8.46-5.3,7-10s-1.51-13.93-6-8s-18.48,24.44-22,22s-7-10-7-10L453.5,427z"/>
	<path fill-rule="evenodd" clip-rule="evenodd" fill="#FFFFFF" d="M8.5,25c0,0,17.81,42.04,102,31c0,0-123.97,76.56,23,164
		c0,0,6.12,6.58,1,15s-47.73,97.7,44,103c0,0,29.57-1.62,28,14s2.34,58.22,50,35c0,0,54.89,36.67,66-16c0,0,42.14,27.22,74,2
		c0,0,67.24,49.23,79-4c0,0,28.55,16.75,32-8c0,0,73.48,46.12,90-13V33c0,0-318.92-10.91-398-11C120.42,21.91,8.5,25,8.5,25z"/>
	<path fill-rule="evenodd" clip-rule="evenodd" fill="#FCD9B6" d="M294.5,300c0,0,41.33,93.59,53,123s26,66,26,66s28.52-14.81,30-21
		s3-7,3-7s-52.61-103.65-58-117s-8-23-8-23s30.32,23.81,38,32s35,41,35,41s1.34,6.61,6,10s27,30,27,30l26-24c0,0-48.22-52.96-52-55
		s-12.43-12.34-13-16s-7.25-10.99-9-13s-21.94-25.84-23-29s-35-42-35-42S302.27,292.45,294.5,300z"/>
	<path fill-rule="evenodd" clip-rule="evenodd" fill="#BBB3D8" d="M93.5,458l10,9c0,0,30.07-23.29,38-41c0,0,14,14.06,16,18
		s7.82,9.88,9,11s31,25,31,25s3.78-6.97,11-17s20-24,20-24s-32.82-22.06-40-31s-7-9-7-9l-10-9c0,0,21.79-12.75,20-61l-13-1
		c0,0,4.91,37.33-19,65l-23,22C136.5,415,117.28,445.83,93.5,458z"/>
	<path fill-rule="evenodd" clip-rule="evenodd" fill="#FFFFFF" d="M142.5,417c0,0-14.14-9.49-9-21s17.28-16.9,33,1l11,17
		c0,0-4.5,13.46-23,20L142.5,417z"/>
	<path fill-rule="evenodd" clip-rule="evenodd" fill="#E7D5E8" d="M299.5,178c0,0,15.11,14.65,13,20s5,11,5,11s11.2,18.22,16,29
		s8,12,8,12s-0.85,7.24-6,8s-6.13,3.46-9,7s-23.46,19.98-26,25s-6,8-6,8s-5.5-15.06-11-19s-6-14-6-14s-3.91-8.8-7-12s-12-17-12-17
		s-2.48-13.07-3-14s-4-17-4-17s31.48-25.72,35-31C290.02,168.72,299.5,178,299.5,178z"/>
	<path fill-rule="evenodd" clip-rule="evenodd" fill="#E7D5E8" d="M251.5,200c0,0-38.9,33.42-51,54s-18,34-18,34l16,5
		c0,0,34.12-51.63,59-63c0,0,2.62-9.05,3-12S259.48,202.86,251.5,200z"/>
	<path fill-rule="evenodd" clip-rule="evenodd" fill="#E7D5E8" d="M271.5,170c0,0,34.05-29.2,39-33s39.89-20.58,65-29s22-6,22-6
		l4,20c0,0-84.41,34.81-107,62l-3,4c0,0-9.71-5.64-13-9S271.5,170,271.5,170z"/>
	<path fill-rule="evenodd" clip-rule="evenodd" fill="#FFFFFF" d="M255.5,203c0,0,9.46,9.07,6,15s-3.63,13.22-1,22
		c0,0,31.3,0.06,52-35c0,0-7.74,1.39-9-4s-14-13-14-13s-13.04-10.83-14-12s-16.87-20.8-30-12C232.37,172.8,230.46,189.06,255.5,203z
		"/>
	
		<path fill-rule="evenodd" clip-rule="evenodd" fill="none" stroke="#824F9D" stroke-width="2" stroke-linecap="round" stroke-linejoin="round" stroke-miterlimit="10" d="
		M165.5,397c0,0-8.46,17.49-24,20c0,0-16.92-11.54-5-26S165.5,397,165.5,397z"/>
	
		<path fill-rule="evenodd" clip-rule="evenodd" fill="none" stroke="#824F9D" stroke-width="2" stroke-linecap="round" stroke-linejoin="round" stroke-miterlimit="10" d="
		M136.5,403c0,0,0.58-12.63,15-13"/>
	
		<line fill-rule="evenodd" clip-rule="evenodd" fill="none" stroke="#824F9D" stroke-width="2" stroke-linecap="round" stroke-linejoin="round" stroke-miterlimit="10" x1="143.5" y1="398" x2="146.5" y2="401"/>
	
		<path fill-rule="evenodd" clip-rule="evenodd" fill="none" stroke="#824F9D" stroke-width="2" stroke-linecap="round" stroke-linejoin="round" stroke-miterlimit="10" d="
		M141.5,411c0,0,4.73-0.42,6-4"/>
	
		<line fill-rule="evenodd" clip-rule="evenodd" fill="none" stroke="#824F9D" stroke-width="2" stroke-linecap="round" stroke-linejoin="round" stroke-miterlimit="10" x1="144.5" y1="414" x2="143.5" y2="411"/>
	
		<line fill-rule="evenodd" clip-rule="evenodd" fill="none" stroke="#824F9D" stroke-width="2" stroke-linecap="round" stroke-linejoin="round" stroke-miterlimit="10" x1="146.5" y1="413" x2="145.5" y2="410"/>
	
		<line fill-rule="evenodd" clip-rule="evenodd" fill="none" stroke="#824F9D" stroke-width="2" stroke-linecap="round" stroke-linejoin="round" stroke-miterlimit="10" x1="149.5" y1="410" x2="145.5" y2="408"/>
	
		<path fill-rule="evenodd" clip-rule="evenodd" fill="none" stroke="#824F9D" stroke-width="2" stroke-linecap="round" stroke-linejoin="round" stroke-miterlimit="10" d="
		M153.5,401c0,0,4.12-1.74,5-7"/>
	
		<line fill-rule="evenodd" clip-rule="evenodd" fill="none" stroke="#824F9D" stroke-width="2" stroke-linecap="round" stroke-linejoin="round" stroke-miterlimit="10" x1="156.5" y1="403" x2="154.5" y2="400"/>
	
		<line fill-rule="evenodd" clip-rule="evenodd" fill="none" stroke="#824F9D" stroke-width="2" stroke-linecap="round" stroke-linejoin="round" stroke-miterlimit="10" x1="159.5" y1="401" x2="156.5" y2="398"/>
	
		<line fill-rule="evenodd" clip-rule="evenodd" fill="none" stroke="#824F9D" stroke-width="2" stroke-linecap="round" stroke-linejoin="round" stroke-miterlimit="10" x1="160.5" y1="398" x2="157.5" y2="397"/>
	
		<line fill-rule="evenodd" clip-rule="evenodd" fill="none" stroke="#824F9D" stroke-width="2" stroke-linecap="round" stroke-linejoin="round" stroke-miterlimit="10" x1="165.5" y1="397" x2="177.5" y2="415"/>
	
		<path fill-rule="evenodd" clip-rule="evenodd" fill="none" stroke="#824F9D" stroke-width="2" stroke-linecap="round" stroke-linejoin="round" stroke-miterlimit="10" d="
		M164.5,403c0,0,2.16,3.09,4,6s7,11,7,11"/>
	
		<line fill-rule="evenodd" clip-rule="evenodd" fill="none" stroke="#824F9D" stroke-width="2" stroke-linecap="round" stroke-linejoin="round" stroke-miterlimit="10" x1="170.5" y1="420" x2="160.5" y2="406"/>
	
		<line fill-rule="evenodd" clip-rule="evenodd" fill="none" stroke="#824F9D" stroke-width="2" stroke-linecap="round" stroke-linejoin="round" stroke-miterlimit="10" x1="156.5" y1="409" x2="167.5" y2="427"/>
	
		<line fill-rule="evenodd" clip-rule="evenodd" fill="none" stroke="#824F9D" stroke-width="2" stroke-linecap="round" stroke-linejoin="round" stroke-miterlimit="10" x1="163.5" y1="429" x2="152.5" y2="412"/>
	
		<path fill-rule="evenodd" clip-rule="evenodd" fill="none" stroke="#824F9D" stroke-width="2" stroke-linecap="round" stroke-linejoin="round" stroke-miterlimit="10" d="
		M149.5,417c0,0,6.53,12.11,9,15"/>
	
		<line fill-rule="evenodd" clip-rule="evenodd" fill="none" stroke="#824F9D" stroke-width="2" stroke-linecap="round" stroke-linejoin="round" stroke-miterlimit="10" x1="156.5" y1="435" x2="142.5" y2="417"/>
	
		<path fill-rule="evenodd" clip-rule="evenodd" fill="none" stroke="#824F9D" stroke-width="2" stroke-linecap="round" stroke-linejoin="round" stroke-miterlimit="10" d="
		M160.5,391c0,0,15.67-20.7,17-38s0-25,0-25h14c0,0,3.26,49.04-20,64"/>
	
		<path fill-rule="evenodd" clip-rule="evenodd" fill="none" stroke="#824F9D" stroke-width="2" stroke-linecap="round" stroke-linejoin="round" stroke-miterlimit="10" d="
		M175.5,394c0,0,30.31,28.66,33,30s12,9,12,9l8,6c0,0-16.84,22.68-23,29s-8,12-8,12s-31.66-23.4-31-24s-6-5-6-5s-2.28-6.67-4-9
		s-14.44-15.47-14-15"/>
	
		<path fill-rule="evenodd" clip-rule="evenodd" fill="none" stroke="#824F9D" stroke-width="2" stroke-linecap="round" stroke-linejoin="round" stroke-miterlimit="10" d="
		M142.5,425c0,0-17.68,29.26-37,40l-3,2l-9-9c0,0,27.95-21.1,44-45"/>
	
		<path fill-rule="evenodd" clip-rule="evenodd" fill="none" stroke="#824F9D" stroke-width="2" stroke-linecap="round" stroke-linejoin="round" stroke-miterlimit="10" d="
		M228.5,443c0,0,40.18,20.27,46,25s11.8,9.78,15,13s31.79,19.97,35,23s22,18,22,18s-11.91,22.59-15,26c0,0-9.41-7.08-15-12
		s-17.36-16.39-25-21s-7.64-4.44-11-7s-14.43-11.95-18-13s-20.61-4.27-25-10l19,28c0,0,7.32,7.76,10,10s21.44,24.57,27,31
		s16,21,16,21l-25,23c0,0-9.38-17.49-15-27s-11.93-16.81-17-22s-27.41-40.96-31-45s-22-22-22-22"/>
	
		<path fill-rule="evenodd" clip-rule="evenodd" fill="none" stroke="#824F9D" stroke-width="2" stroke-linecap="round" stroke-linejoin="round" stroke-miterlimit="10" d="
		M294.5,589l4,4c0,0,1.57,3.66-3,8s-15,12-15,12s-5.7,3.75-4,6s4.7,7.45,7,6s16.6-17.39,19-21s4.02-9.48,1-13s-5-6-5-6"/>
	
		<line fill-rule="evenodd" clip-rule="evenodd" fill="none" stroke="#824F9D" stroke-width="2" stroke-linecap="round" stroke-linejoin="round" stroke-miterlimit="10" x1="338.5" y1="537" x2="344.5" y2="543"/>
	
		<line fill-rule="evenodd" clip-rule="evenodd" fill="none" stroke="#824F9D" stroke-width="2" stroke-linecap="round" stroke-linejoin="round" stroke-miterlimit="10" x1="453.52" y1="428.57" x2="458.74" y2="435.09"/>
	
		<path fill-rule="evenodd" clip-rule="evenodd" fill="none" stroke="#824F9D" stroke-width="2" stroke-linecap="round" stroke-linejoin="round" stroke-miterlimit="10" d="
		M340.5,533c0,0,2.98,5.8,8,3s9.78-12.76,12-16s6.77-9.7,9-7s3.78,14.27,0,16s-11.2,6.37-12,9s-6.53,9.25-11,7"/>
	
		<path fill-rule="evenodd" clip-rule="evenodd" fill="none" stroke="#824F9D" stroke-width="2" stroke-linecap="round" stroke-linejoin="round" stroke-miterlimit="10" d="
		M461.99,422.76c0,0,2.25,6.05,7.57,3.71c5.31-2.34,11.24-11.83,13.82-14.87c2.59-3.03,7.88-9.05,9.77-6.17
		c1.89,2.89,2.02,14.58-1.93,15.96c-3.96,1.37-11.16,5.79-12.98,7.89c-9.36,10.72-12.89,10.81-17.05,8.16"/>
	
		<path fill-rule="evenodd" clip-rule="evenodd" fill="none" stroke="#824F9D" stroke-width="2" stroke-linecap="round" stroke-linejoin="round" stroke-miterlimit="10" d="
		M251.5,203c0,0,11.61-1.55,15-4s9.76-10.08,14-22"/>
	
		<path fill-rule="evenodd" clip-rule="evenodd" fill="none" stroke="#824F9D" stroke-width="2" stroke-linecap="round" stroke-linejoin="round" stroke-miterlimit="10" d="
		M250.5,200c0,0,13.2-4.06,17-8"/>
	
		<path fill-rule="evenodd" clip-rule="evenodd" fill="none" stroke="#824F9D" stroke-width="2" stroke-linecap="round" stroke-linejoin="round" stroke-miterlimit="10" d="
		M267.5,189c0,0,8.54-6.67,9-13"/>
	
		<path fill-rule="evenodd" clip-rule="evenodd" fill="none" stroke="#824F9D" stroke-width="2" stroke-linecap="round" stroke-linejoin="round" stroke-miterlimit="10" d="
		M264.5,188c0,0,5.37-10.78,6-18"/>
	
		<path fill-rule="evenodd" clip-rule="evenodd" fill="none" stroke="#824F9D" stroke-width="2" stroke-linecap="round" stroke-linejoin="round" stroke-miterlimit="10" d="
		M262.5,191c0,0-7.09,5.98-17,7"/>
	
		<path fill-rule="evenodd" clip-rule="evenodd" fill="none" stroke="#824F9D" stroke-width="2" stroke-linecap="round" stroke-linejoin="round" stroke-miterlimit="10" d="
		M253.5,201c0,0-10.56-7.06-13-10s-7.11-15.48,0-23s19.37-6.2,25-2s13,13,13,13s28.94,29.47,32,35"/>
	
		<path fill-rule="evenodd" clip-rule="evenodd" fill="none" stroke="#824F9D" stroke-width="2" stroke-linecap="round" stroke-linejoin="round" stroke-miterlimit="10" d="
		M242.5,187c0,0-1.82-15.6,18-20"/>
	
		<line fill-rule="evenodd" clip-rule="evenodd" fill="none" stroke="#824F9D" stroke-width="2" stroke-linecap="round" stroke-linejoin="round" stroke-miterlimit="10" x1="253.5" y1="181" x2="258.5" y2="185"/>
	
		<line fill-rule="evenodd" clip-rule="evenodd" fill="none" stroke="#824F9D" stroke-width="2" stroke-linecap="round" stroke-linejoin="round" stroke-miterlimit="10" x1="250.5" y1="190" x2="252.5" y2="192"/>
	
		<line fill-rule="evenodd" clip-rule="evenodd" fill="none" stroke="#824F9D" stroke-width="2" stroke-linecap="round" stroke-linejoin="round" stroke-miterlimit="10" x1="262.5" y1="177" x2="264.5" y2="179"/>
	
		<path fill-rule="evenodd" clip-rule="evenodd" fill="none" stroke="#824F9D" stroke-width="2" stroke-linecap="round" stroke-linejoin="round" stroke-miterlimit="10" d="
		M254.5,200c0,0,6.92,13.35,7,16s-6.91,14.36-2,20"/>
	
		<path fill-rule="evenodd" clip-rule="evenodd" fill="none" stroke="#824F9D" stroke-width="2" stroke-linecap="round" stroke-linejoin="round" stroke-miterlimit="10" d="
		M259.5,202l6,10c0,0,1.27,3.57,0,9s-0.74,8.26,2,11l14,14"/>
	
		<path fill-rule="evenodd" clip-rule="evenodd" fill="none" stroke="#824F9D" stroke-width="2" stroke-linecap="round" stroke-linejoin="round" stroke-miterlimit="10" d="
		M264.5,200l9,11c0,0,2.84,4.46,2,8s-1.17,9.39,2,10s10.23,4.6,9,8"/>
	
		<path fill-rule="evenodd" clip-rule="evenodd" fill="none" stroke="#824F9D" stroke-width="2" stroke-linecap="round" stroke-linejoin="round" stroke-miterlimit="10" d="
		M269.5,196c0,0,12.12,8.19,12,11s-1.2,16.34,5,17s11.44,7.6,12,12"/>
	
		<path fill-rule="evenodd" clip-rule="evenodd" fill="none" stroke="#824F9D" stroke-width="2" stroke-linecap="round" stroke-linejoin="round" stroke-miterlimit="10" d="
		M272.5,191c0,0,10.7,6.43,12,12s2.03,8.95,6,10s9.37,4.75,11,9"/>
	
		<path fill-rule="evenodd" clip-rule="evenodd" fill="none" stroke="#824F9D" stroke-width="2" stroke-linecap="round" stroke-linejoin="round" stroke-miterlimit="10" d="
		M276.5,186c0,0,24.05,23.22,31,32"/>
	
		<path fill-rule="evenodd" clip-rule="evenodd" fill="none" stroke="#824F9D" stroke-width="2" stroke-linecap="round" stroke-linejoin="round" stroke-miterlimit="10" d="
		M282.5,183c0,0,18.66,10.26,20,15s4.21,6.85,14,5"/>
	
		<path fill-rule="evenodd" clip-rule="evenodd" fill="none" stroke="#824F9D" stroke-width="2" stroke-linecap="round" stroke-linejoin="round" stroke-miterlimit="10" d="
		M256.5,231c0,0-6.63,4.19-9,6s-15.82,16.02-22,22s-25.95,29.24-28,39"/>
	
		<path fill-rule="evenodd" clip-rule="evenodd" fill="none" stroke="#824F9D" stroke-width="2" stroke-linecap="round" stroke-linejoin="round" stroke-miterlimit="10" d="
		M198.5,293c0,0-12.33-1.96-16-5c0,0,3.65-5.75,6-12s7.84-16.86,15-28s28.19-31.39,35-37s10-10,10-10"/>
	
		<path fill-rule="evenodd" clip-rule="evenodd" fill="none" stroke="#824F9D" stroke-width="2" stroke-linecap="round" stroke-linejoin="round" stroke-miterlimit="10" d="
		M184.5,289c0,0-3.1,7.94-2,13s3.14,9.52,0,11s-8.39,4.51-7,6s3.84,2.04,5,0s3.48-4.31,4-3s-1.58,4.85,0,6s2.35-6.43,4-6
		s-0.18,6.91,1,8s3.11-0.37,4-3s-0.12-10.29-2-13s-2.59-7.8-1-11s2-6,2-6"/>
	
		<path fill-rule="evenodd" clip-rule="evenodd" fill="none" stroke="#824F9D" stroke-width="2" stroke-linecap="round" stroke-linejoin="round" stroke-miterlimit="10" d="
		M178.5,328c0,0-2.4-5.9,1-9"/>
	
		<path fill-rule="evenodd" clip-rule="evenodd" fill="none" stroke="#824F9D" stroke-width="2" stroke-linecap="round" stroke-linejoin="round" stroke-miterlimit="10" d="
		M188.5,327c0,0,2-1.73,2-5"/>
	
		<path fill-rule="evenodd" clip-rule="evenodd" fill="none" stroke="#824F9D" stroke-width="2" stroke-linecap="round" stroke-linejoin="round" stroke-miterlimit="10" d="
		M256.5,235c0,0,6.58,9.94,9,13s10.23,10.21,11,15s2.43,13.54,7,16s6.38,9.08,7,10s2.86,6.85,3,10s1,2,1,2s5.9-10.24,9-13
		s11.46-11.41,16-15s4.62-6.67,8-9s1.2-3.71,4-5s5.44,1.08,7-1s1-5,1-5"/>
	
		<path fill-rule="evenodd" clip-rule="evenodd" fill="none" stroke="#824F9D" stroke-width="2" stroke-linecap="round" stroke-linejoin="round" stroke-miterlimit="10" d="
		M346.5,255c0,0-10.56-9.73-13-17s-13.51-27.86-14-28s-8.31-6.01-8-10s-0.17-6.81-2-9s-8-10-8-10"/>
	
		<path fill-rule="evenodd" clip-rule="evenodd" fill="none" stroke="#824F9D" stroke-width="2" stroke-linecap="round" stroke-linejoin="round" stroke-miterlimit="10" d="
		M295.5,303c0,0,20.42,44.24,27,61s21.99,47.95,24,57s12.72,37.81,16,47s11,22,11,22s24.48-14.37,27-18s6.11-10.3,8-12"/>
	
		<path fill-rule="evenodd" clip-rule="evenodd" fill="none" stroke="#824F9D" stroke-width="2" stroke-linecap="round" stroke-linejoin="round" stroke-miterlimit="10" d="
		M404.5,460c0,0-8.29-17.35-11-25s-11.21-20.16-12-22s-12.39-27.25-19-40s-9.65-20.95-12-28s-11.6-26.86-13-30"/>
	
		<path fill-rule="evenodd" clip-rule="evenodd" fill="none" stroke="#824F9D" stroke-width="2" stroke-linecap="round" stroke-linejoin="round" stroke-miterlimit="10" d="
		M334.5,319c0,0,24.16,17.12,27,21s18.67,15.97,22,20s19.98,23.14,22,26s8.79,9.29,9,13s0.21,3.59,3,5s19.13,19.83,24,26s4,5,4,5
		l28-25c0,0-18.33-15.84-23-22s-31.67-34.02-34-37s-7.22-4.45-9-11s-2.86-9.53-7-12s-12.73-13.61-15-20s-10.24-12.48-13-16
		s-20.12-19.62-27-31"/>
	
		<path fill-rule="evenodd" clip-rule="evenodd" fill="none" stroke="#824F9D" stroke-width="2" stroke-linecap="round" stroke-linejoin="round" stroke-miterlimit="10" d="
		M388.5,480l6,9c0,0,4.39,6.47-2,11s-13.29,6.81-12,9s2.66,5.43,8,3s17.16-13.42,18-18s-0.56-9.32-4-11s-6-8-6-8"/>
	
		<path fill-rule="evenodd" clip-rule="evenodd" fill="none" stroke="#824F9D" stroke-width="2" stroke-linecap="round" stroke-linejoin="round" stroke-miterlimit="10" d="
		M99.5,464c0,0-5.23,3.55-9,6c0,0-8.39,4.24-10,2c-1.61-2.24-8.57-10.68-1-11c7.57-0.32,5.54,0.14,7,4c0,0,5.67-1.78,9-4"/>
	
		<path fill-rule="evenodd" clip-rule="evenodd" fill="none" stroke="#824F9D" stroke-width="2" stroke-linecap="round" stroke-linejoin="round" stroke-miterlimit="10" d="
		M294.5,184c-0.03-0.71,4.4-8.19,15-14s28.1-17.98,35-21s20.69-9.01,29-13s29.07-13.2,29.07-13.2l-4.59-21.53
		c0,0-57.19,13.42-74.48,25.73s-24.61,19.86-29,23s-15,12-15,12"/>
	
		<path fill-rule="evenodd" clip-rule="evenodd" fill="none" stroke="#824F9D" stroke-width="2" stroke-linecap="round" stroke-linejoin="round" stroke-miterlimit="10" d="
		M400.5,110c0,0,9.8-4.21,13-7s-3.32-13.79,1-12c3.47,1.44,2.68,5.87,2.73,5.88c0.02,0.01,0.08-0.25,0.27-0.88
		c0.96-3.21,8.8-15.03,10-10s-12.97,16.74-5,13s13.91-7.79,15-4s-17.67,5.97-12,7s7.97-2.91,10,1c2.03,3.91-11.56,1.03-9,3
		s9.09,6.14,6,6s-7.84-5.15-12-3s-19,10-19,10"/>
	
		<path fill-rule="evenodd" clip-rule="evenodd" fill="none" stroke="#824F9D" stroke-width="2" stroke-linecap="round" stroke-linejoin="round" stroke-miterlimit="10" d="
		M4.5,27c0,0,19.59,45.16,99,30c0,0-57.31,14.47-37,80c20.31,65.53,64,82,64,82s4.3,1.08,0,12s-52.96,94.28,42,108"/>
	
		<path fill-rule="evenodd" clip-rule="evenodd" fill="none" stroke="#824F9D" stroke-width="2" stroke-linecap="round" stroke-linejoin="round" stroke-miterlimit="10" d="
		M198.5,341c0,0,10.69,1.68,7,13s1.91,57.1,49,35c0,0,4.42,0.49,10,6s46.23,19.53,54-14"/>
	
		<path fill-rule="evenodd" clip-rule="evenodd" fill="none" stroke="#824F9D" stroke-width="2" stroke-linecap="round" stroke-linejoin="round" stroke-miterlimit="10" d="
		M372.5,384c0,0,10.19,1,19-7"/>
	
		<path fill-rule="evenodd" clip-rule="evenodd" fill="none" stroke="#824F9D" stroke-width="2" stroke-linecap="round" stroke-linejoin="round" stroke-miterlimit="10" d="
		M461.5,394c0,0,11.89-6.19,15-24c0,0,18.56,17.68,30-4c0,0,57.78,41.02,95-20"/>
</g>
<path fill-rule="evenodd" clip-rule="evenodd" fill="none" stroke="#7C4697" stroke-width="2" stroke-linecap="round" stroke-linejoin="round" stroke-miterlimit="10" d="
	M528.5,601c0,0-31.69-15.48-46,16c0,0-25.59-7.37-46-4s-63.13,58.06,7,71c0,0-27.16,49.61,23,44c0,0,2.24,38.26,68-7"/>
</svg>
