<svg version="1.1" id="圖層_1" xmlns="http://www.w3.org/2000/svg" xmlns:xlink="http://www.w3.org/1999/xlink" x="0px" y="0px"
	 width="564.333px" height="171.167px" viewBox="0 0 564.333 171.167" enable-background="new 0 0 564.333 171.167"
	 xml:space="preserve">
<g>
	<path fill-rule="evenodd" clip-rule="evenodd" fill="#7C4697" d="M188.42,38.847c16.47-2.29,12.6,25.67,5.37,34.3
		c-2.91,3.47-7.66,6.8-11.37,8.73c-3.85,2-8.25,3.27-11.69,4.06c0.92-2,3.4-2.16,5.05-2.81c1.81-0.71,3.87-1.28,5.69-2.18
		c11.26-5.6,18.94-17.78,17.06-32.13c-0.42-3.18-2.33-7.89-5.69-8.73c-1.63-0.41-4.13,0.88-6,0.63c3.43-11.21,1.64-26.53-6.32-31.19
		c-5.87-2.75-11.88-7.58-19.9-4.99c-7.78,2.51-15,10.71-16.11,19.02c-22.81-3.97-22.28,29.53-10.11,38.05
		c-3.4,1.55-4.9,5.9-4.42,9.67c1.12,8.85,14.65,11.97,24.01,9.67c0.67-3.61-1.7-5.76-0.95-8.42c1.12,0.99,1.73,3.16,1.89,4.36
		c2.13,15.2,0.8,30.79-0.63,46.47c-0.27,3.02-1.5,5.78-1.89,8.73c-0.46,3.44-0.31,6.35-0.95,9.36c-1.03,4.87-3.23,9.95-4.74,15.28
		c5.98-2.07,13.31-6.76,22.11-5.3c-2.73,2.53-6.5,0.9-10.11,1.55c-4.93,0.9-8.86,5.69-13.26,5.62c1.88-8.68,4.69-15.47,5.68-24.64
		c0.4-3.62,1.84-7.12,2.21-10.91c1.29-12.98,2.54-26.75,0.64-40.86c-7.97,1.89-18.25,0.06-22.75-5.3
		c-3.21-3.82-3.99-11.98,1.26-15.28c-11.28-9.3-11.61-42.49,11.38-39.6c0.81-2.09,0.5-3.82,1.26-5.62
		c2.39-5.63,11.94-13.68,19.59-13.72c9.73-0.05,19.25,6.7,22.74,13.1C190.88,22.017,190.21,31.637,188.42,38.847z"/>
	<path fill-rule="evenodd" clip-rule="evenodd" fill="#7C4697" d="M166.31,67.216c0.51-0.08,0.54,0.3,0.94,0.32
		c1.37,12.88,4.15,29.75,4.11,46.77c1.35-0.02,2.21-0.52,3.79-0.31c1.47,7.18,3.64,13.67,4.42,21.52c1.66,1.19,3.38-0.99,4.74,0
		c2.91,6.41,3.18,13.51,6.01,19.96c-3.25,1.86-8.09,3.57-12.64,3.12c-1.5-6.13-4.92-11.97-4.74-18.71c0.82-1.38,2.45-1.95,3.16-3.43
		c-0.92-3.58-2.92-7.71-2.84-11.23c3.06,4.87,3.88,11.97,6,17.78c0.44,0.98,1.56-0.43,1.89,0.31c-0.52,0.83-0.89,1.82-1.89,2.18
		c-1.39-1.75-1.95-4.32-2.53-6.86c-1.3,0.17-1.91,1.02-2.53,1.87c0.77,6.63,2.82,11.98,5.06,17.15c3.36-0.53,6.04-1.73,9.16-2.49
		c-1.65-6.06-3.38-12.06-4.74-18.4c-0.53-0.51-2.04,0.68-3.47,0.31c0.13,1.67,1.7,4.43,0.63,5.3c-1.42-1.79-2.31-5.45-2.85-8.11
		c-1.25-6.23-2.02-12.93-3.47-19.02c-1.27-0.21-1.8,0.3-2.84,0.31c0.12,2.48,1.8,6.4,0.63,8.11c-1.54-0.65-1.06-2.73-1.26-4.05
		c-0.78-4.95-0.97-10.46-1.27-16.84c-0.55-11.74-2.53-24.71-3.79-34.31C165.9,67.807,166.17,67.646,166.31,67.216z"/>
</g>
<g>
	<path fill-rule="evenodd" clip-rule="evenodd" fill="#7C4697" d="M234.52,100.026c0.95-0.11,0.93,0.75,1.08,1.44
		C234.31,101.756,233.81,100.696,234.52,100.026z"/>
	<path fill-rule="evenodd" clip-rule="evenodd" fill="#7C4697" d="M226.96,101.827c-0.2,1.03-1.69,1.47-1.8,0
		C225.63,101.367,226.49,101.367,226.96,101.827z"/>
	<path fill-rule="evenodd" clip-rule="evenodd" fill="#7C4697" d="M224.8,105.426c1.74,1.05-0.6,3.2-1.08,4.32
		c-1.04-0.52-1.48-1.64-1.8-2.88C223.16,107.057,224.01,107.146,224.8,105.426z"/>
	<path fill-rule="evenodd" clip-rule="evenodd" fill="#7C4697" d="M242.8,130.267c0.48,0.64,2.08,1.11,2.88,0.36
		c0.26-0.98-0.72-0.72-0.72-1.44C244.06,129.367,243.48,129.867,242.8,130.267z M241,128.466c1.34-0.38,1.16,0.76,1.8,1.08
		c0.17-0.82,0.71-1.84,0-2.52C241.74,127.046,241.46,127.847,241,128.466z M239.56,105.426c1.47,0.33,1.55,2.05,2.16,3.24
		c0.89-0.43,0.43-2.21,2.16-1.8c-0.84,1.8-1.57,3.71-3.24,4.68c0.11,0.73,0.72,0.96,1.08,1.44c0.93-0.63,0.66-2.46,2.52-2.16
		c-0.69,2.19-1.43,4.33-3.6,5.04c-0.26,1.1,0.62,1.06,0.36,2.16c1.62,0.06,0.89-2.23,2.88-1.8c-3.58,3.49-3.12,10.75,2.52,12.24
		c0.3,1.39,0.18,2.9-0.72,3.96c-3.76,0.64-3.38-2.86-6.12-3.24c0.67-0.89,0.41-2.71,1.8-2.88c-1.91-3.8-0.8-8.41-2.52-12.24
		c1.45-0.85,0.88,0.57,2.16,0.72c0.39-0.09,0.24-0.72,0.72-0.72c-1.64-0.4-2.15-1.93-3.24-2.88c0.38-1.59,1.63-0.44,2.52-1.08
		C240.96,108.236,238.73,107.006,239.56,105.426z"/>
	<path fill-rule="evenodd" clip-rule="evenodd" fill="#7C4697" d="M255.04,107.586c1.74,0.17,0.29,3.2,1.08,5.04
		c1.74-0.54,1.83-2.73,3.6-3.24c-0.37,2.45-2.11,4.43-1.8,6.48c1.64-0.04,1.34-2.02,2.88-2.16c0.84,1.81-1.9,2.81-2.88,3.96
		c-0.34,3.86-1.96,6.44-2.88,9.72c-1.65-1.26,0.2-3.41,0.36-5.04c-0.11-0.49-0.9-0.3-1.44-0.36c-0.96,0.96-0.74,3.1-2.16,3.6
		c1.24,2.12,4.01,2.71,6.12,3.96v1.08c-0.23,1.33-1.23,1.89-2.52,2.16c0.08,0.64-0.36,1.8,0.72,1.44c-0.61,1.2-2.67,0.37-3.6,0.36
		c0.06-1.02,0.66-1.5,0.72-2.52c1.39,1.35,2.44-0.57,3.6-1.44c-0.36-0.84-1.24-1.16-2.52-1.08c-0.66,0.42-0.25,1.91-1.8,1.44
		c-0.51-0.51,0.08-1.75,0.36-2.52c-0.2-0.52-0.56-0.88-1.08-1.08c-2.2,0.2-1.5,3.57-0.36,4.32c-0.32,0.28-0.81,0.39-1.44,0.36
		c0,1.2,0.91,1.49,1.44,2.16c-0.65,1.11-1.1,0.19-2.52,0.36c-0.33-0.63-0.12-1.8-0.72-2.16c0.09-0.63,0.62-0.82,1.44-0.72
		c-0.71-1.9-0.68-5.88,1.8-5.76c1.17-3.81,2.38-9.15,2.16-12.24h1.44c-0.14,1.58,1.03,1.85,1.08,3.24c-0.72,0.6-0.46-0.03-1.44,0
		c0.19,1.39-0.64,1.76-0.36,3.24c-0.17,0.71,1.65,1.16,1.8,0.36c0.06-1.59-1.02,0.17-1.44-0.72c1.67-0.97,2.65-2.63,2.16-5.76
		C254.47,113.207,254.08,109.957,255.04,107.586z"/>
	<path fill-rule="evenodd" clip-rule="evenodd" fill="#7C4697" d="M251.08,108.667c0.58-0.1,0.62,0.34,1.08,0.36
		c-1.47,1.53-1.8,4.2-2.52,6.48c1.51,0.07,1.11-1.77,2.88-1.44c-0.37,1.91-1.95,2.61-2.88,3.96c-0.31,3.45-0.66,8.65-3.6,8.28
		c0.95-1.01,2.41-4.65,0.36-5.4c-1.42,0.98-0.33,4.47-2.16,5.04c1.37-3.19,0.07-9.05,2.16-11.52c-0.04,1.76,0.19,3.79-0.36,5.04
		c0.1,0.76,0.96-0.52,1.44,0.36c0.5-2.54-0.81-3.27-0.72-5.4h1.44c-0.55-1.61-1.45-2.87-1.08-5.4c1.63,0.17,0.88,2.72,1.44,3.96
		C250.27,112.417,249.54,109.407,251.08,108.667z"/>
	<path fill-rule="evenodd" clip-rule="evenodd" fill="#7C4697" d="M252.88,109.747c0.29,0.19,0.58,0.38,1.08,0.36
		c0.26,0.98-0.71,0.73-0.72,1.44C252.32,111.506,252.39,110.207,252.88,109.747z"/>
	<path fill-rule="evenodd" clip-rule="evenodd" fill="#7C4697" d="M235.96,110.466c1.11-0.06,1.62,1.27,1.08,1.8
		C235.96,112.296,235.21,111.207,235.96,110.466z"/>
	<path fill-rule="evenodd" clip-rule="evenodd" fill="#7C4697" d="M263.32,118.026v3.96c-2.81,0.79-1.8,5.4-5.4,5.4
		c-0.43-1.11-0.46-2.12,0.72-2.88c0.19-1.31-1.58-1.62-0.72-2.52c1.49-0.41,1.4,0.76,2.52,0.72c-1.12-1.34-3.4-2.45-1.44-4.32
		c1.58,0.22,0.94,2.66,2.16,3.24C261.4,120.957,260.57,117.247,263.32,118.026z"/>
	<path fill-rule="evenodd" clip-rule="evenodd" fill="#7C4697" d="M221.56,124.146c-2.22-0.18-3.21-1.59-3.6-3.6
		c1.5-0.18,2.44,0.2,3.24,0.72C221.04,122.506,221.34,123.287,221.56,124.146z"/>
	<path fill-rule="evenodd" clip-rule="evenodd" fill="#7C4697" d="M260.8,129.187c1.44-0.24,1.45,0.95,1.44,2.16
		C260.71,131.676,260.7,130.486,260.8,129.187z"/>
	<path fill-rule="evenodd" clip-rule="evenodd" fill="#7C4697" d="M221.56,133.506c-0.73-0.23-0.1-1.82-1.44-1.44
		C219.81,133.126,221.09,134.407,221.56,133.506z M219.76,130.626c1.55-0.11,1.52,1.36,3.24,1.08c-0.29,1.39-0.79,2.57-1.8,3.24
		c-1.83-0.21-2.54-1.54-2.52-3.6C218.97,131.037,219.67,131.137,219.76,130.626z"/>
	<path fill-rule="evenodd" clip-rule="evenodd" fill="#7C4697" d="M258.64,133.867h1.44c-0.05,0.65,0.44,0.76,0.36,1.44
		C259.21,135.457,258.39,135.196,258.64,133.867z"/>
	<path fill-rule="evenodd" clip-rule="evenodd" fill="#7C4697" d="M237.04,148.986c1.01,5.23,3.79,8.69,10.44,8.28
		c0.19-4.09-0.49-8.41-1.08-10.44C242.49,146.026,239.87,147.727,237.04,148.986z M248.56,148.986c0.54,2.67,0.33,6.03,0,7.92
		c5.82-0.1,9.04-6.51,8.28-10.8C254.42,147.407,250.84,147.546,248.56,148.986z M248.2,147.187c3.02-0.7,5.77-1.67,8.64-2.52
		c-1.25-4.39-3.78-7.5-9-7.92C247.45,140.037,248.33,144.816,248.2,147.187z M237.04,147.546c2.05-2.13,6.41-2.7,9.72-2.52
		c0.2-3.64-0.53-6.04,0-8.28C241.1,136.247,234.2,140.767,237.04,147.546z M216.52,137.106c-2.06,4.3-3.75,8.97-5.76,13.32
		c1.49-0.41,1.4,0.76,2.52,0.72c1.82-5.5,4.58-10.06,7.56-14.4C218.97,137.006,218.71,136.926,216.52,137.106z M223,136.747
		c-1.4,2.44-3.74,3.94-4.68,6.84c5.67-0.84,12.62,0.18,16.92-0.72c0.1-3.38,2.59-4.37,3.96-6.48
		C232.98,136.586,227.71,137.097,223,136.747z M228.76,129.907c-0.12-1.61-1.23-1.45-2.16-0.72c-0.53-0.85-0.76-0.67-0.36-1.8
		c-0.5,0.02-0.79-0.17-1.08-0.36C224.02,128.966,226.79,131.017,228.76,129.907z M233.8,127.026c-0.89,0.93,0.35,1.77,0,3.24
		c1.18,0.8,3.12,1.69,3.96,0C237.36,128.426,235.03,126.867,233.8,127.026z M221.56,126.667H223c-0.21-0.63,0.44-2.11-0.36-2.16
		C222.5,125.446,221.57,125.597,221.56,126.667z M221.56,109.747c2.09-0.29,1.45,2.15,2.52,2.88c1.29-0.39,0.05-3.31,1.8-3.24
		c0.66,1.41-0.59,3.62-1.44,4.68c0.51,0.73,1.24-0.35,2.16,0.36c-0.93,3.65-1.11,6.57,1.08,9.36c2.34-2.5-0.28-5.45-0.36-8.64
		c2.17,0.35,1.21,3.83,2.16,5.4c1-0.2,1.16-1.24,2.16-1.44c-0.57-0.87-1.29-1.59-2.16-2.16c0.1-0.74,0.96-0.72,1.44-1.08
		c-0.79-1.49-2.64-1.92-2.52-4.32c0.99-0.8,1.83,1.82,2.52-0.36c0.59-1.13-1.59-2.11-1.44-3.96c1.64-0.32,1.46,1.18,1.8,2.16
		c1.03-0.29,0.23-2.41,1.8-2.16c1.18,2.58-3.53,5.2-1.8,7.2c0.81-0.15,0.01-1.91,0.72-2.16c0.69,0.67,0.9,0.04,1.8,0
		c0.38,1.35-2.05,3.33-0.72,5.76c0.57,0.64,2.1-2.24,3.24-1.08c-0.34,1.7-2.3,1.78-2.88,3.24c0.64,1.04,0.65,2.71,1.44,3.6
		c0.47-0.97,0.87-2.01,1.44-2.88c1.16-0.32,0.75,0.93,1.44,1.08c0.2-2.53-2.25-7.18,0-8.28c-0.06,3.48,0.58,8.57,1.44,12.24
		c-1.26-0.3-0.85-2.27-1.44-3.24c-1.26,0.42-1.18,2.18-2.16,2.88c2.14,1.12,5.17,7.08-0.36,6.84c-0.29,1.25,0.54,1.38,0.36,2.52
		c0.85-0.25,3.22-0.83,3.96,0c0.81-0.15,0.01-1.91,0.72-2.16c1.14,0.49,1.2,0.08,2.52,0c0.2,0.52-0.42,1.86,0.36,1.8
		c1.19-0.01,0.62-1.78,2.16-1.44c1.68,0.02-0.42,0.82-0.36,1.44c3.2,1.38,7.79,0.3,11.88,1.08c1.29-0.3-0.93-1.86,0.36-2.16
		c1.63,0.23,0.84,1.23,0.72,2.52c1.25,0.43,2.58,0.78,4.32,0.72c2.91-4.9,2.37-12.36,2.88-18.36c2.72,5.3,0.41,14.81-1.8,20.16
		c-3.46,0.37-6.32-2.15-8.64-0.72c1.96,2.12,2.71,5.45,4.68,7.56c-1.33,8.43-5.77,14.58-15.12,13.32c-6.35-0.86-9.1-6.93-9-13.68
		c-5.45-0.53-11.68-0.49-17.64,0c-1.57,2.27-2.54,5.14-3.6,7.92c-1.76-0.64-3.62-1.18-5.4-1.8c2.22-4.14,4.35-8.37,5.76-13.32
		c-5.95-1.61-12.98,4.38-17.28,1.08v-6.48c6.52-0.56,11.91-2.25,17.64-3.6c0.11-1.67,0-3.12-0.72-3.96
		c-6.39,0.56-10.23,2.08-16.92,1.8c-1.38-2.04,2.27-5.45-0.36-6.48c3.17-3.26,9.15-1.86,14.4-2.52c2.45-0.31,4.82-1.07,7.2-1.08
		c0.21,1.17-0.24,1.68-0.36,2.52c-4.96-1.22-12.25,1.31-18,0.72c-0.9,1.38-1.25,3.31-1.8,5.04c5.21,0.92,10.5-1.53,16.56-1.8
		c1.3,2.26,1.43,4.24,1.44,7.2c-5.99,1.09-11.2,2.96-17.64,3.6v3.96c0.04,0.68,1.19,0.25,1.08,1.08c9.78-3.99,21.56-3.35,33.12-3.96
		c-1.03-0.65-1.25-2.11-1.44-3.6c2-0.44,1.07,2.05,2.52,2.16c0.48-1.33-1.57-3.23-2.16-4.68c0.28-2,1.3-3.26,3.24-3.6
		c-1.81-0.71-1.47-3.57-3.24-4.32c-1.47,0.49-0.97,2.62-0.72,3.96c-0.79-0.95-1.55-0.58-2.88-0.36c0.45,0.48,1.08,0.71,0.36,1.44
		c-1.9-0.62-2.56-2.48-3.24-4.32c-2.1,0.69-0.86,1.74-0.72,3.6c1.94,0.94,3.54,2.22,5.4,3.24v2.16c-0.79,0.41-1.47,0.93-2.88,0.72
		c-0.52,1.81,1.31,2.47,0.36,3.6c-1.81-0.95-1.94-3.58-2.88-5.4c-1.59,0.95-2.12-0.56-2.52-1.8c-1.34-0.51-2.11,0.27-3.24-0.72
		c0.12-0.84,0.43-1.49,0.72-2.16c2.06,0.98,1.58-0.84,3.24-1.08c-1.27-0.92-0.58-3.2,0.72-3.6c-0.18-1.02-2.3-0.1-1.8-1.8
		c1.01-0.97,1.48,0.64,2.88,0.36c0.51-1.96-3.12-1.66-2.52-2.52c-0.05-1.59,1.87-0.32,2.16,0
		C225.54,113.336,220.48,112.267,221.56,109.747z"/>
</g>
<g>
	<path fill-rule="evenodd" clip-rule="evenodd" fill="#7C4697" d="M342.44,100.146c1.26,0.18,2.34,0.54,3.96,0.36
		c-0.31-3.52,0.65-6.74-0.36-9C342.22,92.267,342.7,96.606,342.44,100.146z M325.16,87.907c-0.37,3.71-0.54,7.62-0.72,11.52
		c4.11,0.77,6.36,1.27,11.52,1.08c0.77-3.64,0.51-7.45,0.72-12.24C332.49,88.167,329.11,87.327,325.16,87.907z M324.8,83.586
		c0.19,1.51-0.63,2.01-0.72,3.24c3.76-1.06,8.03-0.05,12.6,0c0.49-1.19,0.48-2.88,0.72-4.32
		C333.19,82.856,329.61,83.836,324.8,83.586z M353.6,82.867c0.11,1.79-0.06,3.3-0.36,4.68c4.45-1.26,10.31-0.54,13.68-1.44
		c0.09-1.89-0.88-2.72-1.08-4.32C362.77,81.267,357.12,81.756,353.6,82.867z M346.04,72.066c-1.77,2.76-6.16,5.7-7.2,8.64
		c-1.94,5.49-0.03,12.3-1.08,18.36c0.32,1.16-0.93,0.75-1.08,1.44c1.8,0.24,2.79-0.33,4.32-0.36c-0.29-5.57,0.85-9.71,5.76-10.08
		c2.41,2.92,0.97,6.84,1.08,10.44c6.84,0.29,12.86-0.66,18.36,0c0.59-3.61,0.35-9.6,0-12.96c-3.94,0.86-9.51,0.09-12.96,1.44
		c-1.33,3.65,1.97,9.69-1.8,10.8c0.48-6.8,0.03-14,1.44-20.88C350.17,77.057,348.52,74.146,346.04,72.066z M349.28,73.506
		c2.17,1.67,3.83,3.85,5.76,5.76c0.25,1.12-2.01,1.55-0.72,2.52c3.81-1.78,9.23-2.22,12.96-0.72c0.1,2.42,1.08,3.96,1.44,6.12
		c-2.06,0.1-0.68,3.64-1.08,5.4c8.42,0.24,12.75-13.52,3.96-16.2c6.15-7.28-7.11-14.49-11.16-5.76
		C359.2,61.426,350.19,68.146,349.28,73.506z M361.16,67.747c5.07-6.54,16.76-0.07,12.6,7.56c3.02,2.02,4.79,5.29,4.32,10.8
		c-2.49,3.17-5.2,7.98-10.08,7.56c0.01,2.17-0.61,3.71-0.36,6.12c2.27,1.09,6.1,0.62,9.36,0.72c-0.93,3.01-6.46,1.14-10.08,1.44
		c-13.6,1.15-32.87-0.89-43.2-0.36c-0.64-0.44-1.04-1.12-1.8-1.44c-1.6,0.01-4.65,0.92-6.48,0.36c0.72-2.28,5.05-0.95,7.2-1.8
		c1.27-3,0.6-5.91,1.08-9.36c0.32-1.16-1.17-0.51-1.44-1.08c1.01-1.99,1.22-4.78,2.16-6.84c2.95,2.21,7.99-0.21,12.24,0
		c1.21-0.33,0.18-0.67,0.36-1.8c4.14-1.74,5.47-6.29,8.28-9.36c1.17,0.39,2.19,0.93,2.88,1.8
		C350.38,67.986,357.81,60.097,361.16,67.747z"/>
	<path fill-rule="evenodd" clip-rule="evenodd" fill="#7C4697" d="M298.52,78.907c0.75,0.81,2.68,0.44,3.6,1.08
		c3.49,5.99-0.9,13.12-5.76,14.4c1.76-2.72,8.4-7.25,4.68-13.32c-1.63-0.83-3.21,0.56-4.32,0c1.72-3.71-0.53-9.71-3.6-11.88
		c-5.34-0.78-6.76,2.36-8.64,5.04c-0.52-0.56-1.84-0.32-2.88-0.36c-6.52,3.61-0.52,18.09,5.76,16.92c1.3-0.24,2.47-1.08,1.8-2.88
		c2.2,3.25,2.43,13.49,3.6,19.44c0.35,1.77,2.25,3.48-0.36,4.32c-0.9-5.12-2.95-13.73-2.52-20.16
		c-11.84,4.37-9.02-16.69-20.16-11.88c0-0.71,0.98-0.46,0.72-1.44c-8.78-1.16-13.1,17.67-2.52,18.72c-0.95,1.81-3.33,2.19-3.96,4.32
		c0.9,4.92,5.01,8.19,10.8,6.12c-0.07-3.1-1.35-6.74-0.72-9.36c3.09,6.95,1.68,17.67,2.16,25.2c-3.04-2.36-0.7-10.1-1.44-14.76
		c-6.07,3.75-15.85-5.33-9.72-10.44c-6.78-3.63-4.77-15.94,0.36-20.16c4.14-0.95,8-0.61,11.88,1.08c1.72-2.78,2.38-7.51,6.84-6.48
		C288.42,64.336,299.77,68.207,298.52,78.907z"/>
	<path fill-rule="evenodd" clip-rule="evenodd" fill="#7C4697" d="M343.16,83.227c-0.48-1.35,1.07-2.49,0-3.24
		C342.21,80.157,341.98,83.097,343.16,83.227z M344.6,78.907c0.17,1.51-0.51,3.87,0.72,4.32c-0.1,1.46-2.47,0.65-2.88,1.8
		c-1.62-0.65-0.69-3.87-1.44-5.4C342.05,79.236,343.07,78.816,344.6,78.907z"/>
	<path fill-rule="evenodd" clip-rule="evenodd" fill="#7C4697" d="M348.2,82.146c0.95,0.11,0.93-0.75,1.08-1.44
		c-0.46-0.02-0.5-0.46-1.08-0.36V82.146z M349.28,78.907c1.1,0.95,1.16,2.92,1.08,5.04c-1.65-0.13-2.67,0.73-3.96,0.36
		c0.06-1.74,1.11-3.18,0.36-4.68C347.4,79.187,348.85,79.557,349.28,78.907z"/>
	<path fill-rule="evenodd" clip-rule="evenodd" fill="#7C4697" d="M292.76,86.106c3.12,6.7,1.56,18.39,5.4,25.2
		c-1.3,0.39-3.28,1.57-4.68,0.72c0.68-0.64,1.45-1.19,2.88-1.08C293.85,103.646,293.22,93.526,292.76,86.106z"/>
	<path fill-rule="evenodd" clip-rule="evenodd" fill="#7C4697" d="M303.92,95.106c0.8,0.16,0.15,1.77,0.36,2.52
		c4.59,0.49,8.57-0.88,11.16-0.36c-0.3-1.02,0.51-0.93,0.36-1.8C313.5,93.747,306.74,94.086,303.92,95.106z M316.52,98.707
		c-1.81-0.61-1.26,1.14-1.8,1.8c-1.07-0.01-0.46-1.7-1.08-2.16c-2.47,1.06-4.92,0.25-7.56,0.72c-0.71,0.92,0.37,1.66-0.36,2.16
		c-0.42-0.06-0.64,0.08-0.72,0.36c-1.23-1.21,0.28-3.86-2.16-3.24c0.12-2.24,0.12-2.44,0-4.68
		C307.74,92.986,319.21,90.937,316.52,98.707z"/>
	<path fill-rule="evenodd" clip-rule="evenodd" fill="#7C4697" d="M285.56,93.307c6.67,1.95,3.75,16.62-4.32,13.32
		c0.9-1.62,3.7-1.34,5.4-2.16c2.3-2.55,2.4-8.71-1.44-9.72C285.15,94.097,285.64,93.986,285.56,93.307z"/>
	<path fill-rule="evenodd" clip-rule="evenodd" fill="#7C4697" d="M279.8,97.267c0.53,7,0.54,17.02,3.6,24.12
		c-1.66,0.27-4.7,1.05-6.12,0.36c0.17-1.99,3.67-0.65,4.68-1.8C279.01,113.926,278.31,103.867,279.8,97.267z"/>
	<path fill-rule="evenodd" clip-rule="evenodd" fill="#7C4697" d="M389.24,79.626c0.85,0.71,2.41,0.71,3.6,1.08
		c1.04,2.46-0.85,4.78-2.52,4.32c-0.3-1.86,2.37-0.75,1.8-2.88c-0.26-0.34-0.65-0.54-1.08-0.72c-0.72,0.48-0.05,2.35-1.8,1.8
		c-0.86,1.2,0.94,1.76,0,2.88C386.9,85.566,388.25,80.997,389.24,79.626z"/>
	<path fill-rule="evenodd" clip-rule="evenodd" fill="#7C4697" d="M380.6,96.907c0.26,1.34-0.61,1.55-0.36,2.88
		c0.84,0.12,1.35,0.57,2.52,0.36c-0.23-1.21,0.46-3.34-0.36-3.96C382.09,96.716,381.49,96.957,380.6,96.907z M393.92,101.227
		c1.12-0.04,1.03,1.13,2.52,0.72c-0.04-2.57-0.01-4.85,0.36-6.12h-2.88V101.227z M386.36,100.146c1.41-0.09,1.34,1.3,2.88,1.08v-5.4
		h-2.88V100.146z M380.24,95.466c0.74,0.64,2-0.39,2.88-0.72c-0.15-0.69-0.13-1.55-1.08-1.44
		C381.77,94.356,380.1,94.006,380.24,95.466z M401.12,93.307c-0.02,0.5,0.17,0.79,0.36,1.08c0.95,0.11,1.18-0.5,1.08-1.44
		C401.93,92.917,401.44,93.026,401.12,93.307z M386.36,94.387c0.52,0.56,1.84,0.32,2.88,0.36c0.18-0.82,0.71-1.84,0-2.52
		C387.64,92.316,386.67,93.017,386.36,94.387z M393.92,94.026c1.34,0.65,1.47-0.22,2.88,0.36v-1.8c-0.9,0.06-1.11-0.57-1.8-0.72
		C394.68,92.626,393.9,92.926,393.92,94.026z M396.08,89.707c0.09,2.19,2.84,1.72,2.16,4.68c1.8-0.51,0.71-3.16,2.88-2.52
		c-0.46-1.58-2.18-1.9-3.24-2.88C397.42,89.917,397.14,90.117,396.08,89.707z M383.84,90.787c0.68,1-0.35,3.71,1.08,3.96
		c0.24-1.92,1.71-2.61,2.88-3.6c-1.1-0.22-0.7-1.94-1.8-2.16C386.13,90.437,384.31,89.937,383.84,90.787z M390.32,90.787
		c0.14,1.76,0.98,2.26,0.36,3.96c0.84-0.12,1.49-0.43,2.16-0.72c-0.31-1.63,0.4-2.24,1.44-2.52c-0.58-0.86-0.49-2.39-1.44-2.88
		C392.54,89.887,391.54,90.446,390.32,90.787z M384.2,87.546c-0.61-1.17-2.08-1.04-0.72-2.52c-0.22-0.02-0.43-0.05-0.36-0.36h-0.72
		C381.67,85.747,382.65,87.617,384.2,87.546z M402.92,83.946v-2.52c-1.45-0.01-1,1.88-1.08,3.24c1.4,0.04,1.11,1.77,2.52,1.8
		c0.62-1.51,2.3-3.57,1.44-5.4h-1.08C404.36,82.267,404.8,84.267,402.92,83.946z M396.08,84.307c1.15,0.51,2.55-1.41,2.88-2.88
		c-1.31-0.35-0.17,1.75-1.8,1.08c-0.3-0.9,0.7-3.1-0.72-2.88C396.07,80.376,396.06,82.256,396.08,84.307z M397.88,78.187
		c-0.01,1.82,1.98,1.62,2.52,2.88c-0.07,3.29-3.67,3.05-3.96,6.12c0.74,0.6,1.7-1.64,2.52-2.16c1.21,0.59,0.37,3.23,2.16,3.24
		c0.63-0.33,0.66-1.26,1.08-1.8c0.09-1.17-1.12-1.04-1.44-1.8c0.08-1.96,0.16-3.92,1.08-5.04c1.73,1.26,3.97-0.36,5.04,0.36
		c1.6,2.23-0.61,5.51-1.44,7.56c-0.97,0.59-3.34-0.22-2.88,1.8c0.66,1.02,1.58-1.93,2.52-0.72c-0.16,1.52-1.7,1.66-2.16,2.88
		c2.59,2.82,0.76,8.24,1.44,11.16c-0.34,0.38-1.33,0.11-1.08,1.08c-0.55-1.01-2.43-0.69-2.52-2.16c0.42-0.3,0.97-0.47,1.8-0.36
		c-0.15-2.45,0.43-3.44,0-5.4h-1.44c-0.76,1.52,0.01,4.57-1.8,5.04c-0.41-1.29-0.06-3.69,0-5.04c-2.69,0.23-0.87,3.94-1.44,6.84
		c-0.29,0.31-0.99,0.21-1.08,0.72c-1.92,0.12-2.74-0.86-4.32-1.08c-0.08-0.83-0.23-4.44,0.36-5.76c-0.05-0.79-0.91-0.77-1.8-0.72
		c-1.12,0.87,0.05,4.11-0.36,6.48c-2.51,1.69-4.66-1.92-5.4-0.72c-1.07-0.97,0.35-4.43-0.72-5.4c-0.77,1.58,0.03,2.61-0.36,4.68
		c-2.21,0.85-3.74,0.74-5.4,0.36c0.32-2.56,0.25-5.51,0.72-7.92c1.25-0.19,1.92-0.96,3.24-1.08c-0.45-1.35-2.75-0.85-2.52-2.88
		c0.76-0.76,1.4,0.42,2.16,0.72c1.17-1.56-2.98-4.74,0-6.84c1.53,0.83,2.28,0.27,3.96,0.72c0.12,1.8-1.21,2.15-0.72,4.32
		c1.11-1.76,2.8-0.7,2.88,1.44c1.17-0.63,0.64-2.96,1.44-3.96c1.17,0.52,0.91,0.8,0.72,2.16c1.36-1.5,2.7-1.73,4.32-0.72
		C395.99,84.657,392.46,79.167,397.88,78.187z"/>
	<path fill-rule="evenodd" clip-rule="evenodd" fill="#7C4697" d="M332.36,97.986c-0.26-0.82,0.65-2.81-0.72-2.52
		C332,96.926,330.55,97.977,332.36,97.986z M329.12,97.626c1.53,0.33,1.54-0.86,1.44-2.16c-1.11,0.25-0.69,0.25-1.8,0
		C328.5,96.566,329.38,96.526,329.12,97.626z M328.76,93.307v1.08c1.05-0.03,2.03-0.13,1.8-1.44
		C329.73,92.836,329.18,93.006,328.76,93.307z M329.12,91.867c0.84-0.12,1.69-0.23,1.44-1.44
		C329.43,90.256,328.95,90.736,329.12,91.867z M333.44,89.707c0.13,3.44,0.14,5.18,0.36,8.64c-1.22,1.55-2.83,0.51-5.4,0.72
		c-2.01-2.27-0.38-6.01-0.72-9.72C329.65,89.747,331.22,88.586,333.44,89.707z"/>
	<path fill-rule="evenodd" clip-rule="evenodd" fill="#7C4697" d="M358.64,96.907c0.68-0.08,0.79,0.41,1.44,0.36
		c-0.33-0.63-0.12-1.8-0.72-2.16C358.95,95.537,358.33,95.756,358.64,96.907z M358.64,94.387c1.45,0.35,1.45-2.15,0-1.8V94.387z
		 M361.88,89.347c1.08,2.09,1.01,6.88,0,9c-1.56-0.49-2.28-0.17-3.96,0c-1.51-1.37,0.2-5.96-1.44-7.2
		C357.05,89.196,359.7,88.657,361.88,89.347z"/>
	<path fill-rule="evenodd" clip-rule="evenodd" fill="#7C4697" d="M394.28,104.827c-0.5,2.26-2.82,2.7-4.32,3.96
		c-0.88-1.26,2.7-1.13,2.52-2.88c-21.22,1.94-36.56,9.76-54.36,15.12c6.3,3.17,13,4.63,19.08,7.2c16.78,7.09,30.49,17.08,45,27
		c-0.22,1.34-0.86,2.26-1.08,3.6c-1.03-0.05-0.66-1.5-0.72-2.52c-18.49-13.79-38.25-26.31-63-33.84c-1.68,0.32,0.24-1.19-0.72-1.08
		c-21.53,6.55-40.91,15.24-59.76,24.48c0.4-2.52,5.79-3.06,7.56-5.4c11.44-4.09,23.71-11.21,36.36-15.48
		c12.06-4.07,25.49-7.86,38.16-11.88C370.32,109.517,379.3,104.606,394.28,104.827z"/>
</g>
<path fill-rule="evenodd" clip-rule="evenodd" fill="none" stroke="#824F9D" stroke-width="2" stroke-linecap="round" stroke-linejoin="round" stroke-miterlimit="10" d="
	M398,110.667c0,0,63,4,163,49"/>
<path fill-rule="evenodd" clip-rule="evenodd" fill="none" stroke="#824F9D" stroke-width="2" stroke-linecap="round" stroke-linejoin="round" stroke-miterlimit="10" d="
	M204,104.667c0,0-17.09,2.34-28,4"/>
<path fill-rule="evenodd" clip-rule="evenodd" fill="none" stroke="#824F9D" stroke-width="2" stroke-linecap="round" stroke-linejoin="round" stroke-miterlimit="10" d="
	M149,114.667c0,0-99.64,24.8-144,41"/>
</svg>
