<svg version="1.1" id="圖層_1" xmlns="http://www.w3.org/2000/svg" xmlns:xlink="http://www.w3.org/1999/xlink" x="0px" y="0px"
	 width="60px" height="60px" viewBox="0 0 60 60" enable-background="new 0 0 60 60" xml:space="preserve">
<path fill-rule="evenodd" clip-rule="evenodd" fill="#FFFFFF" d="M35.676,41.336c0.53,0.26,0.57,0.61,0.74,1.25
	C35.486,42.736,35.336,41.716,35.676,41.336z"/>
<path fill-rule="evenodd" clip-rule="evenodd" fill="#FFFFFF" d="M37.896,41.466c-0.23,0.45,0.16,0.82,0,1.19
	C36.766,43.156,36.766,40.766,37.896,41.466z"/>
<path fill-rule="evenodd" clip-rule="evenodd" fill="#FFFFFF" d="M47.486,53.066c-0.91-1.38-0.48-3.33-0.8-5.07
	c-0.06-0.3-0.29-0.57-0.34-0.86c-0.1-0.57-0.04-1.23-0.13-1.84c-0.06-0.37-0.24-0.7-0.27-1.06c-0.08-0.85,0.05-1.77-0.07-2.63
	c-0.03-0.22-0.19-0.44-0.2-0.66c-0.02-0.29,0.14-0.56,0.13-0.86c-0.01-0.9-0.26-1.85-0.26-2.77c0-1.25-0.05-2.52,0-3.82
	c-0.12-0.08-0.11-0.29-0.21-0.39c0.23-2.31,0.02-4.5,0-7.18c-0.06-0.21,0.23-0.09,0.21-0.27c-0.24-0.04-0.18,0-0.14-0.32
	c-0.43-0.77-1.04-1.36-1.41-2.18c-1.23-0.66-2-1.81-2.95-2.7c-0.54-0.5-1.53-1.21-2.22-1.71c-0.26-0.19-0.56-0.29-0.8-0.46
	c-0.11-0.08-0.15-0.3-0.27-0.4c-0.13-0.1-0.36-0.1-0.47-0.2c-0.39-0.34-0.78-0.86-1-1.31c-0.6-1.17-1.04-2.07-2.22-2.9
	c-0.19-1.46-1.25-2.06-1.61-3.36c-0.73-0.23-0.67-1.23-1.41-1.45c-0.29,0.22,0.17,0.62-0.13,0.86c-0.73-0.16-0.13-1.22-0.47-1.52
	c-0.4-0.04-0.28,0.43-0.74,0.33c0,0.28-0.16,0.31-0.4,0.46c-0.71,1.29-1.96,2.38-2.82,3.29c-0.25,0.75-0.98,1.02-1.21,1.78
	c-2.84,2.44-4.78,5.77-7.52,8.3c0.03,0.27-0.21,0.27-0.2,0.53c-0.22,0.2-0.48,0.36-0.67,0.59c-0.08,0.71-0.77,1.28-1.14,1.91
	c0.34,0.05,0.4,0.06,0.54,0.2c-0.09,0.22-0.38,0.25-0.47,0.46c-0.79,3.48-0.94,7.55-1.41,11.2c0.71,1.88-0.31,4.22-0.2,6.06
	c0.03,0.55-0.28,1.09-0.34,1.65c-0.03,0.28,0.04,0.58,0,0.86c-0.1,0.67-0.46,1.28-0.47,1.97c-0.01,1.2,0.27,2.52,0.14,3.62
	c-0.11,0.87-0.6,1.69-0.74,2.51c-0.16,0.9-0.08,1.72-0.4,2.5c1.38,0.23,2.7-0.11,3.89-0.33c2.29-0.41,5.09-0.72,7.65-0.59
	c2.98,0.15,5.69-1.55,8.99-1.06c-0.18,0.19,0.1,0.07,0.13,0.2c1.65-0.11,3.43-0.12,5.17,0c0.85,0.06,1.8,0.23,2.62,0.2
	c0.23-0.01,0.43-0.17,0.67-0.2c0.7-0.08,1.52,0.13,2.15,0.13c1.25,0.02,2.46-0.48,3.75-0.39
	C47.456,53.826,47.346,53.326,47.486,53.066z M49.096,27.706c-0.16-0.13-0.51-0.05-0.53,0c-0.15-0.23-0.37-0.39-0.47-0.66
	c0.25-0.5,0.77-1.18,0.73-1.85c-0.01-0.32-0.29-0.55-0.4-0.85c-0.29-0.8-0.62-1.85-1.54-2.24c0-0.31-0.43-0.91-0.94-1.45
	c-0.29-0.31-0.64-0.58-0.87-0.92c-0.28-0.4-0.41-0.82-0.68-1.12c-0.96-1.1-2.16-2.09-2.68-3.43c-0.48-0.78-1.17-1.35-1.61-2.17
	c-2.13-1.44-3.47-3.67-4.7-6c-0.25-0.35-0.7-0.62-1.07-1.05c-0.45-0.53-0.64-1.24-1.07-1.32c-0.45-0.08-1.1,0.28-1.35,0.4
	c-0.78,0.37-1.75,0.7-2.55,1.25c-0.29,0.2-0.42,0.46-0.67,0.66c-0.56,0.45-1.49,0.67-2.01,1.05c-0.38,0.27-0.73,0.78-1.07,1.19
	c-0.36,0.41-0.77,0.74-1.15,1.12c-0.87,0.86-1.74,1.76-2.61,2.5c-0.56,0.47-1.06,1.02-1.68,1.51c-1.01,2.2-2.71,3.71-4.09,5.54
	c-0.22-0.22-0.16,0.17-0.41,0.13c-0.6,1.58-2.38,2.01-2.81,3.75c-0.51,0.32-0.78,0.87-1.08,1.39c-0.8,0.64-1.25,1.62-1.68,2.63
	c0.2,0.45,0.22,1,0.47,1.52c0.76,0.05,1.53-0.2,2.02-0.59c0.14-1.25,1.04-1.82,1.67-2.64c0.84-1.08,1.76-1.98,2.22-3.36
	c0.69-0.64,1.41-1.25,1.81-2.17c0.54-0.33,0.96-0.88,1.41-1.39c1.3-1.46,2.36-3.38,4.03-4.54c0.28-0.54,0.7-0.94,1.14-1.32
	c0.09-0.19,0.15-0.45,0.33-0.66c1.19-1.34,2.75-2.8,3.69-4.41c0.71-0.16,0.9-1.31,1.82-0.86c-0.13,0.1,0.09,0.26-0.07,0.4
	c1.23,0.16,1.47,1.28,2.21,2.3c0.36,0.5,1.05,1.25,1.34,1.91c0.19,0.41,0.12,0.92,0.47,1.32c0.29,0.33,0.8,0.66,1.15,1.05
	c0.38,0.45,0.76,0.92,0.87,1.59c0.38,0.82,1.18,1.25,1.74,1.91c1.86,0.87,3.12,2.34,4.57,3.62c0.24,0.63,0.81,0.96,1.4,1.25
	c0.16,0.46,0.43,0.81,0.81,1.05c0.35,1.35,1.66,1.76,2.62,2.51c-0.02,0.31,0.34,0.34,0.13,0.66c-0.76,0.01-1.25-0.79-1.88-1.12
	c-0.12,0.64,0.02,1.52-0.07,2.37c-0.06,0.62-0.02,1.34,0,1.91c0.02,0.34,0,0.53,0,0.92c0.02,3.49,0.37,6.84,0.27,9.82
	c0.51,2.81,0.28,5.26,1.14,7.44c-0.05,1.65,0,2.92,0.54,4.22c-0.16,0.56,0.17,1.07,0.07,1.77c0.26-0.05,0.03-0.58,0.27-0.65
	c0.28,0.27,0.25,0.85,0.53,1.12c-0.45,0.45-1.19,0.12-1.81,0.13c-1.08,0.02-2.11,0.28-3.15,0.33c-0.74,0.03-1.54-0.15-2.22-0.07
	c-0.28,0.03-0.52,0.2-0.8,0.2c-1.14,0.01-2.36-0.36-3.63-0.4c-1.31-0.03-2.35,0.29-3.89,0.2c-0.56-0.03-1.08-0.27-1.88-0.26
	c-2.7,0.03-5.2,1.22-7.85,1.12c-0.83-0.04-1.78,0.04-2.61,0c-0.7-0.04-1.4,0.16-2.08,0.26c-1.98,0.31-4.01,0.59-5.84,0.73
	c-0.32,0.02-1.03,0.07-1.55-0.14c-0.13-0.47,0.28-0.68,0.41-1.05c0.26-0.77,0.11-1.83,0.4-2.9c0.29-1.05,0.57-1.68,0.4-2.7
	c-0.12-0.75-0.03-1.7,0-2.44c0.01-0.3,0.01-0.7,0.07-0.98c0.09-0.46,0.26-0.74,0.33-1.45c0.09-0.81,0.38-1.56,0.34-2.38
	c-0.02-0.47,0.02-0.72,0.13-1.18c0.12-0.46,0.05-1.03,0.14-1.58c0.18-1.18,0.43-2.21,0-3.16c0.46-3.82,0.58-7.05,1.34-10.87
	c-0.72,0.56-1.16,1.41-1.81,2.04c-0.12,0.22,0.01,0.31,0,0.59c-0.61,0.89-1.81,1.39-3.22,1.12c-0.33-1.06-0.78-1.74-0.41-2.9
	c0.84-1.04,1.38-2.38,2.42-3.23c0.12-0.76,0.78-0.98,0.94-1.71c2.19-2.04,4.23-4.6,6.11-6.92c0.15-1.04,1.07-1.59,1.81-2.23
	c0.24-0.22,0.42-0.57,0.67-0.8c0.69-0.6,1.62-1.09,2.21-1.77c0.52-0.6,0.83-1.22,1.48-1.65c0-0.22,0.19-0.25,0.13-0.53
	c0.45-0.29,0.84-0.63,1.21-0.99c0.45,0.22,1.01-0.58,1.48-0.52c0.5-0.85,1.41-1.13,2.75-1.85c0.99-0.53,1.86-1.13,2.95-0.59
	c0.27,0.13,0.34,0.54,0.74,0.59c-0.02,0.33,0.23,0.4,0.27,0.66c1.49,1.29,1.98,2.91,3.02,4.48c1.16,1.24,2.48,2.58,3.62,3.62
	c1.05,2.11,2.42,3.58,3.96,5.27c0.18,0.4,0.4,0.76,0.6,1.12c0.69,0.47,1.17,1.15,1.55,1.91c0.5,0.23,0.75,0.68,1.07,1.19
	c0.08,0.12,0.3,0.25,0.34,0.33c0.1,0.22,0.03,0.66,0.13,0.92c0.04,0.1,0.16,0,0.2,0.07c0.1,0.13,0.21,0.87,0.2,0.92
	C49.486,26.006,48.766,26.736,49.096,27.706z"/>
<path fill-rule="evenodd" clip-rule="evenodd" fill="#FFFFFF" d="M41.646,42.586c-0.15-1.07-0.69-2-0.94-3.03
	c-0.11-0.48-0.04-1.03-0.13-1.58c-0.11-0.65-0.37-1.29-0.4-1.91c-0.09-1.72-0.02-3.47-0.2-5.2c-0.02-0.14-0.17-0.19-0.21-0.33
	c-0.07-0.28-0.02-0.75-0.06-1.12c-0.09-0.8-0.11-1.5-0.2-2.24c-0.36-0.81-1.27-1.08-1.82-1.71c-1.11-0.42-1.97-1.15-2.88-1.58
	c-0.56-0.67-1.24-1.55-1.95-1.85c-0.02-0.18-0.59-0.38-0.67-0.72c-0.39-0.08-0.53-0.4-0.94-0.46c-0.59-0.54-1.06-1.2-1.68-1.72
	c-0.32-0.64-0.69-1.25-1.4-1.51c-0.2,1.71,0.02,2.89,0,4.81c0.36,0.26,0.44,1.17-0.14,1.18c-0.3,0.01-0.58-0.78-0.6-1.31
	c-0.05-0.92,0.28-1.94-0.14-2.31c0.25-0.66,0.12-1.68,0.2-2.31c-0.46,1.04-1.1,1.91-2.01,2.51c-0.95,0.93-1.58,1.97-2.48,2.96
	c-0.15,0.16-0.39,0.22-0.54,0.4c-0.26,0.29-0.41,0.67-0.74,0.98c-0.3,0.29-0.56,0.58-0.87,0.93c-0.42,0.46-1.51,1.41-1.61,1.97
	c-0.06,0.35,0.16,0.68,0.2,1.06c0.05,0.4,0.04,0.89,0,1.38c-0.11,1.55-0.36,3.8-0.6,5.07c-0.21,1.1-0.24,1.95-0.4,3.03
	c-0.21,1.37-0.53,2.75-0.54,4.02c-0.01,1.12,0.32,2.2,0,3.3c2.51,0.3,4.78-0.62,7.58-0.33c0.55,0.05,1.08,0.27,1.61,0.26
	c4.25-0.07,10.28,0.38,14.56-0.13C41.646,44.216,41.766,43.436,41.646,42.586z M40.306,26.916c-0.02,0.63-0.09,1.45,0,2.17
	c0.02,0.13,0.17,0.2,0.2,0.33c0.06,0.21-0.04,0.61,0,0.92c0.14,1.13,0.14,2.26,0.2,3.69c0.02,0.32,0.18,0.6,0.2,0.92
	c0.07,0.92,0.02,1.69,0.14,2.44c0.22,1.36,0.43,2.68,1.01,3.76c-0.04,0.11,0.08,0.38-0.07,0.39c0.34,0.65,0.34,1.66,0.33,2.31
	c0,0.37-0.19,0.97,0.21,1.18c0.33-0.15-0.07-0.43,0-0.72c0.37-0.03,0.77,0.81,0.87,1.05c-0.49,0.44-1.34,0.3-1.95,0.4
	c-1.43,0.22-2.92,0.35-4.16,0.13c-0.06,0.07-0.25,0.02-0.2,0.2c-1.81-0.22-3.52-0.08-5.17-0.2c-1.57-0.12-3-0.07-4.69,0
	c-0.86,0.03-1.6-0.29-2.49-0.2c-0.68,0.07-1.41-0.09-2.08-0.06c-0.13,0-0.37,0.18-0.47,0.19c-0.09,0.02-0.89-0.1-1.41,0
	c-1,0.21-2.44,0.31-3.35,0.07c-0.58-0.49,0-1.66,0-2.44c0-0.39-0.21-0.76-0.2-1.18c0-0.68,0.1-1.4,0.13-2.11
	c0.06-1.14,0.32-2.33,0.61-3.36c-0.11-0.16-0.09-0.31-0.07-0.46c0.1-1.2,0.38-2.4,0.47-3.69c0.12-1.74,0.75-3.56,0.07-5.21
	c0.08-0.72,0.93-0.99,1-1.51c1.48-1.54,2.85-3.17,4.36-4.68c0.01-0.23,0.2-0.29,0.21-0.53c0.66-0.31,0.86-1.08,1.61-1.31
	c0.55-0.72,1.13-1.78,1.61-2.18c0.49-0.09,0.24,0.15,0.53,0.2c0.14-0.09-0.06-0.23,0.07-0.39c0.23-0.05,0.62,0.08,0.74-0.07
	c0.75,0.42,1.28,1.07,1.68,1.84c0.4,0.46,0.85,0.88,1.2,1.39c0.47,0.02,0.57,0.41,1.01,0.46c0.13,0.39,0.53,0.31,0.67,0.79
	c1.07,0.44,1.5,1.26,2.28,2.04c0.66,0.19,1.24,0.81,1.75,0.92c0.07,0.02,0.03,0.07,0,0.07c0.43,0.3,1.08,0.39,1.27,0.92
	C39.376,25.586,39.676,26.416,40.306,26.916z"/>
<path fill-rule="evenodd" clip-rule="evenodd" fill="#FFFFFF" d="M37.626,34.556c-0.56,0.33-0.88-0.45-0.67-0.86
	c-0.81-1.98-1.54-3.99-2.22-5.86c-0.63-0.72-1.57-1.14-2.08-1.98c-1.02-0.37-1.23-1.39-2.41-1.45c-1.42-0.07-2.77,0.79-4.03,1.39
	c-0.36,0.95-1.08,1.6-1.68,2.43c-0.56,0.79-0.78,1.9-1.07,2.9c-0.55,1.9-1.46,3.7-2.15,5.47c0.12,0.62-0.39,1.8-0.47,2.44
	c0.03,0.18,0.21,0.23,0.4,0.26c0.53-1.05,1.81-1.95,2.96-2.5c0.32-0.16,0.64-0.19,1-0.33c0.18-0.07,0.3-0.27,0.47-0.33
	c0.81-0.3,1.63-0.44,2.35-0.73c0.47-0.18,1.65-0.56,2.42-0.52c0.19,0.01,0.26,0.16,0.47,0.2c0.67,0.12,1.55-0.02,2.14,0.13
	c0.38,0.09,0.66,0.39,1.01,0.46c0.19,0.03,0.41-0.04,0.6,0c0.57,0.11,1.21,0.33,2.02,0.39c0.15-0.73-0.02-0.84,0.2-1.38
	c0.59,0.2,0.32,1.07,0.74,1.32c-0.18,0.24-0.38,0.46-0.41,0.85c-0.48-0.19-1-0.11-1.47-0.19c-2.36-0.42-4.39-1.4-6.78-0.86
	c0.55,0.75,0.43,2.17,1.41,2.5c-1.04,1.59-1.75-1.59-1.95-2.3c-2.48,0.7-5.42,1.81-6.84,3.55c-0.21,0.05-0.13-0.18-0.34-0.13
	c0.11,0.32-0.63,0.22-0.6,0.66c-0.15-0.05-0.23-0.17-0.47-0.13c-0.34-0.62,0.13-1.46-0.07-2.11c0.72-0.77,0.57-2.39,1.34-3.09
	c-0.11-0.55,0.38-1,0.34-1.06c1.05-1.89,1.1-4.99,2.95-6.52c0.71-1.37,1.41-2.74,2.75-3.49c0.42,0.32,0.72-0.12,1.01,0.33
	c2.25-0.8,3.87,0.51,4.9,1.84c0.3,0.12,0.48,0.37,0.8,0.46c0.24,0.54,0.81,0.73,1.15,1.26c0.4,0.64,0.28,1.6,0.94,2.1
	C36.336,31.386,37.776,32.646,37.626,34.556z"/>
<path fill-rule="evenodd" clip-rule="evenodd" fill="#FFFFFF" d="M33.126,41.006c-0.22-1.09-1.75-1.61-2.95-1.38
	c-1.02,0.19-1.62,1.04-2.22,1.58c-0.14,0.74-0.44,1.39-0.13,2.11C29.846,44.046,33.756,44.126,33.126,41.006z M32.526,39.166
	c0.83,0.55,1.4,1.55,1.27,2.77c-0.06,0.61-0.32,0.92-0.33,1.31c-0.74,0.77-2.64,1.26-4.16,1.12c-1.52-0.14-2.61-0.74-2.22-2.83
	c0.28-0.65,0.65-1.2,1.28-1.51c0.15-0.22,0.02-0.29,0.06-0.4C29.106,39.056,31.256,38.726,32.526,39.166z"/>
</svg>
