<svg version="1.1" id="圖層_1" xmlns="http://www.w3.org/2000/svg" xmlns:xlink="http://www.w3.org/1999/xlink" x="0px" y="0px"
	 width="60px" height="60px" viewBox="0 0 60 60" enable-background="new 0 0 60 60" xml:space="preserve">
<path fill-rule="evenodd" clip-rule="evenodd" fill="#FFFFFF" d="M14.957,16.108c-1.13,0.5-0.68,2.58-0.57,3.51
	c-1.32-0.44-1.05-2.05-0.9-3.59C14.127,16.018,14.357,15.798,14.957,16.108z"/>
<path fill-rule="evenodd" clip-rule="evenodd" fill="#FFFFFF" d="M18.207,19.208c-0.06,0.68,0.07,1.93,0.41,2.5
	c-1.03,0.33-1.28-0.85-1.39-1.92C17.497,19.528,17.717,19.228,18.207,19.208z"/>
<path fill-rule="evenodd" clip-rule="evenodd" fill="#FFFFFF" d="M41.867,6.838c0.45-0.8,1.21-2.48,2.12-3.34
	c0.19,0.05,0.37,0.12,0.65,0.09c0.93,0.98,1.7,2.19,2.19,3.84c-0.15,0.15-0.54,0.06-0.81,0.08c-0.59-1.16-0.86-2.33-1.87-2.92
	c-0.65,0.86-1.19,1.84-1.71,2.84C41.977,7.508,41.987,7.108,41.867,6.838z"/>
<path fill-rule="evenodd" clip-rule="evenodd" fill="#FFFFFF" d="M48.857,18.698c-0.41,0.06-1.32,0.32-2.03,0.34
	c-1.33,1.42-2.63,2.87-3.66,4.59c0.37,0.32-0.06,1.07,0.25,1.34c1.37-0.24,2.34-0.88,3.82-1c1-0.64,2.26-0.92,3.41-1.17
	c0.32-0.07,0.71,0.02,0.74,0c0.84-0.54,1.9-0.92,2.68-1.26c0.03-0.56-0.01-1.05-0.16-1.42
	C52.107,19.728,51.087,18.438,48.857,18.698z M42.927,22.458c1.08-1.52,2.22-2.48,3.25-4.01c2.15-0.93,5.28-0.71,6.99,0.5
	c-0.18-0.75-0.69-1.18-1.22-1.58c-0.01-0.42-0.33-0.82-0.65-1.17c-0.99-2.12-1.62-5.03-3.82-6.02c-0.56-0.5-0.93-1.21-1.62-1.5
	c-1.45-0.61-3.38,0.85-4.96,0.59c-0.01-0.21-0.16-0.26,0-0.42c1.32-0.77,3.33-1.03,5.12-1.09c0.38,0.09,0.43,0.51,0.89,0.5
	c0.25,0.86,1.44,1.4,2.28,1.92c0.79,0.87,1.16,1.95,1.63,3.01c0.26,0.62,0.71,1.07,0.97,1.67c0.35,0.81,0.69,1.86,1.22,2.42
	c0.49,0.52,1.12,0.93,1.22,1.84c0.11,0.19,0.34,0.27,0.49,0.42c0.18,0.95,0.24,1.91,0,2.67c-1.41,0.16-2.69,1.19-3.99,1.34
	c-1.63,0.19-3.29,1.18-4.87,1.59c-0.32,0.08-0.7,0.03-1.06,0.16c-0.57,0.21-1.86,1.17-2.2,0.25c0.32-0.99-0.35-1.72-0.48-2.67
	c-0.2-1.42,0.11-2.97-0.09-4.59c-0.05-0.42-0.3-0.76-0.4-1.17c-0.34-1.43-0.37-3.01-0.65-4.26c-0.21-0.06,0.15-0.23,0.08-0.42
	c-0.47-1.93-0.99-2.96-1.71-4.51c0.15-0.16,0.3-0.31,0.65-0.25c-0.7-0.87-1.06-1.8-2.03-2.51c-0.23,0.96,0.37,2.41,0.24,3.34
	c0.17,0.08,0.27,0.24,0.41,0.34c-0.08,0.23-0.35-0.02-0.49,0c0.07,0.32,0.1,0.29,0.16,0.5c0.25,0.12,0.24-0.58,0.74-0.25
	c-0.1,0.32-0.45,0.38-0.57,0.67c-0.73,0-0.56-0.94-0.98-1.26c0.16-1.02-0.3-1.38-0.08-1.75c-0.25-0.44-0.48-2.11-0.16-2.76
	c1.72,0.36,2.58,2.02,3.41,3.01c0.32-0.1,0.39-0.21,0.65,0c-0.1,0.74-0.23,1.22-0.73,1.67c-0.07,0.25,0.35,0.41,0.16,0.5
	c0.79,1.33,1.05,3.36,1.3,5.18c-0.18,2.06,1.28,3.75,0.66,5.6C42.957,20.638,42.677,21.628,42.927,22.458z"/>
<path fill-rule="evenodd" clip-rule="evenodd" fill="#FFFFFF" d="M37.727,47.598c1.38,1.7,1.71,4.48,2.43,6.85
	c0.44,0.03,0.17-0.67,0.49-0.75c0.07,0.1,0.11,0.23,0.08,0.42c0.87-0.42,1.6-0.98,2.61-1.25c-0.54-1.76-1.69-3.4-2.28-5.35
	C40.027,47.418,38.747,47.508,37.727,47.598z M9.747,47.018c0.18,0.01,0.04,0.35,0.09,0.5c-1,1.56-1.35,3.55-2.69,4.59
	c-0.04,0.29-0.22,0.45-0.24,0.76c-0.39,0.25-0.93,0.75-0.9,1.17c1.06,0.11,2.43,1.03,3.83,0.58c0.18-2.47,1.7-4.59,1.7-7.68
	C10.987,47.138,10.227,46.618,9.747,47.018z M16.097,46.688c-0.83,2.68-1.15,5.14-2.28,8.01c1.45-0.09,3.48-0.05,4.55-0.41
	c-0.09-2.6-0.5-5.18,0.08-7.35C17.857,47.008,17.057,46.498,16.097,46.688z M44.637,46.518c0.8,1.07,0.6,3.15,1.13,4.76
	c0.16,0.46,0.43,0.94,0.41,1.5c1.63-0.72,3.02-1.69,4.64-2.42c-1.14-2.04-2.82-3.67-3.74-5.68c-0.02-0.06-0.07-0.1-0.17-0.08
	C46.747,45.848,45.607,46.098,44.637,46.518z M36.417,34.738c-0.2,2.42,0.58,5.88,3.74,5.85c0.2-1.5-0.23-3.99,0.09-6.02
	C38.797,34.678,37.877,35.218,36.417,34.738z M33.327,35.578c-0.76-0.29-1.95-0.05-3-0.17c-0.48-0.06-0.96-0.31-1.39-0.33
	c-1.97-0.14-4.3,0.19-6.66,0.08c-3.89-0.19-8.31-2.11-10.49,0.42c0.24,0.1,0.65,0.05,0.81,0.25c0.02,0.35-0.13,0.53-0.24,0.75
	c-0.17,0.13-0.54,0.06-0.74,0.17c-0.34,0.28-0.34,0.63-0.48,0.91c-0.1,0.18-0.37,0.24-0.49,0.42c-0.18,0.28-0.49,1.04-0.65,1.59
	c0.01-0.03,0.11,0.22,0.08,0.33c-0.15,0.65-0.62,1.32-0.65,1.67c-0.02,0.24,0.11,0.56,0.08,0.84c-0.05,0.38-0.26,0.68-0.24,1
	c0.01,0.24,0.24,0.34,0.32,0.59c0.18,0.52,0.13,1.19,0.25,1.75c0.64,0.1,0.95-0.31,1.62-0.25c0.08,0.44-0.48,0.23-0.49,0.58
	c0.74,0.1,1.26-0.04,1.55-0.41c0.29,0.04,0.39,0.26,0.57,0.41c1.24-0.06,2-0.15,3.09-0.5c0.29,0.35,0.59,0.12,0.89,0.17
	c0.99,0.17,1.62,0.51,2.52,0.84c0.37,0.13,0.94,0.09,1.39,0.25c0.37,0.12,0.58,0.36,0.89,0.41c1.5,0.24,3.16-0.45,5.12-0.08
	c0.58-0.43,1.2-0.12,1.87-0.17c1.62-0.1,3.25-1.06,4.96-0.92c1.16,0.1,1.99,0.73,3.09,0.51c-0.09-0.14-0.05-0.37,0.16-0.51
	c0.06,0.17,0.46-0.02,0.49,0.17c0.16,0.28-0.37,0.27-0.08,0.42c1.03-0.15,2.59,0.14,3.5-0.34c0.14,0.08,0.13,0.31,0.4,0.26
	c0.45,0.14,0.91-0.09,1.14-0.17c0.41-0.15,0.61-0.27,1.14-0.5c0.71-0.32,1.63-0.45,2.03-0.75c1.54-1.19,0.27-5.33,0.33-7.1
	c0.04-1.37-0.58-2.1-1.06-2.93c-1.28-0.24-2.42-0.63-3.9-0.67c-0.38,1.26-0.23,2.84,0.08,3.85c-0.25,0.7-0.21,1.81-0.16,2.84
	c-0.15,0.07-0.24,0.2-0.41,0.25c-1.26-0.38-2.8-0.47-3.5-1.42c-0.65-1.3-1.21-2.17-1.87-3.43c0.17,0.1,0.39-0.13,0.17-0.17
	c-0.02,0.14-0.18,0.06-0.25,0c0.45-0.31,0.37-1.18,0.49-1.83C34.557,34.668,33.917,35.088,33.327,35.578z M36.907,11.858
	c-0.01,0.4-0.46,0.35-0.73,0.5c0.08,0.19,0.28,0.27,0.24,0.58c0.1,2.83-0.47,5.42-0.32,8.02c-0.57,2.95,0.03,5.48,0.08,8.1
	c0.02,1.04-0.01,2.2,0.24,3.34c0.11,0.48,0.43,1.04,0.09,1.51c1.29,0.51,2.54-0.06,3.82-0.25c0.05-3.2-0.5-6.05-0.73-10.11
	c-0.11-1.81,0.47-3.65,0.4-5.68c0.66-1.1,0.04-2.93,0-4.09c0.25-0.2,0.58-0.3,0.9-0.42c-0.01,0.94,0.19,3.07,0.24,4.43
	c-1.2,3.9-0.56,8.11-0.16,11.86c0.04,0.37,0.14,0.75,0.16,1.08c0.02,0.44-0.4,1.05,0.08,1.34c-0.32,0.4-0.06,1.22-0.16,1.67
	c0.59,0.19,1.39-0.16,1.79,0.33c2.37-0.26,3.07,1.19,3.9,2.51c-0.1,2.89,0.91,5.36,0.24,7.68c0.2,0.17,0.42-0.07,0.74,0.09
	c1.42,2.3,2.77,4.25,4.39,6.26c-0.25,0.28-0.8,0.24-1.22,0.33c-0.87,0.62-2.01,1.4-2.93,1.68c-0.66,0.46-1.28,0.96-2.2,1.16
	c-0.81-2.19-1.01-4.98-1.78-7.01c-0.62,0.37-1.39,0.58-2.2,0.75c0.82,1.83,1.63,3.67,2.52,5.43c-1.07,0.79-2.44,1.28-3.5,2.09
	c-0.09,0.38,0.13,0.86,0.09,0.92c-0.22,0.3-0.86,0.19-0.82-0.25c-0.51,0.24-0.9,0.98-1.62,0.75c-0.26-0.8,0.73-0.95,1.14-1.34
	c-0.64-1.73-0.93-3.78-1.39-5.26c-0.47-0.66-0.88-1.38-1.14-2.26c-1.42-0.08-2.75-0.65-3.98-0.58c-1.21,0.06-2.53,0.54-3.82,0.92
	c-2.38-0.38-5.16,0.59-7.48,0.16c-1.01-0.18-1.81-0.66-2.85-0.83c-0.17,2.36,0.11,4.55,0.17,7.6c-1.7,0.58-4.1,0.63-6.18,0.67
	c-0.2-0.79,0.52-1.99,0.89-2.76c0.31-2.02,0.99-3.97,1.3-5.51c0.18-0.22,0.27,0.26,0.49,0c0.05-0.29-0.39-0.28-0.16-0.5
	c-1.27-0.01-1.91,0.13-3.01,0.25c-0.42,0.29-0.1,0.78-0.16,1.08c-0.06,0.26-0.29,0.36-0.33,0.59c-0.03,0.18,0.09,0.39,0.08,0.58
	c-0.09,1.68-1.44,3.36-1.46,4.77c-0.01,0.34,0.24,0.66,0.16,1c-0.46,0.33-0.93,0.57-1.79,0.5c-1.41-0.11-3.2-0.58-4.06-1.25
	c0.16-0.61,0.7-1.17,1.13-1.76c0.44-0.59,0.92-1.18,1.39-1.67c0.24-0.75,0.64-1.34,1.05-1.92c0.02-0.84,0.63-1.08,0.74-1.84
	c-0.03-0.22,0.16-0.21,0.32-0.25c-0.26-0.18-0.37-0.96-0.24-1.25c-1.72-3.15,0.3-7.46,1.87-9.44c-0.7-0.45-1.42-0.88-2.04-1.42
	c0.11-0.45-0.22-0.75-0.24-1.17c0-0.08,0.24-0.27,0.24-0.33c0.04-0.3-0.32-0.76-0.32-1.09c-0.01-0.52,0.24-1.1,0.41-1.75
	c0.15-0.16,0.2-0.01,0.4,0c-0.02-0.53-0.26-0.92-0.08-1.42c1.9-0.25,3.97,1.12,3.98,3.09c0.13,0.29,0.34,0.49,0.65,0.58
	c-0.09,0.45-0.37,0.21-0.73,0.34c-0.75-1.31-1.12-3.09-3.09-3.34c-0.66,1.5-0.86,2.73-0.32,4.59c0.25,0.35,0.68,0.52,0.97,0.84
	c1.95-2.31,6.38-1.43,9.44-1.09c1.48,0.63,4.1,0.45,5.77,0.33c1.29-0.09,2.43,0.02,3.82,0.25c1,0.17,2.06-0.1,3.09,0.17
	c0.67-0.56,1.63-0.84,2.68-1c-0.37-2.98-0.51-6.15-0.57-9.36c-0.01-0.94-0.08-1.62,0-2.84c0.22-2.9,0.31-5.36,0.41-9.1
	C35.887,12.118,36.327,11.578,36.907,11.858z"/>
</svg>
