<svg version="1.1" id="&#x5716;&#x5C64;_1" xmlns="http://www.w3.org/2000/svg" xmlns:xlink="http://www.w3.org/1999/xlink" x="0px"
	 y="0px" width="1200px" height="282px" viewBox="0 0 1200 282" style="enable-background:new 0 0 1200 282;" xml:space="preserve">
<g>
	<path style="fill-rule:evenodd;clip-rule:evenodd;fill:#7C4697;" d="M1009.61,245.77c0.54,0.69,0.3,2.24,0.49,3.33
		c5.49-2.43,4.92,6.13,2.79,8.48c-0.21,1.04,0.88,1.3,0.38,1.9c-4.44-1.34,2.91-6.79-0.95-9.54c-3.05-0.17,0.03,4.16-3.05,4.23
		c-0.35-2.16,0.21-3.64-0.44-5.97c-2.18,2.72-3.7,10.77-0.39,14.15l1.67-0.08c-1.08,1.64-2.91,0.15-3.88-0.53
		c-1.82-5.84-0.09-11.78,2.18-15.91L1009.61,245.77z"/>
	<path style="fill-rule:evenodd;clip-rule:evenodd;fill:#7C4697;" d="M999.22,270.96c0.25,0.58,0.94,0.66,1.28,1.13
		c0.13-0.82,1.12-2.61,0.01-3.11C1000.27,269.8,999.34,270.03,999.22,270.96z M1029.77,255.06c-3.39,3.4-5.19,8.21-8.77,11.45
		c2.49,1.02,7.9,3.29,11.86,1.09c0.98-3.16-3.29-2.2-3.7-4.61c0.86-0.65,2.05,0.16,2.91,0.34
		C1035.36,261.29,1034.3,255.35,1029.77,255.06z M1034.18,246.46c0.25,0.81-0.19,1.02-0.37,1.45c0.01,0.68,1.46-0.27,1.47,0.41
		c-0.14,2.92-3.42,3.08-4.16,5.47c3.72,1.11,5.57,8.26,1.72,10.22c0.78,1.18,2.26,2.54,1.27,4.24c-4.39,2.49-10.73,1.65-13.57-1.47
		c-4.3,2.44-8.56,6.1-15.16,6.26c-0.9-1.39,0.01-4.03,1.58-4.63c1.47,0.48,1.06,2.73-0.51,2.9c5.69,0.66,8.22-2.45,12.12-5.15
		c1.5-1.04,2.96-1.42,4.12-2.84c0.95-1.16,1.73-2.82,2.57-4.2c1.29-2.12,2.36-3.12,3.23-5.19c2.16-0.18,2.44-2.01,3.36-3.29
		c-0.1-0.49-1.06-0.01-1.23-0.41c0.3-1.3,1.52-1.78,1.94-2.97c-4.23-0.26-5.81,3.73-7.94,6.38c-3.89,4.82-9.12,8.67-14.21,12.69
		c-3.5-0.6-7.98-1.11-9.18,2.61c0.8,0.94,0.48,2.93,0.32,4.3c-1.97,0.39-4.05-1.04-4.78-2.88c3.57-0.79,4.33-4.06,6.78-5.85
		c2.81-0.54,5.29,1.39,7.44-0.13c2.229-1.58,4.74-3.58,7.04-5.62c2.97-2.66,5.18-5.83,7.52-8.76
		C1027.44,247.64,1030.35,244.44,1034.18,246.46z"/>
</g>
<g>
	<path style="fill-rule:evenodd;clip-rule:evenodd;fill:#7C4697;" d="M910.31,214.59c-0.56,2.01-1.31,2.08-2.52,3.22
		c-6.69,0.72-10.83,6.67-18.35,5.45c0.32,2.81,2.35,7.9-1.49,9.74c-0.55-0.12-0.97,0.05-1.66-0.34c-0.77,0.09-1.21,0.84-2.06,0.75
		c-4.27-0.91-5.49-5.05-4.86-8.47c0.15-0.82,0.54-3.06,1.87-3.09c-0.42,3.4-2.09,9.63,3.47,10.24c0.11-1.37-1.42-2.87,0-4.24
		c2.55,0.62,0.41,2.77,2.06,3.48c3.35,1.44,2.42-6.49,1.37-8.03c-4.83-0.59-13.25-4.29-13.33-8.52c3.63,2.67,6.02,6.02,11.75,7.2
		c0.7,0.02-0.12-0.92,0.63-1.03c7.25,3.89,12.75-2.32,18.46-4.41c1.1-0.24,2.4-0.08,2.93-1.53c-0.92-0.78-2.9,1.64-4.36-0.25
		c0.33-1.33,1.41-1.09,1.85-2.18c-4.98,1.41-9.46,3.43-15.71,3.16c-1.66-0.07-3.44,0.2-4.6-0.11c-3.15-0.83-4.5-3.65-6.63-5.14
		c-2.15-1.5-3.48,0.15-5.26,0.42c0.61-3.48,5.97-2.89,7.69-0.06c0.42-3.75,6.46-12.18,10.29-10.75c1.66,0.61,2.25,3.21,0.66,5.39
		c1.2,0.89,3.51,1.25,3.73,2.6c-1.88,4.75-6.09,4.57-9.45,6.13c1.4-2.74,6.01-2.25,7.88-5.39c-1.23-3.19-4.28,0.35-5.84-1.04
		c1.28-1.6,4.61-3.96,2.75-6.23c-4.43,0.46-7.83,4.77-9.26,10.06c2.21,3.29,8.2,3.53,11.76,3.14c4.94-0.54,9.28-3.89,14.07-3.52
		c0.16,0.56,0.21,1.74-0.54,2.14C908.7,213.07,909.97,213.63,910.31,214.59z"/>
	<path style="fill-rule:evenodd;clip-rule:evenodd;fill:#7C4697;" d="M871.99,209.74c-0.63,0.77-2.22-0.45-2.88,0.24
		c0.33,1.16,0.87,2.22,2.01,2.99c-1.65,1.05-3.52-1.87-3.67-3.32C868.03,208.22,871.26,208.33,871.99,209.74z"/>
	<path style="fill-rule:evenodd;clip-rule:evenodd;fill:#7C4697;" d="M876.48,215.12c0.58-1.51,2.37-0.52,3.73-0.44
		c-0.19,1.81-1.38,1.56-2.09,2.29C877.36,216.45,876.75,215.86,876.48,215.12z"/>
</g>
<path style="fill-rule:evenodd;clip-rule:evenodd;fill:#7C4697;" d="M1125.6,134.51c-2.77,0.79-6.1,1.61-8.64,1.38
	c-11.9-1.07-22.07-25.14-5.53-25.57c-4.149,0.92-7.32,3.89-7.26,8.98c0.12,10.01,11.88,18.58,22.12,13.14
	c4.19,12.14,20.73,19.36,38.71,14.86c7.1-1.78,15.06-9.91,15.21-16.25c0.12-5.44-3.2-12.93-8.3-14.86h-2.76
	c-3.68-3.48-10.24-6.69-16.59-9.33c-5.33-2.22-11.06-5.1-15.9-5.53c-6.3-0.55-9.22,4.7-13.82,7.95c-3.19,2.25-6.73,2.97-10.37,4.49
	c1.2-3.59,5.561-3.67,8.64-5.53c5.21-3.14,8.01-9.17,16.59-7.95c9.39,1.35,21.41,7.72,29.03,12.1c2.21,1.28,3.38,1.64,6.22,2.77
	c7.32,2.89,12.05,16.93,5.87,24.53c-0.2,0.26,0.04,0.24-0.34,0.35c-1.74,0.51-2.6,3.03-3.46,3.8
	C1162.51,155.09,1130.5,151.2,1125.6,134.51z"/>
<path style="fill-rule:evenodd;clip-rule:evenodd;fill:#7C4697;" d="M309,69.43c6.09,1.71,16.01,4.97,23.32,3.17
	c4-0.98,5.41-4.02,7.2-7.49c1.89-3.65,3.98-7.5,1.44-11.8c-2.62-1.88-5.14-2.63-8.92-2.88c-1.99-1.37-2.83-2.57-4.61-4.32
	c-1.01-0.99-2.24-1.92-3.17-2.88c-1.55-1.6-2.03-3.61-3.46-5.19c-2.22-2.46-11.07-8.08-14.4-9.21c-5.75-1.96-10.9,1.64-13.82,4.32
	c-2.14,1.96-4.66,3.57-5.18,6.91c1.41,0.16,1.9-1.99,2.88-0.58c-0.2,1.92-1.3,2.41-3.46,2.88c-1.99,5.2-6.83,10.72-5.18,16.13
	c4.68,3.79,15.44,3.31,21.88,1.44C304.99,63.46,306.69,66.75,309,69.43z M302.37,61.95c-7.96,1.22-19.17,2-22.46-4.32
	c0.26-7.33,3.75-11.42,6.62-16.13c-0.18-0.97-0.82-1.48-0.57-2.88c4.44-5.03,9.24-12.65,17.85-11.81c3.5,0.34,7.02,2.78,9.79,4.61
	c3.03,1.99,6.08,3.77,8.36,6.05c0.65,3.29,3.76,4.71,6.62,7.77c1.16,1.24,1.71,2.85,2.88,3.46c3.2,1.67,7.78,0.99,10.08,3.45
	c5.7,6.12-2.88,20.52-8.93,21.89c-6.57,1.49-15.91-0.79-23.33-2.88C306.04,69.03,304.46,65.23,302.37,61.95z"/>
<path style="fill-rule:evenodd;clip-rule:evenodd;fill:#7C4697;" d="M209.97,143.42c-9.93-0.75-21.36-5.85-29.03,1.72
	c-6.32,6.25-4.37,24.57,6.22,25.92c1.8,0.23,3.83,0.04,5.53-0.34c2.97-0.67,5.93-3.14,9.34-2.77c3.82,0.42,8.42,7.11,13.82,8.3
	c4.48,0.99,10.84-0.51,15.21-2.42c5.63-2.47,10.99-5.99,7.25-13.48c-2.41-4.83-8.11-8.2-11.4-12.79c-4.28-2.2-12.21-1.71-15.9-3.45
	c4.96-0.37,11.14-0.59,15.55,1.72c1.48,0.78,4.38,3.77,6.57,5.88c2.03,1.95,4.49,4.33,5.53,5.88c0.54,0.8,0.26,1.95,0.69,2.76
	c0.63,1.19,2.41,2.78,2.42,4.84c0.01,1.81-1.54,4.97-2.77,6.22c-4.1,4.17-18.5,8.99-26.26,5.87c-2.82-1.13-7.89-7.35-11.41-7.6
	c-4.14-0.3-8.27,3.8-14.51,3.11c-10.52-1.16-14.85-20.36-7.26-28.34c1.91-2,7.07-4.88,11.06-5.18
	C196.74,138.81,203.9,141.11,209.97,143.42z"/>
<g>
	<path style="fill-rule:evenodd;clip-rule:evenodd;fill:#7C4697;" d="M934.48,41.1c-0.58,1.26-1.31,2.37-1.92,3.6
		c-8.23,4.62-27.03,2.74-33.84-2.64c-1.24-0.98-2.02-2.61-2.88-4.08c-1.33-1.21-4.29-1.27-3.84-3.84c4.12,0.76,4.86,4.55,7.44,6.72
		c1.35,1.13,3.07,1.41,5.04,2.16c1.45,0.55,2.68,1.56,4.08,1.92c7.57,1.96,18.02,1.64,23.28-2.16c-0.16-1.6,0.42-2.46,0.96-3.36
		c7.65,0.63,17.84-0.33,17.28-9.12c-0.14-2.18-1.27-3.18-1.92-5.28c-4.28-2.44-8.35-5.09-10.08-10.08
		c-5.78-2.12-9.52-5.09-15.6-7.44c-2.47-0.95-4.86-0.57-8.64-0.48c-2.1,0.05-4.34-0.59-6.96-0.24c-7.79,1.04-12.95,10.13-13.2,18.48
		c-0.07,2.34,1.57,4.46,0,6.24c-1.42-1.89-1.67-4.55-1.2-8.16c0.75-5.72,3.74-11.57,7.44-14.64c0.26-0.22,0.61-0.18,0.96-0.48
		c0.95-0.79,3.28-2.43,5.28-2.88c2.5-0.56,4.66,0.34,7.44,0.24c3.06-0.11,5.46-1.12,7.92-0.48c3.09,0.81,5.23,2.63,8.88,3.6
		c1.06,3.13,5.45,2.73,8.16,4.56c1.44,0.98,2.36,4.22,4.32,6.24c1.8,1.86,5.14,3.04,6.48,4.56c2.94,3.34,3.36,9.75,0.24,13.2
		C946.28,40.93,942.32,41.19,934.48,41.1z"/>
</g>
<path style="fill-rule:evenodd;clip-rule:evenodd;fill:#7C4697;" d="M82.56,77.38c-1.25-2.19-2.92-3.96-4.08-6.24
	c-2.29-1.21-3.39-3.4-5.52-4.32c-2.88-1.24-9.62-2.09-12.72-1.92C51,65.39,43.8,73.08,36.96,75.46c0.52,0.58,2.28-0.9,3.12,0
	c-0.01,0.33,0.11,0.53,0.24,0.72c-0.72,1.78-4.96,1.24-6.72,1.2c-1.15,0.62-1.86,1.71-2.88,1.92c-0.08-1.04,1.33-0.59,1.2-1.68
	c-8.04-0.24-14.63,6.74-11.52,15.36c3.26,3.4,7.49,7.05,13.44,6.96c0.06,0.42,0.41,0.55,0.96,0.48c-0.35,1.39,0.73,1.35,0.72,2.4
	c1.17,0.75,2.5,1.34,3.36,2.4c7.67,0.48,16.7,0.96,23.04-1.2c1.94-0.66,4.73-1.92,6-2.88c0.5-0.38,1.14-1.82,1.44-2.16
	c0.51-0.57,1.91-1.31,2.16-1.68c2.17-3.16,1.83-7.11,2.64-10.32c2.82,0.24,6.1-1.09,8.16-2.4C83.08,82.35,82.31,80.15,82.56,77.38z
	 M75.6,88.9c0.12,4.77-2.18,9.33-5.28,12.24c-4.36,4.1-13.01,5.71-20.88,6.24c-6.38,0.43-13.12,0.07-15.36-5.28h-2.4
	c-1.08-0.38-1.77-1.12-2.88-1.68c-2.68-1.36-4.48-2.12-6.96-4.08c-1.38-1.09-3.56-3.67-3.84-5.76c-0.51-3.87,1.19-8.44,3.6-11.04
	c2.7-2.92,7.4-3.38,11.76-3.84c3.07-2.22,8.22-4.01,12-6.24c6.21-3.66,9.41-6.42,19.2-5.76c8.22,0.55,13.5,4.07,17.76,9.84
	c2.27,3.07,2.12,6.08,2.4,10.56C83.29,87.31,79.24,87.9,75.6,88.9z"/>
<g>
	<path style="fill-rule:evenodd;clip-rule:evenodd;fill:#7C4697;" d="M340.29,176.74c-0.35,0.29-0.89,1.16-0.85,1.42
		c0.32,0.44,0.93,0.91,1.6,0.89C341.62,177.98,341.78,177.06,340.29,176.74z"/>
	<path style="fill-rule:evenodd;clip-rule:evenodd;fill:#7C4697;" d="M328.86,174.56c-1.77,2.38-5.82,2.72-6.75,6.53
		c-0.3,1.23,0.51,2.24,0.71,3.54l1.37,0.61c-0.29,1.01-0.55,2.17,0.39,2.68c0.35,0.18,1.97,0.04,2.69-0.25
		c2.18-0.89,6.61-4.77,7.4-7.13c0.27-0.78,0.42-1.61-0.36-1.95c-1.54,3.99-5.21,7.32-9.02,8.21c-0.81-1.33,2.23-1.59,1.69-3.2
		c-1.21-0.64-1.85,0.24-2.84,0.18c-1.92-1.85,0.32-5.37,2.35-6.14c0.82-0.31,2.39-1.18,3.18-1.28
		C330.24,175.45,329.75,174.94,328.86,174.56z"/>
	<path style="fill-rule:evenodd;clip-rule:evenodd;fill:#7C4697;" d="M349,177.36c-0.18,0.65-0.55,0.79-0.79,1.27
		c0.57,0.5,0.9,0.4,1.59,0.52c0.19,0.3-0.75,0.44-1.02,0.63c-0.2,0.99,0.99,0.62,1.6,0.88c0.35-0.73,1-0.69,1.54-0.93
		c-0.09-0.25,0.08-0.6,0.27-0.96c-0.57-0.49-1.02-0.45-1.74-0.59c-0.28-0.43,0.19-1.58,1-1.35c0.11-0.73,0.08-0.86,0.55-1.55
		c-1.02-0.76-1.45-0.62-2.12-0.57c-0.02,1.18-1.37,1.09-2.12,1.39C347.93,176.29,348.4,176.97,349,177.36z"/>
	<path style="fill-rule:evenodd;clip-rule:evenodd;fill:#7C4697;" d="M338.46,154.95c-3.63-1.35-4.15,3.1-2.98,5.14
		c-3.98,2.65-2.66,7.34-0.35,10.07c-2.42-0.17-4.96-1.94-7.15-3.52c-1.14-0.82-2.23-1.81-2.93-2.73c-5.5-2.72-8.08-7.57-9.23-11.97
		c-0.65-0.58-1.51-0.67-2.35-0.86c-0.48,1.6-0.85,2.4,0.04,3.43c-0.7,1.8-0.99,3.95-2.32,4.53c-0.09,0.61-0.12,1.19,0.57,1.51
		c0.98,0.01,1.06-0.92,2.3-0.6c2.28,2.55,4.99,4.37,6.9,7.18c2.89,1.56,3.64,4.12,6.46,5.36c0.99,0.69,2.14,2.69,3.11,3.53
		c0.71,0.61,1.83,0.85,2.82,1.42c2.83,1.65,5.06,3.64,8.13,3.78c0.9-0.64,2.03-0.67,2.96-1.21c-0.05-0.23-0.01-0.48,0.2-0.81
		c-0.4-0.37-0.76-0.45-1.37-0.6c-0.43,0.19-0.78,0.61-1.09,1.13c-2.67,0.66-5.34-1.76-7.88-3.12c-0.68-0.37-1.51-0.51-2.13-0.94
		c-0.92-0.65-1.59-1.92-2.64-2.97c-1.55-1.52-3.83-2.43-4.63-4.19c-3.15-2.08-4.23-4.92-7.34-7.01c-0.18-0.12-0.02-0.37,0.14-0.3
		c-1.4-0.98-2.71-2.72-4.06-2.69c0.47-1.81,1.47-3.13,1.34-4.79c0.51,1.98,1.82,3.83,3.27,5.93c0.42,0.61,0.8,1.49,1.26,1.99
		c0.9,0.99,2.55,1.58,3.75,2.56c3.23,2.61,8,7.44,13.2,7.44c3.97,1.24,6.08,2.55,9.79,4.15c0.3-0.44-0.03-0.65,0.34-1.11
		c-3.26-1.9-6.69-3.56-10.1-4.28c-0.28-0.14,0.5-0.45,0.2-0.81c-2.9-1.55-2.93-4.92-1.95-7.14c0.64-0.41,1.47-0.33,2.31-0.23
		c0.26-1.53-0.36-2.73-0.88-3.98c0.71-1.01-0.01-1.14,0.3-2.19c0.74-0.28,1.91,0.56,2.88,0.91c1.42-1.46-0.56-2.63,0.83-4.48
		c5.29,3.55,3.72,11.84-0.01,18.29c1.24,0.52,1.93-0.65,2.41-1.98c1.64-4.57,2.65-8.79,1.69-12.53c-0.31-1.21-1.42-2.08-1.3-3.08
		c-1.08-0.79-2.09-2.2-3.49-1.55C338.53,152.54,338.44,154,338.46,154.95z"/>
</g>
</svg>
