<svg version="1.1" id="&#x5716;&#x5C64;_1" xmlns="http://www.w3.org/2000/svg" xmlns:xlink="http://www.w3.org/1999/xlink" x="0px"
	 y="0px" width="219.574px" height="206.757px" viewBox="0 0 219.574 206.757" style="enable-background:new 0 0 219.574 206.757;"
	 xml:space="preserve">
<g>
	<path style="fill-rule:evenodd;clip-rule:evenodd;fill:#9367AB;" d="M93.595,67.078c1.14-0.06,1.2,0.96,2.52,0.72
		c0.93-4.11,3.08-7,5.04-10.08c-0.79-0.29-0.47-1.69-1.44-1.8C96.785,58.748,95.105,62.828,93.595,67.078z M114.475,44.757
		c-0.94,3.14,4.99,6.95,7.92,8.64c3.98,2.29,7.66,4.21,10.08,6.12c3.16-3.56,6.72-6.72,9-11.16c-0.73-0.83-1.2-1.92-2.52-2.16
		c-2.7,2.22-5.36,4.48-7.92,6.84C125.125,50.897,120.765,45.317,114.475,44.757z M108.355,45.478c0.43,1.73,1.61,2.71,2.16,4.32
		c1.1,0.26,1.06-0.62,2.16-0.36c0.51-1.88,0.06-2.74,0.36-5.04C110.895,44.178,109.925,45.127,108.355,45.478z M99.355,51.237
		c0.77,1.87,1.9,3.38,2.52,5.4c0.89,0.47,1.75-0.8,1.8,0c0.27,1.11-0.99,0.69-0.72,1.8c1.47,0.69,1.91,2.41,3.24,3.24
		c2.15-1.69,3.81-3.87,6.12-5.4c-2.24-4.24-4.53-8.43-7.2-12.24C103.235,46.478,101.225,48.788,99.355,51.237z M156.235,27.478
		c1.1-0.26,1.31,0.37,2.16,0.36c-0.28-2.2,0.47-3.37,0.36-5.4h-2.52V27.478z M149.035,14.518c-0.24,2.81,4.14,6.22,6.84,6.48
		c4.85,0.46,8.01-3.12,9-7.2c-3.79-1.97-6.68-4.84-9.36-7.92C155.105,10.237,149.345,10.987,149.035,14.518z M157.675,2.277
		c-1.77,4.74,3.61,8,7.56,9.36C166.805,7.007,162.845,2.487,157.675,2.277z M148.315,12.357c3.01-2.71,7.78-6.4,6.84-10.8
		C148.925,1.208,148.755,6.917,148.315,12.357z M159.835,27.118c1.02,0.99,1.63-1.48,3.24-1.08c0.53,1.39,1.41,2.43,2.16,3.6
		c-1.42,1.06-2.44-0.75-2.88-1.8c-1.71,2.53-8.04,1.46-10.08,0c-4.79,4.69-8.8,10.16-13.32,15.12c0.88,1.76,2.81,2.47,3.6,4.32
		c3.1-2.3,3.9-6.9,8.28-7.92c-3.75,7.29-4.86,17.22-5.76,27.36c5.3,1.11,11.91,1.63,17.64,0.36c-0.22-3.28-0.28-6.81,0.72-9.72
		c1.37,2.82,0.16,7.44,0.36,11.16c-4.88,1.65-12.08,0.08-18.72,0.36c-2.9,7.06-6.17,13.75-7.92,21.96
		c10.44,1.33,20.38,1.61,30.24-0.72c-1-7.4-4.71-14-5.04-20.88c2.27,2.52,2.93,6.79,3.96,10.44c1.07,3.8,2.68,7.63,2.52,11.16
		c-2.73,1.83-7.23,1.89-11.16,2.52c0.35,6.01,3.54,12.29,3.24,18.72c-3.28-4.64-3.2-12.64-5.04-18.72
		c-1.48-0.05-2.25,0.63-3.96,0.36c-0.81,4.77,1.64,14.03,1.08,18.36c-3.37-3.35-1.79-11.65-2.52-17.64
		c-1.08-1.44-3.89-1.15-6.12-1.44c-1.86,6.05,1.47,15.17,0.36,21.6c-1.57-1.79-1.58-4.89-1.8-7.56c-0.41-4.98-0.74-9.03-0.36-13.68
		c-1.72-0.92-5.52,0.24-6.84-1.08c0.59-5.49,2.48-10.64,4.32-15.12c1.2-2.91,3.33-5.09,3.6-7.92c0.75-7.9,1.27-17.11,3.6-24.84
		c-5.07,5.61-9.35,12.01-14.76,17.28c-5.66-4.54-12.65-7.75-18.36-12.24c-0.98,0.46-1.59,1.29-2.52,1.8
		c0.01,2.68,3.68,3.05,2.88,5.4c-3.23,2.19-7.41,4.72-7.2,8.28c-2.55-1.05-3.07-4.13-5.4-5.4c-2.54,2.98-3.92,7.12-5.76,10.8
		c-1.5-0.9-3.05-1.75-4.32-2.88c2.02-4.7,3.99-9.45,7.2-12.96c0.43-1.51-1.52-0.64-1.8-1.44c1.54-4.7,5.42-7.06,7.92-10.8
		c0.91,1.46,2.7-0.15,2.88,1.8c2.79-1.43,6.55-0.66,9-1.08c3.97,3.35,9.18,5.46,13.68,8.28c2.53-2.03,4.76-4.36,7.56-6.12
		c-0.37-0.83-1.24-1.16-1.08-2.52c5.34-5.46,10.07-11.53,15.12-17.28c0.85,0.47,0.83,1.81,2.16,1.8c0.97-0.71-0.22-3.58,0.72-4.32
		c-8.79-1.82-10.82-17.09-3.96-22.68c6.08-0.68,9.04,1.76,13.32,2.88c4.55,5.46,1.65,17.15-4.32,18.72
		C160.105,23.808,159.705,24.328,159.835,27.118z"/>
	<path style="fill-rule:evenodd;clip-rule:evenodd;fill:#9367AB;" d="M178.195,8.397c0.31,1.15-0.57,1.11-0.72,1.8
		c-0.83,0.11-0.4-1.04-1.08-1.08C176.445,8.328,177.305,8.348,178.195,8.397z"/>
	<path style="fill-rule:evenodd;clip-rule:evenodd;fill:#9367AB;" d="M152.635,13.797c1.68,1,0.66,2.38,0,3.6
		c-1.15-0.29-1.63-1.25-1.44-2.88C151.865,14.467,152.395,14.277,152.635,13.797z"/>
	<path style="fill-rule:evenodd;clip-rule:evenodd;fill:#9367AB;" d="M163.075,14.518c0.11,1.79-0.49,2.87-2.52,2.52
		C159.905,14.797,161.405,13.288,163.075,14.518z"/>
	<path style="fill-rule:evenodd;clip-rule:evenodd;fill:#9367AB;" d="M184.315,14.877c0.99,0.01,0.85,1.7,0.36,2.16
		c-0.29-0.19-0.58-0.38-1.08-0.36C183.285,15.527,183.905,15.308,184.315,14.877z"/>
	<path style="fill-rule:evenodd;clip-rule:evenodd;fill:#9367AB;" d="M159.835,52.678c1.89,0.51,3.46,1.34,5.4,1.8
		c-1.21,0.83-3.95,0.13-5.76,0.36C159.215,53.737,160.095,53.777,159.835,52.678z"/>
	<path style="fill-rule:evenodd;clip-rule:evenodd;fill:#9367AB;" d="M85.315,69.598c0.75-0.15,0.95,0.25,1.44,0.36
		c-0.24,1.2-1.12,1.76-1.44,2.88C83.725,72.297,85.575,70.967,85.315,69.598z"/>
	<path style="fill-rule:evenodd;clip-rule:evenodd;fill:#9367AB;" d="M92.155,69.958c1.31,0.99,0.08,3.96-1.44,4.32
		C89.945,72.857,91.675,71.277,92.155,69.958z"/>
	<path style="fill-rule:evenodd;clip-rule:evenodd;fill:#9367AB;" d="M94.675,72.478c1.31,0.13,0.56,2.32,1.08,3.24
		C93.545,76.538,94.255,73.167,94.675,72.478z"/>
	<path style="fill-rule:evenodd;clip-rule:evenodd;fill:#9367AB;" d="M99.355,75.357c1.05,1.18,2.47,6.7,0.36,7.56
		C99.705,80.458,98.395,77.607,99.355,75.357z"/>
	<path style="fill-rule:evenodd;clip-rule:evenodd;fill:#9367AB;" d="M145.795,77.877c-0.09,2.89-0.4,5.85,1.08,7.92
		c1.7-0.34,3.38-0.7,5.4-0.72c-0.33-2.43-0.68-4.84-0.72-7.56C149.955,77.958,147.865,77.908,145.795,77.877z M152.995,77.518
		c0.17,2.71,0.36,5.4,1.08,7.56c1.57-0.53,3.73-0.51,4.68-0.72c0.44-1.93,0.64-5.31,0-7.2
		C156.885,77.328,154.285,76.768,152.995,77.518z M160.195,76.438c0.49,3.25,0.05,6.38,0,9.72c-5.35-0.38-10.41,1.27-14.76,0.72
		c-1.34-3.36-0.63-8.1-1.08-10.08C149.365,76.598,156.335,74.417,160.195,76.438z"/>
	<path style="fill-rule:evenodd;clip-rule:evenodd;fill:#9367AB;" d="M83.155,76.797c-1.91,2.32-4.24,6.04-7.2,6.12
		C78.265,80.998,79.905,76.587,83.155,76.797z"/>
	<path style="fill-rule:evenodd;clip-rule:evenodd;fill:#9367AB;" d="M86.395,78.598c0.79,1.97-0.6,5.61-3.24,6.12
		C82.815,82.627,85.465,80.598,86.395,78.598z"/>
	<path style="fill-rule:evenodd;clip-rule:evenodd;fill:#9367AB;" d="M92.515,82.917c1.29,1.17-1.03,4.31-1.44,6.12
		C88.685,87.667,92.085,84.837,92.515,82.917z"/>
	<path style="fill-rule:evenodd;clip-rule:evenodd;fill:#9367AB;" d="M84.595,94.078c1,2.37-1.61,7.31-1.08,9.72
		C81.215,101.598,83.755,96.547,84.595,94.078z"/>
	<path style="fill-rule:evenodd;clip-rule:evenodd;fill:#9367AB;" d="M68.755,94.438c-1.35,3.45-3.92,5.68-4.68,9.72
		C63.325,100.047,66.155,96.397,68.755,94.438z"/>
	<path style="fill-rule:evenodd;clip-rule:evenodd;fill:#9367AB;" d="M52.915,107.757c0.22-0.79,0.9-2.68-0.36-2.88
		C52.015,105.888,52.955,106.908,52.915,107.757z M52.915,102.717c2.34,2.98,4.72,7.14,0.72,10.08h-1.44
		c-0.32-2.72,3.23-1.57,2.52-4.68c-0.99,0.19-1.5,1.39-1.8,0c-0.93,0.03-0.38,1.54-1.8,1.08
		C50.315,106.848,50.985,103.478,52.915,102.717z"/>
	<path style="fill-rule:evenodd;clip-rule:evenodd;fill:#9367AB;" d="M100.795,104.158c1.23,2.77,0.95,8.43,1.44,10.8
		C99.565,113.768,100.165,106.348,100.795,104.158z"/>
	<path style="fill-rule:evenodd;clip-rule:evenodd;fill:#9367AB;" d="M132.835,108.478h1.08c0.48,2.29,0.38,5.14,1.44,6.84
		C133.335,114.217,133.195,111.237,132.835,108.478z"/>
	<path style="fill-rule:evenodd;clip-rule:evenodd;fill:#9367AB;" d="M50.395,117.118c1.08-0.12,1.43-0.97,1.8-1.8
		c-0.52-0.68-0.8-1.6-2.16-1.44C49.205,114.808,50.045,116.257,50.395,117.118z M54.355,116.757c-0.9-0.79-1.65,0.75-1.8,1.8
		c-0.72-0.75-1.56-0.95-1.8,0.36c-2.16-0.81-4.57-7.31,0.72-6.48c0.77,1.66,2.31,3.12,3.96,2.88c0.57,1.64-0.72,4.23-2.16,5.04
		c-1.28,0.56-0.22-1.22-1.08-1.08C52.795,118.317,54.145,118.107,54.355,116.757z"/>
	<path style="fill-rule:evenodd;clip-rule:evenodd;fill:#9367AB;" d="M64.795,113.518h1.44c-0.4,1.26-2.46,4.36-0.72,5.4
		c-0.21,1.19-1.36,0.52-2.16,0.36C63.255,116.777,64.465,115.587,64.795,113.518z"/>
	<path style="fill-rule:evenodd;clip-rule:evenodd;fill:#9367AB;" d="M82.075,113.518c0.58-0.1,0.62,0.34,1.08,0.36
		c-0.13,3.15-0.48,6.84,0,8.64C79.825,121.438,81.945,117.658,82.075,113.518z"/>
	<path style="fill-rule:evenodd;clip-rule:evenodd;fill:#9367AB;" d="M113.035,161.397c1.1,0.26,1.31-0.37,2.16-0.36
		c-0.03-1.53-1.17-1.95-2.52-2.16C111.955,159.598,112.785,160.587,113.035,161.397z M117.715,150.598c0.6-1.56,2.48-1.84,2.52-3.96
		C118.005,146.337,116.905,149.058,117.715,150.598z M115.915,149.158c-0.34-2.36,0.95-4.11-0.72-5.04
		C113.855,144.808,113.275,149.467,115.915,149.158z M120.235,138.357c0.91-0.65,1.58-1.54,1.8-2.88c-0.49-0.11-0.69-0.51-1.44-0.36
		C120.205,135.708,119.265,137.598,120.235,138.357z M117.355,137.277c0.49-0.69,1.39-3.22,0-3.6
		C116.725,133.967,115.855,137.167,117.355,137.277z M120.595,128.277c1.28-0.16,1.58-1.3,2.52-1.8
		C121.895,126.697,120.335,126.578,120.595,128.277z M117.715,127.558c1.76,0.08,1.45-1.91,1.44-3.6c-0.46-0.02-0.5-0.46-1.08-0.36
		C117.325,124.917,116.735,126.197,117.715,127.558z M124.915,120.357c0.88-0.2,1.85-0.31,1.8-1.44c-0.5,0.02-0.79-0.17-1.08-0.36
		C125.695,119.458,125.065,119.667,124.915,120.357z M123.835,118.558c0.19-0.53,0.53-0.91,0.72-1.44c-0.72,0-0.46-0.98-1.44-0.72
		C123.045,117.428,123.205,118.228,123.835,118.558z M122.395,114.237c2.15,0.97,3.4,2.84,5.4,3.96v1.8c-1.16,1-2.13,2.19-4.32,2.16
		c-0.93-0.89,0.24-1.28,0.72-1.8c-2.5,0.14-2.37,2.91-3.24,4.68c1.53,0.15,3.71-0.35,4.68,0.36c-1.14,2.1-2.52,3.96-5.4,4.32
		c-0.43,1.37-0.48,3.12-1.08,4.32c1.5,0.18,1.59-1.05,3.24-0.72c1.38,2.95-0.09,5.78-2.52,6.84c-1.12,0.16-1.15-0.77-1.08-1.8
		c-1.01,1.27-0.93,4.51-1.44,7.2c1.56-0.01,2.4-0.95,3.6-0.36c1.87,3.13-2.1,5.52-3.6,7.56c0.05,7.49,0.3,15.16,1.8,23.04
		c1.41,7.41,5.94,13.3,5.76,20.88c-4.14-10.38-7.93-21.11-8.64-34.92c-1.07-0.68-2.46,1.74-3.96,0.72
		c-0.89-1.13-1.47-3.53-0.36-4.68c2.31-0.27,3.16,0.92,4.32,1.8c0.32-3.23-0.52-6.72,0-9c-0.2-1.12-2.09-0.55-2.88-1.08
		c-1.08-2.05-0.69-5.02,0.72-6.48c1.32-0.08,1.38-0.49,2.52,0c1.47-4.48-3.01-6.28-0.72-10.44c1.32-0.08,1.38-0.49,2.52,0
		c0.92-0.4-0.14-2.78,0.72-3.24c-0.61-1.07-2.34-1.02-3.24-1.8c-0.23-2.99,0.98-4.54,2.52-5.76c1.16-0.08,0.88,1.28,1.44,1.8
		c1.11-1.05,1.07-3.25,2.52-3.96C122.215,117.917,121.045,115.328,122.395,114.237z"/>
	<path style="fill-rule:evenodd;clip-rule:evenodd;fill:#9367AB;" d="M169.195,115.317c0.6,4.97,0.53,12.94,3.24,16.92
		C169.105,129.038,167.805,120.947,169.195,115.317z"/>
	<path style="fill-rule:evenodd;clip-rule:evenodd;fill:#9367AB;" d="M29.155,119.998h1.08c-0.16,3.52,0.42,8.19-0.72,9.72
		C27.235,127.567,29.135,123.487,29.155,119.998z"/>
	<path style="fill-rule:evenodd;clip-rule:evenodd;fill:#9367AB;" d="M152.275,122.158c-1.15,1.88,1.91,2.64,2.16,4.32
		c-2.1-0.9-3.93-2.07-3.6-5.4c0.42,0.06,0.64-0.08,0.72-0.36c1.36-0.04,1.94,0.7,2.16,1.8c3.11-2.15,5.75,4.84,1.8,3.6
		c-0.32-1.16,0.93-0.75,1.08-1.44c-0.26-0.34-0.65-0.55-1.08-0.72c-0.95-0.11-1.18,0.5-1.08,1.44
		C153.065,124.967,153.645,122.587,152.275,122.158z"/>
	<path style="fill-rule:evenodd;clip-rule:evenodd;fill:#9367AB;" d="M48.955,146.998c0.68-0.08,0.79,0.41,1.44,0.36
		c0.28-0.8,0.76-1.4,0.72-2.52C49.485,144.647,48.765,145.368,48.955,146.998z M47.515,146.277c-0.12-1.44,0.46-3.58-1.08-3.6
		C46.055,143.757,46.385,145.688,47.515,146.277z M49.315,140.877c1.69-0.29,3.74-0.32,3.6-3.24c-0.84-0.12-1.49-0.43-2.16-0.72
		C50.425,138.388,49.925,139.688,49.315,140.877z M48.235,137.638c0.49-0.9,1.09-2.73,0-3.24
		C47.535,135.237,46.535,137.188,48.235,137.638z M49.315,127.558c0.28-0.96,0.57-2.01,0-3.24h-1.08
		C47.285,125.527,48.235,127.257,49.315,127.558z M53.275,123.598c1.48,5.12-3.51,6.45-3.24,11.52c1.01,0.67,2.68,0.68,3.6,1.44
		c1.27,3.76-1.49,5.39-4.32,6.12c-0.11,1.31,1.92,0.48,2.52,1.08c0.99,3.12-0.39,5.45-3.24,5.76c-0.26,10.72,0.41,18.72,2.52,27.36
		c0.84,0.87,1.64,2.48,0.36,3.6c-4.2-8.26-3.92-20.45-3.96-32.04c-1.88-1.25-3.35-4.65-1.8-7.2c1.57-0.37,1.66,0.74,2.52,1.08
		c0.1-1.22-0.28-2.92,0.36-3.6c-0.64-0.67-0.91,0.29-2.16,0c-0.82-1.81-0.2-4.25,0.72-5.4c1.35-0.03,1.03-0.4,2.16,0
		c0.09-1.95,1.31-2.77,1.08-5.04c1.65-0.05,2.76-2.09,1.8-3.6c-2.17,0.82-0.84,3.22-2.88,3.6c-1.39,0.26-2.63-0.9-2.88-1.8
		C45.335,122.487,49.885,122.748,53.275,123.598z"/>
	<path style="fill-rule:evenodd;clip-rule:evenodd;fill:#9367AB;" d="M14.035,124.678h1.08c1.15,1.78-0.72,4.35,0.36,6.12
		c-0.42-0.06-0.64,0.08-0.72,0.36C12.445,130.447,14.345,125.837,14.035,124.678z"/>
	<path style="fill-rule:evenodd;clip-rule:evenodd;fill:#9367AB;" d="M218.515,125.397c1.74,1.6,1.22,7.46-0.72,9.36
		C218.465,130.768,217.265,127.627,218.515,125.397z"/>
	<path style="fill-rule:evenodd;clip-rule:evenodd;fill:#9367AB;" d="M202.315,126.837c0.09,1.96-1.59,5.08-2.16,7.56
		C199.365,133.087,199.405,126.808,202.315,126.837z"/>
	<path style="fill-rule:evenodd;clip-rule:evenodd;fill:#9367AB;" d="M102.595,133.317c0.34-0.98,1.1-1.54,1.44-2.52h-1.44
		C102.255,131.098,101.825,133.098,102.595,133.317z M100.435,127.197c0.37,0.83,1.24,1.16,1.08,2.52c1.45-0.55,2.64-0.92,3.6-0.36
		c0.65,3-1.15,4.56-3.24,5.76c-1.88-1.68-0.02-4.98-1.8-6.48c-2.1,1.71-1.41,5.72,0,7.56
		C96.455,135.917,96.705,127.257,100.435,127.197z"/>
	<path style="fill-rule:evenodd;clip-rule:evenodd;fill:#9367AB;" d="M0.355,128.638c0.29,0.19,0.58,0.38,1.08,0.36
		c-0.06,2.11,0.05,3.23-0.36,4.32C-0.485,132.777,0.015,130.147,0.355,128.638z"/>
	<path style="fill-rule:evenodd;clip-rule:evenodd;fill:#9367AB;" d="M142.915,151.317c0.68,0.52,1.87,0.53,2.16,1.44h-1.44
		c-0.16,1.89,2.09,3.6,2.88,1.44c-1.79-0.88-0.03-3.01,0.36-3.96c-0.51-0.09-0.41-0.79-0.72-1.08h-1.8
		C144.035,150.038,143.905,151.107,142.915,151.317z M141.835,150.958c-0.15-1.29-0.09-2.79-1.08-3.24
		C140.665,149.248,140.785,150.567,141.835,150.958z M140.395,129.357c0.42-0.06,0.64,0.08,0.72,0.36c0.66,0.84-0.37,2.29,0,3.96
		c0.95-0.35,3.08-0.7,3.96,0c0.19,2.6-1.87,5.53-3.6,3.96c0.27-1.41,2.12-1.24,2.16-2.88c-2.94-0.73-3.33,4.75-1.8,7.2
		c4.93-4.97,8.65,4.74,2.52,4.32c-0.01-1.81,2.16-1.44,2.52-2.88c-0.11-0.73-0.97-0.71-1.08-1.44c-3.29,0.21-4.38,4.34-2.16,6.12
		c4.17-2.26,5.57,3.94,3.24,6.12c5.98-1.06,4.55,6.13,0.72,6.48c-0.36-0.48-0.59-1.09-1.08-1.44c0.72-1.19,3.34,0.38,3.24-2.88
		c-1.99-2.49-3.34,0.6-4.68,1.8c2.34,5.58,5.17,10.67,7.2,16.56c1.3,0.34,0.37-1.55,1.08-1.8c0.18,8.94,6.53,11.71,9,18.36
		c-3.67-2.45-5.34-6.9-7.92-10.44c-0.95-0.11-0.28,1.4-1.44,1.08c-0.5-0.46-0.36-1.56-0.36-2.52c-2.13,0.88-3.86,1.18-5.4-0.72
		c1.27-2.23,3.47-0.13,5.4,0c-2.89-5.87-3.7-13.82-9.36-16.92c-0.74,0.1-0.72,0.96-1.08,1.44c0.44,2.03,4.34-0.8,3.96,1.44
		c-0.84,1.65-4.68,0.47-5.4-0.36c-0.14-2.18,0.99-3.09,2.16-3.96c1.59-0.27,1.47,1.16,2.52,1.44c-0.22-3.98-3.82-4.58-4.68-7.92
		c0.57-0.15,0.31-1.13,1.44-0.72c-2.06-1.5-3.2-2.47-2.88-5.76c2.35-0.49,2.28-6.33-1.08-6.12c-0.8,0.04-0.15,1.53-0.36,2.16
		c-0.08,1.4,2.17,0.47,2.16,1.8c-3.03,1.61-3.69-2.01-3.24-5.04c1.29-0.17,2.08-0.59,3.24,0c0.25-3.13-0.24-5.52-2.52-6.12
		c0.21,1.83,1.96,2.12,1.8,4.32c-2.1-0.66-2.68-2.84-3.6-4.68c0.35-0.01,0.28-0.44,0.36-0.72c1.4-0.76,2.74-0.06,3.6,0.72
		C139.995,132.138,139.745,131.107,140.395,129.357z"/>
	<path style="fill-rule:evenodd;clip-rule:evenodd;fill:#9367AB;" d="M160.555,147.357c1.45,0.01,1-1.88,1.08-3.24
		c-0.53-0.19-0.91-0.53-1.44-0.72C159.365,144.248,159.105,146.897,160.555,147.357z M154.795,135.478
		c0.89-1.75-0.62-3.84-2.16-4.32C152.745,133.208,153.555,134.558,154.795,135.478z M151.915,129.357c2.18,0.1,2.17,2.39,4.32,2.52
		c1.4-0.48,0.07-1.61,0.72-2.52c3.51,1.96,1.4,8.15,2.16,12.24c0.54,0.54,1.58,0.58,2.52,0.72c1.1,1.2,1.65,4.64,0.36,6.12h-1.8
		c-0.53,0.79,0.64,2.94,0.36,4.68c0.46,0.49,1.71,1.07,1.8,0c0.94,0.48,0.69,1.6,0.36,2.52c-0.47-0.37-1.33-0.35-1.8-0.72
		c0.3,2.7,1.12,4.88,1.08,7.92c1.17-0.15,1.04-1.6,2.52-1.44c0.73,0.99-0.78,2.15-1.8,2.52c0.9,5.46,3.23,9.49,5.4,13.68
		c-4.04-2.44-2.86-10.1-9.36-10.08c0.3-2.54,2.58-0.72,3.6,0c-1.16-4.3-0.18-11.64-4.32-14.04c-0.29,0.07-0.36,0.36-0.72,0.36
		c-0.19,1.99,1.91,1.69,2.52,2.88c-2.26,2.38-6.23-3.41-2.88-4.68c1.7-0.26,2.37,0.51,3.24,1.08c-1.03-4.12-0.18-7.93-3.96-10.08
		c-0.8,0.15-0.15,1.77-0.36,2.52c0.11,1.42,1.11-0.27,1.44,0.72c-1.77,4.15-4.41-3.99-1.44-5.04c1.59-0.27,1.47,1.16,2.52,1.44
		c0.07-3.04-1.17-5.73-1.44-9.36c-1.85,0.61,0.53,3.22-0.72,4.32c-1.04-1.18-0.96-1.51-2.88-1.44
		C152.615,134.197,150.455,131.357,151.915,129.357z"/>
	<path style="fill-rule:evenodd;clip-rule:evenodd;fill:#9367AB;" d="M102.595,130.797h1.44c-0.34,0.98-1.1,1.54-1.44,2.52
		C101.825,133.098,102.255,131.098,102.595,130.797z"/>
	<path style="fill-rule:evenodd;clip-rule:evenodd;fill:#9367AB;" d="M94.315,162.837c0.04-1.53,0.7-2.91-1.08-3.24
		C93.465,160.808,93.495,162.217,94.315,162.837z M95.755,152.038c0.47-0.85,0.15-2.49,0.72-3.24c-0.69-0.15-0.65-1.03-1.8-0.72
		C93.805,149.397,94.515,151.688,95.755,152.038z M97.195,141.958c0.4-1.16,0.99-2.13,1.08-3.6
		C96.105,135.397,93.515,142.188,97.195,141.958z M97.195,136.197c1.1,0.22,1.84,0.8,1.8,2.16c2,0.1,2.67-0.58,4.32,0
		c1.08,3.14-2.2,5.58-4.68,5.04c0.74-1.78,3.34-1.7,3.96-3.6c-4.36-1.15-5.67,5.5-4.68,9.72c1.67-0.11,3.12,0,3.96,0.72
		c0.23,3.35-2.03,4.21-4.32,5.04c-0.28-2.68,3.14-1.66,3.24-3.96c-0.04-0.8-1.53-0.15-2.16-0.36c-2.09,1.39-2.04,4.92-2.52,7.92
		c0.33,1.11,2.25,0.63,2.88,1.44c0.23,2.54,0.43,4.63-2.16,5.04c-0.47-2.03,1.55-1.57,1.08-3.6c0.11-0.83-1.04-0.4-1.08-1.08
		c-0.98,2.75-0.94,7.71-0.72,11.52c0.17,2.89,0.42,6.85,2.88,7.56c-2.32,1.16,1.05,2.97,0.36,5.76c-4.08-4.26-4.74-14.32-3.96-21.24
		c-0.04-0.8-1.53-0.15-2.16-0.36c-0.95-1.71-1.57-4.59-0.36-6.48c1.32,0,1.38,1.26,2.16,1.8c0.65-1.63,0.76-3.8,0.72-6.12
		c-3-0.55-3.61-4.98-1.44-6.84c0.47,0.37,1.33,0.35,1.8,0.72c1-0.44,0.67-2.21,0.72-3.6c-0.15-0.81-1.91-0.01-2.16-0.72
		C93.175,140.277,94.125,136.178,97.195,136.197z"/>
	<path style="fill-rule:evenodd;clip-rule:evenodd;fill:#9367AB;" d="M80.275,142.678c0.97,2.27-0.24,5.21-2.52,5.4
		c-0.59-2.27,1.89-1.47,1.8-3.24c-1.73-0.76-2.65,2.38-3.24,3.96c-1.32-1.07-0.85-3.95-3.6-3.6c-0.02,3.18,2.73,2.79,2.52,5.4
		c-2.64-0.48-4.47-4.8-2.88-7.2c1.32-0.1,2.38,1.2,3.6,2.16C77.325,144.527,77.875,142.678,80.275,142.678z"/>
	<path style="fill-rule:evenodd;clip-rule:evenodd;fill:#9367AB;" d="M195.115,150.598c0,3.12-0.7,8.66-2.88,10.8
		C192.045,158.058,193.575,153.397,195.115,150.598z"/>
	<path style="fill-rule:evenodd;clip-rule:evenodd;fill:#9367AB;" d="M75.595,154.558c1.14-0.54,1.41-1.95,3.24-1.8
		c2.61,2.23-1.24,8.92-2.16,5.4c1.01-0.56,2.89-1.99,1.8-3.6c-2.32-0.4-1.47,2.37-3.24,2.52c-0.09-1.6-0.39-2.97-1.8-3.24
		c-0.29,0.07-0.36,0.36-0.72,0.36c0.25,1.55,0.79,2.81,2.16,3.24c-1.19,2.53-4.06-1.37-3.24-4.32
		C73.115,151.697,75.375,152.697,75.595,154.558z"/>
	<path style="fill-rule:evenodd;clip-rule:evenodd;fill:#9367AB;" d="M212.395,157.438c0.58-0.1,0.62,0.34,1.08,0.36
		c-0.62,5.17-0.45,10.36-2.16,14.04C210.165,168.337,211.865,161.638,212.395,157.438z"/>
	<path style="fill-rule:evenodd;clip-rule:evenodd;fill:#9367AB;" d="M75.595,167.158c0.58-2.27,0.17-4.4-2.52-4.32
		C73.075,165.118,73.655,166.817,75.595,167.158z M76.675,164.277c6.34-2.42,5.33,6.53,0.72,6.48c-0.35-0.37-0.71-0.73-1.08-1.08
		c1.2-0.89,4.17-0.45,3.96-3.6c-0.04-0.92-1.21-0.71-2.16-0.72c-1.17,0.15-0.93,1.71-1.44,2.52c-1.18-0.59-1.38,0.08-2.88,0
		C69.115,164.228,73.975,157.788,76.675,164.277z"/>
	<path style="fill-rule:evenodd;clip-rule:evenodd;fill:#9367AB;" d="M25.555,161.397c0.58-0.1,0.62,0.34,1.08,0.36
		c-0.26,2.44-0.03,3.13,0,5.76C24.355,167.487,24.395,162.627,25.555,161.397z"/>
	<path style="fill-rule:evenodd;clip-rule:evenodd;fill:#9367AB;" d="M52.915,161.757c1.57,1.55-1.34,4.26-2.88,5.04
		c-0.68-1.36-0.5-1.95-0.36-3.6c1.35,0.28,0.02,1.26,0.72,1.8C51.165,163.848,52.415,163.178,52.915,161.757z"/>
	<path style="fill-rule:evenodd;clip-rule:evenodd;fill:#9367AB;" d="M12.595,164.638c1.19,0.69,1.09,5.42,0,6.12
		C10.705,170.018,11.575,165.688,12.595,164.638z"/>
	<path style="fill-rule:evenodd;clip-rule:evenodd;fill:#9367AB;" d="M123.475,169.317c0.58-0.1,0.62,0.34,1.08,0.36
		c-1.79,2.69-2.98,11.05-0.72,13.32C119.365,183.348,121.915,170.547,123.475,169.317z"/>
	<path style="fill-rule:evenodd;clip-rule:evenodd;fill:#9367AB;" d="M76.315,175.438c1.44,0.39-0.37,1.76-0.72,2.52
		c-0.71,5.41-1.04,11.17-0.72,15.84c2.08-1.88,2.98-4.94,5.76-6.12c-0.62,2.3-2.99,5.86-5.76,7.2c0.05,3.46,0.46,6.14,1.8,9
		c0.33,0.98,0.81-1.1,1.44,0c0.28,1.36-0.44,1.72-0.36,2.88c-3.86-2.84-4.36-10.64-4.32-16.92
		C73.465,184.667,73.495,178.428,76.315,175.438z"/>
	<path style="fill-rule:evenodd;clip-rule:evenodd;fill:#9367AB;" d="M91.795,175.797c1.22,1.78,1.56,4.44,4.68,4.32
		c-1.53,2.87-4.29-1.14-5.4-2.16C91.195,177.118,91.505,176.467,91.795,175.797z"/>
	<path style="fill-rule:evenodd;clip-rule:evenodd;fill:#9367AB;" d="M159.475,54.837c1.81-0.23,4.55,0.47,5.76-0.36
		c-1.94-0.46-3.51-1.29-5.4-1.8C160.095,53.777,159.215,53.737,159.475,54.837z M161.995,45.837c2.32,0.44,3.01,2.51,5.4,2.88
		c1.36-3.68,3.53-6.55,4.68-10.44c-2.84-1.12-4.99-2.93-8.28-3.6C163.495,38.697,162.635,42.158,161.995,45.837z M187.915,24.958
		c0.95-0.99-0.14-1.98-1.08-2.16C186.695,24.018,187.455,24.337,187.915,24.958z M176.395,22.078c1.54,0.42,1.44-2.85,0.36-2.88
		C176.835,20.357,176.115,20.717,176.395,22.078z M172.075,15.958c-0.77-0.31-2.46,0.11-1.44-1.8c-1.06,0.02-1.34,0.82-1.8,1.44
		c-0.25,0.97,0.74,0.7,1.08,1.08c-0.2,1.24-1.39,0.21-2.16,0c-0.54-2.7,1.35-2.97,2.52-3.96c1.35,0.55,1.31,1.94,3.24,1.08
		c0.8,0.52-0.45,0.88,0.36,1.08c-0.41,1.99-1.99,2.81-3.24,3.96c0.04,0.92,1.34,0.58,1.8,1.08c-0.43,2.09-1.19,2.63-2.88,3.96
		c-0.09,1.05,0.68,1.24,1.08,1.8c-0.2,1.72-1.42,2.42-2.88,2.88c-0.44,1.48-0.05,3.79-0.72,5.04c2.46,2.61,5.45-1.34,4.68-4.32
		c0.51-0.69,1.75-0.65,2.52-1.08c-0.64-0.68-0.26-2.38-0.36-3.6c1.01-0.5,2.07-0.95,3.24-0.36c0.46-1.42-0.85-1.07-1.8-1.08
		c-0.12-3.77,0.54-7.6,2.52-10.08c1.31,0.74,1.51,0.95,2.88,1.08c0.03,1.59-0.52,2.6-1.44,3.24c2.78,2.35-1.44,4.84-1.44,6.84
		c0.31,0.53,1.16,0.52,1.8,0.72c0.01,0.85-0.62,1.06-0.36,2.16c-1.59,1.14-2.95,0.82-3.96,2.88c-0.17,1.13,1.1,0.81,0.72,2.16
		c-2.63,0.58-4.02,1.25-5.76,3.24c1.49,1.11,3.42-0.41,5.04-0.36c0.72-1.08,0.54-3.06,1.8-3.6c1.11-0.03,1.07,1.09,1.08,2.16
		c1.59,0.02,2.26-0.86,2.88-1.8c-1.26-0.76-1.26-2.84,0-3.6c1.13-0.17,1.47,0.45,1.8,1.08c0.82-0.38,1.31-1.09,1.44-2.16
		c-0.45-1.03-1.05,1.56-1.8,0.36c1.45-1.76,0.4-2.02,0.36-4.68c0.88-0.41,1.74-2.04,2.88-1.08c-0.37-1.45,0.56-1.6,1.08-2.16
		c0.94,1.22,1.29,3.03,2.88,3.6c-0.78,1.98-1.35,4.17-4.32,3.96c0.1,0.58-0.34,0.62-0.36,1.08c0.01,1.07,1.7,0.46,2.16,1.08
		c-0.65,4.07-5.38,1.99-7.2,5.04c0.04,0.92,1.34,0.58,1.8,1.08c-0.3,1.77-2.47,2.66-3.96,2.16c-0.3-0.42-0.47-0.97-0.36-1.8
		c-1.55,0.14-2.39,0.97-3.96,1.08c0.26,3.39-3.41,8.42-5.04,12.24c0.16,0.92,1.56,0.6,1.8,1.44c-2.57,1.6-5.95-1.87-7.92-3.24
		c-0.64,0.32-0.92,1.01-2.16,0.72c0.11-0.83-0.06-1.38-0.36-1.8c-0.89,0.05-1.73,0.05-2.16-0.36c-1.03,0.05-0.66,1.5-0.72,2.52
		c3.18,3.09,8.97,5.84,14.04,3.96c-0.54,3.43-5.3,0.44-5.4,4.32c-2.09-0.67-5.58,0.05-7.56-0.72c-0.19-1.51,0.63-2.01,0.72-3.24
		c-0.44-1.6-1.88-2.2-3.24-2.88c-0.18-2.46,0.06-4.5,1.08-5.76c1.11,0.45,2.56,0.56,3.96,0.72c1.73-3.63,0.96-7.63,2.52-11.52
		c1.43-0.26,1.45-0.26,2.88,0c2.23-2.77-2.44-9.02,1.44-10.44c-1.42-1.69-0.43-5.72,2.16-4.32
		C170.595,17.837,170.475,16.038,172.075,15.958z"/>
	<path style="fill-rule:evenodd;clip-rule:evenodd;fill:#9367AB;" d="M174.595,158.877c1.65-0.51,2.99-1.33,3.24-3.24
		C175.405,155.368,175.195,157.317,174.595,158.877z M176.395,150.237c0.62-0.6,2.86-1.44,1.8-2.52
		C177.695,148.438,175.465,149.277,176.395,150.237z M176.035,138.357c-0.22-0.74,0.58-2.5-0.72-2.16
		C175.535,136.938,174.735,138.697,176.035,138.357z M177.475,135.837c0.69,0.15,0.28,1.4,1.44,1.08c0.01-0.85-0.62-1.06-0.36-2.16
		c1.86-0.3,2.52-1.8,2.88-3.6C178.725,131.328,178.705,134.188,177.475,135.837z M177.115,131.158c0.28-0.25,0.8-2.01,0-2.16
		C176.835,129.248,176.315,131.007,177.115,131.158z M181.075,125.397c1.08-0.26,3.43-1.11,2.52-2.16
		C182.825,124.027,181.035,123.797,181.075,125.397z M184.675,117.478c1.45,0.11,3.69-1.54,2.16-2.16
		C186.285,116.208,184.595,115.958,184.675,117.478z M189.355,109.917c0.11-0.83-0.06-1.38-0.36-1.8h-1.08
		C187.945,109.167,188.045,110.147,189.355,109.917z M192.595,110.277c0.31,1.75-0.49,2.39-0.72,3.6c-3.61,0.59-2.79,5.61-7.56,5.04
		c-1.28,0.56-0.22-1.22-1.08-1.08c-0.51,1.29-1.4,2.2-1.44,3.96c1.08,0.77,2.85-0.49,4.32,0.36c-0.23,3.18-3.67,4.92-6.12,4.68
		c-0.71,0.61-0.97,1.67-1.08,2.88c0.86,0.76,1.7-0.7,3.24-0.36c1.78,2.56-0.59,5.75-2.52,6.84c0.36,0.6,1.53,0.39,2.16,0.72
		c0.63,3.45-1.95,5.41-3.96,5.04c-0.33-2.25,2.63-1.21,2.52-3.24c-3.96-0.51-4.32,4.84-2.52,7.56c0.89-0.05,1.73-0.05,2.16,0.36
		c0.16,3.28-1.61,4.63-4.32,5.04c0.21,1.17-0.25,1.68-0.36,2.52c0.65,0.44,3.19-0.47,3.96,0.72c0.11,2.5-2.25,5.58-5.04,5.04
		c-0.48,4.97,0.73,10.92,0.72,15.12c0.28,1.35,1.26,0.02,1.8,0.72c-1.26,1.05-1.1,2.77-0.72,4.68c1.27-1.13,1.35-3.45,2.52-4.68
		c1.7,3.4-3.35,6.35-1.8,10.08c-2.4-1.08-1.41-5.55-2.52-7.92c-2.12-1.54-6.09-4.45-4.68-7.2c1.67,1.45,2.34,3.9,4.32,5.04
		c-0.48-8.26-2.06-16.75-1.8-23.4c0.76-0.76,1.4,0.42,2.16,0.72c-0.07-2.83,1.43-6,0.36-8.64c-2.35,0.71-0.01,4.02-0.72,5.04
		c-3.05-0.01-1.5-4.81-1.08-6.48c1.02-0.38,1.5-0.38,2.52,0c1.13-2.87-2.89-4.33-1.08-7.92c0.85,0.01,1.06-0.62,2.16-0.36
		c-0.89-2.2-1.89-5.05,0-7.2c1.11-0.25,0.69-0.25,1.8,0c1-1.64,1.4-3.88,2.16-5.76c-0.33-0.75-1.06-1.1-2.16-1.08
		c-0.63,0.54,0.74,4.03-0.36,5.04c-2.14-0.39-0.8-4.9-0.72-6.48c1.75-0.31,2.39,0.49,3.6,0.72c1.66-2.22-0.26-6.07,1.8-9
		c2.34-0.18,3,1.32,3.24,3.24c1.83-1.5,5.11,0.14,5.76-2.88c-1.33-1.35-2.56,1.83-3.24,1.08c-1.56-0.96-1.46-3.58-2.16-5.4
		C188.925,105.277,190.375,109.257,192.595,110.277z"/>
	<path style="fill-rule:evenodd;clip-rule:evenodd;fill:#9367AB;" d="M137.875,123.598c1.59-0.27,1.47,1.17,2.52,1.44
		c1.27-0.53,2-1.6,3.96-1.44c1.16,1.81-0.19,3.77-1.08,4.68c-1.49-0.42,0.04-1.79,0-2.88c-1.24,0.2-1.83,1.05-2.52,1.8
		c-0.25,0.97,0.74,0.7,1.08,1.08c-1.44,1.69-3.23-0.93-4.68-1.44C137.355,125.717,137.445,124.487,137.875,123.598z"/>
	<path style="fill-rule:evenodd;clip-rule:evenodd;fill:#9367AB;" d="M77.755,139.797c0.31-0.91,2.41-1.88,1.44-2.88
		C78.985,137.928,76.575,138.587,77.755,139.797z M76.675,134.757c0.12,0.84,0.43,1.49,0.72,2.16c0.99-0.81,2.01-1.59,3.6-1.8
		c0.39,3.75-2.01,4.71-3.6,6.48c-0.44-0.16-0.74-0.46-0.72-1.08c-1.32,0.88,1,2.23,0,2.88
		C74.755,142.308,73.025,134.987,76.675,134.757z"/>
</g>
</svg>
