<svg version="1.1" id="圖層_1" xmlns="http://www.w3.org/2000/svg" xmlns:xlink="http://www.w3.org/1999/xlink" x="0px" y="0px"
	 width="288.992px" height="173.002px" viewBox="0 0 288.992 173.002" enable-background="new 0 0 288.992 173.002"
	 xml:space="preserve">
<g>
	<path fill="none" stroke="#824F9D" stroke-width="2" stroke-linecap="round" stroke-linejoin="round" stroke-miterlimit="10" d="
		M2.72,26.788c0,0,14.036-17.516,28.073-15.263c14.036,2.264,24.974,17.526,26.797,25.432c0,0-2.791-1.924-7.656-2.542"/>
	<path fill="none" stroke="#824F9D" stroke-width="2" stroke-linecap="round" stroke-linejoin="round" stroke-miterlimit="10" d="
		M47.381,36.956c-0.28,0.299,0-7.626,0-7.626l-6.38,6.36l-6.381-3.818c0,0,0.24-5.035,5.104-7.626c0,0-8.035-0.17-8.933,6.36
		l-5.104-2.542c0,0-0.777-5.522,2.552-7.636c0,0-10.597,4.795-10.208,8.902h-3.828v-5.083l-3.827,3.817H1.444"/>
	<path fill="none" stroke="#824F9D" stroke-width="2" stroke-linecap="round" stroke-linejoin="round" stroke-miterlimit="10" d="
		M24.412,28.063c0,0-8.095,6.999-10.209,17.794"/>
	<path fill="none" stroke="#824F9D" stroke-width="2" stroke-linecap="round" stroke-linejoin="round" stroke-miterlimit="10" d="
		M14.205,45.858c0,0,8.742-5.493,8.932-5.084c0.18,0.409,2.552-6.36,2.552-6.36l1.276,5.084l6.38-3.808l1.275-2.542l1.276,3.808
		h2.552l1.275-2.542"/>
	<path fill="none" stroke="#824F9D" stroke-width="2" stroke-linecap="round" stroke-linejoin="round" stroke-miterlimit="10" d="
		M28.24,10.259c0,0,6.262-5.493,15.313-5.084c9.041,0.398,17.685,6.33,20.416,12.71"/>
	<path fill="none" stroke="#824F9D" stroke-width="2" stroke-linecap="round" stroke-linejoin="round" stroke-miterlimit="10" d="
		M46.104,19.161c0,0,3.917-4.806,7.656-5.084l-1.275,3.808c0,0,3.719,1.755,3.828,1.276c0.11-0.489,1.275-2.542,1.275-2.542v6.35
		l5.104-1.266"/>
	<path fill="none" stroke="#824F9D" stroke-width="2" stroke-linecap="round" stroke-linejoin="round" stroke-miterlimit="10" d="
		M58.867,30.606c0.308-0.02,3.868-25.243,35.729-25.431l-8.933,6.35l-2.552-1.266l1.275,3.817l-5.104,3.808l-6.38-1.266l1.275,2.542
		l-3.828,2.542h-2.552v2.542"/>
	<path fill="none" stroke="#824F9D" stroke-width="2" stroke-linecap="round" stroke-linejoin="round" stroke-miterlimit="10" d="
		M61.418,30.606c0.618,0.33,7.497-6.909,17.864-7.636c10.359-0.727,16.589,6.36,16.589,6.36h-5.104l-2.552-1.266l-1.276,3.808
		l-6.38-1.266h-1.275v2.542l-7.656,1.266l-1.275-1.266l-1.276,2.542c0,0-4.974,1.694-5.103,1.268"/>
	<path fill="none" stroke="#824F9D" stroke-width="2" stroke-linecap="round" stroke-linejoin="round" stroke-miterlimit="10" d="
		M56.313,38.231c0,0-1.097,39.398,0,48.32c1.097,8.914,1.964,19.869,1.275,34.323c-0.688,14.467-1.275,44.502-1.275,44.502"/>
	<path fill="none" stroke="#824F9D" stroke-width="2" stroke-linecap="round" stroke-linejoin="round" stroke-miterlimit="10" d="
		M63.97,159.027c0,0-1.854-18.553-1.276-29.249c0.579-10.687,0-53.405,0-53.405l1.276-33.057"/>
	<path fill="none" stroke="#824F9D" stroke-width="2" stroke-linecap="round" stroke-linejoin="round" stroke-miterlimit="10" d="
		M55.037,36.956c0,0-4.086,2.582-10.208,7.637"/>
	<path fill="none" stroke="#824F9D" stroke-width="2" stroke-linecap="round" stroke-linejoin="round" stroke-miterlimit="10" d="
		M55.037,40.774c0,0-8.154,4.217-10.208,7.626"/>
	<path fill="none" stroke="#824F9D" stroke-width="2" stroke-linecap="round" stroke-linejoin="round" stroke-miterlimit="10" d="
		M53.762,43.316c0,0-6.619,7.437-7.656,8.901"/>
	<path fill="none" stroke="#824F9D" stroke-width="2" stroke-linecap="round" stroke-linejoin="round" stroke-miterlimit="10" d="
		M55.037,48.4c0,0-6.16,6.052-6.379,6.361"/>
	<path fill="none" stroke="#824F9D" stroke-width="2" stroke-linecap="round" stroke-linejoin="round" stroke-miterlimit="10" d="
		M48.657,53.485c0,0-0.439-1.247,1.276-1.266c1.714-0.029,2.762,1.865,1.275,2.542C49.725,55.438,48.657,53.485,48.657,53.485z"/>
	<path fill="none" stroke="#824F9D" stroke-width="2" stroke-linecap="round" stroke-linejoin="round" stroke-miterlimit="10" d="
		M44.829,42.05c0,0,3.888-1.736,3.828,0c-0.06,1.724-1.515,0.967-2.552,1.266C45.068,43.615,44.829,42.05,44.829,42.05z"/>
	<path fill="none" stroke="#824F9D" stroke-width="2" stroke-linecap="round" stroke-linejoin="round" stroke-miterlimit="10" d="
		M51.209,43.316c1.505-0.819,3.011,0.697,2.551,1.275c-0.458,0.567-1.604,1.804-2.551,1.265
		C50.252,45.32,49.704,44.133,51.209,43.316z"/>
	<path fill="none" stroke="#824F9D" stroke-width="2" stroke-linecap="round" stroke-linejoin="round" stroke-miterlimit="10" d="
		M46.104,47.135c1.476-0.379,3.091,0.409,2.552,1.266c-0.539,0.857-1.734,2.064-2.552,1.276
		C45.287,48.889,44.629,47.503,46.104,47.135z"/>
	<path fill="none" stroke="#824F9D" stroke-width="2" stroke-linecap="round" stroke-linejoin="round" stroke-miterlimit="10" d="
		M65.246,43.316c-0.02,0.508,5.104-6.36,5.104-6.36"/>
	
		<line fill="none" stroke="#824F9D" stroke-width="2" stroke-linecap="round" stroke-linejoin="round" stroke-miterlimit="10" x1="65.246" y1="48.4" x2="74.179" y2="38.231"/>
	<path fill="none" stroke="#824F9D" stroke-width="2" stroke-linecap="round" stroke-linejoin="round" stroke-miterlimit="10" d="
		M66.521,52.218c0.2,0.13,6.381-5.083,6.381-5.083"/>
	<path fill="none" stroke="#824F9D" stroke-width="2" stroke-linecap="round" stroke-linejoin="round" stroke-miterlimit="10" d="
		M65.246,38.231c0,0,3.041,0.03,2.552,1.266c-0.489,1.235-2.003,2.002-2.552,1.275C64.688,40.046,64.409,38.541,65.246,38.231z"/>
	<path fill="none" stroke="#824F9D" stroke-width="2" stroke-linecap="round" stroke-linejoin="round" stroke-miterlimit="10" d="
		M65.246,43.316c0,0,1.914-1.416,2.552,0c0.628,1.416,1.665,3.24,0,2.542C66.133,45.161,65.246,43.316,65.246,43.316z"/>
	<path fill="none" stroke="#824F9D" stroke-width="2" stroke-linecap="round" stroke-linejoin="round" stroke-miterlimit="10" d="
		M70.351,39.498c0,0,2.581-0.967,2.552,0c-0.04,0.976-0.06,1.046-1.276,1.275C70.41,41.003,69.583,40.175,70.351,39.498z"/>
	<path fill="none" stroke="#824F9D" stroke-width="2" stroke-linecap="round" stroke-linejoin="round" stroke-miterlimit="10" d="
		M70.351,44.593c0,0,1.405-1.057,2.552,0c1.136,1.047,1.744,1.007,0,1.266C71.157,46.118,70.131,45.509,70.351,44.593z"/>
	<path fill="none" stroke="#824F9D" stroke-width="2" stroke-linecap="round" stroke-linejoin="round" stroke-miterlimit="10" d="
		M67.798,48.4c0,0,3.08,0.2,2.552,1.276c-0.529,1.077-4.137,2.632-3.828,1.266C66.821,49.577,67.798,48.4,67.798,48.4z"/>
	<path fill="none" stroke="#824F9D" stroke-width="2" stroke-linecap="round" stroke-linejoin="round" stroke-miterlimit="10" d="
		M56.313,53.485c0.03,0.2,7.656-2.542,7.656-2.542"/>
	
		<line fill="none" stroke="#824F9D" stroke-width="2" stroke-linecap="round" stroke-linejoin="round" stroke-miterlimit="10" x1="55.037" y1="57.303" x2="63.97" y2="54.761"/>
	<path fill="none" stroke="#824F9D" stroke-width="2" stroke-linecap="round" stroke-linejoin="round" stroke-miterlimit="10" d="
		M53.762,61.12c0.768-0.837,10.208-3.817,10.208-3.817"/>
	<path fill="none" stroke="#824F9D" stroke-width="2" stroke-linecap="round" stroke-linejoin="round" stroke-miterlimit="10" d="
		M53.762,64.928c0.13-0.377,11.484-5.083,11.484-5.083"/>
	
		<line fill="none" stroke="#824F9D" stroke-width="2" stroke-linecap="round" stroke-linejoin="round" stroke-miterlimit="10" x1="55.037" y1="67.471" x2="62.693" y2="64.928"/>
	<path fill="none" stroke="#824F9D" stroke-width="2" stroke-linecap="round" stroke-linejoin="round" stroke-miterlimit="10" d="
		M107.355,29.33c0,0,0.06,7.248,7.646,7.626c7.596,0.378,10.627-7.636,10.208-11.445c-0.409-3.798-3.828-5.083-3.828-5.083"/>
	<path fill="none" stroke="#824F9D" stroke-width="2" stroke-linecap="round" stroke-linejoin="round" stroke-miterlimit="10" d="
		M112.458,21.703c0,0,5.374-2.771,8.923,1.266"/>
	<path fill="none" stroke="#824F9D" stroke-width="2" stroke-linecap="round" stroke-linejoin="round" stroke-miterlimit="10" d="
		M112.458,20.428c0,0,3.878-3.121,8.923,0"/>
	<path fill="none" stroke="#824F9D" stroke-width="2" stroke-linecap="round" stroke-linejoin="round" stroke-miterlimit="10" d="
		M113.735,16.619c0,0,11.534-0.947,14.027,7.626c2.502,8.563-5.104,16.529-5.104,16.529"/>
	<path fill="none" stroke="#824F9D" stroke-width="2" stroke-linecap="round" stroke-linejoin="round" stroke-miterlimit="10" d="
		M120.105,38.231c0,0,3.041-1.355,3.828-6.36"/>
	<path fill="none" stroke="#824F9D" stroke-width="2" stroke-linecap="round" stroke-linejoin="round" stroke-miterlimit="10" d="
		M109.907,22.969c0,0-2.771,3.23-2.552,8.903c0.209,5.673,2.552,11.445,2.552,11.445"/>
	<path fill="none" stroke="#824F9D" stroke-width="2" stroke-linecap="round" stroke-linejoin="round" stroke-miterlimit="10" d="
		M107.355,24.245c0,0-2.414,7.177-1.276,13.986c1.126,6.809,2.552,6.36,2.552,6.36"/>
	<path fill="none" stroke="#824F9D" stroke-width="2" stroke-linecap="round" stroke-linejoin="round" stroke-miterlimit="10" d="
		M104.803,22.969c0,0-1.565,3.369-1.276,11.444c0.28,8.084,2.552,13.986,2.552,13.986"/>
	
		<line fill="none" stroke="#824F9D" stroke-width="2" stroke-linecap="round" stroke-linejoin="round" stroke-miterlimit="10" x1="117.554" y1="43.316" x2="117.554" y2="36.956"/>
	
		<line fill="none" stroke="#824F9D" stroke-width="2" stroke-linecap="round" stroke-linejoin="round" stroke-miterlimit="10" x1="115.002" y1="38.231" x2="115.002" y2="43.316"/>
	<path fill="none" stroke="#824F9D" stroke-width="2" stroke-linecap="round" stroke-linejoin="round" stroke-miterlimit="10" d="
		M112.458,43.316c0,0,0.131,2.083,2.542,2.542c2.422,0.458,4.535,0.398,5.104-2.542"/>
	<path fill="none" stroke="#824F9D" stroke-width="2" stroke-linecap="round" stroke-linejoin="round" stroke-miterlimit="10" d="
		M112.458,28.063c0,0,1.694-0.797,2.542,0"/>
	<path fill="none" stroke="#824F9D" stroke-width="2" stroke-linecap="round" stroke-linejoin="round" stroke-miterlimit="10" d="
		M117.554,26.788c0,0,1.983-1.924,2.552-1.276"/>
	<path fill="none" stroke="#824F9D" stroke-width="2" stroke-linecap="round" stroke-linejoin="round" stroke-miterlimit="10" d="
		M112.458,31.872c0,0,5.154,4.226,8.923-2.542"/>
	<path fill="none" stroke="#824F9D" stroke-width="2" stroke-linecap="round" stroke-linejoin="round" stroke-miterlimit="10" d="
		M120.105,42.05c0,0,6.65,5.323,7.656,13.977c1.017,8.663,0,12.719,0,12.719"/>
	<path fill="none" stroke="#824F9D" stroke-width="2" stroke-linecap="round" stroke-linejoin="round" stroke-miterlimit="10" d="
		M123.935,52.218c0,0,3.608,14.494,3.828,20.346c0.229,5.843,0.13,7.856,0,7.627"/>
	<path fill="none" stroke="#824F9D" stroke-width="2" stroke-linecap="round" stroke-linejoin="round" stroke-miterlimit="10" d="
		M113.735,53.485c0,0-6.24,7.208-7.656,25.431v6.359c0,0,18.483-0.976,21.683-3.818"/>
	<path fill="none" stroke="#824F9D" stroke-width="2" stroke-linecap="round" stroke-linejoin="round" stroke-miterlimit="10" d="
		M108.631,44.593c0,0-3.469,5.313-5.104,15.252c-1.635,9.938,0,16.529,0,16.529l2.552,1.276"/>
	<path fill="none" stroke="#824F9D" stroke-width="2" stroke-linecap="round" stroke-linejoin="round" stroke-miterlimit="10" d="
		M103.527,76.374c0,0,0.35,7.786,2.552,6.361"/>
	<path fill="none" stroke="#824F9D" stroke-width="2" stroke-linecap="round" stroke-linejoin="round" stroke-miterlimit="10" d="
		M107.355,82.734c0,0,13.02,0.02,20.407-3.819"/>
	<path fill="none" stroke="#824F9D" stroke-width="2" stroke-linecap="round" stroke-linejoin="round" stroke-miterlimit="10" d="
		M113.735,59.845c0,0,0.439-2.363,2.552-2.542c2.103-0.17,1.605,3.17,1.266,3.817c-0.33,0.638-3.121,1.047-3.819,0"/>
	<path fill="none" stroke="#824F9D" stroke-width="2" stroke-linecap="round" stroke-linejoin="round" stroke-miterlimit="10" d="
		M112.458,59.845c0,0-2.422,3.808-1.275,5.083c1.136,1.276,5.363,3.231,6.371,1.276c1.017-1.954,0-3.817,0-3.817"/>
	<path fill="none" stroke="#824F9D" stroke-width="2" stroke-linecap="round" stroke-linejoin="round" stroke-miterlimit="10" d="
		M118.83,62.387c0,0,3.051,1.654,2.552-1.267c-0.489-2.921-3.828-2.542-3.828-2.542"/>
	<path fill="none" stroke="#824F9D" stroke-width="2" stroke-linecap="round" stroke-linejoin="round" stroke-miterlimit="10" d="
		M120.105,58.579c0,0,2.892-2.711,0-3.818c-2.881-1.106-5.622-0.489-5.104,2.542"/>
	<path fill="none" stroke="#824F9D" stroke-width="2" stroke-linecap="round" stroke-linejoin="round" stroke-miterlimit="10" d="
		M117.554,67.471c0,0,1.496,1.994,0,2.542c-1.486,0.559-2.213-1.047-1.266-1.267"/>
	<path fill="none" stroke="#824F9D" stroke-width="2" stroke-linecap="round" stroke-linejoin="round" stroke-miterlimit="10" d="
		M117.554,71.289c0,0-0.698,1.396-1.266,1.275"/>
	<path fill="none" stroke="#824F9D" stroke-width="2" stroke-linecap="round" stroke-linejoin="round" stroke-miterlimit="10" d="
		M106.079,84c0,0-0.119,14.025,1.276,21.624c1.385,7.584,2.722,19.577,2.552,22.887c-0.179,3.302-1.445,23.736-2.552,26.696
		c-1.117,2.951-2.552,6.36-2.552,6.36s5.404-1.426,12.75-2.542c7.357-1.126,13.259,0.728,12.76,1.268c-0.489,0.538,2.552,0,2.552,0
		s-4.207-12.662-5.104-22.891c-0.888-10.219-0.718-31.261,0-38.142c0.727-6.879,0-19.071,0-19.071"/>
	<path fill="none" stroke="#824F9D" stroke-width="2" stroke-linecap="round" stroke-linejoin="round" stroke-miterlimit="10" d="
		M117.554,108.164c0,0,0.339,49.706,0,49.587"/>
	
		<line fill="none" stroke="#824F9D" stroke-width="2" stroke-linecap="round" stroke-linejoin="round" stroke-miterlimit="10" x1="109.907" y1="159.027" x2="109.907" y2="167.92"/>
	
		<line fill="none" stroke="#824F9D" stroke-width="2" stroke-linecap="round" stroke-linejoin="round" stroke-miterlimit="10" x1="112.458" y1="159.027" x2="112.458" y2="166.652"/>
	<path fill="none" stroke="#824F9D" stroke-width="2" stroke-linecap="round" stroke-linejoin="round" stroke-miterlimit="10" d="
		M111.183,161.567c-0.299,0.07,2.552,1.267,2.552,1.267"/>
	<path fill="none" stroke="#824F9D" stroke-width="2" stroke-linecap="round" stroke-linejoin="round" stroke-miterlimit="10" d="
		M111.183,165.377c-0.479-0.357,1.275,0,1.275,0"/>
	<path fill="none" stroke="#824F9D" stroke-width="2" stroke-linecap="round" stroke-linejoin="round" stroke-miterlimit="10" d="
		M108.631,169.196c0.469,0.188,2.492-1.576,5.104-1.276c2.602,0.298,4.786-0.41,6.371,3.817c0,0-3.978-1.166-6.371-1.276
		c-2.403-0.099-5.104,0-5.104,0S108.152,169.007,108.631,169.196z"/>
	
		<line fill="none" stroke="#824F9D" stroke-width="2" stroke-linecap="round" stroke-linejoin="round" stroke-miterlimit="10" x1="121.382" y1="157.751" x2="121.382" y2="169.196"/>
	
		<line fill="none" stroke="#824F9D" stroke-width="2" stroke-linecap="round" stroke-linejoin="round" stroke-miterlimit="10" x1="125.21" y1="157.751" x2="123.935" y2="165.377"/>
	
		<line fill="none" stroke="#824F9D" stroke-width="2" stroke-linecap="round" stroke-linejoin="round" stroke-miterlimit="10" x1="122.658" y1="160.293" x2="125.21" y2="161.567"/>
	<path fill="none" stroke="#824F9D" stroke-width="2" stroke-linecap="round" stroke-linejoin="round" stroke-miterlimit="10" d="
		M122.658,164.112c0.02-0.25,2.552,0,2.552,0"/>
	<path fill="none" stroke="#824F9D" stroke-width="2" stroke-linecap="round" stroke-linejoin="round" stroke-miterlimit="10" d="
		M126.486,165.377c0,0,3.708-1.545,6.38,1.275c2.672,2.812-2.552,1.268-2.552,1.268h-8.932"/>
	<path fill="none" stroke="#824F9D" stroke-width="2" stroke-linecap="round" stroke-linejoin="round" stroke-miterlimit="10" d="
		M26.965,91.636c-0.189-0.848,5.094-9.41,11.484-13.987c0,0,0.907,13.259-10.209,12.711"/>
	<path fill="none" stroke="#824F9D" stroke-width="2" stroke-linecap="round" stroke-linejoin="round" stroke-miterlimit="10" d="
		M26.965,89.095c0,0-0.788-5.434,5.104-10.178"/>
	
		<line fill="none" stroke="#824F9D" stroke-width="2" stroke-linecap="round" stroke-linejoin="round" stroke-miterlimit="10" x1="33.345" y1="78.916" x2="32.068" y2="82.734"/>
	<path fill="none" stroke="#824F9D" stroke-width="2" stroke-linecap="round" stroke-linejoin="round" stroke-miterlimit="10" d="
		M18.032,89.095c0,0,5.493-1.217,10.208,0c4.716,1.206,5.104,0,5.104,0s3.539-0.779,7.656-1.277c4.107-0.5,1.275,0,1.275,0"/>
	<path fill="none" stroke="#824F9D" stroke-width="2" stroke-linecap="round" stroke-linejoin="round" stroke-miterlimit="10" d="
		M42.277,86.551c0,0-1.914,6.451-6.38,7.626s-11.484-1.276-11.484-1.276s-3.888-2.303-5.104-5.084"/>
	<path fill="none" stroke="#824F9D" stroke-width="2" stroke-linecap="round" stroke-linejoin="round" stroke-miterlimit="10" d="
		M24.412,90.359c0,0-0.02-1.784,1.275-1.265"/>
	<path fill="none" stroke="#824F9D" stroke-width="2" stroke-linecap="round" stroke-linejoin="round" stroke-miterlimit="10" d="
		M163.491,16.619c0,0-6.391,2.284-6.38,7.626c0.02,5.343,2.143,7.646,6.38,7.626c4.236-0.01,10.398-1.565,10.208-8.903"/>
	<path fill="none" stroke="#824F9D" stroke-width="2" stroke-linecap="round" stroke-linejoin="round" stroke-miterlimit="10" d="
		M159.662,24.245c0,0,0.012,2.602,2.553,3.817c2.553,1.207,5.812-0.109,6.38-1.275"/>
	<path fill="none" stroke="#824F9D" stroke-width="2" stroke-linecap="round" stroke-linejoin="round" stroke-miterlimit="10" d="
		M160.938,21.703c0,0,1.077-1.286,2.553,0"/>
	<path fill="none" stroke="#824F9D" stroke-width="2" stroke-linecap="round" stroke-linejoin="round" stroke-miterlimit="10" d="
		M166.042,21.703c0,0,2.363-1.117,2.554,1.266"/>
	<path fill="none" stroke="#824F9D" stroke-width="2" stroke-linecap="round" stroke-linejoin="round" stroke-miterlimit="10" d="
		M166.042,24.245c0,0-1.586,0.847-1.274,2.542"/>
	<path fill="none" stroke="#824F9D" stroke-width="2" stroke-linecap="round" stroke-linejoin="round" stroke-miterlimit="10" d="
		M166.042,16.619c0,0-3.308-3.669-7.656,1.266"/>
	<path fill="none" stroke="#824F9D" stroke-width="2" stroke-linecap="round" stroke-linejoin="round" stroke-miterlimit="10" d="
		M167.32,14.076c0,0-5.066-4.406-8.935,2.542"/>
	<path fill="none" stroke="#824F9D" stroke-width="2" stroke-linecap="round" stroke-linejoin="round" stroke-miterlimit="10" d="
		M169.873,17.884c0,0,6.937,0.549,3.827,7.627"/>
	<path fill="none" stroke="#824F9D" stroke-width="2" stroke-linecap="round" stroke-linejoin="round" stroke-miterlimit="10" d="
		M171.147,16.619c0,0,5.155-2.173,6.38,3.808c1.237,5.991-0.408,10.078-5.104,10.178"/>
	<path fill="none" stroke="#824F9D" stroke-width="2" stroke-linecap="round" stroke-linejoin="round" stroke-miterlimit="10" d="
		M172.423,14.076c0,0,7.337-1.426,8.934,6.351c1.595,7.786-3.801,11.135-6.381,10.178"/>
	
		<line fill="none" stroke="#824F9D" stroke-width="2" stroke-linecap="round" stroke-linejoin="round" stroke-miterlimit="10" x1="167.32" y1="31.872" x2="167.32" y2="36.956"/>
	
		<line fill="none" stroke="#824F9D" stroke-width="2" stroke-linecap="round" stroke-linejoin="round" stroke-miterlimit="10" x1="171.147" y1="30.606" x2="171.147" y2="34.414"/>
	<path fill="none" stroke="#824F9D" stroke-width="2" stroke-linecap="round" stroke-linejoin="round" stroke-miterlimit="10" d="
		M167.32,35.689c0,0-7.468,0.778-11.485,13.987c-4.009,13.199-2.555,17.794-2.555,17.794h5.105"/>
	<path fill="none" stroke="#824F9D" stroke-width="2" stroke-linecap="round" stroke-linejoin="round" stroke-miterlimit="10" d="
		M171.147,38.231c0,0-10.059,8.833-11.485,16.529c-1.425,7.696,0,16.528,0,16.528h3.829"/>
	<path fill="none" stroke="#824F9D" stroke-width="2" stroke-linecap="round" stroke-linejoin="round" stroke-miterlimit="10" d="
		M172.423,47.135c0,0-6.75,8.902-7.657,15.252c-0.906,6.359,0,11.444,0,11.444h8.934c0,0,1.257-8.453,1.275-13.986
		c0.02-5.522,2.093-17.417-2.553-22.889"/>
	<path fill="none" stroke="#824F9D" stroke-width="2" stroke-linecap="round" stroke-linejoin="round" stroke-miterlimit="10" d="
		M162.215,42.05c0,0-3.03,8.015-2.553,11.435"/>
	<path fill="none" stroke="#824F9D" stroke-width="2" stroke-linecap="round" stroke-linejoin="round" stroke-miterlimit="10" d="
		M169.873,73.831c0,0,0.019,11.116,2.551,12.72c2.542,1.595,1.276-3.818,1.276-3.818"/>
	<path fill="none" stroke="#824F9D" stroke-width="2" stroke-linecap="round" stroke-linejoin="round" stroke-miterlimit="10" d="
		M154.557,67.471v17.804c0,0-0.139,2.405,1.278,2.542"/>
	<path fill="none" stroke="#824F9D" stroke-width="2" stroke-linecap="round" stroke-linejoin="round" stroke-miterlimit="10" d="
		M157.111,68.747c0,0-0.143,20.676,0,25.431c0.148,4.745,1.953,4.048,2.553,2.542c0.606-1.506,0-21.613,0-21.613l1.274-3.818"/>
	<path fill="none" stroke="#824F9D" stroke-width="2" stroke-linecap="round" stroke-linejoin="round" stroke-miterlimit="10" d="
		M158.386,97.987c0,0,1.288,11.732,0,20.347c-1.285,8.61-1.274,15.261-1.274,15.261h21.692c0,0-0.968-26.01-1.275-33.057
		c-0.31-7.06-2.272-17.017-3.828-22.89"/>
	<path fill="none" stroke="#824F9D" stroke-width="2" stroke-linecap="round" stroke-linejoin="round" stroke-miterlimit="10" d="
		M162.215,133.595l-2.553,26.698c0,0-6.291,1.376-10.207,5.083c0,0,10.706-1.913,15.311-1.264"/>
	
		<line fill="none" stroke="#824F9D" stroke-width="2" stroke-linecap="round" stroke-linejoin="round" stroke-miterlimit="10" x1="163.491" y1="161.567" x2="164.768" y2="133.595"/>
	
		<line fill="none" stroke="#824F9D" stroke-width="2" stroke-linecap="round" stroke-linejoin="round" stroke-miterlimit="10" x1="160.938" y1="152.667" x2="163.491" y2="152.667"/>
	
		<line fill="none" stroke="#824F9D" stroke-width="2" stroke-linecap="round" stroke-linejoin="round" stroke-miterlimit="10" x1="159.662" y1="155.208" x2="163.491" y2="155.208"/>
	<path fill="none" stroke="#824F9D" stroke-width="2" stroke-linecap="round" stroke-linejoin="round" stroke-miterlimit="10" d="
		M159.662,160.293c0.606-0.358,3.829,0,3.829,0"/>
	<path fill="none" stroke="#824F9D" stroke-width="2" stroke-linecap="round" stroke-linejoin="round" stroke-miterlimit="10" d="
		M169.873,132.318l-1.277,31.794c0,0,6.68,0.457,12.761,0c0,0-4.915-2.913-7.656-3.819c-2.732-0.907-2.553-1.266-2.553-1.266
		l2.553-25.433"/>
	
		<line fill="none" stroke="#824F9D" stroke-width="2" stroke-linecap="round" stroke-linejoin="round" stroke-miterlimit="10" x1="169.873" y1="151.391" x2="172.423" y2="152.667"/>
	<path fill="none" stroke="#824F9D" stroke-width="2" stroke-linecap="round" stroke-linejoin="round" stroke-miterlimit="10" d="
		M169.873,155.208c-0.25-0.089,2.551,0,2.551,0"/>
	<path fill="none" stroke="#824F9D" stroke-width="2" stroke-linecap="round" stroke-linejoin="round" stroke-miterlimit="10" d="
		M169.873,159.027c-0.25-0.509,2.551-1.276,2.551-1.276"/>
	<path fill="none" stroke="#824F9D" stroke-width="2" stroke-linecap="round" stroke-linejoin="round" stroke-miterlimit="10" d="
		M204.323,143.765l11.484-50.863c0,0-10.027,0.606-16.586-5.086c-6.561-5.691,3.827-7.625,3.827-7.625s-3.986-4.636-2.554-10.179
		c1.436-5.533,8.933-6.35,8.933-6.35s-3.857-9.072,1.275-15.263c5.134-6.191,12.254-6.22,15.313-3.808
		c0,0,4.986-11.047,14.036-10.179c9.052,0.868,14.485,10.387,12.76,19.071c-1.724,8.684-8.932,15.263-8.932,15.263
		s10.248,3.21,7.657,13.987c-2.604,10.775-19.142,7.627-19.142,7.627s-3.141,11.753-15.312,10.179"/>
	<path fill="none" stroke="#824F9D" stroke-width="2" stroke-linecap="round" stroke-linejoin="round" stroke-miterlimit="10" d="
		M218.359,91.636c0,0-3.537,21.146-5.103,29.238c-1.557,8.096-3.829,20.347-3.829,20.347"/>
	<path fill="none" stroke="#824F9D" stroke-width="2" stroke-linecap="round" stroke-linejoin="round" stroke-miterlimit="10" d="
		M243.881,96.72c0,0-3.249,16.529-6.379,26.699c-3.13,10.168-7.657,21.621-7.657,21.621"/>
	<path fill="none" stroke="#824F9D" stroke-width="2" stroke-linecap="round" stroke-linejoin="round" stroke-miterlimit="10" d="
		M248.987,99.263c0,0-0.658,7.984-3.829,22.89c-3.17,14.902-6.38,25.431-6.38,25.431"/>
	<path fill="none" stroke="#824F9D" stroke-width="2" stroke-linecap="round" stroke-linejoin="round" stroke-miterlimit="10" d="
		M242.605,104.346c0,0-4.905,4.217-10.208,2.542c-5.303-1.664-5.104-10.168-5.104-10.168"/>
	<path fill="none" stroke="#824F9D" stroke-width="2" stroke-linecap="round" stroke-linejoin="round" stroke-miterlimit="10" d="
		M247.709,108.164c0,0,0.013,5.295,7.658,3.808c7.646-1.474,16.648-10.077,11.485-21.612c0,0,17.684,1.783,20.415-21.614
		c2.721-23.397-15.312-21.613-15.312-21.613s8.584-14.894,2.553-21.624c-6.031-6.719-25.053,3.32-26.798,10.179"/>
	<path fill="none" stroke="#824F9D" stroke-width="2" stroke-linecap="round" stroke-linejoin="round" stroke-miterlimit="10" d="
		M176.251,138.68c0,0,44.722,0.688,80.391,10.17"/>
	<path fill="none" stroke="#824F9D" stroke-width="2" stroke-linecap="round" stroke-linejoin="round" stroke-miterlimit="10" d="
		M152.006,136.14c0,0-13.088,1.645-22.968,2.54"/>
	<path fill="none" stroke="#824F9D" stroke-width="2" stroke-linecap="round" stroke-linejoin="round" stroke-miterlimit="10" d="
		M107.355,142.488c0,0-17.316,3.001-43.385,12.72"/>
	<path fill="none" stroke="#824F9D" stroke-width="2" stroke-linecap="round" stroke-linejoin="round" stroke-miterlimit="10" d="
		M223.465,8.982c0,0,7.248-2.661,11.485-1.266c4.236,1.385,2.552,3.808,2.552,3.808s-1.445,2.751-6.38,2.552
		c-4.935-0.208-8.932-2.552-8.932-2.552"/>
	<path fill="none" stroke="#824F9D" stroke-width="2" stroke-linecap="round" stroke-linejoin="round" stroke-miterlimit="10" d="
		M224.741,12.8c0,0-1.725,6.889,0,7.627c1.725,0.748,4.765,0.208,3.828-2.542c0,0,1.048,1.416,2.553,0c1.506-1.416,0-3.808,0-3.808"
		/>
	<path fill="none" stroke="#824F9D" stroke-width="2" stroke-linecap="round" stroke-linejoin="round" stroke-miterlimit="10" d="
		M226.017,7.717c0,0-0.288-5.693,2.553-6.361c2.843-0.667,2.553,2.542,2.553,2.542s2.763-0.398,1.275,2.542"/>
	<path fill="none" stroke="#824F9D" stroke-width="2" stroke-linecap="round" stroke-linejoin="round" stroke-miterlimit="10" d="
		M222.188,8.982c0,0-0.159-2.542-2.552-2.542c-2.392,0.011-2.554,3.818-2.554,3.818l-1.275,1.266l1.275,1.275
		c0,0,4.327,1.426,5.105,0"/>
	<path fill="none" stroke="#824F9D" stroke-width="2" stroke-linecap="round" stroke-linejoin="round" stroke-miterlimit="10" d="
		M219.638,10.259c0,0,0.169-1.117,1.275,0"/>
</g>
</svg>
