<svg version="1.1" id="&#x5716;&#x5C64;_1" xmlns="http://www.w3.org/2000/svg" xmlns:xlink="http://www.w3.org/1999/xlink" x="0px"
	 y="0px" width="225px" height="134px" viewBox="0 0 225 134" style="enable-background:new 0 0 225 134;" xml:space="preserve">
<g>
	<g>
		
			<path style="fill-rule:evenodd;clip-rule:evenodd;fill:none;stroke:#824F9D;stroke-width:2;stroke-linecap:round;stroke-linejoin:round;stroke-miterlimit:10;" d="
			M1,122.11c0,0,51.83,8.24,65.04,8.17c13.2-0.07,55.02,1.48,74.52,0c19.5-1.49,68.21-1.17,82.65,2.72"/>
		
			<path style="fill-rule:evenodd;clip-rule:evenodd;fill:none;stroke:#824F9D;stroke-width:2;stroke-linecap:round;stroke-linejoin:round;stroke-miterlimit:10;" d="
			M224,120.81c0,0-24.36-2.41-44.15-2.78c-19.79-0.37-49.66,0.98-59.62,0c-9.95-0.97-70.45-2.72-70.45-2.72l-46.07-2.72"/>
		
			<polyline style="fill-rule:evenodd;clip-rule:evenodd;fill:none;stroke:#824F9D;stroke-width:2;stroke-linecap:round;stroke-linejoin:round;stroke-miterlimit:10;" points="
			13.19,112.59 17.26,66.32 72.81,69.04 68.75,116.67 		"/>
		
			<polyline style="fill-rule:evenodd;clip-rule:evenodd;fill:none;stroke:#824F9D;stroke-width:2;stroke-linecap:round;stroke-linejoin:round;stroke-miterlimit:10;" points="
			66.04,103.06 18.61,101.7 19.97,70.4 68.75,73.12 66.04,104.42 		"/>
		
			<polygon style="fill-rule:evenodd;clip-rule:evenodd;fill:none;stroke:#824F9D;stroke-width:2;stroke-linecap:round;stroke-linejoin:round;stroke-miterlimit:10;" points="
			79.59,73.12 78.23,103.06 109.39,104.42 110.75,77.21 		"/>
		
			<polyline style="fill-rule:evenodd;clip-rule:evenodd;fill:none;stroke:#824F9D;stroke-width:2;stroke-linecap:round;stroke-linejoin:round;stroke-miterlimit:10;" points="
			72.81,116.67 75.52,67.68 116.17,73.12 112.1,118.03 		"/>
		
			<path style="fill-rule:evenodd;clip-rule:evenodd;fill:none;stroke:#824F9D;stroke-width:2;stroke-linecap:round;stroke-linejoin:round;stroke-miterlimit:10;" d="
			M116.17,118.03l2.71-44.91c0,0,23.16,1.68,31.16,4.09l2.71,31.3l2.71,10.88"/>
		
			<path style="fill-rule:evenodd;clip-rule:evenodd;fill:none;stroke:#824F9D;stroke-width:2;stroke-linecap:round;stroke-linejoin:round;stroke-miterlimit:10;" d="
			M148.69,104.42l-28.46-1.36l2.71-24.49h23.04c0,0,2.51,18.71,4.06,23.13"/>
		
			<path style="fill-rule:evenodd;clip-rule:evenodd;fill:none;stroke:#824F9D;stroke-width:2;stroke-linecap:round;stroke-linejoin:round;stroke-miterlimit:10;" d="
			M155.46,97.62l1.36-21.77c0,0,23.54,3.68,27.09,5.44c0,0-0.52,30.12,0,38.1"/>
		
			<path style="fill-rule:evenodd;clip-rule:evenodd;fill:none;stroke:#824F9D;stroke-width:2;stroke-linecap:round;stroke-linejoin:round;stroke-miterlimit:10;" d="
			M178.49,86.73c0.31,0.57,1.36,17.69,1.36,17.69s-11.09-0.87-18.97-2.72l1.35-17.69c0,0,13.52,2.24,18.97,4.08"/>
		
			<path style="fill-rule:evenodd;clip-rule:evenodd;fill:none;stroke:#824F9D;stroke-width:2;stroke-linecap:round;stroke-linejoin:round;stroke-miterlimit:10;" d="
			M220.5,122.11l2.71-36.74c-14.04-2.94-35.23-2.72-35.23-2.72l-2.71,35.38"/>
		
			<path style="fill-rule:evenodd;clip-rule:evenodd;fill:none;stroke:#824F9D;stroke-width:2;stroke-linecap:round;stroke-linejoin:round;stroke-miterlimit:10;" d="
			M212.37,107.14l-21.68-4.08l2.71-12.25c0,0,15.37-0.94,17.61,0c2.25,0.95,6.78,5.45,6.78,5.45l-2.71,12.25"/>
		
			<path style="fill-rule:evenodd;clip-rule:evenodd;fill:none;stroke:#824F9D;stroke-width:2;stroke-linecap:round;stroke-linejoin:round;stroke-miterlimit:10;" d="
			M37.58,79.93c0,0-5.85-0.14-8.13-4.08"/>
		
			<path style="fill-rule:evenodd;clip-rule:evenodd;fill:none;stroke:#824F9D;stroke-width:2;stroke-linecap:round;stroke-linejoin:round;stroke-miterlimit:10;" d="
			M36.23,79.93c0,0-2.78,1.12-6.78-1.36"/>
		
			<path style="fill-rule:evenodd;clip-rule:evenodd;fill:none;stroke:#824F9D;stroke-width:2;stroke-linecap:round;stroke-linejoin:round;stroke-miterlimit:10;" d="
			M32.16,79.93c0,0-7.68,2.38-8.13,6.8c-0.44,4.42,5.58,8.18,8.13,6.81c2.55-1.38,5.48-3.33,6.78-9.53"/>
		
			<path style="fill-rule:evenodd;clip-rule:evenodd;fill:none;stroke:#824F9D;stroke-width:2;stroke-linecap:round;stroke-linejoin:round;stroke-miterlimit:10;" d="
			M38.94,79.93c0,0,4.85,2.01,1.35,8.16c-3.5,6.16-7.14,6.83-4.06,10.89"/>
		
			<path style="fill-rule:evenodd;clip-rule:evenodd;fill:none;stroke:#824F9D;stroke-width:2;stroke-linecap:round;stroke-linejoin:round;stroke-miterlimit:10;" d="
			M21.32,101.7c0,0,4.24-5.52,8.13-5.44c3.9,0.08,3.73,3.87,4.07,6.8"/>
		
			<path style="fill-rule:evenodd;clip-rule:evenodd;fill:none;stroke:#824F9D;stroke-width:2;stroke-linecap:round;stroke-linejoin:round;stroke-miterlimit:10;" d="
			M25.39,103.06c0,0,0.74-4.02,4.06-5.44"/>
		
			<line style="fill-rule:evenodd;clip-rule:evenodd;fill:none;stroke:#824F9D;stroke-width:2;stroke-linecap:round;stroke-linejoin:round;stroke-miterlimit:10;" x1="30.81" y1="93.54" x2="29.45" y2="97.62"/>
		
			<path style="fill-rule:evenodd;clip-rule:evenodd;fill:none;stroke:#824F9D;stroke-width:2;stroke-linecap:round;stroke-linejoin:round;stroke-miterlimit:10;" d="
			M29.45,84.01c0,0,1.45-2,2.71-1.36"/>
		
			<path style="fill-rule:evenodd;clip-rule:evenodd;fill:none;stroke:#824F9D;stroke-width:2;stroke-linecap:round;stroke-linejoin:round;stroke-miterlimit:10;" d="
			M34.87,79.93c0,0,1.04,5.11-1.35,8.16c-2.4,3.06,1.35,4.09,1.35,4.09"/>
		
			<path style="fill-rule:evenodd;clip-rule:evenodd;fill:none;stroke:#824F9D;stroke-width:2;stroke-linecap:round;stroke-linejoin:round;stroke-miterlimit:10;" d="
			M37.58,81.29c0,0,0.45,5.11-1.35,6.8s-1.36,2.72-1.36,2.72"/>
		
			<path style="fill-rule:evenodd;clip-rule:evenodd;fill:none;stroke:#824F9D;stroke-width:2;stroke-linecap:round;stroke-linejoin:round;stroke-miterlimit:10;" d="
			M47.07,84.01c0,0-2,2.52,0,5.44"/>
		
			<path style="fill-rule:evenodd;clip-rule:evenodd;fill:none;stroke:#824F9D;stroke-width:2;stroke-linecap:round;stroke-linejoin:round;stroke-miterlimit:10;" d="
			M52.49,79.93c0,0-5.36,1.84-4.07,9.52"/>
		
			<path style="fill-rule:evenodd;clip-rule:evenodd;fill:none;stroke:#824F9D;stroke-width:2;stroke-linecap:round;stroke-linejoin:round;stroke-miterlimit:10;" d="
			M55.2,79.93c0,0,2.81,3.95,6.77,2.72"/>
		
			<path style="fill-rule:evenodd;clip-rule:evenodd;fill:none;stroke:#824F9D;stroke-width:2;stroke-linecap:round;stroke-linejoin:round;stroke-miterlimit:10;" d="
			M55.2,79.93c0,0,5.48,3.12,5.42,10.88"/>
		
			<path style="fill-rule:evenodd;clip-rule:evenodd;fill:none;stroke:#824F9D;stroke-width:2;stroke-linecap:round;stroke-linejoin:round;stroke-miterlimit:10;" d="
			M57.91,82.65c0,0,1.64,9.74-4.07,10.89c-5.71,1.14-5.42-8.17-5.42-8.17"/>
		
			<line style="fill-rule:evenodd;clip-rule:evenodd;fill:none;stroke:#824F9D;stroke-width:2;stroke-linecap:round;stroke-linejoin:round;stroke-miterlimit:10;" x1="51.13" y1="84.01" x2="52.49" y2="84.01"/>
		
			<line style="fill-rule:evenodd;clip-rule:evenodd;fill:none;stroke:#824F9D;stroke-width:2;stroke-linecap:round;stroke-linejoin:round;stroke-miterlimit:10;" x1="53.84" y1="84.01" x2="55.2" y2="84.01"/>
		
			<path style="fill-rule:evenodd;clip-rule:evenodd;fill:none;stroke:#824F9D;stroke-width:2;stroke-linecap:round;stroke-linejoin:round;stroke-miterlimit:10;" d="
			M52.49,88.09c0,0,1.16,1.49,2.71,0"/>
		
			<path style="fill-rule:evenodd;clip-rule:evenodd;fill:none;stroke:#824F9D;stroke-width:2;stroke-linecap:round;stroke-linejoin:round;stroke-miterlimit:10;" d="
			M43,103.06c0,0,3.52-8.51,8.13-9.52"/>
		
			<path style="fill-rule:evenodd;clip-rule:evenodd;fill:none;stroke:#824F9D;stroke-width:2;stroke-linecap:round;stroke-linejoin:round;stroke-miterlimit:10;" d="
			M55.2,93.54c0,0,7.89,1.88,8.13,10.88"/>
		
			<path style="fill-rule:evenodd;clip-rule:evenodd;fill:none;stroke:#824F9D;stroke-width:2;stroke-linecap:round;stroke-linejoin:round;stroke-miterlimit:10;" d="
			M51.13,94.9c0,0,2.52,3.6,4.07,0"/>
		
			<path style="fill-rule:evenodd;clip-rule:evenodd;fill:none;stroke:#824F9D;stroke-width:2;stroke-linecap:round;stroke-linejoin:round;stroke-miterlimit:10;" d="
			M56.55,96.26c0,0,2.79,1.69,2.71,8.16"/>
		
			<path style="fill-rule:evenodd;clip-rule:evenodd;fill:none;stroke:#824F9D;stroke-width:2;stroke-linecap:round;stroke-linejoin:round;stroke-miterlimit:10;" d="
			M83.65,84.01c0,0-1.19,7.52,2.71,9.53c3.9,2.01,8.47-1.39,9.48-4.09c1.02-2.7,1.36-4.08,1.36-4.08"/>
		
			<path style="fill-rule:evenodd;clip-rule:evenodd;fill:none;stroke:#824F9D;stroke-width:2;stroke-linecap:round;stroke-linejoin:round;stroke-miterlimit:10;" d="
			M82.29,86.73c0,0-0.03-5,2.71-5.44c2.75-0.45,12.02,1.58,13.55,6.8"/>
		
			<path style="fill-rule:evenodd;clip-rule:evenodd;fill:none;stroke:#824F9D;stroke-width:2;stroke-linecap:round;stroke-linejoin:round;stroke-miterlimit:10;" d="
			M86.36,79.93c-0.33,0.26,0.98-2.54,5.42-2.72c4.44-0.19,7.89,2.38,6.77,8.16"/>
		
			<path style="fill-rule:evenodd;clip-rule:evenodd;fill:none;stroke:#824F9D;stroke-width:2;stroke-linecap:round;stroke-linejoin:round;stroke-miterlimit:10;" d="
			M85,85.37c0,0,3.09-0.39,4.07,1.36"/>
		
			<path style="fill-rule:evenodd;clip-rule:evenodd;fill:none;stroke:#824F9D;stroke-width:2;stroke-linecap:round;stroke-linejoin:round;stroke-miterlimit:10;" d="
			M90.42,86.73c0,0,2.84-0.61,4.07,1.36"/>
		
			<path style="fill-rule:evenodd;clip-rule:evenodd;fill:none;stroke:#824F9D;stroke-width:2;stroke-linecap:round;stroke-linejoin:round;stroke-miterlimit:10;" d="
			M87.71,90.81c0,0,2.36,1.33,4.07,0"/>
		
			<path style="fill-rule:evenodd;clip-rule:evenodd;fill:none;stroke:#824F9D;stroke-width:2;stroke-linecap:round;stroke-linejoin:round;stroke-miterlimit:10;" d="
			M79.59,103.06c0,0,0.5-5.43,6.77-8.16"/>
		
			<path style="fill-rule:evenodd;clip-rule:evenodd;fill:none;stroke:#824F9D;stroke-width:2;stroke-linecap:round;stroke-linejoin:round;stroke-miterlimit:10;" d="
			M90.42,94.9c0,0,8.44,2.45,9.49,10.88"/>
		
			<path style="fill-rule:evenodd;clip-rule:evenodd;fill:none;stroke:#824F9D;stroke-width:2;stroke-linecap:round;stroke-linejoin:round;stroke-miterlimit:10;" d="
			M85,94.9c0,0,0.38,2.41,2.71,2.72s3.15,0.57,4.07-1.36"/>
		
			<path style="fill-rule:evenodd;clip-rule:evenodd;fill:none;stroke:#824F9D;stroke-width:2;stroke-linecap:round;stroke-linejoin:round;stroke-miterlimit:10;" d="
			M30.81,66.32c0,0,1.73-30.84,2.71-38.1c0.98-7.27,1.35-19.06,1.35-19.06L83.65,7.8l-1.36,17.69"/>
		
			<path style="fill-rule:evenodd;clip-rule:evenodd;fill:none;stroke:#824F9D;stroke-width:2;stroke-linecap:round;stroke-linejoin:round;stroke-miterlimit:10;" d="
			M37.58,67.68c0,0,3.84-19.17,4.07-23.13c0.22-3.97,2.71-19.06,2.71-19.06l25.74-2.72l16.26,4.09L83.65,70.4"/>
		
			<line style="fill-rule:evenodd;clip-rule:evenodd;fill:none;stroke:#824F9D;stroke-width:2;stroke-linecap:round;stroke-linejoin:round;stroke-miterlimit:10;" x1="70.1" y1="22.77" x2="64.68" y2="69.04"/>
		
			<line style="fill-rule:evenodd;clip-rule:evenodd;fill:none;stroke:#824F9D;stroke-width:2;stroke-linecap:round;stroke-linejoin:round;stroke-miterlimit:10;" x1="66.04" y1="7.8" x2="66.04" y2="22.77"/>
		
			<path style="fill-rule:evenodd;clip-rule:evenodd;fill:none;stroke:#824F9D;stroke-width:2;stroke-linecap:round;stroke-linejoin:round;stroke-miterlimit:10;" d="
			M85,26.86l2.71-24.5l16.26,2.72h13.55c0,0-5.07,37.17-5.42,43.55c-0.34,6.38,0,24.49,0,24.49"/>
		
			<path style="fill-rule:evenodd;clip-rule:evenodd;fill:none;stroke:#824F9D;stroke-width:2;stroke-linecap:round;stroke-linejoin:round;stroke-miterlimit:10;" d="
			M98.55,70.4c0,0,4.25-47.87,4.07-50.35c-0.18-2.48,1.35-14.97,1.35-14.97"/>
		
			<path style="fill-rule:evenodd;clip-rule:evenodd;fill:none;stroke:#824F9D;stroke-width:2;stroke-linecap:round;stroke-linejoin:round;stroke-miterlimit:10;" d="
			M116.17,21.41h20.32c0,0-0.88,43.61-1.35,44.91c-0.48,1.3,0,9.53,0,9.53"/>
		
			<polyline style="fill-rule:evenodd;clip-rule:evenodd;fill:none;stroke:#824F9D;stroke-width:2;stroke-linecap:round;stroke-linejoin:round;stroke-miterlimit:10;" points="
			136.49,37.74 156.82,39.1 169.01,43.19 170.36,77.21 		"/>
		
			<path style="fill-rule:evenodd;clip-rule:evenodd;fill:none;stroke:#824F9D;stroke-width:2;stroke-linecap:round;stroke-linejoin:round;stroke-miterlimit:10;" d="
			M156.82,39.1c0,0-1.01,25.26-1.36,29.94s0,6.81,0,6.81"/>
		
			<path style="fill-rule:evenodd;clip-rule:evenodd;fill:none;stroke:#824F9D;stroke-width:2;stroke-linecap:round;stroke-linejoin:round;stroke-miterlimit:10;" d="
			M162.23,40.46c0,0,1.04-32.27,1.36-35.38L186.62,1l10.84,6.8c0,0-3.05,36.77-4.06,44.91c-1.02,8.15-1.36,23.14-1.36,23.14"/>
		
			<path style="fill-rule:evenodd;clip-rule:evenodd;fill:none;stroke:#824F9D;stroke-width:2;stroke-linecap:round;stroke-linejoin:round;stroke-miterlimit:10;" d="
			M181.2,75.85c0,0-0.18-28.59,1.36-39.47s4.06-34.02,4.06-34.02"/>
	</g>
	<g>
		<rect x="38.94" y="14.25" style="fill-rule:evenodd;clip-rule:evenodd;fill:#824F9D;" width="5.42" height="6.8"/>
		<path style="fill-rule:evenodd;clip-rule:evenodd;fill:#824F9D;" d="M48.42,14.25v6.8c0,0,5.48,0.4,5.42,0c-0.06-0.4,0-6.8,0-6.8
			H48.42z"/>
		<polygon style="fill-rule:evenodd;clip-rule:evenodd;fill:#824F9D;" points="57.91,14.25 57.91,19.69 63.33,18.33 63.33,12.89 		
			"/>
		<rect x="47.07" y="30.58" style="fill-rule:evenodd;clip-rule:evenodd;fill:#824F9D;" width="5.42" height="6.8"/>
		<rect x="55.2" y="30.58" style="fill-rule:evenodd;clip-rule:evenodd;fill:#824F9D;" width="4.06" height="6.8"/>
		<polygon style="fill-rule:evenodd;clip-rule:evenodd;fill:#824F9D;" points="47.07,40.1 47.07,46.91 49.78,46.91 51.13,40.1 		"/>
		<rect x="55.2" y="40.1" style="fill-rule:evenodd;clip-rule:evenodd;fill:#824F9D;" width="4.06" height="6.81"/>
		<path style="fill-rule:evenodd;clip-rule:evenodd;fill:#824F9D;" d="M45.71,52.35v8.17c0,0,4.34-1.99,4.07-1.37
			c-0.27,0.63,0-6.8,0-6.8H45.71z"/>
		<polygon style="fill-rule:evenodd;clip-rule:evenodd;fill:#824F9D;" points="55.2,50.99 55.2,59.15 59.26,59.15 60.62,50.99 		"/>
		<path style="fill-rule:evenodd;clip-rule:evenodd;fill:#824F9D;" d="M37.58,27.86v6.8c0,0,2.3,0.62,2.71,0c0.42-0.62,0-6.8,0-6.8
			H37.58z"/>
		<polygon style="fill-rule:evenodd;clip-rule:evenodd;fill:#824F9D;" points="36.23,38.74 36.23,46.91 38.94,45.55 38.94,38.74 		
			"/>
		<path style="fill-rule:evenodd;clip-rule:evenodd;fill:#824F9D;" d="M34.87,52.35v6.8c0,0,2.82,0.81,2.71,0c-0.11-0.8,0-6.8,0-6.8
			H34.87z"/>
		<polygon style="fill-rule:evenodd;clip-rule:evenodd;fill:#824F9D;" points="89.07,7.44 89.07,12.89 91.78,14.25 91.78,7.44 		"/>
		<path style="fill-rule:evenodd;clip-rule:evenodd;fill:#824F9D;" d="M94.49,8.8v5.45c0,0,3.93-1.07,4.06-1.36
			c0.14-0.3,1.36-4.09,1.36-4.09H94.49z"/>
		<polygon style="fill-rule:evenodd;clip-rule:evenodd;fill:#824F9D;" points="89.07,19.69 89.07,25.13 93.13,23.77 93.13,18.33 		
			"/>
		<path style="fill-rule:evenodd;clip-rule:evenodd;fill:#824F9D;" d="M95.84,18.33v6.8c0,0,2.32-0.84,2.71-1.36
			c0.4-0.52,0-5.44,0-5.44H95.84z"/>
		<path style="fill-rule:evenodd;clip-rule:evenodd;fill:#824F9D;" d="M89.07,31.94v9.52c0,0,3.05-1.79,2.71-1.36
			c-0.34,0.44,0-8.16,0-8.16H89.07z"/>
		<rect x="94.49" y="31.94" style="fill-rule:evenodd;clip-rule:evenodd;fill:#824F9D;" width="2.71" height="8.16"/>
		<polygon style="fill-rule:evenodd;clip-rule:evenodd;fill:#824F9D;" points="89.07,44.19 89.07,52.35 91.78,50.99 91.78,44.19 		
			"/>
		<path style="fill-rule:evenodd;clip-rule:evenodd;fill:#824F9D;" d="M94.49,44.19v8.16c0,0,2.9-0.79,2.71-1.36
			c-0.2-0.57,0-6.8,0-6.8H94.49z"/>
		<rect x="87.71" y="56.43" style="fill-rule:evenodd;clip-rule:evenodd;fill:#824F9D;" width="2.71" height="5.45"/>
		<path style="fill-rule:evenodd;clip-rule:evenodd;fill:#824F9D;" d="M94.49,56.43v8.17c0,0,2.9-1.02,2.71-1.36
			c-0.2-0.34,0-6.81,0-6.81H94.49z"/>
		<polygon style="fill-rule:evenodd;clip-rule:evenodd;fill:#824F9D;" points="117.52,27.86 117.52,36.02 120.23,34.66 
			120.23,27.86 		"/>
		<rect x="122.94" y="27.86" style="fill-rule:evenodd;clip-rule:evenodd;fill:#824F9D;" width="2.71" height="8.16"/>
		<polygon style="fill-rule:evenodd;clip-rule:evenodd;fill:#824F9D;" points="128.36,27.86 128.36,36.02 131.07,36.02 
			132.43,27.86 		"/>
		<rect x="116.17" y="38.74" style="fill-rule:evenodd;clip-rule:evenodd;fill:#824F9D;" width="2.71" height="8.17"/>
		<path style="fill-rule:evenodd;clip-rule:evenodd;fill:#824F9D;" d="M121.59,38.74v8.17h4.06c-0.3,0,0-8.17,0-8.17H121.59z"/>
		<polygon style="fill-rule:evenodd;clip-rule:evenodd;fill:#824F9D;" points="128.36,38.74 128.36,46.91 131.07,46.91 
			132.43,38.74 		"/>
		<path style="fill-rule:evenodd;clip-rule:evenodd;fill:#824F9D;" d="M114.81,52.35v8.17h4.07c0,0,0.39-8.19,0-8.17
			c-0.39,0.02-2.71,0-2.71,0H114.81z"/>
		<polygon style="fill-rule:evenodd;clip-rule:evenodd;fill:#824F9D;" points="121.59,52.35 121.59,60.52 124.3,60.52 125.65,52.35 
					"/>
		<polygon style="fill-rule:evenodd;clip-rule:evenodd;fill:#824F9D;" points="128.36,52.35 128.36,59.15 131.07,59.15 
			131.07,50.99 		"/>
		<path style="fill-rule:evenodd;clip-rule:evenodd;fill:#824F9D;" d="M114.81,64.6l1.36,6.8c0,0,0.91-0.07,1.35,0
			c0.45,0.08,1.36-6.8,1.36-6.8H114.81z"/>
		<rect x="121.59" y="63.24" style="fill-rule:evenodd;clip-rule:evenodd;fill:#824F9D;" width="2.71" height="6.8"/>
		<path style="fill-rule:evenodd;clip-rule:evenodd;fill:#824F9D;" d="M127.01,63.24l1.35,6.8h2.71c0,0,0.03-6.46,0-6.8
			C131.04,62.9,127.01,63.24,127.01,63.24z"/>
		<polygon style="fill-rule:evenodd;clip-rule:evenodd;fill:#824F9D;" points="139.2,44.19 139.2,53.71 143.27,52.35 143.27,44.19 
					"/>
		<path style="fill-rule:evenodd;clip-rule:evenodd;fill:#824F9D;" d="M145.98,45.55v8.16c0,0,4.17,0.57,4.06,0
			c-0.1-0.56,0-8.16,0-8.16H145.98z"/>
		<path style="fill-rule:evenodd;clip-rule:evenodd;fill:#824F9D;" d="M139.2,57.79v6.81c0,0,4.38,0.4,4.07,0
			c-0.32-0.4-1.36-6.81-1.36-6.81H139.2z"/>
		<rect x="147.33" y="57.79" style="fill-rule:evenodd;clip-rule:evenodd;fill:#824F9D;" width="2.71" height="6.81"/>
		<path style="fill-rule:evenodd;clip-rule:evenodd;fill:#824F9D;" d="M139.2,67.32v4.08c0,0,2.32,0.32,2.71,0
			c0.39-0.31,1.93-3.69,1.36-4.08C142.69,66.93,139.2,67.32,139.2,67.32z"/>
		<path style="fill-rule:evenodd;clip-rule:evenodd;fill:#824F9D;" d="M147.33,67.32v5.44c0,0,2.04,0.77,2.71,0
			c0.67-0.76,0-5.44,0-5.44H147.33z"/>
		<rect x="166.3" y="25.13" style="fill-rule:evenodd;clip-rule:evenodd;fill:#824F9D;" width="2.71" height="6.81"/>
		<polygon style="fill-rule:evenodd;clip-rule:evenodd;fill:#824F9D;" points="169.01,10.16 169.01,21.05 171.72,19.69 
			171.72,10.16 		"/>
		<path style="fill-rule:evenodd;clip-rule:evenodd;fill:#824F9D;" d="M175.78,10.16v9.53h2.71c0,0-0.04-9.09,0-9.53
			C178.54,9.73,175.78,10.16,175.78,10.16z"/>
		<polygon style="fill-rule:evenodd;clip-rule:evenodd;fill:#824F9D;" points="174.43,23.77 174.43,31.94 177.14,30.58 
			177.14,23.77 		"/>
		<path style="fill-rule:evenodd;clip-rule:evenodd;fill:#824F9D;" d="M174.43,38.74v8.17c0,0,2.73-1.69,2.71-1.36
			c-0.03,0.32,0-6.81,0-6.81H174.43z"/>
		<polygon style="fill-rule:evenodd;clip-rule:evenodd;fill:#824F9D;" points="174.43,52.35 173.07,59.15 177.14,59.15 
			177.14,50.99 		"/>
		<polygon style="fill-rule:evenodd;clip-rule:evenodd;fill:#824F9D;" points="174.43,64.6 173.07,72.76 175.78,72.76 177.14,64.6 
					"/>
	</g>
</g>
</svg>
