<svg version="1.1" id="&#x5716;&#x5C64;_1" xmlns="http://www.w3.org/2000/svg" xmlns:xlink="http://www.w3.org/1999/xlink" x="0px"
	 y="0px" width="44.491px" height="46.333px" viewBox="0 0 44.491 46.333" style="enable-background:new 0 0 44.491 46.333;"
	 xml:space="preserve">
<path style="fill-rule:evenodd;clip-rule:evenodd;fill:#DDD1E7;" d="M8.53,24.644c0,0-9.7-15.49-0.85-19.58s13,8,13,8
	s8.65-14.79,20-12s-5.45,21.63-14,29s-11,12-11,12S13.33,31.514,8.53,24.644z"/>
<path style="fill-rule:evenodd;clip-rule:evenodd;fill:none;stroke:#7C4697;stroke-width:2;stroke-linecap:round;stroke-linejoin:round;stroke-miterlimit:10;" d="
	M6.32,32.963c0,0-5.36-8.81-5.32-18.44s12.36-16.38,16.22,1.87c0,0,5.67-19.54,18.08-14.59c12.42,4.95-0.31,21.49-6.01,27.07
	c-5.7,5.57-16.02,16.46-16.02,16.46s-3.74-11.99-7.71-19.11"/>
</svg>
