<svg version="1.1" id="圖層_1" xmlns="http://www.w3.org/2000/svg" xmlns:xlink="http://www.w3.org/1999/xlink" x="0px" y="0px"
	 width="370px" height="311px" viewBox="0 0 370 311" enable-background="new 0 0 370 311" xml:space="preserve">
<g>
	<path fill-rule="evenodd" clip-rule="evenodd" fill="#FFFFFF" d="M21.5,43.5c0,0,45-58,110-19c0,0,22,30,6,52c0,0,80-5,86,92
		s-92,96-92,96s-59,34-103,0L21.5,43.5z"/>
	<g>
		
			<path fill-rule="evenodd" clip-rule="evenodd" fill="none" stroke="#7C4697" stroke-width="2" stroke-linecap="round" stroke-linejoin="round" stroke-miterlimit="10" d="
			M117.41,20.74c0,0-43.12-23.82-88.91,11.76"/>
		
			<path fill-rule="evenodd" clip-rule="evenodd" fill="none" stroke="#7C4697" stroke-width="2" stroke-linecap="round" stroke-linejoin="round" stroke-miterlimit="10" d="
			M108.95,9.5c0,0,57.5,30.55,28.19,66.06c0,0,87.52,17.49,87.36,84.34c-0.16,66.84-37.8,96.82-91.59,104.01
			c0,0-41.2,38.23-106.41,3.59"/>
	</g>
</g>
<g>
	<g>
		<path fill-rule="evenodd" clip-rule="evenodd" fill="#BBB3D8" d="M328.36,230.43c0,0-8.78,3.35-9.61,6.33
			c0,0-9.95-7.16-12.87-13.59c-2.92-6.42-13.24,0.43-10.48,6.62c2.75,6.21,8.68,17.04,8.68,17.04s3.54,4.85-1.35,8.84
			c-4.87,3.98-31.46,23.68-32.75,37.85c-1.29,14.18,11.98,3.74,13.18-1.1c1.2-4.84,10.77-10.17,13.3-7.43
			c2.53,2.75,1.33,5.84-1.65,7.88c-2.99,2.05-5.36,8.55-1.68,11.04c3.68,2.5,8.86-2.06,11.13-7.76c2.28-5.7,19.19-22.4,24.69-21.62
			c0,0,4.35-0.1,7.33,2.92c2.98,3.03,16.85,9.18,22.18,2.44c5.34-6.75,0.81-9.81-2.82-11.84c-3.62-2.02-8.64-6.75-8.64-6.75
			s11.68-9.55,3.39-22.27C342.13,226.36,328.36,230.43,328.36,230.43z"/>
		<path fill-rule="evenodd" clip-rule="evenodd" fill="#FFFFFF" d="M334.7,236.78c0,0-2.79,5.15-0.4,8.57
			c2.41,3.42,8.34,4.66,12.17,1.31c3.84-3.36-2.32-9.55-3.44-10.5C341.9,235.2,337.85,233.41,334.7,236.78z"/>
		<path fill-rule="evenodd" clip-rule="evenodd" fill="#FFFFFF" d="M317.15,238.34c0,0-6.38,0.64-5.45,5.99
			c0.94,5.35,6.94,5.08,6.94,5.08S316.72,241.96,317.15,238.34z"/>
		<path fill-rule="evenodd" clip-rule="evenodd" fill="#FFFFFF" d="M344.42,263.2c0,0-4.36,1.19-9.31,0.89c0,0,1.07,6.33,5.39,6.72
			C344.83,271.19,345.56,266.33,344.42,263.2z"/>
	</g>
	<g>
		
			<path fill-rule="evenodd" clip-rule="evenodd" fill="none" stroke="#7C4697" stroke-width="2" stroke-linecap="round" stroke-linejoin="round" stroke-miterlimit="10" d="
			M342.74,232.03c0,0-8.45-6.54-19.82,1.25c-11.33,7.77-1.46,22.97,2.63,27.58c4.1,4.61,21.45,6.2,26.31-4.31
			C356.73,246.02,350.25,235.36,342.74,232.03z"/>
		
			<path fill-rule="evenodd" clip-rule="evenodd" fill="none" stroke="#7C4697" stroke-width="2" stroke-linecap="round" stroke-linejoin="round" stroke-miterlimit="10" d="
			M334.7,236.78c0,0-3.73,4.39,1.19,10.16c4.93,5.79,10.54-0.33,11.24-1.55c0.69-1.23,1.84-5.13-2.82-8.6
			C339.65,233.33,335.89,234.41,334.7,236.78z"/>
		
			<path fill-rule="evenodd" clip-rule="evenodd" fill="none" stroke="#7C4697" stroke-width="2" stroke-linecap="round" stroke-linejoin="round" stroke-miterlimit="10" d="
			M334.05,238.05c0,0,7.86-0.4,11.46,8.92"/>
		
			<path fill-rule="evenodd" clip-rule="evenodd" fill="none" stroke="#7C4697" stroke-width="2" stroke-linecap="round" stroke-linejoin="round" stroke-miterlimit="10" d="
			M343.99,235.84c0,0-0.9,2.01-2.92,4.13"/>
		
			<path fill-rule="evenodd" clip-rule="evenodd" fill="none" stroke="#7C4697" stroke-width="2" stroke-linecap="round" stroke-linejoin="round" stroke-miterlimit="10" d="
			M330.82,241.21c0,0-2.02,0.12-3.19,0"/>
		
			<path fill-rule="evenodd" clip-rule="evenodd" fill="none" stroke="#7C4697" stroke-width="2" stroke-linecap="round" stroke-linejoin="round" stroke-miterlimit="10" d="
			M340.97,252.68c0,0-1.88,0.4-3.2-0.02"/>
		
			<path fill-rule="evenodd" clip-rule="evenodd" fill="none" stroke="#7C4697" stroke-width="2" stroke-linecap="round" stroke-linejoin="round" stroke-miterlimit="10" d="
			M320.33,238.34c0,0-6.52-1.09-7.65,2.52c-1.12,3.6,1.66,7.76,5.65,7.6"/>
		
			<path fill-rule="evenodd" clip-rule="evenodd" fill="none" stroke="#7C4697" stroke-width="2" stroke-linecap="round" stroke-linejoin="round" stroke-miterlimit="10" d="
			M344.42,263.2c0.36-0.15,3.05,6.78-2.95,7.3c-5.99,0.51-7.32-6.1-7.32-6.1"/>
		
			<path fill-rule="evenodd" clip-rule="evenodd" fill="none" stroke="#7C4697" stroke-width="2" stroke-linecap="round" stroke-linejoin="round" stroke-miterlimit="10" d="
			M321.29,238.03c0,0-9.93-5.97-13.54-12.34c-3.6-6.35-5.57-7.9-9.76-4.08c-4.17,3.81-3.8,7.9,2.99,18.91
			c6.81,11.04,4.36,13.19,0.16,16.72c-4.19,3.53-36.91,24.99-28.7,40.72c0,0,4.92,4.07,10.72-5.54c5.81-9.63,14.25-7.73,14.25-7.73
			s2.78,0.22-0.67,4.41c-3.45,4.2-8.76,12.28-3.61,14.81c5.16,2.54,11.13-7.76,11.13-7.76s18.43-19.52,22.77-21
			c4.34-1.49,4.87-1.21,7.98,1.66c3.11,2.87,7.76,5.25,10.53,6.14c2.78,0.9,10.72,0.53,14.54-4.64c3.83-5.18,1.21-8.48-0.89-9.27
			c-2.1-0.8-7.23-2.92-11.87-6.78"/>
	</g>
</g>
</svg>
