<?xml version="1.0" encoding="utf-8"?>
<!-- Generator: Adobe Illustrator 15.1.0, SVG Export Plug-In . SVG Version: 6.00 Build 0)  -->
<!DOCTYPE svg PUBLIC "-//W3C//DTD SVG 1.1//EN" "http://www.w3.org/Graphics/SVG/1.1/DTD/svg11.dtd">
<svg version="1.1" id="圖層_1" xmlns="http://www.w3.org/2000/svg" xmlns:xlink="http://www.w3.org/1999/xlink" x="0px" y="0px"
	 width="128.772px" height="237.893px" viewBox="0 0 128.772 237.893" enable-background="new 0 0 128.772 237.893"
	 xml:space="preserve">
<g>
	<g>
		<path fill="#040000" d="M6.178,237.857H5.495l2.161-5.091h0.729l2.171,5.091H9.827l-0.659-1.602H7.484l0.182-0.535h1.282
			l-0.95-2.306L6.178,237.857z"/>
		<path fill="#040000" d="M14.896,237.857v-5.091h1.851c1.685,0,2.527,0.802,2.527,2.406c0,1.79-0.842,2.685-2.527,2.685H14.896z
			 M16.747,237.323c1.246,0,1.869-0.716,1.869-2.15c0-1.249-0.623-1.872-1.869-1.872h-1.192v4.021H16.747z"/>
		<path fill="#040000" d="M24.048,237.857h-0.684l2.161-5.091h0.73l2.171,5.091h-0.729l-0.659-1.602h-1.684l0.182-0.535h1.282
			l-0.951-2.306L24.048,237.857z"/>
		<path fill="#040000" d="M36.61,237.658c-0.41,0.156-0.853,0.235-1.328,0.235c-1.844,0-2.766-0.884-2.766-2.652
			c0-1.673,0.89-2.51,2.669-2.51c0.51,0,0.985,0.071,1.424,0.214v0.569c-0.438-0.166-0.89-0.249-1.353-0.249
			c-1.389,0-2.082,0.658-2.082,1.976c0,1.412,0.683,2.118,2.05,2.118c0.218,0,0.46-0.028,0.727-0.085v-1.729h0.658V237.658z"/>
		<path fill="#040000" d="M42.106,232.767v5.091h-0.659v-5.091H42.106z"/>
		<path fill="#040000" d="M46.891,235.319c0-1.725,0.853-2.588,2.556-2.588c1.678,0,2.517,0.863,2.517,2.588
			c0,1.715-0.839,2.574-2.517,2.574C47.743,237.893,46.891,237.034,46.891,235.319z M49.446,237.358
			c1.215,0,1.823-0.687,1.823-2.061c0-1.355-0.607-2.033-1.823-2.033c-1.241,0-1.861,0.678-1.861,2.033
			C47.585,236.672,48.206,237.358,49.446,237.358z"/>
		<path fill="#040000" d="M62.066,237.857v-5.091h2.171c0.969,0,1.453,0.407,1.453,1.221c0,0.662-0.473,1.152-1.42,1.47l1.747,2.4
			h-0.868l-1.62-2.29v-0.43c0.974-0.155,1.459-0.528,1.459-1.122c0-0.469-0.27-0.704-0.811-0.704h-1.452v4.546H62.066z"/>
		<path fill="#040000" d="M73.685,232.767v0.535h-2.669v1.708h2.545v0.534h-2.545v1.779h2.722v0.535h-3.381v-5.091H73.685z"/>
		<path fill="#040000" d="M79.146,232.767v5.091h-0.659v-5.091H79.146z"/>
		<path fill="#040000" d="M84.107,237.857v-5.091h0.659l3.115,4.101v-4.101h0.623v5.091h-0.659l-3.115-4.137v4.137H84.107z"/>
		<path fill="#040000" d="M93.359,237.857v-5.091h1.852c1.685,0,2.527,0.802,2.527,2.406c0,1.79-0.842,2.685-2.527,2.685H93.359z
			 M95.21,237.323c1.246,0,1.869-0.716,1.869-2.15c0-1.249-0.624-1.872-1.869-1.872h-1.193v4.021H95.21z"/>
		<path fill="#040000" d="M105.672,232.767v0.535h-2.669v1.708h2.545v0.534h-2.545v1.779h2.722v0.535h-3.381v-5.091H105.672z"/>
		<path fill="#040000" d="M113.695,232.767v0.535h-2.669v1.708h2.545v0.534h-2.545v1.779h2.723v0.535h-3.382v-5.091H113.695z"/>
		<path fill="#040000" d="M118.391,237.857v-5.091h2.171c0.968,0,1.453,0.407,1.453,1.221c0,0.662-0.473,1.152-1.42,1.47l1.748,2.4
			h-0.869l-1.62-2.29v-0.43c0.974-0.155,1.459-0.528,1.459-1.122c0-0.469-0.27-0.704-0.811-0.704h-1.453v4.546H118.391z"/>
	</g>
	<g>
		<g>
			<g>
				<path d="M6.874,216.446c-0.22,0-0.398-0.177-0.398-0.399v-5.356c0-0.219,0.179-0.397,0.398-0.397
					c0.221,0,0.399,0.178,0.399,0.397v5.356C7.273,216.269,7.095,216.446,6.874,216.446z"/>
			</g>
		</g>
		<g>
			<g>
				<path d="M11,214.463c-0.22,0-0.397-0.179-0.397-0.399v-3.373c0-0.219,0.178-0.397,0.397-0.397c0.221,0,0.401,0.178,0.401,0.397
					v3.373C11.4,214.284,11.22,214.463,11,214.463z"/>
			</g>
		</g>
		<g>
			<g>
				<path d="M8.937,220.917c-0.22,0-0.399-0.179-0.399-0.399v-9.828c0-0.219,0.179-0.397,0.399-0.397
					c0.221,0,0.399,0.178,0.399,0.397v9.828C9.336,220.739,9.158,220.917,8.937,220.917z"/>
			</g>
		</g>
		<g>
			<g>
				<path d="M11.83,209.733H5.956c-0.22,0-0.399-0.178-0.399-0.399c0-0.22,0.179-0.398,0.399-0.398h5.874
					c0.22,0,0.399,0.178,0.399,0.398C12.229,209.556,12.049,209.733,11.83,209.733z"/>
			</g>
		</g>
		<g>
			<g>
				<path d="M10.302,205.005H6.146c-0.22,0-0.398-0.178-0.398-0.398c0-0.22,0.178-0.398,0.398-0.398h4.156
					c0.221,0,0.4,0.179,0.4,0.398C10.703,204.827,10.523,205.005,10.302,205.005z"/>
			</g>
		</g>
		<g>
			<g>
				<path d="M5.948,209.717c-0.097,0-0.195-0.035-0.272-0.107c-0.161-0.151-0.17-0.402-0.02-0.563l5.919-6.361
					c0.15-0.162,0.402-0.17,0.564-0.021c0.161,0.149,0.17,0.402,0.02,0.563l-5.918,6.362C6.161,209.674,6.054,209.717,5.948,209.717
					z"/>
			</g>
		</g>
		<g>
			<g>
				<path d="M6.146,204.932c-0.097,0-0.195-0.036-0.272-0.108c-0.16-0.151-0.168-0.402-0.018-0.564l3.492-3.721
					c0.15-0.16,0.401-0.17,0.563-0.019c0.16,0.151,0.168,0.403,0.017,0.565l-3.49,3.722C6.359,204.889,6.253,204.932,6.146,204.932z
					"/>
			</g>
		</g>
		<g>
			<g>
				<path d="M11.83,209.733c-0.112,0-0.223-0.047-0.302-0.138l-1.042-1.205c-0.145-0.167-0.126-0.419,0.041-0.563
					c0.167-0.143,0.418-0.126,0.562,0.041l1.042,1.206c0.144,0.167,0.125,0.418-0.041,0.563
					C12.015,209.702,11.922,209.733,11.83,209.733z"/>
			</g>
		</g>
		<g>
			<g>
				<path d="M24.787,201.252h-9.612c-0.22,0-0.399-0.179-0.399-0.399s0.179-0.399,0.399-0.399h9.612
					c0.221,0,0.398,0.179,0.398,0.399S25.008,201.252,24.787,201.252z"/>
			</g>
		</g>
		<g>
			<g>
				<path d="M24.787,206.96h-9.612c-0.22,0-0.399-0.178-0.399-0.399c0-0.22,0.179-0.399,0.399-0.399h9.612
					c0.221,0,0.398,0.18,0.398,0.399C25.186,206.782,25.008,206.96,24.787,206.96z"/>
			</g>
		</g>
		<g>
			<g>
				<path d="M24.787,209.958h-9.612c-0.22,0-0.399-0.177-0.399-0.398s0.179-0.399,0.399-0.399h9.612
					c0.221,0,0.398,0.178,0.398,0.399S25.008,209.958,24.787,209.958z"/>
			</g>
		</g>
		<g>
			<g>
				<path d="M16.523,218.498c-0.22,0-0.4-0.178-0.4-0.398v-17.247c0-0.221,0.18-0.399,0.4-0.399c0.22,0,0.399,0.179,0.399,0.399
					V218.1C16.922,218.32,16.743,218.498,16.523,218.498z"/>
			</g>
		</g>
		<g>
			<g>
				<path d="M24.333,213.171h-7.81c-0.22,0-0.4-0.179-0.4-0.399s0.18-0.398,0.4-0.398h7.81c0.221,0,0.399,0.178,0.399,0.398
					S24.554,213.171,24.333,213.171z"/>
			</g>
		</g>
		<g>
			<g>
				<path d="M17.66,220.492c-0.096,0-0.193-0.035-0.269-0.105c-0.163-0.148-0.174-0.401-0.026-0.563l6.675-7.284
					c0.148-0.162,0.4-0.173,0.563-0.025c0.164,0.149,0.174,0.401,0.025,0.563l-6.674,7.285
					C17.875,220.448,17.769,220.492,17.66,220.492z"/>
			</g>
		</g>
		<g>
			<g>
				<path d="M24.333,220.492c-0.108,0-0.216-0.044-0.294-0.13l-5.656-6.174c-0.149-0.162-0.139-0.414,0.025-0.564
					c0.161-0.148,0.415-0.136,0.563,0.025l5.656,6.175c0.15,0.162,0.139,0.415-0.024,0.563
					C24.526,220.458,24.43,220.492,24.333,220.492z"/>
			</g>
		</g>
		<g>
			<g>
				<path d="M20.085,206.747c-0.22,0-0.399-0.179-0.399-0.4v-5.232c0-0.22,0.18-0.399,0.399-0.399s0.399,0.179,0.399,0.399v5.232
					C20.484,206.567,20.305,206.747,20.085,206.747z"/>
			</g>
		</g>
		<g>
			<g>
				<path d="M23.624,206.92c-0.221,0-0.399-0.178-0.399-0.398v-5.669c0-0.221,0.178-0.399,0.399-0.399
					c0.221,0,0.398,0.179,0.398,0.399v5.669C24.022,206.742,23.845,206.92,23.624,206.92z"/>
			</g>
		</g>
		<g>
			<g>
				<path d="M51.127,213.171h-7.811c-0.22,0-0.398-0.179-0.398-0.399s0.178-0.398,0.398-0.398h7.811c0.22,0,0.399,0.178,0.399,0.398
					S51.347,213.171,51.127,213.171z"/>
			</g>
		</g>
		<g>
			<g>
				<path d="M44.453,220.492c-0.095,0-0.192-0.035-0.27-0.105c-0.162-0.148-0.173-0.401-0.024-0.563l6.674-7.284
					c0.148-0.162,0.4-0.173,0.563-0.025c0.163,0.149,0.173,0.401,0.024,0.563l-6.673,7.285
					C44.668,220.448,44.561,220.492,44.453,220.492z"/>
			</g>
		</g>
		<g>
			<g>
				<path d="M51.127,220.492c-0.108,0-0.215-0.044-0.293-0.13l-5.657-6.174c-0.149-0.162-0.137-0.414,0.025-0.564
					c0.162-0.148,0.414-0.136,0.563,0.025l5.656,6.175c0.149,0.162,0.138,0.415-0.024,0.563
					C51.319,220.458,51.224,220.492,51.127,220.492z"/>
			</g>
		</g>
		<g>
			<g>
				<path d="M34.899,208.699c-0.22,0-0.399-0.178-0.399-0.399v-7.73c0-0.22,0.179-0.398,0.399-0.398
					c0.221,0,0.399,0.179,0.399,0.398v7.73C35.299,208.521,35.12,208.699,34.899,208.699z"/>
			</g>
		</g>
		<g>
			<g>
				<path d="M39.025,205.882c-0.22,0-0.399-0.179-0.399-0.398v-4.915c0-0.22,0.18-0.398,0.399-0.398
					c0.221,0,0.399,0.179,0.399,0.398v4.915C39.424,205.704,39.246,205.882,39.025,205.882z"/>
			</g>
		</g>
		<g>
			<g>
				<path d="M36.962,221.054c-0.221,0-0.398-0.179-0.398-0.398v-20.086c0-0.22,0.177-0.398,0.398-0.398
					c0.22,0,0.399,0.179,0.399,0.398v20.086C37.362,220.875,37.183,221.054,36.962,221.054z"/>
			</g>
		</g>
		<g>
			<g>
				<path d="M44.128,210.606c-0.22,0-0.398-0.179-0.398-0.398v-9.724c0-0.221,0.179-0.4,0.398-0.4c0.221,0,0.399,0.179,0.399,0.4
					v9.724C44.527,210.427,44.349,210.606,44.128,210.606z"/>
			</g>
		</g>
		<g>
			<g>
				<path d="M50.583,210.658c-0.22,0-0.398-0.179-0.398-0.398v-9.776c0-0.221,0.178-0.4,0.398-0.4s0.399,0.179,0.399,0.4v9.776
					C50.982,210.479,50.803,210.658,50.583,210.658z"/>
			</g>
		</g>
		<g>
			<g>
				<path d="M50.483,200.877h-6.255c-0.22,0-0.398-0.178-0.398-0.399c0-0.22,0.178-0.398,0.398-0.398h6.255
					c0.219,0,0.398,0.178,0.398,0.398C50.882,200.699,50.703,200.877,50.483,200.877z"/>
			</g>
		</g>
		<g>
			<g>
				<path d="M50.483,203.229h-6.056c-0.222,0-0.398-0.179-0.398-0.398c0-0.221,0.177-0.399,0.398-0.399h6.056
					c0.219,0,0.398,0.179,0.398,0.399C50.882,203.051,50.703,203.229,50.483,203.229z"/>
			</g>
		</g>
		<g>
			<g>
				<path d="M50.483,205.331h-6.056c-0.222,0-0.398-0.179-0.398-0.399c0-0.221,0.177-0.399,0.398-0.399h6.056
					c0.219,0,0.398,0.179,0.398,0.399C50.882,205.151,50.703,205.331,50.483,205.331z"/>
			</g>
		</g>
		<g>
			<g>
				<path d="M53.154,207.639H41.735c-0.22,0-0.398-0.179-0.398-0.399c0-0.219,0.179-0.399,0.398-0.399h11.419
					c0.22,0,0.399,0.18,0.399,0.399C53.553,207.46,53.374,207.639,53.154,207.639z"/>
			</g>
		</g>
		<g>
			<g>
				<path d="M53.154,210.773H41.735c-0.22,0-0.398-0.179-0.398-0.4c0-0.22,0.179-0.398,0.398-0.398h11.419
					c0.22,0,0.399,0.178,0.399,0.398C53.553,210.594,53.374,210.773,53.154,210.773z"/>
			</g>
		</g>
		<g>
			<g>
				<path d="M41.685,210.766c-0.221,0-0.4-0.178-0.4-0.398v-3.128c0-0.219,0.179-0.399,0.4-0.399c0.22,0,0.398,0.18,0.398,0.399
					v3.128C42.083,210.588,41.905,210.766,41.685,210.766z"/>
			</g>
		</g>
		<g>
			<g>
				<path d="M53.144,210.766c-0.221,0-0.399-0.178-0.399-0.398v-3.128c0-0.219,0.178-0.399,0.399-0.399
					c0.22,0,0.399,0.18,0.399,0.399v3.128C53.543,210.588,53.364,210.766,53.144,210.766z"/>
			</g>
		</g>
		<g>
			<g>
				<path d="M91.168,200.897h-10.49c-0.22,0-0.398-0.178-0.398-0.398s0.178-0.399,0.398-0.399h10.49c0.22,0,0.399,0.179,0.399,0.399
					S91.388,200.897,91.168,200.897z"/>
			</g>
		</g>
		<g>
			<g>
				<path d="M94.239,203.296H76.772c-0.221,0-0.4-0.178-0.4-0.398c0-0.221,0.18-0.399,0.4-0.399h17.467
					c0.221,0,0.398,0.178,0.398,0.399C94.637,203.118,94.46,203.296,94.239,203.296z"/>
			</g>
		</g>
		<g>
			<g>
				<path d="M94.239,213.963H76.772c-0.221,0-0.4-0.18-0.4-0.399c0-0.221,0.18-0.399,0.4-0.399h17.467
					c0.221,0,0.398,0.178,0.398,0.399C94.637,213.783,94.46,213.963,94.239,213.963z"/>
			</g>
		</g>
		<g>
			<g>
				<path d="M91.168,205.536H79.417c-0.22,0-0.398-0.178-0.398-0.398c0-0.22,0.178-0.398,0.398-0.398h11.751
					c0.22,0,0.399,0.178,0.399,0.398C91.567,205.358,91.388,205.536,91.168,205.536z"/>
			</g>
		</g>
		<g>
			<g>
				<path d="M83.094,207.611h-6.319c-0.222,0-0.399-0.178-0.399-0.398c0-0.221,0.178-0.398,0.399-0.398h6.319
					c0.221,0,0.4,0.178,0.4,0.398C83.494,207.433,83.314,207.611,83.094,207.611z"/>
			</g>
		</g>
		<g>
			<g>
				<path d="M83.094,211.41h-6.319c-0.222,0-0.399-0.179-0.399-0.399c0-0.22,0.178-0.399,0.399-0.399h6.319
					c0.221,0,0.4,0.179,0.4,0.399C83.494,211.23,83.314,211.41,83.094,211.41z"/>
			</g>
		</g>
		<g>
			<g>
				<path d="M93.332,207.611h-6.033c-0.221,0-0.399-0.178-0.399-0.398c0-0.221,0.178-0.398,0.399-0.398h6.033
					c0.22,0,0.399,0.178,0.399,0.398C93.731,207.433,93.552,207.611,93.332,207.611z"/>
			</g>
		</g>
		<g>
			<g>
				<path d="M93.332,211.41h-6.033c-0.221,0-0.399-0.179-0.399-0.399c0-0.22,0.178-0.399,0.399-0.399h6.033
					c0.22,0,0.399,0.179,0.399,0.399C93.731,211.23,93.552,211.41,93.332,211.41z"/>
			</g>
		</g>
		<g>
			<g>
				<path d="M91.168,205.496c-0.221,0-0.399-0.179-0.399-0.399v-4.598c0-0.22,0.179-0.399,0.399-0.399
					c0.22,0,0.399,0.179,0.399,0.399v4.598C91.567,205.317,91.388,205.496,91.168,205.496z"/>
			</g>
		</g>
		<g>
			<g>
				<path d="M79.9,211.377c-0.22,0-0.398-0.179-0.398-0.398v-3.585c0-0.221,0.179-0.398,0.398-0.398
					c0.221,0,0.399,0.178,0.399,0.398v3.585C80.3,211.198,80.121,211.377,79.9,211.377z"/>
			</g>
		</g>
		<g>
			<g>
				<path d="M87.299,211.41c-0.221,0-0.399-0.179-0.399-0.399v-3.798c0-0.221,0.178-0.398,0.399-0.398
					c0.22,0,0.398,0.178,0.398,0.398v3.798C87.697,211.23,87.519,211.41,87.299,211.41z"/>
			</g>
		</g>
		<g>
			<g>
				<path d="M93.382,211.41c-0.221,0-0.399-0.179-0.399-0.399v-3.798c0-0.221,0.179-0.398,0.399-0.398
					c0.22,0,0.398,0.178,0.398,0.398v3.798C93.78,211.23,93.602,211.41,93.382,211.41z"/>
			</g>
		</g>
		<g>
			<g>
				<path d="M91.146,220.826h-4.16c-0.22,0-0.398-0.179-0.398-0.399c0-0.22,0.178-0.399,0.398-0.399h3.762v-7.684
					c0-0.221,0.178-0.399,0.398-0.399s0.399,0.179,0.399,0.399v8.083C91.545,220.647,91.367,220.826,91.146,220.826z"/>
			</g>
		</g>
		<g>
			<g>
				<path d="M86.454,217.295H81.61c-0.22,0-0.399-0.179-0.399-0.4c0-0.219,0.179-0.398,0.399-0.398h4.843
					c0.219,0,0.398,0.179,0.398,0.398C86.852,217.117,86.673,217.295,86.454,217.295z"/>
			</g>
		</g>
		<g>
			<g>
				<path d="M122.837,202.281h-7.959c-0.22,0-0.399-0.179-0.399-0.398c0-0.221,0.179-0.399,0.399-0.399h7.959
					c0.22,0,0.398,0.179,0.398,0.399C123.235,202.102,123.057,202.281,122.837,202.281z"/>
			</g>
		</g>
		<g>
			<g>
				<path d="M114.687,211.018c-0.1,0-0.198-0.036-0.275-0.109c-0.159-0.152-0.166-0.404-0.015-0.564l8.192-8.615
					c0.152-0.16,0.405-0.166,0.565-0.014c0.159,0.151,0.166,0.405,0.014,0.563l-8.192,8.614
					C114.897,210.978,114.792,211.018,114.687,211.018z"/>
			</g>
		</g>
		<g>
			<g>
				<path d="M105.78,220.921c-0.097,0-0.194-0.036-0.271-0.105c-0.162-0.15-0.172-0.402-0.023-0.564l5.515-5.993
					c0.149-0.162,0.402-0.173,0.564-0.024c0.162,0.15,0.172,0.402,0.023,0.564l-5.516,5.994
					C105.995,220.877,105.887,220.921,105.78,220.921z"/>
			</g>
		</g>
		<g>
			<g>
				<path d="M122.713,210.935c-0.107,0-0.212-0.043-0.291-0.125l-7.025-7.488c-0.151-0.161-0.143-0.414,0.018-0.564
					c0.162-0.15,0.414-0.143,0.564,0.018l7.026,7.487c0.151,0.161,0.143,0.413-0.019,0.563
					C122.909,210.898,122.813,210.935,122.713,210.935z"/>
			</g>
		</g>
		<g>
			<g>
				<path d="M105.549,208.067c-0.22,0-0.399-0.178-0.399-0.399v-6.89c0-0.221,0.179-0.399,0.399-0.399
					c0.22,0,0.399,0.179,0.399,0.399v6.89C105.948,207.889,105.77,208.067,105.549,208.067z"/>
			</g>
		</g>
		<g>
			<g>
				<path d="M110.912,208.025c-0.22,0-0.398-0.179-0.398-0.399v-6.848c0-0.221,0.178-0.399,0.398-0.399
					c0.221,0,0.399,0.179,0.399,0.399v6.848C111.312,207.846,111.133,208.025,110.912,208.025z"/>
			</g>
		</g>
		<g>
			<g>
				<path d="M105.78,220.887c-0.22,0-0.399-0.178-0.399-0.397v-7.986c0-0.221,0.179-0.398,0.399-0.398s0.399,0.178,0.399,0.398
					v7.986C106.179,220.709,106,220.887,105.78,220.887z"/>
			</g>
		</g>
		<g>
			<g>
				<path d="M108.104,218.299c-0.22,0-0.398-0.179-0.398-0.399v-10.122c0-0.22,0.178-0.398,0.398-0.398s0.398,0.178,0.398,0.398
					V217.9C108.503,218.121,108.325,218.299,108.104,218.299z"/>
			</g>
		</g>
		<g>
			<g>
				<path d="M113.672,203.426c-0.098,0-0.197-0.036-0.275-0.109c-0.16-0.152-0.165-0.404-0.014-0.564l2.603-2.736
					c0.151-0.16,0.404-0.167,0.564-0.015c0.159,0.151,0.165,0.404,0.014,0.564l-2.603,2.737
					C113.882,203.386,113.778,203.426,113.672,203.426z"/>
			</g>
		</g>
		<g>
			<g>
				<path d="M110.564,212.996h-2.175c-0.22,0-0.398-0.18-0.398-0.4c0-0.219,0.179-0.397,0.398-0.397h2.175
					c0.221,0,0.4,0.178,0.4,0.397C110.965,212.816,110.785,212.996,110.564,212.996z"/>
			</g>
		</g>
		<g>
			<g>
				<path d="M110.912,201.166h-5.28c-0.221,0-0.4-0.178-0.4-0.398c0-0.221,0.179-0.399,0.4-0.399h5.28
					c0.221,0,0.399,0.178,0.399,0.399C111.312,200.987,111.133,201.166,110.912,201.166z"/>
			</g>
		</g>
		<g>
			<g>
				<path d="M110.912,208.071h-5.28c-0.221,0-0.4-0.179-0.4-0.398c0-0.221,0.179-0.398,0.4-0.398h5.28
					c0.221,0,0.399,0.177,0.399,0.398C111.312,207.893,111.133,208.071,110.912,208.071z"/>
			</g>
		</g>
		<g>
			<g>
				<path d="M115.802,220.784c-0.22,0-0.399-0.18-0.399-0.4v-7.862c0-0.22,0.179-0.399,0.399-0.399c0.221,0,0.399,0.179,0.399,0.399
					v7.862C116.201,220.604,116.023,220.784,115.802,220.784z"/>
			</g>
		</g>
		<g>
			<g>
				<path d="M121.796,220.734c-0.221,0-0.399-0.178-0.399-0.398v-7.814c0-0.22,0.178-0.399,0.399-0.399
					c0.22,0,0.398,0.179,0.398,0.399v7.814C122.194,220.556,122.016,220.734,121.796,220.734z"/>
			</g>
		</g>
		<g>
			<g>
				<path d="M121.796,212.909h-5.902c-0.22,0-0.399-0.179-0.399-0.4c0-0.219,0.179-0.398,0.399-0.398h5.902
					c0.22,0,0.398,0.179,0.398,0.398C122.194,212.73,122.016,212.909,121.796,212.909z"/>
			</g>
		</g>
		<g>
			<g>
				<path d="M121.796,220.788h-5.902c-0.22,0-0.399-0.178-0.399-0.398s0.179-0.399,0.399-0.399h5.902
					c0.22,0,0.398,0.179,0.398,0.399S122.016,220.788,121.796,220.788z"/>
			</g>
		</g>
		<g>
			<g>
				<g>
					<path d="M66.038,208.988c0,0.245-0.199,0.445-0.443,0.445h-0.578c-0.246,0-0.444-0.2-0.444-0.445v-0.577
						c0-0.245,0.198-0.443,0.444-0.443h0.578c0.245,0,0.443,0.199,0.443,0.443V208.988z"/>
				</g>
			</g>
		</g>
		<g>
			<g>
				<path d="M66.038,212.333v-0.463c0-0.244-0.199-0.444-0.443-0.444h-0.578c-0.246,0-0.444,0.2-0.444,0.444v0.578
					c0,0.246,0.198,0.444,0.444,0.444h0.578c0.01,0,0.02,0,0.031-0.001v0.208c0,0.185-0.152,0.336-0.337,0.336h-0.252
					c-0.115,0-0.208,0.094-0.208,0.208s0.093,0.207,0.208,0.207h0.252c0.415,0,0.75-0.337,0.75-0.751v-0.743
					C66.038,212.347,66.038,212.339,66.038,212.333z"/>
			</g>
		</g>
	</g>
</g>
<g>
	<g>
		<g>
			<g>
				<path d="M69.413,155.122c-0.315,1.398-1.481,2.059-2.021,2.317c-0.541,0.26-3.013,0.242-3.792,0
					c-0.782-0.24-1.602-0.955-2.022-2.317l-1.159-4.346c0-1.28,1.173-2.319,2.62-2.319h4.914c1.446,0,2.618,1.039,2.618,2.319
					L69.413,155.122z"/>
			</g>
		</g>
	</g>
	<g>
		<g>
			<g>
				<path d="M68.268,161.802h-5.542c-0.667,0-1.209-0.54-1.209-1.208c0-0.666,0.542-1.208,1.209-1.208h5.542
					c0.668,0,1.208,0.542,1.208,1.208C69.475,161.262,68.936,161.802,68.268,161.802L68.268,161.802z"/>
			</g>
		</g>
	</g>
	<g>
		<g>
			<g>
				<g>
					<g>
						<g>
							
								<ellipse transform="matrix(0.9482 0.3178 -0.3178 0.9482 39.5315 -8.0713)" cx="44.508" cy="117.146" rx="3.864" ry="3.127"/>
						</g>
						<g>
							<path d="M44.99,120.866c-0.549,0-1.101-0.091-1.639-0.27c-1.089-0.367-2.002-1.059-2.568-1.948
								c-0.589-0.924-0.739-1.953-0.424-2.893c0.475-1.416,1.915-2.331,3.665-2.331c0.551,0,1.103,0.091,1.639,0.271
								c2.288,0.768,3.631,2.938,2.994,4.841C48.18,119.951,46.743,120.866,44.99,120.866z M44.024,114.446
								c-1.304,0-2.363,0.641-2.695,1.633c-0.216,0.643-0.104,1.36,0.316,2.02c0.442,0.693,1.163,1.237,2.03,1.527
								c0.434,0.145,0.875,0.219,1.314,0.219c1.306,0,2.365-0.641,2.698-1.633c0.456-1.367-0.597-2.958-2.349-3.546
								C44.907,114.521,44.463,114.446,44.024,114.446z"/>
						</g>
					</g>
				</g>
				<g>
					<g>
						<g>
							<path d="M42.823,114.103c-1.775,0.75-4.345,0.957-5.066,0.786c0.822,0.605,2.291,1.439,3.479,3.523"/>
						</g>
						<g>
							<path d="M41.235,118.921c-0.177,0-0.349-0.092-0.444-0.258c-0.968-1.701-2.12-2.506-2.96-3.094
								c-0.137-0.095-0.263-0.185-0.378-0.271c-0.197-0.143-0.262-0.405-0.161-0.627c0.102-0.219,0.346-0.336,0.582-0.281
								c0.561,0.136,2.999-0.017,4.749-0.757c0.258-0.111,0.56,0.01,0.669,0.272c0.111,0.258-0.01,0.558-0.271,0.667
								c-1.1,0.466-2.531,0.742-3.68,0.841c0.741,0.596,1.592,1.439,2.337,2.744c0.14,0.245,0.054,0.557-0.191,0.698
								C41.409,118.899,41.322,118.921,41.235,118.921z"/>
						</g>
					</g>
				</g>
				<g>
					<g>
						<g>
							<path d="M48.228,116.912c0.139,0.526,0.587,1.41,0.915,1.76c-0.522-0.008-1.21,0.452-1.735,0.841"/>
						</g>
						<g>
							<path d="M47.408,120.023c-0.155,0-0.309-0.072-0.411-0.206c-0.167-0.227-0.119-0.548,0.107-0.716
								c0.376-0.278,0.787-0.56,1.202-0.742c-0.253-0.441-0.477-0.956-0.57-1.317c-0.071-0.271,0.09-0.552,0.364-0.624
								c0.272-0.072,0.553,0.091,0.624,0.363c0.122,0.46,0.538,1.268,0.792,1.542c0.141,0.15,0.179,0.367,0.095,0.555
								c-0.083,0.187-0.26,0.315-0.474,0.305c-0.001,0-0.005,0-0.006,0c-0.28,0-0.756,0.249-1.417,0.738
								C47.62,119.991,47.513,120.023,47.408,120.023z"/>
						</g>
					</g>
				</g>
			</g>
			<g>
				<g>
					<g>
						<g>
							<path d="M82.676,118.374c0.548,1.638,2.634,2.415,4.659,1.737c2.023-0.678,3.22-2.558,2.668-4.192
								c-0.546-1.637-2.633-2.416-4.657-1.737C83.324,114.86,82.128,116.738,82.676,118.374z"/>
						</g>
						<g>
							<path d="M85.857,120.866L85.857,120.866c-1.752,0-3.192-0.915-3.666-2.329c-0.638-1.903,0.705-4.073,2.993-4.841
								c0.536-0.18,1.088-0.271,1.639-0.271c1.753,0,3.19,0.915,3.665,2.331c0.315,0.939,0.165,1.967-0.424,2.893
								c-0.566,0.889-1.478,1.581-2.566,1.948C86.959,120.774,86.408,120.866,85.857,120.866z M86.824,114.446
								c-0.44,0-0.882,0.074-1.315,0.219c-1.752,0.588-2.807,2.179-2.348,3.546c0.333,0.992,1.39,1.633,2.696,1.633l0,0
								c0.439,0,0.881-0.074,1.313-0.219c0.869-0.292,1.589-0.834,2.032-1.527c0.419-0.659,0.531-1.376,0.315-2.02
								C89.187,115.087,88.13,114.446,86.824,114.446z"/>
						</g>
					</g>
				</g>
				<g>
					<g>
						<g>
							<path d="M88.024,114.103c1.775,0.75,4.346,0.957,5.066,0.786c-0.822,0.605-2.289,1.439-3.479,3.523"/>
						</g>
						<g>
							<path d="M89.612,118.921c-0.087,0-0.173-0.022-0.254-0.066c-0.244-0.141-0.33-0.453-0.189-0.698
								c0.744-1.305,1.596-2.148,2.337-2.744c-1.149-0.099-2.582-0.375-3.68-0.841c-0.26-0.109-0.381-0.41-0.272-0.667
								c0.111-0.262,0.412-0.383,0.67-0.272c1.749,0.74,4.188,0.891,4.748,0.757c0.234-0.054,0.479,0.062,0.58,0.281
								c0.106,0.222,0.037,0.484-0.157,0.627c-0.115,0.085-0.243,0.175-0.38,0.271c-0.839,0.589-1.989,1.394-2.958,3.094
								C89.961,118.829,89.789,118.921,89.612,118.921z"/>
						</g>
					</g>
				</g>
				<g>
					<g>
						<g>
							<path d="M82.617,116.912c-0.138,0.526-0.585,1.41-0.913,1.76c0.525-0.008,1.211,0.452,1.735,0.841"/>
						</g>
						<g>
							<path d="M83.439,120.023c-0.106,0-0.213-0.032-0.305-0.101c-0.658-0.49-1.136-0.738-1.416-0.738c-0.004,0-0.009,0-0.014,0
								c-0.203,0-0.386-0.12-0.468-0.306c-0.082-0.188-0.044-0.404,0.095-0.556c0.255-0.272,0.671-1.078,0.794-1.54
								c0.073-0.274,0.352-0.437,0.625-0.363c0.274,0.072,0.435,0.352,0.363,0.625c-0.096,0.361-0.319,0.877-0.572,1.319
								c0.426,0.185,0.847,0.473,1.203,0.738c0.226,0.17,0.272,0.489,0.105,0.716C83.749,119.951,83.596,120.023,83.439,120.023z"/>
						</g>
					</g>
				</g>
			</g>
		</g>
		<g>
			<g>
				<path d="M50.236,121.15c-0.155,0-0.307-0.07-0.406-0.203c-0.028-0.037-0.7-0.932-1.493-3.143
					c-0.692-1.927-2.568-2.733-2.588-2.741c-0.259-0.109-0.381-0.409-0.273-0.668c0.109-0.26,0.41-0.384,0.668-0.275
					c0.093,0.04,2.311,0.991,3.154,3.339c0.732,2.037,1.341,2.862,1.346,2.872c0.169,0.225,0.124,0.546-0.1,0.714
					C50.452,121.117,50.344,121.15,50.236,121.15z"/>
			</g>
		</g>
		<g>
			<g>
				<path d="M80.399,121.152c-0.106,0-0.215-0.035-0.309-0.105c-0.225-0.173-0.268-0.493-0.098-0.716
					c0.005-0.008,0.614-0.833,1.347-2.87c0.841-2.348,3.059-3.299,3.154-3.339c0.258-0.108,0.557,0.015,0.666,0.275
					c0.11,0.259-0.012,0.557-0.271,0.667c-0.026,0.012-1.903,0.832-2.589,2.742c-0.795,2.21-1.465,3.106-1.493,3.143
					C80.706,121.08,80.554,121.152,80.399,121.152z"/>
			</g>
		</g>
	</g>
	<g>
		<g>
			<g>
				<g>
					<path d="M51.456,86.804c-0.707-1.538-1.48-4.54-1.48-4.54s-5.087-13.625-6.519-20.735c-1.431-7.109-2.424-9.114-2.424-9.114
						s-0.177-0.439-0.506-0.33c-0.332,0.11-0.708,0.769-0.641,1.756c0.064,0.988,0.536,6.98,1.265,10.109
						c0.731,3.127,1.677,6.995,2.008,7.899c0.331,0.905,1.06,3.046,1.06,3.046s0.065,0.576-0.265,0.741
						c-0.331,0.165-0.916,0.297-1.513-0.279c-0.598-0.574-6.134-3.071-9.847-7.351c-3.711-4.281-5.807-9.654-6.733-13.606
						c-0.929-3.95-0.664-5.515-1.856-5.431c-1.195,0.081-0.862,4.525-0.2,6.748c0.663,2.223,1.259,4.774,1.259,4.774
						s-5.036-6.749-6.362-11.688c-1.327-4.938-4.154-8.393-3.69-16.542s4.155-20.25,4.884-22.883c0.729-2.634,2.186-7.817,1.59-8.89
						c-0.596-1.07-1.59-0.328-2.188,1.728c-0.596,2.059-4.44,12.018-5.303,15.394c-0.859,3.375-1.934,10.235-3.644,11.467
						c-1.826,1.312-3.911-0.438-5.104-2.826c-1.191-2.386-2.319-4.198-2.187-8.971c0.131-4.774,0.795-9.877,0.795-11.688
						c0-1.811-0.288-4.205-1.105-2.516c0,0-4.929,16.194-1.59,22.908c1.218,2.449,2.498,4.685,3.727,6.8
						c-1.786-1.118-4.003-2.001-4.38-1.114c-0.498,1.176,0.946,1.468,4.024,3.82c3.081,2.351,4.761,6.117,7.128,11.397l-0.017-0.105
						c2.22,5.319,5.48,12.059,7.009,14.747c1.907,3.357,7.473,10.268,10.335,12.243c2.861,1.976,6.201,3.556,8.587,5.331
						c2.385,1.779,6.042,6.32,6.042,6.32s1.119,2.918,1.296,4.236c0.175,1.318,1.679,1.318,3.359,0.549
						C49.952,89.438,52.027,88.046,51.456,86.804z"/>
				</g>
			</g>
		</g>
		<g>
			<g>
				<g>
					<path d="M77.316,86.804c0.708-1.538,1.48-4.54,1.48-4.54s5.088-13.625,6.519-20.735c1.431-7.109,2.423-9.114,2.423-9.114
						s0.177-0.439,0.51-0.33c0.332,0.11,0.708,0.769,0.639,1.756c-0.064,0.988-0.536,6.98-1.264,10.109
						c-0.731,3.127-1.676,6.995-2.009,7.899c-0.332,0.905-1.061,3.046-1.061,3.046s-0.065,0.576,0.265,0.741
						c0.333,0.165,0.917,0.297,1.514-0.279c0.597-0.574,6.134-3.071,9.846-7.351c3.712-4.281,5.806-9.654,6.734-13.606
						c0.928-3.95,0.663-5.515,1.856-5.431c1.192,0.081,0.861,4.525,0.199,6.748c-0.664,2.223-1.26,4.774-1.26,4.774
						s5.038-6.749,6.362-11.688c1.328-4.938,4.154-8.393,3.691-16.542c-0.464-8.15-4.154-20.25-4.883-22.883
						c-0.729-2.634-2.188-7.817-1.592-8.89c0.597-1.07,1.592-0.328,2.188,1.728c0.596,2.059,4.44,12.018,5.303,15.394
						c0.861,3.375,1.935,10.235,3.645,11.467c1.824,1.312,3.911-0.438,5.104-2.826c1.191-2.386,2.318-4.198,2.186-8.971
						c-0.132-4.774-0.794-9.877-0.794-11.688c0-1.811,0.286-4.205,1.104-2.516c0,0,4.931,16.194,1.589,22.908
						c-1.216,2.449-2.498,4.685-3.727,6.8c1.787-1.118,4.004-2.001,4.381-1.114c0.498,1.176-0.947,1.468-4.025,3.82
						c-3.08,2.351-4.76,6.117-7.128,11.397l0.017-0.105c-2.22,5.319-5.48,12.059-7.009,14.747
						c-1.908,3.357-7.472,10.268-10.334,12.243c-2.862,1.976-6.202,3.556-8.586,5.331c-2.385,1.779-6.043,6.32-6.043,6.32
						s-1.12,2.918-1.296,4.236c-0.177,1.318-1.682,1.318-3.36,0.549C78.82,89.438,76.745,88.046,77.316,86.804z"/>
				</g>
			</g>
		</g>
	</g>
</g>
</svg>
