<svg version="1.1" id="圖層_1" xmlns="http://www.w3.org/2000/svg" xmlns:xlink="http://www.w3.org/1999/xlink" x="0px" y="0px"
	 width="60px" height="60px" viewBox="0 0 60 60" enable-background="new 0 0 60 60" xml:space="preserve">
<path fill-rule="evenodd" clip-rule="evenodd" fill="#FFFFFF" d="M15.214,34.03c0.52-0.03,0.55,0.44,1.15,0.33
	c0.42-1.9,1.39-3.23,2.28-4.65c-0.36-0.13-0.21-0.78-0.65-0.83C16.664,30.19,15.904,32.07,15.214,34.03z M24.684,23.74
	c-0.43,1.45,2.26,3.2,3.59,3.98c1.8,1.05,3.47,1.94,4.57,2.82c1.43-1.64,3.04-3.09,4.07-5.14c-0.32-0.39-0.54-0.89-1.14-1
	c-1.22,1.02-2.43,2.07-3.59,3.15C29.504,26.57,27.534,24,24.684,23.74z M21.904,24.07c0.2,0.8,0.74,1.25,0.98,1.99
	c0.5,0.12,0.48-0.29,0.98-0.17c0.23-0.86,0.03-1.26,0.16-2.32C23.054,23.47,22.624,23.91,21.904,24.07z M17.824,26.72
	c0.35,0.87,0.86,1.56,1.15,2.49c0.4,0.22,0.79-0.37,0.81,0c0.12,0.51-0.45,0.32-0.32,0.83c0.66,0.32,0.86,1.11,1.46,1.5
	c0.98-0.78,1.73-1.79,2.78-2.49c-1.02-1.96-2.06-3.89-3.26-5.65C19.583,24.53,18.674,25.59,17.824,26.72z M43.604,15.771
	c0.5-0.12,0.6,0.17,0.98,0.17c-0.12-1.02,0.22-1.56,0.17-2.49h-1.15V15.771z M40.344,9.79c-0.11,1.3,1.88,2.87,3.1,2.99
	c2.2,0.22,3.63-1.44,4.08-3.32c-1.72-0.9-3.03-2.23-4.24-3.65C43.094,7.82,40.484,8.17,40.344,9.79z M44.264,4.15
	c-0.8,2.19,1.63,3.69,3.42,4.32C48.404,6.33,46.604,4.25,44.264,4.15z M40.014,8.8c1.37-1.25,3.53-2.95,3.1-4.98
	C40.293,3.66,40.214,6.29,40.014,8.8z M45.244,15.6c0.46,0.46,0.73-0.68,1.46-0.49c0.25,0.63,0.64,1.12,0.98,1.66
	c-0.64,0.49-1.1-0.35-1.3-0.83c-0.78,1.16-3.65,0.67-4.57,0c-2.17,2.16-3.99,4.68-6.04,6.97c0.4,0.81,1.28,1.14,1.63,1.99
	c1.41-1.06,1.77-3.18,3.76-3.65c-1.7,3.36-2.21,7.94-2.61,12.61c2.4,0.51,5.39,0.75,7.99,0.17c-0.1-1.52-0.13-3.14,0.33-4.48
	c0.62,1.3,0.07,3.42,0.16,5.14c-2.21,0.76-5.48,0.04-8.48,0.17c-1.32,3.25-2.8,6.34-3.59,10.12c4.73,0.61,9.23,0.74,13.7-0.33
	c-0.45-3.41-2.13-6.45-2.28-9.63c1.03,1.17,1.33,3.13,1.79,4.82c0.49,1.75,1.22,3.51,1.15,5.14c-1.24,0.85-3.28,0.87-5.06,1.16
	c0.16,2.78,1.6,5.67,1.47,8.63c-1.49-2.14-1.46-5.82-2.29-8.63c-0.67-0.02-1.02,0.29-1.79,0.17c-0.37,2.2,0.74,6.47,0.49,8.46
	c-1.53-1.54-0.82-5.37-1.15-8.13c-0.49-0.66-1.76-0.53-2.77-0.66c-0.84,2.79,0.66,6.99,0.16,9.96c-0.71-0.83-0.71-2.26-0.81-3.49
	c-0.19-2.3-0.34-4.16-0.17-6.31c-0.77-0.42-2.5,0.12-3.1-0.49c0.27-2.54,1.13-4.91,1.96-6.98c0.54-1.34,1.51-2.34,1.63-3.65
	c0.34-3.64,0.58-7.89,1.64-11.45c-2.3,2.59-4.24,5.54-6.69,7.97c-2.57-2.1-5.74-3.57-8.33-5.65c-0.44,0.21-0.72,0.6-1.14,0.83
	c0,1.24,1.67,1.41,1.31,2.49c-1.47,1.01-3.36,2.18-3.27,3.82c-1.15-0.48-1.39-1.9-2.44-2.49c-1.15,1.38-1.78,3.28-2.61,4.98
	c-0.68-0.41-1.39-0.81-1.96-1.33c0.92-2.16,1.81-4.35,3.26-5.97c0.2-0.7-0.69-0.3-0.81-0.67c0.69-2.16,2.45-3.25,3.59-4.98
	c0.41,0.68,1.22-0.06,1.3,0.83c1.26-0.66,2.97-0.3,4.08-0.49c1.8,1.54,4.16,2.52,6.2,3.81c1.15-0.93,2.16-2.01,3.43-2.82
	c-0.17-0.38-0.57-0.53-0.49-1.16c2.42-2.51,4.56-5.32,6.85-7.97c0.39,0.22,0.38,0.84,0.98,0.83c0.44-0.32-0.1-1.65,0.32-1.99
	c-3.98-0.84-4.9-7.88-1.79-10.45c2.75-0.32,4.1,0.81,6.04,1.32c2.06,2.52,0.75,7.91-1.96,8.63
	C45.364,14.08,45.184,14.32,45.244,15.6z"/>
<path fill-rule="evenodd" clip-rule="evenodd" fill="#FFFFFF" d="M53.563,6.97c0.14,0.53-0.26,0.52-0.33,0.83
	c-0.38,0.05-0.18-0.48-0.49-0.5C52.774,6.94,53.154,6.95,53.563,6.97z"/>
<path fill-rule="evenodd" clip-rule="evenodd" fill="#FFFFFF" d="M41.974,9.46c0.76,0.46,0.3,1.1,0,1.66
	c-0.52-0.13-0.73-0.57-0.65-1.33C41.624,9.771,41.874,9.69,41.974,9.46z"/>
<path fill-rule="evenodd" clip-rule="evenodd" fill="#FFFFFF" d="M46.704,9.79c0.05,0.83-0.22,1.33-1.14,1.17
	C45.274,9.92,45.954,9.23,46.704,9.79z"/>
<path fill-rule="evenodd" clip-rule="evenodd" fill="#FFFFFF" d="M56.333,9.96c0.45,0,0.39,0.78,0.16,1
	c-0.13-0.09-0.26-0.18-0.49-0.17C55.874,10.26,56.154,10.16,56.333,9.96z"/>
<path fill-rule="evenodd" clip-rule="evenodd" fill="#FFFFFF" d="M11.464,35.19c0.34-0.07,0.43,0.11,0.65,0.16
	c-0.1,0.56-0.5,0.82-0.65,1.33C10.744,36.43,11.583,35.82,11.464,35.19z"/>
<path fill-rule="evenodd" clip-rule="evenodd" fill="#FFFFFF" d="M14.563,35.35c0.6,0.46,0.04,1.83-0.65,2
	C13.563,36.69,14.344,35.96,14.563,35.35z"/>
<path fill-rule="evenodd" clip-rule="evenodd" fill="#FFFFFF" d="M15.704,36.521c0.6,0.05,0.26,1.07,0.49,1.49
	C15.194,38.39,15.514,36.83,15.704,36.521z"/>
<path fill-rule="evenodd" clip-rule="evenodd" fill="#FFFFFF" d="M17.824,37.84c0.48,0.55,1.12,3.09,0.17,3.49
	C17.984,40.19,17.394,38.88,17.824,37.84z"/>
<path fill-rule="evenodd" clip-rule="evenodd" fill="#FFFFFF" d="M38.874,39.01c-0.04,1.33-0.18,2.69,0.49,3.65
	c0.77-0.16,1.53-0.33,2.45-0.33c-0.15-1.12-0.31-2.23-0.33-3.49C40.764,39.04,39.813,39.021,38.874,39.01z M42.144,38.84
	c0.07,1.25,0.16,2.49,0.49,3.49c0.71-0.25,1.69-0.24,2.12-0.34c0.2-0.89,0.28-2.44,0-3.32C43.904,38.75,42.724,38.5,42.144,38.84z
	 M45.404,38.34c0.22,1.5,0.02,2.94,0,4.48c-2.43-0.17-4.72,0.59-6.69,0.34c-0.61-1.55-0.28-3.74-0.49-4.65
	C40.494,38.41,43.654,37.41,45.404,38.34z"/>
<path fill-rule="evenodd" clip-rule="evenodd" fill="#FFFFFF" d="M10.484,38.51c-0.86,1.07-1.92,2.78-3.26,2.82
	C8.264,40.44,9.014,38.41,10.484,38.51z"/>
<path fill-rule="evenodd" clip-rule="evenodd" fill="#FFFFFF" d="M11.954,39.34c0.36,0.91-0.27,2.58-1.47,2.82
	C10.333,41.2,11.534,40.26,11.954,39.34z"/>
<path fill-rule="evenodd" clip-rule="evenodd" fill="#FFFFFF" d="M14.724,41.33c0.59,0.54-0.46,1.99-0.65,2.82
	C12.994,43.521,14.534,42.22,14.724,41.33z"/>
<path fill-rule="evenodd" clip-rule="evenodd" fill="#FFFFFF" d="M11.134,46.48c0.46,1.09-0.73,3.37-0.48,4.48
	C9.604,49.94,10.754,47.62,11.134,46.48z"/>
<path fill-rule="evenodd" clip-rule="evenodd" fill="#FFFFFF" d="M3.964,46.64c-0.62,1.59-1.78,2.62-2.13,4.48
	C1.494,49.23,2.784,47.55,3.964,46.64z"/>
<path fill-rule="evenodd" clip-rule="evenodd" fill="#FFFFFF" d="M18.484,51.12c0.55,1.28,0.43,3.89,0.65,4.98
	C17.924,55.55,18.194,52.13,18.484,51.12z"/>
<path fill-rule="evenodd" clip-rule="evenodd" fill="#FFFFFF" d="M45.074,28.38c0.82-0.1,2.07,0.22,2.61-0.16
	c-0.87-0.22-1.59-0.6-2.44-0.83C45.354,27.9,44.954,27.88,45.074,28.38z M46.224,24.23c1.05,0.21,1.36,1.16,2.44,1.33
	c0.62-1.69,1.6-3.02,2.12-4.81c-1.28-0.52-2.26-1.35-3.75-1.66C46.904,20.94,46.504,22.54,46.224,24.23z M57.964,14.61
	c0.43-0.46-0.06-0.91-0.49-1C57.414,14.17,57.764,14.32,57.964,14.61z M52.744,13.28c0.7,0.2,0.66-1.31,0.16-1.33
	C52.944,12.49,52.624,12.65,52.744,13.28z M50.784,10.46c-0.35-0.14-1.11,0.05-0.65-0.83c-0.48,0.01-0.61,0.38-0.81,0.66
	c-0.12,0.45,0.33,0.32,0.48,0.5c-0.09,0.57-0.63,0.1-0.97,0c-0.25-1.25,0.61-1.37,1.14-1.83c0.61,0.26,0.59,0.9,1.47,0.5
	c0.36,0.24-0.21,0.41,0.16,0.5c-0.19,0.92-0.9,1.3-1.47,1.83c0.02,0.42,0.61,0.26,0.82,0.49c-0.2,0.97-0.54,1.22-1.31,1.83
	c-0.04,0.48,0.31,0.57,0.49,0.83c-0.09,0.79-0.64,1.12-1.3,1.33c-0.2,0.68-0.03,1.75-0.33,2.32c1.11,1.2,2.47-0.62,2.12-1.99
	c0.23-0.32,0.79-0.3,1.14-0.5c-0.29-0.31-0.12-1.09-0.16-1.66c0.46-0.23,0.94-0.44,1.47-0.16c0.2-0.66-0.39-0.5-0.82-0.5
	c-0.05-1.74,0.25-3.51,1.14-4.65c0.6,0.34,0.69,0.44,1.31,0.5c0.01,0.73-0.24,1.2-0.65,1.49c1.26,1.08-0.65,2.24-0.66,3.16
	c0.14,0.24,0.53,0.24,0.82,0.33c0,0.39-0.28,0.49-0.16,0.99c-0.73,0.53-1.34,0.38-1.8,1.33c-0.08,0.52,0.5,0.38,0.33,1
	c-1.19,0.27-1.82,0.57-2.61,1.49c0.67,0.51,1.55-0.19,2.28-0.16c0.33-0.5,0.25-1.41,0.82-1.66c0.5-0.02,0.48,0.5,0.49,0.99
	c0.72,0.01,1.02-0.4,1.3-0.83c-0.57-0.35-0.57-1.31,0-1.66c0.52-0.08,0.67,0.21,0.82,0.5c0.37-0.18,0.59-0.5,0.65-1
	c-0.2-0.47-0.47,0.72-0.81,0.17c0.65-0.81,0.18-0.93,0.16-2.16c0.4-0.19,0.79-0.94,1.3-0.5c-0.16-0.66,0.26-0.73,0.49-0.99
	c0.43,0.56,0.59,1.4,1.31,1.66c-0.36,0.91-0.61,1.92-1.96,1.82c0.05,0.27-0.15,0.29-0.16,0.5c0,0.5,0.77,0.21,0.98,0.5
	c-0.3,1.88-2.44,0.92-3.27,2.32c0.02,0.43,0.61,0.27,0.82,0.5c-0.14,0.82-1.12,1.23-1.8,1c-0.13-0.2-0.21-0.45-0.16-0.83
	c-0.7,0.06-1.08,0.44-1.79,0.5c0.12,1.56-1.55,3.87-2.29,5.64c0.08,0.42,0.71,0.28,0.82,0.66c-1.17,0.74-2.7-0.86-3.59-1.49
	c-0.29,0.15-0.42,0.46-0.98,0.33c0.05-0.38-0.03-0.64-0.16-0.83c-0.41,0.02-0.79,0.03-0.98-0.17c-0.47,0.03-0.3,0.7-0.33,1.17
	c1.44,1.42,4.06,2.69,6.36,1.82c-0.24,1.58-2.4,0.21-2.44,1.99c-0.95-0.3-2.53,0.03-3.43-0.33c-0.09-0.69,0.29-0.93,0.33-1.49
	c-0.2-0.74-0.86-1.01-1.47-1.33c-0.08-1.13,0.02-2.07,0.49-2.66c0.5,0.21,1.16,0.26,1.79,0.34c0.79-1.68,0.44-3.52,1.14-5.31
	c0.65-0.13,0.66-0.13,1.31,0c1.01-1.28-1.1-4.17,0.65-4.82c-0.64-0.78-0.19-2.63,0.98-1.99C50.114,11.32,50.063,10.49,50.784,10.46z
	"/>
</svg>
