<svg version="1.1" id="圖層_1" xmlns="http://www.w3.org/2000/svg" xmlns:xlink="http://www.w3.org/1999/xlink" x="0px" y="0px"
	 width="4204px" height="36.081px" viewBox="0 0 4204 36.081" enable-background="new 0 0 4204 36.081" xml:space="preserve">
<path fill-rule="evenodd" clip-rule="evenodd" fill="#7C4697" d="M2832.501-16c-1.574,0-3.148,0-4.723,0
	c-479.635,0-959.204,0-1438.826,0c-0.375,0-0.75,0-1.125,0c-481.196,0-962.34,0-1443.549,0c0,10.799,0,31.231,0,32.073
	c160.984-1.798,303.579,14.74,457.479,20.005c20.734,0,41.469,0,62.202,0c75.246,0.224,150.34-11.425,225.73-15.004
	c115.633-5.489,235.661,5.001,351.136,5.001c37.372,0,75.226-3.277,113.367-6.001c77.041-5.503,155.24-3.599,234.197-4.992
	c78.957,1.394,157.156-0.511,234.197,4.992c38.142,2.724,75.995,6.001,113.367,6.001c115.475,0,235.503-10.49,351.136-5.001
	c75.39,3.579,150.484,15.228,225.73,15.004c20.733,0,41.468,0,62.202,0c152.391-5.213,293.707-21.468,452.757-20.041
	c0,0.011,0,0.026,0,0.036c0.79-0.009,1.572-0.011,2.361-0.019c0.789,0.008,1.571,0.01,2.361,0.019c0-0.01,0-0.025,0-0.036
	c159.05-1.427,300.366,14.828,452.757,20.041c20.734,0,41.469,0,62.202,0c75.246,0.224,150.34-11.425,225.729-15.004
	c115.633-5.489,235.661,5.001,351.137,5.001c37.371,0,75.225-3.277,113.367-6.001c77.224-5.516,155.611-3.588,234.759-5.001
	c0-8.802,0-29.32,0-31.073C3792.455-16,3312.51-16,2832.501-16z"/>
</svg>
